G04*
G04 #@! TF.GenerationSoftware,Altium Limited,Altium Designer,20.0.13 (296)*
G04*
G04 Layer_Color=8388736*
%FSLAX44Y44*%
%MOMM*%
G71*
G01*
G75*
%ADD49R,1.7332X2.9232*%
%ADD50R,7.2032X4.2032*%
%ADD51R,1.1700X3.3200*%
%ADD52R,10.5700X8.4200*%
%ADD53R,2.9972X4.0132*%
%ADD54R,1.1032X1.7032*%
%ADD55R,0.8032X2.2632*%
%ADD56R,1.6032X1.2032*%
G04:AMPARAMS|DCode=57|XSize=1.7732mm|YSize=0.6132mm|CornerRadius=0.1529mm|HoleSize=0mm|Usage=FLASHONLY|Rotation=270.000|XOffset=0mm|YOffset=0mm|HoleType=Round|Shape=RoundedRectangle|*
%AMROUNDEDRECTD57*
21,1,1.7732,0.3075,0,0,270.0*
21,1,1.4675,0.6132,0,0,270.0*
1,1,0.3057,-0.1538,-0.7338*
1,1,0.3057,-0.1538,0.7338*
1,1,0.3057,0.1538,0.7338*
1,1,0.3057,0.1538,-0.7338*
%
%ADD57ROUNDEDRECTD57*%
%ADD58R,1.2032X1.0032*%
%ADD59R,4.9200X1.2200*%
%ADD60R,1.0032X1.2032*%
%ADD61R,1.2032X1.6032*%
%ADD62R,1.4132X0.7832*%
%ADD63R,0.7832X1.4132*%
%ADD64R,1.6732X1.1632*%
%ADD65O,0.8032X2.1032*%
%ADD66R,0.7200X2.3200*%
G04:AMPARAMS|DCode=67|XSize=1.7632mm|YSize=0.4832mm|CornerRadius=0.1366mm|HoleSize=0mm|Usage=FLASHONLY|Rotation=90.000|XOffset=0mm|YOffset=0mm|HoleType=Round|Shape=RoundedRectangle|*
%AMROUNDEDRECTD67*
21,1,1.7632,0.2100,0,0,90.0*
21,1,1.4900,0.4832,0,0,90.0*
1,1,0.2732,0.1050,0.7450*
1,1,0.2732,0.1050,-0.7450*
1,1,0.2732,-0.1050,-0.7450*
1,1,0.2732,-0.1050,0.7450*
%
%ADD67ROUNDEDRECTD67*%
G04:AMPARAMS|DCode=68|XSize=1.7632mm|YSize=0.4832mm|CornerRadius=0.1366mm|HoleSize=0mm|Usage=FLASHONLY|Rotation=0.000|XOffset=0mm|YOffset=0mm|HoleType=Round|Shape=RoundedRectangle|*
%AMROUNDEDRECTD68*
21,1,1.7632,0.2100,0,0,0.0*
21,1,1.4900,0.4832,0,0,0.0*
1,1,0.2732,0.7450,-0.1050*
1,1,0.2732,-0.7450,-0.1050*
1,1,0.2732,-0.7450,0.1050*
1,1,0.2732,0.7450,0.1050*
%
%ADD68ROUNDEDRECTD68*%
%ADD69R,2.5782X2.1032*%
%ADD70R,1.3782X2.1032*%
%ADD71R,2.0532X2.3032*%
%ADD72R,0.6532X1.5832*%
%ADD73R,2.3200X0.7200*%
%ADD74R,1.2200X0.9200*%
G04:AMPARAMS|DCode=75|XSize=2.1732mm|YSize=0.8032mm|CornerRadius=0.1766mm|HoleSize=0mm|Usage=FLASHONLY|Rotation=0.000|XOffset=0mm|YOffset=0mm|HoleType=Round|Shape=RoundedRectangle|*
%AMROUNDEDRECTD75*
21,1,2.1732,0.4500,0,0,0.0*
21,1,1.8200,0.8032,0,0,0.0*
1,1,0.3532,0.9100,-0.2250*
1,1,0.3532,-0.9100,-0.2250*
1,1,0.3532,-0.9100,0.2250*
1,1,0.3532,0.9100,0.2250*
%
%ADD75ROUNDEDRECTD75*%
%ADD76R,0.5588X1.6256*%
%ADD77R,2.0032X1.1032*%
%ADD78R,1.1032X2.0032*%
%ADD79R,1.7032X1.7032*%
%ADD80C,1.7032*%
%ADD81R,1.2632X1.2632*%
%ADD82C,1.2632*%
%ADD83R,1.5200X1.5200*%
%ADD84C,1.5200*%
%ADD85R,1.5112X1.5112*%
%ADD86C,1.5112*%
%ADD87R,1.5112X1.5112*%
%ADD88R,1.7032X1.7032*%
%ADD89C,1.8082*%
%ADD90R,1.8082X1.8082*%
%ADD91R,2.3032X2.3032*%
%ADD92C,2.3032*%
%ADD93R,2.1082X2.1082*%
%ADD94C,2.1082*%
%ADD95R,1.8032X1.8032*%
%ADD96C,1.8032*%
%ADD97C,1.7200*%
%ADD98R,1.7200X1.7200*%
%ADD99C,3.6032*%
%ADD100R,1.8532X1.8532*%
%ADD101C,1.8532*%
%ADD102C,2.9032*%
%ADD103O,2.8448X1.5240*%
%ADD104R,2.8448X1.5240*%
%ADD105C,2.0032*%
%ADD106R,2.0032X2.0032*%
%ADD107R,1.8082X1.8082*%
%ADD108R,1.7200X1.7200*%
%ADD109C,1.0032*%
%ADD110C,4.2032*%
D49*
X508590Y985500D02*
D03*
X535410D02*
D03*
D50*
X762500Y591250D02*
D03*
Y691250D02*
D03*
D51*
X915500Y537500D02*
D03*
X898500D02*
D03*
X881500D02*
D03*
X864500D02*
D03*
X847500D02*
D03*
D52*
X881500Y443000D02*
D03*
D53*
X1008685Y819250D02*
D03*
X937315D02*
D03*
X848815Y613750D02*
D03*
X920185D02*
D03*
D54*
X37750Y750750D02*
D03*
X23750D02*
D03*
Y719750D02*
D03*
X37750D02*
D03*
D55*
X437300Y947400D02*
D03*
X450000D02*
D03*
X462700D02*
D03*
X475400D02*
D03*
X488100D02*
D03*
X500800D02*
D03*
X513500D02*
D03*
X526200D02*
D03*
Y854600D02*
D03*
X513500D02*
D03*
X500800D02*
D03*
X488100D02*
D03*
X475400D02*
D03*
X462700D02*
D03*
X450000D02*
D03*
X437300D02*
D03*
D56*
X342000Y872250D02*
D03*
Y892250D02*
D03*
X272250Y1062500D02*
D03*
Y1082500D02*
D03*
X290250Y1042750D02*
D03*
Y1022750D02*
D03*
X526750Y802500D02*
D03*
Y782500D02*
D03*
X502250Y782500D02*
D03*
Y802500D02*
D03*
X462500Y802500D02*
D03*
Y782500D02*
D03*
X437500Y802500D02*
D03*
Y782500D02*
D03*
X599000Y753500D02*
D03*
Y733500D02*
D03*
X628250Y733500D02*
D03*
Y753500D02*
D03*
X599000Y867750D02*
D03*
Y847750D02*
D03*
Y810625D02*
D03*
Y790625D02*
D03*
X628250Y790625D02*
D03*
Y810625D02*
D03*
X209750Y356500D02*
D03*
Y336500D02*
D03*
X99250Y1025000D02*
D03*
Y1005000D02*
D03*
X65000Y1021000D02*
D03*
Y1001000D02*
D03*
X65000Y981500D02*
D03*
Y961500D02*
D03*
X42250Y981750D02*
D03*
Y961750D02*
D03*
X785750Y541750D02*
D03*
Y521750D02*
D03*
X809000Y498750D02*
D03*
Y518750D02*
D03*
X128250Y1025000D02*
D03*
Y1005000D02*
D03*
X628250Y847750D02*
D03*
Y867750D02*
D03*
D57*
X287250Y357800D02*
D03*
X280750D02*
D03*
X274250D02*
D03*
X267750D02*
D03*
X261250D02*
D03*
X254750D02*
D03*
X248250D02*
D03*
X241750D02*
D03*
X235250D02*
D03*
X228750D02*
D03*
Y415200D02*
D03*
X235250D02*
D03*
X241750D02*
D03*
X248250D02*
D03*
X254750D02*
D03*
X261250D02*
D03*
X267750D02*
D03*
X274250D02*
D03*
X280750D02*
D03*
X287250D02*
D03*
X414750Y326550D02*
D03*
X408250D02*
D03*
X401750D02*
D03*
X395250D02*
D03*
X388750D02*
D03*
X382250D02*
D03*
X375750D02*
D03*
X369250D02*
D03*
X362750D02*
D03*
X356250D02*
D03*
Y383950D02*
D03*
X362750D02*
D03*
X369250D02*
D03*
X375750D02*
D03*
X382250D02*
D03*
X388750D02*
D03*
X395250D02*
D03*
X401750D02*
D03*
X408250D02*
D03*
X414750D02*
D03*
D58*
X294250Y1081250D02*
D03*
Y1065250D02*
D03*
X185750Y488750D02*
D03*
Y472750D02*
D03*
X187750Y690000D02*
D03*
Y674000D02*
D03*
X364250Y652750D02*
D03*
Y668750D02*
D03*
D59*
X33000Y595250D02*
D03*
X129000D02*
D03*
D60*
X38250Y636250D02*
D03*
X22250D02*
D03*
X38250Y673500D02*
D03*
X22250D02*
D03*
X831250Y326250D02*
D03*
X847250D02*
D03*
X745500Y306750D02*
D03*
X729500D02*
D03*
X782500Y239000D02*
D03*
X766500D02*
D03*
X414250Y437500D02*
D03*
X398250D02*
D03*
X329000Y483750D02*
D03*
X345000D02*
D03*
X103500Y537000D02*
D03*
X87500D02*
D03*
D61*
X192500Y422250D02*
D03*
X212500D02*
D03*
X692000Y383720D02*
D03*
X712000D02*
D03*
X690500Y435000D02*
D03*
X710500D02*
D03*
X690750Y409360D02*
D03*
X710750D02*
D03*
X869250Y347500D02*
D03*
X849250D02*
D03*
X747750Y327500D02*
D03*
X727750D02*
D03*
X784750Y259000D02*
D03*
X764750D02*
D03*
X888750Y78500D02*
D03*
X908750D02*
D03*
X888750Y106500D02*
D03*
X908750D02*
D03*
X888750Y135750D02*
D03*
X908750D02*
D03*
X889000Y163500D02*
D03*
X909000D02*
D03*
X889000Y220500D02*
D03*
X909000D02*
D03*
X887750Y192500D02*
D03*
X907750D02*
D03*
X485750Y204000D02*
D03*
X505750D02*
D03*
X485250Y177000D02*
D03*
X505250D02*
D03*
X17500Y501000D02*
D03*
X37500D02*
D03*
X17500Y521000D02*
D03*
X37500D02*
D03*
X17500Y541250D02*
D03*
X37500D02*
D03*
X17500Y480750D02*
D03*
X37500D02*
D03*
X124750Y537500D02*
D03*
X144750D02*
D03*
X116000Y51000D02*
D03*
X96000D02*
D03*
X167000Y713000D02*
D03*
X187000D02*
D03*
X72250Y730500D02*
D03*
X92250D02*
D03*
X72250Y687375D02*
D03*
X92250D02*
D03*
X72250Y643500D02*
D03*
X92250D02*
D03*
D62*
X655550Y117000D02*
D03*
Y126500D02*
D03*
Y136000D02*
D03*
X630450Y117000D02*
D03*
Y126500D02*
D03*
Y136000D02*
D03*
X655550Y154500D02*
D03*
Y164000D02*
D03*
Y173500D02*
D03*
X630450Y154500D02*
D03*
Y164000D02*
D03*
Y173500D02*
D03*
X655550Y191750D02*
D03*
Y201250D02*
D03*
Y210750D02*
D03*
X630450Y191750D02*
D03*
Y201250D02*
D03*
Y210750D02*
D03*
D63*
X224500Y259500D02*
D03*
X215000D02*
D03*
X205500D02*
D03*
X224500Y234400D02*
D03*
X215000D02*
D03*
X205500D02*
D03*
X262000Y259500D02*
D03*
X252500D02*
D03*
X243000D02*
D03*
X262000Y234400D02*
D03*
X252500D02*
D03*
X243000D02*
D03*
X299250Y259500D02*
D03*
X289750D02*
D03*
X280250D02*
D03*
X299250Y234400D02*
D03*
X289750D02*
D03*
X280250D02*
D03*
X336750Y259500D02*
D03*
X327250D02*
D03*
X317750D02*
D03*
X336750Y234400D02*
D03*
X327250D02*
D03*
X317750D02*
D03*
X374250Y259500D02*
D03*
X364750D02*
D03*
X355250D02*
D03*
X374250Y234400D02*
D03*
X364750D02*
D03*
X355250D02*
D03*
X413750Y259500D02*
D03*
X404250D02*
D03*
X394750D02*
D03*
X413750Y234400D02*
D03*
X404250D02*
D03*
X394750D02*
D03*
X489000Y259500D02*
D03*
X479500D02*
D03*
X470000D02*
D03*
X489000Y234400D02*
D03*
X479500D02*
D03*
X470000D02*
D03*
X451500Y259500D02*
D03*
X442000D02*
D03*
X432500D02*
D03*
X451500Y234400D02*
D03*
X442000D02*
D03*
X432500D02*
D03*
D64*
X19750Y960970D02*
D03*
Y980530D02*
D03*
D65*
X413050Y1072500D02*
D03*
X400350D02*
D03*
X387650D02*
D03*
X374950D02*
D03*
X413050Y1025500D02*
D03*
X400350D02*
D03*
X387650D02*
D03*
X374950D02*
D03*
D66*
X352800Y1075500D02*
D03*
X340100D02*
D03*
X327400D02*
D03*
X314700D02*
D03*
X352800Y1027500D02*
D03*
X340100D02*
D03*
X327400D02*
D03*
X314700D02*
D03*
D67*
X205250Y504950D02*
D03*
X210250D02*
D03*
X215250D02*
D03*
X220250D02*
D03*
X225250D02*
D03*
X230250D02*
D03*
X235250D02*
D03*
X240250D02*
D03*
X245250D02*
D03*
X250250D02*
D03*
X255250D02*
D03*
X260250D02*
D03*
X265250D02*
D03*
X270250D02*
D03*
X275250D02*
D03*
X280250D02*
D03*
X285250D02*
D03*
X290250D02*
D03*
X295250D02*
D03*
X300250D02*
D03*
X305250D02*
D03*
X310250D02*
D03*
X315250D02*
D03*
X320250D02*
D03*
X325250D02*
D03*
Y658550D02*
D03*
X320250D02*
D03*
X315250D02*
D03*
X310250D02*
D03*
X305250D02*
D03*
X300250D02*
D03*
X295250D02*
D03*
X290250D02*
D03*
X285250D02*
D03*
X280250D02*
D03*
X275250D02*
D03*
X270250D02*
D03*
X265250D02*
D03*
X260250D02*
D03*
X255250D02*
D03*
X250250D02*
D03*
X245250D02*
D03*
X240250D02*
D03*
X235250D02*
D03*
X230250D02*
D03*
X225250D02*
D03*
X220250D02*
D03*
X215250D02*
D03*
X210250D02*
D03*
X205250D02*
D03*
D68*
X188450Y641750D02*
D03*
Y636750D02*
D03*
Y631750D02*
D03*
Y626750D02*
D03*
Y621750D02*
D03*
Y616750D02*
D03*
Y611750D02*
D03*
Y606750D02*
D03*
Y601750D02*
D03*
Y596750D02*
D03*
Y591750D02*
D03*
Y586750D02*
D03*
Y581750D02*
D03*
Y576750D02*
D03*
Y571750D02*
D03*
Y566750D02*
D03*
Y561750D02*
D03*
Y556750D02*
D03*
Y551750D02*
D03*
Y546750D02*
D03*
Y541750D02*
D03*
Y536750D02*
D03*
Y531750D02*
D03*
Y526750D02*
D03*
Y521750D02*
D03*
X342050D02*
D03*
Y526750D02*
D03*
Y531750D02*
D03*
Y536750D02*
D03*
Y541750D02*
D03*
Y546750D02*
D03*
Y551750D02*
D03*
Y556750D02*
D03*
Y561750D02*
D03*
Y566750D02*
D03*
Y571750D02*
D03*
Y576750D02*
D03*
Y581750D02*
D03*
Y586750D02*
D03*
Y591750D02*
D03*
Y596750D02*
D03*
Y601750D02*
D03*
Y606750D02*
D03*
Y611750D02*
D03*
Y616750D02*
D03*
Y621750D02*
D03*
Y626750D02*
D03*
Y631750D02*
D03*
Y636750D02*
D03*
Y641750D02*
D03*
D69*
X81250Y1110500D02*
D03*
X139250D02*
D03*
D70*
X102000Y1110400D02*
D03*
X118500D02*
D03*
D71*
X83750Y1083900D02*
D03*
X136750D02*
D03*
D72*
X123250D02*
D03*
X116750D02*
D03*
X110250D02*
D03*
X103750D02*
D03*
X97250D02*
D03*
D73*
X854750Y777550D02*
D03*
Y790250D02*
D03*
Y802950D02*
D03*
Y815650D02*
D03*
Y828350D02*
D03*
Y841050D02*
D03*
Y853750D02*
D03*
Y866450D02*
D03*
X806750Y777550D02*
D03*
Y790250D02*
D03*
Y802950D02*
D03*
Y815650D02*
D03*
Y828350D02*
D03*
Y841050D02*
D03*
Y853750D02*
D03*
Y866450D02*
D03*
X398500Y494300D02*
D03*
Y481600D02*
D03*
Y468900D02*
D03*
Y456200D02*
D03*
X446500Y494300D02*
D03*
Y481600D02*
D03*
Y468900D02*
D03*
Y456200D02*
D03*
D74*
X22000Y1010000D02*
D03*
X44500Y1019500D02*
D03*
Y1000500D02*
D03*
D75*
X780000Y203200D02*
D03*
Y190500D02*
D03*
Y177800D02*
D03*
Y165100D02*
D03*
Y152400D02*
D03*
Y139700D02*
D03*
Y127000D02*
D03*
Y114300D02*
D03*
X730500D02*
D03*
Y127000D02*
D03*
Y139700D02*
D03*
Y152400D02*
D03*
Y165100D02*
D03*
Y177800D02*
D03*
Y190500D02*
D03*
Y203200D02*
D03*
D76*
X803308Y343198D02*
D03*
X796704D02*
D03*
X790354D02*
D03*
X783750D02*
D03*
X777146D02*
D03*
X770796D02*
D03*
X764192D02*
D03*
Y286302D02*
D03*
X770796D02*
D03*
X777146D02*
D03*
X783750D02*
D03*
X790354D02*
D03*
X796704D02*
D03*
X803308D02*
D03*
D77*
X638500Y525250D02*
D03*
Y493250D02*
D03*
D78*
X196750Y136250D02*
D03*
X228750D02*
D03*
D79*
X315750Y785450D02*
D03*
X443000Y597500D02*
D03*
X432500Y558750D02*
D03*
X432000Y525750D02*
D03*
X222500Y456250D02*
D03*
D80*
X315750Y810850D02*
D03*
Y836250D02*
D03*
Y861650D02*
D03*
Y887050D02*
D03*
X50000Y699250D02*
D03*
X460000Y353000D02*
D03*
X749250Y355750D02*
D03*
X822000Y287750D02*
D03*
X848250Y954500D02*
D03*
X383750Y419250D02*
D03*
X638250Y474500D02*
D03*
X435750Y367500D02*
D03*
X327500Y384500D02*
D03*
X23750Y373750D02*
D03*
X46520Y443250D02*
D03*
X93750Y476250D02*
D03*
X40250Y81750D02*
D03*
X633750Y408500D02*
D03*
X637250Y435000D02*
D03*
X108250Y501250D02*
D03*
X866000Y79250D02*
D03*
X864500Y107250D02*
D03*
X865000Y138750D02*
D03*
X865250Y163950D02*
D03*
X864500Y193500D02*
D03*
X879000Y242250D02*
D03*
X636250Y384250D02*
D03*
X415000Y858000D02*
D03*
X63250Y1055750D02*
D03*
X156750Y791250D02*
D03*
X794750Y757750D02*
D03*
X450000Y969500D02*
D03*
X417250Y952500D02*
D03*
X496067Y986639D02*
D03*
X777250Y989750D02*
D03*
X784500Y1026000D02*
D03*
X880250Y611875D02*
D03*
Y594500D02*
D03*
Y629250D02*
D03*
D81*
X152000Y134200D02*
D03*
D82*
Y159600D02*
D03*
Y185000D02*
D03*
Y210400D02*
D03*
Y235800D02*
D03*
Y261200D02*
D03*
Y286600D02*
D03*
Y312000D02*
D03*
Y337400D02*
D03*
Y362800D02*
D03*
X67000D02*
D03*
Y337400D02*
D03*
Y312000D02*
D03*
Y286600D02*
D03*
Y261200D02*
D03*
Y235800D02*
D03*
Y210400D02*
D03*
Y185000D02*
D03*
Y159600D02*
D03*
Y134200D02*
D03*
D83*
X875750Y708500D02*
D03*
X615750Y662250D02*
D03*
D84*
X925750Y708500D02*
D03*
X665750Y662250D02*
D03*
D85*
X110850Y822350D02*
D03*
D86*
X34650D02*
D03*
X110850Y847750D02*
D03*
X34650D02*
D03*
Y873150D02*
D03*
X110850D02*
D03*
X510050Y1028050D02*
D03*
X484650Y1104250D02*
D03*
Y1028050D02*
D03*
X459250D02*
D03*
Y1104250D02*
D03*
D87*
X510050D02*
D03*
D88*
X138250Y507250D02*
D03*
X256250Y806250D02*
D03*
X219250Y859000D02*
D03*
X406500Y635000D02*
D03*
X161000Y436250D02*
D03*
D89*
X1017650Y924950D02*
D03*
X992250D02*
D03*
X1017650Y950350D02*
D03*
X992250D02*
D03*
X1017650Y975750D02*
D03*
X196000Y1066550D02*
D03*
X221400D02*
D03*
X196000Y1041150D02*
D03*
X221400D02*
D03*
X196000Y1015750D02*
D03*
X180700Y39350D02*
D03*
Y64750D02*
D03*
X206100Y39350D02*
D03*
Y64750D02*
D03*
X231500Y39350D02*
D03*
X350250D02*
D03*
Y64750D02*
D03*
X375650Y39350D02*
D03*
Y64750D02*
D03*
X401050Y39350D02*
D03*
Y64750D02*
D03*
X426450Y39350D02*
D03*
Y64750D02*
D03*
X451850Y39350D02*
D03*
D90*
X992250Y975750D02*
D03*
X221400Y1015750D02*
D03*
D91*
X1012500Y703750D02*
D03*
Y94750D02*
D03*
D92*
Y753750D02*
D03*
Y644750D02*
D03*
Y594750D02*
D03*
Y544750D02*
D03*
Y494750D02*
D03*
Y444750D02*
D03*
Y394750D02*
D03*
Y344750D02*
D03*
Y294750D02*
D03*
Y244750D02*
D03*
Y194750D02*
D03*
Y144750D02*
D03*
D93*
X664900Y581750D02*
D03*
D94*
X639500D02*
D03*
X614100D02*
D03*
D95*
X727400Y912250D02*
D03*
X532500Y84800D02*
D03*
D96*
X702000Y912250D02*
D03*
X651200D02*
D03*
X625800D02*
D03*
X600400D02*
D03*
X575000D02*
D03*
D97*
X343850Y953500D02*
D03*
X369250D02*
D03*
X576500Y34000D02*
D03*
Y59400D02*
D03*
X532500Y34000D02*
D03*
Y59400D02*
D03*
D98*
X394650Y953500D02*
D03*
D99*
X702150Y1078750D02*
D03*
X587850D02*
D03*
X901650D02*
D03*
X787350D02*
D03*
D100*
X689450Y1015250D02*
D03*
X888950D02*
D03*
D101*
X676750Y989850D02*
D03*
X664050Y1015250D02*
D03*
X651350Y989850D02*
D03*
X638650Y1015250D02*
D03*
X625950Y989850D02*
D03*
X613250Y1015250D02*
D03*
X600550Y989850D02*
D03*
X876250D02*
D03*
X863550Y1015250D02*
D03*
X850850Y989850D02*
D03*
X838150Y1015250D02*
D03*
X825450Y989850D02*
D03*
X812750Y1015250D02*
D03*
X800050Y989850D02*
D03*
D102*
X722500Y1109250D02*
D03*
X567500D02*
D03*
X922000D02*
D03*
X767000D02*
D03*
D103*
X733850Y756200D02*
D03*
Y730800D02*
D03*
X657650D02*
D03*
X733850Y813450D02*
D03*
Y788050D02*
D03*
X657650D02*
D03*
X733850Y869450D02*
D03*
Y844050D02*
D03*
X657650D02*
D03*
D104*
Y756200D02*
D03*
Y813450D02*
D03*
Y869450D02*
D03*
D105*
X492250Y719050D02*
D03*
Y668250D02*
D03*
Y693650D02*
D03*
D106*
Y642850D02*
D03*
D107*
X231500Y64750D02*
D03*
X451850D02*
D03*
D108*
X576500Y84800D02*
D03*
D109*
X470000Y303500D02*
D03*
X404750Y289500D02*
D03*
X677500Y156750D02*
D03*
X669500Y182250D02*
D03*
X425500Y299000D02*
D03*
X377250Y281250D02*
D03*
X327500Y286250D02*
D03*
X306750Y290000D02*
D03*
X285500Y297750D02*
D03*
X236500Y296000D02*
D03*
X56750Y508750D02*
D03*
X55250Y542000D02*
D03*
X67750Y429000D02*
D03*
X79500Y441250D02*
D03*
X49250Y419500D02*
D03*
X335000Y326750D02*
D03*
X257500Y333000D02*
D03*
X320750Y525250D02*
D03*
X350750Y653250D02*
D03*
X301500Y999625D02*
D03*
X401750Y1004000D02*
D03*
X515000Y815500D02*
D03*
X408000Y820000D02*
D03*
X449500Y835500D02*
D03*
X378321Y622679D02*
D03*
X371250Y629750D02*
D03*
X232750Y751250D02*
D03*
X242750D02*
D03*
X312520Y699034D02*
D03*
X352500Y689500D02*
D03*
X374250Y503750D02*
D03*
X414750Y606750D02*
D03*
X381250Y668750D02*
D03*
X292520Y699020D02*
D03*
X215750Y748500D02*
D03*
X92750Y962500D02*
D03*
X79750Y1000000D02*
D03*
X816500Y317000D02*
D03*
X767000Y309750D02*
D03*
X290250Y1009750D02*
D03*
X354500Y470270D02*
D03*
X510000Y435000D02*
D03*
X596750Y216500D02*
D03*
X759000Y203250D02*
D03*
X738500Y236000D02*
D03*
X616270Y211500D02*
D03*
X609000Y234000D02*
D03*
X560250Y183250D02*
D03*
X489250Y281250D02*
D03*
X503250Y508750D02*
D03*
X467000Y509750D02*
D03*
X378500Y544000D02*
D03*
X373750Y564480D02*
D03*
X187000Y508500D02*
D03*
X376250Y531250D02*
D03*
X698250Y117000D02*
D03*
X604750Y153500D02*
D03*
X592250Y135750D02*
D03*
X482750Y795500D02*
D03*
X419500Y806250D02*
D03*
X394750Y1046250D02*
D03*
X413250Y1045250D02*
D03*
X333000Y1047250D02*
D03*
X340500Y1095000D02*
D03*
X342000Y1112250D02*
D03*
X373322Y1101822D02*
D03*
X370750Y1090250D02*
D03*
X391500Y1094250D02*
D03*
X206500Y705750D02*
D03*
X375000Y768500D02*
D03*
X402000Y782750D02*
D03*
X549250Y781500D02*
D03*
X361000Y761000D02*
D03*
X192250Y750500D02*
D03*
X196750Y731000D02*
D03*
X324750Y759250D02*
D03*
X484500Y771250D02*
D03*
X162250Y579020D02*
D03*
X478250Y782000D02*
D03*
X166250Y509750D02*
D03*
X166000Y521000D02*
D03*
X544250Y805250D02*
D03*
X313000Y757500D02*
D03*
X300500D02*
D03*
X272500Y748000D02*
D03*
X260500Y740000D02*
D03*
X302520Y699038D02*
D03*
X332500Y687000D02*
D03*
X332750Y698750D02*
D03*
X322520Y699034D02*
D03*
X293750Y747250D02*
D03*
X40490Y559260D02*
D03*
X170500Y104250D02*
D03*
X220500Y210500D02*
D03*
X606250Y179000D02*
D03*
Y165750D02*
D03*
X700250Y204000D02*
D03*
X687000Y184000D02*
D03*
X702843Y139593D02*
D03*
X810250Y98750D02*
D03*
X761750Y126500D02*
D03*
X796000Y99000D02*
D03*
X761750Y140750D02*
D03*
X383500Y271250D02*
D03*
X270500Y295250D02*
D03*
X253000Y220000D02*
D03*
X289750D02*
D03*
X327750D02*
D03*
X364750Y220250D02*
D03*
X404500Y219000D02*
D03*
X442000Y219750D02*
D03*
X482000Y219500D02*
D03*
X451510Y279894D02*
D03*
X299250Y279250D02*
D03*
X413750Y280000D02*
D03*
X224250Y278250D02*
D03*
X162000Y85000D02*
D03*
X120750Y364500D02*
D03*
X262250Y279500D02*
D03*
X337000D02*
D03*
X290750Y435500D02*
D03*
X310250Y424750D02*
D03*
X309750Y464750D02*
D03*
X275250Y444000D02*
D03*
X222250Y480000D02*
D03*
X201750Y457000D02*
D03*
X340000Y398500D02*
D03*
X372000Y479750D02*
D03*
X464000Y487750D02*
D03*
X467750Y456000D02*
D03*
X467000Y469500D02*
D03*
X533560Y399542D02*
D03*
X344250Y698500D02*
D03*
X282250Y757250D02*
D03*
X509500Y408500D02*
D03*
X760750Y151500D02*
D03*
X699738Y165500D02*
D03*
X235250Y639000D02*
D03*
X204750Y616250D02*
D03*
D110*
X32500Y29500D02*
D03*
X1025750D02*
D03*
Y1089750D02*
D03*
X32500D02*
D03*
M02*
