G04*
G04 #@! TF.GenerationSoftware,Altium Limited,Altium Designer,20.0.13 (296)*
G04*
G04 Layer_Physical_Order=2*
G04 Layer_Color=16711680*
%FSLAX44Y44*%
%MOMM*%
G71*
G01*
G75*
%ADD10C,0.2500*%
%ADD16C,0.5000*%
%ADD18C,0.2540*%
%ADD26R,1.4000X1.0000*%
%ADD30R,0.8000X1.0000*%
%ADD31R,1.0000X1.4000*%
%ADD44R,1.1000X0.8000*%
%ADD111C,0.3000*%
%ADD112C,1.0000*%
%ADD113C,0.6000*%
%ADD114C,0.4000*%
%ADD116R,1.5000X1.5000*%
%ADD117C,1.5000*%
%ADD118R,1.0600X1.0600*%
%ADD119C,1.0600*%
%ADD120R,1.4000X1.4000*%
%ADD121C,1.4000*%
%ADD122R,1.3080X1.3080*%
%ADD123C,1.3080*%
%ADD124R,1.3080X1.3080*%
%ADD125R,1.5000X1.5000*%
%ADD126C,1.6050*%
%ADD127R,1.6050X1.6050*%
%ADD128R,2.1000X2.1000*%
%ADD129C,2.1000*%
%ADD130R,1.9050X1.9050*%
%ADD131C,1.9050*%
%ADD132R,1.6000X1.6000*%
%ADD133C,1.6000*%
%ADD134R,1.6000X1.6000*%
%ADD135C,3.4000*%
%ADD136R,1.6500X1.6500*%
%ADD137C,1.6500*%
%ADD138C,2.7000*%
%ADD139O,2.6416X1.3208*%
%ADD140R,2.6416X1.3208*%
%ADD141C,1.8000*%
%ADD142R,1.8000X1.8000*%
%ADD143R,1.6050X1.6050*%
%ADD144C,0.8000*%
%ADD145C,4.0000*%
%ADD146R,0.9100X1.2200*%
G36*
X915048Y1123722D02*
X913046Y1122651D01*
X910603Y1120647D01*
X908599Y1118204D01*
X907109Y1115418D01*
X906192Y1112394D01*
X906007Y1110520D01*
X922000D01*
Y1109250D01*
X923270D01*
Y1093258D01*
X925144Y1093442D01*
X928168Y1094359D01*
X930954Y1095849D01*
X933397Y1097853D01*
X935401Y1100295D01*
X936730Y1102781D01*
X938000Y1102463D01*
Y973750D01*
X938250Y973500D01*
X908000Y943250D01*
X685000D01*
X677000Y935250D01*
Y893000D01*
X373500D01*
X263250Y1003250D01*
X254250D01*
Y1124750D01*
X559987Y1124862D01*
X560305Y1123592D01*
X558545Y1122651D01*
X556103Y1120647D01*
X554099Y1118204D01*
X552609Y1115418D01*
X551692Y1112394D01*
X551507Y1110520D01*
X567500D01*
X583493D01*
X583308Y1112394D01*
X582391Y1115418D01*
X580901Y1118204D01*
X578897Y1120647D01*
X576455Y1122651D01*
X574685Y1123597D01*
X575003Y1124867D01*
X715093Y1124919D01*
X715411Y1123649D01*
X713546Y1122651D01*
X711103Y1120647D01*
X709099Y1118204D01*
X707609Y1115418D01*
X706692Y1112394D01*
X706507Y1110520D01*
X722500D01*
X738493D01*
X738308Y1112394D01*
X737391Y1115418D01*
X735901Y1118204D01*
X733897Y1120647D01*
X731454Y1122651D01*
X729579Y1123654D01*
X729897Y1124924D01*
X759623Y1124935D01*
X759942Y1123665D01*
X758046Y1122651D01*
X755603Y1120647D01*
X753599Y1118204D01*
X752109Y1115418D01*
X751192Y1112394D01*
X751007Y1110520D01*
X767000D01*
X782992D01*
X782808Y1112394D01*
X781891Y1115418D01*
X780401Y1118204D01*
X778397Y1120647D01*
X775955Y1122651D01*
X774048Y1123670D01*
X774366Y1124940D01*
X914730Y1124992D01*
X915048Y1123722D01*
D02*
G37*
G36*
X1056500Y-500D02*
X-500D01*
Y1125500D01*
X251116D01*
X252211Y1124750D01*
Y1003250D01*
X252366Y1002470D01*
X252808Y1001808D01*
X253470Y1001366D01*
X254250Y1001211D01*
X262405D01*
X372058Y891558D01*
X372720Y891116D01*
X373500Y890961D01*
X677000D01*
X677780Y891116D01*
X678442Y891558D01*
X678884Y892220D01*
X679039Y893000D01*
Y934405D01*
X685845Y941211D01*
X908000D01*
X908000Y941211D01*
X908780Y941366D01*
X909442Y941808D01*
X909442Y941808D01*
X939692Y972058D01*
X940134Y972720D01*
X940289Y973500D01*
X940134Y974280D01*
X940039Y974422D01*
Y1102463D01*
X940010Y1102611D01*
X940017Y1102762D01*
X939933Y1102998D01*
X939884Y1103243D01*
X939800Y1103369D01*
X939749Y1103512D01*
X939581Y1103697D01*
X939442Y1103905D01*
X939316Y1103989D01*
X939215Y1104101D01*
X938989Y1104208D01*
X938780Y1104347D01*
X938632Y1104377D01*
X938495Y1104441D01*
X938096Y1104541D01*
X937222Y1105898D01*
X937221Y1106031D01*
X937276Y1106211D01*
X937575Y1109250D01*
X937276Y1112289D01*
X936389Y1115210D01*
X934950Y1117903D01*
X933013Y1120263D01*
X930653Y1122200D01*
X927960Y1123639D01*
X926013Y1124230D01*
X926202Y1125500D01*
X1056500D01*
Y-500D01*
D02*
G37*
%LPC*%
G36*
X413250Y1111250D02*
X399250D01*
Y1106069D01*
X377700D01*
X377647Y1106147D01*
X375663Y1107474D01*
X373322Y1107939D01*
X370981Y1107474D01*
X368996Y1106147D01*
X367670Y1104163D01*
X367204Y1101822D01*
X367670Y1099481D01*
X368996Y1097496D01*
X369320Y1097279D01*
X369072Y1096034D01*
X368409Y1095902D01*
X366424Y1094576D01*
X365098Y1092591D01*
X364632Y1090250D01*
X365098Y1087909D01*
X366424Y1085924D01*
X368409Y1084598D01*
X370750Y1084133D01*
X371643Y1084310D01*
X374931Y1081022D01*
Y1066000D01*
X369500D01*
Y1052000D01*
X387500D01*
Y1066000D01*
X382069D01*
Y1082500D01*
X381797Y1083866D01*
X381023Y1085023D01*
X376690Y1089357D01*
X376867Y1090250D01*
X376402Y1092591D01*
X375076Y1094576D01*
X374752Y1094792D01*
X375000Y1096038D01*
X375663Y1096170D01*
X377647Y1097496D01*
X378607Y1098931D01*
X385885D01*
X386563Y1097661D01*
X385848Y1096591D01*
X385382Y1094250D01*
X385848Y1091909D01*
X387174Y1089924D01*
X388888Y1088779D01*
Y1087293D01*
X389160Y1085928D01*
X389933Y1084770D01*
X393750Y1080953D01*
Y1068000D01*
X407750D01*
Y1086000D01*
X398797D01*
X396025Y1088772D01*
Y1090223D01*
X397152Y1091909D01*
X397617Y1094250D01*
X397152Y1096591D01*
X396437Y1097661D01*
X397116Y1098931D01*
X399250D01*
Y1093250D01*
X413250D01*
Y1111250D01*
D02*
G37*
G36*
X518590Y1112790D02*
X501510D01*
Y1095710D01*
X518590D01*
Y1112790D01*
D02*
G37*
G36*
X583493Y1107980D02*
X568770D01*
Y1093258D01*
X570644Y1093442D01*
X573668Y1094359D01*
X576455Y1095849D01*
X578897Y1097853D01*
X580901Y1100295D01*
X582391Y1103082D01*
X583308Y1106106D01*
X583493Y1107980D01*
D02*
G37*
G36*
X765730D02*
X751008D01*
X751192Y1106106D01*
X752109Y1103082D01*
X753599Y1100295D01*
X755603Y1097853D01*
X758046Y1095849D01*
X760832Y1094359D01*
X763856Y1093442D01*
X765730Y1093258D01*
Y1107980D01*
D02*
G37*
G36*
X721230D02*
X706507D01*
X706692Y1106106D01*
X707609Y1103082D01*
X709099Y1100295D01*
X711103Y1097853D01*
X713546Y1095849D01*
X716332Y1094359D01*
X719356Y1093442D01*
X721230Y1093258D01*
Y1107980D01*
D02*
G37*
G36*
X782992D02*
X768270D01*
Y1093257D01*
X770144Y1093442D01*
X773168Y1094359D01*
X775955Y1095849D01*
X778397Y1097853D01*
X780401Y1100295D01*
X781891Y1103082D01*
X782808Y1106106D01*
X782992Y1107980D01*
D02*
G37*
G36*
X738493D02*
X723770D01*
Y1093257D01*
X725644Y1093442D01*
X728668Y1094359D01*
X731454Y1095849D01*
X733897Y1097853D01*
X735901Y1100295D01*
X737391Y1103082D01*
X738308Y1106106D01*
X738493Y1107980D01*
D02*
G37*
G36*
X920730D02*
X906008D01*
X906192Y1106106D01*
X907109Y1103082D01*
X908599Y1100295D01*
X910603Y1097853D01*
X913046Y1095849D01*
X915832Y1094359D01*
X918856Y1093442D01*
X920730Y1093257D01*
Y1107980D01*
D02*
G37*
G36*
X566230D02*
X551507D01*
X551692Y1106106D01*
X552609Y1103082D01*
X554099Y1100295D01*
X556103Y1097853D01*
X558545Y1095849D01*
X561332Y1094359D01*
X564356Y1093442D01*
X566230Y1093257D01*
Y1107980D01*
D02*
G37*
G36*
X342000Y1118367D02*
X339659Y1117902D01*
X337674Y1116576D01*
X336348Y1114591D01*
X335882Y1112250D01*
X336348Y1109909D01*
X337674Y1107924D01*
X337681Y1107919D01*
Y1100333D01*
X336174Y1099326D01*
X334848Y1097341D01*
X334383Y1095000D01*
X334848Y1092659D01*
X336174Y1090674D01*
X338159Y1089348D01*
X340500Y1088883D01*
X342841Y1089348D01*
X344826Y1090674D01*
X346152Y1092659D01*
X346618Y1095000D01*
X346152Y1097341D01*
X344826Y1099326D01*
X344819Y1099331D01*
Y1106917D01*
X346326Y1107924D01*
X347652Y1109909D01*
X348117Y1112250D01*
X347652Y1114591D01*
X346326Y1116576D01*
X344341Y1117902D01*
X342000Y1118367D01*
D02*
G37*
G36*
X901650Y1097842D02*
X897925Y1097475D01*
X894344Y1096389D01*
X891043Y1094624D01*
X888150Y1092250D01*
X885776Y1089357D01*
X884011Y1086056D01*
X882925Y1082475D01*
X882558Y1078750D01*
X882925Y1075025D01*
X884011Y1071444D01*
X885776Y1068143D01*
X888150Y1065250D01*
X891043Y1062876D01*
X894344Y1061111D01*
X897925Y1060025D01*
X901650Y1059658D01*
X905375Y1060025D01*
X908956Y1061111D01*
X912257Y1062876D01*
X915150Y1065250D01*
X917524Y1068143D01*
X919289Y1071444D01*
X920375Y1075025D01*
X920742Y1078750D01*
X920375Y1082475D01*
X919289Y1086056D01*
X917524Y1089357D01*
X915150Y1092250D01*
X912257Y1094624D01*
X908956Y1096389D01*
X905375Y1097475D01*
X901650Y1097842D01*
D02*
G37*
G36*
X787350D02*
X783625Y1097475D01*
X780044Y1096389D01*
X776743Y1094624D01*
X773850Y1092250D01*
X771476Y1089357D01*
X769711Y1086056D01*
X768625Y1082475D01*
X768258Y1078750D01*
X768625Y1075025D01*
X769711Y1071444D01*
X771476Y1068143D01*
X773850Y1065250D01*
X776743Y1062876D01*
X780044Y1061111D01*
X783625Y1060025D01*
X787350Y1059658D01*
X791075Y1060025D01*
X794656Y1061111D01*
X797957Y1062876D01*
X800850Y1065250D01*
X803224Y1068143D01*
X804989Y1071444D01*
X806075Y1075025D01*
X806442Y1078750D01*
X806075Y1082475D01*
X804989Y1086056D01*
X803224Y1089357D01*
X800850Y1092250D01*
X797957Y1094624D01*
X794656Y1096389D01*
X791075Y1097475D01*
X787350Y1097842D01*
D02*
G37*
G36*
X702150D02*
X698425Y1097475D01*
X694844Y1096389D01*
X691543Y1094624D01*
X688650Y1092250D01*
X686276Y1089357D01*
X684511Y1086056D01*
X683425Y1082475D01*
X683058Y1078750D01*
X683425Y1075025D01*
X684511Y1071444D01*
X686276Y1068143D01*
X688650Y1065250D01*
X691543Y1062876D01*
X694844Y1061111D01*
X698425Y1060025D01*
X702150Y1059658D01*
X705875Y1060025D01*
X709456Y1061111D01*
X712757Y1062876D01*
X715650Y1065250D01*
X718024Y1068143D01*
X719789Y1071444D01*
X720875Y1075025D01*
X721242Y1078750D01*
X720875Y1082475D01*
X719789Y1086056D01*
X718024Y1089357D01*
X715650Y1092250D01*
X712757Y1094624D01*
X709456Y1096389D01*
X705875Y1097475D01*
X702150Y1097842D01*
D02*
G37*
G36*
X587850D02*
X584125Y1097475D01*
X580544Y1096389D01*
X577243Y1094624D01*
X574350Y1092250D01*
X571976Y1089357D01*
X570211Y1086056D01*
X569125Y1082475D01*
X568758Y1078750D01*
X569125Y1075025D01*
X570211Y1071444D01*
X571976Y1068143D01*
X574350Y1065250D01*
X577243Y1062876D01*
X580544Y1061111D01*
X584125Y1060025D01*
X587850Y1059658D01*
X591575Y1060025D01*
X595156Y1061111D01*
X598457Y1062876D01*
X601350Y1065250D01*
X603724Y1068143D01*
X605489Y1071444D01*
X606575Y1075025D01*
X606942Y1078750D01*
X606575Y1082475D01*
X605489Y1086056D01*
X603724Y1089357D01*
X601350Y1092250D01*
X598457Y1094624D01*
X595156Y1096389D01*
X591575Y1097475D01*
X587850Y1097842D01*
D02*
G37*
G36*
X537790Y1057040D02*
X531520D01*
Y1048770D01*
X537790D01*
Y1057040D01*
D02*
G37*
G36*
X528980D02*
X522710D01*
Y1048770D01*
X528980D01*
Y1057040D01*
D02*
G37*
G36*
X396020Y1052679D02*
Y1047520D01*
X401179D01*
X401122Y1047957D01*
X400463Y1049548D01*
X399414Y1050914D01*
X398048Y1051963D01*
X396457Y1052622D01*
X396020Y1052679D01*
D02*
G37*
G36*
X333000Y1053367D02*
X330659Y1052902D01*
X328674Y1051576D01*
X327348Y1049591D01*
X326883Y1047250D01*
X327060Y1046357D01*
X294979Y1014275D01*
X294277D01*
X292591Y1015402D01*
X290250Y1015867D01*
X287909Y1015402D01*
X285924Y1014076D01*
X284598Y1012091D01*
X284132Y1009750D01*
X284598Y1007409D01*
X285924Y1005424D01*
X287909Y1004098D01*
X290250Y1003633D01*
X292591Y1004098D01*
X294576Y1005424D01*
X295721Y1007138D01*
X296457D01*
X297822Y1007410D01*
X298980Y1008183D01*
X332107Y1041310D01*
X333000Y1041133D01*
X335341Y1041598D01*
X337326Y1042924D01*
X338652Y1044909D01*
X339118Y1047250D01*
X338652Y1049591D01*
X337326Y1051576D01*
X335341Y1052902D01*
X333000Y1053367D01*
D02*
G37*
G36*
X377230Y1046540D02*
X368960D01*
Y1040270D01*
X377230D01*
Y1046540D01*
D02*
G37*
G36*
X401179Y1044980D02*
X396020D01*
Y1039821D01*
X396457Y1039878D01*
X398048Y1040537D01*
X399414Y1041586D01*
X400463Y1042952D01*
X401122Y1044543D01*
X401179Y1044980D01*
D02*
G37*
G36*
X413250Y1051367D02*
X410909Y1050902D01*
X408924Y1049576D01*
X407598Y1047591D01*
X407132Y1045250D01*
X407310Y1044357D01*
X366147Y1003194D01*
X306332D01*
X305826Y1003951D01*
X303841Y1005277D01*
X301500Y1005743D01*
X299159Y1005277D01*
X297174Y1003951D01*
X295848Y1001966D01*
X295382Y999625D01*
X295848Y997284D01*
X297174Y995299D01*
X299159Y993973D01*
X301500Y993508D01*
X303841Y993973D01*
X305826Y995299D01*
X306332Y996057D01*
X367625D01*
X368991Y996328D01*
X370148Y997102D01*
X412357Y1039310D01*
X413250Y1039133D01*
X415591Y1039598D01*
X417576Y1040924D01*
X418902Y1042909D01*
X419367Y1045250D01*
X418902Y1047591D01*
X417576Y1049576D01*
X415591Y1050902D01*
X413250Y1051367D01*
D02*
G37*
G36*
X537790Y1046230D02*
X531520D01*
Y1037960D01*
X537790D01*
Y1046230D01*
D02*
G37*
G36*
X528980D02*
X522710D01*
Y1037960D01*
X528980D01*
Y1046230D01*
D02*
G37*
G36*
X393480Y1052679D02*
X393043Y1052622D01*
X391452Y1051963D01*
X390086Y1050914D01*
X389037Y1049548D01*
X388378Y1047957D01*
X388260Y1047061D01*
X387739Y1046540D01*
X379770D01*
Y1039000D01*
Y1031460D01*
X388040D01*
Y1036912D01*
X389188D01*
X390944Y1037261D01*
X392433Y1038256D01*
X393480Y1039303D01*
Y1046250D01*
Y1052679D01*
D02*
G37*
G36*
X377230Y1037730D02*
X368960D01*
Y1031460D01*
X377230D01*
Y1037730D01*
D02*
G37*
G36*
X517250Y1056500D02*
X503250D01*
Y1038500D01*
X505562D01*
Y1035370D01*
X503959Y1034141D01*
X502590Y1032357D01*
X501730Y1030279D01*
X501436Y1028050D01*
X501730Y1025821D01*
X502590Y1023743D01*
X503959Y1021959D01*
X505743Y1020590D01*
X507821Y1019730D01*
X510050Y1019436D01*
X512279Y1019730D01*
X514357Y1020590D01*
X516141Y1021959D01*
X517510Y1023743D01*
X518370Y1025821D01*
X518664Y1028050D01*
X518370Y1030279D01*
X517510Y1032357D01*
X516141Y1034141D01*
X514738Y1035217D01*
Y1038500D01*
X517250D01*
Y1056500D01*
D02*
G37*
G36*
X468250Y1063250D02*
X450250D01*
Y1049250D01*
X461761D01*
X477826Y1033185D01*
X477190Y1032357D01*
X476330Y1030279D01*
X476036Y1028050D01*
X476330Y1025821D01*
X477190Y1023743D01*
X478559Y1021959D01*
X480343Y1020590D01*
X482421Y1019730D01*
X484650Y1019436D01*
X486879Y1019730D01*
X488957Y1020590D01*
X490741Y1021959D01*
X492110Y1023743D01*
X492970Y1025821D01*
X493264Y1028050D01*
X492970Y1030279D01*
X492110Y1032357D01*
X490741Y1034141D01*
X488957Y1035510D01*
X487318Y1036188D01*
X486348Y1037640D01*
X468250Y1055739D01*
Y1063250D01*
D02*
G37*
G36*
X864820Y1025966D02*
Y1016520D01*
X874266D01*
X874062Y1018067D01*
X872975Y1020692D01*
X871245Y1022945D01*
X868991Y1024675D01*
X866367Y1025762D01*
X864820Y1025966D01*
D02*
G37*
G36*
X665320D02*
Y1016520D01*
X674766D01*
X674562Y1018067D01*
X673475Y1020692D01*
X671746Y1022945D01*
X669492Y1024675D01*
X666867Y1025762D01*
X665320Y1025966D01*
D02*
G37*
G36*
X662780D02*
X661233Y1025762D01*
X658608Y1024675D01*
X656355Y1022945D01*
X654625Y1020692D01*
X653538Y1018067D01*
X653334Y1016520D01*
X662780D01*
Y1025966D01*
D02*
G37*
G36*
X862280Y1025966D02*
X860733Y1025762D01*
X858108Y1024675D01*
X855854Y1022945D01*
X854125Y1020692D01*
X853038Y1018067D01*
X852834Y1016520D01*
X862280D01*
Y1025966D01*
D02*
G37*
G36*
X754790Y1011040D02*
X748020D01*
Y1005770D01*
X754790D01*
Y1011040D01*
D02*
G37*
G36*
X745480D02*
X738710D01*
Y1005770D01*
X745480D01*
Y1011040D01*
D02*
G37*
G36*
X471150Y1122338D02*
X439750D01*
X437994Y1121989D01*
X436506Y1120994D01*
X426761Y1111250D01*
X419250D01*
Y1093250D01*
X433250D01*
Y1104761D01*
X441651Y1113162D01*
X455131D01*
X455383Y1111892D01*
X454943Y1111710D01*
X453159Y1110341D01*
X451790Y1108557D01*
X450930Y1106479D01*
X450636Y1104250D01*
X450930Y1102021D01*
X451790Y1099943D01*
X453159Y1098159D01*
X454662Y1097006D01*
Y1083250D01*
X450250D01*
Y1081213D01*
X427750D01*
Y1086000D01*
X413750D01*
Y1068000D01*
X427750D01*
Y1072037D01*
X450250D01*
Y1069250D01*
X468250D01*
Y1083250D01*
X463838D01*
Y1097006D01*
X465341Y1098159D01*
X466710Y1099943D01*
X467570Y1102021D01*
X467864Y1104250D01*
X467570Y1106479D01*
X466710Y1108557D01*
X465341Y1110341D01*
X463557Y1111710D01*
X463117Y1111892D01*
X463370Y1113162D01*
X469249D01*
X476284Y1106128D01*
X476036Y1104250D01*
X476330Y1102021D01*
X477190Y1099943D01*
X478559Y1098159D01*
X479912Y1097121D01*
Y1091250D01*
X480261Y1089494D01*
X481256Y1088006D01*
X491256Y1078006D01*
X492744Y1077011D01*
X494500Y1076662D01*
X528349D01*
X563256Y1041756D01*
X564744Y1040761D01*
X566500Y1040412D01*
X706464D01*
X706950Y1039239D01*
X693211Y1025500D01*
X679200D01*
Y1005000D01*
X699700D01*
Y1009412D01*
X716750D01*
Y1008000D01*
X731750D01*
Y1020000D01*
X716750D01*
Y1018588D01*
X701073D01*
X700547Y1019858D01*
X714100Y1033412D01*
X776612D01*
X777238Y1032142D01*
X776202Y1030791D01*
X775245Y1028480D01*
X774918Y1026000D01*
X775245Y1023520D01*
X776202Y1021209D01*
X777725Y1019225D01*
X779709Y1017702D01*
X782020Y1016745D01*
X784500Y1016418D01*
X786980Y1016745D01*
X789291Y1017702D01*
X791275Y1019225D01*
X792798Y1021209D01*
X793711Y1023412D01*
X804568D01*
X805118Y1022142D01*
X803797Y1020419D01*
X802764Y1017926D01*
X802412Y1015250D01*
X802764Y1012574D01*
X803797Y1010081D01*
X805440Y1007940D01*
X807581Y1006297D01*
X810074Y1005264D01*
X812750Y1004912D01*
X815426Y1005264D01*
X817919Y1006297D01*
X820060Y1007940D01*
X821703Y1010081D01*
X822736Y1012574D01*
X823088Y1015250D01*
X822736Y1017926D01*
X821703Y1020419D01*
X820381Y1022142D01*
X820932Y1023412D01*
X823500D01*
X828404Y1018507D01*
X828164Y1017926D01*
X827812Y1015250D01*
X828164Y1012574D01*
X829197Y1010081D01*
X830840Y1007940D01*
X832981Y1006297D01*
X835474Y1005264D01*
X838150Y1004912D01*
X840826Y1005264D01*
X843319Y1006297D01*
X845460Y1007940D01*
X847103Y1010081D01*
X848136Y1012574D01*
X848488Y1015250D01*
X848136Y1017926D01*
X847103Y1020419D01*
X845460Y1022560D01*
X843319Y1024203D01*
X840826Y1025236D01*
X838150Y1025588D01*
X835474Y1025236D01*
X834893Y1024995D01*
X828644Y1031244D01*
X828314Y1031465D01*
X828052Y1033167D01*
X828248Y1033412D01*
X882171D01*
X882412Y1033171D01*
Y1025500D01*
X878700D01*
Y1005000D01*
X899200D01*
Y1010662D01*
X902321D01*
X904077Y1011011D01*
X905565Y1012006D01*
X908494Y1014935D01*
X909489Y1016423D01*
X909838Y1018179D01*
Y1040250D01*
X909489Y1042006D01*
X908494Y1043494D01*
X903744Y1048244D01*
X902256Y1049239D01*
X900500Y1049588D01*
X568400D01*
X533494Y1084494D01*
X532006Y1085489D01*
X530250Y1085838D01*
X496400D01*
X489088Y1093150D01*
Y1096891D01*
X490741Y1098159D01*
X492110Y1099943D01*
X492970Y1102021D01*
X493264Y1104250D01*
X492970Y1106479D01*
X492110Y1108557D01*
X490741Y1110341D01*
X488957Y1111710D01*
X486879Y1112570D01*
X484650Y1112864D01*
X482772Y1112616D01*
X474394Y1120994D01*
X472906Y1121989D01*
X471150Y1122338D01*
D02*
G37*
G36*
X638650Y1025588D02*
X635974Y1025236D01*
X633481Y1024203D01*
X631340Y1022560D01*
X629697Y1020419D01*
X628664Y1017926D01*
X628312Y1015250D01*
X628664Y1012574D01*
X629697Y1010081D01*
X631340Y1007940D01*
X633481Y1006297D01*
X635974Y1005264D01*
X638650Y1004912D01*
X641326Y1005264D01*
X643819Y1006297D01*
X645960Y1007940D01*
X647603Y1010081D01*
X648636Y1012574D01*
X648988Y1015250D01*
X648636Y1017926D01*
X647603Y1020419D01*
X645960Y1022560D01*
X643819Y1024203D01*
X641326Y1025236D01*
X638650Y1025588D01*
D02*
G37*
G36*
X613250D02*
X610574Y1025236D01*
X608081Y1024203D01*
X605940Y1022560D01*
X604297Y1020419D01*
X603264Y1017926D01*
X602912Y1015250D01*
X603264Y1012574D01*
X604297Y1010081D01*
X605940Y1007940D01*
X608081Y1006297D01*
X610574Y1005264D01*
X613250Y1004912D01*
X615926Y1005264D01*
X618419Y1006297D01*
X620560Y1007940D01*
X622203Y1010081D01*
X623236Y1012574D01*
X623588Y1015250D01*
X623236Y1017926D01*
X622203Y1020419D01*
X620560Y1022560D01*
X618419Y1024203D01*
X615926Y1025236D01*
X613250Y1025588D01*
D02*
G37*
G36*
X874266Y1013980D02*
X864820D01*
Y1004534D01*
X866367Y1004738D01*
X868991Y1005825D01*
X871245Y1007554D01*
X872975Y1009808D01*
X874062Y1012433D01*
X874266Y1013980D01*
D02*
G37*
G36*
X674766D02*
X665320D01*
Y1004534D01*
X666867Y1004738D01*
X669492Y1005825D01*
X671746Y1007554D01*
X673475Y1009808D01*
X674562Y1012433D01*
X674766Y1013980D01*
D02*
G37*
G36*
X662780D02*
X653334D01*
X653538Y1012433D01*
X654625Y1009808D01*
X656355Y1007554D01*
X658608Y1005825D01*
X661233Y1004738D01*
X662780Y1004534D01*
Y1013980D01*
D02*
G37*
G36*
X862280D02*
X852834D01*
X853038Y1012433D01*
X854125Y1009808D01*
X855854Y1007554D01*
X858108Y1005825D01*
X860733Y1004738D01*
X862280Y1004534D01*
Y1013980D01*
D02*
G37*
G36*
X754790Y1003230D02*
X748020D01*
Y997960D01*
X754790D01*
Y1003230D01*
D02*
G37*
G36*
X745480D02*
X738710D01*
Y997960D01*
X745480D01*
Y1003230D01*
D02*
G37*
G36*
X731750Y1001000D02*
X716750D01*
Y999338D01*
X703006D01*
X701250Y998989D01*
X699762Y997994D01*
X696206Y994438D01*
X685944D01*
X685703Y995019D01*
X684060Y997160D01*
X681919Y998803D01*
X679426Y999836D01*
X676750Y1000188D01*
X674074Y999836D01*
X671581Y998803D01*
X669440Y997160D01*
X667797Y995019D01*
X666764Y992526D01*
X666412Y989850D01*
X666764Y987174D01*
X667797Y984681D01*
X669440Y982540D01*
X671581Y980897D01*
X674074Y979864D01*
X676750Y979512D01*
X679426Y979864D01*
X680007Y980105D01*
X693256Y966856D01*
X694744Y965861D01*
X696500Y965512D01*
X856500D01*
X858256Y965861D01*
X859744Y966856D01*
X872993Y980105D01*
X873574Y979864D01*
X876250Y979512D01*
X878926Y979864D01*
X881419Y980897D01*
X883560Y982540D01*
X885203Y984681D01*
X886236Y987174D01*
X886588Y989850D01*
X886236Y992526D01*
X885203Y995019D01*
X883560Y997160D01*
X881419Y998803D01*
X878926Y999836D01*
X876250Y1000188D01*
X873574Y999836D01*
X871081Y998803D01*
X868940Y997160D01*
X867297Y995019D01*
X866264Y992526D01*
X865912Y989850D01*
X866264Y987174D01*
X866505Y986593D01*
X854600Y974688D01*
X818436D01*
X817950Y975862D01*
X822193Y980105D01*
X822774Y979864D01*
X825450Y979512D01*
X828126Y979864D01*
X830619Y980897D01*
X832760Y982540D01*
X834403Y984681D01*
X835436Y987174D01*
X835788Y989850D01*
X835436Y992526D01*
X834403Y995019D01*
X832760Y997160D01*
X830619Y998803D01*
X828126Y999836D01*
X825450Y1000188D01*
X822774Y999836D01*
X820281Y998803D01*
X818140Y997160D01*
X816497Y995019D01*
X815464Y992526D01*
X815112Y989850D01*
X815464Y987174D01*
X815704Y986593D01*
X810799Y981688D01*
X808232D01*
X807682Y982958D01*
X809003Y984681D01*
X810036Y987174D01*
X810388Y989850D01*
X810036Y992526D01*
X809003Y995019D01*
X807360Y997160D01*
X805219Y998803D01*
X802726Y999836D01*
X800050Y1000188D01*
X797374Y999836D01*
X794881Y998803D01*
X792740Y997160D01*
X791097Y995019D01*
X790064Y992526D01*
X789712Y989850D01*
X790064Y987174D01*
X791097Y984681D01*
X791592Y984035D01*
X791061Y982641D01*
X790882Y982607D01*
X786421Y987067D01*
X786506Y987270D01*
X786832Y989750D01*
X786506Y992230D01*
X785548Y994541D01*
X784025Y996525D01*
X782041Y998048D01*
X779730Y999005D01*
X777250Y999332D01*
X774770Y999005D01*
X772459Y998048D01*
X770475Y996525D01*
X768952Y994541D01*
X767995Y992230D01*
X767668Y989750D01*
X767995Y987270D01*
X768952Y984959D01*
X770475Y982974D01*
X772459Y981452D01*
X774770Y980495D01*
X777250Y980168D01*
X779730Y980495D01*
X779933Y980579D01*
X784650Y975862D01*
X784164Y974688D01*
X698400D01*
X689000Y984089D01*
X689486Y985262D01*
X698106D01*
X699862Y985611D01*
X701350Y986606D01*
X704906Y990162D01*
X716750D01*
Y989000D01*
X731750D01*
Y1001000D01*
D02*
G37*
G36*
X459250Y1036664D02*
X457021Y1036370D01*
X454943Y1035510D01*
X453159Y1034141D01*
X451790Y1032357D01*
X450930Y1030279D01*
X450636Y1028050D01*
X450930Y1025821D01*
X451790Y1023743D01*
X453159Y1021959D01*
X454662Y1020806D01*
Y1012000D01*
X452250D01*
Y994000D01*
X466250D01*
Y1012000D01*
X463838D01*
Y1020806D01*
X465341Y1021959D01*
X466710Y1023743D01*
X467570Y1025821D01*
X467864Y1028050D01*
X467570Y1030279D01*
X466710Y1032357D01*
X465341Y1034141D01*
X463557Y1035510D01*
X461479Y1036370D01*
X459250Y1036664D01*
D02*
G37*
G36*
X850850Y1000188D02*
X848174Y999836D01*
X845681Y998803D01*
X843540Y997160D01*
X841897Y995019D01*
X840864Y992526D01*
X840512Y989850D01*
X840864Y987174D01*
X841897Y984681D01*
X843540Y982540D01*
X845681Y980897D01*
X848174Y979864D01*
X850850Y979512D01*
X853526Y979864D01*
X856019Y980897D01*
X858160Y982540D01*
X859803Y984681D01*
X860836Y987174D01*
X861188Y989850D01*
X860836Y992526D01*
X859803Y995019D01*
X858160Y997160D01*
X856019Y998803D01*
X853526Y999836D01*
X850850Y1000188D01*
D02*
G37*
G36*
X651350D02*
X648674Y999836D01*
X646181Y998803D01*
X644040Y997160D01*
X642397Y995019D01*
X641364Y992526D01*
X641012Y989850D01*
X641364Y987174D01*
X641605Y986593D01*
X611131Y956119D01*
X587099Y932088D01*
X410401D01*
X404738Y937750D01*
Y948000D01*
X404650Y948443D01*
Y963500D01*
X384650D01*
Y943500D01*
X395562D01*
Y935850D01*
X395911Y934094D01*
X396906Y932606D01*
X405256Y924256D01*
X406744Y923261D01*
X408500Y922912D01*
X571290D01*
X571543Y921642D01*
X569957Y920985D01*
X567868Y919382D01*
X566265Y917293D01*
X565257Y914861D01*
X564914Y912250D01*
X565257Y909640D01*
X566265Y907207D01*
X567868Y905118D01*
X569957Y903515D01*
X572389Y902507D01*
X575000Y902164D01*
X577611Y902507D01*
X580043Y903515D01*
X582132Y905118D01*
X583735Y907207D01*
X584743Y909640D01*
X585086Y912250D01*
X584743Y914861D01*
X583735Y917293D01*
X582132Y919382D01*
X580043Y920985D01*
X578457Y921642D01*
X578710Y922912D01*
X589000D01*
X590756Y923261D01*
X592244Y924256D01*
X616275Y948287D01*
X841043D01*
X841475Y947725D01*
X843459Y946202D01*
X845770Y945245D01*
X848250Y944918D01*
X850730Y945245D01*
X853041Y946202D01*
X855025Y947725D01*
X856548Y949709D01*
X857505Y952020D01*
X857832Y954500D01*
X857505Y956980D01*
X856548Y959291D01*
X855025Y961275D01*
X853041Y962798D01*
X850730Y963755D01*
X848250Y964082D01*
X845770Y963755D01*
X843459Y962798D01*
X841475Y961275D01*
X839952Y959291D01*
X839195Y957463D01*
X627111D01*
X626625Y958636D01*
X648093Y980105D01*
X648674Y979864D01*
X651350Y979512D01*
X654026Y979864D01*
X656519Y980897D01*
X658660Y982540D01*
X660303Y984681D01*
X661336Y987174D01*
X661688Y989850D01*
X661336Y992526D01*
X660303Y995019D01*
X658660Y997160D01*
X656519Y998803D01*
X654026Y999836D01*
X651350Y1000188D01*
D02*
G37*
G36*
X625950D02*
X623274Y999836D01*
X620781Y998803D01*
X618640Y997160D01*
X616997Y995019D01*
X615964Y992526D01*
X615612Y989850D01*
X615964Y987174D01*
X616997Y984681D01*
X618640Y982540D01*
X620781Y980897D01*
X623274Y979864D01*
X625950Y979512D01*
X628626Y979864D01*
X631119Y980897D01*
X633260Y982540D01*
X634903Y984681D01*
X635936Y987174D01*
X636288Y989850D01*
X635936Y992526D01*
X634903Y995019D01*
X633260Y997160D01*
X631119Y998803D01*
X628626Y999836D01*
X625950Y1000188D01*
D02*
G37*
G36*
X600550D02*
X597874Y999836D01*
X595381Y998803D01*
X593240Y997160D01*
X591597Y995019D01*
X590564Y992526D01*
X590212Y989850D01*
X590564Y987174D01*
X591597Y984681D01*
X593240Y982540D01*
X595381Y980897D01*
X597874Y979864D01*
X600550Y979512D01*
X603226Y979864D01*
X605719Y980897D01*
X607860Y982540D01*
X609503Y984681D01*
X610536Y987174D01*
X610888Y989850D01*
X610536Y992526D01*
X609503Y995019D01*
X607860Y997160D01*
X605719Y998803D01*
X603226Y999836D01*
X600550Y1000188D01*
D02*
G37*
G36*
X486250Y1012000D02*
X472250D01*
Y994000D01*
X479761D01*
X486559Y987202D01*
X486485Y986639D01*
X486812Y984159D01*
X487769Y981849D01*
X489292Y979864D01*
X491276Y978341D01*
X493587Y977384D01*
X496067Y977057D01*
X498547Y977384D01*
X500858Y978341D01*
X502843Y979864D01*
X504365Y981849D01*
X505323Y984159D01*
X505649Y986639D01*
X505323Y989119D01*
X504365Y991431D01*
X502843Y993415D01*
X500858Y994938D01*
X498547Y995895D01*
X496067Y996221D01*
X493587Y995895D01*
X491647Y995091D01*
X486250Y1000489D01*
Y1012000D01*
D02*
G37*
G36*
X451270Y979459D02*
Y970770D01*
X459959D01*
X459782Y972121D01*
X458770Y974563D01*
X457161Y976661D01*
X455063Y978270D01*
X452621Y979282D01*
X451270Y979459D01*
D02*
G37*
G36*
X448730D02*
X447379Y979282D01*
X444937Y978270D01*
X442839Y976661D01*
X441230Y974563D01*
X440218Y972121D01*
X440041Y970770D01*
X448730D01*
Y979459D01*
D02*
G37*
G36*
X459959Y968230D02*
X440041D01*
X440218Y966879D01*
X441230Y964437D01*
X442839Y962339D01*
X444937Y960730D01*
X447379Y959718D01*
X448412Y959583D01*
Y956290D01*
X446460D01*
Y950020D01*
X453000D01*
Y948750D01*
D01*
Y950020D01*
X459540D01*
Y956290D01*
X457588D01*
Y962897D01*
X458770Y964437D01*
X459782Y966879D01*
X459959Y968230D01*
D02*
G37*
G36*
X369250Y963586D02*
X366640Y963243D01*
X364207Y962235D01*
X362118Y960632D01*
X360515Y958543D01*
X359507Y956111D01*
X359164Y953500D01*
X359507Y950890D01*
X360515Y948457D01*
X362118Y946368D01*
X364207Y944765D01*
X366640Y943757D01*
X369250Y943414D01*
X371861Y943757D01*
X374293Y944765D01*
X376382Y946368D01*
X377985Y948457D01*
X378993Y950890D01*
X379336Y953500D01*
X378993Y956111D01*
X377985Y958543D01*
X376382Y960632D01*
X374293Y962235D01*
X371861Y963243D01*
X369250Y963586D01*
D02*
G37*
G36*
X343850D02*
X341240Y963243D01*
X338807Y962235D01*
X336718Y960632D01*
X335115Y958543D01*
X334107Y956111D01*
X333764Y953500D01*
X334107Y950890D01*
X335115Y948457D01*
X336718Y946368D01*
X338807Y944765D01*
X341240Y943757D01*
X343850Y943414D01*
X346460Y943757D01*
X348893Y944765D01*
X350982Y946368D01*
X352585Y948457D01*
X353593Y950890D01*
X353936Y953500D01*
X353593Y956111D01*
X352585Y958543D01*
X350982Y960632D01*
X348893Y962235D01*
X346460Y963243D01*
X343850Y963586D01*
D02*
G37*
G36*
X401750Y1010117D02*
X399409Y1009652D01*
X397424Y1008326D01*
X396098Y1006341D01*
X395633Y1004000D01*
X396098Y1001659D01*
X397424Y999674D01*
X399409Y998348D01*
X401287Y997975D01*
X412662Y986600D01*
Y960882D01*
X412459Y960798D01*
X410475Y959275D01*
X408952Y957291D01*
X407994Y954980D01*
X407668Y952500D01*
X407994Y950020D01*
X408952Y947709D01*
X410475Y945724D01*
X412459Y944202D01*
X414770Y943244D01*
X417250Y942918D01*
X419730Y943244D01*
X422041Y944202D01*
X424025Y945724D01*
X424265Y946037D01*
X431000D01*
Y941750D01*
X443000D01*
Y955750D01*
X431000D01*
Y955213D01*
X426409D01*
X425548Y957291D01*
X424025Y959275D01*
X422041Y960798D01*
X421838Y960882D01*
Y988500D01*
X421489Y990256D01*
X420494Y991744D01*
X407775Y1004463D01*
X407402Y1006341D01*
X406076Y1008326D01*
X404091Y1009652D01*
X401750Y1010117D01*
D02*
G37*
G36*
X459540Y947480D02*
X454270D01*
Y941210D01*
X459540D01*
Y947480D01*
D02*
G37*
G36*
X451730D02*
X446460D01*
Y941210D01*
X451730D01*
Y947480D01*
D02*
G37*
G36*
X627070Y922714D02*
Y913520D01*
X636264D01*
X636069Y915002D01*
X635007Y917566D01*
X633317Y919767D01*
X631115Y921457D01*
X628551Y922519D01*
X627070Y922714D01*
D02*
G37*
G36*
X624530Y922714D02*
X623049Y922519D01*
X620485Y921457D01*
X618283Y919767D01*
X616593Y917566D01*
X615531Y915002D01*
X615336Y913520D01*
X624530D01*
Y922714D01*
D02*
G37*
G36*
X651200Y922336D02*
X648589Y921993D01*
X646157Y920985D01*
X644068Y919382D01*
X642465Y917293D01*
X641457Y914861D01*
X641114Y912250D01*
X641457Y909640D01*
X642465Y907207D01*
X644068Y905118D01*
X646157Y903515D01*
X648589Y902507D01*
X651200Y902164D01*
X653811Y902507D01*
X656243Y903515D01*
X658332Y905118D01*
X659935Y907207D01*
X660943Y909640D01*
X661286Y912250D01*
X660943Y914861D01*
X659935Y917293D01*
X658332Y919382D01*
X656243Y920985D01*
X653811Y921993D01*
X651200Y922336D01*
D02*
G37*
G36*
X600400D02*
X597789Y921993D01*
X595357Y920985D01*
X593268Y919382D01*
X591665Y917293D01*
X590657Y914861D01*
X590314Y912250D01*
X590657Y909640D01*
X591665Y907207D01*
X593268Y905118D01*
X595357Y903515D01*
X597789Y902507D01*
X600400Y902164D01*
X603010Y902507D01*
X605443Y903515D01*
X607532Y905118D01*
X609135Y907207D01*
X610143Y909640D01*
X610486Y912250D01*
X610143Y914861D01*
X609135Y917293D01*
X607532Y919382D01*
X605443Y920985D01*
X603010Y921993D01*
X600400Y922336D01*
D02*
G37*
G36*
X624530Y910980D02*
X615336D01*
X615531Y909499D01*
X616593Y906935D01*
X618283Y904733D01*
X620485Y903043D01*
X623049Y901981D01*
X624530Y901786D01*
Y910980D01*
D02*
G37*
G36*
X636264D02*
X627070D01*
Y901786D01*
X628551Y901981D01*
X631115Y903043D01*
X633317Y904733D01*
X635007Y906935D01*
X636069Y909499D01*
X636264Y910980D01*
D02*
G37*
G36*
X221400Y1076662D02*
X218783Y1076317D01*
X216344Y1075307D01*
X214250Y1073700D01*
X212643Y1071606D01*
X211633Y1069167D01*
X211289Y1066550D01*
X211633Y1063933D01*
X212643Y1061494D01*
X214250Y1059400D01*
X216344Y1057793D01*
X218783Y1056783D01*
X221400Y1056439D01*
X224017Y1056783D01*
X226456Y1057793D01*
X228550Y1059400D01*
X230157Y1061494D01*
X231167Y1063933D01*
X231511Y1066550D01*
X231167Y1069167D01*
X230157Y1071606D01*
X228550Y1073700D01*
X226456Y1075307D01*
X224017Y1076317D01*
X221400Y1076662D01*
D02*
G37*
G36*
X196000D02*
X193383Y1076317D01*
X190944Y1075307D01*
X188850Y1073700D01*
X187243Y1071606D01*
X186233Y1069167D01*
X185889Y1066550D01*
X186233Y1063933D01*
X187243Y1061494D01*
X188850Y1059400D01*
X190944Y1057793D01*
X193383Y1056783D01*
X196000Y1056439D01*
X198617Y1056783D01*
X201056Y1057793D01*
X203150Y1059400D01*
X204757Y1061494D01*
X205767Y1063933D01*
X206112Y1066550D01*
X205767Y1069167D01*
X204757Y1071606D01*
X203150Y1073700D01*
X201056Y1075307D01*
X198617Y1076317D01*
X196000Y1076662D01*
D02*
G37*
G36*
X63250Y1065332D02*
X60770Y1065005D01*
X58459Y1064048D01*
X56474Y1062525D01*
X54952Y1060541D01*
X53994Y1058230D01*
X53668Y1055750D01*
X53994Y1053270D01*
X54079Y1053067D01*
X45256Y1044244D01*
X44261Y1042756D01*
X43912Y1041000D01*
Y916000D01*
X44261Y914244D01*
X45256Y912756D01*
X70662Y887349D01*
Y794250D01*
X71011Y792494D01*
X72006Y791006D01*
X111011Y752000D01*
X62849Y703838D01*
X58382D01*
X58298Y704041D01*
X56775Y706025D01*
X54791Y707548D01*
X52480Y708505D01*
X50000Y708832D01*
X47520Y708505D01*
X45209Y707548D01*
X43225Y706025D01*
X41702Y704041D01*
X40745Y701730D01*
X40418Y699250D01*
X40745Y696770D01*
X41702Y694459D01*
X43225Y692475D01*
X45209Y690952D01*
X47520Y689995D01*
X50000Y689668D01*
X52480Y689995D01*
X54791Y690952D01*
X56775Y692475D01*
X58298Y694459D01*
X58382Y694662D01*
X64750D01*
X66506Y695011D01*
X67994Y696006D01*
X120744Y748756D01*
X154067Y782079D01*
X154270Y781994D01*
X156750Y781668D01*
X159230Y781994D01*
X161541Y782952D01*
X163526Y784475D01*
X165048Y786459D01*
X166005Y788770D01*
X166332Y791250D01*
X166005Y793730D01*
X165048Y796041D01*
X163526Y798026D01*
X161541Y799548D01*
X161338Y799632D01*
Y850850D01*
X228901Y918412D01*
X322099D01*
X385756Y854756D01*
X387244Y853761D01*
X389000Y853412D01*
X406618D01*
X406702Y853209D01*
X408225Y851225D01*
X410209Y849702D01*
X412520Y848745D01*
X415000Y848418D01*
X416386Y848601D01*
X443629Y821358D01*
X443103Y820088D01*
X428750D01*
X426994Y819739D01*
X425506Y818744D01*
X419037Y812275D01*
X417159Y811902D01*
X415174Y810576D01*
X413848Y808591D01*
X413382Y806250D01*
X413599Y805162D01*
X412428Y804537D01*
X365858Y851107D01*
X364776Y851830D01*
X363500Y852084D01*
X320799D01*
X320541Y853352D01*
X322525Y854874D01*
X324048Y856859D01*
X325005Y859170D01*
X325332Y861650D01*
X325005Y864130D01*
X324048Y866441D01*
X322525Y868425D01*
X321912Y868896D01*
X322343Y870166D01*
X353119D01*
X402115Y821170D01*
X401883Y820000D01*
X402348Y817659D01*
X403674Y815674D01*
X405659Y814348D01*
X408000Y813883D01*
X410341Y814348D01*
X412326Y815674D01*
X413652Y817659D01*
X414118Y820000D01*
X413652Y822341D01*
X412326Y824326D01*
X410341Y825652D01*
X408000Y826118D01*
X406830Y825885D01*
X356858Y875857D01*
X355776Y876580D01*
X354500Y876834D01*
X319230D01*
X318977Y878104D01*
X320541Y878752D01*
X322525Y880275D01*
X324048Y882259D01*
X325005Y884570D01*
X325332Y887050D01*
X325005Y889530D01*
X324048Y891841D01*
X322525Y893825D01*
X320541Y895348D01*
X318230Y896305D01*
X315750Y896632D01*
X313270Y896305D01*
X310959Y895348D01*
X308974Y893825D01*
X307452Y891841D01*
X306495Y889530D01*
X306168Y887050D01*
X306495Y884570D01*
X307452Y882259D01*
X308974Y880275D01*
X310959Y878752D01*
X312523Y878104D01*
X312270Y876834D01*
X262000D01*
X260724Y876580D01*
X259643Y875857D01*
X140852Y757067D01*
X140130Y755986D01*
X139876Y754710D01*
Y543790D01*
X140130Y542514D01*
X140852Y541432D01*
X160115Y522170D01*
X159882Y521000D01*
X160348Y518659D01*
X161674Y516674D01*
X162601Y516055D01*
Y514528D01*
X161924Y514076D01*
X160598Y512091D01*
X160133Y509750D01*
X160598Y507409D01*
X161924Y505424D01*
X163909Y504098D01*
X166250Y503633D01*
X168591Y504098D01*
X170576Y505424D01*
X171902Y507409D01*
X172367Y509750D01*
X172135Y510920D01*
X179357Y518143D01*
X180080Y519224D01*
X180334Y520500D01*
Y529000D01*
X180080Y530276D01*
X179357Y531357D01*
X160374Y550341D01*
Y565012D01*
X160348Y565140D01*
X161519Y565766D01*
X183666Y543619D01*
Y513488D01*
X182674Y512826D01*
X181348Y510841D01*
X180882Y508500D01*
X181348Y506159D01*
X182674Y504174D01*
X184659Y502848D01*
X187000Y502383D01*
X189341Y502848D01*
X191326Y504174D01*
X192652Y506159D01*
X193118Y508500D01*
X192652Y510841D01*
X191326Y512826D01*
X190334Y513488D01*
Y545000D01*
X190080Y546276D01*
X189357Y547357D01*
X164551Y572164D01*
X164922Y573589D01*
X166576Y574694D01*
X167902Y576679D01*
X168368Y579020D01*
X168135Y580190D01*
X182607Y594663D01*
X183330Y595744D01*
X183584Y597020D01*
Y750869D01*
X185240Y752525D01*
X186411Y751900D01*
X186133Y750500D01*
X186598Y748159D01*
X187924Y746174D01*
X189909Y744848D01*
X192250Y744382D01*
X194591Y744848D01*
X196576Y746174D01*
X197902Y748159D01*
X198368Y750500D01*
X198135Y751670D01*
X216939Y770474D01*
X216957Y770469D01*
X217337Y769052D01*
X203873Y755587D01*
X203150Y754506D01*
X202896Y753230D01*
Y741861D01*
X197920Y736885D01*
X196750Y737118D01*
X194409Y736652D01*
X192424Y735326D01*
X191098Y733341D01*
X190632Y731000D01*
X191098Y728659D01*
X192424Y726674D01*
X194409Y725348D01*
X196750Y724883D01*
X199091Y725348D01*
X201076Y726674D01*
X202402Y728659D01*
X202868Y731000D01*
X202635Y732170D01*
X208587Y738122D01*
X209310Y739204D01*
X209564Y740480D01*
Y744672D01*
X210834Y745058D01*
X211424Y744174D01*
X213409Y742848D01*
X215750Y742383D01*
X216686Y742569D01*
X217666Y741702D01*
Y711750D01*
X217920Y710474D01*
X218643Y709392D01*
X323643Y604393D01*
X324724Y603670D01*
X326000Y603416D01*
X409762D01*
X410424Y602424D01*
X412409Y601098D01*
X412969Y600987D01*
X413338Y599771D01*
X381380Y567814D01*
X378738D01*
X378076Y568806D01*
X376091Y570132D01*
X373750Y570597D01*
X371409Y570132D01*
X369424Y568806D01*
X368098Y566821D01*
X367632Y564480D01*
X368098Y562139D01*
X369424Y560154D01*
X371409Y558828D01*
X373750Y558363D01*
X376091Y558828D01*
X378076Y560154D01*
X378344Y560555D01*
X378710Y560519D01*
X379183Y559196D01*
X376143Y556156D01*
X375420Y555074D01*
X375166Y553798D01*
Y548988D01*
X374174Y548326D01*
X372848Y546341D01*
X372383Y544000D01*
X372848Y541659D01*
X374174Y539674D01*
X375817Y538576D01*
X375662Y537251D01*
X373909Y536902D01*
X371924Y535576D01*
X370598Y533591D01*
X370132Y531250D01*
X370598Y528909D01*
X371924Y526924D01*
X373909Y525598D01*
X376250Y525132D01*
X378591Y525598D01*
X380576Y526924D01*
X381082Y527681D01*
X385763D01*
X387128Y527953D01*
X388286Y528727D01*
X390043Y530484D01*
X390817Y531642D01*
X391089Y533007D01*
Y544796D01*
X420724Y574431D01*
X451000D01*
X452366Y574703D01*
X453523Y575477D01*
X494773Y616727D01*
X495547Y617884D01*
X495819Y619250D01*
Y631850D01*
X503250D01*
Y653850D01*
X484926D01*
X484440Y655023D01*
X487661Y658244D01*
X489378Y657533D01*
X492250Y657155D01*
X495122Y657533D01*
X497798Y658642D01*
X500095Y660405D01*
X501858Y662702D01*
X502967Y665378D01*
X503345Y668250D01*
X502967Y671122D01*
X501858Y673798D01*
X500095Y676095D01*
X497798Y677859D01*
X495122Y678967D01*
X492250Y679345D01*
X489378Y678967D01*
X486702Y677859D01*
X484405Y676095D01*
X482641Y673798D01*
X481533Y671122D01*
X481155Y668250D01*
X481533Y665378D01*
X482641Y662702D01*
X482662Y662675D01*
X429257Y609271D01*
X428084Y609757D01*
Y629369D01*
X484470Y685755D01*
X486702Y684042D01*
X489378Y682933D01*
X492250Y682555D01*
X495122Y682933D01*
X497798Y684042D01*
X500095Y685805D01*
X501858Y688102D01*
X502967Y690778D01*
X503345Y693650D01*
X502967Y696522D01*
X501858Y699197D01*
X500095Y701495D01*
X497798Y703259D01*
X495122Y704367D01*
X492250Y704745D01*
X489378Y704367D01*
X486702Y703259D01*
X484405Y701495D01*
X482641Y699197D01*
X481533Y696522D01*
X481155Y693650D01*
X481374Y691990D01*
X481074Y691789D01*
X422393Y633107D01*
X421670Y632026D01*
X421416Y630750D01*
Y609859D01*
X420146Y609474D01*
X419076Y611076D01*
X417091Y612402D01*
X414750Y612868D01*
X412409Y612402D01*
X410424Y611076D01*
X409762Y610084D01*
X327381D01*
X224334Y713131D01*
Y743250D01*
X224080Y744526D01*
X223358Y745608D01*
X221635Y747330D01*
X221868Y748500D01*
X221402Y750841D01*
X220076Y752826D01*
X218091Y754152D01*
X215750Y754617D01*
X213726Y754215D01*
X213015Y755300D01*
X222341Y764626D01*
X299060D01*
X299185Y763356D01*
X298159Y763152D01*
X296174Y761826D01*
X294848Y759841D01*
X294382Y757500D01*
X294848Y755159D01*
X295399Y754334D01*
X294635Y753191D01*
X293750Y753367D01*
X291409Y752902D01*
X289424Y751576D01*
X288098Y749591D01*
X287633Y747250D01*
X288098Y744909D01*
X289424Y742924D01*
X289801Y742673D01*
Y704419D01*
X288194Y703346D01*
X286868Y701361D01*
X286854Y701290D01*
X285584Y701415D01*
Y752262D01*
X286576Y752924D01*
X287902Y754909D01*
X288368Y757250D01*
X287902Y759591D01*
X286576Y761576D01*
X284591Y762902D01*
X282250Y763367D01*
X279909Y762902D01*
X277924Y761576D01*
X276598Y759591D01*
X276133Y757250D01*
X276598Y754909D01*
X277829Y753066D01*
X276826Y752326D01*
X276004Y752875D01*
X274841Y753652D01*
X272500Y754118D01*
X270159Y753652D01*
X268174Y752326D01*
X266848Y750341D01*
X266382Y748000D01*
X266848Y745659D01*
X268174Y743674D01*
X269166Y743012D01*
Y698959D01*
X267993Y698473D01*
X264874Y701591D01*
Y735747D01*
X266152Y737659D01*
X266618Y740000D01*
X266152Y742341D01*
X264826Y744326D01*
X262841Y745652D01*
X260500Y746117D01*
X258159Y745652D01*
X256174Y744326D01*
X254848Y742341D01*
X254382Y740000D01*
X254848Y737659D01*
X256174Y735674D01*
X258159Y734348D01*
X258206Y734339D01*
Y702504D01*
X257033Y702018D01*
X243584Y715467D01*
Y745298D01*
X245091Y745598D01*
X247076Y746924D01*
X248402Y748909D01*
X248868Y751250D01*
X248402Y753591D01*
X247076Y755576D01*
X245091Y756902D01*
X242750Y757368D01*
X240409Y756902D01*
X238548Y755658D01*
X238112Y755517D01*
X237388D01*
X236952Y755658D01*
X235091Y756902D01*
X232750Y757368D01*
X230409Y756902D01*
X228424Y755576D01*
X227098Y753591D01*
X226632Y751250D01*
X227098Y748909D01*
X228424Y746924D01*
X230409Y745598D01*
X231916Y745298D01*
Y712770D01*
X232169Y711502D01*
X232887Y710427D01*
X307907Y635407D01*
X308982Y634689D01*
X310250Y634436D01*
X365638D01*
X366317Y633166D01*
X365598Y632091D01*
X365132Y629750D01*
X365598Y627409D01*
X366924Y625424D01*
X368909Y624098D01*
X371104Y623661D01*
X371512Y623453D01*
X372024Y622941D01*
X372233Y622533D01*
X372669Y620338D01*
X373995Y618353D01*
X375980Y617027D01*
X378321Y616561D01*
X380662Y617027D01*
X382647Y618353D01*
X383973Y620338D01*
X384439Y622679D01*
X383973Y625020D01*
X382647Y627005D01*
X381814Y627561D01*
Y637750D01*
X381561Y639018D01*
X380843Y640093D01*
X376343Y644593D01*
X375268Y645311D01*
X374000Y645564D01*
X352201D01*
X352118Y646834D01*
X352457Y646878D01*
X354048Y647537D01*
X355414Y648586D01*
X356463Y649952D01*
X357122Y651543D01*
X357179Y651980D01*
X344321D01*
X344378Y651543D01*
X345037Y649952D01*
X346086Y648586D01*
X347452Y647537D01*
X349043Y646878D01*
X349382Y646834D01*
X349299Y645564D01*
X313486D01*
X288808Y670243D01*
X289293Y671416D01*
X335250D01*
X336526Y671670D01*
X337608Y672393D01*
X346608Y681393D01*
X347330Y682474D01*
X347584Y683750D01*
Y684041D01*
X348854Y684720D01*
X350159Y683848D01*
X352500Y683382D01*
X354841Y683848D01*
X356826Y685174D01*
X357461Y686125D01*
X357723Y686240D01*
X359057Y686228D01*
X375365Y669920D01*
X375132Y668750D01*
X375598Y666409D01*
X376924Y664424D01*
X378909Y663098D01*
X381250Y662633D01*
X383591Y663098D01*
X385576Y664424D01*
X386902Y666409D01*
X387368Y668750D01*
X386902Y671091D01*
X385576Y673076D01*
X383591Y674402D01*
X381250Y674867D01*
X380080Y674635D01*
X364334Y690381D01*
Y756012D01*
X365326Y756674D01*
X366652Y758659D01*
X367118Y761000D01*
X366652Y763341D01*
X366181Y764046D01*
X366780Y765166D01*
X370012D01*
X370674Y764174D01*
X372659Y762848D01*
X375000Y762383D01*
X377341Y762848D01*
X379326Y764174D01*
X380652Y766159D01*
X381118Y768500D01*
X380652Y770841D01*
X379326Y772826D01*
X378158Y773606D01*
X378543Y774876D01*
X390409D01*
X405392Y759893D01*
X406474Y759170D01*
X407750Y758916D01*
X530000D01*
X531276Y759170D01*
X532357Y759893D01*
X548080Y775615D01*
X549250Y775383D01*
X551591Y775848D01*
X553576Y777174D01*
X554902Y779159D01*
X555368Y781500D01*
X554902Y783841D01*
X553576Y785826D01*
X551591Y787152D01*
X549250Y787618D01*
X546909Y787152D01*
X544924Y785826D01*
X543598Y783841D01*
X543133Y781500D01*
X543365Y780330D01*
X528619Y765584D01*
X489106D01*
X488721Y766854D01*
X488826Y766924D01*
X490152Y768909D01*
X490617Y771250D01*
X490152Y773591D01*
X488826Y775576D01*
X486841Y776902D01*
X484500Y777367D01*
X483806Y777230D01*
X483042Y778372D01*
X483902Y779659D01*
X484367Y782000D01*
X483902Y784341D01*
X482576Y786326D01*
X480591Y787652D01*
X478250Y788118D01*
X475909Y787652D01*
X473924Y786326D01*
X473262Y785334D01*
X431631D01*
X417787Y799178D01*
X418412Y800349D01*
X419500Y800133D01*
X421841Y800598D01*
X423826Y801924D01*
X425152Y803909D01*
X425525Y805787D01*
X430650Y810912D01*
X511067D01*
X512659Y809848D01*
X515000Y809382D01*
X517341Y809848D01*
X519326Y811174D01*
X520652Y813159D01*
X521118Y815500D01*
X520652Y817841D01*
X520351Y818292D01*
X520949Y819412D01*
X535620D01*
X542809Y812223D01*
X542440Y811008D01*
X541909Y810902D01*
X539924Y809576D01*
X538598Y807591D01*
X538225Y805713D01*
X532599Y800088D01*
X486683D01*
X485091Y801152D01*
X482750Y801618D01*
X480409Y801152D01*
X478424Y799826D01*
X477098Y797841D01*
X476632Y795500D01*
X477098Y793159D01*
X478424Y791174D01*
X480409Y789848D01*
X482750Y789382D01*
X485091Y789848D01*
X486683Y790912D01*
X534500D01*
X536256Y791261D01*
X537744Y792256D01*
X544713Y799225D01*
X546591Y799598D01*
X548576Y800924D01*
X549902Y802909D01*
X550008Y803441D01*
X551223Y803809D01*
X572270Y782763D01*
Y599158D01*
X572619Y597402D01*
X573613Y595914D01*
X612950Y556577D01*
X614439Y555582D01*
X616195Y555233D01*
X636571D01*
X638327Y555582D01*
X639437Y556324D01*
X658912Y536850D01*
Y476151D01*
X645600Y462838D01*
X507250D01*
X505494Y462489D01*
X504006Y461494D01*
X485756Y443244D01*
X484761Y441756D01*
X484412Y440000D01*
Y422650D01*
X441762Y380000D01*
X440588Y380486D01*
Y391250D01*
X440239Y393006D01*
X439244Y394494D01*
X411244Y422494D01*
X409756Y423489D01*
X408000Y423838D01*
X392132D01*
X392048Y424041D01*
X390526Y426026D01*
X388541Y427548D01*
X386230Y428506D01*
X383750Y428832D01*
X381270Y428506D01*
X378959Y427548D01*
X376975Y426026D01*
X375452Y424041D01*
X374495Y421730D01*
X374168Y419250D01*
X374495Y416770D01*
X375452Y414459D01*
X376975Y412475D01*
X378959Y410952D01*
X381270Y409995D01*
X383750Y409668D01*
X386230Y409995D01*
X388541Y410952D01*
X390526Y412475D01*
X392048Y414459D01*
X392132Y414662D01*
X406100D01*
X431412Y389350D01*
Y375986D01*
X430959Y375798D01*
X428975Y374276D01*
X427452Y372291D01*
X427368Y372088D01*
X346400D01*
X336671Y381817D01*
X336755Y382020D01*
X337082Y384500D01*
X336755Y386980D01*
X335798Y389291D01*
X334276Y391275D01*
X332291Y392798D01*
X329980Y393755D01*
X327500Y394082D01*
X325020Y393755D01*
X322709Y392798D01*
X320725Y391275D01*
X319202Y389291D01*
X318245Y386980D01*
X317918Y384500D01*
X318245Y382020D01*
X319202Y379709D01*
X320725Y377724D01*
X322709Y376202D01*
X325020Y375244D01*
X327500Y374918D01*
X329980Y375244D01*
X330183Y375329D01*
X341256Y364256D01*
X342744Y363261D01*
X344500Y362912D01*
X427368D01*
X427452Y362709D01*
X428975Y360725D01*
X430959Y359202D01*
X433270Y358245D01*
X435750Y357918D01*
X438230Y358245D01*
X440541Y359202D01*
X442525Y360725D01*
X444048Y362709D01*
X445005Y365020D01*
X445332Y367500D01*
X445005Y369980D01*
X444921Y370183D01*
X492244Y417506D01*
X493239Y418994D01*
X493588Y420750D01*
Y438100D01*
X509151Y453662D01*
X647500D01*
X649256Y454011D01*
X650744Y455006D01*
X666744Y471006D01*
X667739Y472494D01*
X668088Y474250D01*
Y538750D01*
X667739Y540506D01*
X666744Y541994D01*
X644088Y564650D01*
Y571176D01*
X645312Y571683D01*
X647720Y573530D01*
X649567Y575938D01*
X650728Y578741D01*
X651124Y581750D01*
X650728Y584759D01*
X649567Y587562D01*
X647720Y589970D01*
X645312Y591817D01*
X642509Y592978D01*
X639500Y593374D01*
X636491Y592978D01*
X633688Y591817D01*
X631280Y589970D01*
X629433Y587562D01*
X628272Y584759D01*
X627876Y581750D01*
X628272Y578741D01*
X629433Y575938D01*
X631280Y573530D01*
X633688Y571683D01*
X634912Y571176D01*
Y564650D01*
X634671Y564409D01*
X618095D01*
X613515Y568990D01*
X613898Y569767D01*
X614166Y570134D01*
X617109Y570522D01*
X619912Y571683D01*
X622320Y573530D01*
X624167Y575938D01*
X625328Y578741D01*
X625724Y581750D01*
X625328Y584759D01*
X624167Y587562D01*
X622320Y589970D01*
X619912Y591817D01*
X617109Y592978D01*
X614100Y593374D01*
X611091Y592978D01*
X608288Y591817D01*
X605880Y589970D01*
X604033Y587562D01*
X602872Y584759D01*
X602484Y581816D01*
X602118Y581548D01*
X601340Y581165D01*
X581446Y601058D01*
Y784663D01*
X581097Y786419D01*
X580102Y787907D01*
X540765Y827244D01*
X539277Y828239D01*
X537521Y828588D01*
X453653D01*
X452887Y829719D01*
X452891Y829858D01*
X454164Y830836D01*
X455213Y832202D01*
X455872Y833793D01*
X455929Y834230D01*
X449500D01*
Y835500D01*
X448230D01*
Y841929D01*
X447793Y841872D01*
X446202Y841213D01*
X444836Y840164D01*
X443787Y838798D01*
X443128Y837207D01*
X443061Y836699D01*
X441721Y836244D01*
X431387Y846577D01*
X431874Y847750D01*
X442000D01*
Y861750D01*
X430000D01*
Y860963D01*
X424055D01*
X423298Y862791D01*
X421776Y864775D01*
X419791Y866298D01*
X417480Y867255D01*
X415000Y867582D01*
X412520Y867255D01*
X410209Y866298D01*
X408225Y864775D01*
X406702Y862791D01*
X406618Y862588D01*
X390900D01*
X327244Y926244D01*
X325756Y927239D01*
X324000Y927588D01*
X227000D01*
X225244Y927239D01*
X223756Y926244D01*
X153506Y855994D01*
X152511Y854506D01*
X152162Y852750D01*
Y799632D01*
X151959Y799548D01*
X149975Y798026D01*
X148452Y796041D01*
X147494Y793730D01*
X147168Y791250D01*
X147494Y788770D01*
X147579Y788567D01*
X117500Y758489D01*
X79838Y796151D01*
Y889250D01*
X79489Y891006D01*
X78494Y892494D01*
X53088Y917900D01*
Y1039100D01*
X60567Y1046579D01*
X60770Y1046495D01*
X63250Y1046168D01*
X65730Y1046495D01*
X68041Y1047452D01*
X70025Y1048975D01*
X71548Y1050959D01*
X72505Y1053270D01*
X72832Y1055750D01*
X72505Y1058230D01*
X71548Y1060541D01*
X70025Y1062525D01*
X68041Y1064048D01*
X65730Y1065005D01*
X63250Y1065332D01*
D02*
G37*
G36*
X197270Y1051639D02*
Y1042420D01*
X206489D01*
X206293Y1043908D01*
X205229Y1046478D01*
X203535Y1048685D01*
X201328Y1050378D01*
X198758Y1051443D01*
X197270Y1051639D01*
D02*
G37*
G36*
X194730Y1051639D02*
X193242Y1051443D01*
X190672Y1050378D01*
X188465Y1048685D01*
X186772Y1046478D01*
X185707Y1043908D01*
X185511Y1042420D01*
X194730D01*
Y1051639D01*
D02*
G37*
G36*
X221400Y1051262D02*
X218783Y1050917D01*
X216344Y1049907D01*
X214250Y1048300D01*
X212643Y1046206D01*
X211633Y1043767D01*
X211289Y1041150D01*
X211633Y1038533D01*
X212643Y1036094D01*
X214250Y1034000D01*
X216344Y1032393D01*
X218783Y1031383D01*
X221400Y1031039D01*
X224017Y1031383D01*
X226456Y1032393D01*
X228550Y1034000D01*
X230157Y1036094D01*
X231167Y1038533D01*
X231511Y1041150D01*
X231167Y1043767D01*
X230157Y1046206D01*
X228550Y1048300D01*
X226456Y1049907D01*
X224017Y1050917D01*
X221400Y1051262D01*
D02*
G37*
G36*
X206489Y1039880D02*
X197270D01*
Y1030661D01*
X198758Y1030857D01*
X201328Y1031921D01*
X203535Y1033615D01*
X205229Y1035822D01*
X206293Y1038392D01*
X206489Y1039880D01*
D02*
G37*
G36*
X194730D02*
X185511D01*
X185707Y1038392D01*
X186772Y1035822D01*
X188465Y1033615D01*
X190672Y1031921D01*
X193242Y1030857D01*
X194730Y1030661D01*
Y1039880D01*
D02*
G37*
G36*
X231425Y1025775D02*
X211375D01*
Y1005725D01*
X231425D01*
Y1025775D01*
D02*
G37*
G36*
X196000Y1025862D02*
X193383Y1025517D01*
X190944Y1024507D01*
X188850Y1022900D01*
X187243Y1020806D01*
X186233Y1018367D01*
X185889Y1015750D01*
X186233Y1013133D01*
X187243Y1010694D01*
X188850Y1008600D01*
X190944Y1006993D01*
X193383Y1005983D01*
X196000Y1005639D01*
X198617Y1005983D01*
X201056Y1006993D01*
X203150Y1008600D01*
X204757Y1010694D01*
X205767Y1013133D01*
X206112Y1015750D01*
X205767Y1018367D01*
X204757Y1020806D01*
X203150Y1022900D01*
X201056Y1024507D01*
X198617Y1025517D01*
X196000Y1025862D01*
D02*
G37*
G36*
X79750Y1006117D02*
X77409Y1005652D01*
X75424Y1004326D01*
X74098Y1002341D01*
X73632Y1000000D01*
X74098Y997659D01*
X75424Y995674D01*
X76416Y995012D01*
Y991000D01*
X65750D01*
Y977000D01*
X83750D01*
Y991000D01*
X83084D01*
Y995012D01*
X84076Y995674D01*
X85402Y997659D01*
X85868Y1000000D01*
X85402Y1002341D01*
X84076Y1004326D01*
X82091Y1005652D01*
X79750Y1006117D01*
D02*
G37*
G36*
X1002275Y985775D02*
X982225D01*
Y965725D01*
X1002275D01*
Y985775D01*
D02*
G37*
G36*
X1017650Y985862D02*
X1015033Y985517D01*
X1012594Y984507D01*
X1010500Y982900D01*
X1008893Y980806D01*
X1007883Y978367D01*
X1007539Y975750D01*
X1007883Y973133D01*
X1008893Y970694D01*
X1010500Y968600D01*
X1012594Y966993D01*
X1015033Y965983D01*
X1017650Y965639D01*
X1020267Y965983D01*
X1022706Y966993D01*
X1024800Y968600D01*
X1026407Y970694D01*
X1027417Y973133D01*
X1027762Y975750D01*
X1027417Y978367D01*
X1026407Y980806D01*
X1024800Y982900D01*
X1022706Y984507D01*
X1020267Y985517D01*
X1017650Y985862D01*
D02*
G37*
G36*
X83750Y971000D02*
X65750D01*
Y957000D01*
X83750D01*
Y959166D01*
X87762D01*
X88424Y958174D01*
X90409Y956848D01*
X92750Y956383D01*
X95091Y956848D01*
X97076Y958174D01*
X98402Y960159D01*
X98868Y962500D01*
X98402Y964841D01*
X97076Y966826D01*
X95091Y968152D01*
X92750Y968617D01*
X90409Y968152D01*
X88424Y966826D01*
X87762Y965834D01*
X83750D01*
Y971000D01*
D02*
G37*
G36*
X1017650Y960462D02*
X1015033Y960117D01*
X1012594Y959107D01*
X1010500Y957500D01*
X1008893Y955406D01*
X1007883Y952967D01*
X1007539Y950350D01*
X1007883Y947733D01*
X1008893Y945294D01*
X1010500Y943200D01*
X1012594Y941593D01*
X1015033Y940583D01*
X1017650Y940238D01*
X1020267Y940583D01*
X1022706Y941593D01*
X1024800Y943200D01*
X1026407Y945294D01*
X1027417Y947733D01*
X1027762Y950350D01*
X1027417Y952967D01*
X1026407Y955406D01*
X1024800Y957500D01*
X1022706Y959107D01*
X1020267Y960117D01*
X1017650Y960462D01*
D02*
G37*
G36*
X992250D02*
X989633Y960117D01*
X987194Y959107D01*
X985100Y957500D01*
X983493Y955406D01*
X982483Y952967D01*
X982139Y950350D01*
X982483Y947733D01*
X983493Y945294D01*
X985100Y943200D01*
X987194Y941593D01*
X989633Y940583D01*
X992250Y940238D01*
X994867Y940583D01*
X997306Y941593D01*
X999400Y943200D01*
X1001007Y945294D01*
X1002017Y947733D01*
X1002362Y950350D01*
X1002017Y952967D01*
X1001007Y955406D01*
X999400Y957500D01*
X997306Y959107D01*
X994867Y960117D01*
X992250Y960462D01*
D02*
G37*
G36*
X1017650Y935061D02*
X1015033Y934717D01*
X1012594Y933707D01*
X1010500Y932100D01*
X1008893Y930006D01*
X1007883Y927567D01*
X1007539Y924950D01*
X1007883Y922333D01*
X1008893Y919894D01*
X1010500Y917800D01*
X1012594Y916193D01*
X1015033Y915183D01*
X1017650Y914838D01*
X1020267Y915183D01*
X1022706Y916193D01*
X1024800Y917800D01*
X1026407Y919894D01*
X1027417Y922333D01*
X1027762Y924950D01*
X1027417Y927567D01*
X1026407Y930006D01*
X1024800Y932100D01*
X1022706Y933707D01*
X1020267Y934717D01*
X1017650Y935061D01*
D02*
G37*
G36*
X992250D02*
X989633Y934717D01*
X987194Y933707D01*
X985100Y932100D01*
X983493Y930006D01*
X982483Y927567D01*
X982139Y924950D01*
X982483Y922333D01*
X983493Y919894D01*
X985100Y917800D01*
X987194Y916193D01*
X989633Y915183D01*
X992250Y914838D01*
X994867Y915183D01*
X997306Y916193D01*
X999400Y917800D01*
X1001007Y919894D01*
X1002017Y922333D01*
X1002362Y924950D01*
X1002017Y927567D01*
X1001007Y930006D01*
X999400Y932100D01*
X997306Y933707D01*
X994867Y934717D01*
X992250Y935061D01*
D02*
G37*
G36*
X703270Y922714D02*
Y913520D01*
X712464D01*
X712269Y915002D01*
X711207Y917566D01*
X709517Y919767D01*
X707316Y921457D01*
X704752Y922519D01*
X703270Y922714D01*
D02*
G37*
G36*
X700730Y922714D02*
X699249Y922519D01*
X696684Y921457D01*
X694483Y919767D01*
X692793Y917566D01*
X691731Y915002D01*
X691536Y913520D01*
X700730D01*
Y922714D01*
D02*
G37*
G36*
X737400Y922250D02*
X717400D01*
Y902250D01*
X737400D01*
Y922250D01*
D02*
G37*
G36*
X700730Y910980D02*
X691536D01*
X691731Y909499D01*
X692793Y906935D01*
X694483Y904733D01*
X696684Y903043D01*
X699249Y901981D01*
X700730Y901786D01*
Y910980D01*
D02*
G37*
G36*
X712464D02*
X703270D01*
Y901786D01*
X704752Y901981D01*
X707316Y903043D01*
X709517Y904733D01*
X711207Y906935D01*
X712269Y909499D01*
X712464Y910980D01*
D02*
G37*
G36*
X35920Y882141D02*
Y874420D01*
X43641D01*
X43496Y875520D01*
X42581Y877729D01*
X41126Y879626D01*
X39229Y881081D01*
X37020Y881996D01*
X35920Y882141D01*
D02*
G37*
G36*
X33380D02*
X32280Y881996D01*
X30071Y881081D01*
X28174Y879626D01*
X26719Y877729D01*
X25804Y875520D01*
X25659Y874420D01*
X33380D01*
Y882141D01*
D02*
G37*
G36*
X110850Y881764D02*
X108621Y881470D01*
X106543Y880610D01*
X104759Y879241D01*
X103390Y877457D01*
X102530Y875379D01*
X102236Y873150D01*
X102530Y870921D01*
X103390Y868843D01*
X104759Y867059D01*
X106543Y865690D01*
X108621Y864830D01*
X110850Y864536D01*
X113079Y864830D01*
X115157Y865690D01*
X116941Y867059D01*
X118310Y868843D01*
X119170Y870921D01*
X119464Y873150D01*
X119170Y875379D01*
X118310Y877457D01*
X116941Y879241D01*
X115157Y880610D01*
X113079Y881470D01*
X110850Y881764D01*
D02*
G37*
G36*
X43641Y871880D02*
X35920D01*
Y864159D01*
X37020Y864304D01*
X39229Y865219D01*
X41126Y866674D01*
X42581Y868571D01*
X43496Y870780D01*
X43641Y871880D01*
D02*
G37*
G36*
X33380D02*
X25659D01*
X25804Y870780D01*
X26719Y868571D01*
X28174Y866674D01*
X30071Y865219D01*
X32280Y864304D01*
X33380Y864159D01*
Y871880D01*
D02*
G37*
G36*
X672858Y878054D02*
X642442D01*
Y860846D01*
X672858D01*
Y878054D01*
D02*
G37*
G36*
X740454Y878128D02*
X727246D01*
X725000Y877833D01*
X722907Y876966D01*
X721110Y875586D01*
X719730Y873789D01*
X718864Y871696D01*
X718568Y869450D01*
X718864Y867204D01*
X719730Y865111D01*
X721110Y863314D01*
X722907Y861934D01*
X725000Y861068D01*
X727246Y860772D01*
X740454D01*
X742700Y861068D01*
X744793Y861934D01*
X746590Y863314D01*
X747970Y865111D01*
X748837Y867204D01*
X749132Y869450D01*
X748837Y871696D01*
X747970Y873789D01*
X746590Y875586D01*
X744793Y876966D01*
X742700Y877833D01*
X740454Y878128D01*
D02*
G37*
G36*
X458540Y862290D02*
X453270D01*
Y856020D01*
X458540D01*
Y862290D01*
D02*
G37*
G36*
X450730D02*
X445460D01*
Y856020D01*
X450730D01*
Y862290D01*
D02*
G37*
G36*
X228750Y868500D02*
X209750D01*
Y849500D01*
X228750D01*
Y868500D01*
D02*
G37*
G36*
X35920Y856741D02*
Y849020D01*
X43641D01*
X43496Y850120D01*
X42581Y852329D01*
X41126Y854226D01*
X39229Y855681D01*
X37020Y856596D01*
X35920Y856741D01*
D02*
G37*
G36*
X33380D02*
X32280Y856596D01*
X30071Y855681D01*
X28174Y854226D01*
X26719Y852329D01*
X25804Y850120D01*
X25659Y849020D01*
X33380D01*
Y856741D01*
D02*
G37*
G36*
X458540Y853480D02*
X453270D01*
Y847210D01*
X458540D01*
Y853480D01*
D02*
G37*
G36*
X450730D02*
X445460D01*
Y847210D01*
X450730D01*
Y853480D01*
D02*
G37*
G36*
X664254Y853273D02*
X658920D01*
Y845320D01*
X673310D01*
X673163Y846437D01*
X672241Y848661D01*
X670776Y850572D01*
X668865Y852037D01*
X666641Y852959D01*
X664254Y853273D01*
D02*
G37*
G36*
X656380D02*
X651046D01*
X648659Y852959D01*
X646434Y852037D01*
X644524Y850572D01*
X643059Y848661D01*
X642137Y846437D01*
X641990Y845320D01*
X656380D01*
Y853273D01*
D02*
G37*
G36*
X110850Y856364D02*
X108621Y856070D01*
X106543Y855210D01*
X104759Y853841D01*
X103390Y852057D01*
X102530Y849979D01*
X102236Y847750D01*
X102530Y845521D01*
X103390Y843443D01*
X104759Y841659D01*
X106543Y840290D01*
X108621Y839430D01*
X110850Y839136D01*
X113079Y839430D01*
X115157Y840290D01*
X116941Y841659D01*
X118310Y843443D01*
X119170Y845521D01*
X119464Y847750D01*
X119170Y849979D01*
X118310Y852057D01*
X116941Y853841D01*
X115157Y855210D01*
X113079Y856070D01*
X110850Y856364D01*
D02*
G37*
G36*
X43641Y846480D02*
X35920D01*
Y838759D01*
X37020Y838904D01*
X39229Y839819D01*
X41126Y841274D01*
X42581Y843171D01*
X43496Y845380D01*
X43641Y846480D01*
D02*
G37*
G36*
X33380D02*
X25659D01*
X25804Y845380D01*
X26719Y843171D01*
X28174Y841274D01*
X30071Y839819D01*
X32280Y838904D01*
X33380Y838759D01*
Y846480D01*
D02*
G37*
G36*
X450770Y841929D02*
Y836770D01*
X455929D01*
X455872Y837207D01*
X455213Y838798D01*
X454164Y840164D01*
X452798Y841213D01*
X451207Y841872D01*
X450770Y841929D01*
D02*
G37*
G36*
X740454Y852728D02*
X727246D01*
X725000Y852433D01*
X722907Y851566D01*
X721110Y850186D01*
X719730Y848389D01*
X718864Y846296D01*
X718568Y844050D01*
X718864Y841804D01*
X719730Y839711D01*
X721110Y837914D01*
X722907Y836534D01*
X725000Y835667D01*
X727246Y835372D01*
X740454D01*
X742700Y835667D01*
X744793Y836534D01*
X746590Y837914D01*
X747970Y839711D01*
X748837Y841804D01*
X749132Y844050D01*
X748837Y846296D01*
X747970Y848389D01*
X746590Y850186D01*
X744793Y851566D01*
X742700Y852433D01*
X740454Y852728D01*
D02*
G37*
G36*
X673310Y842780D02*
X658920D01*
Y834827D01*
X664254D01*
X666641Y835141D01*
X668865Y836063D01*
X670776Y837528D01*
X672241Y839439D01*
X673163Y841663D01*
X673310Y842780D01*
D02*
G37*
G36*
X656380D02*
X641990D01*
X642137Y841663D01*
X643059Y839439D01*
X644524Y837528D01*
X646434Y836063D01*
X648659Y835141D01*
X651046Y834827D01*
X656380D01*
Y842780D01*
D02*
G37*
G36*
X35920Y831341D02*
Y823620D01*
X43641D01*
X43496Y824720D01*
X42581Y826929D01*
X41126Y828826D01*
X39229Y830281D01*
X37020Y831196D01*
X35920Y831341D01*
D02*
G37*
G36*
X33380D02*
X32280Y831196D01*
X30071Y830281D01*
X28174Y828826D01*
X26719Y826929D01*
X25804Y824720D01*
X25659Y823620D01*
X33380D01*
Y831341D01*
D02*
G37*
G36*
X119390Y830890D02*
X102310D01*
Y813810D01*
X119390D01*
Y830890D01*
D02*
G37*
G36*
X43641Y821080D02*
X35920D01*
Y813359D01*
X37020Y813504D01*
X39229Y814419D01*
X41126Y815874D01*
X42581Y817771D01*
X43496Y819980D01*
X43641Y821080D01*
D02*
G37*
G36*
X33380D02*
X25659D01*
X25804Y819980D01*
X26719Y817771D01*
X28174Y815874D01*
X30071Y814419D01*
X32280Y813504D01*
X33380Y813359D01*
Y821080D01*
D02*
G37*
G36*
X672858Y822054D02*
X642442D01*
Y804846D01*
X672858D01*
Y822054D01*
D02*
G37*
G36*
X740454Y822128D02*
X727246D01*
X725000Y821833D01*
X722907Y820966D01*
X721110Y819586D01*
X719730Y817789D01*
X718864Y815696D01*
X718568Y813450D01*
X718864Y811204D01*
X719730Y809111D01*
X721110Y807314D01*
X722907Y805934D01*
X725000Y805068D01*
X727246Y804772D01*
X740454D01*
X742700Y805068D01*
X744793Y805934D01*
X746590Y807314D01*
X747970Y809111D01*
X748837Y811204D01*
X749132Y813450D01*
X748837Y815696D01*
X747970Y817789D01*
X746590Y819586D01*
X744793Y820966D01*
X742700Y821833D01*
X740454Y822128D01*
D02*
G37*
G36*
X664254Y797273D02*
X658920D01*
Y789320D01*
X673310D01*
X673163Y790437D01*
X672241Y792662D01*
X670776Y794572D01*
X668865Y796037D01*
X666641Y796959D01*
X664254Y797273D01*
D02*
G37*
G36*
X656380D02*
X651046D01*
X648659Y796959D01*
X646434Y796037D01*
X644524Y794572D01*
X643059Y792662D01*
X642137Y790437D01*
X641990Y789320D01*
X656380D01*
Y797273D01*
D02*
G37*
G36*
X740454Y796728D02*
X727246D01*
X725000Y796432D01*
X722907Y795566D01*
X721110Y794186D01*
X719730Y792389D01*
X718864Y790296D01*
X718568Y788050D01*
X718864Y785804D01*
X719730Y783711D01*
X721110Y781914D01*
X722907Y780534D01*
X725000Y779668D01*
X727246Y779372D01*
X740454D01*
X742700Y779668D01*
X744793Y780534D01*
X746590Y781914D01*
X747970Y783711D01*
X748837Y785804D01*
X749132Y788050D01*
X748837Y790296D01*
X747970Y792389D01*
X746590Y794186D01*
X744793Y795566D01*
X742700Y796432D01*
X740454Y796728D01*
D02*
G37*
G36*
X673310Y786780D02*
X658920D01*
Y778827D01*
X664254D01*
X666641Y779141D01*
X668865Y780063D01*
X670776Y781528D01*
X672241Y783439D01*
X673163Y785663D01*
X673310Y786780D01*
D02*
G37*
G36*
X656380D02*
X641990D01*
X642137Y785663D01*
X643059Y783439D01*
X644524Y781528D01*
X646434Y780063D01*
X648659Y779141D01*
X651046Y778827D01*
X656380D01*
Y786780D01*
D02*
G37*
G36*
X796020Y767709D02*
Y759020D01*
X804709D01*
X804532Y760371D01*
X803520Y762813D01*
X801911Y764911D01*
X799813Y766520D01*
X797371Y767532D01*
X796020Y767709D01*
D02*
G37*
G36*
X793480D02*
X792129Y767532D01*
X789687Y766520D01*
X787589Y764911D01*
X785980Y762813D01*
X784968Y760371D01*
X784791Y759020D01*
X793480D01*
Y767709D01*
D02*
G37*
G36*
X804709Y756480D02*
X796020D01*
Y747791D01*
X797371Y747968D01*
X799813Y748980D01*
X801911Y750589D01*
X803520Y752687D01*
X804532Y755129D01*
X804709Y756480D01*
D02*
G37*
G36*
X793480D02*
X784791D01*
X784968Y755129D01*
X785980Y752687D01*
X787589Y750589D01*
X789687Y748980D01*
X792129Y747968D01*
X793480Y747791D01*
Y756480D01*
D02*
G37*
G36*
X672858Y764804D02*
X642442D01*
Y747596D01*
X672858D01*
Y764804D01*
D02*
G37*
G36*
X740454Y764878D02*
X727246D01*
X725000Y764583D01*
X722907Y763716D01*
X721110Y762336D01*
X719730Y760539D01*
X718864Y758446D01*
X718568Y756200D01*
X718864Y753954D01*
X719730Y751861D01*
X721110Y750064D01*
X722907Y748684D01*
X725000Y747818D01*
X727246Y747522D01*
X740454D01*
X742700Y747818D01*
X744793Y748684D01*
X746590Y750064D01*
X747970Y751861D01*
X748837Y753954D01*
X749132Y756200D01*
X748837Y758446D01*
X747970Y760539D01*
X746590Y762336D01*
X744793Y763716D01*
X742700Y764583D01*
X740454Y764878D01*
D02*
G37*
G36*
X1012500Y766358D02*
X1009237Y765928D01*
X1006196Y764669D01*
X1003585Y762665D01*
X1001581Y760054D01*
X1000322Y757013D01*
X999892Y753750D01*
X1000322Y750487D01*
X1001581Y747446D01*
X1003585Y744835D01*
X1006196Y742831D01*
X1009237Y741572D01*
X1012500Y741142D01*
X1015763Y741572D01*
X1018804Y742831D01*
X1021415Y744835D01*
X1023419Y747446D01*
X1024678Y750487D01*
X1025108Y753750D01*
X1024678Y757013D01*
X1023419Y760054D01*
X1021415Y762665D01*
X1018804Y764669D01*
X1015763Y765928D01*
X1012500Y766358D01*
D02*
G37*
G36*
X664254Y740023D02*
X658920D01*
Y732070D01*
X673310D01*
X673163Y733187D01*
X672241Y735412D01*
X670776Y737322D01*
X668865Y738787D01*
X666641Y739709D01*
X664254Y740023D01*
D02*
G37*
G36*
X656380D02*
X651046D01*
X648659Y739709D01*
X646434Y738787D01*
X644524Y737322D01*
X643059Y735412D01*
X642137Y733187D01*
X641990Y732070D01*
X656380D01*
Y740023D01*
D02*
G37*
G36*
X740454Y739478D02*
X727246D01*
X725000Y739183D01*
X722907Y738316D01*
X721110Y736936D01*
X719730Y735139D01*
X718864Y733046D01*
X718568Y730800D01*
X718864Y728554D01*
X719730Y726461D01*
X721110Y724664D01*
X722907Y723284D01*
X725000Y722418D01*
X727246Y722122D01*
X740454D01*
X742700Y722418D01*
X744793Y723284D01*
X746590Y724664D01*
X747970Y726461D01*
X748837Y728554D01*
X749132Y730800D01*
X748837Y733046D01*
X747970Y735139D01*
X746590Y736936D01*
X744793Y738316D01*
X742700Y739183D01*
X740454Y739478D01*
D02*
G37*
G36*
X673310Y729530D02*
X658920D01*
Y721577D01*
X664254D01*
X666641Y721891D01*
X668865Y722813D01*
X670776Y724278D01*
X672241Y726189D01*
X673163Y728413D01*
X673310Y729530D01*
D02*
G37*
G36*
X656380D02*
X641990D01*
X642137Y728413D01*
X643059Y726189D01*
X644524Y724278D01*
X646434Y722813D01*
X648659Y721891D01*
X651046Y721577D01*
X656380D01*
Y729530D01*
D02*
G37*
G36*
X493520Y730522D02*
Y720320D01*
X503722D01*
X503493Y722063D01*
X502330Y724870D01*
X500480Y727280D01*
X498070Y729130D01*
X495262Y730293D01*
X493520Y730522D01*
D02*
G37*
G36*
X490980Y730522D02*
X489238Y730293D01*
X486430Y729130D01*
X484020Y727280D01*
X482170Y724870D01*
X481007Y722063D01*
X480778Y720320D01*
X490980D01*
Y730522D01*
D02*
G37*
G36*
X927020Y717955D02*
Y709770D01*
X935205D01*
X935044Y710991D01*
X934083Y713311D01*
X932554Y715304D01*
X930561Y716833D01*
X928240Y717794D01*
X927020Y717955D01*
D02*
G37*
G36*
X924480D02*
X923260Y717794D01*
X920939Y716833D01*
X918946Y715304D01*
X917417Y713311D01*
X916456Y710991D01*
X916295Y709770D01*
X924480D01*
Y717955D01*
D02*
G37*
G36*
X503722Y717780D02*
X493520D01*
Y707578D01*
X495262Y707807D01*
X498070Y708970D01*
X500480Y710820D01*
X502330Y713230D01*
X503493Y716038D01*
X503722Y717780D01*
D02*
G37*
G36*
X490980D02*
X480778D01*
X481007Y716038D01*
X482170Y713230D01*
X484020Y710820D01*
X486430Y708970D01*
X489238Y707807D01*
X490980Y707578D01*
Y717780D01*
D02*
G37*
G36*
X1025540Y716790D02*
X1013770D01*
Y705020D01*
X1025540D01*
Y716790D01*
D02*
G37*
G36*
X1011230D02*
X999460D01*
Y705020D01*
X1011230D01*
Y716790D01*
D02*
G37*
G36*
X935205Y707230D02*
X927020D01*
Y699045D01*
X928240Y699206D01*
X930561Y700167D01*
X932554Y701696D01*
X934083Y703689D01*
X935044Y706010D01*
X935205Y707230D01*
D02*
G37*
G36*
X924480D02*
X916295D01*
X916456Y706010D01*
X917417Y703689D01*
X918946Y701696D01*
X920939Y700167D01*
X923260Y699206D01*
X924480Y699045D01*
Y707230D01*
D02*
G37*
G36*
X1025540Y702480D02*
X1013770D01*
Y690710D01*
X1025540D01*
Y702480D01*
D02*
G37*
G36*
X1011230D02*
X999460D01*
Y690710D01*
X1011230D01*
Y702480D01*
D02*
G37*
G36*
X915040Y692040D02*
X909770D01*
Y685770D01*
X915040D01*
Y692040D01*
D02*
G37*
G36*
X907230D02*
X901960D01*
Y685770D01*
X907230D01*
Y692040D01*
D02*
G37*
G36*
X655790Y690540D02*
X650520D01*
Y684270D01*
X655790D01*
Y690540D01*
D02*
G37*
G36*
X647980D02*
X642710D01*
Y684270D01*
X647980D01*
Y690540D01*
D02*
G37*
G36*
X884750Y717500D02*
X866750D01*
Y699500D01*
X878261D01*
X886412Y691350D01*
Y686000D01*
X886500Y685557D01*
Y677500D01*
X898500D01*
Y691500D01*
X895588D01*
Y693250D01*
X895239Y695006D01*
X894244Y696494D01*
X884750Y705989D01*
Y717500D01*
D02*
G37*
G36*
X915040Y683230D02*
X909770D01*
Y676960D01*
X915040D01*
Y683230D01*
D02*
G37*
G36*
X907230D02*
X901960D01*
Y676960D01*
X907230D01*
Y683230D01*
D02*
G37*
G36*
X655790Y681730D02*
X650520D01*
Y675460D01*
X655790D01*
Y681730D01*
D02*
G37*
G36*
X647980D02*
X642710D01*
Y675460D01*
X647980D01*
Y681730D01*
D02*
G37*
G36*
X667020Y671705D02*
Y663520D01*
X675205D01*
X675044Y664741D01*
X674083Y667061D01*
X672554Y669054D01*
X670561Y670583D01*
X668240Y671544D01*
X667020Y671705D01*
D02*
G37*
G36*
X664480D02*
X663260Y671544D01*
X660939Y670583D01*
X658946Y669054D01*
X657417Y667061D01*
X656456Y664741D01*
X656295Y663520D01*
X664480D01*
Y671705D01*
D02*
G37*
G36*
X352020Y659679D02*
Y654520D01*
X357179D01*
X357122Y654957D01*
X356463Y656548D01*
X355414Y657914D01*
X354048Y658963D01*
X352457Y659622D01*
X352020Y659679D01*
D02*
G37*
G36*
X349480D02*
X349043Y659622D01*
X347452Y658963D01*
X346086Y657914D01*
X345037Y656548D01*
X344378Y654957D01*
X344321Y654520D01*
X349480D01*
Y659679D01*
D02*
G37*
G36*
X675205Y660980D02*
X667020D01*
Y652795D01*
X668240Y652956D01*
X670561Y653917D01*
X672554Y655446D01*
X674083Y657439D01*
X675044Y659760D01*
X675205Y660980D01*
D02*
G37*
G36*
X664480D02*
X656295D01*
X656456Y659760D01*
X657417Y657439D01*
X658946Y655446D01*
X660939Y653917D01*
X663260Y652956D01*
X664480Y652795D01*
Y660980D01*
D02*
G37*
G36*
X1012500Y657358D02*
X1009237Y656928D01*
X1006196Y655669D01*
X1003585Y653665D01*
X1001581Y651054D01*
X1000351Y648084D01*
X995250D01*
Y649500D01*
X981250D01*
Y631500D01*
X995250D01*
Y641416D01*
X1000351D01*
X1001581Y638446D01*
X1003585Y635835D01*
X1006196Y633831D01*
X1009237Y632572D01*
X1012500Y632142D01*
X1015763Y632572D01*
X1018804Y633831D01*
X1021415Y635835D01*
X1023419Y638446D01*
X1024678Y641487D01*
X1025108Y644750D01*
X1024678Y648013D01*
X1023419Y651054D01*
X1021415Y653665D01*
X1018804Y655669D01*
X1015763Y656928D01*
X1012500Y657358D01*
D02*
G37*
G36*
X206500Y711868D02*
X204159Y711402D01*
X202174Y710076D01*
X200848Y708091D01*
X200382Y705750D01*
X200848Y703409D01*
X202174Y701424D01*
X203166Y700762D01*
Y667750D01*
X203420Y666474D01*
X204142Y665393D01*
X229365Y640170D01*
X229132Y639000D01*
X229598Y636659D01*
X230924Y634674D01*
X232909Y633348D01*
X235250Y632882D01*
X237591Y633348D01*
X239576Y634674D01*
X240902Y636659D01*
X241367Y639000D01*
X240902Y641341D01*
X239576Y643326D01*
X237591Y644652D01*
X235250Y645117D01*
X234080Y644885D01*
X209834Y669131D01*
Y700762D01*
X210826Y701424D01*
X212152Y703409D01*
X212617Y705750D01*
X212152Y708091D01*
X210826Y710076D01*
X208841Y711402D01*
X206500Y711868D01*
D02*
G37*
G36*
X881520Y639209D02*
Y630520D01*
X890209D01*
X890032Y631871D01*
X889020Y634313D01*
X887411Y636411D01*
X885313Y638020D01*
X882871Y639032D01*
X881520Y639209D01*
D02*
G37*
G36*
X878980D02*
X877629Y639032D01*
X875187Y638020D01*
X873089Y636411D01*
X871480Y634313D01*
X870468Y631871D01*
X870291Y630520D01*
X878980D01*
Y639209D01*
D02*
G37*
G36*
X416000Y644500D02*
X397000D01*
Y625500D01*
X416000D01*
Y644500D01*
D02*
G37*
G36*
X228750Y623750D02*
X216750D01*
Y619584D01*
X209738D01*
X209076Y620576D01*
X207091Y621902D01*
X204750Y622368D01*
X202409Y621902D01*
X200424Y620576D01*
X199098Y618591D01*
X198633Y616250D01*
X199098Y613909D01*
X200424Y611924D01*
X202409Y610598D01*
X204750Y610132D01*
X207091Y610598D01*
X209076Y611924D01*
X209738Y612916D01*
X216750D01*
Y609750D01*
X228750D01*
Y623750D01*
D02*
G37*
G36*
X245290Y624290D02*
X240020D01*
Y618020D01*
X245290D01*
Y624290D01*
D02*
G37*
G36*
X237480D02*
X232210D01*
Y618020D01*
X237480D01*
Y624290D01*
D02*
G37*
G36*
X890209Y627980D02*
X870291D01*
X870468Y626629D01*
X871480Y624187D01*
X873089Y622089D01*
X874252Y621198D01*
Y619927D01*
X873089Y619036D01*
X871480Y616938D01*
X870468Y614496D01*
X870291Y613145D01*
X890209D01*
X890032Y614496D01*
X889020Y616938D01*
X887411Y619036D01*
X886248Y619927D01*
Y621198D01*
X887411Y622089D01*
X889020Y624187D01*
X890032Y626629D01*
X890209Y627980D01*
D02*
G37*
G36*
X245290Y615480D02*
X240020D01*
Y609210D01*
X245290D01*
Y615480D01*
D02*
G37*
G36*
X237480D02*
X232210D01*
Y609210D01*
X237480D01*
Y615480D01*
D02*
G37*
G36*
X1012500Y607358D02*
X1009237Y606928D01*
X1006196Y605669D01*
X1003585Y603665D01*
X1001581Y601054D01*
X1000351Y598084D01*
X995250D01*
Y604250D01*
X981250D01*
Y586250D01*
X995250D01*
Y591416D01*
X1000351D01*
X1001581Y588446D01*
X1003585Y585835D01*
X1006196Y583831D01*
X1009237Y582572D01*
X1012500Y582142D01*
X1015763Y582572D01*
X1018804Y583831D01*
X1021415Y585835D01*
X1023419Y588446D01*
X1024678Y591487D01*
X1025108Y594750D01*
X1024678Y598013D01*
X1023419Y601054D01*
X1021415Y603665D01*
X1018804Y605669D01*
X1015763Y606928D01*
X1012500Y607358D01*
D02*
G37*
G36*
X890209Y610605D02*
X870291D01*
X870468Y609254D01*
X871480Y606812D01*
X873089Y604714D01*
X874252Y603823D01*
Y602552D01*
X873089Y601661D01*
X871480Y599563D01*
X870468Y597121D01*
X870291Y595770D01*
X890209D01*
X890032Y597121D01*
X889020Y599563D01*
X887411Y601661D01*
X886248Y602552D01*
Y603823D01*
X887411Y604714D01*
X889020Y606812D01*
X890032Y609254D01*
X890209Y610605D01*
D02*
G37*
G36*
Y593230D02*
X881520D01*
Y584541D01*
X882871Y584718D01*
X885313Y585730D01*
X887411Y587339D01*
X889020Y589437D01*
X890032Y591879D01*
X890209Y593230D01*
D02*
G37*
G36*
X878980D02*
X870291D01*
X870468Y591879D01*
X871480Y589437D01*
X873089Y587339D01*
X875187Y585730D01*
X877629Y584718D01*
X878980Y584541D01*
Y593230D01*
D02*
G37*
G36*
X663630Y593815D02*
X652835D01*
Y583020D01*
X663630D01*
Y593815D01*
D02*
G37*
G36*
X676965Y580480D02*
X666170D01*
Y569685D01*
X676965D01*
Y580480D01*
D02*
G37*
G36*
X663630D02*
X652835D01*
Y569685D01*
X663630D01*
Y580480D01*
D02*
G37*
G36*
X442000Y568250D02*
X423000D01*
Y549250D01*
X442000D01*
Y568250D01*
D02*
G37*
G36*
X1012500Y557358D02*
X1009237Y556928D01*
X1006196Y555669D01*
X1003585Y553665D01*
X1001581Y551054D01*
X1000351Y548084D01*
X995250D01*
Y552500D01*
X981250D01*
Y534500D01*
X995250D01*
Y541416D01*
X1000351D01*
X1001581Y538446D01*
X1003585Y535835D01*
X1006196Y533831D01*
X1009237Y532572D01*
X1012500Y532142D01*
X1015763Y532572D01*
X1018804Y533831D01*
X1021415Y535835D01*
X1023419Y538446D01*
X1024678Y541487D01*
X1025108Y544750D01*
X1024678Y548013D01*
X1023419Y551054D01*
X1021415Y553665D01*
X1018804Y555669D01*
X1015763Y556928D01*
X1012500Y557358D01*
D02*
G37*
G36*
X40490Y565378D02*
X38149Y564912D01*
X36164Y563586D01*
X34838Y561601D01*
X34372Y559260D01*
X34838Y556919D01*
X36164Y554934D01*
X38149Y553608D01*
X40490Y553142D01*
X42831Y553608D01*
X44816Y554934D01*
X44999Y555209D01*
X52076D01*
X59142Y548143D01*
X58332Y547157D01*
X57591Y547652D01*
X55250Y548117D01*
X52909Y547652D01*
X50924Y546326D01*
X49598Y544341D01*
X49132Y542000D01*
X49598Y539659D01*
X50924Y537674D01*
X52909Y536348D01*
X52944Y536341D01*
X64416Y524869D01*
Y433988D01*
X63424Y433326D01*
X62359Y431731D01*
X61089Y432116D01*
Y504444D01*
X62402Y506409D01*
X62867Y508750D01*
X62402Y511091D01*
X61076Y513076D01*
X59091Y514402D01*
X56750Y514868D01*
X54409Y514402D01*
X52424Y513076D01*
X51098Y511091D01*
X50633Y508750D01*
X51098Y506409D01*
X52424Y504424D01*
X53951Y503404D01*
Y451123D01*
X52681Y450497D01*
X51311Y451548D01*
X49000Y452505D01*
X46520Y452832D01*
X44040Y452505D01*
X41729Y451548D01*
X39745Y450025D01*
X38222Y448041D01*
X37264Y445730D01*
X37154Y444893D01*
X8506Y416244D01*
X7511Y414756D01*
X7162Y413000D01*
Y157000D01*
X7511Y155244D01*
X8506Y153756D01*
X126156Y36106D01*
X127644Y35111D01*
X129400Y34762D01*
X171749D01*
X171943Y34294D01*
X173550Y32200D01*
X175644Y30593D01*
X178083Y29583D01*
X180002Y29330D01*
X179919Y28060D01*
X103925D01*
X49771Y82214D01*
X49506Y84230D01*
X48548Y86541D01*
X47025Y88525D01*
X45041Y90048D01*
X42730Y91005D01*
X40250Y91332D01*
X37770Y91005D01*
X35459Y90048D01*
X33475Y88525D01*
X31952Y86541D01*
X30995Y84230D01*
X30668Y81750D01*
X30995Y79270D01*
X31952Y76959D01*
X33475Y74975D01*
X35459Y73452D01*
X37770Y72495D01*
X39786Y72229D01*
X96008Y16008D01*
X97470Y14885D01*
X99173Y14180D01*
X101000Y13940D01*
X213150D01*
X214977Y14180D01*
X216680Y14885D01*
X218142Y16008D01*
X231388Y29253D01*
X231500Y29239D01*
X234117Y29583D01*
X236556Y30593D01*
X238650Y32200D01*
X240257Y34294D01*
X241267Y36733D01*
X241611Y39350D01*
X241267Y41967D01*
X240257Y44406D01*
X238650Y46500D01*
X236556Y48107D01*
X234117Y49117D01*
X231500Y49461D01*
X228883Y49117D01*
X226444Y48107D01*
X224350Y46500D01*
X222743Y44406D01*
X221733Y41967D01*
X221388Y39350D01*
X221403Y39238D01*
X216070Y33905D01*
X214994Y34625D01*
X215867Y36733D01*
X216211Y39350D01*
X215867Y41967D01*
X214857Y44406D01*
X213250Y46500D01*
X211156Y48107D01*
X208717Y49117D01*
X206100Y49461D01*
X203483Y49117D01*
X201044Y48107D01*
X198950Y46500D01*
X197343Y44406D01*
X196333Y41967D01*
X195989Y39350D01*
X196333Y36733D01*
X197343Y34294D01*
X198950Y32200D01*
X201044Y30593D01*
X203483Y29583D01*
X205402Y29330D01*
X205319Y28060D01*
X181481D01*
X181398Y29330D01*
X183317Y29583D01*
X185756Y30593D01*
X187850Y32200D01*
X189457Y34294D01*
X190467Y36733D01*
X190812Y39350D01*
X190467Y41967D01*
X189457Y44406D01*
X187850Y46500D01*
X185756Y48107D01*
X183317Y49117D01*
X180700Y49461D01*
X178083Y49117D01*
X175644Y48107D01*
X173550Y46500D01*
X171943Y44406D01*
X171749Y43938D01*
X131300D01*
X16338Y158900D01*
Y365862D01*
X17608Y366488D01*
X18959Y365452D01*
X21270Y364495D01*
X23750Y364168D01*
X26230Y364495D01*
X28541Y365452D01*
X30525Y366975D01*
X32048Y368959D01*
X33005Y371270D01*
X33271Y373286D01*
X55896Y395911D01*
X64528D01*
X66356Y396152D01*
X68058Y396857D01*
X69521Y397979D01*
X98742Y427201D01*
X99865Y428663D01*
X100570Y430366D01*
X100810Y432194D01*
Y469846D01*
X102048Y471459D01*
X103006Y473770D01*
X103332Y476250D01*
X103006Y478730D01*
X102048Y481041D01*
X100526Y483025D01*
X98541Y484548D01*
X96230Y485505D01*
X93750Y485832D01*
X91270Y485505D01*
X88959Y484548D01*
X86975Y483025D01*
X85452Y481041D01*
X84494Y478730D01*
X84168Y476250D01*
X84494Y473770D01*
X85452Y471459D01*
X86690Y469846D01*
Y442370D01*
X85420Y442245D01*
X85152Y443591D01*
X83826Y445576D01*
X82834Y446238D01*
Y532500D01*
X82580Y533776D01*
X81858Y534858D01*
X55814Y560901D01*
X54733Y561623D01*
X53457Y561877D01*
X45957D01*
X44816Y563586D01*
X42831Y564912D01*
X40490Y565378D01*
D02*
G37*
G36*
X322020Y531679D02*
Y526520D01*
X327179D01*
X327122Y526957D01*
X326463Y528548D01*
X325414Y529914D01*
X324048Y530963D01*
X322457Y531622D01*
X322020Y531679D01*
D02*
G37*
G36*
X319480D02*
X319043Y531622D01*
X317452Y530963D01*
X316086Y529914D01*
X315037Y528548D01*
X314378Y526957D01*
X314321Y526520D01*
X319480D01*
Y531679D01*
D02*
G37*
G36*
X327179Y523980D02*
X322020D01*
Y518821D01*
X322457Y518878D01*
X324048Y519537D01*
X325414Y520586D01*
X326463Y521952D01*
X327122Y523543D01*
X327179Y523980D01*
D02*
G37*
G36*
X319480D02*
X314321D01*
X314378Y523543D01*
X315037Y521952D01*
X316086Y520586D01*
X317452Y519537D01*
X319043Y518878D01*
X319480Y518821D01*
Y523980D01*
D02*
G37*
G36*
X441500Y535250D02*
X422500D01*
Y516250D01*
X441500D01*
Y535250D01*
D02*
G37*
G36*
X467000Y515868D02*
X464659Y515402D01*
X462674Y514076D01*
X461348Y512091D01*
X460882Y509750D01*
X461348Y507409D01*
X461780Y506762D01*
X460794Y505953D01*
X457139Y509608D01*
X456057Y510330D01*
X454781Y510584D01*
X383781D01*
X382505Y510330D01*
X381424Y509608D01*
X379774Y507958D01*
X378576Y508076D01*
X376591Y509402D01*
X374250Y509868D01*
X371909Y509402D01*
X369924Y508076D01*
X368598Y506091D01*
X368133Y503750D01*
X368598Y501409D01*
X369924Y499424D01*
X371909Y498098D01*
X374250Y497632D01*
X376591Y498098D01*
X378576Y499424D01*
X379238Y500416D01*
X380281D01*
X381557Y500670D01*
X382639Y501393D01*
X385162Y503916D01*
X453400D01*
X462588Y494729D01*
X462219Y493513D01*
X461659Y493402D01*
X459674Y492076D01*
X459012Y491084D01*
X366750D01*
X365474Y490830D01*
X364393Y490108D01*
X358790Y484505D01*
X358067Y483423D01*
X357813Y482147D01*
Y478298D01*
X355670Y476155D01*
X354500Y476387D01*
X352159Y475922D01*
X350174Y474596D01*
X348848Y472611D01*
X348382Y470270D01*
X348848Y467929D01*
X350174Y465944D01*
X352159Y464618D01*
X354500Y464152D01*
X356841Y464618D01*
X358826Y465944D01*
X360152Y467929D01*
X360617Y470270D01*
X360385Y471440D01*
X363505Y474560D01*
X364228Y475642D01*
X364481Y476917D01*
Y479917D01*
X364640Y480012D01*
X364973Y479941D01*
X365967Y479326D01*
X366348Y477409D01*
X367674Y475424D01*
X369659Y474098D01*
X372000Y473633D01*
X374341Y474098D01*
X375747Y475038D01*
X397142Y453643D01*
X398224Y452920D01*
X399500Y452666D01*
X462762D01*
X463424Y451674D01*
X465409Y450348D01*
X467750Y449883D01*
X470091Y450348D01*
X472076Y451674D01*
X473402Y453659D01*
X473867Y456000D01*
X473402Y458341D01*
X472076Y460326D01*
X470091Y461652D01*
X467750Y462118D01*
X465409Y461652D01*
X463424Y460326D01*
X462762Y459334D01*
X400881D01*
X378107Y482108D01*
X377265Y482671D01*
X376947Y483146D01*
X377626Y484416D01*
X459012D01*
X459674Y483424D01*
X461659Y482098D01*
X463538Y481724D01*
X464145Y480645D01*
X464180Y480400D01*
X463920Y480010D01*
X463666Y478734D01*
Y474488D01*
X462674Y473826D01*
X461348Y471841D01*
X460882Y469500D01*
X461348Y467159D01*
X462674Y465174D01*
X464659Y463848D01*
X467000Y463382D01*
X469341Y463848D01*
X471326Y465174D01*
X472652Y467159D01*
X473117Y469500D01*
X472652Y471841D01*
X471326Y473826D01*
X470334Y474488D01*
Y477353D01*
X473628Y480647D01*
X474350Y481729D01*
X474604Y483004D01*
Y490761D01*
X474350Y492037D01*
X473628Y493119D01*
X463203Y503544D01*
X464012Y504530D01*
X464659Y504098D01*
X467000Y503633D01*
X469341Y504098D01*
X471326Y505424D01*
X471654Y505916D01*
X497928D01*
X498924Y504424D01*
X500909Y503098D01*
X503250Y502632D01*
X505591Y503098D01*
X507576Y504424D01*
X508902Y506409D01*
X509367Y508750D01*
X508902Y511091D01*
X507576Y513076D01*
X505591Y514402D01*
X503250Y514868D01*
X500909Y514402D01*
X498924Y513076D01*
X498596Y512584D01*
X472323D01*
X471326Y514076D01*
X469341Y515402D01*
X467000Y515868D01*
D02*
G37*
G36*
X1012500Y507358D02*
X1009237Y506928D01*
X1006196Y505669D01*
X1003585Y503665D01*
X1001581Y501054D01*
X1000351Y498084D01*
X995250D01*
Y501750D01*
X981250D01*
Y483750D01*
X995250D01*
Y491416D01*
X1000351D01*
X1001581Y488446D01*
X1003585Y485835D01*
X1006196Y483831D01*
X1009237Y482572D01*
X1012500Y482142D01*
X1015763Y482572D01*
X1018804Y483831D01*
X1021415Y485835D01*
X1023419Y488446D01*
X1024678Y491487D01*
X1025108Y494750D01*
X1024678Y498013D01*
X1023419Y501054D01*
X1021415Y503665D01*
X1018804Y505669D01*
X1015763Y506928D01*
X1012500Y507358D01*
D02*
G37*
G36*
X147750Y516750D02*
X128750D01*
Y497750D01*
X147750D01*
Y516750D01*
D02*
G37*
G36*
X108250Y510832D02*
X105770Y510505D01*
X103459Y509548D01*
X101475Y508026D01*
X99952Y506041D01*
X98995Y503730D01*
X98668Y501250D01*
X98995Y498770D01*
X99952Y496459D01*
X101475Y494475D01*
X103459Y492952D01*
X105770Y491995D01*
X108250Y491668D01*
X110730Y491995D01*
X110933Y492079D01*
X117006Y486006D01*
X118494Y485011D01*
X120250Y484662D01*
X215206D01*
X215926Y483392D01*
X215891Y483334D01*
X211500D01*
X210224Y483080D01*
X209142Y482357D01*
X171673Y444888D01*
X170500Y445374D01*
Y445750D01*
X151500D01*
Y426750D01*
X170500D01*
Y435988D01*
X170822D01*
X172098Y436242D01*
X173180Y436965D01*
X194616Y458401D01*
X195787Y457776D01*
X195632Y457000D01*
X196098Y454659D01*
X197424Y452674D01*
X199409Y451348D01*
X201750Y450882D01*
X204091Y451348D01*
X206076Y452674D01*
X207402Y454659D01*
X207868Y457000D01*
X207402Y459341D01*
X206076Y461326D01*
X204091Y462652D01*
X201750Y463117D01*
X200974Y462963D01*
X200349Y464134D01*
X212881Y476666D01*
X217262D01*
X217924Y475674D01*
X219909Y474348D01*
X222250Y473882D01*
X224591Y474348D01*
X226576Y475674D01*
X227902Y477659D01*
X228368Y480000D01*
X227902Y482341D01*
X227200Y483392D01*
X227879Y484662D01*
X300100D01*
X314324Y470437D01*
X313515Y469451D01*
X312091Y470402D01*
X309750Y470868D01*
X307409Y470402D01*
X305424Y469076D01*
X304098Y467091D01*
X303633Y464750D01*
X304098Y462409D01*
X305424Y460424D01*
X307409Y459098D01*
X309750Y458633D01*
X310920Y458865D01*
X336666Y433119D01*
Y403488D01*
X335674Y402826D01*
X334348Y400841D01*
X333882Y398500D01*
X334348Y396159D01*
X335674Y394174D01*
X337659Y392848D01*
X340000Y392383D01*
X342341Y392848D01*
X344326Y394174D01*
X345652Y396159D01*
X346118Y398500D01*
X345652Y400841D01*
X344326Y402826D01*
X343334Y403488D01*
Y434500D01*
X343080Y435776D01*
X342358Y436857D01*
X315635Y463580D01*
X315868Y464750D01*
X315402Y467091D01*
X314451Y468515D01*
X315437Y469324D01*
X350256Y434506D01*
X351744Y433511D01*
X353500Y433162D01*
X469000D01*
X470756Y433511D01*
X472244Y434506D01*
X507650Y469912D01*
X629868D01*
X629952Y469709D01*
X631475Y467724D01*
X633459Y466202D01*
X635770Y465244D01*
X638250Y464918D01*
X640730Y465244D01*
X643041Y466202D01*
X645025Y467724D01*
X646548Y469709D01*
X647505Y472020D01*
X647832Y474500D01*
X647505Y476980D01*
X646548Y479291D01*
X645025Y481275D01*
X643041Y482798D01*
X640730Y483755D01*
X638250Y484082D01*
X635770Y483755D01*
X633459Y482798D01*
X631475Y481275D01*
X629952Y479291D01*
X629868Y479088D01*
X505750D01*
X503994Y478739D01*
X502506Y477744D01*
X467099Y442338D01*
X355401D01*
X305244Y492494D01*
X303756Y493489D01*
X302000Y493838D01*
X122150D01*
X117421Y498567D01*
X117506Y498770D01*
X117832Y501250D01*
X117506Y503730D01*
X116548Y506041D01*
X115025Y508026D01*
X113041Y509548D01*
X110730Y510505D01*
X108250Y510832D01*
D02*
G37*
G36*
X1012500Y457358D02*
X1009237Y456928D01*
X1006196Y455669D01*
X1003585Y453665D01*
X1001581Y451054D01*
X1000351Y448084D01*
X995250D01*
Y450750D01*
X981250D01*
Y432750D01*
X995250D01*
Y441416D01*
X1000351D01*
X1001581Y438446D01*
X1003585Y435835D01*
X1006196Y433831D01*
X1009237Y432572D01*
X1012500Y432142D01*
X1015763Y432572D01*
X1018804Y433831D01*
X1021415Y435835D01*
X1023419Y438446D01*
X1024678Y441487D01*
X1025108Y444750D01*
X1024678Y448013D01*
X1023419Y451054D01*
X1021415Y453665D01*
X1018804Y455669D01*
X1015763Y456928D01*
X1012500Y457358D01*
D02*
G37*
G36*
X232000Y465750D02*
X213000D01*
Y446750D01*
X232000D01*
Y465750D01*
D02*
G37*
G36*
X637250Y444582D02*
X634770Y444255D01*
X632459Y443298D01*
X630475Y441775D01*
X628952Y439791D01*
X628348Y438334D01*
X514988D01*
X514326Y439326D01*
X512341Y440652D01*
X510000Y441118D01*
X507659Y440652D01*
X505674Y439326D01*
X504348Y437341D01*
X503882Y435000D01*
X504348Y432659D01*
X505674Y430674D01*
X507659Y429348D01*
X510000Y428882D01*
X512341Y429348D01*
X514326Y430674D01*
X514988Y431666D01*
X628348D01*
X628952Y430209D01*
X630475Y428224D01*
X632459Y426702D01*
X634770Y425745D01*
X637250Y425418D01*
X639730Y425745D01*
X642041Y426702D01*
X644025Y428224D01*
X645548Y430209D01*
X646152Y431666D01*
X680600D01*
Y426680D01*
X693700D01*
Y442880D01*
X680600D01*
Y438334D01*
X646152D01*
X645548Y439791D01*
X644025Y441775D01*
X642041Y443298D01*
X639730Y444255D01*
X637250Y444582D01*
D02*
G37*
G36*
X726940Y443420D02*
X721120D01*
Y436050D01*
X726940D01*
Y443420D01*
D02*
G37*
G36*
X718580D02*
X712760D01*
Y436050D01*
X718580D01*
Y443420D01*
D02*
G37*
G36*
X275250Y450117D02*
X272909Y449652D01*
X270924Y448326D01*
X269598Y446341D01*
X269132Y444000D01*
X269598Y441659D01*
X270924Y439674D01*
X272909Y438348D01*
X275250Y437882D01*
X276420Y438115D01*
X280582Y433952D01*
X281664Y433230D01*
X282940Y432976D01*
X285220D01*
X286424Y431174D01*
X288409Y429848D01*
X290750Y429383D01*
X293091Y429848D01*
X295076Y431174D01*
X296402Y433159D01*
X296868Y435500D01*
X296402Y437841D01*
X295076Y439826D01*
X293091Y441152D01*
X290750Y441618D01*
X288409Y441152D01*
X286424Y439826D01*
X286303Y439644D01*
X284321D01*
X281135Y442830D01*
X281367Y444000D01*
X280902Y446341D01*
X279576Y448326D01*
X277591Y449652D01*
X275250Y450117D01*
D02*
G37*
G36*
X726940Y433510D02*
X721120D01*
Y426140D01*
X726940D01*
Y433510D01*
D02*
G37*
G36*
X718580D02*
X712760D01*
Y426140D01*
X718580D01*
Y433510D01*
D02*
G37*
G36*
X310250Y430868D02*
X307909Y430402D01*
X305924Y429076D01*
X304598Y427091D01*
X304132Y424750D01*
X304365Y423580D01*
X268143Y387357D01*
X267420Y386276D01*
X267166Y385000D01*
Y300238D01*
X266174Y299576D01*
X264848Y297591D01*
X264382Y295250D01*
X264848Y292909D01*
X266174Y290924D01*
X268159Y289598D01*
X270500Y289132D01*
X272841Y289598D01*
X274826Y290924D01*
X276152Y292909D01*
X276618Y295250D01*
X276152Y297591D01*
X274826Y299576D01*
X273834Y300238D01*
Y383619D01*
X309080Y418865D01*
X310250Y418633D01*
X312591Y419098D01*
X314576Y420424D01*
X315902Y422409D01*
X316367Y424750D01*
X315902Y427091D01*
X314576Y429076D01*
X312591Y430402D01*
X310250Y430868D01*
D02*
G37*
G36*
X633750Y418082D02*
X631270Y417756D01*
X628959Y416798D01*
X626974Y415275D01*
X625452Y413291D01*
X624848Y411834D01*
X514488D01*
X513826Y412826D01*
X511841Y414152D01*
X509500Y414618D01*
X507159Y414152D01*
X505174Y412826D01*
X503848Y410841D01*
X503382Y408500D01*
X503848Y406159D01*
X505174Y404174D01*
X507159Y402848D01*
X509500Y402383D01*
X511841Y402848D01*
X513826Y404174D01*
X514488Y405166D01*
X528990D01*
X529358Y403951D01*
X529234Y403868D01*
X527908Y401883D01*
X527443Y399542D01*
X527908Y397201D01*
X528446Y396396D01*
X528418Y396256D01*
Y395950D01*
X528672Y394674D01*
X529394Y393592D01*
X541094Y381893D01*
X542176Y381170D01*
X543452Y380916D01*
X627348D01*
X627952Y379459D01*
X629475Y377475D01*
X631459Y375952D01*
X633770Y374995D01*
X636250Y374668D01*
X638730Y374995D01*
X641041Y375952D01*
X643026Y377475D01*
X644548Y379459D01*
X645152Y380916D01*
X681450D01*
Y375400D01*
X694550D01*
Y391600D01*
X681450D01*
Y387584D01*
X645152D01*
X644548Y389041D01*
X643026Y391026D01*
X641041Y392548D01*
X638730Y393506D01*
X636250Y393832D01*
X633770Y393506D01*
X631459Y392548D01*
X629475Y391026D01*
X627952Y389041D01*
X627348Y387584D01*
X544833D01*
X537824Y394593D01*
X537886Y395216D01*
X539212Y397201D01*
X539678Y399542D01*
X539212Y401883D01*
X537886Y403868D01*
X537762Y403951D01*
X538130Y405166D01*
X624848D01*
X625452Y403709D01*
X626974Y401725D01*
X628959Y400202D01*
X631270Y399244D01*
X633750Y398918D01*
X636230Y399244D01*
X638541Y400202D01*
X640525Y401725D01*
X642048Y403709D01*
X642652Y405166D01*
X680850D01*
Y401040D01*
X693950D01*
Y417240D01*
X680850D01*
Y411834D01*
X642652D01*
X642048Y413291D01*
X640525Y415275D01*
X638541Y416798D01*
X636230Y417756D01*
X633750Y418082D01*
D02*
G37*
G36*
X727190Y417780D02*
X721370D01*
Y410410D01*
X727190D01*
Y417780D01*
D02*
G37*
G36*
X718830D02*
X713010D01*
Y410410D01*
X718830D01*
Y417780D01*
D02*
G37*
G36*
X727190Y407870D02*
X721370D01*
Y400500D01*
X727190D01*
Y407870D01*
D02*
G37*
G36*
X718830D02*
X713010D01*
Y400500D01*
X718830D01*
Y407870D01*
D02*
G37*
G36*
X1012500Y407358D02*
X1009237Y406928D01*
X1006196Y405669D01*
X1003585Y403665D01*
X1001581Y401054D01*
X1000351Y398084D01*
X995250D01*
Y402000D01*
X981250D01*
Y384000D01*
X995250D01*
Y391416D01*
X1000351D01*
X1001581Y388446D01*
X1003585Y385835D01*
X1006196Y383831D01*
X1009237Y382572D01*
X1012500Y382142D01*
X1015763Y382572D01*
X1018804Y383831D01*
X1021415Y385835D01*
X1023419Y388446D01*
X1024678Y391487D01*
X1025108Y394750D01*
X1024678Y398013D01*
X1023419Y401054D01*
X1021415Y403665D01*
X1018804Y405669D01*
X1015763Y406928D01*
X1012500Y407358D01*
D02*
G37*
G36*
X727790Y392140D02*
X721970D01*
Y384770D01*
X727790D01*
Y392140D01*
D02*
G37*
G36*
X719430D02*
X713610D01*
Y384770D01*
X719430D01*
Y392140D01*
D02*
G37*
G36*
X727790Y382230D02*
X721970D01*
Y374860D01*
X727790D01*
Y382230D01*
D02*
G37*
G36*
X719430D02*
X713610D01*
Y374860D01*
X719430D01*
Y382230D01*
D02*
G37*
G36*
X120750Y370617D02*
X118409Y370152D01*
X116424Y368826D01*
X115350Y367219D01*
X72811D01*
X72206Y368006D01*
X70682Y369176D01*
X68906Y369912D01*
X67000Y370163D01*
X65094Y369912D01*
X63319Y369176D01*
X61794Y368006D01*
X60623Y366482D01*
X59888Y364706D01*
X59637Y362800D01*
X59888Y360894D01*
X60623Y359118D01*
X61794Y357594D01*
X63319Y356423D01*
X65094Y355688D01*
X67000Y355437D01*
X68906Y355688D01*
X70682Y356423D01*
X72206Y357594D01*
X73376Y359118D01*
X73775Y360081D01*
X116563D01*
X118409Y358848D01*
X120750Y358382D01*
X123091Y358848D01*
X125076Y360174D01*
X126402Y362159D01*
X126868Y364500D01*
X126402Y366841D01*
X125076Y368826D01*
X123091Y370152D01*
X120750Y370617D01*
D02*
G37*
G36*
X750520Y365709D02*
Y357020D01*
X759209D01*
X759032Y358371D01*
X758020Y360813D01*
X756411Y362911D01*
X754313Y364520D01*
X751871Y365532D01*
X750520Y365709D01*
D02*
G37*
G36*
X747980D02*
X746629Y365532D01*
X744187Y364520D01*
X742089Y362911D01*
X740480Y360813D01*
X739468Y358371D01*
X739291Y357020D01*
X747980D01*
Y365709D01*
D02*
G37*
G36*
X1012500Y357358D02*
X1009237Y356928D01*
X1006196Y355669D01*
X1003585Y353665D01*
X1001581Y351054D01*
X1000351Y348084D01*
X995250D01*
Y354750D01*
X981250D01*
Y336750D01*
X995250D01*
Y341416D01*
X1000351D01*
X1001581Y338446D01*
X1003585Y335835D01*
X1006196Y333831D01*
X1009237Y332572D01*
X1012500Y332142D01*
X1015763Y332572D01*
X1018804Y333831D01*
X1021415Y335835D01*
X1023419Y338446D01*
X1024678Y341487D01*
X1025108Y344750D01*
X1024678Y348013D01*
X1023419Y351054D01*
X1021415Y353665D01*
X1018804Y355669D01*
X1015763Y356928D01*
X1012500Y357358D01*
D02*
G37*
G36*
X759209Y354480D02*
X750520D01*
Y345791D01*
X751871Y345968D01*
X754313Y346980D01*
X756411Y348589D01*
X758020Y350687D01*
X759032Y353129D01*
X759209Y354480D01*
D02*
G37*
G36*
X747980D02*
X739291D01*
X739468Y353129D01*
X740480Y350687D01*
X742089Y348589D01*
X744187Y346980D01*
X746629Y345968D01*
X747980Y345791D01*
Y354480D01*
D02*
G37*
G36*
X336270Y333179D02*
Y328020D01*
X341429D01*
X341372Y328457D01*
X340713Y330048D01*
X339664Y331414D01*
X338298Y332463D01*
X336707Y333122D01*
X336270Y333179D01*
D02*
G37*
G36*
X333730D02*
X333293Y333122D01*
X331702Y332463D01*
X330336Y331414D01*
X329287Y330048D01*
X328628Y328457D01*
X328571Y328020D01*
X333730D01*
Y333179D01*
D02*
G37*
G36*
X152000Y370163D02*
X150094Y369912D01*
X148319Y369176D01*
X146794Y368006D01*
X145624Y366482D01*
X144888Y364706D01*
X144637Y362800D01*
X144888Y360894D01*
X145624Y359118D01*
X146794Y357594D01*
X148319Y356423D01*
X148476Y356358D01*
X148224Y355088D01*
X133750D01*
X131994Y354739D01*
X130506Y353744D01*
X118750Y341988D01*
X72681D01*
X72206Y342606D01*
X70682Y343777D01*
X68906Y344512D01*
X67000Y344763D01*
X65094Y344512D01*
X63319Y343777D01*
X61794Y342606D01*
X60623Y341082D01*
X59888Y339306D01*
X59637Y337400D01*
X59888Y335494D01*
X59935Y335381D01*
X53727Y329173D01*
X52953Y328016D01*
X52681Y326650D01*
Y276007D01*
X52953Y274642D01*
X53727Y273484D01*
X55484Y271727D01*
X56642Y270953D01*
X58007Y270681D01*
X70022D01*
X77181Y263522D01*
Y181978D01*
X71522Y176319D01*
X60750D01*
X59384Y176047D01*
X58227Y175273D01*
X54601Y171648D01*
X53750Y172000D01*
Y172000D01*
X35750D01*
Y158000D01*
X53750D01*
Y162924D01*
X54493D01*
X55858Y163196D01*
X57016Y163969D01*
X62228Y169181D01*
X73000D01*
X74366Y169453D01*
X75523Y170227D01*
X83273Y177977D01*
X84047Y179134D01*
X84319Y180500D01*
Y262907D01*
X85492Y263393D01*
X125416Y223469D01*
Y118250D01*
X125670Y116974D01*
X126392Y115892D01*
X156115Y86170D01*
X155883Y85000D01*
X156348Y82659D01*
X157674Y80674D01*
X159659Y79348D01*
X162000Y78882D01*
X164341Y79348D01*
X166326Y80674D01*
X167652Y82659D01*
X168118Y85000D01*
X167777Y86712D01*
X168948Y87337D01*
X170142Y86143D01*
X171224Y85420D01*
X172500Y85166D01*
X201619D01*
X202766Y84019D01*
Y74220D01*
X201044Y73507D01*
X198950Y71900D01*
X197343Y69806D01*
X196333Y67367D01*
X195989Y64750D01*
X196333Y62133D01*
X197343Y59694D01*
X198950Y57600D01*
X201044Y55993D01*
X203483Y54983D01*
X206100Y54639D01*
X208717Y54983D01*
X211156Y55993D01*
X213250Y57600D01*
X214857Y59694D01*
X215867Y62133D01*
X216211Y64750D01*
X215867Y67367D01*
X214857Y69806D01*
X213250Y71900D01*
X211156Y73507D01*
X209434Y74220D01*
Y85400D01*
X209180Y86676D01*
X208458Y87758D01*
X205357Y90857D01*
X204276Y91580D01*
X203000Y91834D01*
X173881D01*
X168475Y97240D01*
X169100Y98411D01*
X170500Y98132D01*
X172841Y98598D01*
X174826Y99924D01*
X176152Y101909D01*
X176618Y104250D01*
X176152Y106591D01*
X174826Y108576D01*
X172841Y109902D01*
X170500Y110367D01*
X168159Y109902D01*
X166174Y108576D01*
X164848Y106591D01*
X164722Y105959D01*
X159756D01*
X140834Y124881D01*
Y241500D01*
X140580Y242776D01*
X139858Y243858D01*
X73968Y309747D01*
X74112Y310094D01*
X74363Y312000D01*
X74112Y313906D01*
X73376Y315681D01*
X72206Y317206D01*
X70682Y318377D01*
X68906Y319112D01*
X67000Y319363D01*
X65094Y319112D01*
X63319Y318377D01*
X61794Y317206D01*
X61089Y316288D01*
X59819Y316719D01*
Y325172D01*
X64981Y330335D01*
X65094Y330288D01*
X67000Y330037D01*
X68906Y330288D01*
X70682Y331023D01*
X72206Y332194D01*
X72681Y332812D01*
X120650D01*
X122406Y333161D01*
X123894Y334156D01*
X135651Y345912D01*
X150997D01*
X151080Y344642D01*
X150094Y344512D01*
X148319Y343777D01*
X146794Y342606D01*
X145624Y341082D01*
X144888Y339306D01*
X144637Y337400D01*
X144888Y335494D01*
X145624Y333718D01*
X146794Y332194D01*
X148319Y331023D01*
X150094Y330288D01*
X152000Y330037D01*
X153906Y330288D01*
X154019Y330335D01*
X171431Y312922D01*
Y299202D01*
X170161Y298817D01*
X170023Y299023D01*
X159065Y309981D01*
X159112Y310094D01*
X159363Y312000D01*
X159112Y313906D01*
X158377Y315681D01*
X157206Y317206D01*
X155681Y318377D01*
X153906Y319112D01*
X152000Y319363D01*
X150094Y319112D01*
X148319Y318377D01*
X146794Y317206D01*
X145624Y315681D01*
X144888Y313906D01*
X144637Y312000D01*
X144888Y310094D01*
X145624Y308319D01*
X146794Y306794D01*
X148319Y305623D01*
X150094Y304888D01*
X152000Y304637D01*
X153906Y304888D01*
X154019Y304935D01*
X163931Y295022D01*
Y280000D01*
X163953Y279889D01*
X162783Y279264D01*
X158597Y283450D01*
X159112Y284694D01*
X159363Y286600D01*
X159112Y288506D01*
X158377Y290282D01*
X157206Y291806D01*
X155681Y292976D01*
X153906Y293712D01*
X152000Y293963D01*
X150094Y293712D01*
X148319Y292976D01*
X146794Y291806D01*
X145624Y290282D01*
X144888Y288506D01*
X144637Y286600D01*
X144888Y284694D01*
X145624Y282918D01*
X146794Y281394D01*
X148319Y280224D01*
X150094Y279488D01*
X152000Y279237D01*
X152633Y279320D01*
X185941Y246012D01*
X185523Y244634D01*
X185431Y244616D01*
X166323Y263723D01*
X165166Y264497D01*
X163800Y264769D01*
X158423D01*
X158377Y264881D01*
X157206Y266406D01*
X155681Y267577D01*
X153906Y268312D01*
X152000Y268563D01*
X150094Y268312D01*
X148319Y267577D01*
X146794Y266406D01*
X145624Y264881D01*
X144888Y263106D01*
X144637Y261200D01*
X144888Y259294D01*
X145624Y257519D01*
X146794Y255994D01*
X148319Y254823D01*
X150094Y254088D01*
X152000Y253837D01*
X153906Y254088D01*
X155681Y254823D01*
X157206Y255994D01*
X158377Y257519D01*
X158423Y257631D01*
X162322D01*
X179961Y239992D01*
X179475Y238819D01*
X158651D01*
X158377Y239482D01*
X157206Y241006D01*
X155681Y242176D01*
X153906Y242912D01*
X152000Y243163D01*
X150094Y242912D01*
X148319Y242176D01*
X146794Y241006D01*
X145624Y239482D01*
X144888Y237706D01*
X144637Y235800D01*
X144888Y233894D01*
X145624Y232118D01*
X146794Y230594D01*
X148319Y229424D01*
X150094Y228688D01*
X152000Y228437D01*
X153906Y228688D01*
X155681Y229424D01*
X157206Y230594D01*
X158041Y231681D01*
X219975D01*
X220461Y230508D01*
X203922Y213969D01*
X158423D01*
X158377Y214081D01*
X157206Y215606D01*
X155681Y216777D01*
X153906Y217512D01*
X152000Y217763D01*
X150094Y217512D01*
X148319Y216777D01*
X146794Y215606D01*
X145624Y214081D01*
X144888Y212306D01*
X144637Y210400D01*
X144888Y208494D01*
X145624Y206719D01*
X146794Y205194D01*
X148319Y204023D01*
X150094Y203288D01*
X152000Y203037D01*
X153906Y203288D01*
X155681Y204023D01*
X157206Y205194D01*
X158377Y206719D01*
X158423Y206831D01*
X205400D01*
X206766Y207103D01*
X207923Y207877D01*
X214192Y214146D01*
X215179Y213336D01*
X214848Y212841D01*
X214382Y210500D01*
X214848Y208159D01*
X216174Y206174D01*
X218159Y204848D01*
X220500Y204382D01*
X222841Y204848D01*
X224826Y206174D01*
X225332Y206931D01*
X473000D01*
X474366Y207203D01*
X475523Y207977D01*
X481107Y213560D01*
X482000Y213382D01*
X484341Y213848D01*
X486326Y215174D01*
X487652Y217159D01*
X488117Y219500D01*
X487652Y221841D01*
X486326Y223826D01*
X484341Y225152D01*
X482455Y225527D01*
X482455Y226822D01*
X483116Y226953D01*
X484273Y227727D01*
X491273Y234727D01*
X492047Y235884D01*
X492319Y237250D01*
Y276084D01*
X493576Y276924D01*
X494902Y278909D01*
X495368Y281250D01*
X494902Y283591D01*
X493576Y285576D01*
X491591Y286902D01*
X489250Y287367D01*
X486909Y286902D01*
X484924Y285576D01*
X483598Y283591D01*
X483133Y281250D01*
X483598Y278909D01*
X484924Y276924D01*
X485181Y276752D01*
Y238728D01*
X480272Y233819D01*
X444775D01*
X444289Y234992D01*
X454523Y245227D01*
X455297Y246384D01*
X455569Y247750D01*
Y275390D01*
X455835Y275568D01*
X457161Y277553D01*
X457627Y279894D01*
X457161Y282235D01*
X455835Y284220D01*
X453851Y285546D01*
X451510Y286012D01*
X449168Y285546D01*
X447184Y284220D01*
X445858Y282235D01*
X445392Y279894D01*
X445858Y277553D01*
X447184Y275568D01*
X448431Y274734D01*
Y249228D01*
X438022Y238819D01*
X412517D01*
X412031Y239992D01*
X416273Y244234D01*
X417047Y245392D01*
X417319Y246757D01*
Y275168D01*
X418076Y275674D01*
X419402Y277659D01*
X419868Y280000D01*
X419402Y282341D01*
X418076Y284326D01*
X416091Y285652D01*
X413750Y286117D01*
X411613Y285692D01*
X411043Y286154D01*
X410660Y286679D01*
X411122Y287793D01*
X411179Y288230D01*
X406020D01*
Y283071D01*
X406457Y283128D01*
X407341Y283495D01*
X408183Y282469D01*
X408098Y282341D01*
X407632Y280000D01*
X408098Y277659D01*
X409424Y275674D01*
X410181Y275168D01*
Y248235D01*
X405765Y243819D01*
X334767D01*
X334281Y244992D01*
X339523Y250234D01*
X340297Y251392D01*
X340569Y252757D01*
Y274668D01*
X341326Y275174D01*
X342652Y277159D01*
X343118Y279500D01*
X342652Y281841D01*
X341326Y283826D01*
X339341Y285152D01*
X337000Y285618D01*
X335248Y285269D01*
X334087Y286181D01*
X334096Y286250D01*
X333872Y287957D01*
X333213Y289548D01*
X332164Y290914D01*
X330798Y291963D01*
X329207Y292622D01*
X328770Y292679D01*
Y286250D01*
Y279821D01*
X329207Y279878D01*
X329704Y280084D01*
X330126Y279875D01*
X330938Y279221D01*
X331348Y277159D01*
X332674Y275174D01*
X333431Y274668D01*
Y254235D01*
X328014Y248819D01*
X286775D01*
X286289Y249992D01*
X301773Y265477D01*
X302547Y266634D01*
X302819Y268000D01*
Y274418D01*
X303576Y274924D01*
X304902Y276909D01*
X305368Y279250D01*
X304902Y281591D01*
X304236Y282588D01*
X304991Y283562D01*
X305070Y283625D01*
X305480Y283571D01*
Y288730D01*
X300321D01*
X300378Y288293D01*
X301037Y286702D01*
X301395Y286236D01*
X300678Y285083D01*
X299250Y285368D01*
X296909Y284902D01*
X294924Y283576D01*
X293598Y281591D01*
X293132Y279250D01*
X293598Y276909D01*
X294924Y274924D01*
X295681Y274418D01*
Y269478D01*
X280022Y253819D01*
X257525D01*
X257039Y254992D01*
X264773Y262727D01*
X265547Y263884D01*
X265819Y265250D01*
Y274668D01*
X266576Y275174D01*
X267902Y277159D01*
X268368Y279500D01*
X267902Y281841D01*
X266576Y283826D01*
X264591Y285152D01*
X262250Y285618D01*
X259909Y285152D01*
X257924Y283826D01*
X256598Y281841D01*
X256133Y279500D01*
X256598Y277159D01*
X257924Y275174D01*
X258681Y274668D01*
Y266728D01*
X250772Y258819D01*
X204478D01*
X178569Y284728D01*
Y314400D01*
X178297Y315766D01*
X177523Y316923D01*
X159065Y335381D01*
X159112Y335494D01*
X159363Y337400D01*
X159112Y339306D01*
X158377Y341082D01*
X157206Y342606D01*
X155681Y343777D01*
X153906Y344512D01*
X152920Y344642D01*
X153003Y345912D01*
X238099D01*
X251475Y332537D01*
X251848Y330659D01*
X253174Y328674D01*
X255159Y327348D01*
X257500Y326883D01*
X259841Y327348D01*
X261826Y328674D01*
X263152Y330659D01*
X263617Y333000D01*
X263152Y335341D01*
X261826Y337326D01*
X259841Y338652D01*
X257963Y339025D01*
X243244Y353744D01*
X241756Y354739D01*
X240000Y355088D01*
X155776D01*
X155524Y356358D01*
X155681Y356423D01*
X157206Y357594D01*
X158377Y359118D01*
X159112Y360894D01*
X159363Y362800D01*
X159112Y364706D01*
X158377Y366482D01*
X157206Y368006D01*
X155681Y369176D01*
X153906Y369912D01*
X152000Y370163D01*
D02*
G37*
G36*
X341429Y325480D02*
X336270D01*
Y320321D01*
X336707Y320378D01*
X338298Y321037D01*
X339664Y322086D01*
X340713Y323452D01*
X341372Y325043D01*
X341429Y325480D01*
D02*
G37*
G36*
X333730D02*
X328571D01*
X328628Y325043D01*
X329287Y323452D01*
X330336Y322086D01*
X331702Y321037D01*
X333293Y320378D01*
X333730Y320321D01*
Y325480D01*
D02*
G37*
G36*
X817770Y323429D02*
Y318270D01*
X822929D01*
X822872Y318707D01*
X822213Y320298D01*
X821164Y321664D01*
X819798Y322713D01*
X818207Y323372D01*
X817770Y323429D01*
D02*
G37*
G36*
X815230D02*
X814793Y323372D01*
X813202Y322713D01*
X811836Y321664D01*
X810787Y320298D01*
X810128Y318707D01*
X810071Y318270D01*
X815230D01*
Y323429D01*
D02*
G37*
G36*
X768270Y316179D02*
Y311020D01*
X773429D01*
X773372Y311457D01*
X772713Y313048D01*
X771664Y314414D01*
X770298Y315463D01*
X768707Y316122D01*
X768270Y316179D01*
D02*
G37*
G36*
X765730D02*
X765293Y316122D01*
X763702Y315463D01*
X762336Y314414D01*
X761287Y313048D01*
X760628Y311457D01*
X760571Y311020D01*
X765730D01*
Y316179D01*
D02*
G37*
G36*
X822929Y315730D02*
X817770D01*
Y310571D01*
X818207Y310628D01*
X819798Y311287D01*
X821164Y312336D01*
X822213Y313702D01*
X822872Y315293D01*
X822929Y315730D01*
D02*
G37*
G36*
X815230D02*
X810071D01*
X810128Y315293D01*
X810787Y313702D01*
X811836Y312336D01*
X813202Y311287D01*
X814793Y310628D01*
X815230Y310571D01*
Y315730D01*
D02*
G37*
G36*
X471270Y309929D02*
Y304770D01*
X476429D01*
X476372Y305207D01*
X475713Y306798D01*
X474664Y308164D01*
X473298Y309213D01*
X471707Y309872D01*
X471270Y309929D01*
D02*
G37*
G36*
X468730D02*
X468293Y309872D01*
X466702Y309213D01*
X465336Y308164D01*
X464287Y306798D01*
X463628Y305207D01*
X463571Y304770D01*
X468730D01*
Y309929D01*
D02*
G37*
G36*
X773429Y308480D02*
X768270D01*
Y303321D01*
X768707Y303378D01*
X770298Y304037D01*
X771664Y305086D01*
X772713Y306452D01*
X773372Y308043D01*
X773429Y308480D01*
D02*
G37*
G36*
X765730D02*
X760571D01*
X760628Y308043D01*
X761287Y306452D01*
X762336Y305086D01*
X763702Y304037D01*
X765293Y303378D01*
X765730Y303321D01*
Y308480D01*
D02*
G37*
G36*
X426770Y305429D02*
Y300270D01*
X431929D01*
X431872Y300707D01*
X431213Y302298D01*
X430164Y303664D01*
X428798Y304713D01*
X427207Y305372D01*
X426770Y305429D01*
D02*
G37*
G36*
X424230D02*
X423793Y305372D01*
X422202Y304713D01*
X420836Y303664D01*
X419787Y302298D01*
X419128Y300707D01*
X419071Y300270D01*
X424230D01*
Y305429D01*
D02*
G37*
G36*
X368790Y306540D02*
X360520D01*
Y300270D01*
X368790D01*
Y306540D01*
D02*
G37*
G36*
X357980D02*
X349710D01*
Y300270D01*
X357980D01*
Y306540D01*
D02*
G37*
G36*
X219290D02*
X211020D01*
Y300270D01*
X219290D01*
Y306540D01*
D02*
G37*
G36*
X208480D02*
X200210D01*
Y300270D01*
X208480D01*
Y306540D01*
D02*
G37*
G36*
X30790Y305790D02*
X25520D01*
Y299520D01*
X30790D01*
Y305790D01*
D02*
G37*
G36*
X22980D02*
X17710D01*
Y299520D01*
X22980D01*
Y305790D01*
D02*
G37*
G36*
X286770Y304179D02*
Y299020D01*
X291929D01*
X291872Y299457D01*
X291213Y301048D01*
X290164Y302414D01*
X288798Y303463D01*
X287207Y304122D01*
X286770Y304179D01*
D02*
G37*
G36*
X284230D02*
X283793Y304122D01*
X282202Y303463D01*
X280836Y302414D01*
X279787Y301048D01*
X279128Y299457D01*
X279071Y299020D01*
X284230D01*
Y304179D01*
D02*
G37*
G36*
X1012500Y307358D02*
X1009237Y306928D01*
X1006196Y305669D01*
X1003585Y303665D01*
X1001581Y301054D01*
X1000351Y298084D01*
X995250D01*
Y303750D01*
X981250D01*
Y285750D01*
X995250D01*
Y291416D01*
X1000351D01*
X1001581Y288446D01*
X1003585Y285835D01*
X1006196Y283831D01*
X1009237Y282572D01*
X1012500Y282142D01*
X1015763Y282572D01*
X1018804Y283831D01*
X1021415Y285835D01*
X1023419Y288446D01*
X1024678Y291487D01*
X1025108Y294750D01*
X1024678Y298013D01*
X1023419Y301054D01*
X1021415Y303665D01*
X1018804Y305669D01*
X1015763Y306928D01*
X1012500Y307358D01*
D02*
G37*
G36*
X237770Y302429D02*
Y297270D01*
X242929D01*
X242872Y297707D01*
X242213Y299298D01*
X241164Y300664D01*
X239798Y301713D01*
X238207Y302372D01*
X237770Y302429D01*
D02*
G37*
G36*
X235230D02*
X234793Y302372D01*
X233202Y301713D01*
X231836Y300664D01*
X230787Y299298D01*
X230128Y297707D01*
X230071Y297270D01*
X235230D01*
Y302429D01*
D02*
G37*
G36*
X476429Y302230D02*
X471270D01*
Y297071D01*
X471707Y297128D01*
X473298Y297787D01*
X474664Y298836D01*
X475713Y300202D01*
X476372Y301793D01*
X476429Y302230D01*
D02*
G37*
G36*
X468730D02*
X463571D01*
X463628Y301793D01*
X464287Y300202D01*
X465336Y298836D01*
X466702Y297787D01*
X468293Y297128D01*
X468730Y297071D01*
Y302230D01*
D02*
G37*
G36*
X431929Y297730D02*
X426770D01*
Y292571D01*
X427207Y292628D01*
X428798Y293287D01*
X430164Y294336D01*
X431213Y295702D01*
X431872Y297293D01*
X431929Y297730D01*
D02*
G37*
G36*
X424230D02*
X419071D01*
X419128Y297293D01*
X419787Y295702D01*
X420836Y294336D01*
X422202Y293287D01*
X423793Y292628D01*
X424230Y292571D01*
Y297730D01*
D02*
G37*
G36*
X368790Y297730D02*
X360520D01*
Y291460D01*
X368790D01*
Y297730D01*
D02*
G37*
G36*
X357980D02*
X349710D01*
Y291460D01*
X357980D01*
Y297730D01*
D02*
G37*
G36*
X219290Y297730D02*
X211020D01*
Y291460D01*
X219290D01*
Y297730D01*
D02*
G37*
G36*
X208480D02*
X200210D01*
Y291460D01*
X208480D01*
Y297730D01*
D02*
G37*
G36*
X291929Y296480D02*
X286770D01*
Y291321D01*
X287207Y291378D01*
X288798Y292037D01*
X290164Y293086D01*
X291213Y294452D01*
X291872Y296043D01*
X291929Y296480D01*
D02*
G37*
G36*
X284230D02*
X279071D01*
X279128Y296043D01*
X279787Y294452D01*
X280836Y293086D01*
X282202Y292037D01*
X283793Y291378D01*
X284230Y291321D01*
Y296480D01*
D02*
G37*
G36*
X308020Y296429D02*
Y291270D01*
X313179D01*
X313122Y291707D01*
X312463Y293298D01*
X311414Y294664D01*
X310048Y295713D01*
X308457Y296372D01*
X308020Y296429D01*
D02*
G37*
G36*
X305480D02*
X305043Y296372D01*
X303452Y295713D01*
X302086Y294664D01*
X301037Y293298D01*
X300378Y291707D01*
X300321Y291270D01*
X305480D01*
Y296429D01*
D02*
G37*
G36*
X406020Y295929D02*
Y290770D01*
X411179D01*
X411122Y291207D01*
X410463Y292798D01*
X409414Y294164D01*
X408048Y295213D01*
X406457Y295872D01*
X406020Y295929D01*
D02*
G37*
G36*
X403480D02*
X403043Y295872D01*
X401452Y295213D01*
X400086Y294164D01*
X399037Y292798D01*
X398378Y291207D01*
X398321Y290770D01*
X403480D01*
Y295929D01*
D02*
G37*
G36*
X30790Y296980D02*
X25520D01*
Y290710D01*
X30790D01*
Y296980D01*
D02*
G37*
G36*
X22980D02*
X17710D01*
Y290710D01*
X22980D01*
Y296980D01*
D02*
G37*
G36*
X242929Y294730D02*
X237770D01*
Y289571D01*
X238207Y289628D01*
X239798Y290287D01*
X241164Y291336D01*
X242213Y292702D01*
X242872Y294293D01*
X242929Y294730D01*
D02*
G37*
G36*
X235230D02*
X230071D01*
X230128Y294293D01*
X230787Y292702D01*
X231836Y291336D01*
X233202Y290287D01*
X234793Y289628D01*
X235230Y289571D01*
Y294730D01*
D02*
G37*
G36*
X326230Y292679D02*
X325793Y292622D01*
X324202Y291963D01*
X322836Y290914D01*
X321787Y289548D01*
X321128Y287957D01*
X321071Y287520D01*
X326230D01*
Y292679D01*
D02*
G37*
G36*
X313179Y288730D02*
X308020D01*
Y283571D01*
X308457Y283628D01*
X310048Y284287D01*
X311414Y285336D01*
X312463Y286702D01*
X313122Y288293D01*
X313179Y288730D01*
D02*
G37*
G36*
X403480Y288230D02*
X398321D01*
X398378Y287793D01*
X399037Y286202D01*
X400086Y284836D01*
X401452Y283787D01*
X403043Y283128D01*
X403480Y283071D01*
Y288230D01*
D02*
G37*
G36*
X378520Y287679D02*
Y282520D01*
X383679D01*
X383622Y282957D01*
X382963Y284548D01*
X381914Y285914D01*
X380548Y286963D01*
X378957Y287622D01*
X378520Y287679D01*
D02*
G37*
G36*
X375980D02*
X375543Y287622D01*
X373952Y286963D01*
X372586Y285914D01*
X371537Y284548D01*
X370878Y282957D01*
X370821Y282520D01*
X375980D01*
Y287679D01*
D02*
G37*
G36*
X30790Y287890D02*
X25520D01*
Y281620D01*
X30790D01*
Y287890D01*
D02*
G37*
G36*
X22980D02*
X17710D01*
Y281620D01*
X22980D01*
Y287890D01*
D02*
G37*
G36*
X326230Y284980D02*
X321071D01*
X321128Y284543D01*
X321787Y282952D01*
X322836Y281586D01*
X324202Y280537D01*
X325793Y279878D01*
X326230Y279821D01*
Y284980D01*
D02*
G37*
G36*
X30790Y279080D02*
X25520D01*
Y272810D01*
X30790D01*
Y279080D01*
D02*
G37*
G36*
X22980D02*
X17710D01*
Y272810D01*
X22980D01*
Y279080D01*
D02*
G37*
G36*
X218750Y286000D02*
X200750D01*
Y272000D01*
X218750D01*
Y273396D01*
X219536Y273750D01*
X220020Y273860D01*
X221909Y272598D01*
X224250Y272132D01*
X226591Y272598D01*
X228576Y273924D01*
X229902Y275909D01*
X230368Y278250D01*
X229902Y280591D01*
X228576Y282576D01*
X226591Y283902D01*
X224250Y284368D01*
X221909Y283902D01*
X220020Y282640D01*
X219536Y282750D01*
X218750Y283104D01*
Y286000D01*
D02*
G37*
G36*
X368250D02*
X350250D01*
Y272000D01*
X361203D01*
X364477Y268727D01*
X365634Y267953D01*
X367000Y267681D01*
X378668D01*
X379174Y266924D01*
X381159Y265598D01*
X383500Y265133D01*
X385841Y265598D01*
X387826Y266924D01*
X389152Y268909D01*
X389618Y271250D01*
X389152Y273591D01*
X387826Y275576D01*
X385841Y276902D01*
X383994Y277269D01*
X383926Y277314D01*
X383293Y278336D01*
X383235Y278610D01*
X383622Y279543D01*
X383679Y279980D01*
X370821D01*
X370878Y279543D01*
X371537Y277952D01*
X372586Y276586D01*
X373233Y276089D01*
X372802Y274819D01*
X368478D01*
X368250Y275047D01*
Y286000D01*
D02*
G37*
G36*
X30790Y269990D02*
X25520D01*
Y263720D01*
X30790D01*
Y269990D01*
D02*
G37*
G36*
X22980D02*
X17710D01*
Y263720D01*
X22980D01*
Y269990D01*
D02*
G37*
G36*
X30790Y261180D02*
X25520D01*
Y254910D01*
X30790D01*
Y261180D01*
D02*
G37*
G36*
X22980D02*
X17710D01*
Y254910D01*
X22980D01*
Y261180D01*
D02*
G37*
G36*
X67000Y268563D02*
X65094Y268312D01*
X63319Y267577D01*
X61794Y266406D01*
X60623Y264881D01*
X59888Y263106D01*
X59637Y261200D01*
X59888Y259294D01*
X60623Y257519D01*
X61794Y255994D01*
X63319Y254823D01*
X65094Y254088D01*
X67000Y253837D01*
X68906Y254088D01*
X70682Y254823D01*
X72206Y255994D01*
X73376Y257519D01*
X74112Y259294D01*
X74363Y261200D01*
X74112Y263106D01*
X73376Y264881D01*
X72206Y266406D01*
X70682Y267577D01*
X68906Y268312D01*
X67000Y268563D01*
D02*
G37*
G36*
X1012500Y257358D02*
X1009237Y256928D01*
X1006196Y255669D01*
X1003585Y253665D01*
X1001581Y251054D01*
X1000351Y248084D01*
X995250D01*
Y252500D01*
X981250D01*
Y234500D01*
X995250D01*
Y241416D01*
X1000351D01*
X1001581Y238446D01*
X1003585Y235835D01*
X1006196Y233831D01*
X1009237Y232572D01*
X1012500Y232142D01*
X1015763Y232572D01*
X1018804Y233831D01*
X1021415Y235835D01*
X1023419Y238446D01*
X1024678Y241487D01*
X1025108Y244750D01*
X1024678Y248013D01*
X1023419Y251054D01*
X1021415Y253665D01*
X1018804Y255669D01*
X1015763Y256928D01*
X1012500Y257358D01*
D02*
G37*
G36*
X30790Y252090D02*
X25520D01*
Y245820D01*
X30790D01*
Y252090D01*
D02*
G37*
G36*
X22980D02*
X17710D01*
Y245820D01*
X22980D01*
Y252090D01*
D02*
G37*
G36*
X30790Y243280D02*
X25520D01*
Y237010D01*
X30790D01*
Y243280D01*
D02*
G37*
G36*
X22980D02*
X17710D01*
Y237010D01*
X22980D01*
Y243280D01*
D02*
G37*
G36*
X46250Y305250D02*
X34250D01*
Y291250D01*
X36681D01*
Y287350D01*
X34250D01*
Y273350D01*
X36681D01*
Y269450D01*
X34250D01*
Y255450D01*
X36681D01*
Y251550D01*
X34250D01*
Y237550D01*
X36681D01*
Y233650D01*
X34250D01*
Y219650D01*
X36681D01*
Y215750D01*
X34250D01*
Y201750D01*
X46250D01*
Y215750D01*
X43819D01*
Y219650D01*
X46250D01*
Y231349D01*
X47520Y232327D01*
X48000Y232231D01*
X49703D01*
X50573Y230961D01*
X50431Y230250D01*
Y195728D01*
X47727Y193023D01*
X47043Y192000D01*
X35750D01*
Y178000D01*
X53750D01*
Y188155D01*
X53819Y188500D01*
Y189022D01*
X56523Y191727D01*
X57297Y192884D01*
X57569Y194250D01*
Y228772D01*
X59574Y230777D01*
X61653D01*
X61794Y230594D01*
X63319Y229424D01*
X65094Y228688D01*
X67000Y228437D01*
X68906Y228688D01*
X70682Y229424D01*
X72206Y230594D01*
X73376Y232118D01*
X74112Y233894D01*
X74363Y235800D01*
X74112Y237706D01*
X73376Y239482D01*
X72206Y241006D01*
X70682Y242176D01*
X68906Y242912D01*
X67000Y243163D01*
X65094Y242912D01*
X63319Y242176D01*
X61794Y241006D01*
X60623Y239482D01*
X60577Y239369D01*
X49478D01*
X46250Y242597D01*
Y251550D01*
X43819D01*
Y255450D01*
X46250D01*
Y269450D01*
X43819D01*
Y273350D01*
X46250D01*
Y287350D01*
X43819D01*
Y291250D01*
X46250D01*
Y305250D01*
D02*
G37*
G36*
X30790Y234190D02*
X25520D01*
Y227920D01*
X30790D01*
Y234190D01*
D02*
G37*
G36*
X22980D02*
X17710D01*
Y227920D01*
X22980D01*
Y234190D01*
D02*
G37*
G36*
X609000Y240117D02*
X606659Y239652D01*
X604674Y238326D01*
X604012Y237334D01*
X600000D01*
X598724Y237080D01*
X597643Y236357D01*
X557892Y196607D01*
X557170Y195526D01*
X556916Y194250D01*
Y188238D01*
X555924Y187576D01*
X554598Y185591D01*
X554132Y183250D01*
X554598Y180909D01*
X555924Y178924D01*
X557909Y177598D01*
X560250Y177132D01*
X562591Y177598D01*
X564576Y178924D01*
X565902Y180909D01*
X566367Y183250D01*
X565902Y185591D01*
X564576Y187576D01*
X563584Y188238D01*
Y192869D01*
X589950Y219235D01*
X591035Y218524D01*
X590632Y216500D01*
X591098Y214159D01*
X591127Y214115D01*
X589893Y212880D01*
X589170Y211798D01*
X588916Y210522D01*
Y140738D01*
X587924Y140076D01*
X586598Y138091D01*
X586133Y135750D01*
X586598Y133409D01*
X587924Y131424D01*
X589909Y130098D01*
X592250Y129633D01*
X594591Y130098D01*
X596576Y131424D01*
X597902Y133409D01*
X598368Y135750D01*
X597902Y138091D01*
X596576Y140076D01*
X595584Y140738D01*
Y209142D01*
X596844Y210401D01*
X599091Y210848D01*
X601076Y212174D01*
X602402Y214159D01*
X602868Y216500D01*
X602402Y218841D01*
X601076Y220826D01*
X599091Y222152D01*
X596750Y222617D01*
X594726Y222215D01*
X594015Y223300D01*
X601381Y230666D01*
X604012D01*
X604674Y229674D01*
X606659Y228348D01*
X609000Y227882D01*
X611341Y228348D01*
X613326Y229674D01*
X614652Y231659D01*
X615117Y234000D01*
X614652Y236341D01*
X613326Y238326D01*
X611341Y239652D01*
X609000Y240117D01*
D02*
G37*
G36*
X921190Y230390D02*
X915370D01*
Y223020D01*
X921190D01*
Y230390D01*
D02*
G37*
G36*
X912830D02*
X907010D01*
Y223020D01*
X912830D01*
Y230390D01*
D02*
G37*
G36*
X30790Y225380D02*
X25520D01*
Y219110D01*
X30790D01*
Y225380D01*
D02*
G37*
G36*
X22980D02*
X17710D01*
Y219110D01*
X22980D01*
Y225380D01*
D02*
G37*
G36*
X879000Y251832D02*
X876520Y251506D01*
X874209Y250548D01*
X872225Y249025D01*
X870702Y247041D01*
X869744Y244730D01*
X869418Y242250D01*
X869744Y239770D01*
X870702Y237459D01*
X872225Y235475D01*
X874209Y233952D01*
X876122Y233160D01*
Y229850D01*
X874850D01*
Y213650D01*
X887950D01*
Y229850D01*
X884278D01*
Y234326D01*
X885775Y235475D01*
X887298Y237459D01*
X888255Y239770D01*
X888582Y242250D01*
X888255Y244730D01*
X887298Y247041D01*
X885775Y249025D01*
X883791Y250548D01*
X881480Y251506D01*
X879000Y251832D01*
D02*
G37*
G36*
X921190Y220480D02*
X915370D01*
Y213110D01*
X921190D01*
Y220480D01*
D02*
G37*
G36*
X912830D02*
X907010D01*
Y213110D01*
X912830D01*
Y220480D01*
D02*
G37*
G36*
X30790Y216290D02*
X25520D01*
Y210020D01*
X30790D01*
Y216290D01*
D02*
G37*
G36*
X22980D02*
X17710D01*
Y210020D01*
X22980D01*
Y216290D01*
D02*
G37*
G36*
X616270Y217617D02*
X613929Y217152D01*
X611944Y215826D01*
X610618Y213841D01*
X610153Y211500D01*
X610382Y210347D01*
X603893Y203857D01*
X603170Y202776D01*
X602916Y201500D01*
Y183988D01*
X601924Y183326D01*
X600598Y181341D01*
X600132Y179000D01*
X600598Y176659D01*
X601924Y174674D01*
X603909Y173348D01*
X605546Y173022D01*
Y171728D01*
X603909Y171402D01*
X601924Y170076D01*
X600598Y168091D01*
X600132Y165750D01*
X600598Y163409D01*
X601924Y161424D01*
X603163Y160597D01*
X602895Y159249D01*
X602409Y159152D01*
X600424Y157826D01*
X599098Y155841D01*
X598633Y153500D01*
X599098Y151159D01*
X600424Y149174D01*
X602409Y147848D01*
X604750Y147382D01*
X607091Y147848D01*
X607135Y147878D01*
X609120Y145892D01*
X610202Y145170D01*
X611478Y144916D01*
X697898D01*
X698335Y143646D01*
X697191Y141934D01*
X696726Y139593D01*
X697191Y137252D01*
X698517Y135267D01*
X700502Y133941D01*
X702843Y133476D01*
X705184Y133941D01*
X707169Y135267D01*
X708495Y137252D01*
X708630Y137931D01*
X756417D01*
X757424Y136424D01*
X759409Y135098D01*
X761750Y134633D01*
X764091Y135098D01*
X766076Y136424D01*
X767402Y138409D01*
X767868Y140750D01*
X767402Y143091D01*
X766076Y145076D01*
X765148Y145695D01*
X765076Y147174D01*
X766402Y149159D01*
X766868Y151500D01*
X766402Y153841D01*
X765076Y155826D01*
X763091Y157152D01*
X760750Y157618D01*
X758409Y157152D01*
X756424Y155826D01*
X755098Y153841D01*
X754649Y151584D01*
X683380D01*
X682754Y152854D01*
X683213Y153452D01*
X683872Y155043D01*
X683929Y155480D01*
X671071D01*
X671128Y155043D01*
X671787Y153452D01*
X672246Y152854D01*
X671620Y151584D01*
X612859D01*
X610849Y153594D01*
X610402Y155841D01*
X609076Y157826D01*
X607837Y158653D01*
X608105Y160002D01*
X608591Y160098D01*
X610576Y161424D01*
X611071Y162166D01*
X671812D01*
X672438Y160896D01*
X671787Y160048D01*
X671128Y158457D01*
X671071Y158020D01*
X683929D01*
X683872Y158457D01*
X683213Y160048D01*
X682562Y160896D01*
X683188Y162166D01*
X694750D01*
X695412Y161174D01*
X697397Y159848D01*
X699738Y159382D01*
X702079Y159848D01*
X704064Y161174D01*
X705390Y163159D01*
X705855Y165500D01*
X705390Y167841D01*
X704064Y169826D01*
X702079Y171152D01*
X699738Y171618D01*
X697397Y171152D01*
X695412Y169826D01*
X694750Y168834D01*
X611405D01*
X610576Y170076D01*
X608591Y171402D01*
X606954Y171728D01*
Y173022D01*
X608591Y173348D01*
X610576Y174674D01*
X611902Y176659D01*
X612368Y179000D01*
X611902Y181341D01*
X610576Y183326D01*
X609584Y183988D01*
Y200119D01*
X615084Y205618D01*
X616270Y205382D01*
X618611Y205848D01*
X620596Y207174D01*
X621922Y209159D01*
X622388Y211500D01*
X621922Y213841D01*
X620596Y215826D01*
X618611Y217152D01*
X616270Y217617D01*
D02*
G37*
G36*
X67000Y217763D02*
X65094Y217512D01*
X63319Y216777D01*
X61794Y215606D01*
X60623Y214081D01*
X59888Y212306D01*
X59637Y210400D01*
X59888Y208494D01*
X60623Y206719D01*
X61794Y205194D01*
X63319Y204023D01*
X65094Y203288D01*
X67000Y203037D01*
X68906Y203288D01*
X70682Y204023D01*
X72206Y205194D01*
X73376Y206719D01*
X74112Y208494D01*
X74363Y210400D01*
X74112Y212306D01*
X73376Y214081D01*
X72206Y215606D01*
X70682Y216777D01*
X68906Y217512D01*
X67000Y217763D01*
D02*
G37*
G36*
X30790Y207480D02*
X25520D01*
Y201210D01*
X30790D01*
Y207480D01*
D02*
G37*
G36*
X22980D02*
X17710D01*
Y201210D01*
X22980D01*
Y207480D01*
D02*
G37*
G36*
X738500Y242118D02*
X736159Y241652D01*
X734174Y240326D01*
X732848Y238341D01*
X732383Y236000D01*
X732848Y233659D01*
X734174Y231674D01*
X736159Y230348D01*
X738037Y229975D01*
X754412Y213599D01*
Y207183D01*
X753348Y205591D01*
X752883Y203250D01*
X753348Y200909D01*
X754674Y198924D01*
X756659Y197598D01*
X759000Y197132D01*
X761341Y197598D01*
X763326Y198924D01*
X764652Y200909D01*
X765117Y203250D01*
X764652Y205591D01*
X763588Y207183D01*
Y215500D01*
X763239Y217256D01*
X762244Y218744D01*
X744525Y236463D01*
X744152Y238341D01*
X742826Y240326D01*
X740841Y241652D01*
X738500Y242118D01*
D02*
G37*
G36*
X1013770Y207735D02*
Y196020D01*
X1025485D01*
X1025204Y198154D01*
X1023890Y201326D01*
X1021800Y204050D01*
X1019076Y206140D01*
X1015904Y207454D01*
X1013770Y207735D01*
D02*
G37*
G36*
X1011230Y207735D02*
X1009096Y207454D01*
X1005924Y206140D01*
X1003200Y204050D01*
X1001110Y201326D01*
X999796Y198154D01*
X999515Y196020D01*
X1011230D01*
Y207735D01*
D02*
G37*
G36*
X921190Y201490D02*
X915370D01*
Y194120D01*
X921190D01*
Y201490D01*
D02*
G37*
G36*
X912830D02*
X907010D01*
Y194120D01*
X912830D01*
Y201490D01*
D02*
G37*
G36*
X700250Y210117D02*
X697909Y209652D01*
X695924Y208326D01*
X694598Y206341D01*
X694133Y204000D01*
X694598Y201659D01*
X695406Y200449D01*
Y198174D01*
X687292Y190060D01*
X687000Y190117D01*
X684659Y189652D01*
X682674Y188326D01*
X681348Y186341D01*
X680882Y184000D01*
X681348Y181659D01*
X682674Y179674D01*
X684659Y178348D01*
X687000Y177882D01*
X689341Y178348D01*
X691326Y179674D01*
X692652Y181659D01*
X693118Y184000D01*
X693059Y184292D01*
X702368Y193601D01*
X703253Y194924D01*
X703563Y196485D01*
X703563Y196485D01*
Y198997D01*
X704576Y199674D01*
X705902Y201659D01*
X706367Y204000D01*
X705902Y206341D01*
X704576Y208326D01*
X702591Y209652D01*
X700250Y210117D01*
D02*
G37*
G36*
X864500Y203082D02*
X862020Y202755D01*
X859709Y201798D01*
X857725Y200275D01*
X856202Y198291D01*
X855245Y195980D01*
X854918Y193500D01*
X855245Y191020D01*
X856202Y188709D01*
X857725Y186724D01*
X859709Y185202D01*
X862020Y184244D01*
X864500Y183918D01*
X866980Y184244D01*
X869291Y185202D01*
X871275Y186724D01*
X872704Y188587D01*
X874850D01*
Y184750D01*
X887950D01*
Y200950D01*
X874850D01*
Y197763D01*
X873017D01*
X872798Y198291D01*
X871275Y200275D01*
X869291Y201798D01*
X866980Y202755D01*
X864500Y203082D01*
D02*
G37*
G36*
X921190Y191580D02*
X915370D01*
Y184210D01*
X921190D01*
Y191580D01*
D02*
G37*
G36*
X912830D02*
X907010D01*
Y184210D01*
X912830D01*
Y191580D01*
D02*
G37*
G36*
X670770Y188679D02*
Y183520D01*
X675929D01*
X675872Y183957D01*
X675213Y185548D01*
X674164Y186914D01*
X672798Y187963D01*
X671207Y188622D01*
X670770Y188679D01*
D02*
G37*
G36*
X668230D02*
X667793Y188622D01*
X666202Y187963D01*
X664836Y186914D01*
X663787Y185548D01*
X663128Y183957D01*
X663071Y183520D01*
X668230D01*
Y188679D01*
D02*
G37*
G36*
X1025485Y193480D02*
X1013770D01*
Y181765D01*
X1015904Y182046D01*
X1019076Y183360D01*
X1021800Y185450D01*
X1023890Y188174D01*
X1025204Y191346D01*
X1025485Y193480D01*
D02*
G37*
G36*
X1011230D02*
X999515D01*
X999796Y191346D01*
X1001110Y188174D01*
X1003200Y185450D01*
X1005924Y183360D01*
X1009096Y182046D01*
X1011230Y181765D01*
Y193480D01*
D02*
G37*
G36*
X152000Y192363D02*
X150094Y192112D01*
X148319Y191376D01*
X146794Y190206D01*
X145624Y188682D01*
X144888Y186906D01*
X144637Y185000D01*
X144888Y183094D01*
X145624Y181318D01*
X146794Y179794D01*
X148319Y178624D01*
X150094Y177888D01*
X152000Y177637D01*
X153906Y177888D01*
X155681Y178624D01*
X157206Y179794D01*
X158377Y181318D01*
X159112Y183094D01*
X159363Y185000D01*
X159112Y186906D01*
X158377Y188682D01*
X157206Y190206D01*
X155681Y191376D01*
X153906Y192112D01*
X152000Y192363D01*
D02*
G37*
G36*
X67000D02*
X65094Y192112D01*
X63319Y191376D01*
X61794Y190206D01*
X60623Y188682D01*
X59888Y186906D01*
X59637Y185000D01*
X59888Y183094D01*
X60623Y181318D01*
X61794Y179794D01*
X63319Y178624D01*
X65094Y177888D01*
X67000Y177637D01*
X68906Y177888D01*
X70682Y178624D01*
X72206Y179794D01*
X73376Y181318D01*
X74112Y183094D01*
X74363Y185000D01*
X74112Y186906D01*
X73376Y188682D01*
X72206Y190206D01*
X70682Y191376D01*
X68906Y192112D01*
X67000Y192363D01*
D02*
G37*
G36*
X675929Y180980D02*
X670770D01*
Y175821D01*
X671207Y175878D01*
X672798Y176537D01*
X674164Y177586D01*
X675213Y178952D01*
X675872Y180543D01*
X675929Y180980D01*
D02*
G37*
G36*
X668230D02*
X663071D01*
X663128Y180543D01*
X663787Y178952D01*
X664836Y177586D01*
X666202Y176537D01*
X667793Y175878D01*
X668230Y175821D01*
Y180980D01*
D02*
G37*
G36*
X865250Y173532D02*
X862770Y173205D01*
X860459Y172248D01*
X858475Y170725D01*
X856952Y168741D01*
X856657Y168028D01*
X812700D01*
X812700Y168028D01*
X811139Y167718D01*
X809816Y166834D01*
X809816Y166834D01*
X793116Y150134D01*
X792232Y148811D01*
X791922Y147250D01*
X791922Y147250D01*
Y103491D01*
X791674Y103326D01*
X790348Y101341D01*
X789883Y99000D01*
X790348Y96659D01*
X791674Y94674D01*
X793659Y93348D01*
X796000Y92882D01*
X798341Y93348D01*
X800326Y94674D01*
X801652Y96659D01*
X802117Y99000D01*
X801652Y101341D01*
X800326Y103326D01*
X800078Y103491D01*
Y145561D01*
X814389Y159872D01*
X856657D01*
X856952Y159159D01*
X858475Y157174D01*
X860459Y155652D01*
X862770Y154694D01*
X865250Y154368D01*
X867730Y154694D01*
X870041Y155652D01*
X872026Y157174D01*
X873548Y159159D01*
X873580Y159235D01*
X874850Y158983D01*
Y155850D01*
X887950D01*
Y172050D01*
X874850D01*
Y168917D01*
X873580Y168664D01*
X873548Y168741D01*
X872026Y170725D01*
X870041Y172248D01*
X867730Y173205D01*
X865250Y173532D01*
D02*
G37*
G36*
X921190Y172590D02*
X915370D01*
Y165220D01*
X921190D01*
Y172590D01*
D02*
G37*
G36*
X912830D02*
X907010D01*
Y165220D01*
X912830D01*
Y172590D01*
D02*
G37*
G36*
X153270Y167340D02*
Y160870D01*
X159740D01*
X159638Y161647D01*
X158848Y163554D01*
X157591Y165191D01*
X155954Y166448D01*
X154047Y167238D01*
X153270Y167340D01*
D02*
G37*
G36*
X150730Y167341D02*
X149953Y167238D01*
X148046Y166448D01*
X146409Y165191D01*
X145152Y163554D01*
X144362Y161647D01*
X144260Y160870D01*
X150730D01*
Y167341D01*
D02*
G37*
G36*
X921190Y162680D02*
X915370D01*
Y155310D01*
X921190D01*
Y162680D01*
D02*
G37*
G36*
X912830D02*
X907010D01*
Y155310D01*
X912830D01*
Y162680D01*
D02*
G37*
G36*
X67000Y166963D02*
X65094Y166712D01*
X63319Y165977D01*
X61794Y164806D01*
X60623Y163281D01*
X59888Y161506D01*
X59637Y159600D01*
X59888Y157694D01*
X60623Y155919D01*
X61794Y154394D01*
X63319Y153223D01*
X65094Y152488D01*
X67000Y152237D01*
X68906Y152488D01*
X70682Y153223D01*
X72206Y154394D01*
X73376Y155919D01*
X74112Y157694D01*
X74363Y159600D01*
X74112Y161506D01*
X73376Y163281D01*
X72206Y164806D01*
X70682Y165977D01*
X68906Y166712D01*
X67000Y166963D01*
D02*
G37*
G36*
X159740Y158330D02*
X153270D01*
Y151860D01*
X154047Y151962D01*
X155954Y152752D01*
X157591Y154009D01*
X158848Y155646D01*
X159638Y157553D01*
X159740Y158330D01*
D02*
G37*
G36*
X150730D02*
X144260D01*
X144362Y157553D01*
X145152Y155646D01*
X146409Y154009D01*
X148046Y152752D01*
X149953Y151962D01*
X150730Y151860D01*
Y158330D01*
D02*
G37*
G36*
X1013770Y157735D02*
Y146020D01*
X1025485D01*
X1025204Y148154D01*
X1023890Y151326D01*
X1021800Y154050D01*
X1019076Y156140D01*
X1015904Y157454D01*
X1013770Y157735D01*
D02*
G37*
G36*
X1011230Y157735D02*
X1009096Y157454D01*
X1005924Y156140D01*
X1003200Y154050D01*
X1001110Y151326D01*
X999796Y148154D01*
X999515Y146020D01*
X1011230D01*
Y157735D01*
D02*
G37*
G36*
X865000Y148332D02*
X862520Y148005D01*
X860209Y147048D01*
X858224Y145525D01*
X856702Y143541D01*
X855992Y141828D01*
X825000D01*
X825000Y141828D01*
X823439Y141518D01*
X822116Y140634D01*
X822116Y140634D01*
X807366Y125884D01*
X806482Y124561D01*
X806172Y123000D01*
X806172Y123000D01*
Y103241D01*
X805924Y103076D01*
X804598Y101091D01*
X804133Y98750D01*
X804598Y96409D01*
X805924Y94424D01*
X807909Y93098D01*
X810250Y92633D01*
X812591Y93098D01*
X814576Y94424D01*
X815902Y96409D01*
X816367Y98750D01*
X815902Y101091D01*
X814576Y103076D01*
X814328Y103241D01*
Y121311D01*
X826689Y133672D01*
X856922D01*
X858224Y131974D01*
X860209Y130452D01*
X862520Y129494D01*
X865000Y129168D01*
X867480Y129494D01*
X869791Y130452D01*
X871775Y131974D01*
X873078Y133672D01*
X874850D01*
Y126950D01*
X887950D01*
Y143150D01*
X874850D01*
Y143113D01*
X873580Y142861D01*
X873298Y143541D01*
X871775Y145525D01*
X869791Y147048D01*
X867480Y148005D01*
X865000Y148332D01*
D02*
G37*
G36*
X921190Y143690D02*
X915370D01*
Y136320D01*
X921190D01*
Y143690D01*
D02*
G37*
G36*
X912830D02*
X907010D01*
Y136320D01*
X912830D01*
Y143690D01*
D02*
G37*
G36*
X1025485Y143480D02*
X1013770D01*
Y131765D01*
X1015904Y132046D01*
X1019076Y133360D01*
X1021800Y135450D01*
X1023890Y138174D01*
X1025204Y141346D01*
X1025485Y143480D01*
D02*
G37*
G36*
X1011230D02*
X999515D01*
X999796Y141346D01*
X1001110Y138174D01*
X1003200Y135450D01*
X1005924Y133360D01*
X1009096Y132046D01*
X1011230Y131765D01*
Y143480D01*
D02*
G37*
G36*
X159300Y141500D02*
X144700D01*
Y126900D01*
X159300D01*
Y141500D01*
D02*
G37*
G36*
X67000Y141563D02*
X65094Y141312D01*
X63319Y140576D01*
X61794Y139406D01*
X60623Y137881D01*
X59888Y136106D01*
X59637Y134200D01*
X59888Y132294D01*
X60623Y130519D01*
X61794Y128994D01*
X63319Y127823D01*
X65094Y127088D01*
X67000Y126837D01*
X68906Y127088D01*
X70682Y127823D01*
X72206Y128994D01*
X73376Y130519D01*
X74112Y132294D01*
X74363Y134200D01*
X74112Y136106D01*
X73376Y137881D01*
X72206Y139406D01*
X70682Y140576D01*
X68906Y141312D01*
X67000Y141563D01*
D02*
G37*
G36*
X921190Y133780D02*
X915370D01*
Y126410D01*
X921190D01*
Y133780D01*
D02*
G37*
G36*
X912830D02*
X907010D01*
Y126410D01*
X912830D01*
Y133780D01*
D02*
G37*
G36*
X761750Y132618D02*
X759409Y132152D01*
X757424Y130826D01*
X756918Y130069D01*
X707750D01*
X706384Y129797D01*
X705227Y129023D01*
X699143Y122940D01*
X698250Y123118D01*
X695909Y122652D01*
X693924Y121326D01*
X692598Y119341D01*
X692132Y117000D01*
X692598Y114659D01*
X693924Y112674D01*
X695909Y111348D01*
X698250Y110883D01*
X700591Y111348D01*
X702576Y112674D01*
X703902Y114659D01*
X704368Y117000D01*
X704190Y117893D01*
X709228Y122931D01*
X756918D01*
X757424Y122174D01*
X759409Y120848D01*
X761750Y120382D01*
X764091Y120848D01*
X766076Y122174D01*
X767402Y124159D01*
X767868Y126500D01*
X767402Y128841D01*
X766076Y130826D01*
X764091Y132152D01*
X761750Y132618D01*
D02*
G37*
G36*
X921190Y114790D02*
X915370D01*
Y107420D01*
X921190D01*
Y114790D01*
D02*
G37*
G36*
X912830D02*
X907010D01*
Y107420D01*
X912830D01*
Y114790D01*
D02*
G37*
G36*
X864500Y116832D02*
X862020Y116505D01*
X859709Y115548D01*
X857725Y114025D01*
X856202Y112041D01*
X855245Y109730D01*
X854918Y107250D01*
X855245Y104770D01*
X856202Y102459D01*
X857725Y100475D01*
X859709Y98952D01*
X862020Y97994D01*
X864500Y97668D01*
X866980Y97994D01*
X869291Y98952D01*
X871275Y100475D01*
X872798Y102459D01*
X873093Y103172D01*
X874850D01*
Y98050D01*
X887950D01*
Y114250D01*
X874850D01*
Y111328D01*
X873093D01*
X872798Y112041D01*
X871275Y114025D01*
X869291Y115548D01*
X866980Y116505D01*
X864500Y116832D01*
D02*
G37*
G36*
X921190Y104880D02*
X915370D01*
Y97510D01*
X921190D01*
Y104880D01*
D02*
G37*
G36*
X912830D02*
X907010D01*
Y97510D01*
X912830D01*
Y104880D01*
D02*
G37*
G36*
X639250Y690000D02*
X627250D01*
Y682493D01*
X627152Y682000D01*
Y680862D01*
X617540Y671250D01*
X606750D01*
Y653250D01*
X617540D01*
X675705Y595085D01*
X675179Y593815D01*
X666170D01*
Y583020D01*
X676965D01*
Y592029D01*
X678235Y592555D01*
X879902Y390888D01*
Y352862D01*
X824096Y297056D01*
X822000Y297332D01*
X819520Y297006D01*
X817209Y296048D01*
X815225Y294525D01*
X813937Y292848D01*
X527362D01*
X469306Y350904D01*
X469582Y353000D01*
X469255Y355480D01*
X468298Y357791D01*
X466775Y359776D01*
X464791Y361298D01*
X462480Y362256D01*
X460000Y362582D01*
X457520Y362256D01*
X455209Y361298D01*
X453224Y359776D01*
X451702Y357791D01*
X450745Y355480D01*
X450418Y353000D01*
X450745Y350520D01*
X451702Y348209D01*
X453224Y346225D01*
X455209Y344702D01*
X457520Y343745D01*
X460000Y343418D01*
X462096Y343694D01*
X521645Y284145D01*
X523299Y283040D01*
X525250Y282652D01*
X559283D01*
X559769Y281479D01*
X352814Y74524D01*
X350250Y74861D01*
X347633Y74517D01*
X345194Y73507D01*
X343100Y71900D01*
X341493Y69806D01*
X340483Y67367D01*
X340139Y64750D01*
X340483Y62133D01*
X341493Y59694D01*
X343100Y57600D01*
X345194Y55993D01*
X347633Y54983D01*
X350250Y54639D01*
X352867Y54983D01*
X355306Y55993D01*
X357400Y57600D01*
X359007Y59694D01*
X360017Y62133D01*
X360362Y64750D01*
X360024Y67314D01*
X575362Y282652D01*
X813937D01*
X815225Y280975D01*
X817209Y279452D01*
X819520Y278494D01*
X822000Y278168D01*
X824480Y278494D01*
X826791Y279452D01*
X828775Y280975D01*
X830298Y282959D01*
X831255Y285270D01*
X831582Y287750D01*
X831306Y289846D01*
X888605Y347145D01*
X889710Y348799D01*
X890098Y350750D01*
Y387902D01*
X961250D01*
Y384000D01*
X963152D01*
Y354750D01*
X961250D01*
Y336750D01*
X963152D01*
Y303750D01*
X961250D01*
Y285750D01*
X963152D01*
Y252500D01*
X961250D01*
Y234500D01*
X963152D01*
Y139000D01*
X963540Y137049D01*
X964645Y135395D01*
X1000000Y100040D01*
Y82250D01*
X1025000D01*
Y107250D01*
X1007210D01*
X973348Y141112D01*
Y234500D01*
X975250D01*
Y252500D01*
X973348D01*
Y285750D01*
X975250D01*
Y303750D01*
X973348D01*
Y336750D01*
X975250D01*
Y354750D01*
X973348D01*
Y384000D01*
X975250D01*
Y402000D01*
X973348D01*
Y432750D01*
X975250D01*
Y450750D01*
X973348D01*
Y483750D01*
X975250D01*
Y501750D01*
X973348D01*
Y534500D01*
X975250D01*
Y552500D01*
X973348D01*
Y586250D01*
X975250D01*
Y604250D01*
X973348D01*
Y631500D01*
X975250D01*
Y649500D01*
X961250D01*
Y631500D01*
X963152D01*
Y604250D01*
X961250D01*
Y586250D01*
X963152D01*
Y552500D01*
X961250D01*
Y534500D01*
X963152D01*
Y501750D01*
X961250D01*
Y483750D01*
X963152D01*
Y450750D01*
X961250D01*
Y432750D01*
X963152D01*
Y402000D01*
X961250D01*
Y398098D01*
X887112D01*
X624750Y660460D01*
Y664040D01*
X635855Y675145D01*
X636426Y676000D01*
X639250D01*
Y690000D01*
D02*
G37*
G36*
X921190Y85890D02*
X915370D01*
Y78520D01*
X921190D01*
Y85890D01*
D02*
G37*
G36*
X912830D02*
X907010D01*
Y78520D01*
X912830D01*
Y85890D01*
D02*
G37*
G36*
X586500Y94800D02*
X566500D01*
X566500Y75742D01*
Y75667D01*
D01*
X566500Y75548D01*
X566252Y75419D01*
X565230Y74886D01*
X564616Y75297D01*
X563250Y75569D01*
X542500D01*
Y94800D01*
X522500D01*
Y75569D01*
X507000D01*
X505634Y75297D01*
X504477Y74523D01*
X458022Y28069D01*
X452693D01*
X452610Y29339D01*
X454467Y29583D01*
X456906Y30593D01*
X459000Y32200D01*
X460607Y34294D01*
X461617Y36733D01*
X461962Y39350D01*
X461617Y41967D01*
X460607Y44406D01*
X459000Y46500D01*
X456906Y48107D01*
X454467Y49117D01*
X451850Y49461D01*
X449233Y49117D01*
X446794Y48107D01*
X444700Y46500D01*
X443093Y44406D01*
X442083Y41967D01*
X441739Y39350D01*
X442083Y36733D01*
X443093Y34294D01*
X444700Y32200D01*
X446794Y30593D01*
X449233Y29583D01*
X451090Y29339D01*
X451007Y28069D01*
X442778D01*
X435601Y35246D01*
X436217Y36733D01*
X436562Y39350D01*
X436217Y41967D01*
X435207Y44406D01*
X433600Y46500D01*
X431506Y48107D01*
X429067Y49117D01*
X426450Y49461D01*
X423833Y49117D01*
X421394Y48107D01*
X419300Y46500D01*
X417693Y44406D01*
X416683Y41967D01*
X416339Y39350D01*
X416683Y36733D01*
X417693Y34294D01*
X419300Y32200D01*
X421394Y30593D01*
X423833Y29583D01*
X426450Y29239D01*
X429067Y29583D01*
X430554Y30199D01*
X438777Y21977D01*
X439357Y21589D01*
X438972Y20319D01*
X399728D01*
X384801Y35246D01*
X385417Y36733D01*
X385761Y39350D01*
X385417Y41967D01*
X384407Y44406D01*
X382800Y46500D01*
X380706Y48107D01*
X378267Y49117D01*
X375650Y49461D01*
X373033Y49117D01*
X370594Y48107D01*
X368500Y46500D01*
X366893Y44406D01*
X365883Y41967D01*
X365538Y39350D01*
X365883Y36733D01*
X366893Y34294D01*
X368500Y32200D01*
X370594Y30593D01*
X373033Y29583D01*
X375650Y29239D01*
X378267Y29583D01*
X379754Y30199D01*
X395727Y14227D01*
X396884Y13453D01*
X398250Y13181D01*
X466750D01*
X468116Y13453D01*
X469273Y14227D01*
X510878Y55831D01*
X523154D01*
X523765Y54357D01*
X525368Y52268D01*
X527457Y50665D01*
X529889Y49657D01*
X532500Y49314D01*
X535111Y49657D01*
X537543Y50665D01*
X539632Y52268D01*
X541235Y54357D01*
X542243Y56789D01*
X542586Y59400D01*
X542243Y62010D01*
X541235Y64443D01*
X539632Y66532D01*
X538812Y67161D01*
X539243Y68431D01*
X561772D01*
X567178Y63025D01*
X566757Y62010D01*
X566414Y59400D01*
X566757Y56789D01*
X567765Y54357D01*
X569368Y52268D01*
X571457Y50665D01*
X573890Y49657D01*
X576500Y49314D01*
X579110Y49657D01*
X581543Y50665D01*
X583632Y52268D01*
X585235Y54357D01*
X586243Y56789D01*
X586586Y59400D01*
X586243Y62010D01*
X585235Y64443D01*
X583632Y66532D01*
X581543Y68135D01*
X579110Y69143D01*
X576500Y69486D01*
X573890Y69143D01*
X571955Y68341D01*
X566767Y73530D01*
X567293Y74800D01*
X567404Y74800D01*
X567404Y74800D01*
X567460Y74800D01*
X586500D01*
Y94800D01*
D02*
G37*
G36*
X866000Y88832D02*
X863520Y88505D01*
X861209Y87548D01*
X859224Y86025D01*
X857702Y84041D01*
X856745Y81730D01*
X856418Y79250D01*
X856745Y76770D01*
X857702Y74459D01*
X859224Y72475D01*
X861209Y70952D01*
X863520Y69995D01*
X866000Y69668D01*
X868480Y69995D01*
X870791Y70952D01*
X872775Y72475D01*
X873580Y73523D01*
X874850Y73092D01*
Y69150D01*
X887950D01*
Y85350D01*
X874850D01*
Y85350D01*
X873580Y84977D01*
X872775Y86025D01*
X870791Y87548D01*
X868480Y88505D01*
X866000Y88832D01*
D02*
G37*
G36*
X921190Y75980D02*
X915370D01*
Y68610D01*
X921190D01*
Y75980D01*
D02*
G37*
G36*
X912830D02*
X907010D01*
Y68610D01*
X912830D01*
Y75980D01*
D02*
G37*
G36*
X461875Y74775D02*
X441825D01*
Y54725D01*
X461875D01*
Y74775D01*
D02*
G37*
G36*
X241525D02*
X221475D01*
Y54725D01*
X241525D01*
Y74775D01*
D02*
G37*
G36*
X426450Y74861D02*
X423833Y74517D01*
X421394Y73507D01*
X419300Y71900D01*
X417693Y69806D01*
X416683Y67367D01*
X416339Y64750D01*
X416683Y62133D01*
X417693Y59694D01*
X419300Y57600D01*
X421394Y55993D01*
X423833Y54983D01*
X426450Y54639D01*
X429067Y54983D01*
X431506Y55993D01*
X433600Y57600D01*
X435207Y59694D01*
X436217Y62133D01*
X436562Y64750D01*
X436217Y67367D01*
X435207Y69806D01*
X433600Y71900D01*
X431506Y73507D01*
X429067Y74517D01*
X426450Y74861D01*
D02*
G37*
G36*
X401050D02*
X398433Y74517D01*
X395994Y73507D01*
X393900Y71900D01*
X392293Y69806D01*
X391283Y67367D01*
X390938Y64750D01*
X391283Y62133D01*
X392293Y59694D01*
X393900Y57600D01*
X395994Y55993D01*
X398433Y54983D01*
X401050Y54639D01*
X403667Y54983D01*
X406106Y55993D01*
X408200Y57600D01*
X409807Y59694D01*
X410817Y62133D01*
X411161Y64750D01*
X410817Y67367D01*
X409807Y69806D01*
X408200Y71900D01*
X406106Y73507D01*
X403667Y74517D01*
X401050Y74861D01*
D02*
G37*
G36*
X375650D02*
X373033Y74517D01*
X370594Y73507D01*
X368500Y71900D01*
X366893Y69806D01*
X365883Y67367D01*
X365538Y64750D01*
X365883Y62133D01*
X366893Y59694D01*
X368500Y57600D01*
X370594Y55993D01*
X373033Y54983D01*
X375650Y54639D01*
X378267Y54983D01*
X380706Y55993D01*
X382800Y57600D01*
X384407Y59694D01*
X385417Y62133D01*
X385761Y64750D01*
X385417Y67367D01*
X384407Y69806D01*
X382800Y71900D01*
X380706Y73507D01*
X378267Y74517D01*
X375650Y74861D01*
D02*
G37*
G36*
X180700D02*
X178083Y74517D01*
X175644Y73507D01*
X173550Y71900D01*
X171943Y69806D01*
X170933Y67367D01*
X170588Y64750D01*
X170933Y62133D01*
X171943Y59694D01*
X173550Y57600D01*
X175644Y55993D01*
X178083Y54983D01*
X180700Y54639D01*
X183317Y54983D01*
X185756Y55993D01*
X187850Y57600D01*
X189457Y59694D01*
X190467Y62133D01*
X190812Y64750D01*
X190467Y67367D01*
X189457Y69806D01*
X187850Y71900D01*
X185756Y73507D01*
X183317Y74517D01*
X180700Y74861D01*
D02*
G37*
G36*
X351520Y49839D02*
Y40620D01*
X360739D01*
X360543Y42108D01*
X359478Y44678D01*
X357785Y46885D01*
X355578Y48579D01*
X353008Y49643D01*
X351520Y49839D01*
D02*
G37*
G36*
X348980Y49839D02*
X347492Y49643D01*
X344922Y48579D01*
X342715Y46885D01*
X341021Y44678D01*
X339957Y42108D01*
X339761Y40620D01*
X348980D01*
Y49839D01*
D02*
G37*
G36*
X401050Y49461D02*
X398433Y49117D01*
X395994Y48107D01*
X393900Y46500D01*
X392293Y44406D01*
X391283Y41967D01*
X390938Y39350D01*
X391283Y36733D01*
X392293Y34294D01*
X393900Y32200D01*
X395994Y30593D01*
X398433Y29583D01*
X401050Y29239D01*
X403667Y29583D01*
X406106Y30593D01*
X408200Y32200D01*
X409807Y34294D01*
X410817Y36733D01*
X411161Y39350D01*
X410817Y41967D01*
X409807Y44406D01*
X408200Y46500D01*
X406106Y48107D01*
X403667Y49117D01*
X401050Y49461D01*
D02*
G37*
G36*
X348980Y38080D02*
X339761D01*
X339957Y36592D01*
X341021Y34022D01*
X342715Y31815D01*
X344922Y30122D01*
X347492Y29057D01*
X348980Y28861D01*
Y38080D01*
D02*
G37*
G36*
X360739D02*
X351520D01*
Y28861D01*
X353008Y29057D01*
X355578Y30122D01*
X357785Y31815D01*
X359478Y34022D01*
X360543Y36592D01*
X360739Y38080D01*
D02*
G37*
G36*
X576500Y44086D02*
X573890Y43743D01*
X571457Y42735D01*
X569368Y41132D01*
X567765Y39043D01*
X566757Y36611D01*
X566414Y34000D01*
X566757Y31390D01*
X567765Y28957D01*
X569368Y26868D01*
X571457Y25265D01*
X573890Y24257D01*
X576500Y23914D01*
X579110Y24257D01*
X581543Y25265D01*
X583632Y26868D01*
X585235Y28957D01*
X586243Y31390D01*
X586586Y34000D01*
X586243Y36611D01*
X585235Y39043D01*
X583632Y41132D01*
X581543Y42735D01*
X579110Y43743D01*
X576500Y44086D01*
D02*
G37*
G36*
X532500D02*
X529889Y43743D01*
X527457Y42735D01*
X525368Y41132D01*
X523765Y39043D01*
X522757Y36611D01*
X522414Y34000D01*
X522757Y31390D01*
X523765Y28957D01*
X525368Y26868D01*
X527457Y25265D01*
X529889Y24257D01*
X532500Y23914D01*
X535111Y24257D01*
X537543Y25265D01*
X539632Y26868D01*
X541235Y28957D01*
X542243Y31390D01*
X542586Y34000D01*
X542243Y36611D01*
X541235Y39043D01*
X539632Y41132D01*
X537543Y42735D01*
X535111Y43743D01*
X532500Y44086D01*
D02*
G37*
%LPD*%
G36*
X427892Y779642D02*
X428974Y778920D01*
X430250Y778666D01*
X473262D01*
X473924Y777674D01*
X475909Y776348D01*
X478250Y775882D01*
X478944Y776021D01*
X479708Y774877D01*
X479011Y773834D01*
X429631D01*
X378107Y825358D01*
X377026Y826080D01*
X375750Y826334D01*
X321327D01*
X321018Y827022D01*
X320975Y827604D01*
X322911Y829089D01*
X324520Y831187D01*
X325532Y833629D01*
X325709Y834980D01*
X315750D01*
X305791D01*
X305968Y833629D01*
X306980Y831187D01*
X308589Y829089D01*
X310525Y827604D01*
X310482Y827022D01*
X310173Y826334D01*
X250500D01*
X250500Y826334D01*
X241500D01*
X240224Y826080D01*
X239142Y825358D01*
X152257Y738472D01*
X151084Y738959D01*
Y747869D01*
X248631Y845416D01*
X309117D01*
X309548Y844146D01*
X308589Y843411D01*
X306980Y841313D01*
X305968Y838871D01*
X305791Y837520D01*
X315750D01*
X325709D01*
X325532Y838871D01*
X324520Y841313D01*
X322911Y843411D01*
X321952Y844146D01*
X322383Y845416D01*
X362119D01*
X427892Y779642D01*
D02*
G37*
D10*
X312114Y642250D02*
X374000D01*
X240270Y714094D02*
Y747282D01*
Y714094D02*
X312114Y642250D01*
X235230Y712770D02*
Y747282D01*
X310250Y637750D02*
X368823D01*
X235230Y712770D02*
X310250Y637750D01*
X378321Y622679D02*
X378500Y622858D01*
Y637750D01*
X374000Y642250D02*
X378500Y637750D01*
X371056Y629944D02*
X371250Y629750D01*
X371056Y629944D02*
Y635517D01*
X368823Y637750D02*
X371056Y635517D01*
X232750Y749762D02*
X235230Y747282D01*
X232750Y749762D02*
Y751250D01*
X240270Y747282D02*
X242750Y749762D01*
Y751250D01*
D16*
X875750Y708500D02*
X891000Y693250D01*
Y686000D02*
X892500Y684500D01*
X891000Y686000D02*
Y693250D01*
X720275Y383925D02*
Y434355D01*
X64750Y699250D02*
X117500Y752000D01*
X50000Y699250D02*
X64750D01*
X240000Y350500D02*
X257500Y333000D01*
X67000Y337400D02*
X120650D01*
X133750Y350500D01*
X240000D01*
X576858Y599158D02*
X616195Y559821D01*
X576858Y599158D02*
Y784663D01*
X537521Y824000D02*
X576858Y784663D01*
X447476Y824000D02*
X537521D01*
X415000Y856476D02*
X447476Y824000D01*
X636571Y559821D02*
X639500Y562750D01*
X616195Y559821D02*
X636571D01*
X415000Y856476D02*
Y858000D01*
X428750Y815500D02*
X515000D01*
X449500Y836312D02*
X452000Y838812D01*
Y854750D01*
X419500Y806250D02*
X428750Y815500D01*
X401750Y1004000D02*
X417250Y988500D01*
Y952500D02*
Y988500D01*
X449500Y835500D02*
Y836312D01*
X856500Y970100D02*
X876250Y989850D01*
X696500Y970100D02*
X856500D01*
X614375Y952875D02*
X846625D01*
X848250Y954500D01*
X676750Y989850D02*
X696500Y970100D01*
X324000Y923000D02*
X389000Y858000D01*
X227000Y923000D02*
X324000D01*
X389000Y858000D02*
X415000D01*
X156750Y852750D02*
X227000Y923000D01*
X120250Y489250D02*
X302000D01*
X353500Y437750D02*
X469000D01*
X302000Y489250D02*
X353500Y437750D01*
X344500Y367500D02*
X435750D01*
X327500Y384500D02*
X344500Y367500D01*
X436000Y367750D02*
X489000Y420750D01*
X435750Y367500D02*
X436000Y367750D01*
Y391250D01*
X383750Y419250D02*
X408000D01*
X436000Y391250D01*
X469000Y437750D02*
X505750Y474500D01*
X663500Y474250D02*
Y538750D01*
X639500Y562750D02*
X663500Y538750D01*
X507250Y458250D02*
X647500D01*
X663500Y474250D01*
X505750Y474500D02*
X638250D01*
X489000Y440000D02*
X507250Y458250D01*
X489000Y420750D02*
Y440000D01*
X11750Y157000D02*
Y413000D01*
Y157000D02*
X129400Y39350D01*
X11750Y413000D02*
X42000Y443250D01*
X46520D01*
X129400Y39350D02*
X180700D01*
X738500Y236000D02*
X759000Y215500D01*
Y203250D02*
Y215500D01*
X108250Y501250D02*
X120250Y489250D01*
X914100Y192850D02*
Y221750D01*
Y163950D02*
Y192850D01*
Y135050D02*
Y163950D01*
Y106150D02*
Y135050D01*
Y77250D02*
Y106150D01*
X881075Y193175D02*
X881400Y192850D01*
X864825Y193175D02*
X881075D01*
X864500Y193500D02*
X864825Y193175D01*
X720275Y383925D02*
X720700Y383500D01*
X719850Y434780D02*
X720275Y434355D01*
X639500Y562750D02*
Y581750D01*
X156750Y791250D02*
Y852750D01*
X117500Y752000D02*
X156750Y791250D01*
X75250Y794250D02*
Y889250D01*
Y794250D02*
X117500Y752000D01*
X48500Y916000D02*
X75250Y889250D01*
X48500Y1041000D02*
X63250Y1055750D01*
X48500Y916000D02*
Y1041000D01*
X534500Y795500D02*
X544250Y805250D01*
X482750Y795500D02*
X534500D01*
X684800Y773000D02*
Y788250D01*
Y738550D02*
Y773000D01*
X779500D02*
X794750Y757750D01*
X684800Y773000D02*
X779500D01*
X684800Y788250D02*
Y844050D01*
X657650Y788050D02*
X657850Y788250D01*
X684800D01*
X657650Y730800D02*
X658950Y729500D01*
X675750D01*
X684800Y738550D01*
X702000Y861250D02*
Y912250D01*
X684800Y844050D02*
X702000Y861250D01*
X657650Y844050D02*
X684800D01*
X436000Y854750D02*
Y854875D01*
X434500Y856375D02*
X436000Y854875D01*
X416625Y856375D02*
X434500D01*
X453000Y948750D02*
Y966571D01*
X450071Y969500D02*
X453000Y966571D01*
X450000Y969500D02*
X450071D01*
X437000Y948750D02*
Y949125D01*
X435500Y950625D02*
X437000Y949125D01*
X419125Y950625D02*
X435500D01*
X417250Y952500D02*
X419125Y950625D01*
X479250Y1001000D02*
X493610Y986639D01*
X496067D01*
X479250Y1001000D02*
Y1003000D01*
X378500Y1039000D02*
X381000Y1041500D01*
X389188D01*
X393938Y1046250D01*
X394750D01*
X458875Y1076625D02*
X459250Y1076250D01*
X421125Y1076625D02*
X458875D01*
X420750Y1077000D02*
X421125Y1076625D01*
X426250Y1102250D02*
Y1104250D01*
X439750Y1117750D01*
X471150D01*
X484650Y1104250D01*
X484500Y1104100D02*
X484650Y1104250D01*
X484500Y1091250D02*
Y1104100D01*
X494500Y1081250D02*
X530250D01*
X484500Y1091250D02*
X494500Y1081250D01*
X530250D02*
X566500Y1045000D01*
X900500D01*
X888950Y1015250D02*
X902321D01*
X905250Y1018179D01*
Y1040250D01*
X900500Y1045000D02*
X905250Y1040250D01*
X459250Y1076250D02*
Y1104250D01*
X510050Y1028050D02*
X510150Y1028150D01*
Y1047400D01*
X510250Y1047500D01*
X459250Y1056250D02*
X461250D01*
X483104Y1034396D01*
Y1029596D02*
Y1034396D01*
Y1029596D02*
X484650Y1028050D01*
X459250Y1003000D02*
Y1028050D01*
X459250Y1003000D02*
X459250Y1003000D01*
X690700Y1014000D02*
X724250D01*
X689450Y1015250D02*
X690700Y1014000D01*
X777250Y989750D02*
X789900Y977100D01*
X812700D01*
X825450Y989850D01*
X724000Y994750D02*
X724250Y995000D01*
X703006Y994750D02*
X724000D01*
X698106Y989850D02*
X703006Y994750D01*
X676750Y989850D02*
X698106D01*
X712200Y1038000D02*
X884071D01*
X887000Y1035071D01*
Y1017200D02*
Y1035071D01*
Y1017200D02*
X888950Y1015250D01*
X825400Y1028000D02*
X838150Y1015250D01*
X789206Y1028000D02*
X825400D01*
X787206Y1026000D02*
X789206Y1028000D01*
X784500Y1026000D02*
X787206D01*
X689450Y1015250D02*
X712200Y1038000D01*
X614375Y952875D02*
X651350Y989850D01*
X589000Y927500D02*
X614375Y952875D01*
X408500Y927500D02*
X589000D01*
X400150Y935850D02*
X408500Y927500D01*
X394650Y953500D02*
X400150Y948000D01*
Y935850D02*
Y948000D01*
D18*
X250500Y823000D02*
X375750D01*
X216430Y774680D02*
X324604D01*
X332674Y782750D01*
X262000Y873500D02*
X354500D01*
X250500Y823000D02*
X250500Y823000D01*
X375750D02*
X428250Y770500D01*
X241500Y823000D02*
X250500D01*
X354500Y873500D02*
X408000Y820000D01*
X143210Y754710D02*
X262000Y873500D01*
X606227Y153500D02*
X611478Y148250D01*
X756532D01*
X759782Y151500D01*
X760750D01*
X604750Y153500D02*
X606227D01*
X236500Y296000D02*
X251734D01*
X259754Y287980D01*
X275730D01*
X285500Y297750D01*
X55250Y538750D02*
Y542000D01*
Y538750D02*
X67750Y526250D01*
X287000Y674750D02*
X335250D01*
X344250Y683750D02*
Y698500D01*
X335250Y674750D02*
X344250Y683750D01*
X261540Y700210D02*
X287000Y674750D01*
X282250Y697250D02*
Y757250D01*
X289005Y690495D02*
X324495D01*
X282250Y697250D02*
X289005Y690495D01*
X282215Y685955D02*
X331455D01*
X272500Y695670D02*
Y748000D01*
Y695670D02*
X282215Y685955D01*
X261540Y700210D02*
Y738960D01*
X41207Y558543D02*
X53457D01*
X79500Y441250D02*
Y532500D01*
X53457Y558543D02*
X79500Y532500D01*
X40490Y559260D02*
X41207Y558543D01*
X67750Y429000D02*
Y526250D01*
X67000Y312000D02*
X137500Y241500D01*
Y123500D02*
Y241500D01*
Y123500D02*
X158375Y102625D01*
X128750Y118250D02*
Y224850D01*
Y118250D02*
X162000Y85000D01*
X67000Y286600D02*
X128750Y224850D01*
X378500Y544000D02*
Y553798D01*
X492250Y667548D01*
Y668250D01*
X424750Y606469D02*
Y630750D01*
X382761Y564480D02*
X424750Y606469D01*
X373750Y564480D02*
X382761D01*
X560250Y183250D02*
Y194250D01*
X600000Y234000D01*
X215750Y748500D02*
X221000Y743250D01*
Y711750D02*
X326000Y606750D01*
X221000Y711750D02*
Y743250D01*
X326000Y606750D02*
X414750D01*
X502750Y509250D02*
X503250Y508750D01*
X467500Y509250D02*
X502750D01*
X467000Y509750D02*
X467500Y509250D01*
X293135Y699635D02*
Y746635D01*
X293750Y747250D01*
X340000Y398500D02*
Y434500D01*
X309750Y464750D02*
X340000Y434500D01*
X211500Y480000D02*
X222250D01*
X161000Y436250D02*
X164072Y439322D01*
X170822D01*
X211500Y480000D01*
X192250Y750500D02*
X216430Y774680D01*
X180250Y752250D02*
X213450Y785450D01*
X278700Y785450D02*
X315750D01*
X278700Y785450D02*
X278700Y785450D01*
X213450Y785450D02*
X278700D01*
X180250Y597020D02*
Y752250D01*
X162250Y579020D02*
X180250Y597020D01*
X204750Y616250D02*
X222250D01*
X488066Y693650D02*
X492250D01*
X483848Y689432D02*
X488066Y693650D01*
X483432Y689432D02*
X483848D01*
X424750Y630750D02*
X483432Y689432D01*
X152290Y578699D02*
Y733790D01*
X428250Y770500D02*
X483750D01*
X484500Y771250D01*
X152290Y733790D02*
X241500Y823000D01*
X312760Y699274D02*
Y757260D01*
X313000Y757500D01*
X220960Y767960D02*
X347460D01*
X530000Y762250D02*
X549250Y781500D01*
X407750Y762250D02*
X530000D01*
X391790Y778210D02*
X407750Y762250D01*
X357710Y778210D02*
X391790D01*
X347460Y767960D02*
X357710Y778210D01*
X372000Y479750D02*
X375750D01*
X399500Y456000D02*
X467750D01*
X375750Y479750D02*
X399500Y456000D01*
X322520Y699034D02*
Y755542D01*
X324750Y757773D02*
Y759250D01*
X322520Y755542D02*
X324750Y757773D01*
X147750Y567988D02*
Y749250D01*
X430250Y782000D02*
X478250D01*
X247250Y848750D02*
X363500D01*
X147750Y749250D02*
X247250Y848750D01*
X363500D02*
X430250Y782000D01*
X510000Y435000D02*
X637250D01*
X361147Y476917D02*
Y482147D01*
X366750Y487750D02*
X464000D01*
X361147Y482147D02*
X366750Y487750D01*
X206500Y667750D02*
X235250Y639000D01*
X206500Y667750D02*
Y705750D01*
X454781Y507250D02*
X471270Y490761D01*
X143210Y543790D02*
Y754710D01*
X301510Y700048D02*
Y756490D01*
X300500Y757500D02*
X301510Y756490D01*
X270500Y385000D02*
X310250Y424750D01*
X270500Y295250D02*
Y385000D01*
X358219Y768500D02*
X375000D01*
X289940Y436310D02*
X290750Y435500D01*
X275250Y444000D02*
X282940Y436310D01*
X289940D01*
X509500Y408500D02*
X633750D01*
X361000Y689000D02*
Y761000D01*
X292520Y699020D02*
X293135Y699635D01*
X187000Y508500D02*
Y545000D01*
X160250Y571750D02*
X187000Y545000D01*
X159239Y571750D02*
X160250D01*
X152290Y578699D02*
X159239Y571750D01*
X354500Y470270D02*
X361147Y476917D01*
X324495Y690495D02*
X332750Y698750D01*
X312520Y699034D02*
X312760Y699274D01*
X196750Y731000D02*
X206230Y740480D01*
Y753230D01*
X220960Y767960D01*
X331455Y685955D02*
X332500Y687000D01*
X166250Y509750D02*
X177000Y520500D01*
Y529000D01*
X157040Y548960D02*
X177000Y529000D01*
X157040Y548960D02*
Y565012D01*
X155552Y566500D02*
X157040Y565012D01*
X149238Y566500D02*
X155552D01*
X147750Y567988D02*
X149238Y566500D01*
X352500Y689500D02*
Y762781D01*
X358219Y768500D01*
X374250Y503750D02*
X380281D01*
X383781Y507250D01*
X454781D01*
X143210Y543790D02*
X166000Y521000D01*
X301510Y700048D02*
X302520Y699038D01*
X361000Y689000D02*
X381250Y668750D01*
X260500Y740000D02*
X261540Y738960D01*
X467000Y469500D02*
Y478734D01*
X471270Y483004D01*
Y490761D01*
X222250Y616250D02*
X222750Y616750D01*
X332674Y782750D02*
X402000D01*
X74750Y964000D02*
X76250Y962500D01*
X92750D01*
X79750Y987730D02*
Y1000000D01*
X76020Y984000D02*
X79750Y987730D01*
X74750Y984000D02*
X76020D01*
X637250Y435000D02*
X686930D01*
X596750Y215023D02*
Y216500D01*
X592250Y210522D02*
X596750Y215023D01*
X592250Y135750D02*
Y210522D01*
X600000Y234000D02*
X609000D01*
X633750Y408500D02*
X686760D01*
X616250Y211500D02*
X616270D01*
X636250Y384250D02*
X687250D01*
X543452D02*
X636250D01*
X169455Y103205D02*
X170500Y104250D01*
X166862Y103205D02*
X169455D01*
X158375Y102625D02*
X166282D01*
X166862Y103205D01*
X158375Y102625D02*
X172500Y88500D01*
X203000D02*
X206100Y85400D01*
Y64750D02*
Y85400D01*
X172500Y88500D02*
X203000D01*
X989500Y244750D02*
X1012500D01*
X988250Y243500D02*
X989500Y244750D01*
X988250Y294750D02*
X1012500D01*
X988250Y294750D02*
X988250Y294750D01*
X989250Y344750D02*
X1012500D01*
X988250Y345750D02*
X989250Y344750D01*
X990000Y394750D02*
X1012500D01*
X988250Y393000D02*
X990000Y394750D01*
X991250Y444750D02*
X1012500D01*
X988250Y441750D02*
X991250Y444750D01*
X990250Y494750D02*
X1012500D01*
X988250Y492750D02*
X990250Y494750D01*
X989500Y544750D02*
X1012500D01*
X988250Y543500D02*
X989500Y544750D01*
X988750Y594750D02*
X1012500D01*
X988250Y595250D02*
X988750Y594750D01*
X991980Y644750D02*
X1012500D01*
X988250Y641020D02*
X991980Y644750D01*
X988250Y640500D02*
Y641020D01*
X606250Y201500D02*
X616250Y211500D01*
X606250Y179000D02*
Y201500D01*
X606500Y165500D02*
X699738D01*
X606250Y165750D02*
X606500Y165500D01*
X686930Y435000D02*
X687150Y434780D01*
X533560Y398064D02*
Y399542D01*
X531752Y396256D02*
X533560Y398064D01*
X531752Y395950D02*
Y396256D01*
Y395950D02*
X543452Y384250D01*
X687250D02*
X688000Y383500D01*
X686760Y408500D02*
X687400Y409140D01*
D26*
X44750Y165000D02*
D03*
Y185000D02*
D03*
X74750Y984000D02*
D03*
Y964000D02*
D03*
X359250Y279000D02*
D03*
Y299000D02*
D03*
X209750Y279000D02*
D03*
Y299000D02*
D03*
X378500Y1059000D02*
D03*
Y1039000D02*
D03*
X459250Y1076250D02*
D03*
Y1056250D02*
D03*
D30*
X892500Y684500D02*
D03*
X908500D02*
D03*
X453000Y948750D02*
D03*
X437000D02*
D03*
X633250Y683000D02*
D03*
X649250D02*
D03*
X452000Y854750D02*
D03*
X436000D02*
D03*
X222750Y616750D02*
D03*
X238750D02*
D03*
X24250Y208750D02*
D03*
X40250D02*
D03*
X24250Y298250D02*
D03*
X40250D02*
D03*
X24250Y280350D02*
D03*
X40250D02*
D03*
X24250Y226650D02*
D03*
X40250D02*
D03*
X24250Y244550D02*
D03*
X40250D02*
D03*
X24250Y262450D02*
D03*
X40250D02*
D03*
D31*
X400750Y1077000D02*
D03*
X420750D02*
D03*
X406250Y1102250D02*
D03*
X426250D02*
D03*
X479250Y1003000D02*
D03*
X459250D02*
D03*
X530250Y1047500D02*
D03*
X510250D02*
D03*
X968250Y243500D02*
D03*
X988250D02*
D03*
X968250Y294750D02*
D03*
X988250D02*
D03*
X968250Y345750D02*
D03*
X988250D02*
D03*
X968250Y393000D02*
D03*
X988250D02*
D03*
X968250Y441750D02*
D03*
X988250D02*
D03*
X968250Y492750D02*
D03*
X988250D02*
D03*
X968250Y543500D02*
D03*
X988250D02*
D03*
X968250Y595250D02*
D03*
X988250D02*
D03*
X968250Y640500D02*
D03*
X988250D02*
D03*
D44*
X724250Y995000D02*
D03*
Y1014000D02*
D03*
X746750Y1004500D02*
D03*
D111*
X56750Y508750D02*
X57520Y507980D01*
Y427770D02*
Y507980D01*
X49250Y419500D02*
X57520Y427770D01*
X60750Y172750D02*
X73000D01*
X44750Y165000D02*
X46243Y166493D01*
X54493D01*
X60750Y172750D01*
X80750Y180500D02*
Y265000D01*
X73000Y172750D02*
X80750Y180500D01*
X58007Y274250D02*
X71500D01*
X80750Y265000D01*
X56250Y276007D02*
Y326650D01*
Y276007D02*
X58007Y274250D01*
X152000Y337400D02*
X175000Y314400D01*
Y283250D02*
X203000Y255250D01*
X252250D01*
X175000Y283250D02*
Y314400D01*
X252250Y255250D02*
X262250Y265250D01*
Y279500D01*
X152000Y285000D02*
Y286600D01*
Y285000D02*
X191750Y245250D01*
X337000Y252757D02*
Y279500D01*
X191750Y245250D02*
X329493D01*
X337000Y252757D01*
X65546Y234346D02*
X67000Y235800D01*
X58096Y234346D02*
X65546D01*
X299250Y268000D02*
Y279250D01*
X67000Y362800D02*
X67850Y363650D01*
X119900D02*
X120750Y364500D01*
X67850Y363650D02*
X119900D01*
X152000Y261200D02*
X163800D01*
X413750Y246757D02*
Y280000D01*
X407243Y240250D02*
X413750Y246757D01*
X163800Y261200D02*
X184750Y240250D01*
X407243D01*
X439500Y235250D02*
X452000Y247750D01*
X152550Y235250D02*
X439500D01*
X452000Y247750D02*
Y279403D01*
X451510Y279894D02*
X452000Y279403D01*
X225250Y230250D02*
X481750D01*
X488750Y237250D01*
Y280750D01*
X489250Y281250D01*
X152000Y235800D02*
X152550Y235250D01*
X152000Y337400D02*
Y337400D01*
X56250Y326650D02*
X67000Y337400D01*
X152000Y312000D02*
X167500Y296500D01*
Y280000D02*
Y296500D01*
Y280000D02*
X197250Y250250D01*
X281500D01*
X299250Y268000D01*
X152000Y210400D02*
X205400D01*
X225250Y230250D01*
X301500Y999625D02*
X367625D01*
X413250Y1045250D01*
X290250Y1009750D02*
X291207Y1010707D01*
X296457D01*
X333000Y1047250D01*
X375650Y39350D02*
X398250Y16750D01*
X466750D02*
X509400Y59400D01*
X398250Y16750D02*
X466750D01*
X385763Y531250D02*
X387520Y533007D01*
X492250Y619250D02*
Y642850D01*
X451000Y578000D02*
X492250Y619250D01*
X419246Y578000D02*
X451000D01*
X387520Y546274D02*
X419246Y578000D01*
X387520Y533007D02*
Y546274D01*
X376250Y531250D02*
X385763D01*
X707750Y126500D02*
X761750D01*
X698250Y117000D02*
X707750Y126500D01*
X341250Y1111500D02*
X342000Y1112250D01*
X341250Y1095750D02*
Y1111500D01*
X340500Y1095000D02*
X341250Y1095750D01*
X373322Y1101822D02*
X374000Y1102500D01*
X378500Y1059000D02*
Y1082500D01*
X370750Y1090250D02*
X378500Y1082500D01*
X400750Y1077000D02*
Y1079000D01*
X392457Y1087293D02*
X400750Y1079000D01*
X392457Y1087293D02*
Y1093293D01*
X391500Y1094250D02*
X392457Y1093293D01*
X406000Y1102500D02*
X406250Y1102250D01*
X374000Y1102500D02*
X406000D01*
X220500Y210500D02*
X252250D01*
X704196Y139593D02*
X706103Y141500D01*
X702843Y139593D02*
X704196D01*
X706103Y141500D02*
X761000D01*
X761750Y140750D01*
X367000Y271250D02*
X383500D01*
X359250Y279000D02*
X367000Y271250D01*
X252250Y210500D02*
X288750D01*
X252250Y219250D02*
X253000Y220000D01*
X252250Y210500D02*
Y219250D01*
X288750Y210500D02*
X326750D01*
X289750Y220000D02*
X289750Y220000D01*
X289750Y211500D02*
Y220000D01*
X288750Y210500D02*
X289750Y211500D01*
X326750Y210500D02*
X363750D01*
X327750Y220000D02*
X327750Y220000D01*
X327750Y211500D02*
Y220000D01*
X326750Y210500D02*
X327750Y211500D01*
X363750Y210500D02*
X403750D01*
X364750Y211500D02*
Y220250D01*
X363750Y210500D02*
X364750Y211500D01*
X403750Y210500D02*
X441750D01*
X403750Y218250D02*
X404500Y219000D01*
X403750Y210500D02*
Y218250D01*
X441750Y210500D02*
X473000D01*
X441750Y219500D02*
X442000Y219750D01*
X441750Y210500D02*
Y219500D01*
X473000Y210500D02*
X482000Y219500D01*
X209750Y278250D02*
X224250D01*
X575850Y59400D02*
X576500D01*
X563250Y72000D02*
X575850Y59400D01*
X459500Y24500D02*
X507000Y72000D01*
X563250D01*
X426450Y39350D02*
X441300Y24500D01*
X459500D01*
X509400Y59400D02*
X532500D01*
X54000Y230250D02*
X58096Y234346D01*
X44750Y185000D02*
X46750D01*
X50250Y188500D01*
Y190500D01*
X54000Y194250D01*
Y230250D01*
X40250Y208750D02*
Y243550D01*
Y244550D02*
Y280350D01*
Y243550D02*
X48000Y235800D01*
X67000D01*
X40250Y280350D02*
Y298250D01*
Y243550D02*
Y244550D01*
D112*
X24250D02*
Y280350D01*
Y208750D02*
Y244550D01*
X93750Y432194D02*
Y476250D01*
X64528Y402972D02*
X93750Y432194D01*
X52972Y402972D02*
X64528D01*
X23750Y373750D02*
X52972Y402972D01*
X40250Y81750D02*
X101000Y21000D01*
X213150D01*
X231500Y39350D01*
X24250Y280350D02*
Y298250D01*
D113*
X880000Y629250D02*
X882125Y627125D01*
X879875Y612250D02*
X880250D01*
X882125Y610375D01*
X615750Y662250D02*
X632250Y678750D01*
Y682000D01*
X633250Y683000D01*
X460000Y353000D02*
X525250Y287750D01*
X573250D01*
X350250Y64750D02*
X573250Y287750D01*
X822000D01*
X885000Y350750D01*
Y393000D01*
X968250D01*
X615750Y662250D02*
X885000Y393000D01*
X968250Y294750D02*
Y345750D01*
Y595250D02*
Y640500D01*
Y543500D02*
Y595250D01*
Y492750D02*
Y543500D01*
Y441750D02*
Y492750D01*
Y393000D02*
Y441750D01*
Y345750D02*
Y393000D01*
Y243500D02*
Y294750D01*
Y139000D02*
X1012500Y94750D01*
X968250Y139000D02*
Y243500D01*
D114*
X879400Y79250D02*
X881400Y77250D01*
X866000Y79250D02*
X879400D01*
X880300Y107250D02*
X881400Y106150D01*
X864500Y107250D02*
X880300D01*
X825000Y137750D02*
X878850D01*
X810250Y98750D02*
Y123000D01*
X825000Y137750D01*
X878850D02*
X881400Y135200D01*
Y135050D02*
Y135200D01*
X880200Y222950D02*
X881400Y221750D01*
X880200Y222950D02*
Y241050D01*
X879000Y242250D02*
X880200Y241050D01*
X687000Y184000D02*
X699485Y196485D01*
Y203235D01*
X700250Y204000D01*
X812700Y163950D02*
X865250D01*
X881400D01*
X796000Y147250D02*
X812700Y163950D01*
X796000Y99000D02*
Y147250D01*
D116*
X315750Y785450D02*
D03*
X443000Y597500D02*
D03*
X432500Y558750D02*
D03*
X432000Y525750D02*
D03*
X222500Y456250D02*
D03*
D117*
X315750Y810850D02*
D03*
Y836250D02*
D03*
Y861650D02*
D03*
Y887050D02*
D03*
X50000Y699250D02*
D03*
X460000Y353000D02*
D03*
X749250Y355750D02*
D03*
X822000Y287750D02*
D03*
X848250Y954500D02*
D03*
X383750Y419250D02*
D03*
X638250Y474500D02*
D03*
X435750Y367500D02*
D03*
X327500Y384500D02*
D03*
X23750Y373750D02*
D03*
X46520Y443250D02*
D03*
X93750Y476250D02*
D03*
X40250Y81750D02*
D03*
X633750Y408500D02*
D03*
X637250Y435000D02*
D03*
X108250Y501250D02*
D03*
X866000Y79250D02*
D03*
X864500Y107250D02*
D03*
X865000Y138750D02*
D03*
X865250Y163950D02*
D03*
X864500Y193500D02*
D03*
X879000Y242250D02*
D03*
X636250Y384250D02*
D03*
X415000Y858000D02*
D03*
X63250Y1055750D02*
D03*
X156750Y791250D02*
D03*
X794750Y757750D02*
D03*
X450000Y969500D02*
D03*
X417250Y952500D02*
D03*
X496067Y986639D02*
D03*
X777250Y989750D02*
D03*
X784500Y1026000D02*
D03*
X880250Y611875D02*
D03*
Y594500D02*
D03*
Y629250D02*
D03*
D118*
X152000Y134200D02*
D03*
D119*
Y159600D02*
D03*
Y185000D02*
D03*
Y210400D02*
D03*
Y235800D02*
D03*
Y261200D02*
D03*
Y286600D02*
D03*
Y312000D02*
D03*
Y337400D02*
D03*
Y362800D02*
D03*
X67000D02*
D03*
Y337400D02*
D03*
Y312000D02*
D03*
Y286600D02*
D03*
Y261200D02*
D03*
Y235800D02*
D03*
Y210400D02*
D03*
Y185000D02*
D03*
Y159600D02*
D03*
Y134200D02*
D03*
D120*
X875750Y708500D02*
D03*
X615750Y662250D02*
D03*
D121*
X925750Y708500D02*
D03*
X665750Y662250D02*
D03*
D122*
X110850Y822350D02*
D03*
D123*
X34650D02*
D03*
X110850Y847750D02*
D03*
X34650D02*
D03*
Y873150D02*
D03*
X110850D02*
D03*
X510050Y1028050D02*
D03*
X484650Y1104250D02*
D03*
Y1028050D02*
D03*
X459250D02*
D03*
Y1104250D02*
D03*
D124*
X510050D02*
D03*
D125*
X138250Y507250D02*
D03*
X256250Y806250D02*
D03*
X219250Y859000D02*
D03*
X406500Y635000D02*
D03*
X161000Y436250D02*
D03*
D126*
X1017650Y924950D02*
D03*
X992250D02*
D03*
X1017650Y950350D02*
D03*
X992250D02*
D03*
X1017650Y975750D02*
D03*
X196000Y1066550D02*
D03*
X221400D02*
D03*
X196000Y1041150D02*
D03*
X221400D02*
D03*
X196000Y1015750D02*
D03*
X180700Y39350D02*
D03*
Y64750D02*
D03*
X206100Y39350D02*
D03*
Y64750D02*
D03*
X231500Y39350D02*
D03*
X350250D02*
D03*
Y64750D02*
D03*
X375650Y39350D02*
D03*
Y64750D02*
D03*
X401050Y39350D02*
D03*
Y64750D02*
D03*
X426450Y39350D02*
D03*
Y64750D02*
D03*
X451850Y39350D02*
D03*
D127*
X992250Y975750D02*
D03*
X221400Y1015750D02*
D03*
D128*
X1012500Y703750D02*
D03*
Y94750D02*
D03*
D129*
Y753750D02*
D03*
Y644750D02*
D03*
Y594750D02*
D03*
Y544750D02*
D03*
Y494750D02*
D03*
Y444750D02*
D03*
Y394750D02*
D03*
Y344750D02*
D03*
Y294750D02*
D03*
Y244750D02*
D03*
Y194750D02*
D03*
Y144750D02*
D03*
D130*
X664900Y581750D02*
D03*
D131*
X639500D02*
D03*
X614100D02*
D03*
D132*
X727400Y912250D02*
D03*
X576500Y84800D02*
D03*
X532500D02*
D03*
D133*
X702000Y912250D02*
D03*
X651200D02*
D03*
X625800D02*
D03*
X600400D02*
D03*
X575000D02*
D03*
X343850Y953500D02*
D03*
X369250D02*
D03*
X576500Y34000D02*
D03*
Y59400D02*
D03*
X532500Y34000D02*
D03*
Y59400D02*
D03*
D134*
X394650Y953500D02*
D03*
D135*
X702150Y1078750D02*
D03*
X587850D02*
D03*
X901650D02*
D03*
X787350D02*
D03*
D136*
X689450Y1015250D02*
D03*
X888950D02*
D03*
D137*
X676750Y989850D02*
D03*
X664050Y1015250D02*
D03*
X651350Y989850D02*
D03*
X638650Y1015250D02*
D03*
X625950Y989850D02*
D03*
X613250Y1015250D02*
D03*
X600550Y989850D02*
D03*
X876250D02*
D03*
X863550Y1015250D02*
D03*
X850850Y989850D02*
D03*
X838150Y1015250D02*
D03*
X825450Y989850D02*
D03*
X812750Y1015250D02*
D03*
X800050Y989850D02*
D03*
D138*
X722500Y1109250D02*
D03*
X567500D02*
D03*
X922000D02*
D03*
X767000D02*
D03*
D139*
X733850Y756200D02*
D03*
Y730800D02*
D03*
X657650D02*
D03*
X733850Y813450D02*
D03*
Y788050D02*
D03*
X657650D02*
D03*
X733850Y869450D02*
D03*
Y844050D02*
D03*
X657650D02*
D03*
D140*
Y756200D02*
D03*
Y813450D02*
D03*
Y869450D02*
D03*
D141*
X492250Y719050D02*
D03*
Y668250D02*
D03*
Y693650D02*
D03*
D142*
Y642850D02*
D03*
D143*
X231500Y64750D02*
D03*
X451850D02*
D03*
D144*
X470000Y303500D02*
D03*
X404750Y289500D02*
D03*
X677500Y156750D02*
D03*
X669500Y182250D02*
D03*
X425500Y299000D02*
D03*
X377250Y281250D02*
D03*
X327500Y286250D02*
D03*
X306750Y290000D02*
D03*
X285500Y297750D02*
D03*
X236500Y296000D02*
D03*
X56750Y508750D02*
D03*
X55250Y542000D02*
D03*
X67750Y429000D02*
D03*
X79500Y441250D02*
D03*
X49250Y419500D02*
D03*
X335000Y326750D02*
D03*
X257500Y333000D02*
D03*
X320750Y525250D02*
D03*
X350750Y653250D02*
D03*
X301500Y999625D02*
D03*
X401750Y1004000D02*
D03*
X515000Y815500D02*
D03*
X408000Y820000D02*
D03*
X449500Y835500D02*
D03*
X378321Y622679D02*
D03*
X371250Y629750D02*
D03*
X232750Y751250D02*
D03*
X242750D02*
D03*
X312520Y699034D02*
D03*
X352500Y689500D02*
D03*
X374250Y503750D02*
D03*
X414750Y606750D02*
D03*
X381250Y668750D02*
D03*
X292520Y699020D02*
D03*
X215750Y748500D02*
D03*
X92750Y962500D02*
D03*
X79750Y1000000D02*
D03*
X816500Y317000D02*
D03*
X767000Y309750D02*
D03*
X290250Y1009750D02*
D03*
X354500Y470270D02*
D03*
X510000Y435000D02*
D03*
X596750Y216500D02*
D03*
X759000Y203250D02*
D03*
X738500Y236000D02*
D03*
X616270Y211500D02*
D03*
X609000Y234000D02*
D03*
X560250Y183250D02*
D03*
X489250Y281250D02*
D03*
X503250Y508750D02*
D03*
X467000Y509750D02*
D03*
X378500Y544000D02*
D03*
X373750Y564480D02*
D03*
X187000Y508500D02*
D03*
X376250Y531250D02*
D03*
X698250Y117000D02*
D03*
X604750Y153500D02*
D03*
X592250Y135750D02*
D03*
X482750Y795500D02*
D03*
X419500Y806250D02*
D03*
X394750Y1046250D02*
D03*
X413250Y1045250D02*
D03*
X333000Y1047250D02*
D03*
X340500Y1095000D02*
D03*
X342000Y1112250D02*
D03*
X373322Y1101822D02*
D03*
X370750Y1090250D02*
D03*
X391500Y1094250D02*
D03*
X206500Y705750D02*
D03*
X375000Y768500D02*
D03*
X402000Y782750D02*
D03*
X549250Y781500D02*
D03*
X361000Y761000D02*
D03*
X192250Y750500D02*
D03*
X196750Y731000D02*
D03*
X324750Y759250D02*
D03*
X484500Y771250D02*
D03*
X162250Y579020D02*
D03*
X478250Y782000D02*
D03*
X166250Y509750D02*
D03*
X166000Y521000D02*
D03*
X544250Y805250D02*
D03*
X313000Y757500D02*
D03*
X300500D02*
D03*
X272500Y748000D02*
D03*
X260500Y740000D02*
D03*
X302520Y699038D02*
D03*
X332500Y687000D02*
D03*
X332750Y698750D02*
D03*
X322520Y699034D02*
D03*
X293750Y747250D02*
D03*
X40490Y559260D02*
D03*
X170500Y104250D02*
D03*
X220500Y210500D02*
D03*
X606250Y179000D02*
D03*
Y165750D02*
D03*
X700250Y204000D02*
D03*
X687000Y184000D02*
D03*
X702843Y139593D02*
D03*
X810250Y98750D02*
D03*
X761750Y126500D02*
D03*
X796000Y99000D02*
D03*
X761750Y140750D02*
D03*
X383500Y271250D02*
D03*
X270500Y295250D02*
D03*
X253000Y220000D02*
D03*
X289750D02*
D03*
X327750D02*
D03*
X364750Y220250D02*
D03*
X404500Y219000D02*
D03*
X442000Y219750D02*
D03*
X482000Y219500D02*
D03*
X451510Y279894D02*
D03*
X299250Y279250D02*
D03*
X413750Y280000D02*
D03*
X224250Y278250D02*
D03*
X162000Y85000D02*
D03*
X120750Y364500D02*
D03*
X262250Y279500D02*
D03*
X337000D02*
D03*
X290750Y435500D02*
D03*
X310250Y424750D02*
D03*
X309750Y464750D02*
D03*
X275250Y444000D02*
D03*
X222250Y480000D02*
D03*
X201750Y457000D02*
D03*
X340000Y398500D02*
D03*
X372000Y479750D02*
D03*
X464000Y487750D02*
D03*
X467750Y456000D02*
D03*
X467000Y469500D02*
D03*
X533560Y399542D02*
D03*
X344250Y698500D02*
D03*
X282250Y757250D02*
D03*
X509500Y408500D02*
D03*
X760750Y151500D02*
D03*
X699738Y165500D02*
D03*
X235250Y639000D02*
D03*
X204750Y616250D02*
D03*
D145*
X32500Y29500D02*
D03*
X1025750D02*
D03*
Y1089750D02*
D03*
X32500D02*
D03*
D146*
X720700Y383500D02*
D03*
X688000D02*
D03*
X719850Y434780D02*
D03*
X687150D02*
D03*
X720100Y409140D02*
D03*
X687400D02*
D03*
X914100Y192850D02*
D03*
X881400D02*
D03*
X914100Y77250D02*
D03*
X881400D02*
D03*
X914100Y163950D02*
D03*
X881400D02*
D03*
X914100Y221750D02*
D03*
X881400D02*
D03*
X914100Y106150D02*
D03*
X881400D02*
D03*
X914100Y135050D02*
D03*
X881400D02*
D03*
M02*
