G04*
G04 #@! TF.GenerationSoftware,Altium Limited,Altium Designer,20.0.13 (296)*
G04*
G04 Layer_Color=128*
%FSLAX44Y44*%
%MOMM*%
G71*
G01*
G75*
%ADD27R,1.4000X1.0000*%
%ADD31R,0.8000X1.0000*%
%ADD32R,1.0000X1.4000*%
%ADD45R,1.1000X0.8000*%
%ADD148R,0.7000X0.9000*%
%ADD149R,0.6000X1.5000*%
%ADD150O,0.6000X1.5000*%
%ADD151R,0.9100X1.2200*%
D27*
X44750Y165000D02*
D03*
Y185000D02*
D03*
X74750Y984000D02*
D03*
Y964000D02*
D03*
X359250Y279000D02*
D03*
Y299000D02*
D03*
X209750Y279000D02*
D03*
Y299000D02*
D03*
X378500Y1059000D02*
D03*
Y1039000D02*
D03*
X459250Y1076250D02*
D03*
Y1056250D02*
D03*
D31*
X892500Y684500D02*
D03*
X908500D02*
D03*
X453000Y948750D02*
D03*
X437000D02*
D03*
X633250Y683000D02*
D03*
X649250D02*
D03*
X452000Y854750D02*
D03*
X436000D02*
D03*
X222750Y616750D02*
D03*
X238750D02*
D03*
X24250Y208750D02*
D03*
X40250D02*
D03*
X24250Y298250D02*
D03*
X40250D02*
D03*
X24250Y280350D02*
D03*
X40250D02*
D03*
X24250Y226650D02*
D03*
X40250D02*
D03*
X24250Y244550D02*
D03*
X40250D02*
D03*
X24250Y262450D02*
D03*
X40250D02*
D03*
D32*
X871250Y498000D02*
D03*
X851250D02*
D03*
X892250Y498250D02*
D03*
X912250D02*
D03*
X400750Y1077000D02*
D03*
X420750D02*
D03*
X406250Y1102250D02*
D03*
X426250D02*
D03*
X479250Y1003000D02*
D03*
X459250D02*
D03*
X530250Y1047500D02*
D03*
X510250D02*
D03*
X968250Y243500D02*
D03*
X988250D02*
D03*
X968250Y294750D02*
D03*
X988250D02*
D03*
X968250Y345750D02*
D03*
X988250D02*
D03*
X968250Y393000D02*
D03*
X988250D02*
D03*
X968250Y441750D02*
D03*
X988250D02*
D03*
X968250Y492750D02*
D03*
X988250D02*
D03*
X968250Y543500D02*
D03*
X988250D02*
D03*
X968250Y595250D02*
D03*
X988250D02*
D03*
X968250Y640500D02*
D03*
X988250D02*
D03*
D45*
X724250Y995000D02*
D03*
Y1014000D02*
D03*
X746750Y1004500D02*
D03*
D148*
X835500Y452000D02*
D03*
X819500D02*
D03*
X886500Y452250D02*
D03*
X902500D02*
D03*
X898750Y421750D02*
D03*
X882750D02*
D03*
X883250Y401500D02*
D03*
X899250D02*
D03*
X849000Y393750D02*
D03*
X865000D02*
D03*
D149*
X856750Y450750D02*
D03*
X847250Y421250D02*
D03*
D150*
X866250D02*
D03*
D151*
X709100Y296250D02*
D03*
X676400D02*
D03*
X709100Y339250D02*
D03*
X676400D02*
D03*
X709100Y317500D02*
D03*
X676400D02*
D03*
X914100Y192850D02*
D03*
X881400D02*
D03*
X914100Y77250D02*
D03*
X881400D02*
D03*
X914100Y163950D02*
D03*
X881400D02*
D03*
X914100Y221750D02*
D03*
X881400D02*
D03*
X914100Y106150D02*
D03*
X881400D02*
D03*
X914100Y135050D02*
D03*
X881400D02*
D03*
M02*
