G04*
G04 #@! TF.GenerationSoftware,Altium Limited,Altium Designer,20.0.13 (296)*
G04*
G04 Layer_Color=32896*
%FSLAX44Y44*%
%MOMM*%
G71*
G01*
G75*
%ADD10C,0.2500*%
%ADD12C,0.2000*%
%ADD13C,0.1500*%
D10*
X677650Y284650D02*
G03*
X677650Y284650I-1250J0D01*
G01*
Y327650D02*
G03*
X677650Y327650I-1250J0D01*
G01*
Y305900D02*
G03*
X677650Y305900I-1250J0D01*
G01*
X882650Y181250D02*
G03*
X882650Y181250I-1250J0D01*
G01*
Y65650D02*
G03*
X882650Y65650I-1250J0D01*
G01*
Y152350D02*
G03*
X882650Y152350I-1250J0D01*
G01*
Y210150D02*
G03*
X882650Y210150I-1250J0D01*
G01*
Y94550D02*
G03*
X882650Y94550I-1250J0D01*
G01*
Y123450D02*
G03*
X882650Y123450I-1250J0D01*
G01*
D12*
X826000Y456500D02*
X829000D01*
X826000Y447500D02*
X829000D01*
X893000Y447750D02*
X896000D01*
X893000Y456750D02*
X896000D01*
X889250Y426250D02*
X892250D01*
X889250Y417250D02*
X892250D01*
X889750Y397000D02*
X892750D01*
X889750Y406000D02*
X892750D01*
X855500Y389250D02*
X858500D01*
X855500Y398250D02*
X858500D01*
X700550Y288250D02*
Y304250D01*
X684950D02*
X700550D01*
X684950Y288250D02*
X700550D01*
X684950D02*
Y304250D01*
X700550Y331250D02*
Y347250D01*
X684950D02*
X700550D01*
X684950Y331250D02*
X700550D01*
X684950D02*
Y347250D01*
X700550Y309500D02*
Y325500D01*
X684950D02*
X700550D01*
X684950Y309500D02*
X700550D01*
X684950D02*
Y325500D01*
X905550Y184850D02*
Y200850D01*
X889950D02*
X905550D01*
X889950Y184850D02*
X905550D01*
X889950D02*
Y200850D01*
X905550Y69250D02*
Y85250D01*
X889950D02*
X905550D01*
X889950Y69250D02*
X905550D01*
X889950D02*
Y85250D01*
X905550Y155950D02*
Y171950D01*
X889950D02*
X905550D01*
X889950Y155950D02*
X905550D01*
X889950D02*
Y171950D01*
X905550Y213750D02*
Y229750D01*
X889950D02*
X905550D01*
X889950Y213750D02*
X905550D01*
X889950D02*
Y229750D01*
X905550Y98150D02*
Y114150D01*
X889950D02*
X905550D01*
X889950Y98150D02*
X905550D01*
X889950D02*
Y114150D01*
X905550Y127050D02*
Y143050D01*
X889950D02*
X905550D01*
X889950Y127050D02*
X905550D01*
X889950D02*
Y143050D01*
X733500Y989500D02*
X742500D01*
Y997500D01*
X733500Y1019500D02*
X742500D01*
Y1011500D02*
Y1019500D01*
X809913Y448501D02*
Y456499D01*
X805915D01*
X804582Y455166D01*
Y452500D01*
X805915Y451167D01*
X809913D01*
X807247D02*
X804582Y448501D01*
X796584Y456499D02*
X799250Y455166D01*
X801916Y452500D01*
Y449834D01*
X800583Y448501D01*
X797917D01*
X796584Y449834D01*
Y451167D01*
X797917Y452500D01*
X801916D01*
X793918Y449834D02*
X792586Y448501D01*
X789920D01*
X788587Y449834D01*
Y455166D01*
X789920Y456499D01*
X792586D01*
X793918Y455166D01*
Y453833D01*
X792586Y452500D01*
X788587D01*
X932663Y449001D02*
Y456999D01*
X928664D01*
X927332Y455666D01*
Y453000D01*
X928664Y451667D01*
X932663D01*
X929997D02*
X927332Y449001D01*
X919334Y456999D02*
X922000Y455666D01*
X924666Y453000D01*
Y450334D01*
X923333Y449001D01*
X920667D01*
X919334Y450334D01*
Y451667D01*
X920667Y453000D01*
X924666D01*
X911337Y456999D02*
X914003Y455666D01*
X916668Y453000D01*
Y450334D01*
X915335Y449001D01*
X912670D01*
X911337Y450334D01*
Y451667D01*
X912670Y453000D01*
X916668D01*
X922082Y426166D02*
X923415Y427499D01*
X926080D01*
X927413Y426166D01*
Y420834D01*
X926080Y419501D01*
X923415D01*
X922082Y420834D01*
X914084Y419501D02*
X919416D01*
X914084Y424833D01*
Y426166D01*
X915417Y427499D01*
X918083D01*
X919416Y426166D01*
X911418Y427499D02*
X906087D01*
Y426166D01*
X911418Y420834D01*
Y419501D01*
X928913Y397001D02*
Y404999D01*
X924914D01*
X923582Y403666D01*
Y401000D01*
X924914Y399667D01*
X928913D01*
X926247D02*
X923582Y397001D01*
X915584Y404999D02*
X918250Y403666D01*
X920916Y401000D01*
Y398334D01*
X919583Y397001D01*
X916917D01*
X915584Y398334D01*
Y399667D01*
X916917Y401000D01*
X920916D01*
X912918Y403666D02*
X911585Y404999D01*
X908920D01*
X907587Y403666D01*
Y402333D01*
X908920Y401000D01*
X907587Y399667D01*
Y398334D01*
X908920Y397001D01*
X911585D01*
X912918Y398334D01*
Y399667D01*
X911585Y401000D01*
X912918Y402333D01*
Y403666D01*
X911585Y401000D02*
X908920D01*
X840163Y390001D02*
Y397999D01*
X836164D01*
X834832Y396666D01*
Y394000D01*
X836164Y392667D01*
X840163D01*
X837497D02*
X834832Y390001D01*
X826834Y397999D02*
X829500Y396666D01*
X832166Y394000D01*
Y391334D01*
X830833Y390001D01*
X828167D01*
X826834Y391334D01*
Y392667D01*
X828167Y394000D01*
X832166D01*
X824168Y397999D02*
X818837D01*
Y396666D01*
X824168Y391334D01*
Y390001D01*
X864952Y474341D02*
Y469010D01*
X862286Y466344D01*
X859620Y469010D01*
Y474341D01*
X856955D02*
X851623D01*
X854289D01*
Y466344D01*
X843625D02*
X848957D01*
X843625Y471676D01*
Y473008D01*
X844958Y474341D01*
X847624D01*
X848957Y473008D01*
X855290Y515882D02*
Y523879D01*
X851291D01*
X849958Y522547D01*
Y519881D01*
X851291Y518548D01*
X855290D01*
X852624D02*
X849958Y515882D01*
X847293D02*
X844627D01*
X845960D01*
Y523879D01*
X847293Y522547D01*
X898704Y516188D02*
Y524185D01*
X894705D01*
X893372Y522853D01*
Y520187D01*
X894705Y518854D01*
X898704D01*
X896038D02*
X893372Y516188D01*
X885375Y524185D02*
X890707D01*
Y520187D01*
X888041Y521520D01*
X886708D01*
X885375Y520187D01*
Y517521D01*
X886708Y516188D01*
X889374D01*
X890707Y517521D01*
X903416Y716418D02*
X904749Y715086D01*
Y712420D01*
X903416Y711087D01*
X898084D01*
X896751Y712420D01*
Y715086D01*
X898084Y716418D01*
X896751Y724416D02*
Y719084D01*
X902083Y724416D01*
X903416D01*
X904749Y723083D01*
Y720417D01*
X903416Y719084D01*
X904749Y732413D02*
X903416Y729747D01*
X900750Y727082D01*
X898084D01*
X896751Y728415D01*
Y731080D01*
X898084Y732413D01*
X899417D01*
X900750Y731080D01*
Y727082D01*
X652526Y705416D02*
X653859Y706749D01*
X656525D01*
X657858Y705416D01*
Y700085D01*
X656525Y698752D01*
X653859D01*
X652526Y700085D01*
X644529Y698752D02*
X649861D01*
X644529Y704084D01*
Y705416D01*
X645862Y706749D01*
X648528D01*
X649861Y705416D01*
X636531Y706749D02*
X641863D01*
Y702751D01*
X639197Y704084D01*
X637864D01*
X636531Y702751D01*
Y700085D01*
X637864Y698752D01*
X640530D01*
X641863Y700085D01*
X218438Y314704D02*
Y322701D01*
X214439D01*
X213106Y321368D01*
Y318703D01*
X214439Y317370D01*
X218438D01*
X215772D02*
X213106Y314704D01*
X205109Y322701D02*
X207775Y321368D01*
X210441Y318703D01*
Y316037D01*
X209108Y314704D01*
X206442D01*
X205109Y316037D01*
Y317370D01*
X206442Y318703D01*
X210441D01*
X197111Y314704D02*
X202443D01*
X197111Y320036D01*
Y321368D01*
X198444Y322701D01*
X201110D01*
X202443Y321368D01*
X27499Y184580D02*
X19501D01*
Y180582D01*
X20834Y179249D01*
X23500D01*
X24833Y180582D01*
Y184580D01*
Y181915D02*
X27499Y179249D01*
X19501Y171251D02*
X20834Y173917D01*
X23500Y176583D01*
X26166D01*
X27499Y175250D01*
Y172584D01*
X26166Y171251D01*
X24833D01*
X23500Y172584D01*
Y176583D01*
X27499Y168585D02*
Y165920D01*
Y167253D01*
X19501D01*
X20834Y168585D01*
X368044Y314704D02*
Y322701D01*
X364045D01*
X362712Y321368D01*
Y318703D01*
X364045Y317370D01*
X368044D01*
X365378D02*
X362712Y314704D01*
X354715Y322701D02*
X360047D01*
Y318703D01*
X357381Y320036D01*
X356048D01*
X354715Y318703D01*
Y316037D01*
X356048Y314704D01*
X358714D01*
X360047Y316037D01*
X352049Y321368D02*
X350716Y322701D01*
X348050D01*
X346717Y321368D01*
Y320036D01*
X348050Y318703D01*
X346717Y317370D01*
Y316037D01*
X348050Y314704D01*
X350716D01*
X352049Y316037D01*
Y317370D01*
X350716Y318703D01*
X352049Y320036D01*
Y321368D01*
X350716Y318703D02*
X348050D01*
X994916Y658366D02*
Y666363D01*
X990917D01*
X989584Y665031D01*
Y662365D01*
X990917Y661032D01*
X994916D01*
X992250D02*
X989584Y658366D01*
X986919Y665031D02*
X985586Y666363D01*
X982920D01*
X981587Y665031D01*
Y663698D01*
X982920Y662365D01*
X984253D01*
X982920D01*
X981587Y661032D01*
Y659699D01*
X982920Y658366D01*
X985586D01*
X986919Y659699D01*
X973589Y666363D02*
X976255Y665031D01*
X978921Y662365D01*
Y659699D01*
X977588Y658366D01*
X974922D01*
X973589Y659699D01*
Y661032D01*
X974922Y662365D01*
X978921D01*
X994916Y613154D02*
Y621151D01*
X990917D01*
X989584Y619818D01*
Y617153D01*
X990917Y615820D01*
X994916D01*
X992250D02*
X989584Y613154D01*
X986919Y619818D02*
X985586Y621151D01*
X982920D01*
X981587Y619818D01*
Y618486D01*
X982920Y617153D01*
X984253D01*
X982920D01*
X981587Y615820D01*
Y614487D01*
X982920Y613154D01*
X985586D01*
X986919Y614487D01*
X973589Y621151D02*
X978921D01*
Y617153D01*
X976255Y618486D01*
X974922D01*
X973589Y617153D01*
Y614487D01*
X974922Y613154D01*
X977588D01*
X978921Y614487D01*
X994916Y561338D02*
Y569335D01*
X990917D01*
X989584Y568003D01*
Y565337D01*
X990917Y564004D01*
X994916D01*
X992250D02*
X989584Y561338D01*
X986919Y568003D02*
X985586Y569335D01*
X982920D01*
X981587Y568003D01*
Y566670D01*
X982920Y565337D01*
X984253D01*
X982920D01*
X981587Y564004D01*
Y562671D01*
X982920Y561338D01*
X985586D01*
X986919Y562671D01*
X974922Y561338D02*
Y569335D01*
X978921Y565337D01*
X973589D01*
X994916Y510538D02*
Y518535D01*
X990917D01*
X989584Y517202D01*
Y514537D01*
X990917Y513204D01*
X994916D01*
X992250D02*
X989584Y510538D01*
X986919Y517202D02*
X985586Y518535D01*
X982920D01*
X981587Y517202D01*
Y515870D01*
X982920Y514537D01*
X984253D01*
X982920D01*
X981587Y513204D01*
Y511871D01*
X982920Y510538D01*
X985586D01*
X986919Y511871D01*
X978921Y517202D02*
X977588Y518535D01*
X974922D01*
X973589Y517202D01*
Y515870D01*
X974922Y514537D01*
X976255D01*
X974922D01*
X973589Y513204D01*
Y511871D01*
X974922Y510538D01*
X977588D01*
X978921Y511871D01*
X994916Y459484D02*
Y467481D01*
X990917D01*
X989584Y466148D01*
Y463483D01*
X990917Y462150D01*
X994916D01*
X992250D02*
X989584Y459484D01*
X986919Y466148D02*
X985586Y467481D01*
X982920D01*
X981587Y466148D01*
Y464816D01*
X982920Y463483D01*
X984253D01*
X982920D01*
X981587Y462150D01*
Y460817D01*
X982920Y459484D01*
X985586D01*
X986919Y460817D01*
X973589Y459484D02*
X978921D01*
X973589Y464816D01*
Y466148D01*
X974922Y467481D01*
X977588D01*
X978921Y466148D01*
X987330Y412001D02*
Y419999D01*
X983332D01*
X981999Y418666D01*
Y416000D01*
X983332Y414667D01*
X987330D01*
X984665D02*
X981999Y412001D01*
X979333Y418666D02*
X978000Y419999D01*
X975334D01*
X974001Y418666D01*
Y417333D01*
X975334Y416000D01*
X976667D01*
X975334D01*
X974001Y414667D01*
Y413334D01*
X975334Y412001D01*
X978000D01*
X979333Y413334D01*
X971335Y412001D02*
X968670D01*
X970003D01*
Y419999D01*
X971335Y418666D01*
X994916Y363472D02*
Y371469D01*
X990917D01*
X989584Y370136D01*
Y367471D01*
X990917Y366138D01*
X994916D01*
X992250D02*
X989584Y363472D01*
X986919Y370136D02*
X985586Y371469D01*
X982920D01*
X981587Y370136D01*
Y368804D01*
X982920Y367471D01*
X984253D01*
X982920D01*
X981587Y366138D01*
Y364805D01*
X982920Y363472D01*
X985586D01*
X986919Y364805D01*
X978921Y370136D02*
X977588Y371469D01*
X974922D01*
X973589Y370136D01*
Y364805D01*
X974922Y363472D01*
X977588D01*
X978921Y364805D01*
Y370136D01*
X994916Y312672D02*
Y320669D01*
X990917D01*
X989584Y319336D01*
Y316671D01*
X990917Y315338D01*
X994916D01*
X992250D02*
X989584Y312672D01*
X981587D02*
X986919D01*
X981587Y318004D01*
Y319336D01*
X982920Y320669D01*
X985586D01*
X986919Y319336D01*
X978921Y314005D02*
X977588Y312672D01*
X974922D01*
X973589Y314005D01*
Y319336D01*
X974922Y320669D01*
X977588D01*
X978921Y319336D01*
Y318004D01*
X977588Y316671D01*
X973589D01*
X994916Y261364D02*
Y269361D01*
X990917D01*
X989584Y268029D01*
Y265363D01*
X990917Y264030D01*
X994916D01*
X992250D02*
X989584Y261364D01*
X981587D02*
X986919D01*
X981587Y266696D01*
Y268029D01*
X982920Y269361D01*
X985586D01*
X986919Y268029D01*
X978921D02*
X977588Y269361D01*
X974922D01*
X973589Y268029D01*
Y266696D01*
X974922Y265363D01*
X973589Y264030D01*
Y262697D01*
X974922Y261364D01*
X977588D01*
X978921Y262697D01*
Y264030D01*
X977588Y265363D01*
X978921Y266696D01*
Y268029D01*
X977588Y265363D02*
X974922D01*
X57999Y983830D02*
X50001D01*
Y979832D01*
X51334Y978499D01*
X54000D01*
X55333Y979832D01*
Y983830D01*
Y981164D02*
X57999Y978499D01*
Y970501D02*
Y975833D01*
X52667Y970501D01*
X51334D01*
X50001Y971834D01*
Y974500D01*
X51334Y975833D01*
X57999Y967835D02*
Y965170D01*
Y966503D01*
X50001D01*
X51334Y967835D01*
X381914Y1074501D02*
Y1082499D01*
X377915D01*
X376582Y1081166D01*
Y1078500D01*
X377915Y1077167D01*
X381914D01*
X379248D02*
X376582Y1074501D01*
X373916D02*
X371251D01*
X372584D01*
Y1082499D01*
X373916Y1081166D01*
X367252Y1074501D02*
X364586D01*
X365919D01*
Y1082499D01*
X367252Y1081166D01*
X388747Y1111251D02*
Y1119249D01*
X384748D01*
X383415Y1117916D01*
Y1115250D01*
X384748Y1113917D01*
X388747D01*
X386081D02*
X383415Y1111251D01*
X380749D02*
X378083D01*
X379416D01*
Y1119249D01*
X380749Y1117916D01*
X374085D02*
X372752Y1119249D01*
X370086D01*
X368753Y1117916D01*
Y1112584D01*
X370086Y1111251D01*
X372752D01*
X374085Y1112584D01*
Y1117916D01*
X442749Y1076164D02*
X434751D01*
Y1072166D01*
X436084Y1070833D01*
X438750D01*
X440083Y1072166D01*
Y1076164D01*
Y1073499D02*
X442749Y1070833D01*
X441416Y1068167D02*
X442749Y1066834D01*
Y1064168D01*
X441416Y1062835D01*
X436084D01*
X434751Y1064168D01*
Y1066834D01*
X436084Y1068167D01*
X437417D01*
X438750Y1066834D01*
Y1062835D01*
X386414Y1010751D02*
Y1018749D01*
X382416D01*
X381083Y1017416D01*
Y1014750D01*
X382416Y1013417D01*
X386414D01*
X383749D02*
X381083Y1010751D01*
X373086Y1018749D02*
X375751Y1017416D01*
X378417Y1014750D01*
Y1012084D01*
X377084Y1010751D01*
X374418D01*
X373086Y1012084D01*
Y1013417D01*
X374418Y1014750D01*
X378417D01*
X443665Y1000001D02*
Y1007999D01*
X439666D01*
X438333Y1006666D01*
Y1004000D01*
X439666Y1002667D01*
X443665D01*
X440999D02*
X438333Y1000001D01*
X431668D02*
Y1007999D01*
X435667Y1004000D01*
X430336D01*
X561914Y1042251D02*
Y1050249D01*
X557916D01*
X556583Y1048916D01*
Y1046250D01*
X557916Y1044917D01*
X561914D01*
X559249D02*
X556583Y1042251D01*
X553917Y1048916D02*
X552584Y1050249D01*
X549918D01*
X548586Y1048916D01*
Y1047583D01*
X549918Y1046250D01*
X551251D01*
X549918D01*
X548586Y1044917D01*
Y1043584D01*
X549918Y1042251D01*
X552584D01*
X553917Y1043584D01*
X661247Y343249D02*
Y335251D01*
X657248D01*
X655915Y336584D01*
Y341916D01*
X657248Y343249D01*
X661247D01*
X653249Y335251D02*
X650584D01*
X651917D01*
Y343249D01*
X653249Y341916D01*
X642586Y335251D02*
Y343249D01*
X646585Y339250D01*
X641253D01*
X659997Y322499D02*
Y314501D01*
X655998D01*
X654665Y315834D01*
Y321166D01*
X655998Y322499D01*
X659997D01*
X651999Y314501D02*
X649334D01*
X650666D01*
Y322499D01*
X651999Y321166D01*
X645335D02*
X644002Y322499D01*
X641336D01*
X640003Y321166D01*
Y319833D01*
X641336Y318500D01*
X642669D01*
X641336D01*
X640003Y317167D01*
Y315834D01*
X641336Y314501D01*
X644002D01*
X645335Y315834D01*
X660747Y299499D02*
Y291501D01*
X656748D01*
X655415Y292834D01*
Y298166D01*
X656748Y299499D01*
X660747D01*
X652749Y291501D02*
X650084D01*
X651416D01*
Y299499D01*
X652749Y298166D01*
X640753Y291501D02*
X646085D01*
X640753Y296833D01*
Y298166D01*
X642086Y299499D01*
X644752D01*
X646085Y298166D01*
X927753Y213751D02*
Y221748D01*
X931752D01*
X933085Y220415D01*
Y215084D01*
X931752Y213751D01*
X927753D01*
X935751Y221748D02*
X938416D01*
X937084D01*
Y213751D01*
X935751Y215084D01*
X942415D02*
X943748Y213751D01*
X946414D01*
X947747Y215084D01*
Y220415D01*
X946414Y221748D01*
X943748D01*
X942415Y220415D01*
Y215084D01*
X928085Y188601D02*
Y196598D01*
X932084D01*
X933417Y195266D01*
Y189934D01*
X932084Y188601D01*
X928085D01*
X936083Y195266D02*
X937416Y196598D01*
X940082D01*
X941414Y195266D01*
Y189934D01*
X940082Y188601D01*
X937416D01*
X936083Y189934D01*
Y191267D01*
X937416Y192600D01*
X941414D01*
X927186Y159451D02*
Y167449D01*
X931184D01*
X932517Y166116D01*
Y160784D01*
X931184Y159451D01*
X927186D01*
X935183Y160784D02*
X936516Y159451D01*
X939182D01*
X940515Y160784D01*
Y162117D01*
X939182Y163450D01*
X940515Y164783D01*
Y166116D01*
X939182Y167449D01*
X936516D01*
X935183Y166116D01*
Y164783D01*
X936516Y163450D01*
X935183Y162117D01*
Y160784D01*
X936516Y163450D02*
X939182D01*
X926086Y130551D02*
Y138549D01*
X930084D01*
X931417Y137216D01*
Y131884D01*
X930084Y130551D01*
X926086D01*
X934083D02*
X939415D01*
Y131884D01*
X934083Y137216D01*
Y138549D01*
X928686Y94151D02*
Y102149D01*
X932684D01*
X934017Y100816D01*
Y95484D01*
X932684Y94151D01*
X928686D01*
X942014D02*
X939349Y95484D01*
X936683Y98150D01*
Y100816D01*
X938016Y102149D01*
X940682D01*
X942014Y100816D01*
Y99483D01*
X940682Y98150D01*
X936683D01*
X930486Y72751D02*
Y80749D01*
X934484D01*
X935817Y79416D01*
Y74084D01*
X934484Y72751D01*
X930486D01*
X943814D02*
X938483D01*
Y76750D01*
X941149Y75417D01*
X942482D01*
X943814Y76750D01*
Y79416D01*
X942482Y80749D01*
X939816D01*
X938483Y79416D01*
X753616Y1037457D02*
Y1029460D01*
X749617D01*
X748284Y1030793D01*
Y1036124D01*
X749617Y1037457D01*
X753616D01*
X745619Y1036124D02*
X744286Y1037457D01*
X741620D01*
X740287Y1036124D01*
Y1034792D01*
X741620Y1033459D01*
X742953D01*
X741620D01*
X740287Y1032126D01*
Y1030793D01*
X741620Y1029460D01*
X744286D01*
X745619Y1030793D01*
X241666Y586085D02*
X242999Y584752D01*
Y582086D01*
X241666Y580753D01*
X236334D01*
X235001Y582086D01*
Y584752D01*
X236334Y586085D01*
X235001Y588751D02*
Y591416D01*
Y590084D01*
X242999D01*
X241666Y588751D01*
X235001Y600747D02*
Y595415D01*
X240333Y600747D01*
X241666D01*
X242999Y599414D01*
Y596748D01*
X241666Y595415D01*
X439083Y985666D02*
X440416Y986999D01*
X443082D01*
X444414Y985666D01*
Y980334D01*
X443082Y979001D01*
X440416D01*
X439083Y980334D01*
X431086Y986999D02*
X436417D01*
Y983000D01*
X433751Y984333D01*
X432418D01*
X431086Y983000D01*
Y980334D01*
X432418Y979001D01*
X435084D01*
X436417Y980334D01*
X455422Y877374D02*
X456755Y878707D01*
X459421D01*
X460754Y877374D01*
Y872043D01*
X459421Y870710D01*
X456755D01*
X455422Y872043D01*
X448758Y870710D02*
Y878707D01*
X452757Y874709D01*
X447425D01*
D13*
X884900Y692400D02*
G03*
X884796Y676488I12064J-8036D01*
G01*
X915800Y676600D02*
G03*
X915904Y692513I-12064J8036D01*
G01*
X460300Y940850D02*
G03*
X460405Y956762I-12064J8036D01*
G01*
X429400Y956650D02*
G03*
X429296Y940738I12064J-8036D01*
G01*
X625650Y690900D02*
G03*
X625546Y674987I12064J-8036D01*
G01*
X656550Y675100D02*
G03*
X656655Y691012I-12064J8036D01*
G01*
X459600Y846850D02*
G03*
X459705Y862763I-12064J8036D01*
G01*
X428700Y862650D02*
G03*
X428595Y846738I12064J-8036D01*
G01*
X215150Y624650D02*
G03*
X215046Y608737I12064J-8036D01*
G01*
X246050Y608850D02*
G03*
X246154Y624762I-12064J8036D01*
G01*
X16650Y216650D02*
G03*
X16545Y200737I12064J-8036D01*
G01*
X47550Y200850D02*
G03*
X47655Y216763I-12064J8036D01*
G01*
X16650Y306150D02*
G03*
X16545Y290238I12064J-8036D01*
G01*
X47550Y290350D02*
G03*
X47655Y306262I-12064J8036D01*
G01*
X16650Y288250D02*
G03*
X16545Y272337I12064J-8036D01*
G01*
X47550Y272450D02*
G03*
X47655Y288363I-12064J8036D01*
G01*
X16650Y234550D02*
G03*
X16545Y218638I12064J-8036D01*
G01*
X47550Y218750D02*
G03*
X47655Y234663I-12064J8036D01*
G01*
X16650Y252450D02*
G03*
X16545Y236537I12064J-8036D01*
G01*
X47550Y236650D02*
G03*
X47655Y252563I-12064J8036D01*
G01*
X16650Y270350D02*
G03*
X16545Y254438I12064J-8036D01*
G01*
X47550Y254550D02*
G03*
X47655Y270463I-12064J8036D01*
G01*
X855500Y430750D02*
X859000D01*
X864750Y441500D02*
X871250D01*
Y437500D02*
Y441500D01*
X842250D02*
X849000D01*
X842250Y437500D02*
Y441500D01*
X864000Y495250D02*
Y501000D01*
X858500D02*
X864000D01*
X858500Y495250D02*
Y501000D01*
Y495250D02*
X864000D01*
X843250Y488000D02*
X879250D01*
Y508000D01*
X843250Y488000D02*
Y508000D01*
X879250D01*
X899500Y495250D02*
Y501000D01*
Y495250D02*
X905000D01*
Y501000D01*
X899500D02*
X905000D01*
X884250Y508250D02*
X920250D01*
X884250Y488250D02*
Y508250D01*
X920250Y488250D02*
Y508250D01*
X884250Y488250D02*
X920250D01*
X899100Y681900D02*
Y687200D01*
X901900Y681900D02*
Y687200D01*
X885000Y692500D02*
X915750D01*
X885000Y676500D02*
X915750D01*
X429500Y940750D02*
X460250D01*
X429500Y956750D02*
X460250D01*
X446400Y946150D02*
Y951450D01*
X443600Y946150D02*
Y951450D01*
X34750Y157000D02*
Y193000D01*
Y157000D02*
X54750D01*
X34750Y193000D02*
X54750D01*
Y157000D02*
Y193000D01*
X47500Y172250D02*
Y177750D01*
X41750Y172250D02*
X47500D01*
X41750D02*
Y177750D01*
X47500D01*
X84750Y956000D02*
Y992000D01*
X64750D02*
X84750D01*
X64750Y956000D02*
X84750D01*
X64750D02*
Y992000D01*
X72000Y971250D02*
Y976750D01*
X77750D01*
Y971250D02*
Y976750D01*
X72000Y971250D02*
X77750D01*
X639850Y680400D02*
Y685700D01*
X642650Y680400D02*
Y685700D01*
X625750Y691000D02*
X656500D01*
X625750Y675000D02*
X656500D01*
X445400Y852050D02*
Y857350D01*
X442600Y852050D02*
Y857350D01*
X428750Y846750D02*
X459500D01*
X428750Y862750D02*
X459500D01*
X349250Y271000D02*
Y307000D01*
Y271000D02*
X369250D01*
X349250Y307000D02*
X369250D01*
Y271000D02*
Y307000D01*
X362000Y286250D02*
Y291750D01*
X356250Y286250D02*
X362000D01*
X356250D02*
Y291750D01*
X362000D01*
X199750Y271000D02*
Y307000D01*
Y271000D02*
X219750D01*
X199750Y307000D02*
X219750D01*
Y271000D02*
Y307000D01*
X212500Y286250D02*
Y291750D01*
X206750Y286250D02*
X212500D01*
X206750D02*
Y291750D01*
X212500D01*
X392750Y1087000D02*
X428750D01*
X392750Y1067000D02*
Y1087000D01*
X428750Y1067000D02*
Y1087000D01*
X392750Y1067000D02*
X428750D01*
X408000Y1074250D02*
X413500D01*
X408000D02*
Y1080000D01*
X413500D01*
Y1074250D02*
Y1080000D01*
X388500Y1031000D02*
Y1067000D01*
X368500D02*
X388500D01*
X368500Y1031000D02*
X388500D01*
X368500D02*
Y1067000D01*
X375750Y1046250D02*
Y1051750D01*
X381500D01*
Y1046250D02*
Y1051750D01*
X375750Y1046250D02*
X381500D01*
X398250Y1112250D02*
X434250D01*
X398250Y1092250D02*
Y1112250D01*
X434250Y1092250D02*
Y1112250D01*
X398250Y1092250D02*
X434250D01*
X413500Y1099500D02*
X419000D01*
X413500D02*
Y1105250D01*
X419000D01*
Y1099500D02*
Y1105250D01*
X451250Y993000D02*
X487250D01*
Y1013000D01*
X451250Y993000D02*
Y1013000D01*
X487250D01*
X466500Y1005750D02*
X472000D01*
Y1000000D02*
Y1005750D01*
X466500Y1000000D02*
X472000D01*
X466500D02*
Y1005750D01*
X502250Y1037500D02*
X538250D01*
Y1057500D01*
X502250Y1037500D02*
Y1057500D01*
X538250D01*
X517500Y1050250D02*
X523000D01*
Y1044500D02*
Y1050250D01*
X517500Y1044500D02*
X523000D01*
X517500D02*
Y1050250D01*
X469250Y1048250D02*
Y1084250D01*
X449250D02*
X469250D01*
X449250Y1048250D02*
X469250D01*
X449250D02*
Y1084250D01*
X456500Y1063500D02*
Y1069000D01*
X462250D01*
Y1063500D02*
Y1069000D01*
X456500Y1063500D02*
X462250D01*
X229350Y614150D02*
Y619450D01*
X232150Y614150D02*
Y619450D01*
X215250Y624750D02*
X246000D01*
X215250Y608750D02*
X246000D01*
X30850Y206150D02*
Y211450D01*
X33650Y206150D02*
Y211450D01*
X16750Y216750D02*
X47500D01*
X16750Y200750D02*
X47500D01*
X30850Y295650D02*
Y300950D01*
X33650Y295650D02*
Y300950D01*
X16750Y306250D02*
X47500D01*
X16750Y290250D02*
X47500D01*
X30850Y277750D02*
Y283050D01*
X33650Y277750D02*
Y283050D01*
X16750Y288350D02*
X47500D01*
X16750Y272350D02*
X47500D01*
X30850Y224050D02*
Y229350D01*
X33650Y224050D02*
Y229350D01*
X16750Y234650D02*
X47500D01*
X16750Y218650D02*
X47500D01*
X30850Y241950D02*
Y247250D01*
X33650Y241950D02*
Y247250D01*
X16750Y252550D02*
X47500D01*
X16750Y236550D02*
X47500D01*
X30850Y259850D02*
Y265150D01*
X33650Y259850D02*
Y265150D01*
X16750Y270450D02*
X47500D01*
X16750Y254450D02*
X47500D01*
X960250Y253500D02*
X996250D01*
X960250Y233500D02*
Y253500D01*
X996250Y233500D02*
Y253500D01*
X960250Y233500D02*
X996250D01*
X975500Y240750D02*
X981000D01*
X975500D02*
Y246500D01*
X981000D01*
Y240750D02*
Y246500D01*
X960250Y304750D02*
X996250D01*
X960250Y284750D02*
Y304750D01*
X996250Y284750D02*
Y304750D01*
X960250Y284750D02*
X996250D01*
X975500Y292000D02*
X981000D01*
X975500D02*
Y297750D01*
X981000D01*
Y292000D02*
Y297750D01*
X960250Y355750D02*
X996250D01*
X960250Y335750D02*
Y355750D01*
X996250Y335750D02*
Y355750D01*
X960250Y335750D02*
X996250D01*
X975500Y343000D02*
X981000D01*
X975500D02*
Y348750D01*
X981000D01*
Y343000D02*
Y348750D01*
X960250Y403000D02*
X996250D01*
X960250Y383000D02*
Y403000D01*
X996250Y383000D02*
Y403000D01*
X960250Y383000D02*
X996250D01*
X975500Y390250D02*
X981000D01*
X975500D02*
Y396000D01*
X981000D01*
Y390250D02*
Y396000D01*
X960250Y451750D02*
X996250D01*
X960250Y431750D02*
Y451750D01*
X996250Y431750D02*
Y451750D01*
X960250Y431750D02*
X996250D01*
X975500Y439000D02*
X981000D01*
X975500D02*
Y444750D01*
X981000D01*
Y439000D02*
Y444750D01*
X960250Y502750D02*
X996250D01*
X960250Y482750D02*
Y502750D01*
X996250Y482750D02*
Y502750D01*
X960250Y482750D02*
X996250D01*
X975500Y490000D02*
X981000D01*
X975500D02*
Y495750D01*
X981000D01*
Y490000D02*
Y495750D01*
X960250Y553500D02*
X996250D01*
X960250Y533500D02*
Y553500D01*
X996250Y533500D02*
Y553500D01*
X960250Y533500D02*
X996250D01*
X975500Y540750D02*
X981000D01*
X975500D02*
Y546500D01*
X981000D01*
Y540750D02*
Y546500D01*
X960250Y605250D02*
X996250D01*
X960250Y585250D02*
Y605250D01*
X996250Y585250D02*
Y605250D01*
X960250Y585250D02*
X996250D01*
X975500Y592500D02*
X981000D01*
X975500D02*
Y598250D01*
X981000D01*
Y592500D02*
Y598250D01*
X960250Y650500D02*
X996250D01*
X960250Y630500D02*
Y650500D01*
X996250Y630500D02*
Y650500D01*
X960250Y630500D02*
X996250D01*
X975500Y637750D02*
X981000D01*
X975500D02*
Y643500D01*
X981000D01*
Y637750D02*
Y643500D01*
M02*
