G04*
G04 #@! TF.GenerationSoftware,Altium Limited,Altium Designer,20.0.13 (296)*
G04*
G04 Layer_Color=32896*
%FSLAX44Y44*%
%MOMM*%
G71*
G01*
G75*
%ADD10C,0.2500*%
%ADD12C,0.2000*%
%ADD13C,0.1500*%
%ADD18C,0.2540*%
D10*
X689250Y371900D02*
G03*
X689250Y371900I-1250J0D01*
G01*
X688400Y423180D02*
G03*
X688400Y423180I-1250J0D01*
G01*
X688650Y397540D02*
G03*
X688650Y397540I-1250J0D01*
G01*
X882650Y181250D02*
G03*
X882650Y181250I-1250J0D01*
G01*
Y65650D02*
G03*
X882650Y65650I-1250J0D01*
G01*
Y152350D02*
G03*
X882650Y152350I-1250J0D01*
G01*
Y210150D02*
G03*
X882650Y210150I-1250J0D01*
G01*
Y94550D02*
G03*
X882650Y94550I-1250J0D01*
G01*
Y123450D02*
G03*
X882650Y123450I-1250J0D01*
G01*
D12*
X712150Y375500D02*
Y391500D01*
X696550D02*
X712150D01*
X696550Y375500D02*
X712150D01*
X696550D02*
Y391500D01*
X711300Y426780D02*
Y442780D01*
X695700D02*
X711300D01*
X695700Y426780D02*
X711300D01*
X695700D02*
Y442780D01*
X711550Y401140D02*
Y417140D01*
X695950D02*
X711550D01*
X695950Y401140D02*
X711550D01*
X695950D02*
Y417140D01*
X905550Y184850D02*
Y200850D01*
X889950D02*
X905550D01*
X889950Y184850D02*
X905550D01*
X889950D02*
Y200850D01*
X905550Y69250D02*
Y85250D01*
X889950D02*
X905550D01*
X889950Y69250D02*
X905550D01*
X889950D02*
Y85250D01*
X905550Y155950D02*
Y171950D01*
X889950D02*
X905550D01*
X889950Y155950D02*
X905550D01*
X889950D02*
Y171950D01*
X905550Y213750D02*
Y229750D01*
X889950D02*
X905550D01*
X889950Y213750D02*
X905550D01*
X889950D02*
Y229750D01*
X905550Y98150D02*
Y114150D01*
X889950D02*
X905550D01*
X889950Y98150D02*
X905550D01*
X889950D02*
Y114150D01*
X905550Y127050D02*
Y143050D01*
X889950D02*
X905550D01*
X889950Y127050D02*
X905550D01*
X889950D02*
Y143050D01*
X733500Y989500D02*
X742500D01*
Y997500D01*
X733500Y1019500D02*
X742500D01*
Y1011500D02*
Y1019500D01*
D13*
X884900Y692400D02*
G03*
X884796Y676488I12064J-8036D01*
G01*
X915800Y676600D02*
G03*
X915904Y692513I-12064J8036D01*
G01*
X460300Y940850D02*
G03*
X460405Y956762I-12064J8036D01*
G01*
X429400Y956650D02*
G03*
X429296Y940738I12064J-8036D01*
G01*
X625650Y690900D02*
G03*
X625546Y674987I12064J-8036D01*
G01*
X656550Y675100D02*
G03*
X656655Y691012I-12064J8036D01*
G01*
X459600Y846850D02*
G03*
X459705Y862763I-12064J8036D01*
G01*
X428700Y862650D02*
G03*
X428595Y846738I12064J-8036D01*
G01*
X215150Y624650D02*
G03*
X215046Y608737I12064J-8036D01*
G01*
X246050Y608850D02*
G03*
X246154Y624762I-12064J8036D01*
G01*
X16650Y216650D02*
G03*
X16545Y200737I12064J-8036D01*
G01*
X47550Y200850D02*
G03*
X47655Y216763I-12064J8036D01*
G01*
X16650Y306150D02*
G03*
X16545Y290238I12064J-8036D01*
G01*
X47550Y290350D02*
G03*
X47655Y306262I-12064J8036D01*
G01*
X16650Y288250D02*
G03*
X16545Y272337I12064J-8036D01*
G01*
X47550Y272450D02*
G03*
X47655Y288363I-12064J8036D01*
G01*
X16650Y234550D02*
G03*
X16545Y218638I12064J-8036D01*
G01*
X47550Y218750D02*
G03*
X47655Y234663I-12064J8036D01*
G01*
X16650Y252450D02*
G03*
X16545Y236537I12064J-8036D01*
G01*
X47550Y236650D02*
G03*
X47655Y252563I-12064J8036D01*
G01*
X16650Y270350D02*
G03*
X16545Y254438I12064J-8036D01*
G01*
X47550Y254550D02*
G03*
X47655Y270463I-12064J8036D01*
G01*
X899100Y681900D02*
Y687200D01*
X901900Y681900D02*
Y687200D01*
X885000Y692500D02*
X915750D01*
X885000Y676500D02*
X915750D01*
X429500Y940750D02*
X460250D01*
X429500Y956750D02*
X460250D01*
X446400Y946150D02*
Y951450D01*
X443600Y946150D02*
Y951450D01*
X34750Y157000D02*
Y193000D01*
Y157000D02*
X54750D01*
X34750Y193000D02*
X54750D01*
Y157000D02*
Y193000D01*
X47500Y172250D02*
Y177750D01*
X41750Y172250D02*
X47500D01*
X41750D02*
Y177750D01*
X47500D01*
X84750Y956000D02*
Y992000D01*
X64750D02*
X84750D01*
X64750Y956000D02*
X84750D01*
X64750D02*
Y992000D01*
X72000Y971250D02*
Y976750D01*
X77750D01*
Y971250D02*
Y976750D01*
X72000Y971250D02*
X77750D01*
X639850Y680400D02*
Y685700D01*
X642650Y680400D02*
Y685700D01*
X625750Y691000D02*
X656500D01*
X625750Y675000D02*
X656500D01*
X445400Y852050D02*
Y857350D01*
X442600Y852050D02*
Y857350D01*
X428750Y846750D02*
X459500D01*
X428750Y862750D02*
X459500D01*
X349250Y271000D02*
Y307000D01*
Y271000D02*
X369250D01*
X349250Y307000D02*
X369250D01*
Y271000D02*
Y307000D01*
X362000Y286250D02*
Y291750D01*
X356250Y286250D02*
X362000D01*
X356250D02*
Y291750D01*
X362000D01*
X199750Y271000D02*
Y307000D01*
Y271000D02*
X219750D01*
X199750Y307000D02*
X219750D01*
Y271000D02*
Y307000D01*
X212500Y286250D02*
Y291750D01*
X206750Y286250D02*
X212500D01*
X206750D02*
Y291750D01*
X212500D01*
X392750Y1087000D02*
X428750D01*
X392750Y1067000D02*
Y1087000D01*
X428750Y1067000D02*
Y1087000D01*
X392750Y1067000D02*
X428750D01*
X408000Y1074250D02*
X413500D01*
X408000D02*
Y1080000D01*
X413500D01*
Y1074250D02*
Y1080000D01*
X388500Y1031000D02*
Y1067000D01*
X368500D02*
X388500D01*
X368500Y1031000D02*
X388500D01*
X368500D02*
Y1067000D01*
X375750Y1046250D02*
Y1051750D01*
X381500D01*
Y1046250D02*
Y1051750D01*
X375750Y1046250D02*
X381500D01*
X398250Y1112250D02*
X434250D01*
X398250Y1092250D02*
Y1112250D01*
X434250Y1092250D02*
Y1112250D01*
X398250Y1092250D02*
X434250D01*
X413500Y1099500D02*
X419000D01*
X413500D02*
Y1105250D01*
X419000D01*
Y1099500D02*
Y1105250D01*
X451250Y993000D02*
X487250D01*
Y1013000D01*
X451250Y993000D02*
Y1013000D01*
X487250D01*
X466500Y1005750D02*
X472000D01*
Y1000000D02*
Y1005750D01*
X466500Y1000000D02*
X472000D01*
X466500D02*
Y1005750D01*
X502250Y1037500D02*
X538250D01*
Y1057500D01*
X502250Y1037500D02*
Y1057500D01*
X538250D01*
X517500Y1050250D02*
X523000D01*
Y1044500D02*
Y1050250D01*
X517500Y1044500D02*
X523000D01*
X517500D02*
Y1050250D01*
X469250Y1048250D02*
Y1084250D01*
X449250D02*
X469250D01*
X449250Y1048250D02*
X469250D01*
X449250D02*
Y1084250D01*
X456500Y1063500D02*
Y1069000D01*
X462250D01*
Y1063500D02*
Y1069000D01*
X456500Y1063500D02*
X462250D01*
X229350Y614150D02*
Y619450D01*
X232150Y614150D02*
Y619450D01*
X215250Y624750D02*
X246000D01*
X215250Y608750D02*
X246000D01*
X30850Y206150D02*
Y211450D01*
X33650Y206150D02*
Y211450D01*
X16750Y216750D02*
X47500D01*
X16750Y200750D02*
X47500D01*
X30850Y295650D02*
Y300950D01*
X33650Y295650D02*
Y300950D01*
X16750Y306250D02*
X47500D01*
X16750Y290250D02*
X47500D01*
X30850Y277750D02*
Y283050D01*
X33650Y277750D02*
Y283050D01*
X16750Y288350D02*
X47500D01*
X16750Y272350D02*
X47500D01*
X30850Y224050D02*
Y229350D01*
X33650Y224050D02*
Y229350D01*
X16750Y234650D02*
X47500D01*
X16750Y218650D02*
X47500D01*
X30850Y241950D02*
Y247250D01*
X33650Y241950D02*
Y247250D01*
X16750Y252550D02*
X47500D01*
X16750Y236550D02*
X47500D01*
X30850Y259850D02*
Y265150D01*
X33650Y259850D02*
Y265150D01*
X16750Y270450D02*
X47500D01*
X16750Y254450D02*
X47500D01*
X960250Y253500D02*
X996250D01*
X960250Y233500D02*
Y253500D01*
X996250Y233500D02*
Y253500D01*
X960250Y233500D02*
X996250D01*
X975500Y240750D02*
X981000D01*
X975500D02*
Y246500D01*
X981000D01*
Y240750D02*
Y246500D01*
X960250Y304750D02*
X996250D01*
X960250Y284750D02*
Y304750D01*
X996250Y284750D02*
Y304750D01*
X960250Y284750D02*
X996250D01*
X975500Y292000D02*
X981000D01*
X975500D02*
Y297750D01*
X981000D01*
Y292000D02*
Y297750D01*
X960250Y355750D02*
X996250D01*
X960250Y335750D02*
Y355750D01*
X996250Y335750D02*
Y355750D01*
X960250Y335750D02*
X996250D01*
X975500Y343000D02*
X981000D01*
X975500D02*
Y348750D01*
X981000D01*
Y343000D02*
Y348750D01*
X960250Y403000D02*
X996250D01*
X960250Y383000D02*
Y403000D01*
X996250Y383000D02*
Y403000D01*
X960250Y383000D02*
X996250D01*
X975500Y390250D02*
X981000D01*
X975500D02*
Y396000D01*
X981000D01*
Y390250D02*
Y396000D01*
X960250Y451750D02*
X996250D01*
X960250Y431750D02*
Y451750D01*
X996250Y431750D02*
Y451750D01*
X960250Y431750D02*
X996250D01*
X975500Y439000D02*
X981000D01*
X975500D02*
Y444750D01*
X981000D01*
Y439000D02*
Y444750D01*
X960250Y502750D02*
X996250D01*
X960250Y482750D02*
Y502750D01*
X996250Y482750D02*
Y502750D01*
X960250Y482750D02*
X996250D01*
X975500Y490000D02*
X981000D01*
X975500D02*
Y495750D01*
X981000D01*
Y490000D02*
Y495750D01*
X960250Y553500D02*
X996250D01*
X960250Y533500D02*
Y553500D01*
X996250Y533500D02*
Y553500D01*
X960250Y533500D02*
X996250D01*
X975500Y540750D02*
X981000D01*
X975500D02*
Y546500D01*
X981000D01*
Y540750D02*
Y546500D01*
X960250Y605250D02*
X996250D01*
X960250Y585250D02*
Y605250D01*
X996250Y585250D02*
Y605250D01*
X960250Y585250D02*
X996250D01*
X975500Y592500D02*
X981000D01*
X975500D02*
Y598250D01*
X981000D01*
Y592500D02*
Y598250D01*
X960250Y650500D02*
X996250D01*
X960250Y630500D02*
Y650500D01*
X996250Y630500D02*
Y650500D01*
X960250Y630500D02*
X996250D01*
X975500Y637750D02*
X981000D01*
X975500D02*
Y643500D01*
X981000D01*
Y637750D02*
Y643500D01*
D18*
X905828Y711593D02*
X908368Y709054D01*
Y703976D01*
X905828Y701436D01*
X895672D01*
X893132Y703976D01*
Y709054D01*
X895672Y711593D01*
X893132Y726828D02*
Y716672D01*
X903289Y726828D01*
X905828D01*
X908368Y724289D01*
Y719211D01*
X905828Y716672D01*
X908368Y742063D02*
X905828Y736985D01*
X900750Y731907D01*
X895672D01*
X893132Y734446D01*
Y739524D01*
X895672Y742063D01*
X898211D01*
X900750Y739524D01*
Y731907D01*
X655537Y712144D02*
X658076Y714683D01*
X663155D01*
X665694Y712144D01*
Y701987D01*
X663155Y699448D01*
X658076D01*
X655537Y701987D01*
X640302Y699448D02*
X650459D01*
X640302Y709605D01*
Y712144D01*
X642841Y714683D01*
X647920D01*
X650459Y712144D01*
X625067Y714683D02*
X635224D01*
Y707066D01*
X630145Y709605D01*
X627606D01*
X625067Y707066D01*
Y701987D01*
X627606Y699448D01*
X632685D01*
X635224Y701987D01*
X228176Y315448D02*
Y325445D01*
X223178D01*
X221511Y323779D01*
Y320446D01*
X223178Y318780D01*
X228176D01*
X224844D02*
X221511Y315448D01*
X211515Y325445D02*
X214847Y323779D01*
X218179Y320446D01*
Y317114D01*
X216513Y315448D01*
X213181D01*
X211515Y317114D01*
Y318780D01*
X213181Y320446D01*
X218179D01*
X201518Y315448D02*
X208182D01*
X201518Y322113D01*
Y323779D01*
X203184Y325445D01*
X206516D01*
X208182Y323779D01*
X28498Y186913D02*
X18502D01*
Y181915D01*
X20168Y180248D01*
X23500D01*
X25166Y181915D01*
Y186913D01*
Y183581D02*
X28498Y180248D01*
X18502Y170252D02*
X20168Y173584D01*
X23500Y176916D01*
X26832D01*
X28498Y175250D01*
Y171918D01*
X26832Y170252D01*
X25166D01*
X23500Y171918D01*
Y176916D01*
X28498Y166919D02*
Y163587D01*
Y165253D01*
X18502D01*
X20168Y166919D01*
X377742Y315334D02*
Y325331D01*
X372744D01*
X371077Y323665D01*
Y320332D01*
X372744Y318666D01*
X377742D01*
X374410D02*
X371077Y315334D01*
X361081Y325331D02*
X367745D01*
Y320332D01*
X364413Y321998D01*
X362747D01*
X361081Y320332D01*
Y317000D01*
X362747Y315334D01*
X366079D01*
X367745Y317000D01*
X357748Y323665D02*
X356082Y325331D01*
X352750D01*
X351084Y323665D01*
Y321998D01*
X352750Y320332D01*
X351084Y318666D01*
Y317000D01*
X352750Y315334D01*
X356082D01*
X357748Y317000D01*
Y318666D01*
X356082Y320332D01*
X357748Y321998D01*
Y323665D01*
X356082Y320332D02*
X352750D01*
X988672Y658984D02*
Y668981D01*
X983674D01*
X982008Y667315D01*
Y663982D01*
X983674Y662316D01*
X988672D01*
X985340D02*
X982008Y658984D01*
X978675Y667315D02*
X977009Y668981D01*
X973677D01*
X972011Y667315D01*
Y665648D01*
X973677Y663982D01*
X975343D01*
X973677D01*
X972011Y662316D01*
Y660650D01*
X973677Y658984D01*
X977009D01*
X978675Y660650D01*
X962014Y668981D02*
X965346Y667315D01*
X968679Y663982D01*
Y660650D01*
X967012Y658984D01*
X963680D01*
X962014Y660650D01*
Y662316D01*
X963680Y663982D01*
X968679D01*
X988768Y613700D02*
Y623697D01*
X983770D01*
X982104Y622031D01*
Y618698D01*
X983770Y617032D01*
X988768D01*
X985436D02*
X982104Y613700D01*
X978771Y622031D02*
X977105Y623697D01*
X973773D01*
X972107Y622031D01*
Y620364D01*
X973773Y618698D01*
X975439D01*
X973773D01*
X972107Y617032D01*
Y615366D01*
X973773Y613700D01*
X977105D01*
X978771Y615366D01*
X962110Y623697D02*
X968774D01*
Y618698D01*
X965442Y620364D01*
X963776D01*
X962110Y618698D01*
Y615366D01*
X963776Y613700D01*
X967108D01*
X968774Y615366D01*
X988584Y561992D02*
Y571989D01*
X983586D01*
X981919Y570323D01*
Y566990D01*
X983586Y565324D01*
X988584D01*
X985252D02*
X981919Y561992D01*
X978587Y570323D02*
X976921Y571989D01*
X973589D01*
X971923Y570323D01*
Y568656D01*
X973589Y566990D01*
X975255D01*
X973589D01*
X971923Y565324D01*
Y563658D01*
X973589Y561992D01*
X976921D01*
X978587Y563658D01*
X963592Y561992D02*
Y571989D01*
X968590Y566990D01*
X961926D01*
X988640Y511066D02*
Y521063D01*
X983642D01*
X981975Y519397D01*
Y516064D01*
X983642Y514398D01*
X988640D01*
X985308D02*
X981975Y511066D01*
X978643Y519397D02*
X976977Y521063D01*
X973645D01*
X971979Y519397D01*
Y517730D01*
X973645Y516064D01*
X975311D01*
X973645D01*
X971979Y514398D01*
Y512732D01*
X973645Y511066D01*
X976977D01*
X978643Y512732D01*
X968646Y519397D02*
X966980Y521063D01*
X963648D01*
X961982Y519397D01*
Y517730D01*
X963648Y516064D01*
X965314D01*
X963648D01*
X961982Y514398D01*
Y512732D01*
X963648Y511066D01*
X966980D01*
X968646Y512732D01*
X988778Y460110D02*
Y470107D01*
X983780D01*
X982113Y468441D01*
Y465108D01*
X983780Y463442D01*
X988778D01*
X985446D02*
X982113Y460110D01*
X978781Y468441D02*
X977115Y470107D01*
X973783D01*
X972117Y468441D01*
Y466774D01*
X973783Y465108D01*
X975449D01*
X973783D01*
X972117Y463442D01*
Y461776D01*
X973783Y460110D01*
X977115D01*
X978781Y461776D01*
X962120Y460110D02*
X968784D01*
X962120Y466774D01*
Y468441D01*
X963786Y470107D01*
X967118D01*
X968784Y468441D01*
X989663Y411002D02*
Y420998D01*
X984665D01*
X982998Y419332D01*
Y416000D01*
X984665Y414334D01*
X989663D01*
X986331D02*
X982998Y411002D01*
X979666Y419332D02*
X978000Y420998D01*
X974668D01*
X973002Y419332D01*
Y417666D01*
X974668Y416000D01*
X976334D01*
X974668D01*
X973002Y414334D01*
Y412668D01*
X974668Y411002D01*
X978000D01*
X979666Y412668D01*
X969669Y411002D02*
X966337D01*
X968003D01*
Y420998D01*
X969669Y419332D01*
X988754Y364122D02*
Y374119D01*
X983756D01*
X982089Y372453D01*
Y369120D01*
X983756Y367454D01*
X988754D01*
X985422D02*
X982089Y364122D01*
X978757Y372453D02*
X977091Y374119D01*
X973759D01*
X972093Y372453D01*
Y370787D01*
X973759Y369120D01*
X975425D01*
X973759D01*
X972093Y367454D01*
Y365788D01*
X973759Y364122D01*
X977091D01*
X978757Y365788D01*
X968760Y372453D02*
X967094Y374119D01*
X963762D01*
X962096Y372453D01*
Y365788D01*
X963762Y364122D01*
X967094D01*
X968760Y365788D01*
Y372453D01*
X988666Y313024D02*
Y323021D01*
X983668D01*
X982001Y321355D01*
Y318022D01*
X983668Y316356D01*
X988666D01*
X985334D02*
X982001Y313024D01*
X972005D02*
X978669D01*
X972005Y319688D01*
Y321355D01*
X973671Y323021D01*
X977003D01*
X978669Y321355D01*
X968672Y314690D02*
X967006Y313024D01*
X963674D01*
X962008Y314690D01*
Y321355D01*
X963674Y323021D01*
X967006D01*
X968672Y321355D01*
Y319688D01*
X967006Y318022D01*
X962008D01*
X988738Y261910D02*
Y271907D01*
X983740D01*
X982074Y270241D01*
Y266908D01*
X983740Y265242D01*
X988738D01*
X985406D02*
X982074Y261910D01*
X972077D02*
X978741D01*
X972077Y268575D01*
Y270241D01*
X973743Y271907D01*
X977075D01*
X978741Y270241D01*
X968744D02*
X967078Y271907D01*
X963746D01*
X962080Y270241D01*
Y268575D01*
X963746Y266908D01*
X962080Y265242D01*
Y263576D01*
X963746Y261910D01*
X967078D01*
X968744Y263576D01*
Y265242D01*
X967078Y266908D01*
X968744Y268575D01*
Y270241D01*
X967078Y266908D02*
X963746D01*
X58998Y986163D02*
X49002D01*
Y981164D01*
X50668Y979498D01*
X54000D01*
X55666Y981164D01*
Y986163D01*
Y982831D02*
X58998Y979498D01*
Y969502D02*
Y976166D01*
X52334Y969502D01*
X50668D01*
X49002Y971168D01*
Y974500D01*
X50668Y976166D01*
X58998Y966169D02*
Y962837D01*
Y964503D01*
X49002D01*
X50668Y966169D01*
X384080Y1073502D02*
Y1083498D01*
X379081D01*
X377415Y1081832D01*
Y1078500D01*
X379081Y1076834D01*
X384080D01*
X380748D02*
X377415Y1073502D01*
X374083D02*
X370751D01*
X372417D01*
Y1083498D01*
X374083Y1081832D01*
X365752Y1073502D02*
X362420D01*
X364086D01*
Y1083498D01*
X365752Y1081832D01*
X391246Y1110252D02*
Y1120248D01*
X386248D01*
X384581Y1118582D01*
Y1115250D01*
X386248Y1113584D01*
X391246D01*
X387914D02*
X384581Y1110252D01*
X381249D02*
X377917D01*
X379583D01*
Y1120248D01*
X381249Y1118582D01*
X372919D02*
X371252Y1120248D01*
X367920D01*
X366254Y1118582D01*
Y1111918D01*
X367920Y1110252D01*
X371252D01*
X372919Y1111918D01*
Y1118582D01*
X443748Y1077831D02*
X433752D01*
Y1072832D01*
X435418Y1071166D01*
X438750D01*
X440416Y1072832D01*
Y1077831D01*
Y1074498D02*
X443748Y1071166D01*
X442082Y1067834D02*
X443748Y1066168D01*
Y1062835D01*
X442082Y1061169D01*
X435418D01*
X433752Y1062835D01*
Y1066168D01*
X435418Y1067834D01*
X437084D01*
X438750Y1066168D01*
Y1061169D01*
X388081Y1009752D02*
Y1019748D01*
X383082D01*
X381416Y1018082D01*
Y1014750D01*
X383082Y1013084D01*
X388081D01*
X384748D02*
X381416Y1009752D01*
X371419Y1019748D02*
X374752Y1018082D01*
X378084Y1014750D01*
Y1011418D01*
X376418Y1009752D01*
X373086D01*
X371419Y1011418D01*
Y1013084D01*
X373086Y1014750D01*
X378084D01*
X445331Y999002D02*
Y1008998D01*
X440332D01*
X438666Y1007332D01*
Y1004000D01*
X440332Y1002334D01*
X445331D01*
X441998D02*
X438666Y999002D01*
X430336D02*
Y1008998D01*
X435334Y1004000D01*
X428669D01*
X563581Y1041252D02*
Y1051248D01*
X558582D01*
X556916Y1049582D01*
Y1046250D01*
X558582Y1044584D01*
X563581D01*
X560248D02*
X556916Y1041252D01*
X553584Y1049582D02*
X551918Y1051248D01*
X548586D01*
X546919Y1049582D01*
Y1047916D01*
X548586Y1046250D01*
X550252D01*
X548586D01*
X546919Y1044584D01*
Y1042918D01*
X548586Y1041252D01*
X551918D01*
X553584Y1042918D01*
X674496Y439778D02*
Y429782D01*
X669498D01*
X667831Y431448D01*
Y438112D01*
X669498Y439778D01*
X674496D01*
X664499Y429782D02*
X661167D01*
X662833D01*
Y439778D01*
X664499Y438112D01*
X651170Y429782D02*
Y439778D01*
X656169Y434780D01*
X649504D01*
X673496Y415138D02*
Y405142D01*
X668498D01*
X666832Y406808D01*
Y413472D01*
X668498Y415138D01*
X673496D01*
X663499Y405142D02*
X660167D01*
X661833D01*
Y415138D01*
X663499Y413472D01*
X655169D02*
X653502Y415138D01*
X650170D01*
X648504Y413472D01*
Y411806D01*
X650170Y410140D01*
X651836D01*
X650170D01*
X648504Y408474D01*
Y406808D01*
X650170Y405142D01*
X653502D01*
X655169Y406808D01*
X674846Y387748D02*
Y377752D01*
X669848D01*
X668182Y379418D01*
Y386082D01*
X669848Y387748D01*
X674846D01*
X664849Y377752D02*
X661517D01*
X663183D01*
Y387748D01*
X664849Y386082D01*
X649854Y377752D02*
X656518D01*
X649854Y384416D01*
Y386082D01*
X651520Y387748D01*
X654852D01*
X656518Y386082D01*
X925254Y212751D02*
Y222748D01*
X930252D01*
X931918Y221082D01*
Y214417D01*
X930252Y212751D01*
X925254D01*
X935251Y222748D02*
X938583D01*
X936917D01*
Y212751D01*
X935251Y214417D01*
X943581D02*
X945247Y212751D01*
X948580D01*
X950246Y214417D01*
Y221082D01*
X948580Y222748D01*
X945247D01*
X943581Y221082D01*
Y214417D01*
X926419Y187601D02*
Y197598D01*
X931418D01*
X933084Y195932D01*
Y189268D01*
X931418Y187601D01*
X926419D01*
X936416Y195932D02*
X938082Y197598D01*
X941414D01*
X943081Y195932D01*
Y189268D01*
X941414Y187601D01*
X938082D01*
X936416Y189268D01*
Y190934D01*
X938082Y192600D01*
X943081D01*
X925519Y158451D02*
Y168448D01*
X930518D01*
X932184Y166782D01*
Y160118D01*
X930518Y158451D01*
X925519D01*
X935516Y160118D02*
X937182Y158451D01*
X940515D01*
X942181Y160118D01*
Y161784D01*
X940515Y163450D01*
X942181Y165116D01*
Y166782D01*
X940515Y168448D01*
X937182D01*
X935516Y166782D01*
Y165116D01*
X937182Y163450D01*
X935516Y161784D01*
Y160118D01*
X937182Y163450D02*
X940515D01*
X924419Y129551D02*
Y139548D01*
X929418D01*
X931084Y137882D01*
Y131218D01*
X929418Y129551D01*
X924419D01*
X934416D02*
X941081D01*
Y131218D01*
X934416Y137882D01*
Y139548D01*
X927019Y93152D02*
Y103148D01*
X932018D01*
X933684Y101482D01*
Y94818D01*
X932018Y93152D01*
X927019D01*
X943681D02*
X940348Y94818D01*
X937016Y98150D01*
Y101482D01*
X938682Y103148D01*
X942014D01*
X943681Y101482D01*
Y99816D01*
X942014Y98150D01*
X937016D01*
X928819Y71752D02*
Y81748D01*
X933818D01*
X935484Y80082D01*
Y73418D01*
X933818Y71752D01*
X928819D01*
X945481D02*
X938816D01*
Y76750D01*
X942148Y75084D01*
X943814D01*
X945481Y76750D01*
Y80082D01*
X943814Y81748D01*
X940482D01*
X938816Y80082D01*
X752930Y1040241D02*
Y1030244D01*
X747932D01*
X746265Y1031910D01*
Y1038575D01*
X747932Y1040241D01*
X752930D01*
X742933Y1038575D02*
X741267Y1040241D01*
X737935D01*
X736269Y1038575D01*
Y1036908D01*
X737935Y1035242D01*
X739601D01*
X737935D01*
X736269Y1033576D01*
Y1031910D01*
X737935Y1030244D01*
X741267D01*
X742933Y1031910D01*
X242332Y584919D02*
X243998Y583252D01*
Y579920D01*
X242332Y578254D01*
X235668D01*
X234002Y579920D01*
Y583252D01*
X235668Y584919D01*
X234002Y588251D02*
Y591583D01*
Y589917D01*
X243998D01*
X242332Y588251D01*
X234002Y603246D02*
Y596581D01*
X240666Y603246D01*
X242332D01*
X243998Y601580D01*
Y598248D01*
X242332Y596581D01*
X439416Y986332D02*
X441082Y987998D01*
X444414D01*
X446081Y986332D01*
Y979668D01*
X444414Y978002D01*
X441082D01*
X439416Y979668D01*
X429419Y987998D02*
X436084D01*
Y983000D01*
X432752Y984666D01*
X431086D01*
X429419Y983000D01*
Y979668D01*
X431086Y978002D01*
X434418D01*
X436084Y979668D01*
X437981Y879509D02*
X439648Y881175D01*
X442980D01*
X444646Y879509D01*
Y872844D01*
X442980Y871178D01*
X439648D01*
X437981Y872844D01*
X429651Y871178D02*
Y881175D01*
X434649Y876176D01*
X427985D01*
M02*
