G04*
G04 #@! TF.GenerationSoftware,Altium Limited,Altium Designer,20.0.13 (296)*
G04*
G04 Layer_Physical_Order=1*
G04 Layer_Color=255*
%FSLAX44Y44*%
%MOMM*%
G71*
G01*
G75*
%ADD16C,0.2540*%
%ADD17C,2.5240*%
G04:AMPARAMS|DCode=18|XSize=1.57mm|YSize=0.41mm|CornerRadius=0.0513mm|HoleSize=0mm|Usage=FLASHONLY|Rotation=270.000|XOffset=0mm|YOffset=0mm|HoleType=Round|Shape=RoundedRectangle|*
%AMROUNDEDRECTD18*
21,1,1.5700,0.3075,0,0,270.0*
21,1,1.4675,0.4100,0,0,270.0*
1,1,0.1025,-0.1538,-0.7338*
1,1,0.1025,-0.1538,0.7338*
1,1,0.1025,0.1538,0.7338*
1,1,0.1025,0.1538,-0.7338*
%
%ADD18ROUNDEDRECTD18*%
%ADD19R,0.8000X1.1000*%
G04:AMPARAMS|DCode=20|XSize=1.47mm|YSize=0.28mm|CornerRadius=0.035mm|HoleSize=0mm|Usage=FLASHONLY|Rotation=270.000|XOffset=0mm|YOffset=0mm|HoleType=Round|Shape=RoundedRectangle|*
%AMROUNDEDRECTD20*
21,1,1.4700,0.2100,0,0,270.0*
21,1,1.4000,0.2800,0,0,270.0*
1,1,0.0700,-0.1050,-0.7000*
1,1,0.0700,-0.1050,0.7000*
1,1,0.0700,0.1050,0.7000*
1,1,0.0700,0.1050,-0.7000*
%
%ADD20ROUNDEDRECTD20*%
G04:AMPARAMS|DCode=21|XSize=1.47mm|YSize=0.28mm|CornerRadius=0.035mm|HoleSize=0mm|Usage=FLASHONLY|Rotation=0.000|XOffset=0mm|YOffset=0mm|HoleType=Round|Shape=RoundedRectangle|*
%AMROUNDEDRECTD21*
21,1,1.4700,0.2100,0,0,0.0*
21,1,1.4000,0.2800,0,0,0.0*
1,1,0.0700,0.7000,-0.1050*
1,1,0.0700,-0.7000,-0.1050*
1,1,0.0700,-0.7000,0.1050*
1,1,0.0700,0.7000,0.1050*
%
%ADD21ROUNDEDRECTD21*%
%ADD22R,1.0000X1.4000*%
%ADD23R,0.8000X1.0000*%
%ADD24R,1.4000X1.0000*%
%ADD25R,1.1000X4.8000*%
%ADD26R,1.8000X0.9000*%
%ADD27R,0.5900X1.2100*%
%ADD28R,1.0000X0.8000*%
%ADD29O,1.9000X0.6000*%
%ADD30R,1.0500X3.2000*%
%ADD31R,10.4500X8.3000*%
%ADD32R,4.0000X7.0000*%
%ADD33R,3.8100X2.7940*%
%ADD34R,1.2100X0.5800*%
%ADD35R,1.5000X0.9000*%
%ADD36C,2.0000*%
%ADD86C,0.5000*%
%ADD87C,1.0000*%
%ADD88C,0.7000*%
%ADD89C,0.4000*%
%ADD90C,3.0000*%
%ADD91C,0.4500*%
%ADD92C,1.2000*%
%ADD93R,1.2000X1.2000*%
%ADD94C,2.7000*%
%ADD95C,1.6500*%
%ADD96R,1.6500X1.6500*%
%ADD97C,3.4000*%
%ADD98C,1.9050*%
%ADD99R,1.9050X1.9050*%
%ADD100C,1.5000*%
%ADD101R,1.5000X1.5000*%
%ADD102C,1.6000*%
%ADD103R,1.6000X1.6000*%
%ADD104C,2.1000*%
%ADD105R,2.1000X2.1000*%
%ADD106C,1.4000*%
%ADD107R,1.4000X1.4000*%
%ADD108R,1.6000X1.6000*%
%ADD109R,1.3080X1.3080*%
%ADD110C,1.3080*%
%ADD111R,1.0600X1.0600*%
%ADD112C,1.0600*%
%ADD113O,1.2700X2.5400*%
%ADD114C,0.8000*%
%ADD115C,4.0000*%
%ADD116C,1.0000*%
%ADD117C,0.7500*%
%ADD118C,1.3000*%
%ADD119C,1.2700*%
%ADD120C,2.0000*%
G36*
X1056000Y0D02*
X0D01*
Y1125000D01*
X1056000D01*
Y0D01*
D02*
G37*
%LPC*%
G36*
X530500Y1117075D02*
X527462Y1116776D01*
X524540Y1115889D01*
X521847Y1114450D01*
X519487Y1112513D01*
X517550Y1110153D01*
X517099Y1109310D01*
X503000D01*
Y1112000D01*
X489000D01*
Y1103459D01*
X488940Y1103000D01*
Y1102250D01*
X489000Y1101791D01*
Y1094000D01*
X503000D01*
Y1095190D01*
X516298D01*
X517550Y1092847D01*
X519245Y1090781D01*
X515437Y1086972D01*
X514442Y1085483D01*
X514093Y1083728D01*
Y1010510D01*
X509171Y1005588D01*
X500804D01*
X500640Y1008060D01*
X500640Y1008128D01*
Y1025140D01*
X483560D01*
Y1008060D01*
X483560D01*
X483657Y1005520D01*
X482244Y1005239D01*
X480756Y1004244D01*
X473756Y997244D01*
X472761Y995756D01*
X472412Y994000D01*
Y989000D01*
X470000D01*
Y984588D01*
X462382D01*
X462298Y984791D01*
X460775Y986775D01*
X458791Y988298D01*
X456480Y989256D01*
X454000Y989582D01*
X451520Y989256D01*
X449209Y988298D01*
X447225Y986775D01*
X445702Y984791D01*
X445618Y984588D01*
X444929D01*
X443173Y984239D01*
X441685Y983244D01*
X433907Y975467D01*
X431560Y976439D01*
Y979576D01*
X482993Y1031008D01*
X484114Y1032470D01*
X484646Y1033754D01*
X486057Y1034463D01*
X487463Y1034793D01*
X487793Y1034540D01*
X489871Y1033680D01*
X492100Y1033386D01*
X494329Y1033680D01*
X496407Y1034540D01*
X498191Y1035909D01*
X499560Y1037693D01*
X500420Y1039771D01*
X500714Y1042000D01*
X500420Y1044229D01*
X499560Y1046307D01*
X498191Y1048091D01*
X496407Y1049460D01*
X494329Y1050320D01*
X492100Y1050614D01*
X489871Y1050320D01*
X487793Y1049460D01*
X487600Y1049312D01*
X485060Y1050564D01*
Y1058836D01*
X487600Y1060088D01*
X487793Y1059940D01*
X489871Y1059080D01*
X492100Y1058786D01*
X494329Y1059080D01*
X496407Y1059940D01*
X498191Y1061309D01*
X499560Y1063093D01*
X500420Y1065171D01*
X500714Y1067400D01*
X500420Y1069629D01*
X499560Y1071707D01*
X498191Y1073491D01*
X496407Y1074860D01*
X494329Y1075720D01*
X492100Y1076014D01*
X489871Y1075720D01*
X487793Y1074860D01*
X487600Y1074712D01*
X487490Y1074750D01*
X485748Y1076492D01*
X486298Y1077209D01*
X487256Y1079520D01*
X487582Y1082000D01*
X487256Y1084480D01*
X486298Y1086791D01*
X484776Y1088775D01*
X482791Y1090298D01*
X480480Y1091255D01*
X479525Y1091381D01*
X478926Y1091460D01*
X479053Y1093388D01*
X479053D01*
X479093Y1094000D01*
X483000D01*
Y1100541D01*
X483060Y1101000D01*
Y1103000D01*
X483000Y1103459D01*
Y1112000D01*
X469000D01*
Y1108060D01*
X458858D01*
X457030Y1107820D01*
X455328Y1107114D01*
X453865Y1105993D01*
X448008Y1100135D01*
X446885Y1098672D01*
X446180Y1096970D01*
X445940Y1095142D01*
Y1038924D01*
X430676Y1023660D01*
X420727D01*
X420207Y1024060D01*
X418129Y1024920D01*
X415900Y1025214D01*
X413671Y1024920D01*
X411593Y1024060D01*
X409809Y1022691D01*
X408440Y1020907D01*
X407580Y1018829D01*
X407286Y1016600D01*
X407580Y1014371D01*
X408440Y1012293D01*
X409809Y1010509D01*
X411593Y1009140D01*
X413671Y1008280D01*
X415900Y1007986D01*
X418129Y1008280D01*
X420207Y1009140D01*
X420727Y1009540D01*
X433600D01*
X435427Y1009780D01*
X437130Y1010486D01*
X438592Y1011608D01*
X457993Y1031008D01*
X459114Y1032470D01*
X459820Y1034173D01*
X460060Y1036000D01*
Y1092218D01*
X461782Y1093940D01*
X476000D01*
X476026Y1093884D01*
X475877Y1093109D01*
X474615Y1090880D01*
X473209Y1090298D01*
X471225Y1088775D01*
X469702Y1086791D01*
X468745Y1084480D01*
X468418Y1082000D01*
X468745Y1079520D01*
X469702Y1077209D01*
X470940Y1075596D01*
Y1038924D01*
X419507Y987492D01*
X418386Y986030D01*
X417680Y984327D01*
X417440Y982500D01*
Y944980D01*
X415952Y943041D01*
X414995Y940730D01*
X414668Y938250D01*
X414995Y935770D01*
X415355Y934900D01*
X407758Y927302D01*
X406636Y925840D01*
X405930Y924137D01*
X405690Y922310D01*
Y872250D01*
X405930Y870423D01*
X406636Y868720D01*
X407758Y867258D01*
X431479Y843536D01*
X431745Y841520D01*
X432702Y839209D01*
X434225Y837225D01*
X436209Y835702D01*
X438520Y834744D01*
X440536Y834479D01*
X458641Y816374D01*
X458348Y814938D01*
X457668Y813834D01*
X433302D01*
X351778Y895358D01*
X350696Y896080D01*
X349421Y896334D01*
X217500D01*
Y918666D01*
X242000D01*
Y915000D01*
X254000D01*
Y929000D01*
X242000D01*
Y925334D01*
X217500D01*
Y948000D01*
X202500D01*
Y926334D01*
X197000D01*
X195724Y926080D01*
X194643Y925358D01*
X183181Y913896D01*
X180834Y914868D01*
Y994119D01*
X199960Y1013245D01*
X202500Y1012193D01*
Y992000D01*
X217500D01*
Y1014666D01*
X242000D01*
Y1011000D01*
X254000D01*
Y1025000D01*
X242000D01*
Y1021334D01*
X217500D01*
Y1044000D01*
X202500D01*
Y1021334D01*
X200000D01*
X198724Y1021080D01*
X197642Y1020358D01*
X175142Y997858D01*
X174420Y996776D01*
X174166Y995500D01*
Y910255D01*
X171626Y908794D01*
X170000Y909118D01*
X168374Y908794D01*
X165834Y910255D01*
Y1014119D01*
X201381Y1049666D01*
X257000D01*
Y1044000D01*
X271000D01*
Y1062000D01*
X257000D01*
Y1056334D01*
X204947D01*
X203975Y1058681D01*
X219960Y1074666D01*
X257000D01*
Y1067000D01*
X271000D01*
Y1085000D01*
X257000D01*
Y1081334D01*
X223527D01*
X222555Y1083681D01*
X230540Y1091666D01*
X347619D01*
X361938Y1077347D01*
X360966Y1075000D01*
X359000D01*
Y1061000D01*
X377000D01*
Y1075000D01*
X371334D01*
Y1076000D01*
X371080Y1077276D01*
X370358Y1078357D01*
X351357Y1097357D01*
X350276Y1098080D01*
X349000Y1098334D01*
X229159D01*
X227883Y1098080D01*
X226801Y1097357D01*
X150142Y1020698D01*
X149420Y1019617D01*
X149166Y1018341D01*
Y925868D01*
X146819Y924896D01*
X139000Y932715D01*
Y942000D01*
X137078D01*
Y945055D01*
X136768Y946616D01*
X135884Y947939D01*
X135884Y947939D01*
X129452Y954370D01*
X129069Y954627D01*
Y962486D01*
X126928D01*
X125876Y965026D01*
X130836Y969986D01*
X138569D01*
Y984986D01*
X137078D01*
Y990000D01*
X141000D01*
Y1008000D01*
X137078D01*
Y1013000D01*
X141000D01*
Y1031000D01*
X127000D01*
Y1013000D01*
X128922D01*
Y1008000D01*
X127000D01*
Y990000D01*
X128922D01*
Y984986D01*
X126569D01*
Y977254D01*
X122109Y972794D01*
X119569Y973846D01*
Y984986D01*
X117863D01*
Y990000D01*
X121000D01*
Y1008000D01*
X107000D01*
Y990000D01*
X109706D01*
Y984986D01*
X107569D01*
Y981322D01*
X102000D01*
Y984000D01*
X84000D01*
Y971078D01*
X81343D01*
X79782Y970768D01*
X78459Y969884D01*
X78459Y969884D01*
X76116Y967541D01*
X75232Y966218D01*
X74922Y964657D01*
X74922Y964657D01*
Y942000D01*
X74922Y942000D01*
X75232Y940439D01*
X76116Y939116D01*
X87116Y928116D01*
X88439Y927232D01*
X90000Y926922D01*
X90000Y926922D01*
X112657D01*
X112657Y926922D01*
X112922Y925172D01*
Y925000D01*
X113232Y923439D01*
X114116Y922116D01*
X115439Y921232D01*
X115452Y920860D01*
X113083Y918337D01*
X112987Y918336D01*
X112326Y919326D01*
X110341Y920652D01*
X108000Y921117D01*
X105659Y920652D01*
X103674Y919326D01*
X102348Y917341D01*
X101882Y915000D01*
X102348Y912659D01*
X103674Y910674D01*
X105659Y909348D01*
X106170Y906657D01*
X105674Y906326D01*
X104348Y904341D01*
X103883Y902000D01*
X104348Y899659D01*
X105674Y897674D01*
X107659Y896348D01*
X110000Y895882D01*
X112341Y896348D01*
X114326Y897674D01*
X114585Y897700D01*
X117334Y894951D01*
X116362Y892604D01*
X79270D01*
X77994Y892350D01*
X76912Y891628D01*
X72789Y887504D01*
X72088Y887794D01*
X70000Y888069D01*
X67912Y887794D01*
X65965Y886988D01*
X64294Y885706D01*
X63012Y884035D01*
X62206Y882088D01*
X61931Y880000D01*
X62206Y877912D01*
X63012Y875965D01*
X64294Y874294D01*
X65965Y873012D01*
X67912Y872206D01*
X70000Y871931D01*
X72088Y872206D01*
X74035Y873012D01*
X75706Y874294D01*
X76988Y875965D01*
X77794Y877912D01*
X78069Y880000D01*
X77794Y882088D01*
X77784Y882113D01*
X79527Y884085D01*
X79689Y884060D01*
X81680Y882229D01*
X81553Y881270D01*
X90000D01*
X98447D01*
X98320Y882229D01*
X97837Y883396D01*
X99149Y885936D01*
X119349D01*
X124166Y881119D01*
Y880263D01*
X124054Y879700D01*
Y878039D01*
X105000D01*
X104220Y877884D01*
X103558Y877442D01*
X103116Y876780D01*
X102961Y876000D01*
Y856964D01*
X77751D01*
X67908Y866807D01*
X67908Y866807D01*
X58000Y876715D01*
Y888000D01*
X42000D01*
Y872000D01*
X53285D01*
X63193Y862092D01*
X63193Y862092D01*
X70974Y854311D01*
X70002Y851964D01*
X55619D01*
X55244Y854817D01*
X53770Y858373D01*
X51427Y861427D01*
X48373Y863771D01*
X44817Y865244D01*
X41000Y865746D01*
X37183Y865244D01*
X33627Y863771D01*
X30573Y861427D01*
X28229Y858373D01*
X26756Y854817D01*
X26254Y851000D01*
X26756Y847183D01*
X28229Y843627D01*
X30573Y840573D01*
X33627Y838230D01*
X37183Y836756D01*
X41000Y836254D01*
X42090Y836397D01*
X43277Y833992D01*
X39643Y830358D01*
X38920Y829276D01*
X38666Y828000D01*
Y574988D01*
X37674Y574326D01*
X36348Y572341D01*
X35882Y570000D01*
X36348Y567659D01*
X37674Y565674D01*
X39659Y564348D01*
X42000Y563882D01*
X44341Y564348D01*
X46326Y565674D01*
X47652Y567659D01*
X48117Y570000D01*
X47652Y572341D01*
X46326Y574326D01*
X45334Y574988D01*
Y696101D01*
X47874Y696872D01*
X48674Y695674D01*
X50659Y694348D01*
X53000Y693883D01*
X55341Y694348D01*
X57326Y695674D01*
X58652Y697659D01*
X59117Y700000D01*
X58885Y701170D01*
X61319Y703604D01*
X63666Y702632D01*
Y510802D01*
X44072Y491208D01*
X43350Y490126D01*
X43096Y488851D01*
Y466570D01*
X43350Y465294D01*
X44072Y464212D01*
X45642Y462643D01*
X46724Y461920D01*
X48000Y461666D01*
X56480D01*
X57756Y461920D01*
X58838Y462643D01*
X60326Y464130D01*
X61049Y465212D01*
X61169Y465815D01*
X61595Y466689D01*
X63212Y467801D01*
X66287D01*
X67268Y467996D01*
X68000Y468485D01*
X68732Y467996D01*
X69713Y467801D01*
X72787D01*
X73768Y467996D01*
X74500Y468485D01*
X75232Y467996D01*
X76213Y467801D01*
X79288D01*
X80268Y467996D01*
X81000Y468485D01*
X81732Y467996D01*
X82712Y467801D01*
X85787D01*
X86768Y467996D01*
X87500Y468485D01*
X88232Y467996D01*
X88969Y467849D01*
X89558Y467053D01*
X90344Y465349D01*
X90332Y465261D01*
X89882Y463000D01*
X90348Y460659D01*
X91674Y458674D01*
X93659Y457348D01*
X94765Y457128D01*
X94515Y454588D01*
X23829D01*
X23588Y454829D01*
Y983100D01*
X58900Y1018412D01*
X107000D01*
Y1013000D01*
X121000D01*
Y1031000D01*
X107000D01*
Y1027588D01*
X57000D01*
X55244Y1027239D01*
X53756Y1026244D01*
X15756Y988244D01*
X14761Y986756D01*
X14412Y985000D01*
Y452929D01*
X14761Y451173D01*
X15756Y449685D01*
X18685Y446756D01*
X20173Y445761D01*
X21929Y445412D01*
X29246D01*
X29850Y444530D01*
X30371Y442872D01*
X29348Y441341D01*
X28975Y439463D01*
X17756Y428244D01*
X16761Y426756D01*
X16412Y425000D01*
Y89000D01*
X16761Y87244D01*
X17756Y85756D01*
X57827Y45685D01*
X59315Y44690D01*
X61071Y44341D01*
X170067D01*
X171659Y43277D01*
X174000Y42811D01*
X176341Y43277D01*
X178326Y44603D01*
X179652Y46588D01*
X180117Y48929D01*
X179652Y51270D01*
X178326Y53255D01*
X176341Y54581D01*
X174000Y55047D01*
X171659Y54581D01*
X170067Y53517D01*
X106598D01*
X105546Y56057D01*
X138000Y88512D01*
X152819D01*
X153294Y87894D01*
X154818Y86723D01*
X156594Y85988D01*
X158500Y85737D01*
X160406Y85988D01*
X162181Y86723D01*
X163706Y87894D01*
X164876Y89418D01*
X165612Y91194D01*
X165863Y93100D01*
X165761Y93873D01*
X206779Y134890D01*
X209067Y133586D01*
X208878Y132150D01*
Y119450D01*
X209165Y117270D01*
X210006Y115239D01*
X211345Y113495D01*
X213089Y112156D01*
X215120Y111315D01*
X217300Y111028D01*
X219480Y111315D01*
X221511Y112156D01*
X223255Y113495D01*
X224594Y115239D01*
X225435Y117270D01*
X225722Y119450D01*
Y132150D01*
X225435Y134330D01*
X224594Y136361D01*
X223255Y138105D01*
X221511Y139444D01*
X219480Y140285D01*
X217300Y140572D01*
X215864Y140383D01*
X214560Y142671D01*
X256744Y184856D01*
X257739Y186344D01*
X258088Y188100D01*
Y218511D01*
X299812Y260235D01*
X302159Y259263D01*
Y242747D01*
X302508Y240991D01*
X303503Y239503D01*
X319912Y223093D01*
Y214722D01*
X317372Y213469D01*
X316052Y214482D01*
X313133Y215691D01*
X310000Y216104D01*
X306867Y215691D01*
X303948Y214482D01*
X301441Y212558D01*
X299518Y210052D01*
X298309Y207133D01*
X297896Y204000D01*
X298309Y200867D01*
X299208Y198697D01*
X252156Y151644D01*
X251161Y150156D01*
X250812Y148400D01*
Y139467D01*
X249721Y138778D01*
X248272Y138399D01*
X246911Y139444D01*
X244880Y140285D01*
X242700Y140572D01*
X240520Y140285D01*
X238489Y139444D01*
X236745Y138105D01*
X235406Y136361D01*
X234565Y134330D01*
X234278Y132150D01*
Y119450D01*
X234565Y117270D01*
X235406Y115239D01*
X236745Y113495D01*
X238489Y112156D01*
X240520Y111315D01*
X242700Y111028D01*
X244880Y111315D01*
X246911Y112156D01*
X248272Y113201D01*
X249721Y112822D01*
X250812Y112133D01*
Y88354D01*
X249445Y87305D01*
X248106Y85561D01*
X247265Y83530D01*
X246978Y81350D01*
Y68650D01*
X247265Y66470D01*
X248106Y64439D01*
X249445Y62695D01*
X251189Y61356D01*
X253220Y60515D01*
X255400Y60228D01*
X257580Y60515D01*
X259611Y61356D01*
X261355Y62695D01*
X262694Y64439D01*
X263535Y66470D01*
X263822Y68650D01*
Y81350D01*
X263535Y83530D01*
X262694Y85561D01*
X261355Y87305D01*
X259988Y88354D01*
Y110512D01*
X262528Y111760D01*
X263512Y111002D01*
Y106900D01*
X263861Y105144D01*
X264856Y103656D01*
X271756Y96756D01*
X273244Y95761D01*
X275000Y95412D01*
X285054D01*
X286027Y93065D01*
X282509Y89547D01*
X280800Y89772D01*
X278620Y89485D01*
X276589Y88644D01*
X274845Y87305D01*
X273506Y85561D01*
X272665Y83530D01*
X272378Y81350D01*
Y68650D01*
X272665Y66470D01*
X273506Y64439D01*
X274845Y62695D01*
X276589Y61356D01*
X278620Y60515D01*
X280800Y60228D01*
X282980Y60515D01*
X285011Y61356D01*
X286755Y62695D01*
X288094Y64439D01*
X288935Y66470D01*
X289222Y68650D01*
Y81350D01*
X288997Y83059D01*
X293550Y87612D01*
X296894D01*
X298119Y85072D01*
X297539Y83671D01*
X297233Y81350D01*
Y76270D01*
X306200D01*
Y75000D01*
X307470D01*
Y59851D01*
X308521Y59989D01*
X310683Y60885D01*
X312540Y62310D01*
X313622Y63720D01*
X315263Y63630D01*
X316313Y63196D01*
X316461Y62450D01*
X317456Y60961D01*
X323862Y54556D01*
X325350Y53561D01*
X327106Y53212D01*
X336094D01*
X337850Y53561D01*
X339338Y54556D01*
X345694Y60911D01*
X346689Y62400D01*
X347038Y64156D01*
Y64243D01*
X349578Y64748D01*
X349706Y64439D01*
X351045Y62695D01*
X352789Y61356D01*
X354820Y60515D01*
X357000Y60228D01*
X359180Y60515D01*
X361211Y61356D01*
X362955Y62695D01*
X364294Y64439D01*
X365135Y66470D01*
X365422Y68650D01*
Y81350D01*
X365135Y83530D01*
X364294Y85561D01*
X362955Y87305D01*
X361211Y88644D01*
X359180Y89485D01*
X357000Y89772D01*
X354820Y89485D01*
X352789Y88644D01*
X351045Y87305D01*
X349706Y85561D01*
X349578Y85252D01*
X347038Y85757D01*
Y95900D01*
X346689Y97656D01*
X345694Y99144D01*
X327097Y117741D01*
X327322Y119450D01*
Y132150D01*
X327035Y134330D01*
X326194Y136361D01*
X324855Y138105D01*
X323488Y139154D01*
Y147999D01*
X337948Y162459D01*
X339923Y161148D01*
X340042Y160962D01*
X339712Y159300D01*
Y139154D01*
X338345Y138105D01*
X337006Y136361D01*
X336165Y134330D01*
X335878Y132150D01*
Y119450D01*
X336165Y117270D01*
X337006Y115239D01*
X338345Y113495D01*
X340089Y112156D01*
X342120Y111315D01*
X344300Y111028D01*
X346480Y111315D01*
X348511Y112156D01*
X350255Y113495D01*
X351594Y115239D01*
X352435Y117270D01*
X352722Y119450D01*
Y132150D01*
X352435Y134330D01*
X351594Y136361D01*
X350255Y138105D01*
X348888Y139154D01*
Y157400D01*
X358576Y167087D01*
X360489Y165409D01*
X359218Y163752D01*
X358009Y160833D01*
X357596Y157700D01*
Y125800D01*
X358009Y122667D01*
X359218Y119748D01*
X361142Y117241D01*
X361780Y116752D01*
X362406Y115239D01*
X363745Y113495D01*
X365489Y112156D01*
X367520Y111315D01*
X369700Y111028D01*
X371880Y111315D01*
X373911Y112156D01*
X375655Y113495D01*
X376994Y115239D01*
X377620Y116752D01*
X378259Y117241D01*
X380182Y119748D01*
X381391Y122667D01*
X381804Y125800D01*
Y152687D01*
X414558Y185441D01*
X416482Y187948D01*
X417691Y190867D01*
X418104Y194000D01*
Y217987D01*
X484013Y283896D01*
X977556D01*
X977737Y283822D01*
X981000Y283392D01*
X984263Y283822D01*
X987304Y285081D01*
X989915Y287085D01*
X991919Y289696D01*
X993178Y292737D01*
X993608Y296000D01*
X993178Y299263D01*
X991919Y302304D01*
X989915Y304915D01*
X987304Y306919D01*
X984263Y308178D01*
X981000Y308608D01*
X977737Y308178D01*
X977556Y308104D01*
X655104D01*
Y312524D01*
X655282Y312619D01*
X658632Y315368D01*
X661381Y318718D01*
X663424Y322540D01*
X664682Y326687D01*
X665106Y331000D01*
X664682Y335313D01*
X663424Y339460D01*
X661381Y343282D01*
X658632Y346632D01*
X655282Y349381D01*
X651460Y351424D01*
X647313Y352682D01*
X643000Y353106D01*
X638687Y352682D01*
X634540Y351424D01*
X630718Y349381D01*
X627368Y346632D01*
X624619Y343282D01*
X622576Y339460D01*
X621318Y335313D01*
X620894Y331000D01*
X621318Y326687D01*
X622576Y322540D01*
X624619Y318718D01*
X627368Y315368D01*
X630718Y312619D01*
X630896Y312524D01*
Y308104D01*
X479000D01*
X475867Y307691D01*
X472948Y306482D01*
X470442Y304559D01*
X397441Y231558D01*
X395518Y229052D01*
X394309Y226133D01*
X393896Y223000D01*
Y199014D01*
X378615Y183732D01*
X376642Y185352D01*
X377239Y186244D01*
X377588Y188000D01*
Y222912D01*
X379052Y223518D01*
X381558Y225441D01*
X383482Y227948D01*
X384691Y230867D01*
X384877Y232282D01*
X387870D01*
X389626Y232631D01*
X391114Y233626D01*
X495872Y338383D01*
X498412Y337331D01*
Y336000D01*
X498761Y334244D01*
X499756Y332756D01*
X512756Y319756D01*
X514244Y318761D01*
X516000Y318412D01*
X534912D01*
X535518Y316948D01*
X537441Y314442D01*
X539948Y312518D01*
X542867Y311309D01*
X546000Y310896D01*
X549133Y311309D01*
X552052Y312518D01*
X554558Y314442D01*
X556482Y316948D01*
X557691Y319867D01*
X558104Y323000D01*
X557691Y326133D01*
X556482Y329052D01*
X554558Y331558D01*
X553060Y332708D01*
Y340075D01*
X571992Y359008D01*
X573115Y360470D01*
X573820Y362173D01*
X574060Y364000D01*
Y436000D01*
X573820Y437827D01*
X573115Y439530D01*
X571992Y440993D01*
X517060Y495924D01*
Y613075D01*
X607124Y703139D01*
X608246Y704601D01*
X608951Y706304D01*
X609192Y708132D01*
Y720526D01*
X609509Y720940D01*
X728075D01*
X827940Y621076D01*
Y593082D01*
X785000D01*
Y633000D01*
X741000D01*
Y559000D01*
X767165D01*
X768000Y558918D01*
X837924D01*
X860921Y535921D01*
X863510Y533797D01*
X866463Y532218D01*
X869667Y531246D01*
X873000Y530918D01*
X876332Y531246D01*
X879537Y532218D01*
X882490Y533797D01*
X885079Y535921D01*
X887203Y538510D01*
X888502Y540940D01*
X965000D01*
X966827Y541180D01*
X968530Y541885D01*
X969992Y543008D01*
X978485Y551500D01*
X993500D01*
Y566515D01*
X1012992Y586007D01*
X1014115Y587470D01*
X1014820Y589173D01*
X1015060Y591000D01*
Y993000D01*
X1014820Y994827D01*
X1014115Y996530D01*
X1012992Y997992D01*
X1007135Y1003850D01*
X1005672Y1004972D01*
X1003969Y1005678D01*
X1002142Y1005918D01*
X965858D01*
X964031Y1005678D01*
X962328Y1004972D01*
X960865Y1003850D01*
X883008Y925993D01*
X881886Y924530D01*
X881180Y922827D01*
X880940Y921000D01*
Y874324D01*
X870615Y864000D01*
X860600D01*
Y844000D01*
X880600D01*
Y854015D01*
X892992Y866408D01*
X894115Y867870D01*
X894820Y869573D01*
X895060Y871400D01*
Y918075D01*
X968782Y991797D01*
X999218D01*
X1000940Y990076D01*
Y593924D01*
X983515Y576500D01*
X968500D01*
Y561485D01*
X962076Y555060D01*
X888502D01*
X887203Y557490D01*
X885079Y560079D01*
X857079Y588079D01*
X854490Y590203D01*
X851537Y591782D01*
X848333Y592754D01*
X845000Y593082D01*
X842060D01*
Y624000D01*
X841820Y625827D01*
X841115Y627530D01*
X839993Y628992D01*
X735993Y732992D01*
X734530Y734115D01*
X732827Y734820D01*
X731000Y735060D01*
X609509D01*
X608620Y736220D01*
X606212Y738067D01*
X603409Y739228D01*
X600400Y739624D01*
X597391Y739228D01*
X594588Y738067D01*
X592180Y736220D01*
X590333Y733812D01*
X589172Y731009D01*
X588981Y729560D01*
X586419D01*
X586228Y731009D01*
X585067Y733812D01*
X583220Y736220D01*
X580812Y738067D01*
X578009Y739228D01*
X575000Y739624D01*
X571991Y739228D01*
X570777Y738725D01*
X554607Y754896D01*
X554878Y756296D01*
X555550Y757436D01*
X737849D01*
X817348Y677937D01*
X816745Y676480D01*
X816418Y674000D01*
X816745Y671520D01*
X817702Y669209D01*
X819224Y667225D01*
X821209Y665702D01*
X823520Y664744D01*
X826000Y664418D01*
X828480Y664744D01*
X830791Y665702D01*
X832775Y667225D01*
X834298Y669209D01*
X834382Y669412D01*
X887000D01*
Y665000D01*
X901000D01*
Y683000D01*
X887000D01*
Y678588D01*
X834382D01*
X834298Y678791D01*
X832775Y680775D01*
X830791Y682298D01*
X828480Y683255D01*
X826000Y683582D01*
X823520Y683255D01*
X822063Y682652D01*
X745086Y759629D01*
X746058Y761976D01*
X762309D01*
X823348Y700937D01*
X822745Y699480D01*
X822418Y697000D01*
X822745Y694520D01*
X823702Y692209D01*
X825225Y690225D01*
X827209Y688702D01*
X829520Y687745D01*
X832000Y687418D01*
X834480Y687745D01*
X836791Y688702D01*
X838775Y690225D01*
X840298Y692209D01*
X840313Y692245D01*
X887000D01*
Y687833D01*
X901000D01*
Y705833D01*
X887000D01*
Y701422D01*
X840451D01*
X840298Y701791D01*
X838775Y703775D01*
X836791Y705298D01*
X834480Y706255D01*
X832000Y706582D01*
X829520Y706255D01*
X828063Y705652D01*
X823479Y710236D01*
X823387Y710367D01*
X825047Y712260D01*
X825370Y712012D01*
X826209Y711368D01*
X828520Y710411D01*
X831000Y710085D01*
X833480Y710411D01*
X835791Y711368D01*
X837775Y712891D01*
X839298Y714876D01*
X839382Y715079D01*
X887000D01*
Y710667D01*
X901000D01*
Y728667D01*
X887000D01*
Y724255D01*
X839382D01*
X839298Y724458D01*
X837775Y726442D01*
X835791Y727965D01*
X833480Y728922D01*
X831000Y729249D01*
X828520Y728922D01*
X826209Y727965D01*
X825949Y727766D01*
X785006Y768709D01*
X785978Y771056D01*
X791229D01*
X821590Y740695D01*
X821745Y739520D01*
X822702Y737209D01*
X824224Y735225D01*
X826209Y733702D01*
X828520Y732745D01*
X831000Y732418D01*
X833480Y732745D01*
X835791Y733702D01*
X837775Y735225D01*
X839298Y737209D01*
X839486Y737662D01*
X887000D01*
Y733500D01*
X901000D01*
Y751500D01*
X887000D01*
Y746838D01*
X839262D01*
X837775Y748775D01*
X835791Y750298D01*
X833480Y751255D01*
X831000Y751582D01*
X828520Y751255D01*
X826209Y750298D01*
X824225Y748775D01*
X823019Y748696D01*
X798396Y773319D01*
X799368Y775666D01*
X816619D01*
X823348Y768937D01*
X822745Y767480D01*
X822418Y765000D01*
X822745Y762520D01*
X823702Y760209D01*
X825225Y758224D01*
X827209Y756702D01*
X829520Y755744D01*
X832000Y755418D01*
X834480Y755744D01*
X836791Y756702D01*
X838775Y758224D01*
X840298Y760209D01*
X840451Y760579D01*
X887000D01*
Y756333D01*
X901000D01*
Y774333D01*
X887000D01*
Y769755D01*
X840313D01*
X840298Y769791D01*
X838775Y771775D01*
X836791Y773298D01*
X834480Y774255D01*
X832000Y774582D01*
X829520Y774255D01*
X828063Y773652D01*
X820358Y781357D01*
X819276Y782080D01*
X818000Y782334D01*
X431531D01*
X430943Y783106D01*
X430391Y784874D01*
X431115Y785818D01*
X431820Y787520D01*
X432060Y789348D01*
X431820Y791175D01*
X431115Y792878D01*
X429992Y794340D01*
X428530Y795462D01*
X426827Y796168D01*
X425000Y796408D01*
X423235Y796176D01*
X395783Y823627D01*
X394701Y824350D01*
X393425Y824604D01*
X349065D01*
X348243Y826426D01*
X348116Y827144D01*
X349114Y828445D01*
X349820Y830148D01*
X350060Y831975D01*
X349820Y833802D01*
X349330Y834985D01*
X350028Y836623D01*
X350766Y837525D01*
X369804D01*
X369885Y837329D01*
X371008Y835867D01*
X372470Y834745D01*
X374173Y834040D01*
X376000Y833799D01*
X377827Y834040D01*
X379530Y834745D01*
X380993Y835867D01*
X382114Y837329D01*
X382820Y839032D01*
X383060Y840860D01*
X382820Y842687D01*
X382114Y844390D01*
X380993Y845852D01*
X379530Y846974D01*
X377827Y847679D01*
X376000Y847920D01*
X374173Y847679D01*
X372470Y846974D01*
X371008Y845852D01*
X369885Y844390D01*
X369804Y844194D01*
X300439D01*
X299163Y843940D01*
X298081Y843217D01*
X286698Y831834D01*
X248868D01*
X247896Y834181D01*
X279771Y866056D01*
X280508Y866008D01*
X281970Y864885D01*
X283673Y864180D01*
X285500Y863940D01*
X287327Y864180D01*
X289030Y864885D01*
X290492Y866008D01*
X291614Y867470D01*
X292320Y869173D01*
X292560Y871000D01*
X292320Y872827D01*
X291614Y874530D01*
X290492Y875993D01*
X289030Y877114D01*
X287327Y877820D01*
X285500Y878060D01*
X283673Y877820D01*
X282397Y877292D01*
X281033Y877948D01*
X280039Y878834D01*
X280060Y879000D01*
X279820Y880827D01*
X279282Y882126D01*
X279840Y883521D01*
X280677Y884666D01*
X346619D01*
X443643Y787643D01*
X444724Y786920D01*
X446000Y786666D01*
X823098D01*
X823702Y785209D01*
X825225Y783224D01*
X827209Y781702D01*
X829520Y780744D01*
X832000Y780418D01*
X834480Y780744D01*
X836791Y781702D01*
X838775Y783224D01*
X839750Y784495D01*
X887000D01*
Y779167D01*
X901000D01*
Y797167D01*
X887000D01*
Y793671D01*
X840762D01*
X840298Y794791D01*
X838775Y796775D01*
X836791Y798298D01*
X836001Y798625D01*
Y801375D01*
X836791Y801702D01*
X838775Y803225D01*
X840298Y805209D01*
X840589Y805912D01*
X887000D01*
Y802000D01*
X901000D01*
Y820000D01*
X887000D01*
Y815088D01*
X840070D01*
X838775Y816776D01*
X836791Y818298D01*
X834480Y819256D01*
X832000Y819582D01*
X829520Y819256D01*
X827209Y818298D01*
X825225Y816776D01*
X823702Y814791D01*
X823305Y813834D01*
X533332D01*
X532652Y814938D01*
X532359Y816374D01*
X536925Y820940D01*
X610499D01*
X612327Y821180D01*
X614030Y821886D01*
X615492Y823008D01*
X639459Y846974D01*
X641610Y847257D01*
X644043Y848265D01*
X646132Y849868D01*
X647735Y851957D01*
X648743Y854389D01*
X649086Y857000D01*
X648743Y859611D01*
X647735Y862043D01*
X646132Y864132D01*
X644043Y865735D01*
X641610Y866743D01*
X639000Y867086D01*
X636390Y866743D01*
X633957Y865735D01*
X631868Y864132D01*
X630265Y862043D01*
X629257Y859611D01*
X628914Y857000D01*
X628984Y856469D01*
X625947Y853432D01*
X623600Y854404D01*
Y867000D01*
X621035D01*
Y916661D01*
X623382Y917633D01*
X638008Y903008D01*
X639470Y901886D01*
X641173Y901180D01*
X643000Y900940D01*
X790000D01*
X791827Y901180D01*
X793530Y901886D01*
X794992Y903008D01*
X818842Y926858D01*
X819965Y928320D01*
X820670Y930023D01*
X820910Y931850D01*
Y975098D01*
X821160Y975290D01*
X822803Y977431D01*
X823836Y979924D01*
X824188Y982600D01*
X823836Y985276D01*
X822803Y987769D01*
X821160Y989910D01*
X819019Y991553D01*
X816526Y992586D01*
X813850Y992939D01*
X811174Y992586D01*
X808681Y991553D01*
X806540Y989910D01*
X804897Y987769D01*
X803864Y985276D01*
X803512Y982600D01*
X803864Y979924D01*
X804897Y977431D01*
X806540Y975290D01*
X806790Y975098D01*
Y934774D01*
X787076Y915060D01*
X645925D01*
X621410Y939575D01*
Y974598D01*
X621660Y974790D01*
X623303Y976931D01*
X624336Y979424D01*
X624688Y982100D01*
X624336Y984776D01*
X623303Y987269D01*
X621660Y989410D01*
X619519Y991053D01*
X617026Y992086D01*
X614350Y992439D01*
X611674Y992086D01*
X609181Y991053D01*
X607040Y989410D01*
X605397Y987269D01*
X604364Y984776D01*
X604012Y982100D01*
X604364Y979424D01*
X605397Y976931D01*
X606915Y974953D01*
Y867000D01*
X603600D01*
Y847000D01*
X616196D01*
X617168Y844653D01*
X607575Y835060D01*
X541060D01*
Y843000D01*
X540820Y844827D01*
X540115Y846530D01*
X538992Y847992D01*
X525521Y861464D01*
X525256Y863480D01*
X524298Y865791D01*
X522775Y867775D01*
X520791Y869298D01*
X520088Y869589D01*
Y872000D01*
X521000D01*
Y886000D01*
X509000D01*
Y872000D01*
X510912D01*
Y869070D01*
X509225Y867775D01*
X507702Y865791D01*
X507504Y865313D01*
X504398Y864414D01*
X503588Y864994D01*
Y872000D01*
X505000D01*
Y886000D01*
X505000Y886000D01*
X505000D01*
X506389Y887901D01*
X507030Y888541D01*
X523129D01*
X524885Y888891D01*
X526374Y889885D01*
X542610Y906122D01*
X543520Y905744D01*
X546000Y905418D01*
X548480Y905744D01*
X550791Y906702D01*
X552775Y908224D01*
X554298Y910209D01*
X555256Y912520D01*
X555582Y915000D01*
X555256Y917480D01*
X554298Y919791D01*
X552775Y921775D01*
X551803Y922522D01*
X552665Y925062D01*
X564944D01*
X566700Y925411D01*
X568188Y926406D01*
X568404Y926621D01*
X570520Y925745D01*
X573000Y925418D01*
X575480Y925745D01*
X577791Y926702D01*
X579147Y924636D01*
X575683Y921171D01*
X575480Y921255D01*
X573000Y921582D01*
X570520Y921255D01*
X568209Y920298D01*
X566225Y918775D01*
X564702Y916791D01*
X563745Y914480D01*
X563418Y912000D01*
X563745Y909520D01*
X564702Y907209D01*
X566225Y905225D01*
X568209Y903702D01*
X570520Y902745D01*
X573000Y902418D01*
X575480Y902745D01*
X577791Y903702D01*
X579775Y905225D01*
X581298Y907209D01*
X582256Y909520D01*
X582582Y912000D01*
X582256Y914480D01*
X582171Y914683D01*
X593244Y925756D01*
X594239Y927244D01*
X594588Y929000D01*
Y944000D01*
X594239Y945756D01*
X593244Y947244D01*
X588315Y952173D01*
X586827Y953168D01*
X585071Y953517D01*
X547056D01*
X545300Y953168D01*
X543812Y952173D01*
X538577Y946938D01*
X504133D01*
X503951Y947060D01*
X502000Y947448D01*
Y949952D01*
X503951Y950340D01*
X505605Y951445D01*
X506710Y953099D01*
X507098Y955050D01*
X506710Y957001D01*
X505605Y958655D01*
X503951Y959760D01*
X502000Y960148D01*
X501588D01*
Y971000D01*
X504000D01*
Y989000D01*
X490000D01*
Y971000D01*
X492412D01*
Y960148D01*
X489000D01*
X487049Y959760D01*
X485395Y958655D01*
X484290Y957001D01*
X483902Y955050D01*
X484290Y953099D01*
X485395Y951445D01*
X487049Y950340D01*
X489000Y949952D01*
Y947448D01*
X487049Y947060D01*
X485395Y945955D01*
X484290Y944301D01*
X483902Y942350D01*
X484290Y940399D01*
X485395Y938745D01*
X487049Y937640D01*
X489000Y937252D01*
Y934748D01*
X487049Y934360D01*
X485395Y933255D01*
X484290Y931601D01*
X483902Y929650D01*
X484290Y927699D01*
X485395Y926045D01*
X487049Y924940D01*
X489000Y924552D01*
Y922048D01*
X487049Y921660D01*
X485395Y920555D01*
X484290Y918901D01*
X484271Y918802D01*
X481464Y917711D01*
X480588Y918354D01*
Y944000D01*
X480239Y945756D01*
X479244Y947244D01*
X468194Y958294D01*
X466706Y959289D01*
X464950Y959638D01*
X457133D01*
X456951Y959760D01*
X455000Y960148D01*
X442000D01*
X441128Y959975D01*
X438588Y961606D01*
Y967171D01*
X444801Y973383D01*
X447225Y973224D01*
X449209Y971702D01*
X451520Y970744D01*
X454000Y970418D01*
X456480Y970744D01*
X458791Y971702D01*
X460775Y973224D01*
X462298Y975209D01*
X462382Y975412D01*
X470000D01*
Y971000D01*
X484000D01*
Y989000D01*
X481588D01*
Y992100D01*
X485900Y996412D01*
X511071D01*
X512827Y996761D01*
X514315Y997756D01*
X521925Y1005365D01*
X522920Y1006854D01*
X523269Y1008610D01*
Y1081827D01*
X527648Y1086206D01*
X530500Y1085925D01*
X533539Y1086224D01*
X536460Y1087111D01*
X536652Y1087213D01*
X538070Y1085091D01*
X537350Y1084500D01*
X534976Y1081607D01*
X533211Y1078306D01*
X532125Y1074725D01*
X531758Y1071000D01*
X532125Y1067275D01*
X533211Y1063694D01*
X534976Y1060393D01*
X537350Y1057500D01*
X540243Y1055126D01*
X543544Y1053361D01*
X547125Y1052275D01*
X550850Y1051908D01*
X554575Y1052275D01*
X558156Y1053361D01*
X561457Y1055126D01*
X564350Y1057500D01*
X566724Y1060393D01*
X568489Y1063694D01*
X569575Y1067275D01*
X569942Y1071000D01*
X569575Y1074725D01*
X568489Y1078306D01*
X566724Y1081607D01*
X564350Y1084500D01*
X561457Y1086874D01*
X558156Y1088639D01*
X554575Y1089725D01*
X550850Y1090092D01*
X547125Y1089725D01*
X543544Y1088639D01*
X542744Y1088211D01*
X541326Y1090333D01*
X541513Y1090487D01*
X543450Y1092847D01*
X544889Y1095540D01*
X545776Y1098462D01*
X546075Y1101500D01*
X545776Y1104538D01*
X544889Y1107460D01*
X543450Y1110153D01*
X541513Y1112513D01*
X539153Y1114450D01*
X536460Y1115889D01*
X533539Y1116776D01*
X530500Y1117075D01*
D02*
G37*
G36*
X885000Y1117575D02*
X881962Y1117276D01*
X879040Y1116389D01*
X876347Y1114950D01*
X873987Y1113013D01*
X872050Y1110653D01*
X870611Y1107960D01*
X869724Y1105039D01*
X869425Y1102000D01*
X869724Y1098961D01*
X870611Y1096040D01*
X872050Y1093347D01*
X873987Y1090987D01*
X874174Y1090833D01*
X872756Y1088711D01*
X871956Y1089139D01*
X868375Y1090225D01*
X864650Y1090592D01*
X860925Y1090225D01*
X857344Y1089139D01*
X854043Y1087374D01*
X851150Y1085000D01*
X848776Y1082107D01*
X847011Y1078806D01*
X845925Y1075225D01*
X845558Y1071500D01*
X845925Y1067775D01*
X847011Y1064194D01*
X848776Y1060893D01*
X851150Y1058000D01*
X854043Y1055626D01*
X857344Y1053861D01*
X860925Y1052775D01*
X864650Y1052408D01*
X868375Y1052775D01*
X871956Y1053861D01*
X875257Y1055626D01*
X878150Y1058000D01*
X880524Y1060893D01*
X882289Y1064194D01*
X883375Y1067775D01*
X883742Y1071500D01*
X883375Y1075225D01*
X882289Y1078806D01*
X880524Y1082107D01*
X878150Y1085000D01*
X877430Y1085591D01*
X878848Y1087713D01*
X879040Y1087611D01*
X881962Y1086724D01*
X885000Y1086425D01*
X888038Y1086724D01*
X890960Y1087611D01*
X893653Y1089050D01*
X896013Y1090987D01*
X897950Y1093347D01*
X899389Y1096040D01*
X900276Y1098961D01*
X900575Y1102000D01*
X900276Y1105039D01*
X899389Y1107960D01*
X897950Y1110653D01*
X896013Y1113013D01*
X893653Y1114950D01*
X890960Y1116389D01*
X888038Y1117276D01*
X885000Y1117575D01*
D02*
G37*
G36*
X730000D02*
X726962Y1117276D01*
X724040Y1116389D01*
X721347Y1114950D01*
X718987Y1113013D01*
X717050Y1110653D01*
X715611Y1107960D01*
X714724Y1105039D01*
X714425Y1102000D01*
X714724Y1098961D01*
X715611Y1096040D01*
X717050Y1093347D01*
X718987Y1090987D01*
X721347Y1089050D01*
X724040Y1087611D01*
X726962Y1086724D01*
X730000Y1086425D01*
X733038Y1086724D01*
X735960Y1087611D01*
X736152Y1087713D01*
X737570Y1085591D01*
X736850Y1085000D01*
X734476Y1082107D01*
X732711Y1078806D01*
X731625Y1075225D01*
X731258Y1071500D01*
X731625Y1067775D01*
X732711Y1064194D01*
X734476Y1060893D01*
X736850Y1058000D01*
X739743Y1055626D01*
X743044Y1053861D01*
X746625Y1052775D01*
X748398Y1052600D01*
X748273Y1050060D01*
X670324D01*
X669948Y1052600D01*
X672456Y1053361D01*
X675757Y1055126D01*
X678650Y1057500D01*
X681024Y1060393D01*
X682789Y1063694D01*
X683875Y1067275D01*
X684242Y1071000D01*
X683875Y1074725D01*
X682789Y1078306D01*
X681024Y1081607D01*
X678650Y1084500D01*
X677930Y1085091D01*
X679348Y1087213D01*
X679540Y1087111D01*
X682461Y1086224D01*
X685500Y1085925D01*
X688539Y1086224D01*
X691460Y1087111D01*
X694153Y1088550D01*
X696513Y1090487D01*
X698450Y1092847D01*
X699889Y1095540D01*
X700776Y1098462D01*
X701075Y1101500D01*
X700776Y1104538D01*
X699889Y1107460D01*
X698450Y1110153D01*
X696513Y1112513D01*
X694153Y1114450D01*
X691460Y1115889D01*
X688539Y1116776D01*
X685500Y1117075D01*
X682461Y1116776D01*
X679540Y1115889D01*
X676847Y1114450D01*
X674487Y1112513D01*
X672550Y1110153D01*
X671111Y1107460D01*
X670224Y1104538D01*
X669925Y1101500D01*
X670224Y1098462D01*
X671111Y1095540D01*
X672550Y1092847D01*
X674487Y1090487D01*
X674674Y1090333D01*
X673256Y1088211D01*
X672456Y1088639D01*
X668875Y1089725D01*
X665150Y1090092D01*
X661425Y1089725D01*
X657844Y1088639D01*
X654543Y1086874D01*
X651650Y1084500D01*
X649276Y1081607D01*
X647511Y1078306D01*
X646425Y1074725D01*
X646058Y1071000D01*
X646425Y1067275D01*
X647511Y1063694D01*
X649276Y1060393D01*
X651650Y1057500D01*
X654543Y1055126D01*
X657844Y1053361D01*
X660353Y1052600D01*
X659976Y1050060D01*
X637150D01*
X635323Y1049820D01*
X633620Y1049115D01*
X632158Y1047992D01*
X601962Y1017797D01*
X601650Y1017839D01*
X598974Y1017486D01*
X598765Y1017400D01*
X598127Y1017608D01*
X596333Y1019141D01*
Y1026512D01*
X596791Y1026702D01*
X598775Y1028224D01*
X600298Y1030209D01*
X601255Y1032520D01*
X601582Y1035000D01*
X601255Y1037480D01*
X600298Y1039791D01*
X598775Y1041775D01*
X596791Y1043298D01*
X594480Y1044255D01*
X592000Y1044582D01*
X589520Y1044255D01*
X587209Y1043298D01*
X585225Y1041775D01*
X583702Y1039791D01*
X582745Y1037480D01*
X582436Y1035137D01*
X580726Y1033305D01*
X580169Y1033095D01*
X579494Y1033994D01*
X578531Y1034957D01*
X577171Y1036317D01*
X577256Y1036520D01*
X577582Y1039000D01*
X577256Y1041480D01*
X576298Y1043791D01*
X574776Y1045776D01*
X572791Y1047298D01*
X570480Y1048255D01*
X568000Y1048582D01*
X565520Y1048255D01*
X563209Y1047298D01*
X561225Y1045776D01*
X559702Y1043791D01*
X558745Y1041480D01*
X558418Y1039000D01*
X558745Y1036520D01*
X559702Y1034209D01*
X561225Y1032225D01*
X563209Y1030702D01*
X565520Y1029744D01*
X568000Y1029418D01*
X569436Y1029607D01*
X571446Y1027900D01*
X571662Y1027489D01*
Y1016694D01*
X571081Y1016453D01*
X568940Y1014810D01*
X567297Y1012669D01*
X566264Y1010176D01*
X565912Y1007500D01*
X566264Y1004824D01*
X567297Y1002331D01*
X568940Y1000190D01*
X571081Y998547D01*
X573574Y997514D01*
X576250Y997162D01*
X578926Y997514D01*
X581419Y998547D01*
X582077Y999051D01*
X584617Y997799D01*
Y991400D01*
X583781Y991053D01*
X581640Y989410D01*
X579997Y987269D01*
X578964Y984776D01*
X578612Y982100D01*
X578964Y979424D01*
X579997Y976931D01*
X581640Y974790D01*
X583781Y973147D01*
X586274Y972114D01*
X588950Y971762D01*
X591626Y972114D01*
X594119Y973147D01*
X596260Y974790D01*
X597903Y976931D01*
X598936Y979424D01*
X599288Y982100D01*
X598936Y984776D01*
X597903Y987269D01*
X596260Y989410D01*
X594119Y991053D01*
X593283Y991400D01*
Y997799D01*
X595823Y999051D01*
X596481Y998547D01*
X598974Y997514D01*
X601650Y997162D01*
X604326Y997514D01*
X606819Y998547D01*
X608960Y1000190D01*
X610603Y1002331D01*
X611636Y1004824D01*
X611988Y1007500D01*
X611947Y1007812D01*
X614531Y1010396D01*
X616937Y1009210D01*
X616712Y1007500D01*
X617064Y1004824D01*
X618097Y1002331D01*
X619740Y1000190D01*
X621881Y998547D01*
X624374Y997514D01*
X627050Y997162D01*
X629726Y997514D01*
X632219Y998547D01*
X634360Y1000190D01*
X636003Y1002331D01*
X637036Y1004824D01*
X637388Y1007500D01*
X637231Y1008696D01*
X639853Y1011318D01*
X642200Y1010346D01*
Y997250D01*
X662700D01*
Y1002912D01*
X684600D01*
X704412Y983100D01*
Y972489D01*
X701872Y971236D01*
X701791Y971298D01*
X699480Y972255D01*
X697000Y972582D01*
X694520Y972255D01*
X692209Y971298D01*
X690225Y969775D01*
X688702Y967791D01*
X688420Y967111D01*
X682619Y961310D01*
X673000D01*
Y961750D01*
X661000D01*
Y957929D01*
X660885Y957780D01*
X660180Y956077D01*
X659940Y954250D01*
X660180Y952423D01*
X660885Y950720D01*
X661000Y950571D01*
Y946750D01*
X673000D01*
Y947190D01*
X685544D01*
X687371Y947430D01*
X689074Y948136D01*
X690536Y949258D01*
X694965Y953686D01*
X697000Y953418D01*
X699480Y953745D01*
X701791Y954702D01*
X701872Y954764D01*
X704412Y953511D01*
Y936579D01*
X704171Y936338D01*
X682500D01*
Y939250D01*
X670500D01*
Y924250D01*
X682500D01*
Y927162D01*
X706071D01*
X707827Y927511D01*
X709315Y928506D01*
X712244Y931435D01*
X713239Y932923D01*
X713588Y934679D01*
Y985000D01*
X713239Y986756D01*
X712244Y988244D01*
X689744Y1010744D01*
X688256Y1011739D01*
X686500Y1012088D01*
X662700D01*
Y1017750D01*
X662700D01*
X663546Y1019940D01*
X719075D01*
X721940Y1017076D01*
Y953404D01*
X720702Y951791D01*
X719744Y949480D01*
X719418Y947000D01*
X719744Y944520D01*
X720702Y942209D01*
X722225Y940225D01*
X724209Y938702D01*
X726520Y937745D01*
X729000Y937418D01*
X731480Y937745D01*
X733791Y938702D01*
X735775Y940225D01*
X737298Y942209D01*
X738255Y944520D01*
X738582Y947000D01*
X738255Y949480D01*
X737298Y951791D01*
X736060Y953404D01*
Y1019940D01*
X771153D01*
X771658Y1017400D01*
X770581Y1016953D01*
X768440Y1015310D01*
X766797Y1013169D01*
X765764Y1010676D01*
X765412Y1008000D01*
X765764Y1005324D01*
X766797Y1002831D01*
X768440Y1000690D01*
X770581Y999047D01*
X773074Y998014D01*
X775750Y997662D01*
X778426Y998014D01*
X780919Y999047D01*
X783060Y1000690D01*
X784703Y1002831D01*
X785736Y1005324D01*
X786088Y1008000D01*
X785736Y1010676D01*
X784703Y1013169D01*
X783060Y1015310D01*
X780919Y1016953D01*
X779842Y1017400D01*
X780347Y1019940D01*
X796553D01*
X797058Y1017400D01*
X795981Y1016953D01*
X793840Y1015310D01*
X792197Y1013169D01*
X791164Y1010676D01*
X790812Y1008000D01*
X791164Y1005324D01*
X792197Y1002831D01*
X793840Y1000690D01*
X795981Y999047D01*
X798474Y998014D01*
X801150Y997662D01*
X803826Y998014D01*
X806319Y999047D01*
X808460Y1000690D01*
X810103Y1002831D01*
X811136Y1005324D01*
X811488Y1008000D01*
X811136Y1010676D01*
X810103Y1013169D01*
X808460Y1015310D01*
X806319Y1016953D01*
X805242Y1017400D01*
X805747Y1019940D01*
X815076D01*
X818246Y1016769D01*
Y1014015D01*
X817597Y1013169D01*
X816564Y1010676D01*
X816212Y1008000D01*
X816564Y1005324D01*
X817597Y1002831D01*
X819240Y1000690D01*
X821381Y999047D01*
X823874Y998014D01*
X826550Y997662D01*
X829226Y998014D01*
X831719Y999047D01*
X833860Y1000690D01*
X835503Y1002831D01*
X836536Y1005324D01*
X836888Y1008000D01*
X836536Y1010676D01*
X835503Y1013169D01*
X833860Y1015310D01*
X832367Y1016457D01*
Y1019694D01*
X832126Y1021521D01*
X831421Y1023224D01*
X830299Y1024686D01*
X822992Y1031992D01*
X821530Y1033114D01*
X819827Y1033820D01*
X818000Y1034060D01*
X790994D01*
X790489Y1036600D01*
X791177Y1036886D01*
X792639Y1038008D01*
X800161Y1045529D01*
X801000Y1045418D01*
X803480Y1045744D01*
X805791Y1046702D01*
X807775Y1048224D01*
X809298Y1050209D01*
X810256Y1052520D01*
X810582Y1055000D01*
X810256Y1057480D01*
X809298Y1059791D01*
X807775Y1061775D01*
X805791Y1063298D01*
X803480Y1064256D01*
X801000Y1064582D01*
X798520Y1064256D01*
X796209Y1063298D01*
X794224Y1061775D01*
X792702Y1059791D01*
X791745Y1057480D01*
X791684Y1057022D01*
X784723Y1050060D01*
X752427D01*
X752302Y1052600D01*
X754075Y1052775D01*
X757656Y1053861D01*
X760957Y1055626D01*
X763850Y1058000D01*
X766224Y1060893D01*
X767989Y1064194D01*
X769075Y1067775D01*
X769442Y1071500D01*
X769075Y1075225D01*
X767989Y1078806D01*
X766224Y1082107D01*
X763850Y1085000D01*
X760957Y1087374D01*
X757656Y1089139D01*
X754075Y1090225D01*
X750350Y1090592D01*
X746625Y1090225D01*
X743044Y1089139D01*
X742244Y1088711D01*
X740826Y1090833D01*
X741013Y1090987D01*
X742950Y1093347D01*
X744389Y1096040D01*
X745276Y1098961D01*
X745575Y1102000D01*
X745276Y1105039D01*
X744389Y1107960D01*
X742950Y1110653D01*
X741013Y1113013D01*
X738653Y1114950D01*
X735960Y1116389D01*
X733038Y1117276D01*
X730000Y1117575D01*
D02*
G37*
G36*
X415900Y1076014D02*
X413671Y1075720D01*
X411593Y1074860D01*
X409809Y1073491D01*
X408440Y1071707D01*
X407580Y1069629D01*
X407286Y1067400D01*
X407580Y1065171D01*
X408440Y1063093D01*
X409809Y1061309D01*
X411593Y1059940D01*
X413671Y1059080D01*
X415900Y1058786D01*
X418129Y1059080D01*
X420207Y1059940D01*
X421991Y1061309D01*
X423360Y1063093D01*
X424220Y1065171D01*
X424514Y1067400D01*
X424220Y1069629D01*
X423360Y1071707D01*
X421991Y1073491D01*
X420207Y1074860D01*
X418129Y1075720D01*
X415900Y1076014D01*
D02*
G37*
G36*
X291000Y1085000D02*
X277000D01*
Y1067000D01*
X291000D01*
Y1069503D01*
X293540Y1070555D01*
X300000Y1064095D01*
Y1057040D01*
X300000Y1055500D01*
X300000Y1053130D01*
X298204Y1051334D01*
X291000D01*
Y1062000D01*
X277000D01*
Y1044000D01*
X291000D01*
Y1044666D01*
X300000D01*
Y1041500D01*
X318872D01*
X319000Y1041500D01*
X321412Y1041191D01*
Y996382D01*
X321209Y996298D01*
X319225Y994775D01*
X317702Y992791D01*
X316745Y990480D01*
X316418Y988000D01*
X316745Y985520D01*
X317702Y983209D01*
X319225Y981225D01*
X321209Y979702D01*
X323520Y978745D01*
X326000Y978418D01*
X328480Y978745D01*
X330791Y979702D01*
X332775Y981225D01*
X334298Y983209D01*
X335256Y985520D01*
X335582Y988000D01*
X335256Y990480D01*
X334298Y992791D01*
X332775Y994775D01*
X330791Y996298D01*
X330588Y996382D01*
Y1039131D01*
X331000Y1041500D01*
X333128Y1041500D01*
X350000D01*
Y1044666D01*
X359000D01*
Y1041000D01*
X377000D01*
Y1055000D01*
X359000D01*
Y1051334D01*
X351796D01*
X350000Y1053130D01*
Y1054500D01*
X350000Y1057040D01*
Y1068500D01*
X331000D01*
Y1066588D01*
X328929D01*
X327173Y1066239D01*
X325685Y1065244D01*
X322756Y1062315D01*
X321761Y1060827D01*
X321540Y1059715D01*
X319000Y1059965D01*
Y1068500D01*
X305025D01*
X295168Y1078357D01*
X294086Y1079080D01*
X292810Y1079334D01*
X291000D01*
Y1085000D01*
D02*
G37*
G36*
X415900Y1050614D02*
X413671Y1050320D01*
X411593Y1049460D01*
X409809Y1048091D01*
X408440Y1046307D01*
X407580Y1044229D01*
X407286Y1042000D01*
X407580Y1039771D01*
X408440Y1037693D01*
X409809Y1035909D01*
X411593Y1034540D01*
X413671Y1033680D01*
X415900Y1033386D01*
X418129Y1033680D01*
X420207Y1034540D01*
X421991Y1035909D01*
X423360Y1037693D01*
X424220Y1039771D01*
X424514Y1042000D01*
X424220Y1044229D01*
X423360Y1046307D01*
X421991Y1048091D01*
X420207Y1049460D01*
X418129Y1050320D01*
X415900Y1050614D01*
D02*
G37*
G36*
X270540Y1025540D02*
X265270D01*
Y1019270D01*
X270540D01*
Y1025540D01*
D02*
G37*
G36*
X262730D02*
X257460D01*
Y1019270D01*
X262730D01*
Y1025540D01*
D02*
G37*
G36*
X270540Y1016730D02*
X265270D01*
Y1010460D01*
X270540D01*
Y1016730D01*
D02*
G37*
G36*
X262730D02*
X257460D01*
Y1010460D01*
X262730D01*
Y1016730D01*
D02*
G37*
G36*
X862200Y1018250D02*
X841700D01*
Y997750D01*
X862200D01*
Y1018250D01*
D02*
G37*
G36*
X839250Y992939D02*
X836574Y992586D01*
X834081Y991553D01*
X831940Y989910D01*
X830297Y987769D01*
X829264Y985276D01*
X828912Y982600D01*
X829264Y979924D01*
X830297Y977431D01*
X831940Y975290D01*
X834081Y973647D01*
X836574Y972614D01*
X839250Y972262D01*
X841926Y972614D01*
X844419Y973647D01*
X846560Y975290D01*
X848203Y977431D01*
X849236Y979924D01*
X849588Y982600D01*
X849236Y985276D01*
X848203Y987769D01*
X846560Y989910D01*
X844419Y991553D01*
X841926Y992586D01*
X839250Y992939D01*
D02*
G37*
G36*
X788450D02*
X785774Y992586D01*
X783281Y991553D01*
X781140Y989910D01*
X779497Y987769D01*
X778464Y985276D01*
X778112Y982600D01*
X778464Y979924D01*
X779497Y977431D01*
X781140Y975290D01*
X783281Y973647D01*
X785774Y972614D01*
X788450Y972262D01*
X791126Y972614D01*
X793619Y973647D01*
X795760Y975290D01*
X797403Y977431D01*
X798436Y979924D01*
X798788Y982600D01*
X798436Y985276D01*
X797403Y987769D01*
X795760Y989910D01*
X793619Y991553D01*
X791126Y992586D01*
X788450Y992939D01*
D02*
G37*
G36*
X763050D02*
X760374Y992586D01*
X757881Y991553D01*
X755740Y989910D01*
X754097Y987769D01*
X753064Y985276D01*
X752712Y982600D01*
X753064Y979924D01*
X754097Y977431D01*
X755740Y975290D01*
X757881Y973647D01*
X760374Y972614D01*
X763050Y972262D01*
X765726Y972614D01*
X768219Y973647D01*
X770360Y975290D01*
X772003Y977431D01*
X773036Y979924D01*
X773388Y982600D01*
X773036Y985276D01*
X772003Y987769D01*
X770360Y989910D01*
X768219Y991553D01*
X765726Y992586D01*
X763050Y992939D01*
D02*
G37*
G36*
X543000Y1034582D02*
X540520Y1034256D01*
X538209Y1033298D01*
X536225Y1031776D01*
X534702Y1029791D01*
X533745Y1027480D01*
X533418Y1025000D01*
X533745Y1022520D01*
X534702Y1020209D01*
X536225Y1018225D01*
X538209Y1016702D01*
X538412Y1016618D01*
Y1002650D01*
X538761Y1000894D01*
X539756Y999406D01*
X553805Y985357D01*
X553564Y984776D01*
X553212Y982100D01*
X553564Y979424D01*
X554597Y976931D01*
X556240Y974790D01*
X558381Y973147D01*
X560874Y972114D01*
X563550Y971762D01*
X566226Y972114D01*
X568719Y973147D01*
X570860Y974790D01*
X572503Y976931D01*
X573536Y979424D01*
X573888Y982100D01*
X573536Y984776D01*
X572503Y987269D01*
X570860Y989410D01*
X568719Y991053D01*
X566226Y992086D01*
X563550Y992439D01*
X560874Y992086D01*
X560293Y991845D01*
X547588Y1004550D01*
Y1016618D01*
X547791Y1016702D01*
X549776Y1018225D01*
X551298Y1020209D01*
X552256Y1022520D01*
X552582Y1025000D01*
X552256Y1027480D01*
X551298Y1029791D01*
X549776Y1031776D01*
X547791Y1033298D01*
X545480Y1034256D01*
X543000Y1034582D01*
D02*
G37*
G36*
X639750Y992439D02*
X637074Y992086D01*
X634581Y991053D01*
X632440Y989410D01*
X630797Y987269D01*
X629764Y984776D01*
X629412Y982100D01*
X629764Y979424D01*
X630797Y976931D01*
X632440Y974790D01*
X634581Y973147D01*
X635162Y972906D01*
Y951000D01*
X635511Y949244D01*
X636506Y947756D01*
X651500Y932761D01*
Y924250D01*
X663500D01*
Y939250D01*
X657989D01*
X644338Y952900D01*
Y972906D01*
X644919Y973147D01*
X647060Y974790D01*
X648703Y976931D01*
X648944Y977512D01*
X655294D01*
X657463Y975342D01*
X657418Y975000D01*
X657745Y972520D01*
X658702Y970209D01*
X660225Y968225D01*
X662209Y966702D01*
X664520Y965745D01*
X667000Y965418D01*
X669480Y965745D01*
X671791Y966702D01*
X673775Y968225D01*
X675298Y970209D01*
X676255Y972520D01*
X676582Y975000D01*
X676255Y977480D01*
X675298Y979791D01*
X673775Y981776D01*
X671791Y983298D01*
X669480Y984256D01*
X667000Y984582D01*
X664520Y984256D01*
X662404Y983379D01*
X660438Y985344D01*
X658950Y986339D01*
X657194Y986688D01*
X648944D01*
X648703Y987269D01*
X647060Y989410D01*
X644919Y991053D01*
X642426Y992086D01*
X639750Y992439D01*
D02*
G37*
G36*
X981000Y976608D02*
X977737Y976178D01*
X974696Y974919D01*
X972085Y972915D01*
X970081Y970304D01*
X968822Y967263D01*
X968392Y964000D01*
X968822Y960737D01*
X969532Y959021D01*
X910756Y900244D01*
X909761Y898756D01*
X909412Y897000D01*
Y820000D01*
X907000D01*
Y802000D01*
X921000D01*
Y820000D01*
X918588D01*
Y895099D01*
X976021Y952532D01*
X977737Y951822D01*
X981000Y951392D01*
X984263Y951822D01*
X987304Y953081D01*
X989915Y955085D01*
X991919Y957696D01*
X993178Y960737D01*
X993608Y964000D01*
X993178Y967263D01*
X991919Y970304D01*
X989915Y972915D01*
X987304Y974919D01*
X984263Y976178D01*
X981000Y976608D01*
D02*
G37*
G36*
X286000Y948118D02*
X283659Y947652D01*
X281674Y946326D01*
X280348Y944341D01*
X279883Y942000D01*
X279935Y941738D01*
X279752Y941267D01*
X277557Y940307D01*
X277326Y940326D01*
X275341Y941652D01*
X273000Y942117D01*
X270659Y941652D01*
X268674Y940326D01*
X267348Y938341D01*
X266882Y936000D01*
X267348Y933659D01*
X268403Y932080D01*
X267944Y930543D01*
X267297Y929540D01*
X265270D01*
Y923270D01*
X270540D01*
Y927782D01*
X272933Y929896D01*
X273000Y929883D01*
X275341Y930348D01*
X277326Y931674D01*
X278496Y931789D01*
X294000Y916285D01*
Y903000D01*
X308000D01*
Y921000D01*
X298715D01*
X294255Y925460D01*
X295307Y928000D01*
X295998Y928000D01*
X308000D01*
Y946000D01*
X294000D01*
Y945334D01*
X290988D01*
X290326Y946326D01*
X288341Y947652D01*
X286000Y948118D01*
D02*
G37*
G36*
X328000Y946000D02*
X314000D01*
Y928000D01*
X328000D01*
Y930912D01*
X333847D01*
X334674Y929674D01*
X336659Y928348D01*
X339000Y927883D01*
X341341Y928348D01*
X343326Y929674D01*
X344652Y931659D01*
X345117Y934000D01*
X344652Y936341D01*
X343326Y938326D01*
X341341Y939652D01*
X339000Y940118D01*
X338176Y939954D01*
X337500Y940088D01*
X328000D01*
Y946000D01*
D02*
G37*
G36*
X262730Y929540D02*
X257460D01*
Y923270D01*
X262730D01*
Y929540D01*
D02*
G37*
G36*
X339000Y921117D02*
X336659Y920652D01*
X334674Y919326D01*
X333513Y917588D01*
X328000D01*
Y921000D01*
X314000D01*
Y903000D01*
X328000D01*
Y908412D01*
X337000D01*
X338756Y908761D01*
X338952Y908892D01*
X339000Y908883D01*
X341341Y909348D01*
X343326Y910674D01*
X344652Y912659D01*
X345117Y915000D01*
X344652Y917341D01*
X343326Y919326D01*
X341341Y920652D01*
X339000Y921117D01*
D02*
G37*
G36*
X270540Y920730D02*
X265270D01*
Y914460D01*
X270540D01*
Y920730D01*
D02*
G37*
G36*
X262730D02*
X257460D01*
Y914460D01*
X262730D01*
Y920730D01*
D02*
G37*
G36*
X981000Y926608D02*
X977737Y926178D01*
X974696Y924919D01*
X972085Y922915D01*
X970081Y920304D01*
X968822Y917263D01*
X968392Y914000D01*
X968822Y910737D01*
X969532Y909021D01*
X936975Y876464D01*
X935980Y874975D01*
X935631Y873219D01*
Y804120D01*
X925099Y793588D01*
X921000D01*
Y797167D01*
X907000D01*
Y779167D01*
X921000D01*
Y784412D01*
X927000D01*
X928756Y784761D01*
X930244Y785756D01*
X943464Y798975D01*
X944458Y800463D01*
X944808Y802219D01*
Y871319D01*
X976021Y902532D01*
X977737Y901822D01*
X981000Y901392D01*
X984263Y901822D01*
X987304Y903081D01*
X989915Y905085D01*
X991919Y907696D01*
X993178Y910737D01*
X993608Y914000D01*
X993178Y917263D01*
X991919Y920304D01*
X989915Y922915D01*
X987304Y924919D01*
X984263Y926178D01*
X981000Y926608D01*
D02*
G37*
G36*
X98447Y878730D02*
X91270D01*
Y871553D01*
X92229Y871680D01*
X94307Y872540D01*
X96091Y873909D01*
X97460Y875693D01*
X98320Y877771D01*
X98447Y878730D01*
D02*
G37*
G36*
X88730D02*
X81553D01*
X81680Y877771D01*
X82540Y875693D01*
X83909Y873909D01*
X85693Y872540D01*
X87771Y871680D01*
X88730Y871553D01*
Y878730D01*
D02*
G37*
G36*
X847700Y864302D02*
Y856500D01*
X855502D01*
X855469Y856751D01*
X854407Y859315D01*
X852717Y861517D01*
X850516Y863207D01*
X847952Y864269D01*
X847700Y864302D01*
D02*
G37*
G36*
X842700Y864302D02*
X842449Y864269D01*
X839884Y863207D01*
X837683Y861517D01*
X835993Y859315D01*
X834931Y856751D01*
X834898Y856500D01*
X842700D01*
Y864302D01*
D02*
G37*
G36*
X981000Y876608D02*
X977737Y876178D01*
X974696Y874919D01*
X972085Y872915D01*
X970081Y870304D01*
X968822Y867263D01*
X968392Y864000D01*
X968822Y860737D01*
X969532Y859021D01*
X951756Y841244D01*
X950761Y839756D01*
X950412Y838000D01*
Y795900D01*
X924433Y769921D01*
X921000D01*
Y774333D01*
X907000D01*
Y756333D01*
X921000D01*
Y760745D01*
X926333D01*
X928089Y761094D01*
X929578Y762089D01*
X958244Y790756D01*
X959239Y792244D01*
X959588Y794000D01*
Y836099D01*
X976021Y852532D01*
X977737Y851822D01*
X981000Y851392D01*
X984263Y851822D01*
X987304Y853081D01*
X989915Y855085D01*
X991919Y857696D01*
X993178Y860737D01*
X993608Y864000D01*
X993178Y867263D01*
X991919Y870304D01*
X989915Y872915D01*
X987304Y874919D01*
X984263Y876178D01*
X981000Y876608D01*
D02*
G37*
G36*
X664400Y867086D02*
X661789Y866743D01*
X659357Y865735D01*
X657268Y864132D01*
X655665Y862043D01*
X654657Y859611D01*
X654314Y857000D01*
X654657Y854389D01*
X655665Y851957D01*
X657268Y849868D01*
X659357Y848265D01*
X661789Y847257D01*
X664400Y846914D01*
X667010Y847257D01*
X669443Y848265D01*
X671532Y849868D01*
X673135Y851957D01*
X674143Y854389D01*
X674486Y857000D01*
X674143Y859611D01*
X673135Y862043D01*
X671532Y864132D01*
X669443Y865735D01*
X667010Y866743D01*
X664400Y867086D01*
D02*
G37*
G36*
X794400Y864086D02*
X791789Y863743D01*
X789357Y862735D01*
X787268Y861132D01*
X785665Y859043D01*
X784657Y856610D01*
X784314Y854000D01*
X784657Y851389D01*
X785665Y848957D01*
X787268Y846868D01*
X789357Y845265D01*
X791789Y844257D01*
X794400Y843914D01*
X797010Y844257D01*
X799443Y845265D01*
X801532Y846868D01*
X803135Y848957D01*
X804143Y851389D01*
X804486Y854000D01*
X804143Y856610D01*
X803135Y859043D01*
X801532Y861132D01*
X799443Y862735D01*
X797010Y863743D01*
X794400Y864086D01*
D02*
G37*
G36*
X769000D02*
X766389Y863743D01*
X763957Y862735D01*
X761868Y861132D01*
X760265Y859043D01*
X759257Y856610D01*
X758914Y854000D01*
X759257Y851389D01*
X760265Y848957D01*
X761868Y846868D01*
X763957Y845265D01*
X766389Y844257D01*
X769000Y843914D01*
X771610Y844257D01*
X774043Y845265D01*
X776132Y846868D01*
X777735Y848957D01*
X778743Y851389D01*
X779086Y854000D01*
X778743Y856610D01*
X777735Y859043D01*
X776132Y861132D01*
X774043Y862735D01*
X771610Y863743D01*
X769000Y864086D01*
D02*
G37*
G36*
X743600D02*
X740990Y863743D01*
X738557Y862735D01*
X736468Y861132D01*
X734865Y859043D01*
X733857Y856610D01*
X733514Y854000D01*
X733857Y851389D01*
X734865Y848957D01*
X736468Y846868D01*
X738557Y845265D01*
X740990Y844257D01*
X743600Y843914D01*
X746210Y844257D01*
X748643Y845265D01*
X750732Y846868D01*
X752335Y848957D01*
X753343Y851389D01*
X753686Y854000D01*
X753343Y856610D01*
X752335Y859043D01*
X750732Y861132D01*
X748643Y862735D01*
X746210Y863743D01*
X743600Y864086D01*
D02*
G37*
G36*
X718200D02*
X715590Y863743D01*
X713157Y862735D01*
X711068Y861132D01*
X709465Y859043D01*
X708457Y856610D01*
X708114Y854000D01*
X708457Y851389D01*
X709465Y848957D01*
X711068Y846868D01*
X713157Y845265D01*
X715590Y844257D01*
X718200Y843914D01*
X720810Y844257D01*
X723243Y845265D01*
X725332Y846868D01*
X726935Y848957D01*
X727943Y851389D01*
X728286Y854000D01*
X727943Y856610D01*
X726935Y859043D01*
X725332Y861132D01*
X723243Y862735D01*
X720810Y863743D01*
X718200Y864086D01*
D02*
G37*
G36*
X842700Y851500D02*
X834898D01*
X834931Y851248D01*
X835993Y848684D01*
X837683Y846483D01*
X839884Y844793D01*
X842449Y843731D01*
X842700Y843698D01*
Y851500D01*
D02*
G37*
G36*
X855502D02*
X847700D01*
Y843698D01*
X847952Y843731D01*
X850516Y844793D01*
X852717Y846483D01*
X854407Y848684D01*
X855469Y851248D01*
X855502Y851500D01*
D02*
G37*
G36*
X981000Y776608D02*
X977737Y776178D01*
X974696Y774919D01*
X972085Y772915D01*
X970081Y770304D01*
X968822Y767263D01*
X968392Y764000D01*
X968822Y760737D01*
X969532Y759021D01*
X934766Y724255D01*
X921000D01*
Y728667D01*
X907000D01*
Y710667D01*
X921000D01*
Y715079D01*
X936667D01*
X938422Y715428D01*
X939911Y716422D01*
X976021Y752532D01*
X977737Y751822D01*
X981000Y751392D01*
X984263Y751822D01*
X987304Y753081D01*
X989915Y755085D01*
X991919Y757696D01*
X993178Y760737D01*
X993608Y764000D01*
X993178Y767263D01*
X991919Y770304D01*
X989915Y772915D01*
X987304Y774919D01*
X984263Y776178D01*
X981000Y776608D01*
D02*
G37*
G36*
Y826608D02*
X977737Y826178D01*
X974696Y824919D01*
X972085Y822915D01*
X970081Y820304D01*
X968822Y817263D01*
X968392Y814000D01*
X968822Y810737D01*
X970081Y807696D01*
X972085Y805085D01*
X973350Y804114D01*
Y790839D01*
X929600Y747088D01*
X921000D01*
Y751500D01*
X907000D01*
Y733500D01*
X921000D01*
Y737912D01*
X931500D01*
X933256Y738261D01*
X934744Y739256D01*
X981183Y785694D01*
X982177Y787183D01*
X982527Y788939D01*
Y801593D01*
X984263Y801822D01*
X987304Y803081D01*
X989915Y805085D01*
X991919Y807696D01*
X993178Y810737D01*
X993608Y814000D01*
X993178Y817263D01*
X991919Y820304D01*
X989915Y822915D01*
X987304Y824919D01*
X984263Y826178D01*
X981000Y826608D01*
D02*
G37*
G36*
Y726608D02*
X977737Y726178D01*
X974696Y724919D01*
X972085Y722915D01*
X970081Y720304D01*
X968822Y717263D01*
X968392Y714000D01*
X968822Y710737D01*
X969532Y709021D01*
X961933Y701422D01*
X921000D01*
Y705833D01*
X907000D01*
Y687833D01*
X921000D01*
Y692245D01*
X963833D01*
X965589Y692594D01*
X967078Y693589D01*
X976021Y702532D01*
X977737Y701822D01*
X981000Y701392D01*
X984263Y701822D01*
X987304Y703081D01*
X989915Y705085D01*
X991919Y707696D01*
X993178Y710737D01*
X993608Y714000D01*
X993178Y717263D01*
X991919Y720304D01*
X989915Y722915D01*
X987304Y724919D01*
X984263Y726178D01*
X981000Y726608D01*
D02*
G37*
G36*
X921000Y683000D02*
X907000D01*
Y665000D01*
X921000D01*
Y669412D01*
X964770D01*
X968600Y665581D01*
X968392Y664000D01*
X968822Y660737D01*
X970081Y657696D01*
X972085Y655085D01*
X974696Y653081D01*
X977737Y651822D01*
X981000Y651392D01*
X984263Y651822D01*
X987304Y653081D01*
X989915Y655085D01*
X991919Y657696D01*
X993178Y660737D01*
X993608Y664000D01*
X993178Y667263D01*
X991919Y670304D01*
X989915Y672915D01*
X987304Y674919D01*
X984263Y676178D01*
X981000Y676608D01*
X977737Y676178D01*
X974696Y674919D01*
X973307Y673852D01*
X969915Y677244D01*
X968426Y678239D01*
X966670Y678588D01*
X921000D01*
Y683000D01*
D02*
G37*
G36*
X613590Y649195D02*
X597000D01*
Y637685D01*
X613590D01*
Y649195D01*
D02*
G37*
G36*
X587000D02*
X570410D01*
Y637685D01*
X587000D01*
Y649195D01*
D02*
G37*
G36*
X983500Y626823D02*
Y616500D01*
X993823D01*
X993704Y617404D01*
X992390Y620576D01*
X990300Y623300D01*
X987576Y625390D01*
X984404Y626704D01*
X983500Y626823D01*
D02*
G37*
G36*
X978500Y626823D02*
X977596Y626704D01*
X974424Y625390D01*
X971700Y623300D01*
X969610Y620576D01*
X968296Y617404D01*
X968177Y616500D01*
X978500D01*
Y626823D01*
D02*
G37*
G36*
X613590Y627685D02*
X597000D01*
Y616175D01*
X613590D01*
Y627685D01*
D02*
G37*
G36*
X587000D02*
X570410D01*
Y616175D01*
X587000D01*
Y627685D01*
D02*
G37*
G36*
X993823Y611500D02*
X983500D01*
Y601177D01*
X984404Y601296D01*
X987576Y602610D01*
X990300Y604700D01*
X992390Y607424D01*
X993704Y610596D01*
X993823Y611500D01*
D02*
G37*
G36*
X978500D02*
X968177D01*
X968296Y610596D01*
X969610Y607424D01*
X971700Y604700D01*
X974424Y602610D01*
X977596Y601296D01*
X978500Y601177D01*
Y611500D01*
D02*
G37*
G36*
X875500Y607290D02*
Y600500D01*
X882290D01*
X881333Y602811D01*
X879804Y604804D01*
X877811Y606333D01*
X875500Y607290D01*
D02*
G37*
G36*
X870500Y607290D02*
X868189Y606333D01*
X866196Y604804D01*
X864667Y602811D01*
X863709Y600500D01*
X870500D01*
Y607290D01*
D02*
G37*
G36*
Y595500D02*
X863709D01*
X864667Y593189D01*
X866196Y591196D01*
X868189Y589667D01*
X870500Y588709D01*
Y595500D01*
D02*
G37*
G36*
X882290D02*
X875500D01*
Y588709D01*
X877811Y589667D01*
X879804Y591196D01*
X881333Y593189D01*
X882290Y595500D01*
D02*
G37*
G36*
X685000Y633000D02*
X641000D01*
Y592885D01*
X639667Y592754D01*
X636463Y591782D01*
X633510Y590203D01*
X630921Y588079D01*
X621239Y578397D01*
X597080D01*
X593747Y578069D01*
X591163Y577285D01*
X570950D01*
Y545345D01*
X591163D01*
X593747Y544561D01*
X597080Y544233D01*
X602962D01*
X612687Y534508D01*
X614149Y533386D01*
X615852Y532680D01*
X617679Y532440D01*
X632043D01*
X633296Y529900D01*
X632825Y529287D01*
X631969Y527219D01*
X631677Y525000D01*
X631969Y522781D01*
X632825Y520713D01*
X633399Y519966D01*
X633136Y517126D01*
X632902Y516723D01*
X632102Y516234D01*
X630790Y516540D01*
X630434Y516540D01*
X624270D01*
Y498000D01*
Y479460D01*
X630434D01*
X630790Y479460D01*
X633106Y480000D01*
X633330Y480000D01*
X646894Y480000D01*
X649210Y479460D01*
X649566Y479460D01*
X655730D01*
Y498000D01*
Y516540D01*
X649566D01*
X649210Y516540D01*
X648398Y516351D01*
X647729Y516823D01*
X647543Y517100D01*
X647300Y520225D01*
X647675Y520713D01*
X648531Y522781D01*
X648823Y525000D01*
X648531Y527219D01*
X647675Y529287D01*
X647204Y529900D01*
X648457Y532440D01*
X657896D01*
X666940Y523396D01*
Y517482D01*
X664790Y516540D01*
X664434Y516540D01*
X658270D01*
Y498000D01*
Y479460D01*
X664434D01*
X664790Y479460D01*
X667106Y480000D01*
X667330Y480000D01*
X681210D01*
X681250Y480000D01*
X683750D01*
X683790Y480000D01*
X690791D01*
X691250Y479940D01*
X709327D01*
X713259Y476008D01*
X714721Y474885D01*
X716424Y474180D01*
X718251Y473940D01*
X836000D01*
Y472000D01*
X854000D01*
Y473940D01*
X957000D01*
X958827Y474180D01*
X960530Y474885D01*
X961992Y476008D01*
X978682Y492697D01*
X981000Y492392D01*
X984263Y492822D01*
X987304Y494081D01*
X989915Y496085D01*
X991919Y498696D01*
X993178Y501737D01*
X993608Y505000D01*
X993178Y508263D01*
X991919Y511304D01*
X989915Y513915D01*
X987304Y515919D01*
X984263Y517178D01*
X981000Y517608D01*
X977737Y517178D01*
X974696Y515919D01*
X972085Y513915D01*
X970081Y511304D01*
X968822Y508263D01*
X968392Y505000D01*
X968697Y502682D01*
X954075Y488060D01*
X854000D01*
Y490000D01*
X836000D01*
Y488060D01*
X721176D01*
X717244Y491992D01*
X715781Y493115D01*
X714079Y493820D01*
X712251Y494060D01*
X698250D01*
Y516000D01*
X683790D01*
X683750Y516000D01*
X681250D01*
X681060Y518479D01*
Y526321D01*
X680820Y528148D01*
X680115Y529851D01*
X678992Y531314D01*
X665814Y544492D01*
X664351Y545615D01*
X662648Y546320D01*
X660821Y546560D01*
X641137D01*
X640229Y549100D01*
X640394Y549236D01*
X650076Y558918D01*
X658000D01*
X658835Y559000D01*
X685000D01*
Y633000D01*
D02*
G37*
G36*
X621730Y516540D02*
X615210D01*
Y499270D01*
X621730D01*
Y516540D01*
D02*
G37*
G36*
Y496730D02*
X615210D01*
Y479460D01*
X621730D01*
Y496730D01*
D02*
G37*
G36*
X994040Y468040D02*
X986000D01*
Y460000D01*
X994040D01*
Y468040D01*
D02*
G37*
G36*
X976000D02*
X967960D01*
Y460000D01*
X976000D01*
Y468040D01*
D02*
G37*
G36*
X994040Y450000D02*
X986000D01*
Y441960D01*
X994040D01*
Y450000D01*
D02*
G37*
G36*
X976000D02*
X967960D01*
Y441960D01*
X976000D01*
Y450000D01*
D02*
G37*
G36*
X847500Y440290D02*
Y433500D01*
X854290D01*
X853333Y435811D01*
X851804Y437804D01*
X849811Y439333D01*
X847500Y440290D01*
D02*
G37*
G36*
X842500Y440290D02*
X840189Y439333D01*
X838196Y437804D01*
X836667Y435811D01*
X835710Y433500D01*
X842500D01*
Y440290D01*
D02*
G37*
G36*
Y428500D02*
X835710D01*
X836667Y426189D01*
X838196Y424196D01*
X840189Y422667D01*
X842500Y421710D01*
Y428500D01*
D02*
G37*
G36*
X854290D02*
X847500D01*
Y421710D01*
X849811Y422667D01*
X851804Y424196D01*
X853333Y426189D01*
X854290Y428500D01*
D02*
G37*
G36*
X983500Y408823D02*
Y398500D01*
X993823D01*
X993704Y399404D01*
X992390Y402576D01*
X990300Y405300D01*
X987576Y407390D01*
X984404Y408704D01*
X983500Y408823D01*
D02*
G37*
G36*
X978500Y408823D02*
X977596Y408704D01*
X974424Y407390D01*
X971700Y405300D01*
X969610Y402576D01*
X968296Y399404D01*
X968177Y398500D01*
X978500D01*
Y408823D01*
D02*
G37*
G36*
X993823Y393500D02*
X983500D01*
Y383177D01*
X984404Y383296D01*
X987576Y384610D01*
X990300Y386700D01*
X992390Y389424D01*
X993704Y392596D01*
X993823Y393500D01*
D02*
G37*
G36*
X978500D02*
X968177D01*
X968296Y392596D01*
X969610Y389424D01*
X971700Y386700D01*
X974424Y384610D01*
X977596Y383296D01*
X978500Y383177D01*
Y393500D01*
D02*
G37*
G36*
X981000Y358608D02*
X977737Y358178D01*
X974696Y356919D01*
X972085Y354915D01*
X970081Y352304D01*
X968822Y349263D01*
X968392Y346000D01*
X968822Y342737D01*
X970081Y339696D01*
X972085Y337085D01*
X974696Y335081D01*
X977737Y333822D01*
X981000Y333392D01*
X984263Y333822D01*
X987304Y335081D01*
X989915Y337085D01*
X991919Y339696D01*
X993178Y342737D01*
X993608Y346000D01*
X993178Y349263D01*
X991919Y352304D01*
X989915Y354915D01*
X987304Y356919D01*
X984263Y358178D01*
X981000Y358608D01*
D02*
G37*
G36*
X960000Y279104D02*
X505000D01*
X501867Y278691D01*
X498948Y277482D01*
X496441Y275558D01*
X428994Y208111D01*
X427071Y205605D01*
X425862Y202686D01*
X425449Y199553D01*
Y134216D01*
X380794Y89561D01*
X380220Y89485D01*
X378189Y88644D01*
X376445Y87305D01*
X375106Y85561D01*
X374480Y84048D01*
X373842Y83559D01*
X371918Y81052D01*
X370709Y78133D01*
X370296Y75000D01*
X370709Y71867D01*
X371918Y68948D01*
X373842Y66441D01*
X374480Y65952D01*
X375106Y64439D01*
X376445Y62695D01*
X378189Y61356D01*
X380220Y60515D01*
X382400Y60228D01*
X384580Y60515D01*
X386611Y61356D01*
X388355Y62695D01*
X389694Y64439D01*
X389878Y64883D01*
X391908Y66441D01*
X446111Y120645D01*
X448035Y123151D01*
X449244Y126070D01*
X449656Y129203D01*
Y194540D01*
X510014Y254896D01*
X791896D01*
Y243476D01*
X791718Y243381D01*
X788368Y240632D01*
X785619Y237282D01*
X783576Y233460D01*
X782318Y229313D01*
X781894Y225000D01*
X782318Y220687D01*
X783576Y216540D01*
X785619Y212718D01*
X788368Y209368D01*
X791718Y206619D01*
X795540Y204576D01*
X799687Y203318D01*
X804000Y202894D01*
X808313Y203318D01*
X812460Y204576D01*
X816282Y206619D01*
X819632Y209368D01*
X822381Y212718D01*
X824424Y216540D01*
X825682Y220687D01*
X826106Y225000D01*
X825682Y229313D01*
X824424Y233460D01*
X822381Y237282D01*
X819632Y240632D01*
X816282Y243381D01*
X816104Y243476D01*
Y254896D01*
X954986D01*
X970006Y239876D01*
X970081Y239696D01*
X972085Y237085D01*
X974696Y235081D01*
X977737Y233822D01*
X981000Y233392D01*
X984263Y233822D01*
X987304Y235081D01*
X989915Y237085D01*
X991919Y239696D01*
X993178Y242737D01*
X993608Y246000D01*
X993178Y249263D01*
X991919Y252304D01*
X989915Y254915D01*
X987304Y256919D01*
X987123Y256994D01*
X968559Y275558D01*
X966052Y277482D01*
X963133Y278691D01*
X960000Y279104D01*
D02*
G37*
G36*
X584000Y242588D02*
X522000D01*
X520244Y242239D01*
X518756Y241244D01*
X486806Y209294D01*
X485811Y207806D01*
X485462Y206050D01*
Y136557D01*
X482922Y136052D01*
X482794Y136361D01*
X481455Y138105D01*
X479711Y139444D01*
X477680Y140285D01*
X475500Y140572D01*
X473320Y140285D01*
X471289Y139444D01*
X469545Y138105D01*
X468206Y136361D01*
X467365Y134330D01*
X467078Y132150D01*
Y119450D01*
X467365Y117270D01*
X468206Y115239D01*
X469545Y113495D01*
X471289Y112156D01*
X473320Y111315D01*
X475500Y111028D01*
X477680Y111315D01*
X479711Y112156D01*
X481455Y113495D01*
X482794Y115239D01*
X482922Y115548D01*
X485462Y115043D01*
Y110950D01*
X485811Y109194D01*
X486806Y107706D01*
X507454Y87057D01*
X506306Y85561D01*
X505465Y83530D01*
X505178Y81350D01*
Y68650D01*
X505465Y66470D01*
X506306Y64439D01*
X507645Y62695D01*
X509389Y61356D01*
X511420Y60515D01*
X513600Y60228D01*
X515780Y60515D01*
X517811Y61356D01*
X519555Y62695D01*
X520894Y64439D01*
X521735Y66470D01*
X522022Y68650D01*
Y81350D01*
X521735Y83530D01*
X520894Y85561D01*
X519555Y87305D01*
X517811Y88644D01*
X516666Y89118D01*
X516366Y90629D01*
X515371Y92118D01*
X498738Y108751D01*
X499924Y111156D01*
X500900Y111028D01*
X503080Y111315D01*
X505111Y112156D01*
X505872Y112740D01*
X508412Y111497D01*
Y107350D01*
X508761Y105594D01*
X509756Y104106D01*
X530803Y83059D01*
X530578Y81350D01*
Y68650D01*
X530865Y66470D01*
X531706Y64439D01*
X533045Y62695D01*
X534789Y61356D01*
X536820Y60515D01*
X539000Y60228D01*
X541180Y60515D01*
X543211Y61356D01*
X544955Y62695D01*
X546294Y64439D01*
X547135Y66470D01*
X547422Y68650D01*
Y81350D01*
X547135Y83530D01*
X546294Y85561D01*
X544955Y87305D01*
X543211Y88644D01*
X541180Y89485D01*
X539000Y89772D01*
X537291Y89547D01*
X517588Y109250D01*
Y112915D01*
X520128Y113777D01*
X520345Y113495D01*
X522089Y112156D01*
X524120Y111315D01*
X526127Y111051D01*
X536422Y100756D01*
X537911Y99761D01*
X539666Y99412D01*
X565249D01*
X581603Y83059D01*
X581378Y81350D01*
Y68650D01*
X581665Y66470D01*
X582506Y64439D01*
X583845Y62695D01*
X585589Y61356D01*
X587620Y60515D01*
X589800Y60228D01*
X591980Y60515D01*
X594011Y61356D01*
X595755Y62695D01*
X597094Y64439D01*
X597935Y66470D01*
X598222Y68650D01*
Y81350D01*
X597935Y83530D01*
X597094Y85561D01*
X595755Y87305D01*
X594011Y88644D01*
X591980Y89485D01*
X589800Y89772D01*
X588092Y89547D01*
X570394Y107244D01*
X568906Y108239D01*
X567150Y108588D01*
X553318D01*
X553215Y108665D01*
X553649Y111285D01*
X553880Y111315D01*
X555911Y112156D01*
X557655Y113495D01*
X558994Y115239D01*
X559835Y117270D01*
X560122Y119450D01*
Y132150D01*
X559835Y134330D01*
X558994Y136361D01*
X557655Y138105D01*
X556288Y139154D01*
Y193741D01*
X560625Y198078D01*
X562000Y197896D01*
X565133Y198309D01*
X568052Y199518D01*
X570139Y201120D01*
X572246Y199671D01*
X571761Y198756D01*
X571732Y198608D01*
X571412Y197000D01*
Y138310D01*
X571145Y138105D01*
X569806Y136361D01*
X568965Y134330D01*
X568678Y132150D01*
Y119450D01*
X568965Y117270D01*
X569806Y115239D01*
X571145Y113495D01*
X572889Y112156D01*
X574920Y111315D01*
X577100Y111028D01*
X579280Y111315D01*
X581311Y112156D01*
X583055Y113495D01*
X584394Y115239D01*
X585235Y117270D01*
X585522Y119450D01*
Y132150D01*
X585235Y134330D01*
X584394Y136361D01*
X583055Y138105D01*
X581311Y139444D01*
X580588Y139743D01*
Y195100D01*
X583689Y198201D01*
X586000Y197896D01*
X589133Y198309D01*
X592052Y199518D01*
X594558Y201441D01*
X596482Y203948D01*
X597691Y206867D01*
X597719Y207079D01*
X600281D01*
X600309Y206867D01*
X601518Y203948D01*
X602795Y202284D01*
X599256Y198744D01*
X598261Y197256D01*
X597912Y195500D01*
Y139154D01*
X596545Y138105D01*
X595206Y136361D01*
X594365Y134330D01*
X594078Y132150D01*
Y119450D01*
X594365Y117270D01*
X595206Y115239D01*
X596545Y113495D01*
X598289Y112156D01*
X600320Y111315D01*
X602500Y111028D01*
X604680Y111315D01*
X606711Y112156D01*
X608455Y113495D01*
X609794Y115239D01*
X610635Y117270D01*
X610922Y119450D01*
Y132150D01*
X610635Y134330D01*
X609794Y136361D01*
X608455Y138105D01*
X607088Y139154D01*
Y193599D01*
X611457Y197968D01*
X612000Y197896D01*
X615133Y198309D01*
X618052Y199518D01*
X620559Y201441D01*
X622482Y203948D01*
X623691Y206867D01*
X624104Y210000D01*
X623691Y213133D01*
X622482Y216052D01*
X620559Y218559D01*
X618052Y220482D01*
X615133Y221691D01*
X612000Y222104D01*
X608867Y221691D01*
X607404Y221085D01*
X587244Y241244D01*
X585756Y242239D01*
X584000Y242588D01*
D02*
G37*
G36*
X993500Y158500D02*
X968500D01*
Y158104D01*
X738000D01*
X734867Y157691D01*
X731948Y156482D01*
X729442Y154558D01*
X661987Y87104D01*
X646710D01*
X646555Y87305D01*
X644811Y88644D01*
X642780Y89485D01*
X640600Y89772D01*
X638420Y89485D01*
X636389Y88644D01*
X634645Y87305D01*
X633306Y85561D01*
X632680Y84048D01*
X632042Y83559D01*
X630118Y81052D01*
X628909Y78133D01*
X628496Y75000D01*
X628909Y71867D01*
X630118Y68948D01*
X632042Y66441D01*
X632680Y65952D01*
X633306Y64439D01*
X634645Y62695D01*
X636389Y61356D01*
X638420Y60515D01*
X640600Y60228D01*
X642780Y60515D01*
X644811Y61356D01*
X646555Y62695D01*
X646710Y62896D01*
X667000D01*
X670133Y63309D01*
X673052Y64518D01*
X675558Y66441D01*
X743013Y133896D01*
X968500D01*
Y133500D01*
X993500D01*
Y158500D01*
D02*
G37*
G36*
X653300Y140572D02*
X651120Y140285D01*
X649089Y139444D01*
X647345Y138105D01*
X646006Y136361D01*
X645165Y134330D01*
X644878Y132150D01*
Y119450D01*
X645165Y117270D01*
X646006Y115239D01*
X647345Y113495D01*
X649089Y112156D01*
X651120Y111315D01*
X653300Y111028D01*
X655480Y111315D01*
X657511Y112156D01*
X659255Y113495D01*
X660594Y115239D01*
X661435Y117270D01*
X661722Y119450D01*
Y132150D01*
X661435Y134330D01*
X660594Y136361D01*
X659255Y138105D01*
X657511Y139444D01*
X655480Y140285D01*
X653300Y140572D01*
D02*
G37*
G36*
X873000Y245106D02*
X868687Y244682D01*
X864540Y243424D01*
X860718Y241381D01*
X857368Y238632D01*
X854619Y235282D01*
X852576Y231460D01*
X851318Y227313D01*
X850893Y223000D01*
X851318Y218687D01*
X852576Y214540D01*
X854619Y210718D01*
X857368Y207368D01*
X860718Y204619D01*
X864540Y202576D01*
X868687Y201318D01*
X873000Y200894D01*
X877313Y201318D01*
X881460Y202576D01*
X885282Y204619D01*
X888632Y207368D01*
X891381Y210718D01*
X891476Y210896D01*
X948716D01*
X963748Y195865D01*
X954987Y187104D01*
X645000D01*
X641867Y186691D01*
X638948Y185482D01*
X636441Y183559D01*
X619342Y166458D01*
X617418Y163952D01*
X616209Y161033D01*
X615796Y157900D01*
Y125800D01*
X616209Y122667D01*
X617418Y119748D01*
X619342Y117241D01*
X619980Y116752D01*
X620606Y115239D01*
X621945Y113495D01*
X623689Y112156D01*
X625720Y111315D01*
X627900Y111028D01*
X630080Y111315D01*
X632111Y112156D01*
X633855Y113495D01*
X635194Y115239D01*
X635820Y116752D01*
X636459Y117241D01*
X638382Y119748D01*
X639591Y122667D01*
X640004Y125800D01*
Y152886D01*
X650014Y162896D01*
X960000D01*
X963133Y163309D01*
X966052Y164518D01*
X968559Y166441D01*
X987123Y185007D01*
X987304Y185081D01*
X989915Y187085D01*
X991919Y189696D01*
X993178Y192737D01*
X993608Y196000D01*
X993178Y199263D01*
X991919Y202304D01*
X989915Y204915D01*
X987304Y206919D01*
X986662Y207185D01*
X962288Y231558D01*
X959781Y233482D01*
X956862Y234691D01*
X953729Y235103D01*
X891476D01*
X891381Y235282D01*
X888632Y238632D01*
X885282Y241381D01*
X881460Y243424D01*
X877313Y244682D01*
X873000Y245106D01*
D02*
G37*
G36*
X395100Y140572D02*
X392920Y140285D01*
X390889Y139444D01*
X389145Y138105D01*
X387806Y136361D01*
X386965Y134330D01*
X386678Y132150D01*
Y119450D01*
X386965Y117270D01*
X387806Y115239D01*
X389145Y113495D01*
X390889Y112156D01*
X392920Y111315D01*
X395100Y111028D01*
X397280Y111315D01*
X399311Y112156D01*
X401055Y113495D01*
X402394Y115239D01*
X403235Y117270D01*
X403522Y119450D01*
Y132150D01*
X403235Y134330D01*
X402394Y136361D01*
X401055Y138105D01*
X399311Y139444D01*
X397280Y140285D01*
X395100Y140572D01*
D02*
G37*
G36*
X565670Y90149D02*
Y76270D01*
X573367D01*
Y81350D01*
X573061Y83671D01*
X572165Y85833D01*
X570740Y87690D01*
X568883Y89115D01*
X566721Y90011D01*
X565670Y90149D01*
D02*
G37*
G36*
X563130D02*
X562079Y90011D01*
X559917Y89115D01*
X558060Y87690D01*
X556635Y85833D01*
X555739Y83671D01*
X555433Y81350D01*
Y76270D01*
X563130D01*
Y90149D01*
D02*
G37*
G36*
X158500Y75063D02*
X156594Y74812D01*
X154818Y74076D01*
X153294Y72906D01*
X152123Y71382D01*
X151388Y69606D01*
X151137Y67700D01*
X151388Y65794D01*
X152123Y64019D01*
X153294Y62494D01*
X154818Y61323D01*
X156594Y60588D01*
X158500Y60337D01*
X160406Y60588D01*
X162181Y61323D01*
X163706Y62494D01*
X164876Y64019D01*
X165612Y65794D01*
X165863Y67700D01*
X165612Y69606D01*
X164876Y71382D01*
X163706Y72906D01*
X162181Y74076D01*
X160406Y74812D01*
X158500Y75063D01*
D02*
G37*
G36*
X615200Y89772D02*
X613020Y89485D01*
X610989Y88644D01*
X609245Y87305D01*
X607906Y85561D01*
X607065Y83530D01*
X606778Y81350D01*
Y68650D01*
X607065Y66470D01*
X607906Y64439D01*
X609245Y62695D01*
X610989Y61356D01*
X613020Y60515D01*
X615200Y60228D01*
X617380Y60515D01*
X619411Y61356D01*
X621155Y62695D01*
X622494Y64439D01*
X623335Y66470D01*
X623622Y68650D01*
Y81350D01*
X623335Y83530D01*
X622494Y85561D01*
X621155Y87305D01*
X619411Y88644D01*
X617380Y89485D01*
X615200Y89772D01*
D02*
G37*
G36*
X488200D02*
X486020Y89485D01*
X483989Y88644D01*
X482245Y87305D01*
X480906Y85561D01*
X480065Y83530D01*
X479778Y81350D01*
Y68650D01*
X480065Y66470D01*
X480906Y64439D01*
X482245Y62695D01*
X483989Y61356D01*
X486020Y60515D01*
X488200Y60228D01*
X490380Y60515D01*
X492411Y61356D01*
X494155Y62695D01*
X495494Y64439D01*
X496335Y66470D01*
X496622Y68650D01*
Y81350D01*
X496335Y83530D01*
X495494Y85561D01*
X494155Y87305D01*
X492411Y88644D01*
X490380Y89485D01*
X488200Y89772D01*
D02*
G37*
G36*
X230000D02*
X227820Y89485D01*
X225789Y88644D01*
X224045Y87305D01*
X222706Y85561D01*
X221865Y83530D01*
X221578Y81350D01*
Y68650D01*
X221865Y66470D01*
X222706Y64439D01*
X224045Y62695D01*
X225789Y61356D01*
X227820Y60515D01*
X230000Y60228D01*
X232180Y60515D01*
X234211Y61356D01*
X235955Y62695D01*
X237294Y64439D01*
X238135Y66470D01*
X238422Y68650D01*
Y81350D01*
X238135Y83530D01*
X237294Y85561D01*
X235955Y87305D01*
X234211Y88644D01*
X232180Y89485D01*
X230000Y89772D01*
D02*
G37*
G36*
X573367Y73730D02*
X565670D01*
Y59851D01*
X566721Y59989D01*
X568883Y60885D01*
X570740Y62310D01*
X572165Y64167D01*
X573061Y66329D01*
X573367Y68650D01*
Y73730D01*
D02*
G37*
G36*
X304930Y73730D02*
X297233D01*
Y68650D01*
X297539Y66329D01*
X298435Y64167D01*
X299860Y62310D01*
X301717Y60885D01*
X303879Y59989D01*
X304930Y59851D01*
Y73730D01*
D02*
G37*
G36*
X563130Y73730D02*
X555433D01*
Y68650D01*
X555739Y66329D01*
X556635Y64167D01*
X558060Y62310D01*
X559917Y60885D01*
X562079Y59989D01*
X563130Y59851D01*
Y73730D01*
D02*
G37*
%LPD*%
G36*
X251343Y882126D02*
X250886Y881530D01*
X250180Y879827D01*
X249940Y878000D01*
X250180Y876173D01*
X250780Y874724D01*
X250652Y874497D01*
X248551Y873159D01*
X247269Y873414D01*
Y866998D01*
X246000D01*
Y865728D01*
X239584D01*
X239839Y864446D01*
X241284Y862283D01*
X243448Y860838D01*
X245420Y860445D01*
X246262Y858786D01*
X246420Y857854D01*
X235400Y846834D01*
X232152D01*
X231827Y847230D01*
X221700D01*
Y849770D01*
X231603D01*
X231422Y850678D01*
X230882Y851486D01*
X230914Y851533D01*
X231096Y852450D01*
Y854550D01*
X230914Y855467D01*
X230394Y856244D01*
X229617Y856764D01*
X228700Y856946D01*
X227491D01*
X227039Y857497D01*
Y876000D01*
X226884Y876780D01*
X226442Y877442D01*
X225780Y877884D01*
X225000Y878039D01*
X206497D01*
X205946Y878491D01*
Y879700D01*
X205764Y880617D01*
X205244Y881394D01*
X205455Y884110D01*
X206012Y884666D01*
X250213D01*
X251343Y882126D01*
D02*
G37*
G36*
X225000Y857497D02*
X222970D01*
Y853500D01*
X221700D01*
Y852230D01*
X211797D01*
X211978Y851322D01*
X212518Y850514D01*
X212486Y850467D01*
X212304Y849550D01*
Y847450D01*
X212486Y846533D01*
X212843Y846000D01*
X212486Y845467D01*
X212304Y844550D01*
Y842450D01*
X212486Y841533D01*
X212843Y841000D01*
X212486Y840467D01*
X212304Y839550D01*
Y837450D01*
X212486Y836533D01*
X212843Y836000D01*
X212486Y835467D01*
X212304Y834550D01*
Y832450D01*
X212486Y831533D01*
X212843Y831000D01*
X212486Y830467D01*
X212304Y829550D01*
Y827450D01*
X212486Y826533D01*
X212843Y826000D01*
X212486Y825467D01*
X212304Y824550D01*
Y822450D01*
X212486Y821533D01*
X212843Y821000D01*
X212486Y820467D01*
X212304Y819550D01*
Y817450D01*
X212486Y816533D01*
X212843Y816000D01*
X212486Y815467D01*
X212304Y814550D01*
Y812450D01*
X212486Y811533D01*
X212843Y811000D01*
X212486Y810467D01*
X212304Y809550D01*
Y807450D01*
X212486Y806533D01*
X212843Y806000D01*
X212486Y805467D01*
X212304Y804550D01*
Y802450D01*
X212486Y801533D01*
X212843Y801000D01*
X212486Y800467D01*
X212304Y799550D01*
Y797450D01*
X212486Y796533D01*
X212843Y796000D01*
X212486Y795467D01*
X212304Y794550D01*
Y792450D01*
X212486Y791533D01*
X212843Y791000D01*
X212486Y790467D01*
X212304Y789550D01*
Y787450D01*
X212486Y786533D01*
X212843Y786000D01*
X212486Y785467D01*
X212304Y784550D01*
Y782450D01*
X212486Y781533D01*
X212843Y781000D01*
X212486Y780467D01*
X212304Y779550D01*
Y777450D01*
X212486Y776533D01*
X213006Y775756D01*
X213783Y775236D01*
X214700Y775054D01*
X225000D01*
Y756000D01*
X206497D01*
Y758030D01*
X202500D01*
Y759300D01*
X201230D01*
Y769203D01*
X200322Y769022D01*
X199514Y768482D01*
X199467Y768514D01*
X198550Y768696D01*
X196450D01*
X195533Y768514D01*
X195000Y768158D01*
X194467Y768514D01*
X193550Y768696D01*
X191450D01*
X190533Y768514D01*
X190000Y768158D01*
X189467Y768514D01*
X188550Y768696D01*
X186450D01*
X185533Y768514D01*
X185000Y768158D01*
X184467Y768514D01*
X183550Y768696D01*
X181450D01*
X180533Y768514D01*
X180000Y768158D01*
X179467Y768514D01*
X178550Y768696D01*
X176450D01*
X175533Y768514D01*
X175000Y768158D01*
X174467Y768514D01*
X173550Y768696D01*
X171450D01*
X170533Y768514D01*
X170000Y768158D01*
X169467Y768514D01*
X168550Y768696D01*
X166450D01*
X165533Y768514D01*
X165000Y768158D01*
X164467Y768514D01*
X163550Y768696D01*
X161450D01*
X160533Y768514D01*
X160000Y768158D01*
X159467Y768514D01*
X158550Y768696D01*
X156450D01*
X155533Y768514D01*
X155000Y768158D01*
X154467Y768514D01*
X153550Y768696D01*
X151450D01*
X150533Y768514D01*
X150000Y768158D01*
X149467Y768514D01*
X148550Y768696D01*
X146450D01*
X145533Y768514D01*
X145000Y768158D01*
X144467Y768514D01*
X143550Y768696D01*
X141450D01*
X140533Y768514D01*
X140000Y768158D01*
X139467Y768514D01*
X138550Y768696D01*
X136450D01*
X135533Y768514D01*
X135000Y768158D01*
X134467Y768514D01*
X133550Y768696D01*
X131450D01*
X130533Y768514D01*
X130000Y768158D01*
X129467Y768514D01*
X128550Y768696D01*
X126450D01*
X125533Y768514D01*
X124756Y767994D01*
X124236Y767217D01*
X124054Y766300D01*
Y759260D01*
X124036Y759170D01*
Y756000D01*
X105000D01*
Y774503D01*
X107030D01*
Y778500D01*
X108300D01*
Y779770D01*
X118203D01*
X118022Y780678D01*
X117482Y781486D01*
X117514Y781533D01*
X117696Y782450D01*
Y784550D01*
X117514Y785467D01*
X117157Y786000D01*
X117514Y786533D01*
X117696Y787450D01*
Y789550D01*
X117514Y790467D01*
X117157Y791000D01*
X117514Y791533D01*
X117696Y792450D01*
Y794550D01*
X117514Y795467D01*
X117157Y796000D01*
X117514Y796533D01*
X117696Y797450D01*
Y799550D01*
X117514Y800467D01*
X117157Y801000D01*
X117514Y801533D01*
X117696Y802450D01*
Y804550D01*
X117514Y805467D01*
X117157Y806000D01*
X117514Y806533D01*
X117696Y807450D01*
Y809550D01*
X117514Y810467D01*
X117157Y811000D01*
X117514Y811533D01*
X117696Y812450D01*
Y814550D01*
X117514Y815467D01*
X117157Y816000D01*
X117514Y816533D01*
X117696Y817450D01*
Y819550D01*
X117514Y820467D01*
X117157Y821000D01*
X117514Y821533D01*
X117696Y822450D01*
Y824550D01*
X117514Y825467D01*
X117157Y826000D01*
X117514Y826533D01*
X117696Y827450D01*
Y829550D01*
X117514Y830467D01*
X117157Y831000D01*
X117514Y831533D01*
X117696Y832450D01*
Y834550D01*
X117514Y835467D01*
X117157Y836000D01*
X117514Y836533D01*
X117696Y837450D01*
Y839550D01*
X117514Y840467D01*
X117482Y840514D01*
X118022Y841322D01*
X118203Y842230D01*
X108300D01*
Y844770D01*
X118203D01*
X118022Y845678D01*
X117482Y846486D01*
X117514Y846533D01*
X117696Y847450D01*
Y849550D01*
X117514Y850467D01*
X117157Y851000D01*
X117514Y851533D01*
X117696Y852450D01*
Y854550D01*
X117514Y855467D01*
X116994Y856244D01*
X116217Y856764D01*
X115300Y856946D01*
X108260D01*
X108170Y856964D01*
X105000D01*
Y876000D01*
X124054D01*
Y865700D01*
X124236Y864783D01*
X124756Y864006D01*
X125533Y863486D01*
X126450Y863304D01*
X128550D01*
X129467Y863486D01*
X130000Y863842D01*
X130533Y863486D01*
X131450Y863304D01*
X133550D01*
X134467Y863486D01*
X135000Y863842D01*
X135533Y863486D01*
X136450Y863304D01*
X138550D01*
X139467Y863486D01*
X140000Y863842D01*
X140533Y863486D01*
X141450Y863304D01*
X143550D01*
X144467Y863486D01*
X145000Y863842D01*
X145533Y863486D01*
X146450Y863304D01*
X148550D01*
X149467Y863486D01*
X150000Y863842D01*
X150533Y863486D01*
X151450Y863304D01*
X153550D01*
X154467Y863486D01*
X155000Y863842D01*
X155533Y863486D01*
X156450Y863304D01*
X158550D01*
X159467Y863486D01*
X160000Y863842D01*
X160533Y863486D01*
X161450Y863304D01*
X163550D01*
X164467Y863486D01*
X165000Y863842D01*
X165533Y863486D01*
X166450Y863304D01*
X168550D01*
X169467Y863486D01*
X170000Y863842D01*
X170533Y863486D01*
X171450Y863304D01*
X173550D01*
X174467Y863486D01*
X175000Y863842D01*
X175533Y863486D01*
X176450Y863304D01*
X178550D01*
X179467Y863486D01*
X180000Y863842D01*
X180533Y863486D01*
X181450Y863304D01*
X183550D01*
X184467Y863486D01*
X185000Y863842D01*
X185533Y863486D01*
X186450Y863304D01*
X188550D01*
X189467Y863486D01*
X190000Y863842D01*
X190533Y863486D01*
X191450Y863304D01*
X193550D01*
X194467Y863486D01*
X195000Y863842D01*
X195533Y863486D01*
X196450Y863304D01*
X198550D01*
X199467Y863486D01*
X199514Y863518D01*
X200322Y862978D01*
X201230Y862797D01*
Y872700D01*
X202500D01*
Y873970D01*
X206497D01*
Y876000D01*
X225000D01*
Y857497D01*
D02*
G37*
G36*
X472577Y745065D02*
X433100Y705588D01*
X339901D01*
X325244Y720244D01*
X323756Y721239D01*
X322000Y721588D01*
X309782D01*
X309698Y721791D01*
X308175Y723775D01*
X306191Y725298D01*
X303880Y726255D01*
X301400Y726582D01*
X298920Y726255D01*
X296609Y725298D01*
X294625Y723775D01*
X293102Y721791D01*
X292145Y719480D01*
X291818Y717000D01*
X292145Y714520D01*
X293102Y712209D01*
X294625Y710225D01*
X296609Y708702D01*
X297994Y708128D01*
X297489Y705588D01*
X279911D01*
X279406Y708128D01*
X280791Y708702D01*
X282775Y710225D01*
X284298Y712209D01*
X285255Y714520D01*
X285582Y717000D01*
X285255Y719480D01*
X284298Y721791D01*
X282775Y723775D01*
X280791Y725298D01*
X278480Y726255D01*
X276000Y726582D01*
X273520Y726255D01*
X271209Y725298D01*
X269224Y723775D01*
X267702Y721791D01*
X266744Y719480D01*
X266418Y717000D01*
X266744Y714520D01*
X267702Y712209D01*
X269224Y710225D01*
X271209Y708702D01*
X272594Y708128D01*
X272089Y705588D01*
X255923D01*
X255417Y708128D01*
X255663Y708230D01*
X257761Y709839D01*
X259370Y711937D01*
X260382Y714379D01*
X260559Y715730D01*
X240641D01*
X240818Y714379D01*
X241830Y711937D01*
X243439Y709839D01*
X245537Y708230D01*
X245783Y708128D01*
X245278Y705588D01*
X229111D01*
X228606Y708128D01*
X229991Y708702D01*
X231975Y710225D01*
X233498Y712209D01*
X234455Y714520D01*
X234782Y717000D01*
X234455Y719480D01*
X233852Y720937D01*
X237351Y724436D01*
X240449D01*
X241830Y722063D01*
X240818Y719621D01*
X240641Y718270D01*
X260559D01*
X260382Y719621D01*
X259370Y722063D01*
X257761Y724161D01*
X255663Y725770D01*
X254741Y726152D01*
X254125Y729128D01*
X257628Y732631D01*
X258350Y733713D01*
X258604Y734989D01*
Y741011D01*
X258350Y742287D01*
X257628Y743369D01*
X255931Y745065D01*
X256903Y747412D01*
X471604D01*
X472577Y745065D01*
D02*
G37*
G36*
X97980Y782158D02*
X99086Y780467D01*
X98904Y779550D01*
Y777450D01*
X99086Y776533D01*
X99606Y775756D01*
X100383Y775236D01*
X101300Y775054D01*
X102509D01*
X102961Y774503D01*
Y756000D01*
X103116Y755220D01*
X103558Y754558D01*
X104220Y754116D01*
X105000Y753961D01*
X124036D01*
Y747751D01*
X72681Y696396D01*
X70334Y697368D01*
Y757580D01*
X95370Y782616D01*
X97980Y782158D01*
D02*
G37*
G36*
X554114Y742412D02*
X553142Y740065D01*
X550870D01*
Y728000D01*
Y715935D01*
X561665D01*
Y723440D01*
X564205Y723945D01*
X564933Y722188D01*
X566780Y719780D01*
X569188Y717933D01*
X571991Y716772D01*
X575000Y716376D01*
X578009Y716772D01*
X580812Y717933D01*
X583220Y719780D01*
X585067Y722188D01*
X586228Y724991D01*
X586419Y726440D01*
X588981D01*
X589172Y724991D01*
X590333Y722188D01*
X592180Y719780D01*
X594588Y717933D01*
X595071Y717733D01*
Y711056D01*
X505008Y620993D01*
X503885Y619530D01*
X503180Y617827D01*
X502940Y616000D01*
Y493000D01*
X503180Y491173D01*
X503885Y489470D01*
X505008Y488008D01*
X559940Y433075D01*
Y366925D01*
X541008Y347992D01*
X539885Y346530D01*
X539472Y345532D01*
X536998Y346195D01*
X537104Y347000D01*
X536691Y350133D01*
X535482Y353052D01*
X533559Y355559D01*
X531052Y357482D01*
X529588Y358088D01*
Y392000D01*
X529239Y393756D01*
X528244Y395244D01*
X513341Y410148D01*
X514652Y412123D01*
X514838Y412242D01*
X516500Y411912D01*
X522171D01*
X522309Y410867D01*
X523518Y407948D01*
X525442Y405442D01*
X527948Y403518D01*
X530867Y402309D01*
X534000Y401897D01*
X537133Y402309D01*
X540052Y403518D01*
X542559Y405442D01*
X543872Y407153D01*
X546412Y406291D01*
Y396480D01*
X545000Y394104D01*
X541867Y393691D01*
X538948Y392482D01*
X536441Y390559D01*
X534518Y388052D01*
X533309Y385133D01*
X532896Y382000D01*
X533309Y378867D01*
X534518Y375948D01*
X536441Y373442D01*
X538948Y371518D01*
X541867Y370309D01*
X545000Y369896D01*
X548133Y370309D01*
X551052Y371518D01*
X553559Y373442D01*
X555482Y375948D01*
X556691Y378867D01*
X557104Y382000D01*
X556691Y385133D01*
X555482Y388052D01*
X554548Y389269D01*
X555239Y390303D01*
X555588Y392059D01*
Y421000D01*
X555239Y422756D01*
X554244Y424244D01*
X542244Y436244D01*
X540756Y437239D01*
X539000Y437588D01*
X524880D01*
X447484Y514984D01*
X448163Y517897D01*
X449326Y518674D01*
X450652Y520659D01*
X451118Y523000D01*
X450652Y525341D01*
X450088Y526185D01*
Y534000D01*
X455000D01*
Y548000D01*
X437000D01*
Y534000D01*
X440912D01*
Y527485D01*
X440674Y527326D01*
X439897Y526163D01*
X436984Y525484D01*
X391724Y570744D01*
X390235Y571739D01*
X388479Y572088D01*
X365600D01*
Y582172D01*
X369643D01*
X369855Y581855D01*
X371757Y580584D01*
X374000Y580137D01*
X376244Y580584D01*
X378145Y581855D01*
X379416Y583756D01*
X379863Y586000D01*
X379416Y588243D01*
X378145Y590145D01*
X377183Y590788D01*
X377098Y591216D01*
X376214Y592539D01*
X376214Y592539D01*
X361869Y606884D01*
X360546Y607768D01*
X358985Y608078D01*
X358985Y608078D01*
X311000D01*
X311000Y608078D01*
X309439Y607768D01*
X308116Y606884D01*
X308116Y606884D01*
X287116Y585884D01*
X286232Y584561D01*
X285922Y583000D01*
X285922Y583000D01*
Y557689D01*
X248311Y520078D01*
X187689D01*
X180078Y527689D01*
Y532558D01*
X180099Y532663D01*
Y547337D01*
X179904Y548318D01*
X179349Y549149D01*
X178518Y549704D01*
X177537Y549899D01*
X174463D01*
X173578Y550625D01*
Y565418D01*
X173558Y565519D01*
X173652Y565659D01*
X174118Y568000D01*
X173652Y570341D01*
X172629Y571872D01*
X173150Y573530D01*
X173754Y574412D01*
X182000D01*
X183756Y574761D01*
X185244Y575756D01*
X189244Y579756D01*
X190239Y581244D01*
X190588Y583000D01*
Y605605D01*
X192935Y606577D01*
X203412Y596100D01*
Y577000D01*
X199000D01*
Y563000D01*
X217000D01*
Y577000D01*
X212588D01*
Y598000D01*
X212239Y599756D01*
X211244Y601244D01*
X202145Y610344D01*
X203268Y612812D01*
X204261Y612744D01*
X205256Y611256D01*
X230756Y585756D01*
X232244Y584761D01*
X234000Y584412D01*
X242000D01*
Y580000D01*
X256000D01*
Y598000D01*
X242000D01*
Y593588D01*
X235900D01*
X217342Y612147D01*
X219081Y614000D01*
X233000D01*
Y632000D01*
X232638D01*
X230450Y632850D01*
Y643182D01*
X238884Y651616D01*
X239460Y652478D01*
X241706Y652172D01*
X242000Y652056D01*
Y646000D01*
X256000D01*
Y664000D01*
X255360D01*
X254308Y666540D01*
X256756Y668988D01*
X259512Y668152D01*
X259517Y668128D01*
X260843Y666143D01*
X260919Y666092D01*
X262000Y664000D01*
X262000Y662548D01*
Y646000D01*
X264922D01*
Y642000D01*
X262000D01*
Y624000D01*
X276000D01*
Y642000D01*
X273078D01*
Y646000D01*
X276000D01*
Y661598D01*
X277283Y662585D01*
X278326Y663149D01*
X278540Y663150D01*
X279686Y662922D01*
X279686Y662922D01*
X315343D01*
X315343Y662922D01*
X316904Y663232D01*
X318227Y664116D01*
X322033Y667922D01*
X351922D01*
Y658500D01*
X345000D01*
Y645500D01*
X367000D01*
Y658500D01*
X360078D01*
Y667481D01*
X362618Y668043D01*
X363659Y667348D01*
X366000Y666882D01*
X367872Y667255D01*
X369574Y666353D01*
X370412Y665677D01*
Y604000D01*
X370761Y602244D01*
X371756Y600756D01*
X414756Y557756D01*
X416244Y556761D01*
X418000Y556412D01*
X437000D01*
Y554000D01*
X455000D01*
Y568000D01*
X437000D01*
Y565588D01*
X419901D01*
X379588Y605900D01*
Y654511D01*
X382128Y655869D01*
X382159Y655848D01*
X384500Y655383D01*
X386841Y655848D01*
X388826Y657174D01*
X388991Y657422D01*
X401294D01*
X401475Y657040D01*
X399924Y654500D01*
X392550D01*
Y646443D01*
X392462Y646000D01*
Y633000D01*
X389000D01*
Y615000D01*
X389412D01*
Y607000D01*
X389761Y605244D01*
X390756Y603756D01*
X418756Y575756D01*
X420244Y574761D01*
X422000Y574412D01*
X455000D01*
X456756Y574761D01*
X458244Y575756D01*
X461744Y579256D01*
X462739Y580744D01*
X463088Y582500D01*
Y587000D01*
X468000D01*
Y605000D01*
X454000D01*
Y593943D01*
X453912Y593500D01*
Y584400D01*
X453100Y583588D01*
X423900D01*
X398588Y608900D01*
Y615000D01*
X403000D01*
Y633000D01*
X401638D01*
Y638400D01*
X402450D01*
Y651974D01*
X402450Y652530D01*
X402488Y654271D01*
X404430Y655853D01*
X411550Y648732D01*
Y638400D01*
X412172D01*
Y633000D01*
X409000D01*
Y615000D01*
X423000D01*
Y633000D01*
X420328D01*
Y638400D01*
X421450D01*
Y654500D01*
X417318D01*
X410664Y661153D01*
X411636Y663500D01*
X421450D01*
Y671557D01*
X421538Y672000D01*
Y676171D01*
X421779Y676412D01*
X455671D01*
X455912Y676171D01*
Y672000D01*
X454000D01*
Y654000D01*
X468000D01*
Y672000D01*
X465088D01*
Y678071D01*
X464739Y679827D01*
X463744Y681315D01*
X460815Y684244D01*
X459327Y685239D01*
X457571Y685588D01*
X421779D01*
X413496Y693872D01*
X414548Y696412D01*
X435000D01*
X436756Y696761D01*
X438244Y697756D01*
X487901Y747412D01*
X549114D01*
X554114Y742412D01*
D02*
G37*
G36*
X323860Y578270D02*
X332450D01*
Y575730D01*
X323860D01*
Y571560D01*
X321685Y570678D01*
X318600D01*
X317039Y570368D01*
X315716Y569484D01*
X315716Y569484D01*
X308425Y562193D01*
X306078Y563165D01*
Y575825D01*
X312675Y582422D01*
X323860D01*
Y578270D01*
D02*
G37*
G36*
X112000Y638882D02*
X114166Y636958D01*
Y606559D01*
X114151Y606549D01*
X113596Y605718D01*
X113401Y604738D01*
Y590062D01*
X113596Y589082D01*
X114151Y588251D01*
X114982Y587696D01*
X115962Y587501D01*
X119038D01*
X120018Y587696D01*
X120750Y588185D01*
X121482Y587696D01*
X122463Y587501D01*
X125538D01*
X126518Y587696D01*
X127250Y588185D01*
X127982Y587696D01*
X128962Y587501D01*
X132037D01*
X133018Y587696D01*
X133750Y588185D01*
X134482Y587696D01*
X135463Y587501D01*
X138538D01*
X139518Y587696D01*
X140250Y588185D01*
X140982Y587696D01*
X141962Y587501D01*
X145037D01*
X146018Y587696D01*
X146750Y588185D01*
X147482Y587696D01*
X148462Y587501D01*
X151538D01*
X152518Y587696D01*
X153250Y588185D01*
X153982Y587696D01*
X154963Y587501D01*
X156954D01*
X158368Y585313D01*
X158391Y585159D01*
X158190Y584758D01*
X157659Y584652D01*
X155674Y583326D01*
X154348Y581341D01*
X153883Y579000D01*
X154348Y576659D01*
X155674Y574674D01*
X157659Y573348D01*
X160000Y572882D01*
X161143Y573110D01*
X162671Y570824D01*
X162348Y570341D01*
X161882Y568000D01*
X162348Y565659D01*
X163674Y563674D01*
X165422Y562507D01*
Y550625D01*
X164538Y549899D01*
X161462D01*
X160482Y549704D01*
X159750Y549215D01*
X159018Y549704D01*
X158038Y549899D01*
X154963D01*
X153982Y549704D01*
X153250Y549215D01*
X152518Y549704D01*
X151538Y549899D01*
X148462D01*
X147482Y549704D01*
X146750Y549215D01*
X146018Y549704D01*
X145037Y549899D01*
X141962D01*
X140982Y549704D01*
X140250Y549215D01*
X139518Y549704D01*
X138538Y549899D01*
X135463D01*
X134482Y549704D01*
X133750Y549215D01*
X133018Y549704D01*
X132037Y549899D01*
X128962D01*
X127982Y549704D01*
X127250Y549215D01*
X126518Y549704D01*
X125538Y549899D01*
X122463D01*
X121482Y549704D01*
X121236Y549540D01*
X120229Y550213D01*
X119038Y550450D01*
X118770D01*
Y540000D01*
Y529550D01*
X119038D01*
X120229Y529787D01*
X121236Y530460D01*
X121482Y530296D01*
X122463Y530101D01*
X125538D01*
X126422Y529375D01*
Y403500D01*
X126422Y403500D01*
X126732Y401939D01*
X127616Y400616D01*
X151971Y376261D01*
X150980Y373660D01*
X149756Y373416D01*
X147854Y372146D01*
X146584Y370243D01*
X146137Y368000D01*
X146330Y367029D01*
X143990Y365778D01*
X114328Y395439D01*
Y412858D01*
X114349Y412962D01*
Y427637D01*
X114154Y428618D01*
X113599Y429449D01*
X112768Y430004D01*
X111788Y430199D01*
X108713D01*
X107828Y430925D01*
Y447168D01*
X107691Y447857D01*
X108118Y450000D01*
X107652Y452341D01*
X106326Y454326D01*
X104341Y455652D01*
X102000Y456118D01*
X100612Y458431D01*
X101565Y459687D01*
X101765D01*
X101765Y459687D01*
X103326Y459997D01*
X104649Y460882D01*
X106634Y462866D01*
X107518Y464189D01*
X107828Y465750D01*
X109280Y467801D01*
X111788D01*
X112768Y467996D01*
X113599Y468551D01*
X114154Y469382D01*
X114349Y470363D01*
Y485037D01*
X114154Y486018D01*
X113599Y486849D01*
X113584Y486859D01*
Y494750D01*
X113330Y496026D01*
X112607Y497108D01*
X107334Y502381D01*
Y637847D01*
X109530Y639265D01*
X109874Y639305D01*
X112000Y638882D01*
D02*
G37*
G36*
X323860Y498270D02*
X332450D01*
Y495730D01*
X323860D01*
Y491828D01*
X319750D01*
X319750Y491828D01*
X318189Y491518D01*
X316866Y490634D01*
X267311Y441078D01*
X171190D01*
X171145Y441146D01*
X169244Y442416D01*
X167000Y442863D01*
X164757Y442416D01*
X162854Y441146D01*
X161584Y439244D01*
X161506Y438854D01*
X158750Y438018D01*
X147578Y449189D01*
Y480335D01*
X149925Y481307D01*
X182116Y449116D01*
X182116Y449116D01*
X183439Y448232D01*
X185000Y447922D01*
X264000D01*
X264000Y447922D01*
X265561Y448232D01*
X266884Y449116D01*
X320189Y502422D01*
X323860D01*
Y498270D01*
D02*
G37*
G36*
Y535770D02*
X332450D01*
Y533230D01*
X323860D01*
Y529060D01*
X322417Y527118D01*
X322216Y526984D01*
X322216Y526984D01*
X270311Y475078D01*
X259478D01*
X258426Y477618D01*
X320729Y539922D01*
X323860D01*
Y535770D01*
D02*
G37*
G36*
X99659Y444348D02*
X99672Y444346D01*
Y430925D01*
X98787Y430199D01*
X95712D01*
X94732Y430004D01*
X94000Y429515D01*
X93268Y430004D01*
X92288Y430199D01*
X89213D01*
X88232Y430004D01*
X87500Y429515D01*
X86768Y430004D01*
X85787Y430199D01*
X82712D01*
X81732Y430004D01*
X81000Y429515D01*
X80268Y430004D01*
X79288Y430199D01*
X76213D01*
X75232Y430004D01*
X74500Y429515D01*
X73768Y430004D01*
X72787Y430199D01*
X69713D01*
X68732Y430004D01*
X68000Y429515D01*
X67268Y430004D01*
X66287Y430199D01*
X63212D01*
X62232Y430004D01*
X61500Y429515D01*
X60768Y430004D01*
X59788Y430199D01*
X56712D01*
X55732Y430004D01*
X55486Y429840D01*
X54479Y430513D01*
X53288Y430750D01*
X53020D01*
Y420300D01*
Y409850D01*
X53287D01*
X54172Y409125D01*
Y311550D01*
X54172Y311550D01*
X54482Y309989D01*
X55366Y308666D01*
X66200Y297832D01*
Y289000D01*
X80800D01*
Y303600D01*
X71968D01*
X62328Y313239D01*
Y336585D01*
X64675Y337557D01*
X96922Y305311D01*
Y274689D01*
X74910Y252677D01*
X73500Y252863D01*
X71594Y252612D01*
X69819Y251877D01*
X68294Y250706D01*
X67123Y249181D01*
X66388Y247406D01*
X66137Y245500D01*
X66388Y243594D01*
X67123Y241819D01*
X68294Y240294D01*
X69819Y239123D01*
X71594Y238388D01*
X73500Y238137D01*
X75406Y238388D01*
X77182Y239123D01*
X78706Y240294D01*
X79876Y241819D01*
X80612Y243594D01*
X80863Y245500D01*
X80677Y246910D01*
X103884Y270116D01*
X103884Y270116D01*
X104768Y271439D01*
X105078Y273000D01*
Y301548D01*
X107497Y302613D01*
X108922Y301471D01*
Y124190D01*
X108855Y124145D01*
X107584Y122243D01*
X107137Y120000D01*
X107584Y117757D01*
X108855Y115855D01*
X110757Y114584D01*
X110979Y114539D01*
X111816Y111783D01*
X74910Y74877D01*
X73500Y75063D01*
X71594Y74812D01*
X69819Y74076D01*
X68294Y72906D01*
X67123Y71382D01*
X66388Y69606D01*
X66165Y67915D01*
X65530Y67475D01*
X63694Y66794D01*
X55588Y74900D01*
Y105000D01*
X60000D01*
Y119000D01*
X42000D01*
Y105000D01*
X46412D01*
Y73669D01*
X44759Y72705D01*
X43931Y72558D01*
X25588Y90900D01*
Y423100D01*
X35463Y432975D01*
X37341Y433348D01*
X39326Y434674D01*
X40652Y436659D01*
X41118Y439000D01*
X40652Y441341D01*
X39629Y442872D01*
X40150Y444530D01*
X40754Y445412D01*
X98067D01*
X99659Y444348D01*
D02*
G37*
G36*
X323860Y456270D02*
X332450D01*
Y453730D01*
X323860D01*
Y451755D01*
X323277Y449416D01*
X321698Y449026D01*
X321697Y449025D01*
X321575Y448944D01*
X320373Y448141D01*
X320373Y448141D01*
X286311Y414078D01*
X193190D01*
X193146Y414146D01*
X191243Y415416D01*
X189000Y415863D01*
X186756Y415416D01*
X184855Y414146D01*
X183584Y412243D01*
X183137Y410000D01*
X183584Y407757D01*
X184855Y405854D01*
X186756Y404584D01*
X186332Y402078D01*
X163689D01*
X141078Y424689D01*
Y440835D01*
X143425Y441807D01*
X162116Y423116D01*
X162116Y423116D01*
X163439Y422232D01*
X165000Y421922D01*
X280000D01*
X280000Y421922D01*
X281561Y422232D01*
X282884Y423116D01*
X320189Y460422D01*
X323860D01*
Y456270D01*
D02*
G37*
G36*
Y417270D02*
X332450D01*
Y414730D01*
X323860D01*
Y410560D01*
X321698Y410026D01*
X321697Y410025D01*
X321575Y409944D01*
X320373Y409141D01*
X320373Y409141D01*
X301311Y390078D01*
X191190D01*
X191145Y390145D01*
X189244Y391416D01*
X189668Y393922D01*
X291000D01*
X291000Y393922D01*
X292561Y394232D01*
X293884Y395116D01*
X319689Y420922D01*
X323860D01*
Y417270D01*
D02*
G37*
G36*
X449412Y365099D02*
Y362022D01*
X447944Y360935D01*
X446872Y360490D01*
X445000Y360863D01*
X442757Y360416D01*
X440854Y359146D01*
X439584Y357243D01*
X439293Y355781D01*
X395099Y311588D01*
X377000D01*
Y316000D01*
X363000D01*
Y298000D01*
X360631Y297588D01*
X359369D01*
X357000Y298000D01*
Y316000D01*
X343000D01*
Y311588D01*
X274333D01*
X272577Y311239D01*
X271089Y310244D01*
X190756Y229911D01*
X189761Y228423D01*
X189412Y226667D01*
Y181301D01*
X159273Y151161D01*
X158500Y151263D01*
X156594Y151012D01*
X154818Y150276D01*
X153294Y149106D01*
X152123Y147582D01*
X151388Y145806D01*
X151137Y143900D01*
X151388Y141994D01*
X152123Y140218D01*
X153294Y138694D01*
X154818Y137523D01*
X156594Y136788D01*
X158500Y136537D01*
X160406Y136788D01*
X162181Y137523D01*
X163706Y138694D01*
X164876Y140218D01*
X165612Y141994D01*
X165863Y143900D01*
X165761Y144673D01*
X197244Y176156D01*
X198239Y177644D01*
X198588Y179400D01*
Y224767D01*
X232255Y258434D01*
X235219Y257806D01*
X235854Y256854D01*
X237757Y255584D01*
X238374Y255461D01*
X239412Y254423D01*
Y216000D01*
X237000D01*
Y198000D01*
X248912D01*
Y190000D01*
X159273Y100361D01*
X158500Y100463D01*
X156594Y100212D01*
X154818Y99476D01*
X153294Y98306D01*
X152819Y97688D01*
X136100D01*
X134344Y97339D01*
X132856Y96344D01*
X99000Y62488D01*
X81896D01*
X81505Y62784D01*
X80295Y65028D01*
X80612Y65794D01*
X80863Y67700D01*
X80677Y69110D01*
X125884Y114316D01*
X125884Y114316D01*
X126768Y115639D01*
X127078Y117200D01*
X127078Y117200D01*
Y184219D01*
X127217Y184346D01*
X129618Y185344D01*
X130757Y184584D01*
X133000Y184137D01*
X135244Y184584D01*
X137146Y185854D01*
X138416Y187757D01*
X138651Y188936D01*
X140336Y190622D01*
X152428D01*
X153294Y189494D01*
X154818Y188323D01*
X156594Y187588D01*
X158500Y187337D01*
X160406Y187588D01*
X162181Y188323D01*
X163706Y189494D01*
X164876Y191019D01*
X165612Y192794D01*
X165863Y194700D01*
X165612Y196606D01*
X164876Y198382D01*
X163706Y199906D01*
X162181Y201077D01*
X160406Y201812D01*
X158500Y202063D01*
X156594Y201812D01*
X154818Y201077D01*
X153294Y199906D01*
X152428Y198778D01*
X138647D01*
X138647Y198778D01*
X137086Y198468D01*
X135763Y197584D01*
X135763Y197584D01*
X133869Y195690D01*
X133000Y195863D01*
X130757Y195416D01*
X129618Y194656D01*
X127217Y195654D01*
X127078Y195781D01*
Y306000D01*
X127078Y306000D01*
X126768Y307561D01*
X125884Y308884D01*
X125884Y308884D01*
X81828Y352939D01*
Y363885D01*
X84175Y364857D01*
X151323Y297710D01*
X151137Y296300D01*
X151388Y294394D01*
X152123Y292619D01*
X153294Y291094D01*
X154818Y289923D01*
X156594Y289188D01*
X158500Y288937D01*
X160406Y289188D01*
X162181Y289923D01*
X163706Y291094D01*
X164382Y291974D01*
X166922Y291184D01*
Y276938D01*
X166553Y276569D01*
X163706Y276106D01*
X162181Y277276D01*
X160406Y278012D01*
X158500Y278263D01*
X156594Y278012D01*
X154818Y277276D01*
X153294Y276106D01*
X152123Y274582D01*
X151388Y272806D01*
X151137Y270900D01*
X151388Y268994D01*
X152123Y267218D01*
X153294Y265694D01*
X154818Y264524D01*
X156594Y263788D01*
X158500Y263537D01*
X160406Y263788D01*
X162181Y264524D01*
X163706Y265694D01*
X164572Y266822D01*
X166651D01*
X166652Y266822D01*
X168212Y267132D01*
X169536Y268016D01*
X172382Y270862D01*
X174922Y269810D01*
Y258689D01*
X171536Y255304D01*
X171536Y255303D01*
X171536Y255303D01*
X166750Y250518D01*
X163727Y250680D01*
X163706Y250706D01*
X162181Y251877D01*
X160406Y252612D01*
X158500Y252863D01*
X156594Y252612D01*
X154818Y251877D01*
X153294Y250706D01*
X152123Y249181D01*
X151388Y247406D01*
X151137Y245500D01*
X151388Y243594D01*
X152123Y241819D01*
X153294Y240294D01*
X154818Y239123D01*
X156594Y238388D01*
X158500Y238137D01*
X160406Y238388D01*
X162181Y239123D01*
X163706Y240294D01*
X164572Y241422D01*
X167500D01*
X167500Y241422D01*
X169061Y241732D01*
X170384Y242616D01*
X177303Y249536D01*
X177304Y249536D01*
X177979Y250212D01*
X180697Y249338D01*
X180877Y248245D01*
X159910Y227277D01*
X158500Y227463D01*
X156594Y227212D01*
X154818Y226476D01*
X153294Y225306D01*
X152123Y223782D01*
X151388Y222006D01*
X151137Y220100D01*
X151388Y218194D01*
X152123Y216418D01*
X153294Y214894D01*
X154818Y213724D01*
X156594Y212988D01*
X158500Y212737D01*
X160406Y212988D01*
X162181Y213724D01*
X163706Y214894D01*
X164876Y216418D01*
X165612Y218194D01*
X165863Y220100D01*
X165677Y221510D01*
X188884Y244716D01*
X188884Y244716D01*
X189768Y246039D01*
X190078Y247600D01*
Y318000D01*
X190078Y318000D01*
X189768Y319561D01*
X188884Y320884D01*
X149778Y359990D01*
X151029Y362330D01*
X152000Y362137D01*
X153938Y362523D01*
X154447Y362422D01*
X154447Y362422D01*
X324400D01*
Y361600D01*
X340412D01*
Y352929D01*
X340761Y351173D01*
X341756Y349685D01*
X344685Y346756D01*
X346173Y345761D01*
X347929Y345412D01*
X379000D01*
X380756Y345761D01*
X382244Y346756D01*
X402901Y367412D01*
X447099D01*
X449412Y365099D01*
D02*
G37*
%LPC*%
G36*
X244729Y873414D02*
X243448Y873159D01*
X241284Y871713D01*
X239839Y869550D01*
X239584Y868268D01*
X244729D01*
Y873414D01*
D02*
G37*
G36*
X206497Y871430D02*
X203770D01*
Y862797D01*
X204678Y862978D01*
X205634Y863616D01*
X206272Y864572D01*
X206497Y865700D01*
Y871430D01*
D02*
G37*
G36*
X220430Y857497D02*
X214700D01*
X213572Y857272D01*
X212616Y856634D01*
X211978Y855678D01*
X211797Y854770D01*
X220430D01*
Y857497D01*
D02*
G37*
G36*
X118203Y777230D02*
X109570D01*
Y774503D01*
X115300D01*
X116428Y774728D01*
X117384Y775366D01*
X118022Y776322D01*
X118203Y777230D01*
D02*
G37*
G36*
X203770Y769203D02*
Y760570D01*
X206497D01*
Y766300D01*
X206272Y767428D01*
X205634Y768384D01*
X204678Y769022D01*
X203770Y769203D01*
D02*
G37*
G36*
X548330Y740065D02*
X537535D01*
Y729270D01*
X548330D01*
Y740065D01*
D02*
G37*
G36*
Y726730D02*
X537535D01*
Y715935D01*
X548330D01*
Y726730D01*
D02*
G37*
G36*
X448000Y672000D02*
X434000D01*
Y654000D01*
X436412D01*
Y649000D01*
X434000D01*
Y631000D01*
X448000D01*
Y649000D01*
X445588D01*
Y654000D01*
X448000D01*
Y672000D01*
D02*
G37*
G36*
X367540Y627040D02*
X357270D01*
Y621270D01*
X367540D01*
Y627040D01*
D02*
G37*
G36*
X354730D02*
X344460D01*
Y621270D01*
X354730D01*
Y627040D01*
D02*
G37*
G36*
X367540Y618730D02*
X357270D01*
Y612960D01*
X367540D01*
Y618730D01*
D02*
G37*
G36*
X354730D02*
X344460D01*
Y612960D01*
X354730D01*
Y618730D01*
D02*
G37*
G36*
X468000Y649000D02*
X454000D01*
Y631000D01*
X456412D01*
Y627000D01*
X454000D01*
Y609000D01*
X468000D01*
Y627000D01*
X465588D01*
Y631000D01*
X468000D01*
Y649000D01*
D02*
G37*
G36*
X256000Y642000D02*
X242000D01*
Y624000D01*
X244922D01*
Y620000D01*
X242000D01*
Y602000D01*
X256000D01*
Y620000D01*
X253078D01*
Y624000D01*
X256000D01*
Y642000D01*
D02*
G37*
G36*
X448000Y627000D02*
X434000D01*
Y609000D01*
X436412D01*
Y605000D01*
X434000D01*
Y587000D01*
X448000D01*
Y605000D01*
X445588D01*
Y609000D01*
X448000D01*
Y627000D01*
D02*
G37*
G36*
X276000Y620000D02*
X262000D01*
Y602000D01*
X264922D01*
Y598000D01*
X262000D01*
Y580000D01*
X276000D01*
Y598000D01*
X273078D01*
Y602000D01*
X276000D01*
Y620000D01*
D02*
G37*
G36*
X217000Y557000D02*
X199000D01*
Y543000D01*
X217000D01*
Y545412D01*
X229100D01*
X234975Y539537D01*
X235348Y537659D01*
X236674Y535674D01*
X238659Y534348D01*
X241000Y533882D01*
X243341Y534348D01*
X245326Y535674D01*
X246652Y537659D01*
X247118Y540000D01*
X246652Y542341D01*
X245326Y544326D01*
X243341Y545652D01*
X241463Y546025D01*
X234244Y553244D01*
X232756Y554239D01*
X231000Y554588D01*
X217000D01*
Y557000D01*
D02*
G37*
G36*
X116230Y550450D02*
X115962D01*
X114771Y550213D01*
X113762Y549538D01*
X113087Y548529D01*
X112850Y547337D01*
Y541270D01*
X116230D01*
Y550450D01*
D02*
G37*
G36*
Y538730D02*
X112850D01*
Y532663D01*
X113087Y531471D01*
X113762Y530462D01*
X114771Y529787D01*
X115962Y529550D01*
X116230D01*
Y538730D01*
D02*
G37*
G36*
X50480Y430750D02*
X50212D01*
X49022Y430513D01*
X48012Y429838D01*
X47337Y428829D01*
X47100Y427637D01*
Y421570D01*
X50480D01*
Y430750D01*
D02*
G37*
G36*
Y419030D02*
X47100D01*
Y412962D01*
X47337Y411772D01*
X48012Y410762D01*
X49022Y410087D01*
X50212Y409850D01*
X50480D01*
Y419030D01*
D02*
G37*
G36*
X74770Y278640D02*
Y272170D01*
X81240D01*
X81138Y272947D01*
X80348Y274854D01*
X79092Y276492D01*
X77454Y277748D01*
X75547Y278538D01*
X74770Y278640D01*
D02*
G37*
G36*
X72230D02*
X71453Y278538D01*
X69546Y277748D01*
X67909Y276492D01*
X66652Y274854D01*
X65862Y272947D01*
X65760Y272170D01*
X72230D01*
Y278640D01*
D02*
G37*
G36*
X81240Y269630D02*
X74770D01*
Y263160D01*
X75547Y263262D01*
X77454Y264052D01*
X79092Y265308D01*
X80348Y266946D01*
X81138Y268853D01*
X81240Y269630D01*
D02*
G37*
G36*
X72230D02*
X65760D01*
X65862Y268853D01*
X66652Y266946D01*
X67909Y265308D01*
X69546Y264052D01*
X71453Y263262D01*
X72230Y263160D01*
Y269630D01*
D02*
G37*
G36*
X73500Y227463D02*
X71594Y227212D01*
X69819Y226476D01*
X68294Y225306D01*
X67123Y223782D01*
X66388Y222006D01*
X66137Y220100D01*
X66388Y218194D01*
X67123Y216418D01*
X68294Y214894D01*
X69819Y213724D01*
X71594Y212988D01*
X73500Y212737D01*
X75406Y212988D01*
X77182Y213724D01*
X78706Y214894D01*
X79876Y216418D01*
X80612Y218194D01*
X80863Y220100D01*
X80612Y222006D01*
X79876Y223782D01*
X78706Y225306D01*
X77182Y226476D01*
X75406Y227212D01*
X73500Y227463D01*
D02*
G37*
G36*
Y202063D02*
X71594Y201812D01*
X69819Y201077D01*
X68294Y199906D01*
X67123Y198382D01*
X66388Y196606D01*
X66137Y194700D01*
X66388Y192794D01*
X67123Y191019D01*
X68294Y189494D01*
X69819Y188323D01*
X71594Y187588D01*
X73500Y187337D01*
X75406Y187588D01*
X77182Y188323D01*
X78706Y189494D01*
X79876Y191019D01*
X80612Y192794D01*
X80863Y194700D01*
X80612Y196606D01*
X79876Y198382D01*
X78706Y199906D01*
X77182Y201077D01*
X75406Y201812D01*
X73500Y202063D01*
D02*
G37*
G36*
Y176663D02*
X71594Y176412D01*
X69819Y175676D01*
X68294Y174506D01*
X67123Y172981D01*
X66388Y171206D01*
X66137Y169300D01*
X66388Y167394D01*
X67123Y165618D01*
X68294Y164094D01*
X69819Y162924D01*
X71594Y162188D01*
X73500Y161937D01*
X75406Y162188D01*
X77182Y162924D01*
X78706Y164094D01*
X79876Y165618D01*
X80612Y167394D01*
X80863Y169300D01*
X80612Y171206D01*
X79876Y172981D01*
X78706Y174506D01*
X77182Y175676D01*
X75406Y176412D01*
X73500Y176663D01*
D02*
G37*
G36*
Y151263D02*
X71594Y151012D01*
X69819Y150276D01*
X68294Y149106D01*
X67123Y147582D01*
X66388Y145806D01*
X66137Y143900D01*
X66388Y141994D01*
X67123Y140218D01*
X68294Y138694D01*
X69819Y137523D01*
X71594Y136788D01*
X73500Y136537D01*
X75406Y136788D01*
X77182Y137523D01*
X78706Y138694D01*
X79876Y140218D01*
X80612Y141994D01*
X80863Y143900D01*
X80612Y145806D01*
X79876Y147582D01*
X78706Y149106D01*
X77182Y150276D01*
X75406Y151012D01*
X73500Y151263D01*
D02*
G37*
G36*
X34000Y149863D02*
X31756Y149416D01*
X29855Y148146D01*
X28584Y146243D01*
X28137Y144000D01*
X28584Y141756D01*
X29855Y139854D01*
X31756Y138584D01*
X34000Y138137D01*
X36244Y138584D01*
X36486Y138746D01*
X42000Y133232D01*
Y125000D01*
X60000D01*
Y139000D01*
X47768D01*
X40553Y146214D01*
X39230Y147098D01*
X38786Y147187D01*
X38145Y148146D01*
X36244Y149416D01*
X34000Y149863D01*
D02*
G37*
G36*
X73500Y125863D02*
X71594Y125612D01*
X69819Y124876D01*
X68294Y123706D01*
X67123Y122182D01*
X66388Y120406D01*
X66137Y118500D01*
X66388Y116594D01*
X67123Y114818D01*
X68294Y113294D01*
X69819Y112123D01*
X71594Y111388D01*
X73500Y111137D01*
X75406Y111388D01*
X77182Y112123D01*
X78706Y113294D01*
X79876Y114818D01*
X80612Y116594D01*
X80863Y118500D01*
X80612Y120406D01*
X79876Y122182D01*
X78706Y123706D01*
X77182Y124876D01*
X75406Y125612D01*
X73500Y125863D01*
D02*
G37*
G36*
Y100463D02*
X71594Y100212D01*
X69819Y99476D01*
X68294Y98306D01*
X67123Y96782D01*
X66388Y95006D01*
X66137Y93100D01*
X66388Y91194D01*
X67123Y89418D01*
X68294Y87894D01*
X69819Y86723D01*
X71594Y85988D01*
X73500Y85737D01*
X75406Y85988D01*
X77182Y86723D01*
X78706Y87894D01*
X79876Y89418D01*
X80612Y91194D01*
X80863Y93100D01*
X80612Y95006D01*
X79876Y96782D01*
X78706Y98306D01*
X77182Y99476D01*
X75406Y100212D01*
X73500Y100463D01*
D02*
G37*
G36*
X158500Y176663D02*
X156594Y176412D01*
X154818Y175676D01*
X153294Y174506D01*
X152123Y172981D01*
X151388Y171206D01*
X151137Y169300D01*
X151388Y167394D01*
X152123Y165618D01*
X153294Y164094D01*
X154818Y162924D01*
X156594Y162188D01*
X158500Y161937D01*
X160406Y162188D01*
X162181Y162924D01*
X163706Y164094D01*
X164876Y165618D01*
X165612Y167394D01*
X165863Y169300D01*
X165612Y171206D01*
X164876Y172981D01*
X163706Y174506D01*
X162181Y175676D01*
X160406Y176412D01*
X158500Y176663D01*
D02*
G37*
G36*
X231000Y216000D02*
X217000D01*
Y198000D01*
X219412D01*
Y185900D01*
X159273Y125761D01*
X158500Y125863D01*
X156594Y125612D01*
X154818Y124876D01*
X153294Y123706D01*
X152123Y122182D01*
X151388Y120406D01*
X151137Y118500D01*
X151388Y116594D01*
X152123Y114818D01*
X153294Y113294D01*
X154818Y112123D01*
X156594Y111388D01*
X158500Y111137D01*
X160406Y111388D01*
X162181Y112123D01*
X163706Y113294D01*
X164876Y114818D01*
X165612Y116594D01*
X165863Y118500D01*
X165761Y119273D01*
X227244Y180756D01*
X228239Y182244D01*
X228588Y184000D01*
Y198000D01*
X231000D01*
Y216000D01*
D02*
G37*
%LPD*%
D16*
X98780Y679257D02*
X136243Y716720D01*
X152001D01*
X140969Y709250D02*
X143500D01*
X104000Y672281D02*
X140969Y709250D01*
X273000Y873298D02*
Y879000D01*
X238202Y838500D02*
X273000Y873298D01*
X221700Y838500D02*
X238202D01*
X280000Y871000D02*
X285500D01*
X242500Y833500D02*
X280000Y871000D01*
X126250Y843500D02*
X131250Y848500D01*
X108300Y843500D02*
X126250D01*
X221700Y818500D02*
X311861D01*
X314631Y821270D01*
X393425D01*
X313000Y779000D02*
X818000D01*
X832000Y765000D01*
X425000Y789348D02*
Y789696D01*
X393425Y821270D02*
X425000Y789696D01*
X308610Y774390D02*
X792610D01*
X304150Y769850D02*
X779150D01*
X299690Y765310D02*
X763690D01*
X294230Y760770D02*
X739230D01*
X826000Y674000D01*
X271500Y783500D02*
X294230Y760770D01*
X763690Y765310D02*
X832000Y697000D01*
X276500Y788500D02*
X299690Y765310D01*
X779150Y769850D02*
X829333Y719667D01*
X280500Y793500D02*
X304150Y769850D01*
X792610Y774390D02*
X825000Y742000D01*
X284500Y798500D02*
X308610Y774390D01*
X288500Y803500D02*
X313000Y779000D01*
X348000Y888000D02*
X446000Y790000D01*
X832000D01*
X431921Y810500D02*
X859500D01*
X349421Y893000D02*
X431921Y810500D01*
X854667Y765333D02*
X894000D01*
X825000Y742000D02*
X831000D01*
X829333Y719667D02*
X831000D01*
X832000Y697000D02*
X832167Y696833D01*
X221700Y783500D02*
X271500D01*
X221700Y803500D02*
X288500D01*
X221700Y793500D02*
X280500D01*
X221700Y788500D02*
X276500D01*
X221700Y798500D02*
X284500D01*
X202500Y759300D02*
Y779500D01*
X199951Y748680D02*
X212680D01*
X213000Y749000D01*
X221700Y778500D02*
X261022D01*
X264522Y775000D01*
X266000D01*
X181000Y726000D02*
Y727477D01*
X184270Y730748D02*
Y739011D01*
X181000Y727477D02*
X184270Y730748D01*
X163000Y700000D02*
Y706143D01*
X167500Y710643D01*
Y759300D01*
X145000Y691000D02*
X168000Y668000D01*
X175220Y598180D02*
X176000Y597400D01*
X175220Y598180D02*
Y605068D01*
X174820Y605468D02*
X175220Y605068D01*
X174820Y605468D02*
Y606304D01*
X168000Y613124D02*
Y668000D01*
Y613124D02*
X174820Y606304D01*
X76370Y853630D02*
X108170D01*
X65550Y864450D02*
X76370Y853630D01*
X108170D02*
X108300Y853500D01*
X43370Y848630D02*
X108170D01*
X108300Y848500D01*
X41000Y851000D02*
X43370Y848630D01*
X65550Y864450D02*
X65550D01*
X50000Y880000D02*
X65550Y864450D01*
X70000Y880000D02*
X79270Y889270D01*
X120730D01*
X127500Y882500D01*
Y872700D02*
Y882500D01*
X197029Y737190D02*
X247190D01*
X187500Y746720D02*
X197029Y737190D01*
X187500Y746720D02*
Y759300D01*
X192500Y748140D02*
Y759300D01*
Y748140D02*
X198910Y741730D01*
X223191D01*
X226731Y745270D01*
X251011D01*
X248051Y727770D02*
X255270Y734989D01*
X235970Y727770D02*
X248051D01*
X225200Y717000D02*
X235970Y727770D01*
X300439Y840860D02*
X376000D01*
X288079Y828500D02*
X300439Y840860D01*
X221700Y828500D02*
X288079D01*
X294500Y808500D02*
X312000Y791000D01*
X335630Y813370D02*
X336000Y813000D01*
X221830Y813370D02*
X335630D01*
X221700Y813500D02*
X221830Y813370D01*
X312000Y791000D02*
X412000D01*
X197630Y751001D02*
X199951Y748680D01*
X197630Y751001D02*
Y759170D01*
X197500Y759300D02*
X197630Y759170D01*
X152001Y716720D02*
X162500Y727219D01*
Y759300D01*
X296000Y942000D02*
X301000Y937000D01*
X286000Y942000D02*
X296000D01*
X279000Y936000D02*
X301000Y914000D01*
X273000Y936000D02*
X279000D01*
X301000Y912000D02*
Y914000D01*
X172500Y741977D02*
Y759300D01*
Y741977D02*
X177000Y737477D01*
X177500Y745781D02*
X184270Y739011D01*
X177500Y745781D02*
Y759300D01*
X177000Y736000D02*
Y737477D01*
X247190Y737190D02*
X248000Y738000D01*
X251011Y745270D02*
X255270Y741011D01*
X148990Y723990D02*
Y725467D01*
X157500Y733978D01*
X255270Y734989D02*
Y741011D01*
X203210Y893000D02*
X349421D01*
X204631Y888000D02*
X348000D01*
X197630Y880999D02*
X204631Y888000D01*
X297975Y831975D02*
X343000D01*
X289500Y823500D02*
X297975Y831975D01*
X221700Y808500D02*
X294500D01*
X97000Y763000D02*
Y782541D01*
X97829Y783370D01*
X108170D01*
X42000Y570000D02*
Y828000D01*
X52500Y838500D01*
X108300D01*
X50000Y825000D02*
X58620Y833620D01*
X82923D01*
X65000Y808281D02*
X73989Y817270D01*
X53730Y818010D02*
X64800Y829080D01*
X72500Y791907D02*
Y793500D01*
X82500Y803500D02*
X108300D01*
X72500Y793500D02*
X82500Y803500D01*
X53730Y714730D02*
Y818010D01*
X68190Y821810D02*
X81892D01*
X77000Y810000D02*
X78500Y808500D01*
X73989Y817270D02*
X80011D01*
X65000Y807711D02*
Y808281D01*
X78500Y808500D02*
X108300D01*
X64800Y829080D02*
X81042D01*
X80011Y817270D02*
X83781Y813500D01*
X132370Y872830D02*
Y884630D01*
X110000Y902000D02*
X110483Y901518D01*
X115483D02*
X132370Y884630D01*
X110483Y901518D02*
X115483D01*
X108000Y915000D02*
X116000D01*
X137500Y872700D02*
Y893500D01*
X116000Y915000D02*
X137500Y893500D01*
X132370Y872830D02*
X132500Y872700D01*
X133000Y691000D02*
X163000Y661000D01*
X122000Y679000D02*
X150000Y651000D01*
X122000Y679000D02*
Y680000D01*
X117500Y597400D02*
Y639500D01*
Y597400D02*
X117500Y597400D01*
X112000Y645000D02*
X117500Y639500D01*
X104000Y501000D02*
Y672281D01*
X98780Y494780D02*
Y679257D01*
X94240Y496660D02*
Y681137D01*
X89700Y498541D02*
Y683018D01*
X85160Y500421D02*
Y684898D01*
X80620Y502302D02*
Y686779D01*
X76080Y505080D02*
Y688660D01*
X71540Y507540D02*
Y690540D01*
X67000Y509421D02*
Y758961D01*
X46430Y488851D02*
X67000Y509421D01*
X52530Y488530D02*
X71540Y507540D01*
X64750Y493750D02*
X76080Y505080D01*
X71250Y492932D02*
X80620Y502302D01*
X77750Y493012D02*
X85160Y500421D01*
X84250Y493091D02*
X89700Y498541D01*
X90750Y493171D02*
X94240Y496660D01*
X97250Y493250D02*
X98780Y494780D01*
X97250Y477700D02*
Y493250D01*
X104000Y501000D02*
X110250Y494750D01*
X111270Y656730D02*
X130500Y637500D01*
X111270Y656730D02*
Y668000D01*
X130500Y597400D02*
Y637500D01*
X62270Y709270D02*
Y761989D01*
X53000Y700000D02*
X62270Y709270D01*
X53297Y714297D02*
X53730Y714730D01*
X62270Y761989D02*
X93781Y793500D01*
X94240Y681137D02*
X152500Y739397D01*
X89700Y683018D02*
X147500Y740818D01*
X85160Y684898D02*
X142500Y742238D01*
X80620Y686779D02*
X137500Y743659D01*
X76080Y688660D02*
X132500Y745079D01*
X71540Y690540D02*
X127370Y746370D01*
X67000Y758961D02*
X96538Y788500D01*
X122000Y656000D02*
X137000Y641000D01*
Y597400D02*
Y641000D01*
X122000Y656000D02*
Y657000D01*
X122000Y667999D02*
X143500Y646498D01*
X122000Y667999D02*
Y667999D01*
X143500Y597400D02*
Y646498D01*
X89978Y798500D02*
X108300D01*
X85478Y794000D02*
X89978Y798500D01*
X84000Y794000D02*
X85478D01*
X93781Y793500D02*
X108300D01*
X163000Y597400D02*
Y661000D01*
X156500Y597400D02*
Y656498D01*
X133000Y679999D02*
X156500Y656498D01*
X150000Y597400D02*
Y651000D01*
X81042Y829080D02*
X86502Y823620D01*
X82923Y833620D02*
X88173Y828370D01*
X85202Y818500D02*
X108300D01*
X81892Y821810D02*
X85202Y818500D01*
X83781Y813500D02*
X108300D01*
X86502Y823620D02*
X108180D01*
X108300Y823500D01*
X88173Y828370D02*
X108170D01*
X108300Y828500D01*
X127370Y746370D02*
Y759170D01*
X132500Y745079D02*
Y759300D01*
X152500Y739397D02*
Y759300D01*
X142500Y742238D02*
Y759300D01*
X127370Y759170D02*
X127500Y759300D01*
X137500Y743659D02*
Y759300D01*
X147500Y740818D02*
Y759300D01*
X96538Y788500D02*
X108300D01*
X48000Y465000D02*
X56480D01*
X46430Y466570D02*
Y488851D01*
Y466570D02*
X48000Y465000D01*
X57968Y466488D02*
Y477418D01*
X56480Y465000D02*
X57968Y466488D01*
X64750Y477700D02*
Y493750D01*
X52530Y478480D02*
Y488530D01*
X51750Y477700D02*
X52530Y478480D01*
X71250Y477700D02*
Y492932D01*
X84250Y477700D02*
Y493091D01*
X90750Y477700D02*
Y493171D01*
X77750Y477700D02*
Y493012D01*
X108170Y783370D02*
X108300Y783500D01*
X122658Y776000D02*
X124000D01*
X57968Y477418D02*
X58250Y477700D01*
X157500Y733978D02*
Y759300D01*
X110250Y477700D02*
Y494750D01*
X172500Y872700D02*
Y899023D01*
X170000Y901523D02*
X172500Y899023D01*
X170000Y901523D02*
Y903000D01*
X221700Y833500D02*
X242500D01*
X246000Y862999D02*
Y866998D01*
X231370Y848370D02*
X246000Y862999D01*
X221830Y848370D02*
X231370D01*
X221700Y823500D02*
X289500D01*
X257000Y863719D02*
Y878000D01*
X236781Y843500D02*
X257000Y863719D01*
X221700Y843500D02*
X236781D01*
X221700Y848500D02*
X221830Y848370D01*
X894000Y811000D02*
X894000Y811000D01*
X192500Y872700D02*
X192630Y872830D01*
Y882420D01*
X203210Y893000D01*
X197500Y872700D02*
X197630Y872830D01*
Y880999D01*
X147500Y872700D02*
Y919500D01*
X133000Y934000D02*
X147500Y919500D01*
X117000Y925000D02*
X142500Y899500D01*
Y872700D02*
Y899500D01*
X340500Y1048000D02*
X368000D01*
X287730D02*
X309500D01*
X284000Y1051730D02*
X287730Y1048000D01*
X284000Y1051730D02*
Y1053000D01*
Y1076000D02*
X292810D01*
X303270Y1065540D01*
Y1065230D02*
Y1065540D01*
Y1065230D02*
X306500Y1062000D01*
X309500D01*
X368000Y1068000D02*
Y1076000D01*
X229159Y1095000D02*
X349000D01*
X368000Y1076000D01*
X152500Y1018341D02*
X229159Y1095000D01*
X152500Y872700D02*
Y1018341D01*
X262000Y1078000D02*
X264000Y1076000D01*
X218580Y1078000D02*
X262000D01*
X157500Y872700D02*
Y1016920D01*
X218580Y1078000D01*
X200000Y1053000D02*
X264000D01*
X162500Y872700D02*
Y1015500D01*
X200000Y1053000D01*
X210000Y1018000D02*
X248000D01*
X248000Y1018000D01*
X200000Y1018000D02*
X210000D01*
X177500Y995500D02*
X200000Y1018000D01*
X177500Y872700D02*
Y995500D01*
X210000Y922000D02*
X248000D01*
X209000Y923000D02*
X210000Y922000D01*
X197000Y923000D02*
X209000D01*
X182500Y872700D02*
Y908500D01*
X197000Y923000D01*
X176000Y858000D02*
X185671D01*
X187671Y856000D01*
X196000D01*
X202500Y862500D02*
Y872700D01*
X196000Y856000D02*
X202500Y862500D01*
X202842Y853500D02*
X221700D01*
X201342Y852000D02*
X202842Y853500D01*
X200000Y852000D02*
X201342D01*
X108300Y778500D02*
X120158D01*
X122658Y776000D01*
D17*
X163000Y700000D02*
D03*
X41000Y851000D02*
D03*
D18*
X176000Y597400D02*
D03*
X169500D02*
D03*
X163000D02*
D03*
X156500D02*
D03*
X150000D02*
D03*
X143500D02*
D03*
X137000D02*
D03*
X130500D02*
D03*
X124000D02*
D03*
X117500D02*
D03*
Y540000D02*
D03*
X124000D02*
D03*
X130500D02*
D03*
X137000D02*
D03*
X143500D02*
D03*
X150000D02*
D03*
X156500D02*
D03*
X163000D02*
D03*
X169500D02*
D03*
X176000D02*
D03*
X110250Y477700D02*
D03*
X103750D02*
D03*
X97250D02*
D03*
X90750D02*
D03*
X84250D02*
D03*
X77750D02*
D03*
X71250D02*
D03*
X64750D02*
D03*
X58250D02*
D03*
X51750D02*
D03*
Y420300D02*
D03*
X58250D02*
D03*
X64750D02*
D03*
X71250D02*
D03*
X77750D02*
D03*
X84250D02*
D03*
X90750D02*
D03*
X97250D02*
D03*
X103750D02*
D03*
X110250D02*
D03*
D19*
X132569Y977486D02*
D03*
X113569D02*
D03*
X123069Y954986D02*
D03*
X667000Y954250D02*
D03*
X676500Y931750D02*
D03*
X657500D02*
D03*
D20*
X202500Y759300D02*
D03*
X197500D02*
D03*
X192500D02*
D03*
X187500D02*
D03*
X182500D02*
D03*
X177500D02*
D03*
X172500D02*
D03*
X167500D02*
D03*
X162500D02*
D03*
X157500D02*
D03*
X152500D02*
D03*
X147500D02*
D03*
X142500D02*
D03*
X137500D02*
D03*
X132500D02*
D03*
X127500D02*
D03*
Y872700D02*
D03*
X132500D02*
D03*
X137500D02*
D03*
X142500D02*
D03*
X147500D02*
D03*
X152500D02*
D03*
X157500D02*
D03*
X162500D02*
D03*
X167500D02*
D03*
X172500D02*
D03*
X177500D02*
D03*
X182500D02*
D03*
X187500D02*
D03*
X192500D02*
D03*
X197500D02*
D03*
X202500D02*
D03*
D21*
X221700Y853500D02*
D03*
Y848500D02*
D03*
Y843500D02*
D03*
Y838500D02*
D03*
Y833500D02*
D03*
Y828500D02*
D03*
Y823500D02*
D03*
Y818500D02*
D03*
Y813500D02*
D03*
Y808500D02*
D03*
Y803500D02*
D03*
Y798500D02*
D03*
Y793500D02*
D03*
Y788500D02*
D03*
Y783500D02*
D03*
Y778500D02*
D03*
X108300D02*
D03*
Y783500D02*
D03*
Y788500D02*
D03*
Y793500D02*
D03*
Y798500D02*
D03*
Y803500D02*
D03*
Y808500D02*
D03*
Y813500D02*
D03*
Y818500D02*
D03*
Y823500D02*
D03*
Y828500D02*
D03*
Y833500D02*
D03*
Y838500D02*
D03*
Y843500D02*
D03*
Y848500D02*
D03*
Y853500D02*
D03*
D22*
X321000Y912000D02*
D03*
X301000D02*
D03*
X476000Y1103000D02*
D03*
X496000D02*
D03*
X134000Y999000D02*
D03*
X114000D02*
D03*
X134000Y1022000D02*
D03*
X114000D02*
D03*
X269000Y655000D02*
D03*
X249000D02*
D03*
Y633000D02*
D03*
X269000D02*
D03*
Y611000D02*
D03*
X249000D02*
D03*
Y589000D02*
D03*
X269000D02*
D03*
X416000Y624000D02*
D03*
X396000D02*
D03*
X441000Y663000D02*
D03*
X461000D02*
D03*
Y640000D02*
D03*
X441000D02*
D03*
Y618000D02*
D03*
X461000D02*
D03*
Y596000D02*
D03*
X441000D02*
D03*
X264000Y1053000D02*
D03*
X284000D02*
D03*
X264000Y1076000D02*
D03*
X284000D02*
D03*
X226000Y623000D02*
D03*
X206000D02*
D03*
X477000Y980000D02*
D03*
X497000D02*
D03*
X490000Y838000D02*
D03*
X510000D02*
D03*
X321000Y937000D02*
D03*
X301000D02*
D03*
X350000Y307000D02*
D03*
X370000D02*
D03*
X914000Y811000D02*
D03*
X894000D02*
D03*
X914000Y788167D02*
D03*
X894000D02*
D03*
X914000Y765333D02*
D03*
X894000D02*
D03*
X914000Y742500D02*
D03*
X894000D02*
D03*
X914000Y719667D02*
D03*
X894000D02*
D03*
X914000Y696833D02*
D03*
X894000D02*
D03*
X914000Y674000D02*
D03*
X894000D02*
D03*
X224000Y207000D02*
D03*
X244000D02*
D03*
D23*
X264000Y922000D02*
D03*
X248000D02*
D03*
X264000Y1018000D02*
D03*
X248000D02*
D03*
X117000Y935000D02*
D03*
X133000D02*
D03*
X499000Y879000D02*
D03*
X515000D02*
D03*
D24*
X93000Y977000D02*
D03*
Y957000D02*
D03*
X368000Y1068000D02*
D03*
Y1048000D02*
D03*
X208000Y570000D02*
D03*
Y550000D02*
D03*
X51000Y132000D02*
D03*
Y112000D02*
D03*
X446000Y561000D02*
D03*
Y541000D02*
D03*
D25*
X210000Y922000D02*
D03*
Y1018000D02*
D03*
D26*
X356000Y652000D02*
D03*
Y620000D02*
D03*
D27*
X416500Y671550D02*
D03*
X407000D02*
D03*
X397500D02*
D03*
Y646450D02*
D03*
X416500D02*
D03*
X225500Y666000D02*
D03*
X216000D02*
D03*
X206500D02*
D03*
Y640900D02*
D03*
X225500D02*
D03*
D28*
X454000Y880000D02*
D03*
Y864000D02*
D03*
D29*
X448500Y955050D02*
D03*
Y942350D02*
D03*
Y929650D02*
D03*
Y916950D02*
D03*
X495500Y955050D02*
D03*
Y942350D02*
D03*
Y929650D02*
D03*
Y916950D02*
D03*
D30*
X691000Y498000D02*
D03*
X674000D02*
D03*
X657000D02*
D03*
X640000D02*
D03*
X623000D02*
D03*
D31*
X657000Y403500D02*
D03*
D32*
X763000Y596000D02*
D03*
X663000D02*
D03*
D33*
X592000Y561315D02*
D03*
Y632685D02*
D03*
D34*
X357550Y366500D02*
D03*
Y376000D02*
D03*
Y385500D02*
D03*
X332450Y366500D02*
D03*
Y376000D02*
D03*
Y385500D02*
D03*
X357550Y406500D02*
D03*
Y416000D02*
D03*
Y425500D02*
D03*
X332450Y406500D02*
D03*
Y416000D02*
D03*
Y425500D02*
D03*
X357550Y445500D02*
D03*
Y455000D02*
D03*
Y464500D02*
D03*
X332450Y445500D02*
D03*
Y455000D02*
D03*
Y464500D02*
D03*
X357550Y487500D02*
D03*
Y497000D02*
D03*
Y506500D02*
D03*
X332450Y487500D02*
D03*
Y497000D02*
D03*
Y506500D02*
D03*
X357550Y525000D02*
D03*
Y534500D02*
D03*
Y544000D02*
D03*
X332450Y525000D02*
D03*
Y534500D02*
D03*
Y544000D02*
D03*
X357550Y567500D02*
D03*
Y577000D02*
D03*
Y586500D02*
D03*
X332450Y567500D02*
D03*
Y577000D02*
D03*
Y586500D02*
D03*
D35*
X340500Y1062000D02*
D03*
Y1048000D02*
D03*
X309500D02*
D03*
Y1062000D02*
D03*
D36*
X873000Y223000D02*
X953729D01*
X980729Y196000D01*
X804000Y225000D02*
Y267000D01*
X960000D01*
X505000D02*
X804000D01*
X1010000Y396000D02*
X1027000Y379000D01*
X981000Y396000D02*
X1010000D01*
X1027000Y104000D02*
Y379000D01*
X952000Y29000D02*
X1027000Y104000D01*
X563000Y29000D02*
X952000D01*
X317916D02*
X563000D01*
X564400Y30400D02*
Y75000D01*
X563000Y29000D02*
X564400Y30400D01*
X306200Y40716D02*
Y75000D01*
Y40716D02*
X317916Y29000D01*
X479000Y296000D02*
X643000D01*
X369700Y157700D02*
X406000Y194000D01*
Y223000D01*
X369700Y125800D02*
Y157700D01*
X406000Y223000D02*
X479000Y296000D01*
X643000D02*
X981000D01*
X643000D02*
Y331000D01*
X980729Y196000D02*
X981000D01*
X645000Y175000D02*
X960000D01*
X627900Y157900D02*
X645000Y175000D01*
X960000D02*
X981000Y196000D01*
X437553Y199553D02*
X505000Y267000D01*
X960000D02*
X981000Y246000D01*
X627900Y125800D02*
Y157900D01*
X640600Y75000D02*
X667000D01*
X738000Y146000D02*
X981000D01*
X667000Y75000D02*
X738000Y146000D01*
X437553Y129203D02*
Y199553D01*
X383350Y75000D02*
X437553Y129203D01*
X382400Y75000D02*
X383350D01*
D86*
X470750Y847500D02*
X482500D01*
X469250Y846000D02*
X470750Y847500D01*
X482500D02*
X490000Y840000D01*
X428250Y910978D02*
X434272Y917000D01*
X428250Y905250D02*
Y910978D01*
X429751Y882999D02*
X448999D01*
X429750Y883000D02*
X429751Y882999D01*
X448500Y955050D02*
X464950D01*
X476000Y915000D02*
Y944000D01*
X464950Y955050D02*
X476000Y944000D01*
Y915000D02*
X483000Y908000D01*
X522000Y916929D02*
Y917000D01*
X513071Y908000D02*
X522000Y916929D01*
X483000Y908000D02*
X513071D01*
X467511Y901511D02*
Y937489D01*
X448999Y882999D02*
X467511Y901511D01*
X434000Y950350D02*
X442000Y942350D01*
X444929Y980000D02*
X454000D01*
X434000Y969071D02*
X444929Y980000D01*
X434000Y950350D02*
Y969071D01*
X454000Y980000D02*
X477000D01*
X434272Y917000D02*
X448450D01*
X436506Y929650D02*
X448500D01*
X430450Y935707D02*
X436506Y929650D01*
X495500Y942350D02*
X540477D01*
X590000Y929000D02*
Y944000D01*
X585071Y948929D02*
X590000Y944000D01*
X540477Y942350D02*
X547056Y948929D01*
X585071D01*
X573000Y912000D02*
X590000Y929000D01*
X497000Y955512D02*
Y980000D01*
X495500Y929650D02*
X564944D01*
X570294Y935000D02*
X573000D01*
X564944Y929650D02*
X570294Y935000D01*
X462650Y942350D02*
X467511Y937489D01*
X442000Y942350D02*
X462650D01*
X448450Y917000D02*
X448500Y916950D01*
X495500Y955050D02*
X496538D01*
X497000Y955512D01*
X854667Y765167D02*
X893833D01*
X832167D02*
X854667D01*
X832500Y810500D02*
X859500D01*
X543000Y1002650D02*
X563550Y982100D01*
X543000Y1002650D02*
Y1025000D01*
X539000Y433000D02*
X551000Y421000D01*
X545000Y386059D02*
X551000Y392059D01*
Y421000D01*
X522979Y433000D02*
X539000D01*
X388479Y567500D02*
X522979Y433000D01*
X429500Y487500D02*
X525000Y392000D01*
Y347000D02*
Y392000D01*
X357550Y487500D02*
X429500D01*
X357550Y445500D02*
X443500D01*
X494000Y395000D01*
Y343000D02*
Y395000D01*
X347000Y476000D02*
X427000D01*
X503000Y400000D01*
Y336000D02*
Y400000D01*
X353486Y434250D02*
X439750D01*
X483000Y345000D02*
Y391000D01*
X439750Y434250D02*
X483000Y391000D01*
X397297Y259297D02*
X483000Y345000D01*
X403000Y276000D02*
X473000Y346000D01*
X447900Y406100D02*
X473000Y381000D01*
Y346000D02*
Y381000D01*
X347000Y416000D02*
Y440736D01*
X516000Y323000D02*
X546000D01*
X503000Y336000D02*
X516000Y323000D01*
X347000Y380736D02*
Y416000D01*
X387870Y236870D02*
X494000Y343000D01*
X326000Y988000D02*
Y1059071D01*
X328929Y1062000D02*
X340500D01*
X326000Y1059071D02*
X328929Y1062000D01*
X914000Y897000D02*
X981000Y964000D01*
X914000Y811000D02*
Y897000D01*
X927000Y789000D02*
X940219Y802219D01*
X914000Y788167D02*
X914833Y789000D01*
X927000D01*
X940219Y802219D02*
Y873219D01*
X926333Y765333D02*
X955000Y794000D01*
Y838000D02*
X981000Y864000D01*
X955000Y794000D02*
Y838000D01*
X914000Y765333D02*
X926333D01*
X931500Y742500D02*
X977939Y788939D01*
Y810938D02*
X981000Y814000D01*
X977939Y788939D02*
Y810938D01*
X914000Y742500D02*
X931500D01*
X940219Y873219D02*
X981000Y914000D01*
X914000Y719667D02*
X936667D01*
X981000Y764000D01*
X963833Y696833D02*
X981000Y714000D01*
X914000Y696833D02*
X963833D01*
X914000Y674000D02*
X966670D01*
X976670Y664000D01*
X981000D01*
X859500Y810500D02*
X893500D01*
X894000Y811000D01*
X832000Y810000D02*
X832500Y810500D01*
X832000Y790000D02*
X832917Y789083D01*
X893083D02*
X894000Y788167D01*
X832917Y789083D02*
X893083D01*
X893833Y765167D02*
X894000Y765333D01*
X832000Y765000D02*
X832167Y765167D01*
X893750Y742250D02*
X894000Y742500D01*
X831250Y742250D02*
X893750D01*
X831000Y742000D02*
X831250Y742250D01*
X831000Y719667D02*
X894000D01*
X832167Y696833D02*
X894000D01*
X826000Y674000D02*
X894000D01*
X545000Y382000D02*
Y386059D01*
X357550Y567500D02*
X388479D01*
X408000Y525000D02*
X516500Y416500D01*
X531500D01*
X534000Y414000D01*
X381703Y259297D02*
X397297D01*
X375870Y236870D02*
X387870D01*
X357550Y525000D02*
X408000D01*
X486000Y752000D02*
X551014D01*
X201000Y781000D02*
Y799000D01*
Y781000D02*
X202500Y779500D01*
X230000Y752000D01*
X486000D01*
X338000Y701000D02*
X435000D01*
X184929D02*
X338000D01*
X301400Y717000D02*
X322000D01*
X338000Y701000D01*
X182000Y669000D02*
Y698071D01*
X435000Y701000D02*
X486000Y752000D01*
X551014D02*
X575000Y728014D01*
Y728000D02*
Y728014D01*
X193429Y693000D02*
X407879D01*
X190500Y689521D02*
Y690071D01*
X398414Y686000D02*
X406550Y677864D01*
X225808Y686000D02*
X398414D01*
X407879Y693000D02*
X419879Y681000D01*
X190500Y690071D02*
X193429Y693000D01*
X182000Y698071D02*
X184929Y701000D01*
X182000Y669000D02*
X199000Y686000D01*
X225808D01*
X216450Y676642D02*
X225808Y686000D01*
X206250Y640650D02*
X206500Y640900D01*
X206250Y623250D02*
Y640650D01*
X216450Y666450D02*
Y676642D01*
X206500Y666000D02*
Y667550D01*
X216000Y666000D02*
X216450Y666450D01*
X206050Y668000D02*
X206500Y667550D01*
X194929Y668000D02*
X206050D01*
X192000Y665071D02*
X194929Y668000D01*
X192000Y614000D02*
Y665071D01*
Y614000D02*
X208000Y598000D01*
Y570000D02*
Y598000D01*
X206000Y623000D02*
X206250Y623250D01*
X21000Y89000D02*
X61071Y48929D01*
X21000Y89000D02*
Y425000D01*
X35000Y439000D01*
X61071Y48929D02*
X174000D01*
X66100Y57900D02*
X100900D01*
X136100Y93100D01*
X51000Y73000D02*
X66100Y57900D01*
X51750Y437750D02*
X52000Y438000D01*
X160000Y579000D02*
X182000D01*
X186000Y583000D02*
Y610101D01*
X182000Y579000D02*
X186000Y583000D01*
X182000Y614100D02*
Y669000D01*
Y614100D02*
X186000Y610101D01*
X234000Y589000D02*
X249000D01*
X206000Y623000D02*
X208500Y620500D01*
Y614500D02*
Y620500D01*
Y614500D02*
X234000Y589000D01*
X19000Y452929D02*
X21929Y450000D01*
X19000Y452929D02*
Y985000D01*
X21929Y450000D02*
X102000D01*
X19000Y985000D02*
X57000Y1023000D01*
X406550Y672000D02*
X407000Y671550D01*
X406550Y672000D02*
Y677864D01*
X337500Y935500D02*
X339000Y934000D01*
X322500Y935500D02*
X337500D01*
X113000Y1023000D02*
X114000Y1022000D01*
X57000Y1023000D02*
X113000D01*
X347000Y476000D02*
Y497000D01*
Y455000D02*
Y476000D01*
X419879Y681000D02*
X457571D01*
X416950Y672000D02*
Y678071D01*
X419879Y681000D01*
X416500Y671550D02*
X416950Y672000D01*
X460500Y663500D02*
Y678071D01*
X457571Y681000D02*
X460500Y678071D01*
Y663500D02*
X461000Y663000D01*
X347000Y450264D02*
Y455000D01*
X347000Y440736D02*
X353486Y434250D01*
X347000Y378000D02*
Y380736D01*
X347000Y380736D02*
X347000Y380736D01*
X347929Y350000D02*
X379000D01*
X345000Y352929D02*
X347929Y350000D01*
X345000Y352929D02*
Y376000D01*
X347000Y378000D01*
X379000Y350000D02*
X401000Y372000D01*
X449000D02*
X454000Y367000D01*
X401000Y372000D02*
X449000D01*
X397000Y293000D02*
X454000Y350000D01*
Y367000D01*
X446000Y390000D02*
X463000Y373000D01*
X401000Y286000D02*
X463000Y348000D01*
Y373000D01*
X347000Y455000D02*
X357550D01*
X326088Y293000D02*
X397000D01*
X253500Y220412D02*
X326088Y293000D01*
X253500Y188100D02*
Y220412D01*
X158500Y93100D02*
X253500Y188100D01*
X375000Y604000D02*
X418000Y561000D01*
X375000Y604000D02*
Y671071D01*
X377929Y674000D01*
X397050D01*
X208000Y550000D02*
X231000D01*
X241000Y540000D01*
X441000Y640000D02*
Y663000D01*
X461000Y618000D02*
Y640000D01*
X441000Y596000D02*
Y618000D01*
X394000Y622000D02*
X396000Y624000D01*
X394000Y607000D02*
Y622000D01*
X422000Y579000D02*
X455000D01*
X394000Y607000D02*
X422000Y579000D01*
X458500Y593500D02*
X461000Y596000D01*
X458500Y582500D02*
Y593500D01*
X455000Y579000D02*
X458500Y582500D01*
X397050Y646000D02*
X397500Y646450D01*
X397050Y625050D02*
Y646000D01*
X396000Y624000D02*
X397050Y625050D01*
X397500Y671550D02*
Y673550D01*
X397050Y674000D02*
X397500Y673550D01*
X418000Y561000D02*
X446000D01*
X445500Y540500D02*
X446000Y541000D01*
X445500Y523500D02*
Y540500D01*
X445000Y523000D02*
X445500Y523500D01*
X337000Y913000D02*
X339000Y915000D01*
X322000Y913000D02*
X337000D01*
X321000Y912000D02*
X322000Y913000D01*
X321000Y937000D02*
X322500Y935500D01*
X505129Y893129D02*
X523129D01*
X545000Y915000D02*
X546000D01*
X523129Y893129D02*
X545000Y915000D01*
X499803Y887803D02*
X505129Y893129D01*
X499000Y879000D02*
X499803Y879803D01*
Y887803D01*
X439703Y880000D02*
X454000D01*
X454500Y879500D01*
X484000Y1001000D02*
X511071D01*
X530500Y1095547D02*
Y1101500D01*
X518681Y1083728D02*
X530500Y1095547D01*
X518681Y1008610D02*
Y1083728D01*
X511071Y1001000D02*
X518681Y1008610D01*
X477000Y994000D02*
X484000Y1001000D01*
X477000Y980000D02*
Y994000D01*
X627050Y1007500D02*
X646050Y1026500D01*
X490000Y838000D02*
Y840000D01*
X510000Y838000D02*
Y850029D01*
X499000Y861029D02*
X510000Y850029D01*
X499000Y861029D02*
Y879000D01*
X515000D02*
X515500Y878500D01*
Y861500D02*
Y878500D01*
Y861500D02*
X516000Y861000D01*
X498500Y879500D02*
X499000Y879000D01*
X454500Y879500D02*
X498500D01*
X453000Y864000D02*
X454000D01*
X442913Y853913D02*
X453000Y864000D01*
X442913Y845913D02*
Y853913D01*
X441000Y844000D02*
X442913Y845913D01*
X884750Y1101750D02*
X885000Y1102000D01*
X686500Y1007500D02*
X709000Y985000D01*
X676500Y931750D02*
X706071D01*
X709000Y934679D01*
Y985000D01*
X652450Y1007500D02*
X686500D01*
X568000Y1039000D02*
X576250Y1030750D01*
Y1007500D02*
Y1030750D01*
X639750Y982100D02*
X657194D01*
X664294Y975000D01*
X667000D01*
X639750Y951000D02*
Y982100D01*
Y951000D02*
X657500Y933250D01*
Y931750D02*
Y933250D01*
X347000Y577000D02*
Y593657D01*
Y534000D02*
Y577000D01*
X490050Y110950D02*
Y206050D01*
X522000Y238000D01*
X584000D01*
X527900Y227000D02*
X569000D01*
X513000Y107350D02*
Y212101D01*
X527900Y227000D01*
X584000Y238000D02*
X612000Y210000D01*
X569000Y227000D02*
X586000Y210000D01*
X338000Y186000D02*
Y241000D01*
X321247Y257753D02*
X338000Y241000D01*
X194000Y179400D02*
Y226667D01*
X158500Y143900D02*
X194000Y179400D01*
X370000Y276000D02*
X403000D01*
X351000Y182000D02*
Y257000D01*
X370000Y276000D01*
X318900Y149900D02*
X351000Y182000D01*
X136100Y93100D02*
X158500D01*
X51000Y73000D02*
Y112000D01*
X224000Y184000D02*
Y207000D01*
X158500Y118500D02*
X224000Y184000D01*
X274333Y307000D02*
X350000D01*
X194000Y226667D02*
X274333Y307000D01*
X244000Y207000D02*
Y256324D01*
X240000Y260324D02*
X244000Y256324D01*
X240000Y260324D02*
Y261000D01*
X370000Y307000D02*
X397000D01*
X445000Y355000D01*
X379500Y366500D02*
X403000Y390000D01*
X357950Y406100D02*
X447900D01*
X403000Y390000D02*
X446000D01*
X357550Y385500D02*
X369916D01*
X373416Y389000D01*
X374000D01*
X357550Y366500D02*
X379500D01*
X328988Y286000D02*
X401000D01*
X306747Y263759D02*
X328988Y286000D01*
X373000Y234000D02*
X375870Y236870D01*
X306747Y242747D02*
X324500Y224994D01*
X306747Y242747D02*
Y263759D01*
X373000Y188000D02*
Y234000D01*
X318900Y119450D02*
Y149900D01*
X357550Y544000D02*
X374000D01*
X357550Y506500D02*
X357800Y506250D01*
X373750D01*
X374000Y506000D01*
X357550Y464500D02*
X357800Y464250D01*
X373750D01*
X374000Y464000D01*
X357550Y425500D02*
X357800Y425750D01*
X373750D01*
X374000Y426000D01*
X347000Y497000D02*
Y534000D01*
X293618Y141618D02*
X338000Y186000D01*
X293500Y125800D02*
X293618Y125918D01*
Y141618D01*
X344300Y125800D02*
Y159300D01*
X373000Y188000D01*
X357550Y406500D02*
X357950Y406100D01*
X268100Y106900D02*
Y132150D01*
X324500Y188550D02*
Y224994D01*
X268100Y132150D02*
X324500Y188550D01*
X562000Y205941D02*
Y210000D01*
X526300Y198300D02*
X538000Y210000D01*
X490050Y110950D02*
X512127Y88873D01*
X513000Y107350D02*
X539000Y81350D01*
X512127Y76473D02*
X513600Y75000D01*
X512127Y76473D02*
Y88873D01*
X526300Y117366D02*
X539666Y104000D01*
X526300Y117366D02*
Y198300D01*
Y117366D02*
X526300D01*
X551700Y195641D02*
X562000Y205941D01*
X612000Y210000D02*
X617000D01*
X602500Y195500D02*
X617000Y210000D01*
X602500Y125800D02*
Y195500D01*
X576000Y126900D02*
Y197000D01*
X586000Y207000D01*
Y210000D01*
X576000Y126900D02*
X577100Y125800D01*
X310000Y203000D02*
Y204000D01*
X255400Y148400D02*
X310000Y203000D01*
X255400Y75000D02*
Y148400D01*
X551700Y125800D02*
Y195641D01*
X275000Y100000D02*
X312950D01*
X331600Y81350D01*
X268100Y106900D02*
X275000Y100000D01*
X310694Y92200D02*
X320700Y82194D01*
X336094Y57800D02*
X342450Y64156D01*
X291650Y92200D02*
X310694D01*
X327106Y57800D02*
X336094D01*
X280800Y81350D02*
X291650Y92200D01*
X320700Y64206D02*
X327106Y57800D01*
X318900Y119450D02*
X342450Y95900D01*
X280800Y75000D02*
Y81350D01*
X320700Y64206D02*
Y82194D01*
X342450Y64156D02*
Y95900D01*
X331600Y75000D02*
Y81350D01*
X539666Y104000D02*
X567150D01*
X539000Y75000D02*
Y81350D01*
X589800Y75000D02*
Y81350D01*
X567150Y104000D02*
X589800Y81350D01*
D87*
X424250Y933810D02*
Y938250D01*
X412750Y922310D02*
X424250Y933810D01*
X412750Y872250D02*
X441000Y844000D01*
X412750Y872250D02*
Y922310D01*
X674000Y498000D02*
Y526321D01*
X660821Y539500D02*
X674000Y526321D01*
X617679Y539500D02*
X660821D01*
X606050Y551129D02*
X617679Y539500D01*
X592000Y632685D02*
Y664000D01*
X593000Y665000D01*
X528000Y728000D02*
X549600D01*
X527000Y727000D02*
X528000Y728000D01*
X623000Y463000D02*
Y498000D01*
X657000Y468000D02*
Y498000D01*
X655000Y466000D02*
X657000Y468000D01*
X835000Y569000D02*
Y576000D01*
Y624000D01*
X870600Y854000D02*
X888000Y871400D01*
Y921000D01*
X1008000Y591000D02*
Y993000D01*
X1002142Y998858D02*
X1008000Y993000D01*
X965858Y998858D02*
X1002142D01*
X888000Y921000D02*
X965858Y998858D01*
X981000Y564000D02*
X1008000Y591000D01*
X873000Y548000D02*
X965000D01*
X981000Y564000D01*
X567000Y364000D02*
Y436000D01*
X510000Y493000D02*
Y616000D01*
Y493000D02*
X567000Y436000D01*
X598296Y560099D02*
X606050Y552345D01*
X597080Y560099D02*
X598296D01*
X606050Y551129D02*
Y552345D01*
X597080Y560099D02*
X626050D01*
X597080D02*
Y561315D01*
X592000D02*
X597080D01*
X845000Y481000D02*
X957000D01*
X981000Y505000D01*
X819958Y576000D02*
X820291Y575667D01*
X824291D01*
X691000Y487250D02*
Y498000D01*
Y487250D02*
X691250Y487000D01*
X712251D01*
X718251Y481000D01*
X845000D01*
X602132Y708132D02*
Y726268D01*
X510000Y616000D02*
X602132Y708132D01*
X546000Y343000D02*
X567000Y364000D01*
X546000Y323000D02*
Y343000D01*
X600400Y728000D02*
X731000D01*
X835000Y624000D01*
X600400Y728000D02*
X602132Y726268D01*
X516000Y861000D02*
X534000Y843000D01*
Y828000D02*
X610499D01*
X527000Y821000D02*
X534000Y828000D01*
X464000Y821000D02*
X527000D01*
X534000Y828000D02*
Y843000D01*
X639000Y856500D02*
Y857000D01*
X610499Y828000D02*
X639000Y856500D01*
X441000Y844000D02*
X464000Y821000D01*
X424500Y944232D02*
Y982500D01*
X478000Y1036000D01*
Y1082000D01*
X415900Y1016600D02*
X433600D01*
X453000Y1036000D02*
Y1095142D01*
X433600Y1016600D02*
X453000Y1036000D01*
Y1095142D02*
X458858Y1101000D01*
X476000D01*
Y1103000D01*
X496000Y1102250D02*
X529750D01*
X496000D02*
Y1103000D01*
X529750Y1102250D02*
X530500Y1101500D01*
X787647Y1043000D02*
X799647Y1055000D01*
X801000D01*
X637150Y1043000D02*
X787647D01*
X601650Y1007500D02*
X637150Y1043000D01*
X825306Y1009244D02*
X826550Y1008000D01*
X825306Y1009244D02*
Y1019694D01*
X818000Y1027000D02*
X825306Y1019694D01*
X722000Y1027000D02*
X818000D01*
X645551D02*
X722000D01*
X627050Y1007500D02*
Y1008500D01*
X645551Y1027000D01*
X729000Y947000D02*
Y1020000D01*
X722000Y1027000D02*
X729000Y1020000D01*
X790000Y908000D02*
X813850Y931850D01*
Y982600D01*
X643000Y908000D02*
X790000D01*
X614350Y936650D02*
X643000Y908000D01*
X614350Y936650D02*
Y982100D01*
X613600Y857000D02*
X613975Y857375D01*
Y981725D01*
X614350Y982100D01*
X667000Y954250D02*
X685544D01*
X694294Y963000D01*
X697000D01*
D88*
X640250Y498750D02*
Y525000D01*
Y498750D02*
X640500Y498500D01*
X640000Y498000D02*
X640500Y498500D01*
D89*
X277418Y679500D02*
X281918Y675000D01*
X235900Y679500D02*
X277418D01*
X281918Y675000D02*
X283000D01*
X320343Y672000D02*
X356000D01*
X315343Y667000D02*
X320343Y672000D01*
X279686Y667000D02*
X315343D01*
X276217Y670469D02*
X279686Y667000D01*
X265169Y670469D02*
X276217D01*
X226450Y666950D02*
Y670050D01*
X235900Y679500D01*
X225500Y666000D02*
X226450Y666950D01*
X225500Y640900D02*
X225750Y640650D01*
Y623250D02*
Y640650D01*
Y623250D02*
X226000Y623000D01*
X237818Y667000D02*
X240318Y669500D01*
X241401D01*
X236000Y667000D02*
X237818D01*
X256000Y674000D02*
Y678000D01*
X37670Y143330D02*
X49000Y132000D01*
X34670Y143330D02*
X37670D01*
X34000Y144000D02*
X34670Y143330D01*
X51750Y420300D02*
Y437750D01*
X117500Y540000D02*
Y558500D01*
X118000Y559000D01*
X169450Y597350D02*
X169500Y597400D01*
X169450Y588450D02*
Y597350D01*
X160000Y579000D02*
X169450Y588450D01*
X96000Y463000D02*
X96765Y463765D01*
X101765D01*
X103750Y465750D02*
Y477700D01*
X101765Y463765D02*
X103750Y465750D01*
X169500Y521500D02*
Y540000D01*
Y565418D01*
X103750Y420300D02*
Y447168D01*
X356000Y672000D02*
X356235Y672235D01*
X365235D01*
X366000Y673000D01*
X79000Y964657D02*
X81343Y967000D01*
X122082D02*
X132569Y977486D01*
X79000Y942000D02*
Y964657D01*
X81343Y967000D02*
X122082D01*
X133000Y999000D02*
Y1021000D01*
Y977486D02*
Y999000D01*
X132569Y977486D02*
X133000D01*
X404550Y661500D02*
X416500Y649550D01*
X384500Y661500D02*
X404550D01*
X347000Y440736D02*
Y450264D01*
X356000Y652000D02*
Y672000D01*
X269000Y589000D02*
Y611000D01*
X249000D02*
Y633000D01*
X269000D02*
Y655000D01*
X249000D02*
Y667000D01*
X256000Y674000D01*
X225500Y640900D02*
Y644000D01*
X236000Y654500D01*
Y667000D01*
X416500Y646450D02*
Y649550D01*
X416250Y646200D02*
X416500Y646450D01*
X416250Y624250D02*
Y646200D01*
X416000Y624000D02*
X416250Y624250D01*
X117000Y925000D02*
Y934000D01*
X93000Y944624D02*
Y957000D01*
Y944624D02*
X95000Y942624D01*
Y941000D02*
Y942624D01*
X79000Y942000D02*
X90000Y931000D01*
X117000Y934000D02*
Y935000D01*
X115000Y932000D02*
X117000Y934000D01*
X113657Y932000D02*
X115000D01*
X112657Y931000D02*
X113657Y932000D01*
X90000Y931000D02*
X112657D01*
X133000Y934000D02*
Y945055D01*
X125069Y951486D02*
X126569D01*
X123069Y953486D02*
Y954986D01*
Y953486D02*
X125069Y951486D01*
X126569D02*
X133000Y945055D01*
X113784Y977702D02*
Y998784D01*
X93000Y957000D02*
X121068D01*
X93243Y977243D02*
X113325D01*
X93000Y977000D02*
X93243Y977243D01*
X113569Y977486D02*
X113784Y977702D01*
X113325Y977243D02*
X113569Y977486D01*
X113784Y998784D02*
X114000Y999000D01*
X133000Y1021000D02*
X134000Y1022000D01*
X255000Y509000D02*
X296000Y550000D01*
X169500Y521500D02*
X182000Y509000D01*
X255000D01*
X186000Y516000D02*
X250000D01*
X176000Y526000D02*
Y540000D01*
Y526000D02*
X186000Y516000D01*
X250000D02*
X290000Y556000D01*
X163000Y518000D02*
X180000Y501000D01*
X257000D02*
X302000Y546000D01*
X180000Y501000D02*
X257000D01*
X264000Y452000D02*
X318500Y506500D01*
X332450D01*
X254000Y489000D02*
X308000Y543000D01*
X179000Y489000D02*
X254000D01*
X308000Y543000D02*
Y556000D01*
X302000Y546000D02*
Y577515D01*
X296000Y550000D02*
Y580000D01*
X290000Y556000D02*
Y583000D01*
X318600Y566600D02*
X331550D01*
X308000Y556000D02*
X318600Y566600D01*
X331550D02*
X332450Y567500D01*
X254040Y479000D02*
X319040Y544000D01*
X332450D01*
X322750Y534750D02*
X332200D01*
X318000Y530000D02*
X322750Y534750D01*
X181960Y479000D02*
X254040D01*
X187000Y471000D02*
X272000D01*
X325100Y524100D01*
X331550D02*
X332450Y525000D01*
X325100Y524100D02*
X331550D01*
X296000Y580000D02*
X312000Y596000D01*
X344657D01*
X290000Y583000D02*
X311000Y604000D01*
X358985D01*
X310985Y586500D02*
X332450D01*
X302000Y577515D02*
X310985Y586500D01*
X332210Y375760D02*
X332450Y376000D01*
X320720Y375760D02*
X332210D01*
X320480Y375520D02*
X320720Y375760D01*
X310000Y376000D02*
X319500Y385500D01*
X332450D01*
X158000Y376000D02*
X310000D01*
X331950Y415500D02*
X332450Y416000D01*
X320500Y415500D02*
X331950D01*
X320000Y415000D02*
X320500Y415500D01*
X318000Y425000D02*
X331950D01*
X291000Y398000D02*
X318000Y425000D01*
X162000Y398000D02*
X291000D01*
X331950Y454500D02*
X332450Y455000D01*
X320500Y454500D02*
X331950D01*
X320000Y454000D02*
X320500Y454500D01*
X332440Y497010D02*
X332450Y497000D01*
X319990Y497010D02*
X332440D01*
X319980Y497020D02*
X319990Y497010D01*
X344657Y596000D02*
X347000Y593657D01*
X130500Y403500D02*
X158000Y376000D01*
X130500Y403500D02*
Y540000D01*
X137000Y423000D02*
X162000Y398000D01*
X137000Y423000D02*
Y540000D01*
X143500Y447500D02*
Y540000D01*
Y447500D02*
X165000Y426000D01*
X150000Y487000D02*
Y540000D01*
Y487000D02*
X185000Y452000D01*
X156500Y494540D02*
X172040Y479000D01*
X156500Y494540D02*
Y540000D01*
X163000Y518000D02*
Y540000D01*
X332200Y534750D02*
X332450Y534500D01*
X332200Y487750D02*
X332450Y487500D01*
X319750Y487750D02*
X332200D01*
X269000Y437000D02*
X319750Y487750D01*
X332207Y406257D02*
X332450Y406500D01*
X323257Y406257D02*
X332207D01*
X303000Y386000D02*
X323257Y406257D01*
X187000Y386000D02*
X303000D01*
X167000Y437000D02*
X269000D01*
X332207Y445257D02*
X332450Y445500D01*
X288000Y410000D02*
X323257Y445257D01*
X332207D01*
X189000Y410000D02*
X288000D01*
X181960Y479000D02*
X181960Y479000D01*
X172040Y479000D02*
X181960D01*
X373750Y586250D02*
X374000Y586000D01*
X373330Y586670D02*
X373750Y586250D01*
X358985Y604000D02*
X373330Y589655D01*
X185000Y452000D02*
X264000D01*
X165000Y426000D02*
X280000D01*
X318500Y464500D01*
X332450D01*
X373330Y586670D02*
Y589655D01*
X331950Y425000D02*
X332450Y425500D01*
X317000Y577000D02*
X332450D01*
X58250Y311550D02*
Y420300D01*
Y311550D02*
X73500Y296300D01*
X71250Y345235D02*
Y420300D01*
Y345235D02*
X113000Y303485D01*
Y120000D02*
Y303485D01*
X84250Y370550D02*
Y420300D01*
Y370550D02*
X158500Y296300D01*
X90750Y382250D02*
X171000Y302000D01*
X158500Y270900D02*
X166652D01*
X171000Y275248D01*
Y302000D01*
X110250Y393750D02*
Y420300D01*
X158500Y220100D02*
X186000Y247600D01*
Y318000D01*
X110250Y393750D02*
X186000Y318000D01*
X77750Y351250D02*
X123000Y306000D01*
X73500Y67700D02*
X123000Y117200D01*
Y306000D01*
X101000Y273000D02*
Y307000D01*
X73500Y245500D02*
X101000Y273000D01*
X167500Y245500D02*
X174420Y252420D01*
X64750Y343250D02*
X101000Y307000D01*
X64750Y343250D02*
Y420300D01*
X90750Y382250D02*
Y420300D01*
X174420Y252420D02*
X174420D01*
X179000Y257000D01*
Y313000D01*
X97250Y394750D02*
X179000Y313000D01*
X97250Y394750D02*
Y420300D01*
X77750Y351250D02*
Y420300D01*
X158500Y245500D02*
X167500D01*
X154447Y366500D02*
X332450D01*
X138647Y194700D02*
X158500D01*
X133947Y190000D02*
X138647Y194700D01*
X133000Y190000D02*
X133947D01*
X49000Y132000D02*
X51000D01*
X152000Y368000D02*
X152947D01*
X154447Y366500D01*
X357550Y586500D02*
X357800Y586250D01*
X373750D01*
X347000Y577000D02*
X357550D01*
X347500Y534500D02*
X357550D01*
X347000Y534000D02*
X347500Y534500D01*
X347000Y497000D02*
X357550D01*
X347000Y416000D02*
X357550D01*
X349000Y376000D02*
X357550D01*
X347000Y378000D02*
X349000Y376000D01*
D90*
X820291Y576000D02*
X845000D01*
X768000D02*
X820291D01*
X597080Y561315D02*
X628315D01*
X663000Y581000D02*
Y596000D01*
X658000Y576000D02*
X663000Y581000D01*
X643000Y576000D02*
X658000D01*
X628315Y561315D02*
X643000Y576000D01*
X845000D02*
X873000Y548000D01*
X763000Y581000D02*
X768000Y576000D01*
X763000Y581000D02*
Y596000D01*
D91*
X592000Y1018192D02*
Y1035000D01*
X588950Y1015142D02*
X592000Y1018192D01*
X588950Y982100D02*
Y1015142D01*
D92*
X90000Y880000D02*
D03*
X70000D02*
D03*
D93*
X50000D02*
D03*
D94*
X730000Y1102000D02*
D03*
X885000D02*
D03*
X530500Y1101500D02*
D03*
X685500D02*
D03*
D95*
X763050Y982600D02*
D03*
X775750Y1008000D02*
D03*
X788450Y982600D02*
D03*
X801150Y1008000D02*
D03*
X813850Y982600D02*
D03*
X826550Y1008000D02*
D03*
X839250Y982600D02*
D03*
X563550Y982100D02*
D03*
X576250Y1007500D02*
D03*
X588950Y982100D02*
D03*
X601650Y1007500D02*
D03*
X614350Y982100D02*
D03*
X627050Y1007500D02*
D03*
X639750Y982100D02*
D03*
D96*
X851950Y1008000D02*
D03*
X652450Y1007500D02*
D03*
D97*
X750350Y1071500D02*
D03*
X864650D02*
D03*
X550850Y1071000D02*
D03*
X665150D02*
D03*
D98*
X600400Y728000D02*
D03*
X575000D02*
D03*
D99*
X549600D02*
D03*
D100*
X301400Y717000D02*
D03*
X276000D02*
D03*
X250600D02*
D03*
X225200D02*
D03*
X469250Y846000D02*
D03*
X424250Y938250D02*
D03*
X428250Y905250D02*
D03*
X429750Y883000D02*
D03*
X543000Y1025000D02*
D03*
X326000Y988000D02*
D03*
X832000Y810000D02*
D03*
Y790000D02*
D03*
Y765000D02*
D03*
X831000Y742000D02*
D03*
Y719667D02*
D03*
X832000Y697000D02*
D03*
X826000Y674000D02*
D03*
X546000Y915000D02*
D03*
X522000Y917000D02*
D03*
X478000Y1082000D02*
D03*
X516000Y861000D02*
D03*
X441000Y844000D02*
D03*
X454000Y980000D02*
D03*
X573000Y912000D02*
D03*
Y935000D02*
D03*
X729000Y947000D02*
D03*
X697000Y963000D02*
D03*
X568000Y1039000D02*
D03*
X592000Y1035000D02*
D03*
X801000Y1055000D02*
D03*
X667000Y975000D02*
D03*
D101*
X199800Y717000D02*
D03*
D102*
X718200Y854000D02*
D03*
X743600D02*
D03*
X769000D02*
D03*
X794400D02*
D03*
X845200D02*
D03*
X664400Y857000D02*
D03*
X639000D02*
D03*
D103*
X870600Y854000D02*
D03*
D104*
X981000Y964000D02*
D03*
Y914000D02*
D03*
Y864000D02*
D03*
Y814000D02*
D03*
Y764000D02*
D03*
Y714000D02*
D03*
Y664000D02*
D03*
Y614000D02*
D03*
Y505000D02*
D03*
Y396000D02*
D03*
Y346000D02*
D03*
Y296000D02*
D03*
Y246000D02*
D03*
Y196000D02*
D03*
D105*
Y564000D02*
D03*
Y455000D02*
D03*
Y146000D02*
D03*
D106*
X845000Y431000D02*
D03*
X873000Y598000D02*
D03*
D107*
X845000Y481000D02*
D03*
X873000Y548000D02*
D03*
D108*
X613600Y857000D02*
D03*
D109*
X492100Y1016600D02*
D03*
D110*
X415900D02*
D03*
X492100Y1042000D02*
D03*
X415900D02*
D03*
Y1067400D02*
D03*
X492100D02*
D03*
D111*
X73500Y296300D02*
D03*
D112*
Y270900D02*
D03*
Y245500D02*
D03*
Y220100D02*
D03*
Y194700D02*
D03*
Y169300D02*
D03*
Y143900D02*
D03*
Y118500D02*
D03*
Y93100D02*
D03*
Y67700D02*
D03*
X158500D02*
D03*
Y93100D02*
D03*
Y118500D02*
D03*
Y143900D02*
D03*
Y169300D02*
D03*
Y194700D02*
D03*
Y220100D02*
D03*
Y245500D02*
D03*
Y270900D02*
D03*
Y296300D02*
D03*
D113*
X564400Y75000D02*
D03*
X551700Y125800D02*
D03*
X539000Y75000D02*
D03*
X526300Y125800D02*
D03*
X513600Y75000D02*
D03*
X500900Y125800D02*
D03*
X577100D02*
D03*
X589800Y75000D02*
D03*
X602500Y125800D02*
D03*
X615200Y75000D02*
D03*
X627900Y125800D02*
D03*
X488200Y75000D02*
D03*
X475500Y125800D02*
D03*
X640600Y75000D02*
D03*
X653300Y125800D02*
D03*
X306200Y75000D02*
D03*
X293500Y125800D02*
D03*
X280800Y75000D02*
D03*
X268100Y125800D02*
D03*
X255400Y75000D02*
D03*
X242700Y125800D02*
D03*
X318900D02*
D03*
X331600Y75000D02*
D03*
X344300Y125800D02*
D03*
X357000Y75000D02*
D03*
X369700Y125800D02*
D03*
X230000Y75000D02*
D03*
X217300Y125800D02*
D03*
X382400Y75000D02*
D03*
X395100Y125800D02*
D03*
D114*
X143500Y709250D02*
D03*
X283000Y675000D02*
D03*
X265169Y670469D02*
D03*
X213000Y749000D02*
D03*
X266000Y775000D02*
D03*
X190500Y689521D02*
D03*
X181000Y726000D02*
D03*
X241401Y669500D02*
D03*
X35000Y439000D02*
D03*
X174000Y48929D02*
D03*
X52000Y438000D02*
D03*
X118000Y559000D02*
D03*
X96000Y463000D02*
D03*
X160000Y579000D02*
D03*
X168000Y568000D02*
D03*
X286000Y942000D02*
D03*
X273000Y936000D02*
D03*
X177000Y736000D02*
D03*
X248000Y738000D02*
D03*
X148990Y723990D02*
D03*
X339000Y934000D02*
D03*
X97000Y763000D02*
D03*
X42000Y570000D02*
D03*
X102000Y450000D02*
D03*
X50000Y825000D02*
D03*
X84000Y794000D02*
D03*
X77000Y810000D02*
D03*
X68190Y821810D02*
D03*
X110000Y902000D02*
D03*
X366000Y673000D02*
D03*
X384500Y661500D02*
D03*
X108000Y915000D02*
D03*
X72500Y791907D02*
D03*
X122000Y680000D02*
D03*
X133000Y691000D02*
D03*
X112000Y645000D02*
D03*
X53000Y700000D02*
D03*
X53297Y714297D02*
D03*
X122000Y657000D02*
D03*
X145000Y691000D02*
D03*
X65000Y807711D02*
D03*
X133000Y679999D02*
D03*
X122000Y667999D02*
D03*
X111270Y668000D02*
D03*
X241000Y540000D02*
D03*
X445000Y523000D02*
D03*
X170000Y903000D02*
D03*
X246000Y866998D02*
D03*
X339000Y915000D02*
D03*
D115*
X873000Y223000D02*
D03*
X1025750Y1089750D02*
D03*
X32500D02*
D03*
Y29500D02*
D03*
X1025750D02*
D03*
X643000Y331000D02*
D03*
X804000Y225000D02*
D03*
D116*
X273000Y879000D02*
D03*
X285500Y871000D02*
D03*
X425000Y789348D02*
D03*
X376000Y840860D02*
D03*
X336000Y813000D02*
D03*
X343000Y831975D02*
D03*
X412000Y791000D02*
D03*
X257000Y878000D02*
D03*
X95000Y941000D02*
D03*
D117*
X131250Y848500D02*
D03*
X34000Y144000D02*
D03*
X201000Y799000D02*
D03*
X124000Y776000D02*
D03*
X176000Y858000D02*
D03*
X200000Y852000D02*
D03*
X318000Y530000D02*
D03*
X320480Y375520D02*
D03*
X320000Y415000D02*
D03*
Y454000D02*
D03*
X319980Y497020D02*
D03*
X317000Y577000D02*
D03*
X179000Y489000D02*
D03*
X187000Y471000D02*
D03*
X167000Y437000D02*
D03*
X189000Y410000D02*
D03*
X187000Y386000D02*
D03*
X133000Y190000D02*
D03*
X240000Y261000D02*
D03*
X445000Y355000D02*
D03*
X374000Y389000D02*
D03*
X113000Y120000D02*
D03*
X152000Y368000D02*
D03*
X374000Y544000D02*
D03*
Y506000D02*
D03*
Y464000D02*
D03*
Y426000D02*
D03*
Y586000D02*
D03*
D118*
X640250Y525000D02*
D03*
D119*
X301000Y865250D02*
D03*
X137000Y121000D02*
D03*
X185000Y337000D02*
D03*
X362000Y332000D02*
D03*
X319000Y343000D02*
D03*
X53000Y543000D02*
D03*
X54000Y591000D02*
D03*
X331000Y622000D02*
D03*
Y641000D02*
D03*
Y661000D02*
D03*
D120*
X545000Y382000D02*
D03*
X534000Y414000D02*
D03*
X525000Y347000D02*
D03*
X546000Y323000D02*
D03*
X381703Y259297D02*
D03*
X321247Y257753D02*
D03*
X373000Y234000D02*
D03*
X562000Y210000D02*
D03*
X538000D02*
D03*
X612000D02*
D03*
X310000Y204000D02*
D03*
X586000Y210000D02*
D03*
M02*
