G04*
G04 #@! TF.GenerationSoftware,Altium Limited,Altium Designer,20.0.13 (296)*
G04*
G04 Layer_Color=16711935*
%FSLAX44Y44*%
%MOMM*%
G71*
G01*
G75*
%ADD71C,1.7200*%
%ADD72R,1.7200X1.7200*%
%ADD73R,1.7200X1.7200*%
%ADD74R,1.7032X1.7032*%
%ADD75C,1.7032*%
%ADD76O,2.8448X1.5240*%
%ADD77R,2.8448X1.5240*%
%ADD78R,1.6012X1.6012*%
%ADD79C,1.6012*%
%ADD80C,1.7332*%
%ADD81C,2.6482*%
%ADD82C,3.4532*%
%ADD83C,0.9032*%
%ADD84O,4.0640X2.1336*%
%ADD85R,1.5200X1.5200*%
%ADD86C,1.5200*%
D71*
X439750Y323150D02*
D03*
Y297750D02*
D03*
X800100Y251750D02*
D03*
X825500D02*
D03*
D72*
X439750Y272350D02*
D03*
D73*
X850900Y251750D02*
D03*
D74*
X563000Y237650D02*
D03*
X510500Y740700D02*
D03*
X672650Y879650D02*
D03*
X556650D02*
D03*
D75*
X563000Y212250D02*
D03*
Y186850D02*
D03*
Y161450D02*
D03*
Y136050D02*
D03*
X510500Y715300D02*
D03*
Y689900D02*
D03*
Y664500D02*
D03*
Y639100D02*
D03*
X698050Y879650D02*
D03*
X723450D02*
D03*
X748850D02*
D03*
X672650Y955850D02*
D03*
X698050D02*
D03*
X723450D02*
D03*
X748850D02*
D03*
X582050Y879650D02*
D03*
X607450D02*
D03*
X632850D02*
D03*
X556650Y955850D02*
D03*
X582050D02*
D03*
X607450D02*
D03*
X632850D02*
D03*
D76*
X262350Y161450D02*
D03*
Y136050D02*
D03*
X186150D02*
D03*
X262350Y225450D02*
D03*
Y200050D02*
D03*
X186150D02*
D03*
X262350Y289450D02*
D03*
Y264050D02*
D03*
X186150D02*
D03*
X282400Y503800D02*
D03*
Y529200D02*
D03*
X358600D02*
D03*
X282400Y567800D02*
D03*
Y593200D02*
D03*
X358600D02*
D03*
X282400Y631800D02*
D03*
Y657200D02*
D03*
X358600D02*
D03*
X282400Y695800D02*
D03*
Y721200D02*
D03*
X358600D02*
D03*
D77*
X186150Y161450D02*
D03*
Y225450D02*
D03*
Y289450D02*
D03*
X358600Y503800D02*
D03*
Y567800D02*
D03*
Y631800D02*
D03*
Y695800D02*
D03*
D78*
X134250Y939750D02*
D03*
D79*
X159650Y927050D02*
D03*
X134250Y914350D02*
D03*
X159650Y901650D02*
D03*
X134250Y888950D02*
D03*
X159650Y876250D02*
D03*
X134250Y863550D02*
D03*
X159650Y850850D02*
D03*
D80*
X21750Y961500D02*
D03*
Y936100D02*
D03*
Y829000D02*
D03*
Y854400D02*
D03*
D81*
X101250Y972700D02*
D03*
Y817800D02*
D03*
D82*
X70750Y838100D02*
D03*
Y952400D02*
D03*
D83*
X781250Y509250D02*
D03*
D84*
X41550Y130250D02*
D03*
Y165250D02*
D03*
Y200250D02*
D03*
Y235250D02*
D03*
Y270250D02*
D03*
Y305250D02*
D03*
Y340250D02*
D03*
Y375250D02*
D03*
Y410250D02*
D03*
Y445250D02*
D03*
Y480250D02*
D03*
Y515250D02*
D03*
Y550250D02*
D03*
Y585250D02*
D03*
Y620250D02*
D03*
Y655250D02*
D03*
D85*
X969000Y788250D02*
D03*
X1045000Y310250D02*
D03*
D86*
X1019000Y788250D02*
D03*
X995000Y310250D02*
D03*
M02*
