G04*
G04 #@! TF.GenerationSoftware,Altium Limited,Altium Designer,20.0.13 (296)*
G04*
G04 Layer_Color=65535*
%FSLAX44Y44*%
%MOMM*%
G71*
G01*
G75*
%ADD10C,0.1500*%
%ADD11C,0.1524*%
%ADD12C,0.2000*%
%ADD13C,0.3000*%
%ADD14C,0.2500*%
%ADD15C,0.6096*%
%ADD16C,0.1270*%
%ADD17C,0.1520*%
%ADD18C,0.2540*%
%ADD19R,2.8000X0.5500*%
D10*
X181096Y723012D02*
G03*
X181200Y707100I12168J-7877D01*
G01*
X212204Y706988D02*
G03*
X212100Y722900I-12168J7877D01*
G01*
X200987Y192345D02*
G03*
X216900Y192450I7877J12168D01*
G01*
X217013Y223454D02*
G03*
X201100Y223350I-7877J-12168D01*
G01*
X328512Y779654D02*
G03*
X312600Y779550I-7877J-12168D01*
G01*
X312488Y748546D02*
G03*
X328400Y748650I7877J12168D01*
G01*
X284296Y577762D02*
G03*
X284400Y561850I12168J-7877D01*
G01*
X315405Y561738D02*
G03*
X315300Y577650I-12168J7877D01*
G01*
X795987Y226595D02*
G03*
X811900Y226700I7877J12168D01*
G01*
X812012Y257705D02*
G03*
X796100Y257600I-7877J-12168D01*
G01*
X327905Y941988D02*
G03*
X327800Y957900I-12168J7877D01*
G01*
X296796Y958013D02*
G03*
X296900Y942100I12168J-7877D01*
G01*
X217596Y957763D02*
G03*
X217700Y941850I12168J-7877D01*
G01*
X248704Y941738D02*
G03*
X248600Y957650I-12168J7877D01*
G01*
X201513Y653405D02*
G03*
X185600Y653300I-7877J-12168D01*
G01*
X185487Y622295D02*
G03*
X201400Y622400I7877J12168D01*
G01*
X461750Y538000D02*
G03*
X441766Y538076I-10047J-14270D01*
G01*
X441750Y502000D02*
G03*
X461734Y501924I10047J14270D01*
G01*
X825155Y569975D02*
G03*
X825050Y585887I-12168J7877D01*
G01*
X794045Y586000D02*
G03*
X794150Y570088I12168J-7877D01*
G01*
X720845Y660263D02*
G03*
X720950Y644350I12168J-7877D01*
G01*
X751954Y644238D02*
G03*
X751850Y660150I-12168J7877D01*
G01*
X581405Y938988D02*
G03*
X581300Y954900I-12168J7877D01*
G01*
X550295Y955013D02*
G03*
X550400Y939100I12168J-7877D01*
G01*
X673905Y787738D02*
G03*
X673800Y803650I-12168J7877D01*
G01*
X642795Y803763D02*
G03*
X642900Y787850I12168J-7877D01*
G01*
X282845Y828013D02*
G03*
X282950Y812100I12168J-7877D01*
G01*
X313955Y811988D02*
G03*
X313850Y827900I-12168J7877D01*
G01*
X283095Y845763D02*
G03*
X283200Y829850I12168J-7877D01*
G01*
X314205Y829737D02*
G03*
X314100Y845650I-12168J7877D01*
G01*
X265595Y791012D02*
G03*
X265700Y775100I12168J-7877D01*
G01*
X296705Y774987D02*
G03*
X296600Y790900I-12168J7877D01*
G01*
X510405Y732237D02*
G03*
X510300Y748150I-12168J7877D01*
G01*
X479296Y748263D02*
G03*
X479400Y732350I12168J-7877D01*
G01*
X504595Y719013D02*
G03*
X504700Y703100I12168J-7877D01*
G01*
X535704Y702988D02*
G03*
X535600Y718900I-12168J7877D01*
G01*
X605513Y635655D02*
G03*
X589600Y635550I-7877J-12168D01*
G01*
X589487Y604546D02*
G03*
X605400Y604650I7877J12168D01*
G01*
X481846Y555262D02*
G03*
X481950Y539350I12168J-7877D01*
G01*
X512954Y539238D02*
G03*
X512850Y555150I-12168J7877D01*
G01*
X321905Y683238D02*
G03*
X321800Y699150I-12168J7877D01*
G01*
X290795Y699263D02*
G03*
X290900Y683350I12168J-7877D01*
G01*
X281750Y599000D02*
G03*
X281674Y579016I14270J-10047D01*
G01*
X317750Y579000D02*
G03*
X317826Y598984I-14270J10047D01*
G01*
X504045Y782763D02*
G03*
X504150Y766850I12168J-7877D01*
G01*
X535155Y766738D02*
G03*
X535050Y782650I-12168J7877D01*
G01*
X437205Y766738D02*
G03*
X437100Y782650I-12168J7877D01*
G01*
X406096Y782763D02*
G03*
X406200Y766850I12168J-7877D01*
G01*
X366987Y733546D02*
G03*
X382900Y733650I7877J12168D01*
G01*
X383013Y764655D02*
G03*
X367100Y764550I-7877J-12168D01*
G01*
X148046Y811763D02*
G03*
X148150Y795850I12168J-7877D01*
G01*
X179155Y795738D02*
G03*
X179050Y811650I-12168J7877D01*
G01*
X243763Y870955D02*
G03*
X227850Y870850I-7877J-12168D01*
G01*
X227738Y839846D02*
G03*
X243650Y839950I7877J12168D01*
G01*
X181250Y707000D02*
X212000D01*
X181250Y723000D02*
X212000D01*
X195100Y712400D02*
Y717700D01*
X197900Y712400D02*
Y717700D01*
X337500Y748250D02*
X343250D01*
X337500D02*
Y753750D01*
X343250D01*
Y748250D02*
Y753750D01*
X350500Y733000D02*
Y769000D01*
X330500Y733000D02*
X350500D01*
X330500Y769000D02*
X350500D01*
X330500Y733000D02*
Y769000D01*
X419000Y133750D02*
X424750D01*
X419000D02*
Y139250D01*
X424750D01*
Y133750D02*
Y139250D01*
X432000Y118500D02*
Y154500D01*
X412000Y118500D02*
X432000D01*
X412000Y154500D02*
X432000D01*
X412000Y118500D02*
Y154500D01*
X380250Y133750D02*
X386000D01*
X380250D02*
Y139250D01*
X386000D01*
Y133750D02*
Y139250D01*
X393250Y118500D02*
Y154500D01*
X373250Y118500D02*
X393250D01*
X373250Y154500D02*
X393250D01*
X373250Y118500D02*
Y154500D01*
X437500Y175000D02*
X443250D01*
X437500D02*
Y180500D01*
X443250D01*
Y175000D02*
Y180500D01*
X450500Y159750D02*
Y195750D01*
X430500Y159750D02*
X450500D01*
X430500Y195750D02*
X450500D01*
X430500Y159750D02*
Y195750D01*
X399250Y175500D02*
X405000D01*
X399250D02*
Y181000D01*
X405000D01*
Y175500D02*
Y181000D01*
X412250Y160250D02*
Y196250D01*
X392250Y160250D02*
X412250D01*
X392250Y196250D02*
X412250D01*
X392250Y160250D02*
Y196250D01*
X340500Y133750D02*
X346250D01*
X340500D02*
Y139250D01*
X346250D01*
Y133750D02*
Y139250D01*
X353500Y118500D02*
Y154500D01*
X333500Y118500D02*
X353500D01*
X333500Y154500D02*
X353500D01*
X333500Y118500D02*
Y154500D01*
X360750Y175750D02*
X366500D01*
X360750D02*
Y181250D01*
X366500D01*
Y175750D02*
Y181250D01*
X373750Y160500D02*
Y196500D01*
X353750Y160500D02*
X373750D01*
X353750Y196500D02*
X373750D01*
X353750Y160500D02*
Y196500D01*
X303250Y133750D02*
X309000D01*
X303250D02*
Y139250D01*
X309000D01*
Y133750D02*
Y139250D01*
X316250Y118500D02*
Y154500D01*
X296250Y118500D02*
X316250D01*
X296250Y154500D02*
X316250D01*
X296250Y118500D02*
Y154500D01*
X322750Y176000D02*
X328500D01*
X322750D02*
Y181500D01*
X328500D01*
Y176000D02*
Y181500D01*
X335750Y160750D02*
Y196750D01*
X315750Y160750D02*
X335750D01*
X315750Y196750D02*
X335750D01*
X315750Y160750D02*
Y196750D01*
X266250Y133750D02*
X272000D01*
X266250D02*
Y139250D01*
X272000D01*
Y133750D02*
Y139250D01*
X279250Y118500D02*
Y154500D01*
X259250Y118500D02*
X279250D01*
X259250Y154500D02*
X279250D01*
X259250Y118500D02*
Y154500D01*
X249000Y177250D02*
X254750D01*
X249000D02*
Y182750D01*
X254750D01*
Y177250D02*
Y182750D01*
X262000Y162000D02*
Y198000D01*
X242000Y162000D02*
X262000D01*
X242000Y198000D02*
X262000D01*
X242000Y162000D02*
Y198000D01*
X285750Y177250D02*
X291500D01*
X285750D02*
Y182750D01*
X291500D01*
Y177250D02*
Y182750D01*
X298750Y162000D02*
Y198000D01*
X278750Y162000D02*
X298750D01*
X278750Y198000D02*
X298750D01*
X278750Y162000D02*
Y198000D01*
X230000Y133750D02*
X235750D01*
X230000D02*
Y139250D01*
X235750D01*
Y133750D02*
Y139250D01*
X243000Y118500D02*
Y154500D01*
X223000Y118500D02*
X243000D01*
X223000Y154500D02*
X243000D01*
X223000Y118500D02*
Y154500D01*
X589000Y149250D02*
X594750D01*
X589000D02*
Y154750D01*
X594750D01*
Y149250D02*
Y154750D01*
X602000Y134000D02*
Y170000D01*
X582000Y134000D02*
X602000D01*
X582000Y170000D02*
X602000D01*
X582000Y134000D02*
Y170000D01*
X589000Y204250D02*
X594750D01*
X589000D02*
Y209750D01*
X594750D01*
Y204250D02*
Y209750D01*
X602000Y189000D02*
Y225000D01*
X582000Y189000D02*
X602000D01*
X582000Y225000D02*
X602000D01*
X582000Y189000D02*
Y225000D01*
X208000Y244000D02*
X213750D01*
X208000D02*
Y249500D01*
X213750D01*
Y244000D02*
Y249500D01*
X221000Y228750D02*
Y264750D01*
X201000Y228750D02*
X221000D01*
X201000Y264750D02*
X221000D01*
X201000Y228750D02*
Y264750D01*
X217000Y192500D02*
Y223250D01*
X201000Y192500D02*
Y223250D01*
X206300Y206350D02*
X211600D01*
X206300Y209150D02*
X211600D01*
X143500Y361750D02*
Y367500D01*
X149000D01*
Y361750D02*
Y367500D01*
X143500Y361750D02*
X149000D01*
X128250Y354500D02*
X164250D01*
X128250D02*
Y374500D01*
X164250Y354500D02*
Y374500D01*
X128250D02*
X164250D01*
X143500Y421500D02*
Y427250D01*
X149000D01*
Y421500D02*
Y427250D01*
X143500Y421500D02*
X149000D01*
X128250Y414250D02*
X164250D01*
X128250D02*
Y434250D01*
X164250Y414250D02*
Y434250D01*
X128250D02*
X164250D01*
X149000Y452250D02*
Y458000D01*
X143500Y452250D02*
X149000D01*
X143500D02*
Y458000D01*
X149000D01*
X128250Y465250D02*
X164250D01*
Y445250D02*
Y465250D01*
X128250Y445250D02*
Y465250D01*
Y445250D02*
X164250D01*
X143500Y480750D02*
Y486500D01*
X149000D01*
Y480750D02*
Y486500D01*
X143500Y480750D02*
X149000D01*
X128250Y473500D02*
X164250D01*
X128250D02*
Y493500D01*
X164250Y473500D02*
Y493500D01*
X128250D02*
X164250D01*
X149000Y515500D02*
Y521250D01*
X143500Y515500D02*
X149000D01*
X143500D02*
Y521250D01*
X149000D01*
X128250Y528500D02*
X164250D01*
Y508500D02*
Y528500D01*
X128250Y508500D02*
Y528500D01*
Y508500D02*
X164250D01*
X143500Y544750D02*
Y550500D01*
X149000D01*
Y544750D02*
Y550500D01*
X143500Y544750D02*
X149000D01*
X128250Y537500D02*
X164250D01*
X128250D02*
Y557500D01*
X164250Y537500D02*
Y557500D01*
X128250D02*
X164250D01*
X312500Y748750D02*
Y779500D01*
X328500Y748750D02*
Y779500D01*
X317900Y765650D02*
X323200D01*
X317900Y762850D02*
X323200D01*
X430000Y217250D02*
Y253250D01*
X450000D01*
X430000Y217250D02*
X450000D01*
Y253250D01*
X442750Y232500D02*
Y238000D01*
X437000D02*
X442750D01*
X437000Y232500D02*
Y238000D01*
Y232500D02*
X442750D01*
X392450Y217250D02*
Y253250D01*
X412450D01*
X392450Y217250D02*
X412450D01*
Y253250D01*
X405200Y232500D02*
Y238000D01*
X399450D02*
X405200D01*
X399450Y232500D02*
Y238000D01*
Y232500D02*
X405200D01*
X354900Y217250D02*
Y253250D01*
X374900D01*
X354900Y217250D02*
X374900D01*
Y253250D01*
X367650Y232500D02*
Y238000D01*
X361900D02*
X367650D01*
X361900Y232500D02*
Y238000D01*
Y232500D02*
X367650D01*
X317350Y217250D02*
Y253250D01*
X337350D01*
X317350Y217250D02*
X337350D01*
Y253250D01*
X330100Y232500D02*
Y238000D01*
X324350D02*
X330100D01*
X324350Y232500D02*
Y238000D01*
Y232500D02*
X330100D01*
X279800Y217250D02*
Y253250D01*
X299800D01*
X279800Y217250D02*
X299800D01*
Y253250D01*
X292550Y232500D02*
Y238000D01*
X286800D02*
X292550D01*
X286800Y232500D02*
Y238000D01*
Y232500D02*
X292550D01*
X242250Y217250D02*
Y253250D01*
X262250D01*
X242250Y217250D02*
X262250D01*
Y253250D01*
X255000Y232500D02*
Y238000D01*
X249250D02*
X255000D01*
X249250Y232500D02*
Y238000D01*
Y232500D02*
X255000D01*
X503000Y910500D02*
X539000D01*
Y890500D02*
Y910500D01*
X503000Y890500D02*
Y910500D01*
Y890500D02*
X539000D01*
X518250Y897750D02*
X523750D01*
Y903500D01*
X518250D02*
X523750D01*
X518250Y897750D02*
Y903500D01*
X628000Y123250D02*
Y159250D01*
X648000D01*
X628000Y123250D02*
X648000D01*
Y159250D01*
X640750Y138500D02*
Y144000D01*
X635000D02*
X640750D01*
X635000Y138500D02*
Y144000D01*
Y138500D02*
X640750D01*
X656500Y123250D02*
Y159250D01*
X676500D01*
X656500Y123250D02*
X676500D01*
Y159250D01*
X669250Y138500D02*
Y144000D01*
X663500D02*
X669250D01*
X663500Y138500D02*
Y144000D01*
Y138500D02*
X669250D01*
X688500Y123000D02*
Y159000D01*
X708500D01*
X688500Y123000D02*
X708500D01*
Y159000D01*
X701250Y138250D02*
Y143750D01*
X695500D02*
X701250D01*
X695500Y138250D02*
Y143750D01*
Y138250D02*
X701250D01*
X582000Y248000D02*
Y284000D01*
X602000D01*
X582000Y248000D02*
X602000D01*
Y284000D01*
X594750Y263250D02*
Y268750D01*
X589000D02*
X594750D01*
X589000Y263250D02*
Y268750D01*
Y263250D02*
X594750D01*
X283750Y513000D02*
Y549000D01*
X303750D01*
X283750Y513000D02*
X303750D01*
Y549000D01*
X296500Y528250D02*
Y533750D01*
X290750D02*
X296500D01*
X290750Y528250D02*
Y533750D01*
Y528250D02*
X296500D01*
X326750Y513250D02*
Y549250D01*
X306750Y513250D02*
X326750D01*
X306750Y549250D02*
X326750D01*
X306750Y513250D02*
Y549250D01*
X314000Y528500D02*
Y534000D01*
Y528500D02*
X319750D01*
Y534000D01*
X314000D02*
X319750D01*
X283750Y450750D02*
Y486750D01*
X303750D01*
X283750Y450750D02*
X303750D01*
Y486750D01*
X296500Y466000D02*
Y471500D01*
X290750D02*
X296500D01*
X290750Y466000D02*
Y471500D01*
Y466000D02*
X296500D01*
X326750Y450750D02*
Y486750D01*
X306750Y450750D02*
X326750D01*
X306750Y486750D02*
X326750D01*
X306750Y450750D02*
Y486750D01*
X314000Y466000D02*
Y471500D01*
Y466000D02*
X319750D01*
Y471500D01*
X314000D02*
X319750D01*
X283750Y389000D02*
Y425000D01*
X303750D01*
X283750Y389000D02*
X303750D01*
Y425000D01*
X296500Y404250D02*
Y409750D01*
X290750D02*
X296500D01*
X290750Y404250D02*
Y409750D01*
Y404250D02*
X296500D01*
X326750Y388750D02*
Y424750D01*
X306750Y388750D02*
X326750D01*
X306750Y424750D02*
X326750D01*
X306750Y388750D02*
Y424750D01*
X314000Y404000D02*
Y409500D01*
Y404000D02*
X319750D01*
Y409500D01*
X314000D02*
X319750D01*
X283750Y329750D02*
Y365750D01*
X303750D01*
X283750Y329750D02*
X303750D01*
Y365750D01*
X296500Y345000D02*
Y350500D01*
X290750D02*
X296500D01*
X290750Y345000D02*
Y350500D01*
Y345000D02*
X296500D01*
X326750Y330000D02*
Y366000D01*
X306750Y330000D02*
X326750D01*
X306750Y366000D02*
X326750D01*
X306750Y330000D02*
Y366000D01*
X314000Y345250D02*
Y350750D01*
Y345250D02*
X319750D01*
Y350750D01*
X314000D02*
X319750D01*
X128250Y388000D02*
X164250D01*
X128250D02*
Y408000D01*
X164250Y388000D02*
Y408000D01*
X128250D02*
X164250D01*
X143500Y400750D02*
X149000D01*
X143500Y395000D02*
Y400750D01*
Y395000D02*
X149000D01*
Y400750D01*
X128250Y326500D02*
X164250D01*
X128250D02*
Y346500D01*
X164250Y326500D02*
Y346500D01*
X128250D02*
X164250D01*
X143500Y339250D02*
X149000D01*
X143500Y333500D02*
Y339250D01*
Y333500D02*
X149000D01*
Y339250D01*
X298600Y567050D02*
Y572350D01*
X301400Y567050D02*
Y572350D01*
X284500Y561750D02*
X315250D01*
X284500Y577750D02*
X315250D01*
X812000Y226750D02*
Y257500D01*
X796000Y226750D02*
Y257500D01*
X801300Y240600D02*
X806600D01*
X801300Y243400D02*
X806600D01*
X297000Y958000D02*
X327750D01*
X297000Y942000D02*
X327750D01*
X313900Y947300D02*
Y952600D01*
X311100Y947300D02*
Y952600D01*
X217750Y941750D02*
X248500D01*
X217750Y957750D02*
X248500D01*
X231600Y947150D02*
Y952450D01*
X234400Y947150D02*
Y952450D01*
X185500Y622500D02*
Y653250D01*
X201500Y622500D02*
Y653250D01*
X190900Y639400D02*
X196200D01*
X190900Y636600D02*
X196200D01*
X461750Y502000D02*
Y538000D01*
X441750Y502000D02*
Y538000D01*
X447650Y518000D02*
X455750D01*
X447750Y522000D02*
X455750D01*
X794250Y585988D02*
X825000D01*
X794250Y569987D02*
X825000D01*
X811150Y575288D02*
Y580588D01*
X808350Y575288D02*
Y580588D01*
X662250Y405000D02*
X693000D01*
Y421000D01*
X662250D02*
X693000D01*
X662250Y405000D02*
Y421000D01*
X675500Y411000D02*
Y415250D01*
X679500D01*
Y411000D02*
Y415250D01*
X675500Y411000D02*
X679500D01*
X729500Y570000D02*
X760250D01*
Y586000D01*
X729500D02*
X760250D01*
X729500Y570000D02*
Y586000D01*
X742750Y576000D02*
Y580250D01*
X746750D01*
Y576000D02*
Y580250D01*
X742750Y576000D02*
X746750D01*
X721000Y644250D02*
X751750D01*
X721000Y660250D02*
X751750D01*
X734850Y649650D02*
Y654950D01*
X737650Y649650D02*
Y654950D01*
X602250Y942250D02*
Y948000D01*
X607750D01*
Y942250D02*
Y948000D01*
X602250Y942250D02*
X607750D01*
X587000Y935000D02*
X623000D01*
X587000D02*
Y955000D01*
X623000Y935000D02*
Y955000D01*
X587000D02*
X623000D01*
X550500D02*
X581250D01*
X550500Y939000D02*
X581250D01*
X567400Y944300D02*
Y949600D01*
X564600Y944300D02*
Y949600D01*
X643000Y803750D02*
X673750D01*
X643000Y787750D02*
X673750D01*
X659900Y793050D02*
Y798350D01*
X657100Y793050D02*
Y798350D01*
X283000Y812000D02*
X313750D01*
X283000Y828000D02*
X313750D01*
X296850Y817400D02*
Y822700D01*
X299650Y817400D02*
Y822700D01*
X283250Y829750D02*
X314000D01*
X283250Y845750D02*
X314000D01*
X297100Y835150D02*
Y840450D01*
X299900Y835150D02*
Y840450D01*
X265750Y775000D02*
X296500D01*
X265750Y791000D02*
X296500D01*
X279600Y780400D02*
Y785700D01*
X282400Y780400D02*
Y785700D01*
X479500Y748250D02*
X510250D01*
X479500Y732250D02*
X510250D01*
X496400Y737550D02*
Y742850D01*
X493600Y737550D02*
Y742850D01*
X504750Y703000D02*
X535500D01*
X504750Y719000D02*
X535500D01*
X518600Y708400D02*
Y713700D01*
X521400Y708400D02*
Y713700D01*
X589500Y604750D02*
Y635500D01*
X605500Y604750D02*
Y635500D01*
X594900Y621650D02*
X600200D01*
X594900Y618850D02*
X600200D01*
X482000Y539250D02*
X512750D01*
X482000Y555250D02*
X512750D01*
X495850Y544650D02*
Y549950D01*
X498650Y544650D02*
Y549950D01*
X302000Y709250D02*
Y715000D01*
X307500D01*
Y709250D02*
Y715000D01*
X302000Y709250D02*
X307500D01*
X286750Y702000D02*
X322750D01*
X286750D02*
Y722000D01*
X322750Y702000D02*
Y722000D01*
X286750D02*
X322750D01*
X291000Y699250D02*
X321750D01*
X291000Y683250D02*
X321750D01*
X307900Y688550D02*
Y693850D01*
X305100Y688550D02*
Y693850D01*
X281750Y599000D02*
X317750D01*
X281750Y579000D02*
X317750D01*
X301750Y584900D02*
Y593000D01*
X297750Y585000D02*
Y593000D01*
X768500Y159500D02*
X774250D01*
X768500D02*
Y165000D01*
X774250D01*
Y159500D02*
Y165000D01*
X781500Y144250D02*
Y180250D01*
X761500Y144250D02*
X781500D01*
X761500Y180250D02*
X781500D01*
X761500Y144250D02*
Y180250D01*
X511250Y993750D02*
Y999500D01*
X516750D01*
Y993750D02*
Y999500D01*
X511250Y993750D02*
X516750D01*
X496000Y986500D02*
X532000D01*
X496000D02*
Y1006500D01*
X532000Y986500D02*
Y1006500D01*
X496000D02*
X532000D01*
X511250Y970250D02*
Y976000D01*
X516750D01*
Y970250D02*
Y976000D01*
X511250Y970250D02*
X516750D01*
X496000Y963000D02*
X532000D01*
X496000D02*
Y983000D01*
X532000Y963000D02*
Y983000D01*
X496000D02*
X532000D01*
X402000Y1051000D02*
X438000D01*
Y1031000D02*
Y1051000D01*
X402000Y1031000D02*
Y1051000D01*
Y1031000D02*
X438000D01*
X417250Y1038250D02*
X422750D01*
Y1044000D01*
X417250D02*
X422750D01*
X417250Y1038250D02*
Y1044000D01*
X553250Y1020500D02*
X589250D01*
X553250D02*
Y1040500D01*
X589250Y1020500D02*
Y1040500D01*
X553250D02*
X589250D01*
X568500Y1033250D02*
X574000D01*
X568500Y1027500D02*
Y1033250D01*
Y1027500D02*
X574000D01*
Y1033250D01*
X585500Y681000D02*
X621500D01*
Y661000D02*
Y681000D01*
X585500Y661000D02*
Y681000D01*
Y661000D02*
X621500D01*
X600750Y668250D02*
X606250D01*
Y674000D01*
X600750D02*
X606250D01*
X600750Y668250D02*
Y674000D01*
X385750Y898750D02*
Y934750D01*
X405750D01*
X385750Y898750D02*
X405750D01*
Y934750D01*
X398500Y914000D02*
Y919500D01*
X392750D02*
X398500D01*
X392750Y914000D02*
Y919500D01*
Y914000D02*
X398500D01*
X443250Y901750D02*
Y937750D01*
X463250D01*
X443250Y901750D02*
X463250D01*
Y937750D01*
X456000Y917000D02*
Y922500D01*
X450250D02*
X456000D01*
X450250Y917000D02*
Y922500D01*
Y917000D02*
X456000D01*
X463250Y946250D02*
Y982250D01*
X443250Y946250D02*
X463250D01*
X443250Y982250D02*
X463250D01*
X443250Y946250D02*
Y982250D01*
X450500Y961500D02*
Y967000D01*
Y961500D02*
X456250D01*
Y967000D01*
X450500D02*
X456250D01*
X518350Y772050D02*
Y777350D01*
X521150Y772050D02*
Y777350D01*
X504250Y766750D02*
X535000D01*
X504250Y782750D02*
X535000D01*
X422900Y772150D02*
Y777450D01*
X420100Y772150D02*
Y777450D01*
X406250Y782750D02*
X437000D01*
X406250Y766750D02*
X437000D01*
X372400Y747850D02*
X377700D01*
X372400Y750650D02*
X377700D01*
X383000Y733750D02*
Y764500D01*
X367000Y733750D02*
Y764500D01*
X162350Y801050D02*
Y806350D01*
X165150Y801050D02*
Y806350D01*
X148250Y795750D02*
X179000D01*
X148250Y811750D02*
X179000D01*
X233050Y856650D02*
X238350D01*
X233050Y853850D02*
X238350D01*
X227750Y840000D02*
Y870750D01*
X243750Y840000D02*
Y870750D01*
D11*
X532910Y125100D02*
G03*
X512590Y125100I-10160J0D01*
G01*
X532910Y182600D02*
G03*
X512590Y182600I-10160J0D01*
G01*
X532910Y240600D02*
G03*
X512590Y240600I-10160J0D01*
G01*
X231560Y505100D02*
G03*
X211240Y505100I-10160J0D01*
G01*
X231560Y442850D02*
G03*
X211240Y442850I-10160J0D01*
G01*
X231560Y385350D02*
G03*
X211240Y385350I-10160J0D01*
G01*
X231560Y323800D02*
G03*
X211240Y323800I-10160J0D01*
G01*
X493540Y125100D02*
Y175900D01*
X551960Y125100D02*
Y175900D01*
X493540D02*
X551960D01*
X493540Y125100D02*
X512590D01*
X532910D02*
X551960D01*
X493540Y182600D02*
Y233400D01*
X551960Y182600D02*
Y233400D01*
X493540D02*
X551960D01*
X493540Y182600D02*
X512590D01*
X532910D02*
X551960D01*
X493540Y240600D02*
Y291400D01*
X551960Y240600D02*
Y291400D01*
X493540D02*
X551960D01*
X493540Y240600D02*
X512590D01*
X532910D02*
X551960D01*
X192190Y505100D02*
Y555900D01*
X250610Y505100D02*
Y555900D01*
X192190D02*
X250610D01*
X192190Y505100D02*
X211240D01*
X231560D02*
X250610D01*
X192190Y442850D02*
Y493650D01*
X250610Y442850D02*
Y493650D01*
X192190D02*
X250610D01*
X192190Y442850D02*
X211240D01*
X231560D02*
X250610D01*
X192190Y385350D02*
Y436150D01*
X250610Y385350D02*
Y436150D01*
X192190D02*
X250610D01*
X192190Y385350D02*
X211240D01*
X231560D02*
X250610D01*
X192190Y323800D02*
Y374600D01*
X250610Y323800D02*
Y374600D01*
X192190D02*
X250610D01*
X192190Y323800D02*
X211240D01*
X231560D02*
X250610D01*
X832500Y298250D02*
Y428250D01*
X702500Y298250D02*
Y428250D01*
D12*
X12000Y310250D02*
G03*
X12000Y310250I-1000J0D01*
G01*
Y200750D02*
G03*
X12000Y200750I-1000J0D01*
G01*
Y92500D02*
G03*
X12000Y92500I-1000J0D01*
G01*
X116550Y246050D02*
G03*
X116550Y246050I-1000J0D01*
G01*
X152250Y116500D02*
G03*
X152250Y116500I-1000J0D01*
G01*
X346050Y396200D02*
G03*
X346050Y396200I-1000J0D01*
G01*
X110250Y1070100D02*
G03*
X110250Y1070100I-1000J0D01*
G01*
X418750Y968750D02*
G03*
X418750Y968750I-1000J0D01*
G01*
X819250Y511500D02*
G03*
X819250Y511500I-50000J0D01*
G01*
X713750Y587750D02*
G03*
X713750Y587750I-50000J0D01*
G01*
X785750Y230750D02*
G03*
X785750Y230750I-50000J0D01*
G01*
X726750Y867900D02*
G03*
X726750Y867900I-1000J0D01*
G01*
X650800Y660750D02*
G03*
X650800Y660750I-1000J0D01*
G01*
X474000Y737150D02*
G03*
X474000Y737150I-1000J0D01*
G01*
X415250Y819250D02*
Y835750D01*
Y785750D02*
Y802250D01*
X526250Y785750D02*
Y802250D01*
Y819250D02*
Y835750D01*
X415250Y785750D02*
X526250D01*
X415250Y835750D02*
X526250D01*
X357050Y885100D02*
X382450D01*
X357050Y808900D02*
X382450D01*
X357050D02*
Y885100D01*
X382450Y808900D02*
Y885100D01*
X467150Y854800D02*
Y880200D01*
X543350Y854800D02*
Y880200D01*
X467150Y854800D02*
X543350D01*
X467150Y880200D02*
X543350D01*
X594500Y961250D02*
Y1011250D01*
X576500Y961250D02*
Y1011250D01*
Y961250D02*
X594500D01*
X576500Y1011250D02*
X594500D01*
X297500Y669750D02*
X300500D01*
X297500Y678750D02*
X300500D01*
X206250Y854500D02*
Y857500D01*
X197250Y854500D02*
Y857500D01*
X297500Y641500D02*
X300500D01*
X297500Y650500D02*
X300500D01*
X297500Y655750D02*
X300500D01*
X297500Y664750D02*
X300500D01*
X306750Y750500D02*
Y753500D01*
X297750Y750500D02*
Y753500D01*
X328500Y888500D02*
Y905000D01*
Y922000D02*
Y938500D01*
X217500Y922000D02*
Y938500D01*
Y888500D02*
Y905000D01*
Y938500D02*
X328500D01*
X217500Y888500D02*
X328500D01*
X164500Y892750D02*
X192500D01*
Y898750D01*
X164500Y892750D02*
Y898750D01*
X246000Y855000D02*
X274000D01*
Y861000D01*
X246000Y855000D02*
Y861000D01*
X197000Y826500D02*
Y829500D01*
X188000Y826500D02*
Y829500D01*
X153500Y855250D02*
Y858250D01*
X144500Y855250D02*
Y858250D01*
X143750Y823500D02*
Y826500D01*
X134750Y823500D02*
Y826500D01*
X115250Y855250D02*
Y858250D01*
X124250Y855250D02*
Y858250D01*
X115000Y823500D02*
Y826500D01*
X124000Y823500D02*
Y826500D01*
X535750Y585750D02*
X585750D01*
X535750Y603750D02*
X585750D01*
X535750Y585750D02*
Y603750D01*
X585750Y585750D02*
Y603750D01*
X792500Y824000D02*
X803500D01*
X792500Y849000D02*
X803500D01*
X340250Y1005250D02*
Y1027250D01*
X313750Y1005250D02*
X340250D01*
X313750D02*
Y1027550D01*
X828000Y508000D02*
Y515000D01*
X824500Y511500D02*
X831500D01*
X601500Y587750D02*
X608500D01*
X605000Y584250D02*
Y591250D01*
X677000Y227250D02*
Y234250D01*
X673500Y230750D02*
X680500D01*
X556250Y304000D02*
X578750D01*
Y408000D01*
X556250D02*
X578750D01*
X783000Y78000D02*
Y97000D01*
X760000Y78000D02*
Y97000D01*
Y78000D02*
X783000D01*
X764000Y139000D02*
X779000D01*
X783000Y117000D02*
Y134000D01*
X760000D02*
X764000Y139000D01*
X779000D02*
X783000Y134000D01*
X760000Y117000D02*
Y134000D01*
X556050Y678100D02*
X581450D01*
X556050D02*
Y805100D01*
X581450Y678100D02*
Y805100D01*
X556050D02*
X581450D01*
X351850Y1027550D02*
Y1052950D01*
X275650Y1027550D02*
Y1052950D01*
X351850D01*
X275650Y1027550D02*
X351850D01*
X242750Y734750D02*
Y737750D01*
X251750Y734750D02*
Y737750D01*
X221250Y734750D02*
Y737750D01*
X230250Y734750D02*
Y737750D01*
X220250Y754250D02*
X223250D01*
X220250Y763250D02*
X223250D01*
X192000D02*
X195000D01*
X192000Y754250D02*
X195000D01*
X277750D02*
X280750D01*
X277750Y763250D02*
X280750D01*
X249500D02*
X252500D01*
X249500Y754250D02*
X252500D01*
X749750Y73750D02*
X739753D01*
Y78748D01*
X741419Y80414D01*
X744752D01*
X746418Y78748D01*
Y73750D01*
X739753Y83747D02*
X749750D01*
X746418Y87079D01*
X749750Y90411D01*
X739753D01*
X749750Y93744D02*
X739753D01*
Y98742D01*
X741419Y100408D01*
X744752D01*
X746418Y98742D01*
Y93744D01*
Y97076D02*
X749750Y100408D01*
Y120402D02*
Y113737D01*
X743085Y120402D01*
X741419D01*
X739753Y118736D01*
Y115403D01*
X741419Y113737D01*
X749750Y128732D02*
X739753D01*
X744752Y123734D01*
Y130398D01*
X739753Y133731D02*
X746418D01*
X749750Y137063D01*
X746418Y140395D01*
X739753D01*
X557000Y666498D02*
X563665D01*
X560332Y669831D02*
Y663166D01*
X566997Y669831D02*
X568663Y671497D01*
X571995D01*
X573661Y669831D01*
Y668165D01*
X571995Y666498D01*
X570329D01*
X571995D01*
X573661Y664832D01*
Y663166D01*
X571995Y661500D01*
X568663D01*
X566997Y663166D01*
X589250Y786250D02*
Y796247D01*
X594248D01*
X595914Y794581D01*
Y791248D01*
X594248Y789582D01*
X589250D01*
X592582D02*
X595914Y786250D01*
X388003Y835000D02*
X398000D01*
Y839998D01*
X396334Y841665D01*
X394668D01*
X393002Y839998D01*
Y835000D01*
Y839998D01*
X391335Y841665D01*
X389669D01*
X388003Y839998D01*
Y835000D01*
X391335Y846663D02*
Y849995D01*
X393002Y851661D01*
X398000D01*
Y846663D01*
X396334Y844997D01*
X394668Y846663D01*
Y851661D01*
X389669Y856660D02*
X391335D01*
Y854994D01*
Y858326D01*
Y856660D01*
X396334D01*
X398000Y858326D01*
X549500Y865500D02*
Y875497D01*
X554498D01*
X556165Y873831D01*
Y870498D01*
X554498Y868832D01*
X549500D01*
X552832D02*
X556165Y865500D01*
X564495D02*
X561163D01*
X559497Y867166D01*
Y870498D01*
X561163Y872165D01*
X564495D01*
X566161Y870498D01*
Y868832D01*
X559497D01*
X569494Y865500D02*
X574492D01*
X576158Y867166D01*
X574492Y868832D01*
X571160D01*
X569494Y870498D01*
X571160Y872165D01*
X576158D01*
X586155Y873831D02*
X584489Y875497D01*
X581157D01*
X579490Y873831D01*
Y872165D01*
X581157Y870498D01*
X584489D01*
X586155Y868832D01*
Y867166D01*
X584489Y865500D01*
X581157D01*
X579490Y867166D01*
X594486Y865500D02*
X591153D01*
X589487Y867166D01*
Y870498D01*
X591153Y872165D01*
X594486D01*
X596152Y870498D01*
Y868832D01*
X589487D01*
X601150Y873831D02*
Y872165D01*
X599484D01*
X602816D01*
X601150D01*
Y867166D01*
X602816Y865500D01*
X11000Y354250D02*
Y360914D01*
X8500Y300082D02*
X15165D01*
X11832Y303414D02*
Y296750D01*
X8000Y91832D02*
X14664D01*
X11332Y95164D02*
Y88500D01*
X8750Y250082D02*
X15415D01*
X12082Y253414D02*
Y246750D01*
X591250Y22497D02*
Y12500D01*
X596248Y17498D02*
X602913D01*
X606245D02*
X612910D01*
X616242D02*
X622906D01*
X626239D02*
X632903D01*
X642900Y20831D02*
X641234Y22497D01*
X637902D01*
X636236Y20831D01*
Y19165D01*
X637902Y17498D01*
X641234D01*
X642900Y15832D01*
Y14166D01*
X641234Y12500D01*
X637902D01*
X636236Y14166D01*
X651231Y12500D02*
X647898D01*
X646232Y14166D01*
Y17498D01*
X647898Y19165D01*
X651231D01*
X652897Y17498D01*
Y15832D01*
X646232D01*
X656229Y12500D02*
Y19165D01*
X661227D01*
X662894Y17498D01*
Y12500D01*
X666226D02*
X671224D01*
X672890Y14166D01*
X671224Y15832D01*
X667892D01*
X666226Y17498D01*
X667892Y19165D01*
X672890D01*
X676223Y17498D02*
X682887D01*
X686219D02*
X692884D01*
X696216D02*
X702881D01*
X706213D02*
X712878D01*
X716210Y22497D02*
Y12500D01*
X226164Y19331D02*
X224498Y20997D01*
X221166D01*
X219500Y19331D01*
Y17665D01*
X221166Y15998D01*
X224498D01*
X226164Y14332D01*
Y12666D01*
X224498Y11000D01*
X221166D01*
X219500Y12666D01*
X234495Y11000D02*
X231163D01*
X229497Y12666D01*
Y15998D01*
X231163Y17665D01*
X234495D01*
X236161Y15998D01*
Y14332D01*
X229497D01*
X239494Y11000D02*
Y17665D01*
X244492D01*
X246158Y15998D01*
Y11000D01*
X249490D02*
X254489D01*
X256155Y12666D01*
X254489Y14332D01*
X251157D01*
X249490Y15998D01*
X251157Y17665D01*
X256155D01*
X262819Y11000D02*
X259487Y14332D01*
Y17665D01*
X262819Y20997D01*
X274482Y17665D02*
X269484D01*
X267818Y15998D01*
Y12666D01*
X269484Y11000D01*
X274482D01*
X279481D02*
X282813D01*
X284479Y12666D01*
Y15998D01*
X282813Y17665D01*
X279481D01*
X277815Y15998D01*
Y12666D01*
X279481Y11000D01*
X287811D02*
Y17665D01*
X289478D01*
X291144Y15998D01*
Y11000D01*
Y15998D01*
X292810Y17665D01*
X294476Y15998D01*
Y11000D01*
X297808D02*
X301140Y14332D01*
Y17665D01*
X297808Y20997D01*
X202164Y18081D02*
X200498Y19747D01*
X197166D01*
X195500Y18081D01*
Y11416D01*
X197166Y9750D01*
X200498D01*
X202164Y11416D01*
Y14748D01*
X198832D01*
X135000Y15498D02*
X141664D01*
X138332Y18831D02*
Y12166D01*
X151661Y20497D02*
X144997D01*
Y15498D01*
X148329Y17164D01*
X149995D01*
X151661Y15498D01*
Y12166D01*
X149995Y10500D01*
X146663D01*
X144997Y12166D01*
X154993Y17164D02*
X158326Y10500D01*
X161658Y17164D01*
X669000Y519749D02*
X672999D01*
X670999Y521748D02*
Y517750D01*
X678997Y522748D02*
X674998D01*
Y519749D01*
X676997Y520749D01*
X677997D01*
X678997Y519749D01*
Y517750D01*
X677997Y516750D01*
X675998D01*
X674998Y517750D01*
X680996Y520749D02*
X682996Y516750D01*
X684995Y520749D01*
X713501Y465250D02*
Y469249D01*
X711502Y467249D02*
X715500D01*
X711502Y471248D02*
X710502Y472248D01*
Y474247D01*
X711502Y475247D01*
X712501D01*
X713501Y474247D01*
Y473247D01*
Y474247D01*
X714501Y475247D01*
X715500D01*
X716500Y474247D01*
Y472248D01*
X715500Y471248D01*
X712501Y477246D02*
X716500Y479245D01*
X712501Y481245D01*
X594252Y740249D02*
X593252Y739249D01*
Y737250D01*
X594252Y736250D01*
X595251D01*
X596251Y737250D01*
Y739249D01*
X597251Y740249D01*
X598250D01*
X599250Y739249D01*
Y737250D01*
X598250Y736250D01*
X593252Y742248D02*
X599250D01*
X597251Y744247D01*
X599250Y746247D01*
X593252D01*
Y748246D02*
X599250D01*
Y751245D01*
X598250Y752245D01*
X594252D01*
X593252Y751245D01*
Y748246D01*
X446252Y396749D02*
Y392750D01*
X449251D01*
Y394749D01*
Y392750D01*
X452250D01*
Y398748D02*
Y400747D01*
Y399748D01*
X446252D01*
X447252Y398748D01*
X308503Y439501D02*
Y445499D01*
X311502D01*
X312501Y444499D01*
Y442500D01*
X311502Y441500D01*
X308503D01*
X310502D02*
X312501Y439501D01*
X318499D02*
X314501D01*
X318499Y443500D01*
Y444499D01*
X317500Y445499D01*
X315500D01*
X314501Y444499D01*
X324497Y439501D02*
X320499D01*
X324497Y443500D01*
Y444499D01*
X323498Y445499D01*
X321498D01*
X320499Y444499D01*
X263751Y570749D02*
X262752Y571749D01*
X260752D01*
X259753Y570749D01*
Y566751D01*
X260752Y565751D01*
X262752D01*
X263751Y566751D01*
X265751Y565751D02*
X267750D01*
X266750D01*
Y571749D01*
X265751Y570749D01*
X270749Y566751D02*
X271749Y565751D01*
X273748D01*
X274748Y566751D01*
Y570749D01*
X273748Y571749D01*
X271749D01*
X270749Y570749D01*
Y569750D01*
X271749Y568750D01*
X274748D01*
X284753Y439501D02*
Y445499D01*
X287752D01*
X288751Y444499D01*
Y442500D01*
X287752Y441500D01*
X284753D01*
X286752D02*
X288751Y439501D01*
X294749D02*
X290751D01*
X294749Y443500D01*
Y444499D01*
X293750Y445499D01*
X291750D01*
X290751Y444499D01*
X296749D02*
X297748Y445499D01*
X299748D01*
X300747Y444499D01*
Y443500D01*
X299748Y442500D01*
X298748D01*
X299748D01*
X300747Y441500D01*
Y440501D01*
X299748Y439501D01*
X297748D01*
X296749Y440501D01*
X285752Y378001D02*
Y383999D01*
X288751D01*
X289751Y382999D01*
Y381000D01*
X288751Y380000D01*
X285752D01*
X287752D02*
X289751Y378001D01*
X295749D02*
X291750D01*
X295749Y382000D01*
Y382999D01*
X294749Y383999D01*
X292750D01*
X291750Y382999D01*
X297748Y378001D02*
X299748D01*
X298748D01*
Y383999D01*
X297748Y382999D01*
X309003Y377751D02*
Y383749D01*
X312002D01*
X313001Y382749D01*
Y380750D01*
X312002Y379750D01*
X309003D01*
X311002D02*
X313001Y377751D01*
X318999D02*
X315001D01*
X318999Y381750D01*
Y382749D01*
X318000Y383749D01*
X316000D01*
X315001Y382749D01*
X320999D02*
X321998Y383749D01*
X323998D01*
X324997Y382749D01*
Y378751D01*
X323998Y377751D01*
X321998D01*
X320999Y378751D01*
Y382749D01*
X286003Y318001D02*
Y323999D01*
X289002D01*
X290001Y322999D01*
Y321000D01*
X289002Y320000D01*
X286003D01*
X288002D02*
X290001Y318001D01*
X292001D02*
X294000D01*
X293000D01*
Y323999D01*
X292001Y322999D01*
X296999Y319001D02*
X297999Y318001D01*
X299998D01*
X300998Y319001D01*
Y322999D01*
X299998Y323999D01*
X297999D01*
X296999Y322999D01*
Y322000D01*
X297999Y321000D01*
X300998D01*
X308752Y318251D02*
Y324249D01*
X311751D01*
X312751Y323249D01*
Y321250D01*
X311751Y320250D01*
X308752D01*
X310752D02*
X312751Y318251D01*
X314750D02*
X316750D01*
X315750D01*
Y324249D01*
X314750Y323249D01*
X319749D02*
X320748Y324249D01*
X322748D01*
X323748Y323249D01*
Y322250D01*
X322748Y321250D01*
X323748Y320250D01*
Y319251D01*
X322748Y318251D01*
X320748D01*
X319749Y319251D01*
Y320250D01*
X320748Y321250D01*
X319749Y322250D01*
Y323249D01*
X320748Y321250D02*
X322748D01*
X105713Y394001D02*
Y399999D01*
X108712D01*
X109712Y398999D01*
Y397000D01*
X108712Y396000D01*
X105713D01*
X107712D02*
X109712Y394001D01*
X111711D02*
X113710D01*
X112711D01*
Y399999D01*
X111711Y398999D01*
X116709Y394001D02*
X118709D01*
X117709D01*
Y399999D01*
X116709Y398999D01*
X105713Y333001D02*
Y338999D01*
X108712D01*
X109712Y337999D01*
Y336000D01*
X108712Y335000D01*
X105713D01*
X107712D02*
X109712Y333001D01*
X111711D02*
X113710D01*
X112711D01*
Y338999D01*
X111711Y337999D01*
X116709D02*
X117709Y338999D01*
X119708D01*
X120708Y337999D01*
Y334001D01*
X119708Y333001D01*
X117709D01*
X116709Y334001D01*
Y337999D01*
X669249Y561001D02*
X670248Y560001D01*
X672248D01*
X673247Y561001D01*
Y564999D01*
X672248Y565999D01*
X670248D01*
X669249Y564999D01*
X667249Y561001D02*
X666250Y560001D01*
X664250D01*
X663251Y561001D01*
Y562000D01*
X664250Y563000D01*
X665250D01*
X664250D01*
X663251Y564000D01*
Y564999D01*
X664250Y565999D01*
X666250D01*
X667249Y564999D01*
X657253Y560001D02*
X661251D01*
Y563000D01*
X659252Y562000D01*
X658252D01*
X657253Y563000D01*
Y564999D01*
X658252Y565999D01*
X660252D01*
X661251Y564999D01*
X409752Y644499D02*
Y639501D01*
X410751Y638501D01*
X412751D01*
X413750Y639501D01*
Y644499D01*
X415750Y643499D02*
X416749Y644499D01*
X418749D01*
X419748Y643499D01*
Y642500D01*
X418749Y641500D01*
X417749D01*
X418749D01*
X419748Y640500D01*
Y639501D01*
X418749Y638501D01*
X416749D01*
X415750Y639501D01*
X577251Y478149D02*
Y473151D01*
X578251Y472151D01*
X580250D01*
X581250Y473151D01*
Y478149D01*
X583249Y472151D02*
X585249D01*
X584249D01*
Y478149D01*
X583249Y477149D01*
X262003Y710501D02*
Y716499D01*
X265002D01*
X266001Y715499D01*
Y713500D01*
X265002Y712500D01*
X262003D01*
X264002D02*
X266001Y710501D01*
X271999D02*
X268001D01*
X271999Y714500D01*
Y715499D01*
X271000Y716499D01*
X269000D01*
X268001Y715499D01*
X277997Y716499D02*
X273999D01*
Y713500D01*
X275998Y714500D01*
X276998D01*
X277997Y713500D01*
Y711501D01*
X276998Y710501D01*
X274998D01*
X273999Y711501D01*
X586738Y688846D02*
Y694844D01*
X589737D01*
X590737Y693844D01*
Y691845D01*
X589737Y690845D01*
X586738D01*
X588737D02*
X590737Y688846D01*
X592736D02*
X594735D01*
X593736D01*
Y694844D01*
X592736Y693844D01*
X601733Y688846D02*
X597734D01*
X601733Y692845D01*
Y693844D01*
X600733Y694844D01*
X598734D01*
X597734Y693844D01*
X599252Y921751D02*
Y927749D01*
X602251D01*
X603250Y926749D01*
Y924750D01*
X602251Y923750D01*
X599252D01*
X601251D02*
X603250Y921751D01*
X605250Y926749D02*
X606249Y927749D01*
X608249D01*
X609248Y926749D01*
Y925750D01*
X608249Y924750D01*
X609248Y923750D01*
Y922751D01*
X608249Y921751D01*
X606249D01*
X605250Y922751D01*
Y923750D01*
X606249Y924750D01*
X605250Y925750D01*
Y926749D01*
X606249Y924750D02*
X608249D01*
X554480Y1048256D02*
Y1054254D01*
X557479D01*
X558479Y1053254D01*
Y1051255D01*
X557479Y1050255D01*
X554480D01*
X556479D02*
X558479Y1048256D01*
X560478Y1054254D02*
X564477D01*
Y1053254D01*
X560478Y1049256D01*
Y1048256D01*
X794499Y157752D02*
X788501D01*
Y160751D01*
X789501Y161750D01*
X791500D01*
X792500Y160751D01*
Y157752D01*
Y159751D02*
X794499Y161750D01*
X788501Y167748D02*
X789501Y165749D01*
X791500Y163750D01*
X793499D01*
X794499Y164749D01*
Y166749D01*
X793499Y167748D01*
X792500D01*
X791500Y166749D01*
Y163750D01*
X508752Y948501D02*
Y954499D01*
X511751D01*
X512750Y953499D01*
Y951500D01*
X511751Y950500D01*
X508752D01*
X510751D02*
X512750Y948501D01*
X518748Y954499D02*
X514750D01*
Y951500D01*
X516749Y952500D01*
X517749D01*
X518748Y951500D01*
Y949501D01*
X517749Y948501D01*
X515749D01*
X514750Y949501D01*
X508502Y1016501D02*
Y1022499D01*
X511501D01*
X512500Y1021499D01*
Y1019500D01*
X511501Y1018500D01*
X508502D01*
X510501D02*
X512500Y1016501D01*
X517499D02*
Y1022499D01*
X514500Y1019500D01*
X518498D01*
X403350Y1058924D02*
Y1064922D01*
X406349D01*
X407349Y1063922D01*
Y1061923D01*
X406349Y1060923D01*
X403350D01*
X405349D02*
X407349Y1058924D01*
X409348Y1063922D02*
X410348Y1064922D01*
X412347D01*
X413347Y1063922D01*
Y1062923D01*
X412347Y1061923D01*
X411347D01*
X412347D01*
X413347Y1060923D01*
Y1059924D01*
X412347Y1058924D01*
X410348D01*
X409348Y1059924D01*
X640502Y409001D02*
Y414999D01*
X643501D01*
X644500Y413999D01*
Y412000D01*
X643501Y411000D01*
X640502D01*
X642501D02*
X644500Y409001D01*
X650498D02*
X646500D01*
X650498Y413000D01*
Y413999D01*
X649499Y414999D01*
X647499D01*
X646500Y413999D01*
X738751Y594251D02*
Y600249D01*
X741750D01*
X742750Y599249D01*
Y597250D01*
X741750Y596250D01*
X738751D01*
X740751D02*
X742750Y594251D01*
X744749D02*
X746749D01*
X745749D01*
Y600249D01*
X744749Y599249D01*
X818999Y369999D02*
X813001D01*
Y366000D01*
Y364001D02*
Y362001D01*
Y363001D01*
X818999D01*
X817999Y364001D01*
X51249Y973000D02*
Y974999D01*
Y973999D01*
X46251D01*
X45251Y974999D01*
Y975999D01*
X46251Y976998D01*
X45251Y967002D02*
Y971000D01*
X49250Y967002D01*
X50249D01*
X51249Y968001D01*
Y970001D01*
X50249Y971000D01*
X776999Y967250D02*
Y969249D01*
Y968250D01*
X772001D01*
X771001Y969249D01*
Y970249D01*
X772001Y971249D01*
X771001Y965251D02*
Y963251D01*
Y964251D01*
X776999D01*
X775999Y965251D01*
X687253Y730999D02*
X689252D01*
X688253D01*
Y725001D01*
X687253D01*
X689252D01*
X696250Y729999D02*
X695250Y730999D01*
X693251D01*
X692252Y729999D01*
Y729000D01*
X693251Y728000D01*
X695250D01*
X696250Y727000D01*
Y726001D01*
X695250Y725001D01*
X693251D01*
X692252Y726001D01*
X701249Y730999D02*
X699249D01*
X698250Y729999D01*
Y726001D01*
X699249Y725001D01*
X701249D01*
X702248Y726001D01*
Y729999D01*
X701249Y730999D01*
X704248Y725001D02*
X706247D01*
X705247D01*
Y730999D01*
X704248Y729999D01*
X426501Y974752D02*
X432499D01*
Y977751D01*
X431499Y978750D01*
X427501D01*
X426501Y977751D01*
Y974752D01*
Y980750D02*
Y984748D01*
X427501D01*
X431499Y980750D01*
X432499D01*
X662502Y346749D02*
Y340751D01*
X665501D01*
X666500Y341751D01*
Y345749D01*
X665501Y346749D01*
X662502D01*
X672498Y340751D02*
X668500D01*
X672498Y344750D01*
Y345749D01*
X671499Y346749D01*
X669499D01*
X668500Y345749D01*
X770634Y810668D02*
Y804670D01*
X773633D01*
X774633Y805670D01*
Y809668D01*
X773633Y810668D01*
X770634D01*
X776632Y804670D02*
X778631D01*
X777632D01*
Y810668D01*
X776632Y809668D01*
X229751Y971249D02*
X228752Y972249D01*
X226752D01*
X225753Y971249D01*
Y967251D01*
X226752Y966251D01*
X228752D01*
X229751Y967251D01*
X231751Y971249D02*
X232750Y972249D01*
X234750D01*
X235749Y971249D01*
Y970250D01*
X234750Y969250D01*
X233750D01*
X234750D01*
X235749Y968250D01*
Y967251D01*
X234750Y966251D01*
X232750D01*
X231751Y967251D01*
X240748Y966251D02*
Y972249D01*
X237749Y969250D01*
X241747D01*
X308251Y970999D02*
X307252Y971999D01*
X305252D01*
X304253Y970999D01*
Y967001D01*
X305252Y966001D01*
X307252D01*
X308251Y967001D01*
X310251Y970999D02*
X311250Y971999D01*
X313250D01*
X314249Y970999D01*
Y970000D01*
X313250Y969000D01*
X312250D01*
X313250D01*
X314249Y968000D01*
Y967001D01*
X313250Y966001D01*
X311250D01*
X310251Y967001D01*
X316249Y970999D02*
X317248Y971999D01*
X319248D01*
X320247Y970999D01*
Y970000D01*
X319248Y969000D01*
X318248D01*
X319248D01*
X320247Y968000D01*
Y967001D01*
X319248Y966001D01*
X317248D01*
X316249Y967001D01*
X330501Y840499D02*
X329501Y841499D01*
X327502D01*
X326502Y840499D01*
Y836501D01*
X327502Y835501D01*
X329501D01*
X330501Y836501D01*
X332500Y840499D02*
X333500Y841499D01*
X335499D01*
X336499Y840499D01*
Y839500D01*
X335499Y838500D01*
X334500D01*
X335499D01*
X336499Y837500D01*
Y836501D01*
X335499Y835501D01*
X333500D01*
X332500Y836501D01*
X338498Y835501D02*
X340498D01*
X339498D01*
Y841499D01*
X338498Y840499D01*
X331251Y821999D02*
X330252Y822999D01*
X328252D01*
X327253Y821999D01*
Y818001D01*
X328252Y817001D01*
X330252D01*
X331251Y818001D01*
X333251Y821999D02*
X334250Y822999D01*
X336250D01*
X337249Y821999D01*
Y821000D01*
X336250Y820000D01*
X335250D01*
X336250D01*
X337249Y819000D01*
Y818001D01*
X336250Y817001D01*
X334250D01*
X333251Y818001D01*
X339249Y821999D02*
X340248Y822999D01*
X342248D01*
X343247Y821999D01*
Y818001D01*
X342248Y817001D01*
X340248D01*
X339249Y818001D01*
Y821999D01*
X191251Y670751D02*
X190251Y669752D01*
Y667752D01*
X191251Y666753D01*
X195249D01*
X196249Y667752D01*
Y669752D01*
X195249Y670751D01*
X196249Y676749D02*
Y672751D01*
X192250Y676749D01*
X191251D01*
X190251Y675750D01*
Y673750D01*
X191251Y672751D01*
Y678749D02*
X190251Y679748D01*
Y681748D01*
X191251Y682747D01*
X192250D01*
X193250Y681748D01*
X194250Y682747D01*
X195249D01*
X196249Y681748D01*
Y679748D01*
X195249Y678749D01*
X194250D01*
X193250Y679748D01*
X192250Y678749D01*
X191251D01*
X193250Y679748D02*
Y681748D01*
X192251Y733999D02*
X191252Y734999D01*
X189252D01*
X188253Y733999D01*
Y730001D01*
X189252Y729001D01*
X191252D01*
X192251Y730001D01*
X198249Y729001D02*
X194251D01*
X198249Y733000D01*
Y733999D01*
X197250Y734999D01*
X195250D01*
X194251Y733999D01*
X200249Y734999D02*
X204247D01*
Y733999D01*
X200249Y730001D01*
Y729001D01*
X264251Y591499D02*
X263251Y592499D01*
X261252D01*
X260252Y591499D01*
Y587501D01*
X261252Y586501D01*
X263251D01*
X264251Y587501D01*
X270249Y586501D02*
X266250D01*
X270249Y590500D01*
Y591499D01*
X269249Y592499D01*
X267250D01*
X266250Y591499D01*
X272248Y586501D02*
X274248D01*
X273248D01*
Y592499D01*
X272248Y591499D01*
X265251Y692249D02*
X264252Y693249D01*
X262252D01*
X261253Y692249D01*
Y688251D01*
X262252Y687251D01*
X264252D01*
X265251Y688251D01*
X271249Y687251D02*
X267251D01*
X271249Y691250D01*
Y692249D01*
X270250Y693249D01*
X268250D01*
X267251Y692249D01*
X273249D02*
X274248Y693249D01*
X276248D01*
X277247Y692249D01*
Y688251D01*
X276248Y687251D01*
X274248D01*
X273249Y688251D01*
Y692249D01*
X481751Y760749D02*
X480751Y761749D01*
X478752D01*
X477752Y760749D01*
Y756751D01*
X478752Y755751D01*
X480751D01*
X481751Y756751D01*
X483750Y755751D02*
X485750D01*
X484750D01*
Y761749D01*
X483750Y760749D01*
X492748Y761749D02*
X490748Y760749D01*
X488749Y758750D01*
Y756751D01*
X489749Y755751D01*
X491748D01*
X492748Y756751D01*
Y757750D01*
X491748Y758750D01*
X488749D01*
X473251Y514001D02*
X472251Y513002D01*
Y511002D01*
X473251Y510002D01*
X477249D01*
X478249Y511002D01*
Y513002D01*
X477249Y514001D01*
X478249Y516001D02*
Y518000D01*
Y517000D01*
X472251D01*
X473251Y516001D01*
X478249Y523998D02*
X472251D01*
X475250Y520999D01*
Y524998D01*
X531751Y548749D02*
X530751Y549749D01*
X528752D01*
X527752Y548749D01*
Y544751D01*
X528752Y543751D01*
X530751D01*
X531751Y544751D01*
X533750Y543751D02*
X535750D01*
X534750D01*
Y549749D01*
X533750Y548749D01*
X538749D02*
X539749Y549749D01*
X541748D01*
X542748Y548749D01*
Y547750D01*
X541748Y546750D01*
X540748D01*
X541748D01*
X542748Y545750D01*
Y544751D01*
X541748Y543751D01*
X539749D01*
X538749Y544751D01*
X527751Y732499D02*
X526752Y733499D01*
X524752D01*
X523753Y732499D01*
Y728501D01*
X524752Y727501D01*
X526752D01*
X527751Y728501D01*
X529751Y727501D02*
X531750D01*
X530750D01*
Y733499D01*
X529751Y732499D01*
X538748Y727501D02*
X534749D01*
X538748Y731500D01*
Y732499D01*
X537748Y733499D01*
X535749D01*
X534749Y732499D01*
X618749Y640249D02*
X619749Y641249D01*
Y643248D01*
X618749Y644248D01*
X614751D01*
X613751Y643248D01*
Y641249D01*
X614751Y640249D01*
X613751Y638250D02*
Y636250D01*
Y637250D01*
X619749D01*
X618749Y638250D01*
X613751Y633251D02*
Y631252D01*
Y632252D01*
X619749D01*
X618749Y633251D01*
X563750Y930749D02*
X562751Y931749D01*
X560751D01*
X559752Y930749D01*
Y926751D01*
X560751Y925751D01*
X562751D01*
X563750Y926751D01*
X565750Y930749D02*
X566749Y931749D01*
X568749D01*
X569748Y930749D01*
Y929750D01*
X568749Y928750D01*
X569748Y927750D01*
Y926751D01*
X568749Y925751D01*
X566749D01*
X565750Y926751D01*
Y927750D01*
X566749Y928750D01*
X565750Y929750D01*
Y930749D01*
X566749Y928750D02*
X568749D01*
X623250Y797249D02*
X622251Y798249D01*
X620251D01*
X619252Y797249D01*
Y793251D01*
X620251Y792251D01*
X622251D01*
X623250Y793251D01*
X625250Y798249D02*
X629248D01*
Y797249D01*
X625250Y793251D01*
Y792251D01*
X735500Y633249D02*
X734501Y634249D01*
X732501D01*
X731502Y633249D01*
Y629251D01*
X732501Y628251D01*
X734501D01*
X735500Y629251D01*
X741498Y634249D02*
X739499Y633249D01*
X737500Y631250D01*
Y629251D01*
X738499Y628251D01*
X740499D01*
X741498Y629251D01*
Y630250D01*
X740499Y631250D01*
X737500D01*
X776750Y580249D02*
X775751Y581249D01*
X773751D01*
X772752Y580249D01*
Y576251D01*
X773751Y575251D01*
X775751D01*
X776750Y576251D01*
X781749Y575251D02*
Y581249D01*
X778750Y578250D01*
X782748D01*
X826500Y243749D02*
X825501Y244749D01*
X823501D01*
X822502Y243749D01*
Y239751D01*
X823501Y238751D01*
X825501D01*
X826500Y239751D01*
X832498Y238751D02*
X828500D01*
X832498Y242750D01*
Y243749D01*
X831499Y244749D01*
X829499D01*
X828500Y243749D01*
X104499Y854503D02*
X98501D01*
Y857502D01*
X99501Y858501D01*
X101500D01*
X102500Y857502D01*
Y854503D01*
Y856502D02*
X104499Y858501D01*
Y863500D02*
X98501D01*
X101500Y860501D01*
Y864499D01*
X104499Y869498D02*
X98501D01*
X101500Y866499D01*
Y870497D01*
X174501Y841497D02*
X180499D01*
Y838498D01*
X179499Y837499D01*
X177500D01*
X176500Y838498D01*
Y841497D01*
Y839498D02*
X174501Y837499D01*
Y832500D02*
X180499D01*
X177500Y835499D01*
Y831501D01*
X179499Y829501D02*
X180499Y828502D01*
Y826502D01*
X179499Y825503D01*
X178500D01*
X177500Y826502D01*
Y827502D01*
Y826502D01*
X176500Y825503D01*
X175501D01*
X174501Y826502D01*
Y828502D01*
X175501Y829501D01*
X104499Y818503D02*
X98501D01*
Y821502D01*
X99501Y822501D01*
X101500D01*
X102500Y821502D01*
Y818503D01*
Y820502D02*
X104499Y822501D01*
Y827500D02*
X98501D01*
X101500Y824501D01*
Y828499D01*
X104499Y834497D02*
Y830499D01*
X100500Y834497D01*
X99501D01*
X98501Y833498D01*
Y831498D01*
X99501Y830499D01*
X286501Y745248D02*
X292499D01*
Y742249D01*
X291499Y741249D01*
X289500D01*
X288500Y742249D01*
Y745248D01*
Y743248D02*
X286501Y741249D01*
Y736251D02*
X292499D01*
X289500Y739250D01*
Y735251D01*
X286501Y733252D02*
Y731252D01*
Y732252D01*
X292499D01*
X291499Y733252D01*
X252503Y670751D02*
Y676749D01*
X255502D01*
X256501Y675749D01*
Y673750D01*
X255502Y672750D01*
X252503D01*
X254502D02*
X256501Y670751D01*
X261500D02*
Y676749D01*
X258501Y673750D01*
X262499D01*
X264499Y675749D02*
X265498Y676749D01*
X267498D01*
X268497Y675749D01*
Y671751D01*
X267498Y670751D01*
X265498D01*
X264499Y671751D01*
Y675749D01*
X220249Y859253D02*
X214251D01*
Y862252D01*
X215251Y863251D01*
X217250D01*
X218250Y862252D01*
Y859253D01*
Y861252D02*
X220249Y863251D01*
X215251Y865251D02*
X214251Y866250D01*
Y868250D01*
X215251Y869249D01*
X216250D01*
X217250Y868250D01*
Y867250D01*
Y868250D01*
X218250Y869249D01*
X219249D01*
X220249Y868250D01*
Y866250D01*
X219249Y865251D01*
Y871249D02*
X220249Y872248D01*
Y874248D01*
X219249Y875247D01*
X215251D01*
X214251Y874248D01*
Y872248D01*
X215251Y871249D01*
X216250D01*
X217250Y872248D01*
Y875247D01*
X252753Y640001D02*
Y645999D01*
X255752D01*
X256751Y644999D01*
Y643000D01*
X255752Y642000D01*
X252753D01*
X254752D02*
X256751Y640001D01*
X258751Y644999D02*
X259750Y645999D01*
X261750D01*
X262749Y644999D01*
Y644000D01*
X261750Y643000D01*
X260750D01*
X261750D01*
X262749Y642000D01*
Y641001D01*
X261750Y640001D01*
X259750D01*
X258751Y641001D01*
X264749Y644999D02*
X265748Y645999D01*
X267748D01*
X268747Y644999D01*
Y644000D01*
X267748Y643000D01*
X268747Y642000D01*
Y641001D01*
X267748Y640001D01*
X265748D01*
X264749Y641001D01*
Y642000D01*
X265748Y643000D01*
X264749Y644000D01*
Y644999D01*
X265748Y643000D02*
X267748D01*
X252503Y655251D02*
Y661249D01*
X255502D01*
X256501Y660249D01*
Y658250D01*
X255502Y657250D01*
X252503D01*
X254502D02*
X256501Y655251D01*
X258501Y660249D02*
X259500Y661249D01*
X261500D01*
X262499Y660249D01*
Y659250D01*
X261500Y658250D01*
X260500D01*
X261500D01*
X262499Y657250D01*
Y656251D01*
X261500Y655251D01*
X259500D01*
X258501Y656251D01*
X264499Y661249D02*
X268497D01*
Y660249D01*
X264499Y656251D01*
Y655251D01*
X286253Y502001D02*
Y507999D01*
X289252D01*
X290251Y506999D01*
Y505000D01*
X289252Y504000D01*
X286253D01*
X288252D02*
X290251Y502001D01*
X296249D02*
X292251D01*
X296249Y506000D01*
Y506999D01*
X295250Y507999D01*
X293250D01*
X292251Y506999D01*
X298249Y507999D02*
X302247D01*
Y506999D01*
X298249Y503001D01*
Y502001D01*
X308753D02*
Y507999D01*
X311752D01*
X312751Y506999D01*
Y505000D01*
X311752Y504000D01*
X308753D01*
X310752D02*
X312751Y502001D01*
X318749D02*
X314751D01*
X318749Y506000D01*
Y506999D01*
X317750Y507999D01*
X315750D01*
X314751Y506999D01*
X324747Y507999D02*
X322748Y506999D01*
X320749Y505000D01*
Y503001D01*
X321748Y502001D01*
X323748D01*
X324747Y503001D01*
Y504000D01*
X323748Y505000D01*
X320749D01*
X199000Y929751D02*
Y933749D01*
X198001Y934749D01*
X196001D01*
X195002Y933749D01*
Y929751D01*
X196001Y928751D01*
X198001D01*
X197001Y930750D02*
X199000Y928751D01*
X198001D02*
X199000Y929751D01*
X204998Y928751D02*
X201000D01*
X204998Y932750D01*
Y933749D01*
X203999Y934749D01*
X201999D01*
X201000Y933749D01*
X468500Y824251D02*
Y828249D01*
X467500Y829249D01*
X465501D01*
X464501Y828249D01*
Y824251D01*
X465501Y823251D01*
X467500D01*
X466501Y825250D02*
X468500Y823251D01*
X467500D02*
X468500Y824251D01*
X470499Y823251D02*
X472499D01*
X471499D01*
Y829249D01*
X470499Y828249D01*
X72499Y716000D02*
Y717999D01*
Y716999D01*
X67501D01*
X66501Y717999D01*
Y718999D01*
X67501Y719998D01*
X71499Y714000D02*
X72499Y713001D01*
Y711001D01*
X71499Y710002D01*
X70500D01*
X69500Y711001D01*
X68500Y710002D01*
X67501D01*
X66501Y711001D01*
Y713001D01*
X67501Y714000D01*
X68500D01*
X69500Y713001D01*
X70500Y714000D01*
X71499D01*
X69500Y713001D02*
Y711001D01*
X290252Y859249D02*
X292252D01*
X291252D01*
Y853251D01*
X290252D01*
X292252D01*
X299249Y858249D02*
X298250Y859249D01*
X296250D01*
X295251Y858249D01*
Y854251D01*
X296250Y853251D01*
X298250D01*
X299249Y854251D01*
X305248Y853251D02*
X301249D01*
X305248Y857250D01*
Y858249D01*
X304248Y859249D01*
X302249D01*
X301249Y858249D01*
X569752Y548499D02*
X571752D01*
X570752D01*
Y542501D01*
X569752D01*
X571752D01*
X578749Y547499D02*
X577749Y548499D01*
X575750D01*
X574751Y547499D01*
Y543501D01*
X575750Y542501D01*
X577749D01*
X578749Y543501D01*
X580749Y542501D02*
X582748D01*
X581748D01*
Y548499D01*
X580749Y547499D01*
X603751Y1024253D02*
X609749D01*
Y1027252D01*
X608749Y1028251D01*
X604751D01*
X603751Y1027252D01*
Y1024253D01*
Y1030251D02*
X609749D01*
Y1033250D01*
X608749Y1034249D01*
X604751D01*
X603751Y1033250D01*
Y1030251D01*
X609749Y1040247D02*
Y1036249D01*
X605750Y1040247D01*
X604751D01*
X603751Y1039248D01*
Y1037248D01*
X604751Y1036249D01*
X454999Y349998D02*
X449001D01*
Y346999D01*
X450001Y345999D01*
X453999D01*
X454999Y346999D01*
Y349998D01*
Y344000D02*
X449001D01*
Y341001D01*
X450001Y340001D01*
X453999D01*
X454999Y341001D01*
Y344000D01*
X449001Y338002D02*
Y336002D01*
Y337002D01*
X454999D01*
X453999Y338002D01*
X789751Y102752D02*
X795749D01*
Y105751D01*
X794749Y106750D01*
X790751D01*
X789751Y105751D01*
Y102752D01*
X795749Y111749D02*
X789751D01*
X792750Y108750D01*
Y112748D01*
X180249Y858751D02*
X181248Y857751D01*
X183248D01*
X184247Y858751D01*
Y862749D01*
X183248Y863749D01*
X181248D01*
X180249Y862749D01*
X178249Y858751D02*
X177250Y857751D01*
X175250D01*
X174251Y858751D01*
Y859750D01*
X175250Y860750D01*
X176250D01*
X175250D01*
X174251Y861750D01*
Y862749D01*
X175250Y863749D01*
X177250D01*
X178249Y862749D01*
X168253Y863749D02*
X172251D01*
X168253Y859750D01*
Y858751D01*
X169252Y857751D01*
X171252D01*
X172251Y858751D01*
X772750Y540999D02*
X771751Y541999D01*
X769751D01*
X768752Y540999D01*
Y537001D01*
X769751Y536001D01*
X771751D01*
X772750Y537001D01*
X778748Y541999D02*
X774750D01*
Y539000D01*
X776749Y540000D01*
X777749D01*
X778748Y539000D01*
Y537001D01*
X777749Y536001D01*
X775749D01*
X774750Y537001D01*
X791750Y200749D02*
X790751Y201749D01*
X788751D01*
X787752Y200749D01*
Y196751D01*
X788751Y195751D01*
X790751D01*
X791750Y196751D01*
X793750Y200749D02*
X794749Y201749D01*
X796749D01*
X797748Y200749D01*
Y199750D01*
X796749Y198750D01*
X795749D01*
X796749D01*
X797748Y197750D01*
Y196751D01*
X796749Y195751D01*
X794749D01*
X793750Y196751D01*
X752000Y842249D02*
X751000Y843249D01*
X749001D01*
X748001Y842249D01*
Y838251D01*
X749001Y837251D01*
X751000D01*
X752000Y838251D01*
X753999Y837251D02*
X755999D01*
X754999D01*
Y843249D01*
X753999Y842249D01*
D13*
X137250Y801500D02*
G03*
X137250Y801500I-1500J0D01*
G01*
D14*
X610750Y958700D02*
G03*
X610750Y958700I-1250J0D01*
G01*
X534450Y570750D02*
G03*
X534450Y570750I-1250J0D01*
G01*
X606500Y311250D02*
G03*
X606500Y311250I-1250J0D01*
G01*
D15*
X640580Y302320D02*
G03*
X640580Y302320I-1500J0D01*
G01*
D16*
X792164Y607050D02*
G03*
X792164Y607050I-1414J0D01*
G01*
X99000Y285250D02*
Y585250D01*
X21000Y285250D02*
Y585250D01*
X99000D01*
X21000Y285250D02*
X99000D01*
Y175750D02*
Y275750D01*
X21000Y175750D02*
Y275750D01*
X99000D01*
X21000Y175750D02*
X99000D01*
Y67500D02*
Y167500D01*
X21000Y67500D02*
Y167500D01*
X99000D01*
X21000Y67500D02*
X99000D01*
X140000Y246250D02*
X180000D01*
X140000Y195750D02*
X180000D01*
X126250Y28500D02*
X726250D01*
X126250Y106500D02*
X726250D01*
Y28500D02*
Y106500D01*
X126250Y28500D02*
Y106500D01*
X367000Y296100D02*
X406000D01*
X367000Y397400D02*
X406000D01*
X-32750Y890000D02*
X3050D01*
X-32750Y1048000D02*
X3050D01*
X-32750Y890000D02*
Y1048000D01*
X36450Y890000D02*
X153250D01*
Y1048000D01*
X36450D02*
X153250D01*
X118750Y791500D02*
X177550D01*
X-36450D02*
X87750D01*
X118750Y631500D02*
X177550D01*
X-36450D02*
X87750D01*
X-36450D02*
Y791500D01*
X177550Y631500D02*
Y791500D01*
X210970Y781100D02*
X214990D01*
X210910Y781160D02*
X210970Y781100D01*
X210910Y781160D02*
Y785120D01*
X246990Y781070D02*
X250950D01*
X251010Y781130D02*
Y785150D01*
X210980Y821150D02*
X214940D01*
X210920Y817070D02*
Y821090D01*
X251030Y817120D02*
Y821080D01*
X246950Y821140D02*
X250970D01*
X438750Y935500D02*
Y945500D01*
X410750Y935500D02*
Y945500D01*
X636550Y311200D02*
Y379800D01*
X694950Y311200D02*
Y379800D01*
X831950Y1048000D02*
X867750D01*
X831950Y890000D02*
X867750D01*
Y1048000D01*
X681750D02*
X798550D01*
X681750Y890000D02*
Y1048000D01*
Y890000D02*
X798550D01*
X749750Y686250D02*
Y761250D01*
X646750Y686250D02*
Y761250D01*
X477600Y712750D02*
X483000D01*
X343000D02*
X348400D01*
X477600Y572750D02*
X483000D01*
X343000D02*
X348400D01*
X483000Y707350D02*
Y712750D01*
X343000Y707350D02*
Y712750D01*
X483000Y572750D02*
Y578150D01*
X343000Y572750D02*
Y578150D01*
X769250Y600550D02*
X829250D01*
X769250D02*
Y797050D01*
X829250D01*
Y600550D02*
Y797050D01*
D17*
X805600Y428020D02*
X832500D01*
Y428250D01*
X702500Y428020D02*
X729400D01*
X702500D02*
Y428250D01*
X805600Y298480D02*
X832500D01*
Y298250D02*
Y298480D01*
X702500D02*
X729400D01*
X702500Y298250D02*
Y298480D01*
Y298250D02*
Y298480D01*
D18*
X244040Y1066538D02*
X248039D01*
X246039D01*
Y1060540D01*
X253037D02*
X251038D01*
X250038Y1061540D01*
Y1063539D01*
X251038Y1064539D01*
X253037D01*
X254037Y1063539D01*
Y1062539D01*
X250038D01*
X256036Y1064539D02*
Y1060540D01*
Y1062539D01*
X257036Y1063539D01*
X258036Y1064539D01*
X259035D01*
X262034Y1060540D02*
Y1064539D01*
X263034D01*
X264034Y1063539D01*
Y1060540D01*
Y1063539D01*
X265033Y1064539D01*
X266033Y1063539D01*
Y1060540D01*
X268032D02*
X270032D01*
X269032D01*
Y1064539D01*
X268032D01*
X273031Y1060540D02*
Y1064539D01*
X276030D01*
X277029Y1063539D01*
Y1060540D01*
X280028Y1064539D02*
X282028D01*
X283027Y1063539D01*
Y1060540D01*
X280028D01*
X279029Y1061540D01*
X280028Y1062539D01*
X283027D01*
X286026Y1065538D02*
Y1064539D01*
X285027D01*
X287026D01*
X286026D01*
Y1061540D01*
X287026Y1060540D01*
X291025D02*
X293024D01*
X294024Y1061540D01*
Y1063539D01*
X293024Y1064539D01*
X291025D01*
X290025Y1063539D01*
Y1061540D01*
X291025Y1060540D01*
X296023Y1064539D02*
Y1060540D01*
Y1062539D01*
X297023Y1063539D01*
X298022Y1064539D01*
X299022D01*
X185710Y990040D02*
X179712D01*
Y993039D01*
X180712Y994039D01*
X182711D01*
X183711Y993039D01*
Y990040D01*
Y992039D02*
X185710Y994039D01*
X180712Y1000037D02*
X179712Y999037D01*
Y997038D01*
X180712Y996038D01*
X181711D01*
X182711Y997038D01*
Y999037D01*
X183711Y1000037D01*
X184710D01*
X185710Y999037D01*
Y997038D01*
X184710Y996038D01*
X185710Y1005035D02*
X179712D01*
X182711Y1002036D01*
Y1006035D01*
X180712Y1008034D02*
X179712Y1009034D01*
Y1011033D01*
X180712Y1012033D01*
X181711D01*
X182711Y1011033D01*
X183711Y1012033D01*
X184710D01*
X185710Y1011033D01*
Y1009034D01*
X184710Y1008034D01*
X183711D01*
X182711Y1009034D01*
X181711Y1008034D01*
X180712D01*
X182711Y1009034D02*
Y1011033D01*
X179712Y1018031D02*
Y1014032D01*
X182711D01*
X181711Y1016032D01*
Y1017031D01*
X182711Y1018031D01*
X184710D01*
X185710Y1017031D01*
Y1015032D01*
X184710Y1014032D01*
X647290Y1060460D02*
X653288D01*
Y1057461D01*
X652288Y1056461D01*
X650289D01*
X649289Y1057461D01*
Y1060460D01*
Y1058461D02*
X647290Y1056461D01*
X652288Y1050463D02*
X653288Y1051463D01*
Y1053462D01*
X652288Y1054462D01*
X651289D01*
X650289Y1053462D01*
Y1051463D01*
X649289Y1050463D01*
X648290D01*
X647290Y1051463D01*
Y1053462D01*
X648290Y1054462D01*
X647290Y1045465D02*
X653288D01*
X650289Y1048464D01*
Y1044465D01*
X652288Y1042466D02*
X653288Y1041466D01*
Y1039467D01*
X652288Y1038467D01*
X651289D01*
X650289Y1039467D01*
X649289Y1038467D01*
X648290D01*
X647290Y1039467D01*
Y1041466D01*
X648290Y1042466D01*
X649289D01*
X650289Y1041466D01*
X651289Y1042466D01*
X652288D01*
X650289Y1041466D02*
Y1039467D01*
X653288Y1032469D02*
Y1036468D01*
X650289D01*
X651289Y1034468D01*
Y1033469D01*
X650289Y1032469D01*
X648290D01*
X647290Y1033469D01*
Y1035468D01*
X648290Y1036468D01*
X157252Y257999D02*
Y253001D01*
X158251Y252001D01*
X160251D01*
X161250Y253001D01*
Y257999D01*
X167248Y252001D02*
X163250D01*
X167248Y256000D01*
Y256999D01*
X166249Y257999D01*
X164249D01*
X163250Y256999D01*
X41249Y438000D02*
Y439999D01*
Y438999D01*
X36251D01*
X35251Y439999D01*
Y440999D01*
X36251Y441998D01*
X41249Y432002D02*
Y436000D01*
X38250D01*
X39250Y434001D01*
Y433001D01*
X38250Y432002D01*
X36251D01*
X35251Y433001D01*
Y435001D01*
X36251Y436000D01*
X345660Y412644D02*
Y407646D01*
X346660Y406646D01*
X348659D01*
X349659Y407646D01*
Y412644D01*
X354657Y406646D02*
Y412644D01*
X351658Y409645D01*
X355657D01*
X583722Y292376D02*
Y298374D01*
X586721D01*
X587721Y297374D01*
Y295375D01*
X586721Y294375D01*
X583722D01*
X585721D02*
X587721Y292376D01*
X589720Y298374D02*
X593719D01*
Y297374D01*
X589720Y293376D01*
Y292376D01*
X595718Y297374D02*
X596718Y298374D01*
X598717D01*
X599717Y297374D01*
Y293376D01*
X598717Y292376D01*
X596718D01*
X595718Y293376D01*
Y297374D01*
X690342Y167322D02*
Y173320D01*
X693341D01*
X694341Y172320D01*
Y170321D01*
X693341Y169321D01*
X690342D01*
X692341D02*
X694341Y167322D01*
X700339Y173320D02*
X698339Y172320D01*
X696340Y170321D01*
Y168322D01*
X697340Y167322D01*
X699339D01*
X700339Y168322D01*
Y169321D01*
X699339Y170321D01*
X696340D01*
X702338Y168322D02*
X703338Y167322D01*
X705337D01*
X706337Y168322D01*
Y172320D01*
X705337Y173320D01*
X703338D01*
X702338Y172320D01*
Y171321D01*
X703338Y170321D01*
X706337D01*
X613749Y197503D02*
X607751D01*
Y200502D01*
X608751Y201501D01*
X610750D01*
X611750Y200502D01*
Y197503D01*
Y199502D02*
X613749Y201501D01*
X607751Y207499D02*
X608751Y205500D01*
X610750Y203501D01*
X612749D01*
X613749Y204500D01*
Y206500D01*
X612749Y207499D01*
X611750D01*
X610750Y206500D01*
Y203501D01*
X608751Y209499D02*
X607751Y210498D01*
Y212498D01*
X608751Y213497D01*
X609750D01*
X610750Y212498D01*
X611750Y213497D01*
X612749D01*
X613749Y212498D01*
Y210498D01*
X612749Y209499D01*
X611750D01*
X610750Y210498D01*
X609750Y209499D01*
X608751D01*
X610750Y210498D02*
Y212498D01*
X658374Y167614D02*
Y173612D01*
X661373D01*
X662373Y172612D01*
Y170613D01*
X661373Y169613D01*
X658374D01*
X660373D02*
X662373Y167614D01*
X668371Y173612D02*
X666371Y172612D01*
X664372Y170613D01*
Y168614D01*
X665372Y167614D01*
X667371D01*
X668371Y168614D01*
Y169613D01*
X667371Y170613D01*
X664372D01*
X670370Y173612D02*
X674369D01*
Y172612D01*
X670370Y168614D01*
Y167614D01*
X613999Y144503D02*
X608001D01*
Y147502D01*
X609001Y148501D01*
X611000D01*
X612000Y147502D01*
Y144503D01*
Y146502D02*
X613999Y148501D01*
X608001Y154499D02*
X609001Y152500D01*
X611000Y150501D01*
X612999D01*
X613999Y151500D01*
Y153500D01*
X612999Y154499D01*
X612000D01*
X611000Y153500D01*
Y150501D01*
X608001Y160497D02*
X609001Y158498D01*
X611000Y156499D01*
X612999D01*
X613999Y157498D01*
Y159498D01*
X612999Y160497D01*
X612000D01*
X611000Y159498D01*
Y156499D01*
X629786Y167594D02*
Y173592D01*
X632785D01*
X633785Y172592D01*
Y170593D01*
X632785Y169593D01*
X629786D01*
X631785D02*
X633785Y167594D01*
X639783Y173592D02*
X637783Y172592D01*
X635784Y170593D01*
Y168594D01*
X636784Y167594D01*
X638783D01*
X639783Y168594D01*
Y169593D01*
X638783Y170593D01*
X635784D01*
X645781Y173592D02*
X641782D01*
Y170593D01*
X643782Y171593D01*
X644781D01*
X645781Y170593D01*
Y168594D01*
X644781Y167594D01*
X642782D01*
X641782Y168594D01*
X424249Y162003D02*
X418251D01*
Y165002D01*
X419251Y166001D01*
X421250D01*
X422250Y165002D01*
Y162003D01*
Y164002D02*
X424249Y166001D01*
X418251Y171999D02*
X419251Y170000D01*
X421250Y168001D01*
X423249D01*
X424249Y169000D01*
Y171000D01*
X423249Y171999D01*
X422250D01*
X421250Y171000D01*
Y168001D01*
X424249Y176998D02*
X418251D01*
X421250Y173999D01*
Y177997D01*
X385999Y163003D02*
X380001D01*
Y166002D01*
X381001Y167001D01*
X383000D01*
X384000Y166002D01*
Y163003D01*
Y165002D02*
X385999Y167001D01*
X380001Y172999D02*
X381001Y171000D01*
X383000Y169001D01*
X384999D01*
X385999Y170000D01*
Y172000D01*
X384999Y172999D01*
X384000D01*
X383000Y172000D01*
Y169001D01*
X381001Y174999D02*
X380001Y175998D01*
Y177998D01*
X381001Y178997D01*
X382000D01*
X383000Y177998D01*
Y176998D01*
Y177998D01*
X384000Y178997D01*
X384999D01*
X385999Y177998D01*
Y175998D01*
X384999Y174999D01*
X348249Y163753D02*
X342251D01*
Y166752D01*
X343251Y167751D01*
X345250D01*
X346250Y166752D01*
Y163753D01*
Y165752D02*
X348249Y167751D01*
X342251Y173749D02*
X343251Y171750D01*
X345250Y169751D01*
X347249D01*
X348249Y170750D01*
Y172750D01*
X347249Y173749D01*
X346250D01*
X345250Y172750D01*
Y169751D01*
X348249Y179747D02*
Y175749D01*
X344250Y179747D01*
X343251D01*
X342251Y178748D01*
Y176748D01*
X343251Y175749D01*
X310499Y163253D02*
X304501D01*
Y166252D01*
X305501Y167251D01*
X307500D01*
X308500Y166252D01*
Y163253D01*
Y165252D02*
X310499Y167251D01*
X304501Y173249D02*
X305501Y171250D01*
X307500Y169251D01*
X309499D01*
X310499Y170250D01*
Y172250D01*
X309499Y173249D01*
X308500D01*
X307500Y172250D01*
Y169251D01*
X310499Y175249D02*
Y177248D01*
Y176248D01*
X304501D01*
X305501Y175249D01*
X273499Y162503D02*
X267501D01*
Y165502D01*
X268501Y166501D01*
X270500D01*
X271500Y165502D01*
Y162503D01*
Y164502D02*
X273499Y166501D01*
X267501Y172499D02*
X268501Y170500D01*
X270500Y168501D01*
X272499D01*
X273499Y169500D01*
Y171500D01*
X272499Y172499D01*
X271500D01*
X270500Y171500D01*
Y168501D01*
X268501Y174499D02*
X267501Y175498D01*
Y177498D01*
X268501Y178497D01*
X272499D01*
X273499Y177498D01*
Y175498D01*
X272499Y174499D01*
X268501D01*
X236749Y162253D02*
X230751D01*
Y165252D01*
X231751Y166251D01*
X233750D01*
X234750Y165252D01*
Y162253D01*
Y164252D02*
X236749Y166251D01*
X230751Y172249D02*
Y168251D01*
X233750D01*
X232750Y170250D01*
Y171250D01*
X233750Y172249D01*
X235749D01*
X236749Y171250D01*
Y169250D01*
X235749Y168251D01*
Y174249D02*
X236749Y175248D01*
Y177248D01*
X235749Y178247D01*
X231751D01*
X230751Y177248D01*
Y175248D01*
X231751Y174249D01*
X232750D01*
X233750Y175248D01*
Y178247D01*
X432253Y203001D02*
Y208999D01*
X435252D01*
X436251Y207999D01*
Y206000D01*
X435252Y205000D01*
X432253D01*
X434252D02*
X436251Y203001D01*
X442249Y208999D02*
X438251D01*
Y206000D01*
X440250Y207000D01*
X441250D01*
X442249Y206000D01*
Y204001D01*
X441250Y203001D01*
X439250D01*
X438251Y204001D01*
X444249Y207999D02*
X445248Y208999D01*
X447248D01*
X448247Y207999D01*
Y207000D01*
X447248Y206000D01*
X448247Y205000D01*
Y204001D01*
X447248Y203001D01*
X445248D01*
X444249Y204001D01*
Y205000D01*
X445248Y206000D01*
X444249Y207000D01*
Y207999D01*
X445248Y206000D02*
X447248D01*
X393753Y203251D02*
Y209249D01*
X396752D01*
X397751Y208249D01*
Y206250D01*
X396752Y205250D01*
X393753D01*
X395752D02*
X397751Y203251D01*
X403749Y209249D02*
X399751D01*
Y206250D01*
X401750Y207250D01*
X402750D01*
X403749Y206250D01*
Y204251D01*
X402750Y203251D01*
X400750D01*
X399751Y204251D01*
X405749Y209249D02*
X409747D01*
Y208249D01*
X405749Y204251D01*
Y203251D01*
X355503Y202251D02*
Y208249D01*
X358502D01*
X359501Y207249D01*
Y205250D01*
X358502Y204250D01*
X355503D01*
X357502D02*
X359501Y202251D01*
X365499Y208249D02*
X361501D01*
Y205250D01*
X363500Y206250D01*
X364500D01*
X365499Y205250D01*
Y203251D01*
X364500Y202251D01*
X362500D01*
X361501Y203251D01*
X371497Y208249D02*
X369498Y207249D01*
X367499Y205250D01*
Y203251D01*
X368498Y202251D01*
X370498D01*
X371497Y203251D01*
Y204250D01*
X370498Y205250D01*
X367499D01*
X504823Y918857D02*
Y924855D01*
X507822D01*
X508821Y923855D01*
Y921856D01*
X507822Y920856D01*
X504823D01*
X506822D02*
X508821Y918857D01*
X514819Y924855D02*
X510821D01*
Y921856D01*
X512820Y922855D01*
X513820D01*
X514819Y921856D01*
Y919856D01*
X513820Y918857D01*
X511820D01*
X510821Y919856D01*
X520817Y924855D02*
X516819D01*
Y921856D01*
X518818Y922855D01*
X519818D01*
X520817Y921856D01*
Y919856D01*
X519818Y918857D01*
X517818D01*
X516819Y919856D01*
X317253Y202501D02*
Y208499D01*
X320252D01*
X321251Y207499D01*
Y205500D01*
X320252Y204500D01*
X317253D01*
X319252D02*
X321251Y202501D01*
X327249Y208499D02*
X323251D01*
Y205500D01*
X325250Y206500D01*
X326250D01*
X327249Y205500D01*
Y203501D01*
X326250Y202501D01*
X324250D01*
X323251Y203501D01*
X332248Y202501D02*
Y208499D01*
X329249Y205500D01*
X333247D01*
X280003Y203251D02*
Y209249D01*
X283002D01*
X284001Y208249D01*
Y206250D01*
X283002Y205250D01*
X280003D01*
X282002D02*
X284001Y203251D01*
X289999Y209249D02*
X286001D01*
Y206250D01*
X288000Y207250D01*
X289000D01*
X289999Y206250D01*
Y204251D01*
X289000Y203251D01*
X287000D01*
X286001Y204251D01*
X291999Y208249D02*
X292998Y209249D01*
X294998D01*
X295997Y208249D01*
Y207250D01*
X294998Y206250D01*
X293998D01*
X294998D01*
X295997Y205250D01*
Y204251D01*
X294998Y203251D01*
X292998D01*
X291999Y204251D01*
X243003Y203501D02*
Y209499D01*
X246002D01*
X247001Y208499D01*
Y206500D01*
X246002Y205500D01*
X243003D01*
X245002D02*
X247001Y203501D01*
X252999Y209499D02*
X249001D01*
Y206500D01*
X251000Y207500D01*
X252000D01*
X252999Y206500D01*
Y204501D01*
X252000Y203501D01*
X250000D01*
X249001Y204501D01*
X258997Y203501D02*
X254999D01*
X258997Y207500D01*
Y208499D01*
X257998Y209499D01*
X255998D01*
X254999Y208499D01*
X431798Y261548D02*
Y267546D01*
X434797D01*
X435797Y266546D01*
Y264547D01*
X434797Y263547D01*
X431798D01*
X433797D02*
X435797Y261548D01*
X441795Y267546D02*
X437796D01*
Y264547D01*
X439795Y265547D01*
X440795D01*
X441795Y264547D01*
Y262548D01*
X440795Y261548D01*
X438796D01*
X437796Y262548D01*
X443794Y261548D02*
X445793D01*
X444794D01*
Y267546D01*
X443794Y266546D01*
X394158Y261618D02*
Y267616D01*
X397157D01*
X398157Y266616D01*
Y264617D01*
X397157Y263617D01*
X394158D01*
X396157D02*
X398157Y261618D01*
X404155Y267616D02*
X400156D01*
Y264617D01*
X402155Y265617D01*
X403155D01*
X404155Y264617D01*
Y262618D01*
X403155Y261618D01*
X401156D01*
X400156Y262618D01*
X406154Y266616D02*
X407154Y267616D01*
X409153D01*
X410153Y266616D01*
Y262618D01*
X409153Y261618D01*
X407154D01*
X406154Y262618D01*
Y266616D01*
X356720Y261540D02*
Y267538D01*
X359719D01*
X360719Y266538D01*
Y264539D01*
X359719Y263539D01*
X356720D01*
X358719D02*
X360719Y261540D01*
X365717D02*
Y267538D01*
X362718Y264539D01*
X366717D01*
X368716Y262540D02*
X369716Y261540D01*
X371715D01*
X372715Y262540D01*
Y266538D01*
X371715Y267538D01*
X369716D01*
X368716Y266538D01*
Y265539D01*
X369716Y264539D01*
X372715D01*
X319056Y261562D02*
Y267560D01*
X322055D01*
X323055Y266560D01*
Y264561D01*
X322055Y263561D01*
X319056D01*
X321055D02*
X323055Y261562D01*
X328053D02*
Y267560D01*
X325054Y264561D01*
X329053D01*
X331052Y266560D02*
X332052Y267560D01*
X334051D01*
X335051Y266560D01*
Y265561D01*
X334051Y264561D01*
X335051Y263561D01*
Y262562D01*
X334051Y261562D01*
X332052D01*
X331052Y262562D01*
Y263561D01*
X332052Y264561D01*
X331052Y265561D01*
Y266560D01*
X332052Y264561D02*
X334051D01*
X281476Y261640D02*
Y267638D01*
X284475D01*
X285475Y266638D01*
Y264639D01*
X284475Y263639D01*
X281476D01*
X283475D02*
X285475Y261640D01*
X290473D02*
Y267638D01*
X287474Y264639D01*
X291473D01*
X293472Y267638D02*
X297471D01*
Y266638D01*
X293472Y262640D01*
Y261640D01*
X244070Y261614D02*
Y267612D01*
X247069D01*
X248069Y266612D01*
Y264613D01*
X247069Y263613D01*
X244070D01*
X246069D02*
X248069Y261614D01*
X250068Y266612D02*
X251068Y267612D01*
X253067D01*
X254067Y266612D01*
Y265613D01*
X253067Y264613D01*
X252067D01*
X253067D01*
X254067Y263613D01*
Y262614D01*
X253067Y261614D01*
X251068D01*
X250068Y262614D01*
X260065Y267612D02*
X258065Y266612D01*
X256066Y264613D01*
Y262614D01*
X257066Y261614D01*
X259065D01*
X260065Y262614D01*
Y263613D01*
X259065Y264613D01*
X256066D01*
X106253Y544751D02*
Y550749D01*
X109252D01*
X110252Y549749D01*
Y547750D01*
X109252Y546750D01*
X106253D01*
X108252D02*
X110252Y544751D01*
X112251Y549749D02*
X113251Y550749D01*
X115250D01*
X116250Y549749D01*
Y548750D01*
X115250Y547750D01*
X114250D01*
X115250D01*
X116250Y546750D01*
Y545751D01*
X115250Y544751D01*
X113251D01*
X112251Y545751D01*
X122248Y550749D02*
X118249D01*
Y547750D01*
X120248Y548750D01*
X121248D01*
X122248Y547750D01*
Y545751D01*
X121248Y544751D01*
X119249D01*
X118249Y545751D01*
X106253Y479501D02*
Y485499D01*
X109252D01*
X110252Y484499D01*
Y482500D01*
X109252Y481500D01*
X106253D01*
X108252D02*
X110252Y479501D01*
X112251Y484499D02*
X113251Y485499D01*
X115250D01*
X116250Y484499D01*
Y483500D01*
X115250Y482500D01*
X114250D01*
X115250D01*
X116250Y481500D01*
Y480501D01*
X115250Y479501D01*
X113251D01*
X112251Y480501D01*
X121248Y479501D02*
Y485499D01*
X118249Y482500D01*
X122248D01*
X106253Y420501D02*
Y426499D01*
X109252D01*
X110252Y425499D01*
Y423500D01*
X109252Y422500D01*
X106253D01*
X108252D02*
X110252Y420501D01*
X112251Y425499D02*
X113251Y426499D01*
X115250D01*
X116250Y425499D01*
Y424500D01*
X115250Y423500D01*
X114250D01*
X115250D01*
X116250Y422500D01*
Y421501D01*
X115250Y420501D01*
X113251D01*
X112251Y421501D01*
X118249Y425499D02*
X119249Y426499D01*
X121248D01*
X122248Y425499D01*
Y424500D01*
X121248Y423500D01*
X120248D01*
X121248D01*
X122248Y422500D01*
Y421501D01*
X121248Y420501D01*
X119249D01*
X118249Y421501D01*
X106253Y362501D02*
Y368499D01*
X109252D01*
X110252Y367499D01*
Y365500D01*
X109252Y364500D01*
X106253D01*
X108252D02*
X110252Y362501D01*
X112251Y367499D02*
X113251Y368499D01*
X115250D01*
X116250Y367499D01*
Y366500D01*
X115250Y365500D01*
X114250D01*
X115250D01*
X116250Y364500D01*
Y363501D01*
X115250Y362501D01*
X113251D01*
X112251Y363501D01*
X122248Y362501D02*
X118249D01*
X122248Y366500D01*
Y367499D01*
X121248Y368499D01*
X119249D01*
X118249Y367499D01*
X344749Y774503D02*
X338751D01*
Y777502D01*
X339751Y778501D01*
X341750D01*
X342750Y777502D01*
Y774503D01*
Y776502D02*
X344749Y778501D01*
Y784499D02*
Y780501D01*
X340750Y784499D01*
X339751D01*
X338751Y783500D01*
Y781500D01*
X339751Y780501D01*
X344749Y789498D02*
X338751D01*
X341750Y786499D01*
Y790497D01*
X106253Y513251D02*
Y519249D01*
X109252D01*
X110252Y518249D01*
Y516250D01*
X109252Y515250D01*
X106253D01*
X108252D02*
X110252Y513251D01*
X112251D02*
X114250D01*
X113251D01*
Y519249D01*
X112251Y518249D01*
X117249Y519249D02*
X121248D01*
Y518249D01*
X117249Y514251D01*
Y513251D01*
X106253Y452001D02*
Y457999D01*
X109252D01*
X110252Y456999D01*
Y455000D01*
X109252Y454000D01*
X106253D01*
X108252D02*
X110252Y452001D01*
X112251D02*
X114250D01*
X113251D01*
Y457999D01*
X112251Y456999D01*
X121248Y457999D02*
X119249Y456999D01*
X117249Y455000D01*
Y453001D01*
X118249Y452001D01*
X120248D01*
X121248Y453001D01*
Y454000D01*
X120248Y455000D01*
X117249D01*
X232749Y242252D02*
X226751D01*
Y245251D01*
X227751Y246250D01*
X229750D01*
X230750Y245251D01*
Y242252D01*
Y244251D02*
X232749Y246250D01*
X231749Y248250D02*
X232749Y249249D01*
Y251249D01*
X231749Y252248D01*
X227751D01*
X226751Y251249D01*
Y249249D01*
X227751Y248250D01*
X228750D01*
X229750Y249249D01*
Y252248D01*
X514002Y272749D02*
X512002D01*
X511003Y271749D01*
Y267751D01*
X512002Y266751D01*
X514002D01*
X515001Y267751D01*
Y271749D01*
X514002Y272749D01*
X517001D02*
Y266751D01*
Y268750D01*
X520999Y272749D01*
X518000Y269750D01*
X520999Y266751D01*
X522999Y272749D02*
X526997D01*
Y271749D01*
X522999Y267751D01*
Y266751D01*
X516002Y214249D02*
X514002D01*
X513003Y213249D01*
Y209251D01*
X514002Y208251D01*
X516002D01*
X517001Y209251D01*
Y213249D01*
X516002Y214249D01*
X519001D02*
Y208251D01*
Y210250D01*
X522999Y214249D01*
X520000Y211250D01*
X522999Y208251D01*
X528997Y214249D02*
X526998Y213249D01*
X524999Y211250D01*
Y209251D01*
X525998Y208251D01*
X527998D01*
X528997Y209251D01*
Y210250D01*
X527998Y211250D01*
X524999D01*
X515752Y157749D02*
X513752D01*
X512753Y156749D01*
Y152751D01*
X513752Y151751D01*
X515752D01*
X516751Y152751D01*
Y156749D01*
X515752Y157749D01*
X518751D02*
Y151751D01*
Y153750D01*
X522749Y157749D01*
X519750Y154750D01*
X522749Y151751D01*
X528747Y157749D02*
X524749D01*
Y154750D01*
X526748Y155750D01*
X527748D01*
X528747Y154750D01*
Y152751D01*
X527748Y151751D01*
X525748D01*
X524749Y152751D01*
X212502Y534999D02*
X210502D01*
X209503Y533999D01*
Y530001D01*
X210502Y529001D01*
X212502D01*
X213501Y530001D01*
Y533999D01*
X212502Y534999D01*
X215501D02*
Y529001D01*
Y531000D01*
X219499Y534999D01*
X216500Y532000D01*
X219499Y529001D01*
X224498D02*
Y534999D01*
X221499Y532000D01*
X225497D01*
X217252Y473499D02*
X215252D01*
X214253Y472499D01*
Y468501D01*
X215252Y467501D01*
X217252D01*
X218251Y468501D01*
Y472499D01*
X217252Y473499D01*
X220251D02*
Y467501D01*
Y469500D01*
X224249Y473499D01*
X221250Y470500D01*
X224249Y467501D01*
X226249Y472499D02*
X227248Y473499D01*
X229248D01*
X230247Y472499D01*
Y471500D01*
X229248Y470500D01*
X228248D01*
X229248D01*
X230247Y469500D01*
Y468501D01*
X229248Y467501D01*
X227248D01*
X226249Y468501D01*
X216252Y415999D02*
X214252D01*
X213253Y414999D01*
Y411001D01*
X214252Y410001D01*
X216252D01*
X217251Y411001D01*
Y414999D01*
X216252Y415999D01*
X219251D02*
Y410001D01*
Y412000D01*
X223249Y415999D01*
X220250Y413000D01*
X223249Y410001D01*
X229247D02*
X225249D01*
X229247Y414000D01*
Y414999D01*
X228248Y415999D01*
X226248D01*
X225249Y414999D01*
X217001Y354999D02*
X215002D01*
X214002Y353999D01*
Y350001D01*
X215002Y349001D01*
X217001D01*
X218001Y350001D01*
Y353999D01*
X217001Y354999D01*
X220000D02*
Y349001D01*
Y351000D01*
X223999Y354999D01*
X221000Y352000D01*
X223999Y349001D01*
X225998D02*
X227998D01*
X226998D01*
Y354999D01*
X225998Y353999D01*
X129941Y132144D02*
X127941D01*
X128941D01*
Y127146D01*
X127941Y126146D01*
X126942D01*
X125942Y127146D01*
X135939Y132144D02*
X133939Y131144D01*
X131940Y129145D01*
Y127146D01*
X132940Y126146D01*
X134939D01*
X135939Y127146D01*
Y128145D01*
X134939Y129145D01*
X131940D01*
X37499Y118000D02*
Y119999D01*
Y118999D01*
X32501D01*
X31501Y119999D01*
Y120999D01*
X32501Y121998D01*
X31501Y113001D02*
X37499D01*
X34500Y116000D01*
Y112002D01*
X37499Y228250D02*
Y230249D01*
Y229249D01*
X32501D01*
X31501Y230249D01*
Y231249D01*
X32501Y232248D01*
X36499Y226250D02*
X37499Y225251D01*
Y223251D01*
X36499Y222252D01*
X35500D01*
X34500Y223251D01*
Y224251D01*
Y223251D01*
X33500Y222252D01*
X32501D01*
X31501Y223251D01*
Y225251D01*
X32501Y226250D01*
X319251Y792251D02*
X318251Y791252D01*
Y789252D01*
X319251Y788252D01*
X323249D01*
X324249Y789252D01*
Y791252D01*
X323249Y792251D01*
X324249Y794250D02*
Y796250D01*
Y795250D01*
X318251D01*
X319251Y794250D01*
Y799249D02*
X318251Y800248D01*
Y802248D01*
X319251Y803248D01*
X323249D01*
X324249Y802248D01*
Y800248D01*
X323249Y799249D01*
X319251D01*
X223251Y205000D02*
X222251Y204001D01*
Y202001D01*
X223251Y201002D01*
X227249D01*
X228249Y202001D01*
Y204001D01*
X227249Y205000D01*
Y207000D02*
X228249Y207999D01*
Y209999D01*
X227249Y210998D01*
X223251D01*
X222251Y209999D01*
Y207999D01*
X223251Y207000D01*
X224250D01*
X225250Y207999D01*
Y210998D01*
D19*
X178500Y895500D02*
D03*
X260000Y857750D02*
D03*
M02*
