G04*
G04 #@! TF.GenerationSoftware,Altium Limited,Altium Designer,20.0.13 (296)*
G04*
G04 Layer_Physical_Order=4*
G04 Layer_Color=16711680*
%FSLAX44Y44*%
%MOMM*%
G71*
G01*
G75*
%ADD13C,0.3000*%
%ADD14C,0.2500*%
%ADD40R,1.5000X1.5000*%
%ADD94C,1.0000*%
%ADD95C,0.5000*%
%ADD98R,2.6416X1.3208*%
%ADD99O,2.6416X1.3208*%
%ADD100C,2.1000*%
%ADD101R,2.1000X2.1000*%
%ADD102R,2.1000X2.1000*%
%ADD103C,1.6000*%
%ADD104R,1.6000X1.6000*%
%ADD105R,1.6000X1.6000*%
%ADD106C,4.0000*%
%ADD107C,2.7000*%
%ADD108C,1.6500*%
%ADD109R,1.6500X1.6500*%
%ADD110C,3.4000*%
%ADD111C,3.2500*%
%ADD112C,2.4450*%
%ADD113C,1.5300*%
%ADD114C,1.3980*%
%ADD115R,1.3980X1.3980*%
%ADD116R,3.0480X1.5240*%
%ADD117O,3.0480X1.5240*%
%ADD118C,3.1750*%
%ADD119C,1.4000*%
%ADD120R,1.4000X1.4000*%
%ADD121C,1.5000*%
%ADD122C,0.7000*%
%ADD123O,1.5000X0.6000*%
%ADD124R,1.5000X0.6000*%
G36*
X838441Y3059D02*
X3059D01*
Y21206D01*
X4329Y21394D01*
X4575Y20583D01*
X6668Y16667D01*
X9485Y13235D01*
X12917Y10418D01*
X16833Y8325D01*
X21081Y7036D01*
X24230Y6726D01*
Y29250D01*
Y51774D01*
X21081Y51464D01*
X16833Y50175D01*
X12917Y48082D01*
X9485Y45265D01*
X6668Y41833D01*
X4575Y37917D01*
X4329Y37106D01*
X3059Y37294D01*
Y1076191D01*
X838441D01*
X838441Y3059D01*
D02*
G37*
%LPC*%
G36*
X348650Y1049750D02*
X329650D01*
Y1030750D01*
X348650D01*
Y1049750D01*
D02*
G37*
G36*
X313750Y1049832D02*
X311270Y1049505D01*
X308959Y1048548D01*
X306975Y1047026D01*
X305452Y1045041D01*
X304494Y1042730D01*
X304168Y1040250D01*
X304494Y1037770D01*
X305452Y1035459D01*
X306975Y1033475D01*
X308959Y1031952D01*
X311270Y1030995D01*
X313750Y1030668D01*
X316230Y1030995D01*
X318541Y1031952D01*
X320525Y1033475D01*
X322048Y1035459D01*
X323005Y1037770D01*
X323332Y1040250D01*
X323005Y1042730D01*
X322048Y1045041D01*
X320525Y1047026D01*
X318541Y1048548D01*
X316230Y1049505D01*
X313750Y1049832D01*
D02*
G37*
G36*
X288350D02*
X285870Y1049505D01*
X283559Y1048548D01*
X281574Y1047026D01*
X280052Y1045041D01*
X279095Y1042730D01*
X278768Y1040250D01*
X279095Y1037770D01*
X280052Y1035459D01*
X281574Y1033475D01*
X283559Y1031952D01*
X285870Y1030995D01*
X288350Y1030668D01*
X290830Y1030995D01*
X293141Y1031952D01*
X295125Y1033475D01*
X296648Y1035459D01*
X297605Y1037770D01*
X297932Y1040250D01*
X297605Y1042730D01*
X296648Y1045041D01*
X295125Y1047026D01*
X293141Y1048548D01*
X290830Y1049505D01*
X288350Y1049832D01*
D02*
G37*
G36*
X667500Y1038598D02*
X665549Y1038210D01*
X664604Y1037578D01*
X581500D01*
X579939Y1037268D01*
X578616Y1036384D01*
X546483Y1004250D01*
X534250D01*
Y995250D01*
X552250D01*
Y998482D01*
X583190Y1029422D01*
X664604D01*
X665549Y1028790D01*
X667500Y1028402D01*
X669451Y1028790D01*
X671105Y1029895D01*
X672210Y1031549D01*
X672598Y1033500D01*
X672210Y1035451D01*
X671105Y1037105D01*
X669451Y1038210D01*
X667500Y1038598D01*
D02*
G37*
G36*
X697120Y1024166D02*
Y1014720D01*
X706566D01*
X706362Y1016267D01*
X705275Y1018892D01*
X703546Y1021146D01*
X701292Y1022875D01*
X698667Y1023962D01*
X697120Y1024166D01*
D02*
G37*
G36*
X694580D02*
X693033Y1023962D01*
X690408Y1022875D01*
X688155Y1021146D01*
X686425Y1018892D01*
X685338Y1016267D01*
X685134Y1014720D01*
X694580D01*
Y1024166D01*
D02*
G37*
G36*
X784750Y1044740D02*
X781123Y1044382D01*
X777636Y1043325D01*
X774422Y1041607D01*
X771605Y1039295D01*
X769293Y1036478D01*
X767576Y1033264D01*
X766518Y1029777D01*
X766161Y1026150D01*
X766518Y1022523D01*
X767576Y1019036D01*
X769293Y1015822D01*
X771605Y1013005D01*
X774422Y1010693D01*
X777636Y1008976D01*
X781123Y1007918D01*
X784750Y1007561D01*
X788377Y1007918D01*
X791864Y1008976D01*
X795078Y1010693D01*
X797895Y1013005D01*
X800207Y1015822D01*
X801925Y1019036D01*
X802982Y1022523D01*
X803339Y1026150D01*
X802982Y1029777D01*
X801925Y1033264D01*
X800207Y1036478D01*
X797895Y1039295D01*
X795078Y1041607D01*
X791864Y1043325D01*
X788377Y1044382D01*
X784750Y1044740D01*
D02*
G37*
G36*
X50250D02*
X46623Y1044382D01*
X43136Y1043325D01*
X39922Y1041607D01*
X37105Y1039295D01*
X34793Y1036478D01*
X33075Y1033264D01*
X32018Y1029777D01*
X31660Y1026150D01*
X32018Y1022523D01*
X33075Y1019036D01*
X34793Y1015822D01*
X37105Y1013005D01*
X39922Y1010693D01*
X43136Y1008976D01*
X46623Y1007918D01*
X50250Y1007561D01*
X53877Y1007918D01*
X57364Y1008976D01*
X60578Y1010693D01*
X63395Y1013005D01*
X65707Y1015822D01*
X67425Y1019036D01*
X68482Y1022523D01*
X68840Y1026150D01*
X68482Y1029777D01*
X67425Y1033264D01*
X65707Y1036478D01*
X63395Y1039295D01*
X60578Y1041607D01*
X57364Y1043325D01*
X53877Y1044382D01*
X50250Y1044740D01*
D02*
G37*
G36*
X123500Y1023200D02*
X104000D01*
Y1003700D01*
X123500D01*
Y1023200D01*
D02*
G37*
G36*
X706566Y1012180D02*
X697120D01*
Y1002734D01*
X698667Y1002938D01*
X701292Y1004025D01*
X703546Y1005754D01*
X705275Y1008008D01*
X706362Y1010633D01*
X706566Y1012180D01*
D02*
G37*
G36*
X694580D02*
X685134D01*
X685338Y1010633D01*
X686425Y1008008D01*
X688155Y1005754D01*
X690408Y1004025D01*
X693033Y1002938D01*
X694580Y1002734D01*
Y1012180D01*
D02*
G37*
G36*
X445500Y1045598D02*
X443549Y1045210D01*
X441895Y1044105D01*
X440790Y1042451D01*
X440402Y1040500D01*
X440790Y1038549D01*
X441895Y1036895D01*
X442696Y1036360D01*
Y1028750D01*
X442910Y1027677D01*
X443517Y1026767D01*
X478840Y991445D01*
X478652Y990500D01*
X479040Y988549D01*
X480145Y986895D01*
X481799Y985790D01*
X483750Y985402D01*
X485701Y985790D01*
X487355Y986895D01*
X488460Y988549D01*
X488848Y990500D01*
X488639Y991549D01*
X490141Y993051D01*
X500520D01*
X501593Y993265D01*
X502503Y993872D01*
X503056Y994426D01*
X505288D01*
X505780Y993156D01*
X505011Y992006D01*
X504662Y990250D01*
X505011Y988494D01*
X506006Y987006D01*
X507494Y986011D01*
X509250Y985662D01*
X518250D01*
X520006Y986011D01*
X521494Y987006D01*
X522489Y988494D01*
X522838Y990250D01*
X522489Y992006D01*
X521494Y993494D01*
X520006Y994489D01*
X518250Y994838D01*
X516554D01*
Y995766D01*
X516340Y996839D01*
X515732Y997748D01*
X514539Y998941D01*
X514376Y999750D01*
X514539Y1000559D01*
X515732Y1001752D01*
X516340Y1002662D01*
X516554Y1003735D01*
Y1004750D01*
X522750D01*
Y1013750D01*
X504750D01*
Y1005074D01*
X499807D01*
X498734Y1004861D01*
X497825Y1004253D01*
X497271Y1003699D01*
X490141D01*
X488431Y1005409D01*
X488598Y1006250D01*
X488210Y1008201D01*
X487105Y1009855D01*
X485451Y1010960D01*
X483500Y1011348D01*
X481549Y1010960D01*
X479895Y1009855D01*
X478790Y1008201D01*
X478402Y1006250D01*
X478790Y1004299D01*
X479895Y1002645D01*
X481549Y1001540D01*
X483500Y1001152D01*
X484549Y1001361D01*
X486726Y999184D01*
X486889Y998375D01*
X486726Y997566D01*
X484590Y995431D01*
X483750Y995598D01*
X482805Y995410D01*
X448304Y1029911D01*
Y1036360D01*
X449105Y1036895D01*
X450210Y1038549D01*
X450598Y1040500D01*
X450210Y1042451D01*
X449105Y1044105D01*
X447451Y1045210D01*
X445500Y1045598D01*
D02*
G37*
G36*
X452250Y991848D02*
X450299Y991460D01*
X448645Y990355D01*
X447540Y988701D01*
X447152Y986750D01*
X447540Y984799D01*
X448645Y983145D01*
X450299Y982040D01*
X452250Y981652D01*
X454201Y982040D01*
X455855Y983145D01*
X456960Y984799D01*
X457348Y986750D01*
X456960Y988701D01*
X455855Y990355D01*
X454201Y991460D01*
X452250Y991848D01*
D02*
G37*
G36*
X113750Y997884D02*
X111205Y997549D01*
X108833Y996567D01*
X106796Y995004D01*
X105233Y992967D01*
X104251Y990595D01*
X103916Y988050D01*
X104251Y985505D01*
X105233Y983133D01*
X106796Y981096D01*
X108833Y979533D01*
X111205Y978551D01*
X113750Y978216D01*
X116295Y978551D01*
X118667Y979533D01*
X120704Y981096D01*
X122267Y983133D01*
X123249Y985505D01*
X123584Y988050D01*
X123249Y990595D01*
X122267Y992967D01*
X120704Y995004D01*
X118667Y996567D01*
X116295Y997549D01*
X113750Y997884D01*
D02*
G37*
G36*
X139150Y1010584D02*
X136605Y1010249D01*
X134233Y1009267D01*
X132196Y1007704D01*
X130633Y1005667D01*
X129651Y1003295D01*
X129316Y1000750D01*
X129651Y998205D01*
X130633Y995833D01*
X132196Y993796D01*
X134233Y992233D01*
X134939Y991941D01*
X134983Y990548D01*
X134511Y990233D01*
X116389Y972110D01*
X116295Y972149D01*
X113750Y972484D01*
X111205Y972149D01*
X108833Y971167D01*
X106796Y969604D01*
X105233Y967567D01*
X104251Y965195D01*
X103916Y962650D01*
X104251Y960105D01*
X105233Y957733D01*
X106796Y955696D01*
X108833Y954133D01*
X111205Y953151D01*
X113750Y952816D01*
X116295Y953151D01*
X118667Y954133D01*
X120704Y955696D01*
X122267Y957733D01*
X123249Y960105D01*
X123584Y962650D01*
X123249Y965195D01*
X122267Y967567D01*
X121185Y968976D01*
X128185Y975976D01*
X128940Y975604D01*
X129320Y975315D01*
X129651Y972805D01*
X130633Y970433D01*
X132196Y968396D01*
X134233Y966833D01*
X136605Y965851D01*
X139150Y965516D01*
X141695Y965851D01*
X144067Y966833D01*
X146104Y968396D01*
X147667Y970433D01*
X148649Y972805D01*
X148840Y974258D01*
X160027D01*
X173617Y960667D01*
X174527Y960060D01*
X175600Y959846D01*
X175600Y959846D01*
X397029D01*
X397708Y958576D01*
X397290Y957951D01*
X396902Y956000D01*
X397290Y954049D01*
X398395Y952395D01*
X400049Y951290D01*
X402000Y950902D01*
X403951Y951290D01*
X405605Y952395D01*
X406710Y954049D01*
X407098Y956000D01*
X406710Y957951D01*
X406292Y958576D01*
X406971Y959846D01*
X686458D01*
X687333Y957733D01*
X688896Y955696D01*
X690933Y954133D01*
X693305Y953151D01*
X695850Y952816D01*
X698395Y953151D01*
X700767Y954133D01*
X702804Y955696D01*
X704367Y957733D01*
X705349Y960105D01*
X705684Y962650D01*
X705349Y965195D01*
X704367Y967567D01*
X702804Y969604D01*
X700767Y971167D01*
X700503Y971276D01*
X700755Y972546D01*
X711858D01*
X712733Y970433D01*
X714296Y968396D01*
X716333Y966833D01*
X718705Y965851D01*
X721250Y965516D01*
X723795Y965851D01*
X726167Y966833D01*
X728204Y968396D01*
X729767Y970433D01*
X730749Y972805D01*
X731084Y975350D01*
X730749Y977895D01*
X729767Y980267D01*
X728204Y982304D01*
X726167Y983867D01*
X723795Y984849D01*
X721250Y985184D01*
X718705Y984849D01*
X716333Y983867D01*
X714296Y982304D01*
X712733Y980267D01*
X711858Y978154D01*
X700755D01*
X700503Y979424D01*
X700767Y979533D01*
X702804Y981096D01*
X704367Y983133D01*
X705349Y985505D01*
X705684Y988050D01*
X705349Y990595D01*
X704367Y992967D01*
X702804Y995004D01*
X700767Y996567D01*
X698395Y997549D01*
X695850Y997884D01*
X693305Y997549D01*
X690933Y996567D01*
X688896Y995004D01*
X687333Y992967D01*
X686351Y990595D01*
X686016Y988050D01*
X686351Y985505D01*
X687333Y983133D01*
X688896Y981096D01*
X690933Y979533D01*
X691197Y979424D01*
X690945Y978154D01*
X210061D01*
X197983Y990233D01*
X197073Y990840D01*
X196000Y991054D01*
X144538D01*
X144189Y991928D01*
X144185Y992324D01*
X146104Y993796D01*
X147667Y995833D01*
X148649Y998205D01*
X148984Y1000750D01*
X148649Y1003295D01*
X147667Y1005667D01*
X146104Y1007704D01*
X144067Y1009267D01*
X141695Y1010249D01*
X139150Y1010584D01*
D02*
G37*
G36*
X721250Y959784D02*
X718705Y959449D01*
X716333Y958467D01*
X714296Y956904D01*
X712733Y954867D01*
X711751Y952495D01*
X711416Y949950D01*
X711751Y947405D01*
X712733Y945033D01*
X714296Y942996D01*
X716333Y941433D01*
X718705Y940451D01*
X721250Y940116D01*
X723795Y940451D01*
X726167Y941433D01*
X728204Y942996D01*
X729767Y945033D01*
X730749Y947405D01*
X731084Y949950D01*
X730749Y952495D01*
X729767Y954867D01*
X728204Y956904D01*
X726167Y958467D01*
X723795Y959449D01*
X721250Y959784D01*
D02*
G37*
G36*
X139150D02*
X136605Y959449D01*
X134233Y958467D01*
X132196Y956904D01*
X130633Y954867D01*
X129651Y952495D01*
X129316Y949950D01*
X129651Y947405D01*
X130633Y945033D01*
X132196Y942996D01*
X134233Y941433D01*
X136605Y940451D01*
X139150Y940116D01*
X141695Y940451D01*
X144067Y941433D01*
X146104Y942996D01*
X147667Y945033D01*
X148649Y947405D01*
X148984Y949950D01*
X148649Y952495D01*
X147667Y954867D01*
X146104Y956904D01*
X144067Y958467D01*
X141695Y959449D01*
X139150Y959784D01*
D02*
G37*
G36*
X695850Y947084D02*
X693305Y946749D01*
X690933Y945767D01*
X688896Y944204D01*
X687333Y942167D01*
X686351Y939795D01*
X686016Y937250D01*
X686351Y934705D01*
X687333Y932333D01*
X688896Y930296D01*
X690933Y928733D01*
X693305Y927751D01*
X695850Y927416D01*
X698395Y927751D01*
X700767Y928733D01*
X702804Y930296D01*
X704367Y932333D01*
X705349Y934705D01*
X705684Y937250D01*
X705349Y939795D01*
X704367Y942167D01*
X702804Y944204D01*
X700767Y945767D01*
X698395Y946749D01*
X695850Y947084D01*
D02*
G37*
G36*
X140420Y935266D02*
Y925820D01*
X149866D01*
X149662Y927367D01*
X148575Y929992D01*
X146846Y932246D01*
X144592Y933975D01*
X141967Y935062D01*
X140420Y935266D01*
D02*
G37*
G36*
X137880Y935266D02*
X136333Y935062D01*
X133708Y933975D01*
X131454Y932246D01*
X129725Y929992D01*
X128638Y927367D01*
X128434Y925820D01*
X137880D01*
Y935266D01*
D02*
G37*
G36*
X731000Y934300D02*
X711500D01*
Y914800D01*
X731000D01*
Y934300D01*
D02*
G37*
G36*
X137880Y923280D02*
X128434D01*
X128638Y921733D01*
X129725Y919109D01*
X131454Y916854D01*
X133708Y915125D01*
X136333Y914038D01*
X137880Y913834D01*
Y923280D01*
D02*
G37*
G36*
X149866D02*
X140420D01*
Y913834D01*
X141967Y914038D01*
X144592Y915125D01*
X146846Y916854D01*
X148575Y919109D01*
X149662Y921733D01*
X149866Y923280D01*
D02*
G37*
G36*
X784750Y930440D02*
X781123Y930082D01*
X777636Y929025D01*
X774422Y927307D01*
X771605Y924995D01*
X769293Y922178D01*
X767576Y918964D01*
X766518Y915477D01*
X766161Y911850D01*
X766518Y908223D01*
X767576Y904736D01*
X769293Y901522D01*
X771605Y898705D01*
X774422Y896393D01*
X777636Y894676D01*
X781123Y893618D01*
X784750Y893260D01*
X788377Y893618D01*
X791864Y894676D01*
X795078Y896393D01*
X797895Y898705D01*
X800207Y901522D01*
X801925Y904736D01*
X802982Y908223D01*
X803339Y911850D01*
X802982Y915477D01*
X801925Y918964D01*
X800207Y922178D01*
X797895Y924995D01*
X795078Y927307D01*
X791864Y929025D01*
X788377Y930082D01*
X784750Y930440D01*
D02*
G37*
G36*
X50250D02*
X46623Y930082D01*
X43136Y929025D01*
X39922Y927307D01*
X37105Y924995D01*
X34793Y922178D01*
X33075Y918964D01*
X32018Y915477D01*
X31660Y911850D01*
X32018Y908223D01*
X33075Y904736D01*
X34793Y901522D01*
X37105Y898705D01*
X39922Y896393D01*
X43136Y894676D01*
X46623Y893618D01*
X50250Y893260D01*
X53877Y893618D01*
X57364Y894676D01*
X60578Y896393D01*
X63395Y898705D01*
X65707Y901522D01*
X67425Y904736D01*
X68482Y908223D01*
X68840Y911850D01*
X68482Y915477D01*
X67425Y918964D01*
X65707Y922178D01*
X63395Y924995D01*
X60578Y927307D01*
X57364Y929025D01*
X53877Y930082D01*
X50250Y930440D01*
D02*
G37*
G36*
X452750Y899098D02*
X450799Y898710D01*
X449145Y897605D01*
X448040Y895951D01*
X447652Y894000D01*
X448040Y892049D01*
X449145Y890395D01*
X450799Y889290D01*
X452750Y888902D01*
X454701Y889290D01*
X456355Y890395D01*
X457460Y892049D01*
X457848Y894000D01*
X457460Y895951D01*
X456355Y897605D01*
X454701Y898710D01*
X452750Y899098D01*
D02*
G37*
G36*
X395250Y898348D02*
X393299Y897960D01*
X391645Y896855D01*
X390540Y895201D01*
X390152Y893250D01*
X390540Y891299D01*
X391645Y889645D01*
X393299Y888540D01*
X395250Y888152D01*
X397201Y888540D01*
X398855Y889645D01*
X399960Y891299D01*
X400348Y893250D01*
X399960Y895201D01*
X398855Y896855D01*
X397201Y897960D01*
X395250Y898348D01*
D02*
G37*
G36*
X815250Y1061573D02*
X812309Y1061283D01*
X809482Y1060425D01*
X806876Y1059032D01*
X804592Y1057158D01*
X802718Y1054874D01*
X801325Y1052268D01*
X800467Y1049441D01*
X800177Y1046500D01*
X800467Y1043559D01*
X801325Y1040732D01*
X802718Y1038126D01*
X804592Y1035842D01*
X806876Y1033968D01*
X809482Y1032575D01*
X811172Y1032062D01*
Y932500D01*
Y905938D01*
X809482Y905425D01*
X806876Y904032D01*
X804592Y902158D01*
X802718Y899874D01*
X801325Y897268D01*
X800467Y894441D01*
X800177Y891500D01*
X800467Y888559D01*
X801325Y885732D01*
X802718Y883126D01*
X804592Y880842D01*
X806876Y878968D01*
X809482Y877575D01*
X812309Y876717D01*
X815250Y876428D01*
X818191Y876717D01*
X821018Y877575D01*
X823624Y878968D01*
X825908Y880842D01*
X827782Y883126D01*
X829175Y885732D01*
X830033Y888559D01*
X830323Y891500D01*
X830033Y894441D01*
X829175Y897268D01*
X827782Y899874D01*
X825908Y902158D01*
X823624Y904032D01*
X821018Y905425D01*
X819328Y905938D01*
Y932500D01*
Y1032062D01*
X821018Y1032575D01*
X823624Y1033968D01*
X825908Y1035842D01*
X827782Y1038126D01*
X829175Y1040732D01*
X830033Y1043559D01*
X830323Y1046500D01*
X830033Y1049441D01*
X829175Y1052268D01*
X827782Y1054874D01*
X825908Y1057158D01*
X823624Y1059032D01*
X821018Y1060425D01*
X818191Y1061283D01*
X815250Y1061573D01*
D02*
G37*
G36*
X19750D02*
X16810Y1061283D01*
X13982Y1060425D01*
X11376Y1059032D01*
X9092Y1057158D01*
X7218Y1054874D01*
X5825Y1052268D01*
X4967Y1049441D01*
X4678Y1046500D01*
X4967Y1043559D01*
X5825Y1040732D01*
X7218Y1038126D01*
X9092Y1035842D01*
X11376Y1033968D01*
X13982Y1032575D01*
X15672Y1032062D01*
Y905938D01*
X13982Y905425D01*
X11376Y904032D01*
X9092Y902158D01*
X7218Y899874D01*
X5825Y897268D01*
X4967Y894441D01*
X4678Y891500D01*
X4967Y888559D01*
X5825Y885732D01*
X7218Y883126D01*
X9092Y880842D01*
X11376Y878968D01*
X13982Y877575D01*
X16810Y876717D01*
X19750Y876428D01*
X22690Y876717D01*
X25518Y877575D01*
X28124Y878968D01*
X30408Y880842D01*
X32282Y883126D01*
X33675Y885732D01*
X34533Y888559D01*
X34823Y891500D01*
X34533Y894441D01*
X33675Y897268D01*
X32282Y899874D01*
X30408Y902158D01*
X28124Y904032D01*
X25518Y905425D01*
X23828Y905938D01*
Y1032062D01*
X25518Y1032575D01*
X28124Y1033968D01*
X30408Y1035842D01*
X32282Y1038126D01*
X33675Y1040732D01*
X34533Y1043559D01*
X34823Y1046500D01*
X34533Y1049441D01*
X33675Y1052268D01*
X32282Y1054874D01*
X30408Y1057158D01*
X28124Y1059032D01*
X25518Y1060425D01*
X22690Y1061283D01*
X19750Y1061573D01*
D02*
G37*
G36*
X531920Y877964D02*
Y868770D01*
X541114D01*
X540919Y870251D01*
X539857Y872815D01*
X538167Y875017D01*
X535965Y876707D01*
X533401Y877769D01*
X531920Y877964D01*
D02*
G37*
G36*
X529380Y877964D02*
X527898Y877769D01*
X525335Y876707D01*
X523133Y875017D01*
X521443Y872815D01*
X520381Y870251D01*
X520186Y868770D01*
X529380D01*
Y877964D01*
D02*
G37*
G36*
X379250Y881900D02*
X360250D01*
Y862900D01*
X379250D01*
Y881900D01*
D02*
G37*
G36*
X177250Y870348D02*
X175299Y869960D01*
X173645Y868855D01*
X172540Y867201D01*
X172152Y865250D01*
X172540Y863299D01*
X173645Y861645D01*
X175299Y860540D01*
X177250Y860152D01*
X179201Y860540D01*
X180855Y861645D01*
X181960Y863299D01*
X182348Y865250D01*
X181960Y867201D01*
X180855Y868855D01*
X179201Y869960D01*
X177250Y870348D01*
D02*
G37*
G36*
X489350Y877000D02*
X470350D01*
Y858000D01*
X489350D01*
Y877000D01*
D02*
G37*
G36*
X505250Y877082D02*
X502770Y876755D01*
X500459Y875798D01*
X498475Y874275D01*
X496952Y872291D01*
X495994Y869980D01*
X495668Y867500D01*
X495994Y865020D01*
X496952Y862709D01*
X498475Y860724D01*
X500459Y859202D01*
X502770Y858244D01*
X505250Y857918D01*
X507730Y858244D01*
X510041Y859202D01*
X512025Y860724D01*
X513548Y862709D01*
X514505Y865020D01*
X514832Y867500D01*
X514505Y869980D01*
X513548Y872291D01*
X512025Y874275D01*
X510041Y875798D01*
X507730Y876755D01*
X505250Y877082D01*
D02*
G37*
G36*
X529380Y866230D02*
X520186D01*
X520381Y864749D01*
X521443Y862185D01*
X523133Y859983D01*
X525335Y858293D01*
X527898Y857231D01*
X529380Y857036D01*
Y866230D01*
D02*
G37*
G36*
X541114D02*
X531920D01*
Y857036D01*
X533401Y857231D01*
X535965Y858293D01*
X538167Y859983D01*
X539857Y862185D01*
X540919Y864749D01*
X541114Y866230D01*
D02*
G37*
G36*
X56770Y869524D02*
Y848270D01*
X78024D01*
X77714Y851419D01*
X76425Y855667D01*
X74332Y859583D01*
X71515Y863015D01*
X68083Y865832D01*
X64167Y867925D01*
X59919Y869214D01*
X56770Y869524D01*
D02*
G37*
G36*
X54230D02*
X51081Y869214D01*
X46833Y867925D01*
X42917Y865832D01*
X39485Y863015D01*
X36668Y859583D01*
X34575Y855667D01*
X33286Y851419D01*
X32976Y848270D01*
X54230D01*
Y869524D01*
D02*
G37*
G36*
X136000Y855848D02*
X134049Y855460D01*
X132395Y854355D01*
X131290Y852701D01*
X130902Y850750D01*
X131290Y848799D01*
X132395Y847145D01*
X134049Y846040D01*
X136000Y845652D01*
X137951Y846040D01*
X139605Y847145D01*
X140710Y848799D01*
X141098Y850750D01*
X140710Y852701D01*
X139605Y854355D01*
X137951Y855460D01*
X136000Y855848D01*
D02*
G37*
G36*
X369750Y856582D02*
X367270Y856255D01*
X364959Y855298D01*
X362975Y853775D01*
X361452Y851791D01*
X360495Y849480D01*
X360168Y847000D01*
X360495Y844520D01*
X361452Y842209D01*
X362975Y840225D01*
X364959Y838702D01*
X367270Y837745D01*
X369750Y837418D01*
X372230Y837745D01*
X374541Y838702D01*
X376525Y840225D01*
X378048Y842209D01*
X379006Y844520D01*
X379332Y847000D01*
X379006Y849480D01*
X378048Y851791D01*
X376525Y853775D01*
X374541Y855298D01*
X372230Y856255D01*
X369750Y856582D01*
D02*
G37*
G36*
X604020Y857024D02*
Y835770D01*
X625274D01*
X624964Y838919D01*
X623675Y843167D01*
X621582Y847083D01*
X618765Y850515D01*
X615333Y853332D01*
X611417Y855425D01*
X607169Y856714D01*
X604020Y857024D01*
D02*
G37*
G36*
X601480D02*
X598331Y856714D01*
X594083Y855425D01*
X590167Y853332D01*
X586735Y850515D01*
X583918Y847083D01*
X581825Y843167D01*
X580536Y838919D01*
X580226Y835770D01*
X601480D01*
Y857024D01*
D02*
G37*
G36*
X214000Y845098D02*
X212049Y844710D01*
X210395Y843605D01*
X209290Y841951D01*
X208902Y840000D01*
X209290Y838049D01*
X210319Y836509D01*
X210312Y836032D01*
X210091Y835071D01*
X208645Y834105D01*
X207540Y832451D01*
X207152Y830500D01*
X207201Y830255D01*
X206121Y829175D01*
X205250Y829348D01*
X203299Y828960D01*
X201645Y827855D01*
X200540Y826201D01*
X200152Y824250D01*
X200540Y822299D01*
X201645Y820645D01*
X203299Y819540D01*
X205250Y819152D01*
X207201Y819540D01*
X208855Y820645D01*
X209960Y822299D01*
X210348Y824250D01*
X210299Y824495D01*
X211379Y825575D01*
X212250Y825402D01*
X214201Y825790D01*
X215855Y826895D01*
X216960Y828549D01*
X217348Y830500D01*
X217094Y831777D01*
X218290Y832273D01*
X218895Y831367D01*
X220549Y830262D01*
X222500Y829874D01*
X224451Y830262D01*
X226105Y831367D01*
X227210Y833021D01*
X227598Y834972D01*
X227210Y836923D01*
X226105Y838577D01*
X224451Y839682D01*
X222500Y840070D01*
X220549Y839682D01*
X220296Y839513D01*
X219748Y839736D01*
X219056Y840212D01*
X218710Y841951D01*
X217605Y843605D01*
X215951Y844710D01*
X214000Y845098D01*
D02*
G37*
G36*
X677000Y838598D02*
X675049Y838210D01*
X673395Y837105D01*
X672290Y835451D01*
X671902Y833500D01*
X672290Y831549D01*
X673395Y829895D01*
X675049Y828790D01*
X677000Y828402D01*
X678951Y828790D01*
X680605Y829895D01*
X681710Y831549D01*
X682098Y833500D01*
X681710Y835451D01*
X680605Y837105D01*
X678951Y838210D01*
X677000Y838598D01*
D02*
G37*
G36*
X717750Y838098D02*
X715799Y837710D01*
X714145Y836605D01*
X713040Y834951D01*
X712652Y833000D01*
X713040Y831049D01*
X714145Y829395D01*
X715799Y828290D01*
X717750Y827902D01*
X719701Y828290D01*
X721355Y829395D01*
X722460Y831049D01*
X722848Y833000D01*
X722460Y834951D01*
X721355Y836605D01*
X719701Y837710D01*
X717750Y838098D01*
D02*
G37*
G36*
X78024Y845730D02*
X56770D01*
Y824476D01*
X59919Y824786D01*
X64167Y826075D01*
X68083Y828168D01*
X71515Y830985D01*
X74332Y834417D01*
X76425Y838333D01*
X77714Y842581D01*
X78024Y845730D01*
D02*
G37*
G36*
X54230D02*
X32976D01*
X33286Y842581D01*
X34575Y838333D01*
X36668Y834417D01*
X39485Y830985D01*
X42917Y828168D01*
X46833Y826075D01*
X51081Y824786D01*
X54230Y824476D01*
Y845730D01*
D02*
G37*
G36*
X239500Y834598D02*
X237549Y834210D01*
X235895Y833105D01*
X234790Y831451D01*
X234402Y829500D01*
X234790Y827549D01*
X235895Y825895D01*
X237549Y824790D01*
X239500Y824402D01*
X241451Y824790D01*
X243105Y825895D01*
X244210Y827549D01*
X244598Y829500D01*
X244210Y831451D01*
X243105Y833105D01*
X241451Y834210D01*
X239500Y834598D01*
D02*
G37*
G36*
X272446Y834294D02*
X270495Y833906D01*
X268841Y832801D01*
X267736Y831147D01*
X267348Y829196D01*
X267736Y827245D01*
X268841Y825591D01*
X270495Y824486D01*
X272446Y824098D01*
X274397Y824486D01*
X276051Y825591D01*
X277156Y827245D01*
X277544Y829196D01*
X277156Y831147D01*
X276051Y832801D01*
X274397Y833906D01*
X272446Y834294D01*
D02*
G37*
G36*
X371020Y832064D02*
Y822870D01*
X380214D01*
X380019Y824352D01*
X378957Y826916D01*
X377267Y829117D01*
X375065Y830807D01*
X372501Y831869D01*
X371020Y832064D01*
D02*
G37*
G36*
X368480Y832064D02*
X366998Y831869D01*
X364435Y830807D01*
X362233Y829117D01*
X360543Y826916D01*
X359481Y824352D01*
X359286Y822870D01*
X368480D01*
Y832064D01*
D02*
G37*
G36*
X252750Y828848D02*
X250799Y828460D01*
X249145Y827355D01*
X248040Y825701D01*
X247652Y823750D01*
X248040Y821799D01*
X249145Y820145D01*
X250799Y819040D01*
X252750Y818652D01*
X254701Y819040D01*
X256355Y820145D01*
X257460Y821799D01*
X257848Y823750D01*
X257460Y825701D01*
X256355Y827355D01*
X254701Y828460D01*
X252750Y828848D01*
D02*
G37*
G36*
X625274Y833230D02*
X604020D01*
Y811976D01*
X607169Y812286D01*
X611417Y813575D01*
X615333Y815668D01*
X618765Y818485D01*
X621582Y821917D01*
X623675Y825833D01*
X624964Y830081D01*
X625274Y833230D01*
D02*
G37*
G36*
X601480D02*
X580226D01*
X580536Y830081D01*
X581825Y825833D01*
X583918Y821917D01*
X586735Y818485D01*
X590167Y815668D01*
X594083Y813575D01*
X598331Y812286D01*
X601480Y811976D01*
Y833230D01*
D02*
G37*
G36*
X380214Y820330D02*
X371020D01*
Y811136D01*
X372501Y811331D01*
X375065Y812393D01*
X377267Y814083D01*
X378957Y816284D01*
X380019Y818848D01*
X380214Y820330D01*
D02*
G37*
G36*
X368480D02*
X359286D01*
X359481Y818848D01*
X360543Y816284D01*
X362233Y814083D01*
X364435Y812393D01*
X366998Y811331D01*
X368480Y811136D01*
Y820330D01*
D02*
G37*
G36*
X129250Y814670D02*
X127299Y814282D01*
X125645Y813177D01*
X124540Y811523D01*
X124152Y809572D01*
X124540Y807622D01*
X125645Y805968D01*
X127299Y804863D01*
X129250Y804474D01*
X131201Y804863D01*
X132855Y805968D01*
X133960Y807622D01*
X134348Y809572D01*
X133960Y811523D01*
X132855Y813177D01*
X131201Y814282D01*
X129250Y814670D01*
D02*
G37*
G36*
X183000Y810348D02*
X181049Y809960D01*
X179395Y808855D01*
X178290Y807201D01*
X177902Y805250D01*
X178290Y803299D01*
X179395Y801645D01*
X181049Y800540D01*
X183000Y800152D01*
X184951Y800540D01*
X186605Y801645D01*
X187710Y803299D01*
X188098Y805250D01*
X187710Y807201D01*
X186605Y808855D01*
X184951Y809960D01*
X183000Y810348D01*
D02*
G37*
G36*
X527711Y798964D02*
Y794329D01*
X532347D01*
X532131Y795415D01*
X530796Y797413D01*
X528798Y798748D01*
X527711Y798964D01*
D02*
G37*
G36*
X525171D02*
X524085Y798748D01*
X522087Y797413D01*
X520752Y795415D01*
X520536Y794329D01*
X525171D01*
Y798964D01*
D02*
G37*
G36*
X317000Y801348D02*
X315049Y800960D01*
X313395Y799855D01*
X312290Y798201D01*
X311902Y796250D01*
X312290Y794299D01*
X313395Y792645D01*
X315049Y791540D01*
X317000Y791152D01*
X318951Y791540D01*
X320605Y792645D01*
X321710Y794299D01*
X322098Y796250D01*
X321710Y798201D01*
X320605Y799855D01*
X318951Y800960D01*
X317000Y801348D01*
D02*
G37*
G36*
X104520Y803661D02*
Y790220D01*
X117961D01*
X117801Y791844D01*
X116957Y794628D01*
X115586Y797193D01*
X113741Y799441D01*
X111493Y801286D01*
X108928Y802657D01*
X106145Y803501D01*
X104520Y803661D01*
D02*
G37*
G36*
X101980D02*
X100356Y803501D01*
X97572Y802657D01*
X95007Y801286D01*
X92759Y799441D01*
X90914Y797193D01*
X89543Y794628D01*
X88699Y791844D01*
X88539Y790220D01*
X101980D01*
Y803661D01*
D02*
G37*
G36*
X532347Y791789D02*
X527711D01*
Y787153D01*
X528798Y787369D01*
X530796Y788704D01*
X532131Y790702D01*
X532347Y791789D01*
D02*
G37*
G36*
X525171D02*
X520536D01*
X520752Y790702D01*
X522087Y788704D01*
X524085Y787369D01*
X525171Y787153D01*
Y791789D01*
D02*
G37*
G36*
X331250Y795348D02*
X329299Y794960D01*
X327645Y793855D01*
X326540Y792201D01*
X326152Y790250D01*
X326540Y788299D01*
X327645Y786645D01*
X329299Y785540D01*
X331250Y785152D01*
X333201Y785540D01*
X334855Y786645D01*
X335960Y788299D01*
X336348Y790250D01*
X335960Y792201D01*
X334855Y793855D01*
X333201Y794960D01*
X331250Y795348D01*
D02*
G37*
G36*
X577750Y801400D02*
X559750D01*
Y783400D01*
X577750D01*
Y801400D01*
D02*
G37*
G36*
X257750Y788098D02*
X255799Y787710D01*
X254145Y786605D01*
X253040Y784951D01*
X252652Y783000D01*
X253040Y781049D01*
X254145Y779395D01*
X255799Y778290D01*
X257750Y777902D01*
X259701Y778290D01*
X261355Y779395D01*
X262460Y781049D01*
X262848Y783000D01*
X262460Y784951D01*
X261355Y786605D01*
X259701Y787710D01*
X257750Y788098D01*
D02*
G37*
G36*
X117961Y787680D02*
X104520D01*
Y774239D01*
X106145Y774399D01*
X108928Y775243D01*
X111493Y776614D01*
X113741Y778459D01*
X115586Y780707D01*
X116957Y783272D01*
X117801Y786056D01*
X117961Y787680D01*
D02*
G37*
G36*
X101980D02*
X88539D01*
X88699Y786056D01*
X89543Y783272D01*
X90914Y780707D01*
X92759Y778459D01*
X95007Y776614D01*
X97572Y775243D01*
X100356Y774399D01*
X101980Y774239D01*
Y787680D01*
D02*
G37*
G36*
X342000Y784348D02*
X340049Y783960D01*
X338395Y782855D01*
X337290Y781201D01*
X336902Y779250D01*
X337290Y777299D01*
X338395Y775645D01*
X340049Y774540D01*
X342000Y774152D01*
X343951Y774540D01*
X345605Y775645D01*
X346710Y777299D01*
X347098Y779250D01*
X346710Y781201D01*
X345605Y782855D01*
X343951Y783960D01*
X342000Y784348D01*
D02*
G37*
G36*
X192250Y803348D02*
X190299Y802960D01*
X188645Y801855D01*
X187540Y800201D01*
X187152Y798250D01*
X187540Y796299D01*
X188645Y794645D01*
X190299Y793540D01*
X191614Y793279D01*
X191882Y791930D01*
X191395Y791605D01*
X190290Y789951D01*
X189902Y788000D01*
X190290Y786049D01*
X191395Y784395D01*
X192715Y783513D01*
X192875Y782409D01*
X192803Y782044D01*
X192145Y781605D01*
X191040Y779951D01*
X190652Y778000D01*
X191040Y776049D01*
X192145Y774395D01*
X193799Y773290D01*
X195750Y772902D01*
X197701Y773290D01*
X199355Y774395D01*
X200460Y776049D01*
X200848Y778000D01*
X200460Y779951D01*
X199355Y781605D01*
X198035Y782487D01*
X197875Y783591D01*
X197947Y783956D01*
X198605Y784395D01*
X199710Y786049D01*
X200098Y788000D01*
X199710Y789951D01*
X198605Y791605D01*
X196951Y792710D01*
X195636Y792971D01*
X195368Y794320D01*
X195855Y794645D01*
X196960Y796299D01*
X197348Y798250D01*
X196960Y800201D01*
X195855Y801855D01*
X194201Y802960D01*
X192250Y803348D01*
D02*
G37*
G36*
X23750Y786979D02*
X21361Y786665D01*
X19136Y785742D01*
X17224Y784276D01*
X15757Y782365D01*
X14836Y780139D01*
X14521Y777750D01*
X14836Y775361D01*
X15757Y773136D01*
X17224Y771224D01*
X19136Y769758D01*
X21361Y768836D01*
X23750Y768521D01*
X26139Y768836D01*
X28365Y769758D01*
X30276Y771224D01*
X31742Y773136D01*
X32664Y775361D01*
X32979Y777750D01*
X32664Y780139D01*
X31742Y782365D01*
X30276Y784276D01*
X28365Y785742D01*
X26139Y786665D01*
X23750Y786979D01*
D02*
G37*
G36*
X781750Y784032D02*
X779270Y783706D01*
X776959Y782748D01*
X774975Y781226D01*
X773452Y779241D01*
X772495Y776930D01*
X772168Y774450D01*
X772495Y771970D01*
X773452Y769659D01*
X774975Y767675D01*
X776959Y766152D01*
X779270Y765195D01*
X781750Y764868D01*
X784230Y765195D01*
X786541Y766152D01*
X788525Y767675D01*
X790048Y769659D01*
X791005Y771970D01*
X791332Y774450D01*
X791005Y776930D01*
X790048Y779241D01*
X788525Y781226D01*
X786541Y782748D01*
X784230Y783706D01*
X781750Y784032D01*
D02*
G37*
G36*
X568750Y776078D02*
X566400Y775768D01*
X564211Y774862D01*
X562331Y773419D01*
X560889Y771539D01*
X559982Y769350D01*
X559672Y767000D01*
X559982Y764650D01*
X560889Y762461D01*
X562331Y760581D01*
X564211Y759139D01*
X566400Y758232D01*
X568750Y757922D01*
X571100Y758232D01*
X573289Y759139D01*
X575169Y760581D01*
X576612Y762461D01*
X577518Y764650D01*
X577828Y767000D01*
X577518Y769350D01*
X576612Y771539D01*
X575169Y773419D01*
X573289Y774862D01*
X571100Y775768D01*
X568750Y776078D01*
D02*
G37*
G36*
X423750Y765598D02*
X421799Y765210D01*
X420145Y764105D01*
X419040Y762451D01*
X418652Y760500D01*
X419040Y758549D01*
X420145Y756895D01*
X421799Y755790D01*
X423750Y755402D01*
X425701Y755790D01*
X427355Y756895D01*
X428460Y758549D01*
X428848Y760500D01*
X428460Y762451D01*
X427355Y764105D01*
X425701Y765210D01*
X423750Y765598D01*
D02*
G37*
G36*
X72750Y786486D02*
X69270Y786143D01*
X65925Y785128D01*
X62841Y783480D01*
X60138Y781262D01*
X57920Y778559D01*
X56272Y775475D01*
X55257Y772130D01*
X54914Y768650D01*
X55257Y765170D01*
X56272Y761824D01*
X57920Y758741D01*
X60138Y756038D01*
X62841Y753820D01*
X65925Y752172D01*
X69270Y751157D01*
X72750Y750814D01*
X76230Y751157D01*
X79576Y752172D01*
X82659Y753820D01*
X85362Y756038D01*
X87580Y758741D01*
X89228Y761824D01*
X90243Y765170D01*
X90586Y768650D01*
X90243Y772130D01*
X89228Y775475D01*
X87580Y778559D01*
X85362Y781262D01*
X82659Y783480D01*
X79576Y785128D01*
X76230Y786143D01*
X72750Y786486D01*
D02*
G37*
G36*
X144740Y764490D02*
X127760D01*
Y747510D01*
X144740D01*
Y764490D01*
D02*
G37*
G36*
X517270Y748156D02*
Y743520D01*
X521906D01*
X521690Y744607D01*
X520355Y746605D01*
X518357Y747940D01*
X517270Y748156D01*
D02*
G37*
G36*
X514730D02*
X513643Y747940D01*
X511645Y746605D01*
X510311Y744607D01*
X510094Y743520D01*
X514730D01*
Y748156D01*
D02*
G37*
G36*
X23750Y761579D02*
X21361Y761264D01*
X19136Y760342D01*
X17224Y758876D01*
X15757Y756964D01*
X14836Y754739D01*
X14521Y752350D01*
X14836Y749961D01*
X15757Y747736D01*
X17224Y745824D01*
X19136Y744358D01*
X21361Y743436D01*
X23750Y743121D01*
X26139Y743436D01*
X28365Y744358D01*
X30276Y745824D01*
X31742Y747736D01*
X32664Y749961D01*
X32979Y752350D01*
X32664Y754739D01*
X31742Y756964D01*
X30276Y758876D01*
X28365Y760342D01*
X26139Y761264D01*
X23750Y761579D01*
D02*
G37*
G36*
X449750Y753098D02*
X447799Y752710D01*
X446145Y751605D01*
X445040Y749951D01*
X444652Y748000D01*
X445040Y746049D01*
X446145Y744395D01*
X447799Y743290D01*
X449750Y742902D01*
X451701Y743290D01*
X453355Y744395D01*
X454460Y746049D01*
X454848Y748000D01*
X454460Y749951D01*
X453355Y751605D01*
X451701Y752710D01*
X449750Y753098D01*
D02*
G37*
G36*
X570020Y751559D02*
Y742870D01*
X578709D01*
X578532Y744221D01*
X577520Y746663D01*
X575911Y748761D01*
X573813Y750370D01*
X571371Y751382D01*
X570020Y751559D01*
D02*
G37*
G36*
X567480Y751560D02*
X566129Y751382D01*
X563687Y750370D01*
X561589Y748761D01*
X559980Y746663D01*
X558969Y744221D01*
X558791Y742870D01*
X567480D01*
Y751560D01*
D02*
G37*
G36*
X185500Y751098D02*
X183549Y750710D01*
X181895Y749605D01*
X180790Y747951D01*
X180402Y746000D01*
X180790Y744049D01*
X181895Y742395D01*
X183549Y741290D01*
X185500Y740902D01*
X187451Y741290D01*
X189105Y742395D01*
X190210Y744049D01*
X190598Y746000D01*
X190210Y747951D01*
X189105Y749605D01*
X187451Y750710D01*
X185500Y751098D01*
D02*
G37*
G36*
X436500Y748848D02*
X434549Y748460D01*
X432895Y747355D01*
X431790Y745701D01*
X431402Y743750D01*
X431790Y741799D01*
X432077Y741370D01*
X431267Y740296D01*
X429750Y740598D01*
X427799Y740210D01*
X426145Y739105D01*
X425040Y737451D01*
X424652Y735500D01*
X425040Y733549D01*
X426145Y731895D01*
X427799Y730790D01*
X429750Y730402D01*
X431701Y730790D01*
X433355Y731895D01*
X434460Y733549D01*
X434848Y735500D01*
X434460Y737451D01*
X434173Y737880D01*
X434983Y738954D01*
X436500Y738652D01*
X438451Y739040D01*
X440105Y740145D01*
X441210Y741799D01*
X441598Y743750D01*
X441210Y745701D01*
X440105Y747355D01*
X438451Y748460D01*
X436500Y748848D01*
D02*
G37*
G36*
X286000Y750098D02*
X284049Y749710D01*
X282395Y748605D01*
X281290Y746951D01*
X280902Y745000D01*
X281290Y743049D01*
X282395Y741395D01*
X284049Y740290D01*
X286000Y739902D01*
X287951Y740290D01*
X289605Y741395D01*
X290710Y743049D01*
X291098Y745000D01*
X290710Y746951D01*
X289605Y748605D01*
X287951Y749710D01*
X286000Y750098D01*
D02*
G37*
G36*
X781750Y758632D02*
X779270Y758306D01*
X776959Y757348D01*
X774975Y755826D01*
X773452Y753841D01*
X772495Y751530D01*
X772168Y749050D01*
X772495Y746570D01*
X773452Y744259D01*
X774975Y742275D01*
X776959Y740752D01*
X779270Y739795D01*
X781750Y739468D01*
X784230Y739795D01*
X786541Y740752D01*
X788525Y742275D01*
X790048Y744259D01*
X791005Y746570D01*
X791332Y749050D01*
X791005Y751530D01*
X790048Y753841D01*
X788525Y755826D01*
X786541Y757348D01*
X784230Y758306D01*
X781750Y758632D01*
D02*
G37*
G36*
X236750Y749348D02*
X234799Y748960D01*
X233145Y747855D01*
X232040Y746201D01*
X231652Y744250D01*
X232040Y742299D01*
X233145Y740645D01*
X234799Y739540D01*
X236750Y739152D01*
X238701Y739540D01*
X240355Y740645D01*
X241460Y742299D01*
X241848Y744250D01*
X241460Y746201D01*
X240355Y747855D01*
X238701Y748960D01*
X236750Y749348D01*
D02*
G37*
G36*
X521906Y740980D02*
X517270D01*
Y736344D01*
X518357Y736561D01*
X520355Y737895D01*
X521690Y739893D01*
X521906Y740980D01*
D02*
G37*
G36*
X514730D02*
X510094D01*
X510311Y739893D01*
X511645Y737895D01*
X513643Y736561D01*
X514730Y736344D01*
Y740980D01*
D02*
G37*
G36*
X161650Y751863D02*
X159434Y751572D01*
X157368Y750716D01*
X155595Y749355D01*
X154234Y747582D01*
X153379Y745516D01*
X153087Y743300D01*
X153379Y741084D01*
X154234Y739018D01*
X155595Y737245D01*
X157368Y735884D01*
X159434Y735029D01*
X161650Y734737D01*
X163866Y735029D01*
X165932Y735884D01*
X167705Y737245D01*
X169066Y739018D01*
X169921Y741084D01*
X170213Y743300D01*
X169921Y745516D01*
X169066Y747582D01*
X167705Y749355D01*
X165932Y750716D01*
X163866Y751572D01*
X161650Y751863D01*
D02*
G37*
G36*
X357000Y744113D02*
X355049Y743725D01*
X353395Y742619D01*
X352290Y740966D01*
X351902Y739015D01*
X352290Y737064D01*
X353395Y735410D01*
X355049Y734305D01*
X357000Y733917D01*
X358951Y734305D01*
X360605Y735410D01*
X361710Y737064D01*
X362098Y739015D01*
X361710Y740966D01*
X360605Y742619D01*
X358951Y743725D01*
X357000Y744113D01*
D02*
G37*
G36*
X319000Y744098D02*
X317049Y743710D01*
X315395Y742605D01*
X314290Y740951D01*
X313902Y739000D01*
X314290Y737049D01*
X315395Y735395D01*
X317049Y734290D01*
X319000Y733902D01*
X320951Y734290D01*
X322605Y735395D01*
X323710Y737049D01*
X324098Y739000D01*
X323710Y740951D01*
X322605Y742605D01*
X320951Y743710D01*
X319000Y744098D01*
D02*
G37*
G36*
X578709Y740330D02*
X570020D01*
Y731641D01*
X571371Y731818D01*
X573813Y732830D01*
X575911Y734439D01*
X577520Y736537D01*
X578532Y738979D01*
X578709Y740330D01*
D02*
G37*
G36*
X567480D02*
X558791D01*
X558969Y738979D01*
X559980Y736537D01*
X561589Y734439D01*
X563687Y732830D01*
X566129Y731818D01*
X567480Y731641D01*
Y740330D01*
D02*
G37*
G36*
X530520Y735656D02*
Y731020D01*
X535156D01*
X534939Y732107D01*
X533605Y734105D01*
X531607Y735440D01*
X530520Y735656D01*
D02*
G37*
G36*
X527980D02*
X526893Y735440D01*
X524895Y734105D01*
X523560Y732107D01*
X523344Y731020D01*
X527980D01*
Y735656D01*
D02*
G37*
G36*
X535156Y728480D02*
X530520D01*
Y723844D01*
X531607Y724061D01*
X533605Y725395D01*
X534939Y727393D01*
X535156Y728480D01*
D02*
G37*
G36*
X527980D02*
X523344D01*
X523560Y727393D01*
X524895Y725395D01*
X526893Y724061D01*
X527980Y723844D01*
Y728480D01*
D02*
G37*
G36*
X136250Y739163D02*
X134034Y738872D01*
X131968Y738016D01*
X130195Y736655D01*
X128834Y734882D01*
X127979Y732816D01*
X127687Y730600D01*
X127979Y728384D01*
X128834Y726318D01*
X130195Y724545D01*
X131968Y723184D01*
X134034Y722329D01*
X136250Y722037D01*
X138466Y722329D01*
X140532Y723184D01*
X142305Y724545D01*
X143666Y726318D01*
X144522Y728384D01*
X144813Y730600D01*
X144522Y732816D01*
X143666Y734882D01*
X142305Y736655D01*
X140532Y738016D01*
X138466Y738872D01*
X136250Y739163D01*
D02*
G37*
G36*
X757000Y804098D02*
X755049Y803710D01*
X753395Y802605D01*
X752290Y800951D01*
X751902Y799000D01*
X752290Y797049D01*
X753395Y795395D01*
X753941Y795030D01*
Y734250D01*
X753941Y734250D01*
X754174Y733080D01*
X754837Y732087D01*
X764337Y722587D01*
X764337Y722587D01*
X765330Y721924D01*
X766500Y721691D01*
X772426D01*
X772495Y721170D01*
X773452Y718859D01*
X774975Y716875D01*
X776959Y715352D01*
X779270Y714395D01*
X781750Y714068D01*
X784230Y714395D01*
X786541Y715352D01*
X788525Y716875D01*
X790048Y718859D01*
X791005Y721170D01*
X791332Y723650D01*
X791005Y726130D01*
X790048Y728441D01*
X788525Y730425D01*
X786541Y731948D01*
X784230Y732906D01*
X781750Y733232D01*
X779270Y732906D01*
X776959Y731948D01*
X774975Y730425D01*
X773452Y728441D01*
X773190Y727809D01*
X767767D01*
X760059Y735517D01*
Y795030D01*
X760605Y795395D01*
X761710Y797049D01*
X762098Y799000D01*
X761710Y800951D01*
X760605Y802605D01*
X758951Y803710D01*
X757000Y804098D01*
D02*
G37*
G36*
X161650Y726463D02*
X159434Y726171D01*
X157368Y725316D01*
X155595Y723955D01*
X154234Y722182D01*
X153379Y720116D01*
X153087Y717900D01*
X153379Y715684D01*
X154234Y713618D01*
X155595Y711845D01*
X157368Y710484D01*
X159434Y709629D01*
X161650Y709337D01*
X163866Y709629D01*
X165932Y710484D01*
X167705Y711845D01*
X169066Y713618D01*
X169921Y715684D01*
X170213Y717900D01*
X169921Y720116D01*
X169066Y722182D01*
X167705Y723955D01*
X165932Y725316D01*
X163866Y726171D01*
X161650Y726463D01*
D02*
G37*
G36*
X568750Y725278D02*
X566400Y724968D01*
X564211Y724062D01*
X562331Y722619D01*
X560889Y720739D01*
X559982Y718549D01*
X559672Y716200D01*
X559982Y713850D01*
X560889Y711661D01*
X562331Y709781D01*
X564211Y708339D01*
X566400Y707432D01*
X568750Y707122D01*
X571100Y707432D01*
X573289Y708339D01*
X575169Y709781D01*
X576612Y711661D01*
X577518Y713850D01*
X577828Y716200D01*
X577518Y718549D01*
X576612Y720739D01*
X575169Y722619D01*
X573289Y724062D01*
X571100Y724968D01*
X568750Y725278D01*
D02*
G37*
G36*
X398250Y709098D02*
X396299Y708710D01*
X394645Y707605D01*
X393540Y705951D01*
X393152Y704000D01*
X393540Y702049D01*
X394645Y700395D01*
X396299Y699290D01*
X398250Y698902D01*
X400201Y699290D01*
X401855Y700395D01*
X402960Y702049D01*
X403348Y704000D01*
X402960Y705951D01*
X401855Y707605D01*
X400201Y708710D01*
X398250Y709098D01*
D02*
G37*
G36*
X136250Y713763D02*
X134034Y713472D01*
X131968Y712616D01*
X130195Y711255D01*
X128834Y709482D01*
X127979Y707416D01*
X127687Y705200D01*
X127979Y702984D01*
X128834Y700918D01*
X130195Y699145D01*
X131968Y697784D01*
X134034Y696929D01*
X136250Y696637D01*
X138466Y696929D01*
X140532Y697784D01*
X142305Y699145D01*
X143666Y700918D01*
X144522Y702984D01*
X144813Y705200D01*
X144522Y707416D01*
X143666Y709482D01*
X142305Y711255D01*
X140532Y712616D01*
X138466Y713472D01*
X136250Y713763D01*
D02*
G37*
G36*
X360000Y706348D02*
X358049Y705960D01*
X356395Y704855D01*
X355290Y703201D01*
X354902Y701250D01*
X355290Y699299D01*
X356395Y697645D01*
X358049Y696540D01*
X360000Y696152D01*
X361951Y696540D01*
X363605Y697645D01*
X364710Y699299D01*
X365098Y701250D01*
X364710Y703201D01*
X363605Y704855D01*
X361951Y705960D01*
X360000Y706348D01*
D02*
G37*
G36*
X188500Y706348D02*
X186549Y705960D01*
X184895Y704855D01*
X183790Y703201D01*
X183402Y701250D01*
X183790Y699299D01*
X184895Y697645D01*
X186549Y696540D01*
X188500Y696152D01*
X190451Y696540D01*
X192105Y697645D01*
X193210Y699299D01*
X193598Y701250D01*
X193210Y703201D01*
X192105Y704855D01*
X190451Y705960D01*
X188500Y706348D01*
D02*
G37*
G36*
X512250Y699348D02*
X510299Y698960D01*
X508645Y697855D01*
X507540Y696201D01*
X507152Y694250D01*
X507540Y692299D01*
X508645Y690645D01*
X510299Y689540D01*
X512250Y689152D01*
X514201Y689540D01*
X515855Y690645D01*
X516960Y692299D01*
X517348Y694250D01*
X516960Y696201D01*
X515855Y697855D01*
X514201Y698960D01*
X512250Y699348D01*
D02*
G37*
G36*
X781750Y707832D02*
X779270Y707505D01*
X776959Y706548D01*
X774975Y705025D01*
X773452Y703041D01*
X772495Y700730D01*
X772168Y698250D01*
X772495Y695770D01*
X773452Y693459D01*
X774975Y691475D01*
X776959Y689952D01*
X779270Y688995D01*
X781750Y688668D01*
X784230Y688995D01*
X786541Y689952D01*
X788525Y691475D01*
X790048Y693459D01*
X791005Y695770D01*
X791332Y698250D01*
X791005Y700730D01*
X790048Y703041D01*
X788525Y705025D01*
X786541Y706548D01*
X784230Y707505D01*
X781750Y707832D01*
D02*
G37*
G36*
X161650Y701063D02*
X159434Y700771D01*
X157368Y699916D01*
X155595Y698555D01*
X154234Y696782D01*
X153379Y694716D01*
X153087Y692500D01*
X153379Y690284D01*
X154234Y688218D01*
X155595Y686445D01*
X157368Y685084D01*
X159434Y684229D01*
X161650Y683937D01*
X163866Y684229D01*
X165932Y685084D01*
X167705Y686445D01*
X169066Y688218D01*
X169921Y690284D01*
X170213Y692500D01*
X169921Y694716D01*
X169066Y696782D01*
X167705Y698555D01*
X165932Y699916D01*
X163866Y700771D01*
X161650Y701063D01*
D02*
G37*
G36*
X568750Y699878D02*
X566400Y699568D01*
X564211Y698661D01*
X562331Y697219D01*
X560889Y695339D01*
X559982Y693149D01*
X559672Y690800D01*
X559982Y688450D01*
X560889Y686261D01*
X562331Y684381D01*
X564211Y682939D01*
X566400Y682032D01*
X568750Y681722D01*
X571100Y682032D01*
X573289Y682939D01*
X575169Y684381D01*
X576612Y686261D01*
X577518Y688450D01*
X577828Y690800D01*
X577518Y693149D01*
X576612Y695339D01*
X575169Y697219D01*
X573289Y698661D01*
X571100Y699568D01*
X568750Y699878D01*
D02*
G37*
G36*
X321750Y685598D02*
X319799Y685210D01*
X318145Y684105D01*
X317040Y682451D01*
X316652Y680500D01*
X317040Y678549D01*
X318145Y676895D01*
X319799Y675790D01*
X321750Y675402D01*
X323701Y675790D01*
X325355Y676895D01*
X326460Y678549D01*
X326848Y680500D01*
X326460Y682451D01*
X325355Y684105D01*
X323701Y685210D01*
X321750Y685598D01*
D02*
G37*
G36*
X641250Y682098D02*
X639299Y681710D01*
X637645Y680605D01*
X636540Y678951D01*
X636152Y677000D01*
X636540Y675049D01*
X637645Y673395D01*
X639299Y672290D01*
X641250Y671902D01*
X643201Y672290D01*
X644855Y673395D01*
X645960Y675049D01*
X646348Y677000D01*
X645960Y678951D01*
X644855Y680605D01*
X643201Y681710D01*
X641250Y682098D01*
D02*
G37*
G36*
X136250Y688363D02*
X134034Y688072D01*
X131968Y687216D01*
X130195Y685855D01*
X128834Y684082D01*
X127979Y682016D01*
X127687Y679800D01*
X127979Y677584D01*
X128834Y675518D01*
X130195Y673745D01*
X131968Y672384D01*
X134034Y671529D01*
X136250Y671237D01*
X138466Y671529D01*
X140532Y672384D01*
X142305Y673745D01*
X143666Y675518D01*
X144522Y677584D01*
X144813Y679800D01*
X144522Y682016D01*
X143666Y684082D01*
X142305Y685855D01*
X140532Y687216D01*
X138466Y688072D01*
X136250Y688363D01*
D02*
G37*
G36*
X279750Y680098D02*
X277799Y679710D01*
X276145Y678605D01*
X275040Y676951D01*
X274652Y675000D01*
X275040Y673049D01*
X276145Y671395D01*
X277799Y670290D01*
X279750Y669902D01*
X281701Y670290D01*
X283355Y671395D01*
X284460Y673049D01*
X284848Y675000D01*
X284460Y676951D01*
X283355Y678605D01*
X281701Y679710D01*
X279750Y680098D01*
D02*
G37*
G36*
X23750Y679879D02*
X21361Y679565D01*
X19136Y678643D01*
X17224Y677176D01*
X15757Y675265D01*
X14836Y673039D01*
X14521Y670650D01*
X14836Y668261D01*
X15757Y666036D01*
X17224Y664124D01*
X19136Y662657D01*
X21361Y661736D01*
X23750Y661421D01*
X26139Y661736D01*
X28365Y662657D01*
X30276Y664124D01*
X31742Y666036D01*
X32664Y668261D01*
X32979Y670650D01*
X32664Y673039D01*
X31742Y675265D01*
X30276Y677176D01*
X28365Y678643D01*
X26139Y679565D01*
X23750Y679879D01*
D02*
G37*
G36*
X161650Y675663D02*
X159434Y675371D01*
X157368Y674516D01*
X155595Y673155D01*
X154234Y671382D01*
X153379Y669316D01*
X153087Y667100D01*
X153379Y664884D01*
X154234Y662818D01*
X155595Y661045D01*
X157368Y659684D01*
X159434Y658829D01*
X161650Y658537D01*
X163866Y658829D01*
X165932Y659684D01*
X167705Y661045D01*
X169066Y662818D01*
X169921Y664884D01*
X170213Y667100D01*
X169921Y669316D01*
X169066Y671382D01*
X167705Y673155D01*
X165932Y674516D01*
X163866Y675371D01*
X161650Y675663D01*
D02*
G37*
G36*
X691250Y662598D02*
X689299Y662210D01*
X687645Y661105D01*
X686540Y659451D01*
X686152Y657500D01*
X686540Y655549D01*
X687645Y653895D01*
X689299Y652790D01*
X691250Y652402D01*
X693201Y652790D01*
X694855Y653895D01*
X695960Y655549D01*
X696348Y657500D01*
X695960Y659451D01*
X694855Y661105D01*
X693201Y662210D01*
X691250Y662598D01*
D02*
G37*
G36*
X453000Y662598D02*
X451049Y662210D01*
X449395Y661105D01*
X448290Y659451D01*
X447902Y657500D01*
X448290Y655549D01*
X449395Y653895D01*
X451049Y652790D01*
X453000Y652402D01*
X454951Y652790D01*
X456605Y653895D01*
X457710Y655549D01*
X458098Y657500D01*
X457710Y659451D01*
X456605Y661105D01*
X454951Y662210D01*
X453000Y662598D01*
D02*
G37*
G36*
X642750Y661848D02*
X640799Y661460D01*
X639145Y660355D01*
X638040Y658701D01*
X637652Y656750D01*
X638040Y654799D01*
X639145Y653145D01*
X640799Y652040D01*
X642750Y651652D01*
X644701Y652040D01*
X646355Y653145D01*
X647460Y654799D01*
X647848Y656750D01*
X647460Y658701D01*
X646355Y660355D01*
X644701Y661460D01*
X642750Y661848D01*
D02*
G37*
G36*
X715500Y661098D02*
X713549Y660710D01*
X711895Y659605D01*
X710790Y657951D01*
X710402Y656000D01*
X710790Y654049D01*
X711895Y652395D01*
X713549Y651290D01*
X715500Y650902D01*
X717451Y651290D01*
X719105Y652395D01*
X720210Y654049D01*
X720598Y656000D01*
X720210Y657951D01*
X719105Y659605D01*
X717451Y660710D01*
X715500Y661098D01*
D02*
G37*
G36*
X783020Y657914D02*
Y648720D01*
X792214D01*
X792019Y650201D01*
X790957Y652766D01*
X789267Y654967D01*
X787066Y656657D01*
X784501Y657719D01*
X783020Y657914D01*
D02*
G37*
G36*
X780480D02*
X778998Y657719D01*
X776434Y656657D01*
X774233Y654967D01*
X772543Y652766D01*
X771481Y650201D01*
X771286Y648720D01*
X780480D01*
Y657914D01*
D02*
G37*
G36*
X277750Y667848D02*
X275799Y667460D01*
X274145Y666355D01*
X273040Y664701D01*
X272652Y662750D01*
X273040Y660799D01*
X274145Y659145D01*
X274516Y658897D01*
X274248Y657549D01*
X273799Y657460D01*
X272145Y656355D01*
X271040Y654701D01*
X270652Y652750D01*
X271040Y650799D01*
X272145Y649145D01*
X273799Y648040D01*
X275750Y647652D01*
X277701Y648040D01*
X279355Y649145D01*
X280460Y650799D01*
X280848Y652750D01*
X280460Y654701D01*
X279355Y656355D01*
X278984Y656603D01*
X279252Y657951D01*
X279701Y658040D01*
X281355Y659145D01*
X282460Y660799D01*
X282848Y662750D01*
X282460Y664701D01*
X281355Y666355D01*
X279701Y667460D01*
X277750Y667848D01*
D02*
G37*
G36*
X359500Y652098D02*
X357549Y651710D01*
X355895Y650605D01*
X354790Y648951D01*
X354402Y647000D01*
X354790Y645049D01*
X355895Y643395D01*
X357549Y642290D01*
X359500Y641902D01*
X361451Y642290D01*
X363105Y643395D01*
X364210Y645049D01*
X364598Y647000D01*
X364210Y648951D01*
X363105Y650605D01*
X361451Y651710D01*
X359500Y652098D01*
D02*
G37*
G36*
X452750Y649098D02*
X450799Y648710D01*
X449145Y647605D01*
X448040Y645951D01*
X447652Y644000D01*
X448040Y642049D01*
X449145Y640395D01*
X450799Y639290D01*
X452750Y638902D01*
X454701Y639290D01*
X456355Y640395D01*
X457460Y642049D01*
X457848Y644000D01*
X457460Y645951D01*
X456355Y647605D01*
X454701Y648710D01*
X452750Y649098D01*
D02*
G37*
G36*
X792214Y646180D02*
X783020D01*
Y636986D01*
X784501Y637181D01*
X787066Y638243D01*
X789267Y639933D01*
X790957Y642134D01*
X792019Y644698D01*
X792214Y646180D01*
D02*
G37*
G36*
X780480D02*
X771286D01*
X771481Y644698D01*
X772543Y642134D01*
X774233Y639933D01*
X776434Y638243D01*
X778998Y637181D01*
X780480Y636986D01*
Y646180D01*
D02*
G37*
G36*
X72750Y672186D02*
X69270Y671843D01*
X65925Y670828D01*
X62841Y669180D01*
X60138Y666962D01*
X57920Y664259D01*
X56272Y661176D01*
X55257Y657830D01*
X54914Y654350D01*
X55257Y650870D01*
X56272Y647524D01*
X57920Y644441D01*
X60138Y641738D01*
X62841Y639520D01*
X65925Y637872D01*
X69270Y636857D01*
X72750Y636514D01*
X76230Y636857D01*
X79576Y637872D01*
X82659Y639520D01*
X85362Y641738D01*
X87580Y644441D01*
X89228Y647524D01*
X90243Y650870D01*
X90586Y654350D01*
X90243Y657830D01*
X89228Y661176D01*
X87580Y664259D01*
X85362Y666962D01*
X82659Y669180D01*
X79576Y670828D01*
X76230Y671843D01*
X72750Y672186D01*
D02*
G37*
G36*
X23750Y654479D02*
X21361Y654165D01*
X19136Y653242D01*
X17224Y651776D01*
X15757Y649865D01*
X14836Y647639D01*
X14521Y645250D01*
X14836Y642861D01*
X15757Y640636D01*
X17224Y638724D01*
X19136Y637257D01*
X21361Y636336D01*
X23750Y636021D01*
X26139Y636336D01*
X28365Y637257D01*
X30276Y638724D01*
X31742Y640636D01*
X32664Y642861D01*
X32979Y645250D01*
X32664Y647639D01*
X31742Y649865D01*
X30276Y651776D01*
X28365Y653242D01*
X26139Y654165D01*
X23750Y654479D01*
D02*
G37*
G36*
X104520Y648761D02*
Y635320D01*
X117961D01*
X117801Y636945D01*
X116957Y639728D01*
X115586Y642293D01*
X113741Y644541D01*
X111493Y646386D01*
X108928Y647757D01*
X106145Y648601D01*
X104520Y648761D01*
D02*
G37*
G36*
X101980D02*
X100356Y648601D01*
X97572Y647757D01*
X95007Y646386D01*
X92759Y644541D01*
X90914Y642293D01*
X89543Y639728D01*
X88699Y636945D01*
X88539Y635320D01*
X101980D01*
Y648761D01*
D02*
G37*
G36*
X692000Y642098D02*
X690049Y641710D01*
X688395Y640605D01*
X687290Y638951D01*
X686902Y637000D01*
X687290Y635049D01*
X688395Y633395D01*
X690049Y632290D01*
X692000Y631902D01*
X693951Y632290D01*
X695605Y633395D01*
X696710Y635049D01*
X697098Y637000D01*
X696710Y638951D01*
X695605Y640605D01*
X693951Y641710D01*
X692000Y642098D01*
D02*
G37*
G36*
X357500Y637848D02*
X355549Y637460D01*
X353895Y636355D01*
X352790Y634701D01*
X352402Y632750D01*
X352790Y630799D01*
X353895Y629145D01*
X355549Y628040D01*
X357500Y627652D01*
X359451Y628040D01*
X361105Y629145D01*
X362210Y630799D01*
X362598Y632750D01*
X362210Y634701D01*
X361105Y636355D01*
X359451Y637460D01*
X357500Y637848D01*
D02*
G37*
G36*
X207500Y636098D02*
X205549Y635710D01*
X203895Y634605D01*
X202790Y632951D01*
X202402Y631000D01*
X202790Y629049D01*
X203895Y627395D01*
X205549Y626290D01*
X207500Y625902D01*
X209451Y626290D01*
X211105Y627395D01*
X212210Y629049D01*
X212598Y631000D01*
X212210Y632951D01*
X211105Y634605D01*
X209451Y635710D01*
X207500Y636098D01*
D02*
G37*
G36*
X728500Y635598D02*
X726549Y635210D01*
X724895Y634105D01*
X723790Y632451D01*
X723402Y630500D01*
X723790Y628549D01*
X724895Y626895D01*
X726549Y625790D01*
X728500Y625402D01*
X730451Y625790D01*
X732105Y626895D01*
X733210Y628549D01*
X733598Y630500D01*
X733210Y632451D01*
X732105Y634105D01*
X730451Y635210D01*
X728500Y635598D01*
D02*
G37*
G36*
X613000Y633848D02*
X611049Y633460D01*
X609395Y632355D01*
X608290Y630701D01*
X607902Y628750D01*
X608290Y626799D01*
X609395Y625145D01*
X611049Y624040D01*
X613000Y623652D01*
X614951Y624040D01*
X616605Y625145D01*
X617710Y626799D01*
X618098Y628750D01*
X617710Y630701D01*
X616605Y632355D01*
X614951Y633460D01*
X613000Y633848D01*
D02*
G37*
G36*
X469000Y630848D02*
X467049Y630460D01*
X465395Y629355D01*
X464290Y627701D01*
X463902Y625750D01*
X464290Y623799D01*
X465395Y622145D01*
X467049Y621040D01*
X469000Y620652D01*
X470951Y621040D01*
X472605Y622145D01*
X473710Y623799D01*
X474098Y625750D01*
X473710Y627701D01*
X472605Y629355D01*
X470951Y630460D01*
X469000Y630848D01*
D02*
G37*
G36*
X117961Y632780D02*
X104520D01*
Y619339D01*
X106145Y619499D01*
X108928Y620343D01*
X111493Y621714D01*
X113741Y623559D01*
X115586Y625807D01*
X116957Y628372D01*
X117801Y631156D01*
X117961Y632780D01*
D02*
G37*
G36*
X101980D02*
X88539D01*
X88699Y631156D01*
X89543Y628372D01*
X90914Y625807D01*
X92759Y623559D01*
X95007Y621714D01*
X97572Y620343D01*
X100356Y619499D01*
X101980Y619339D01*
Y632780D01*
D02*
G37*
G36*
X320750Y628098D02*
X318799Y627710D01*
X317145Y626605D01*
X316040Y624951D01*
X315652Y623000D01*
X316040Y621049D01*
X317145Y619395D01*
X318799Y618290D01*
X320750Y617902D01*
X322701Y618290D01*
X324355Y619395D01*
X325460Y621049D01*
X325848Y623000D01*
X325460Y624951D01*
X324355Y626605D01*
X322701Y627710D01*
X320750Y628098D01*
D02*
G37*
G36*
X791250Y631550D02*
X772250D01*
Y612550D01*
X791250D01*
Y631550D01*
D02*
G37*
G36*
X460250Y622348D02*
X458299Y621960D01*
X456645Y620855D01*
X455540Y619201D01*
X455152Y617250D01*
X455540Y615299D01*
X456645Y613645D01*
X458299Y612540D01*
X460250Y612152D01*
X462201Y612540D01*
X463855Y613645D01*
X464960Y615299D01*
X465348Y617250D01*
X464960Y619201D01*
X463855Y620855D01*
X462201Y621960D01*
X460250Y622348D01*
D02*
G37*
G36*
X356500Y620848D02*
X354549Y620460D01*
X352895Y619355D01*
X351790Y617701D01*
X351402Y615750D01*
X351790Y613799D01*
X352895Y612145D01*
X354549Y611040D01*
X356500Y610652D01*
X358451Y611040D01*
X360105Y612145D01*
X361210Y613799D01*
X361598Y615750D01*
X361210Y617701D01*
X360105Y619355D01*
X358451Y620460D01*
X356500Y620848D01*
D02*
G37*
G36*
X307250Y613848D02*
X305299Y613460D01*
X303645Y612355D01*
X302540Y610701D01*
X302152Y608750D01*
X302540Y606799D01*
X303645Y605145D01*
X305299Y604040D01*
X307250Y603652D01*
X309201Y604040D01*
X310855Y605145D01*
X311960Y606799D01*
X312348Y608750D01*
X311960Y610701D01*
X310855Y612355D01*
X309201Y613460D01*
X307250Y613848D01*
D02*
G37*
G36*
X427750Y613598D02*
X425799Y613210D01*
X424145Y612105D01*
X423040Y610451D01*
X422652Y608500D01*
X423040Y606549D01*
X424145Y604895D01*
X425799Y603790D01*
X427750Y603402D01*
X429701Y603790D01*
X431355Y604895D01*
X432460Y606549D01*
X432848Y608500D01*
X432460Y610451D01*
X431355Y612105D01*
X429701Y613210D01*
X427750Y613598D01*
D02*
G37*
G36*
X580250Y606598D02*
X578299Y606210D01*
X576645Y605105D01*
X575540Y603451D01*
X575152Y601500D01*
X575540Y599549D01*
X576645Y597895D01*
X578299Y596790D01*
X580250Y596402D01*
X582201Y596790D01*
X583855Y597895D01*
X584960Y599549D01*
X585348Y601500D01*
X584960Y603451D01*
X583855Y605105D01*
X582201Y606210D01*
X580250Y606598D01*
D02*
G37*
G36*
X522250Y602098D02*
X520299Y601710D01*
X518645Y600605D01*
X517540Y598951D01*
X517152Y597000D01*
X517540Y595049D01*
X518645Y593395D01*
X520299Y592290D01*
X522250Y591902D01*
X524201Y592290D01*
X525855Y593395D01*
X526960Y595049D01*
X527348Y597000D01*
X526960Y598951D01*
X525855Y600605D01*
X524201Y601710D01*
X522250Y602098D01*
D02*
G37*
G36*
X459500Y601848D02*
X457549Y601460D01*
X455895Y600355D01*
X454790Y598701D01*
X454402Y596750D01*
X454790Y594799D01*
X455895Y593145D01*
X457549Y592040D01*
X459500Y591652D01*
X461451Y592040D01*
X463105Y593145D01*
X464210Y594799D01*
X464598Y596750D01*
X464210Y598701D01*
X463105Y600355D01*
X461451Y601460D01*
X459500Y601848D01*
D02*
G37*
G36*
X690020Y597205D02*
Y589020D01*
X698205D01*
X698045Y590241D01*
X697083Y592561D01*
X695554Y594554D01*
X693561Y596083D01*
X691240Y597044D01*
X690020Y597205D01*
D02*
G37*
G36*
X687480D02*
X686260Y597044D01*
X683939Y596083D01*
X681946Y594554D01*
X680417Y592561D01*
X679456Y590241D01*
X679295Y589020D01*
X687480D01*
Y597205D01*
D02*
G37*
G36*
X469500Y594598D02*
X467549Y594210D01*
X465895Y593105D01*
X464790Y591451D01*
X464402Y589500D01*
X464790Y587549D01*
X465895Y585895D01*
X467549Y584790D01*
X469500Y584402D01*
X471451Y584790D01*
X473105Y585895D01*
X474210Y587549D01*
X474598Y589500D01*
X474210Y591451D01*
X473105Y593105D01*
X471451Y594210D01*
X469500Y594598D01*
D02*
G37*
G36*
X647250Y596250D02*
X630250D01*
Y579250D01*
X647250D01*
Y596250D01*
D02*
G37*
G36*
X698205Y586480D02*
X690020D01*
Y578295D01*
X691240Y578456D01*
X693561Y579417D01*
X695554Y580946D01*
X697083Y582939D01*
X698045Y585260D01*
X698205Y586480D01*
D02*
G37*
G36*
X687480D02*
X679295D01*
X679456Y585260D01*
X680417Y582939D01*
X681946Y580946D01*
X683939Y579417D01*
X686260Y578456D01*
X687480Y578295D01*
Y586480D01*
D02*
G37*
G36*
X723750Y582098D02*
X721799Y581710D01*
X720145Y580605D01*
X719040Y578951D01*
X718652Y577000D01*
X719040Y575049D01*
X720145Y573395D01*
X721799Y572290D01*
X723750Y571902D01*
X725701Y572290D01*
X727355Y573395D01*
X728460Y575049D01*
X728848Y577000D01*
X728460Y578951D01*
X727355Y580605D01*
X725701Y581710D01*
X723750Y582098D01*
D02*
G37*
G36*
X337500Y569848D02*
X335549Y569460D01*
X333895Y568355D01*
X332790Y566701D01*
X332402Y564750D01*
X332790Y562799D01*
X333895Y561145D01*
X335549Y560040D01*
X337500Y559652D01*
X339451Y560040D01*
X341105Y561145D01*
X342210Y562799D01*
X342598Y564750D01*
X342210Y566701D01*
X341105Y568355D01*
X339451Y569460D01*
X337500Y569848D01*
D02*
G37*
G36*
X305250Y561098D02*
X303299Y560710D01*
X301645Y559605D01*
X300540Y557951D01*
X300152Y556000D01*
X300540Y554049D01*
X301645Y552395D01*
X303299Y551290D01*
X305250Y550902D01*
X307201Y551290D01*
X308855Y552395D01*
X309960Y554049D01*
X310348Y556000D01*
X309960Y557951D01*
X308855Y559605D01*
X307201Y560710D01*
X305250Y561098D01*
D02*
G37*
G36*
X328750Y558598D02*
X326799Y558210D01*
X325145Y557105D01*
X324040Y555451D01*
X323652Y553500D01*
X324040Y551549D01*
X325145Y549895D01*
X326799Y548790D01*
X328750Y548402D01*
X330701Y548790D01*
X332355Y549895D01*
X333460Y551549D01*
X333848Y553500D01*
X333460Y555451D01*
X332355Y557105D01*
X330701Y558210D01*
X328750Y558598D01*
D02*
G37*
G36*
X390500Y545848D02*
X388549Y545460D01*
X386895Y544355D01*
X385790Y542701D01*
X385402Y540750D01*
X385790Y538799D01*
X386895Y537145D01*
X388549Y536040D01*
X390500Y535652D01*
X392451Y536040D01*
X394105Y537145D01*
X395210Y538799D01*
X395598Y540750D01*
X395210Y542701D01*
X394105Y544355D01*
X392451Y545460D01*
X390500Y545848D01*
D02*
G37*
G36*
X266104Y551374D02*
X252896D01*
X250780Y551095D01*
X248809Y550279D01*
X247116Y548980D01*
X245817Y547287D01*
X245001Y545316D01*
X244722Y543200D01*
X245001Y541084D01*
X245817Y539113D01*
X247116Y537420D01*
X248809Y536121D01*
X250780Y535305D01*
X252896Y535026D01*
X266104D01*
X268220Y535305D01*
X270191Y536121D01*
X271884Y537420D01*
X273183Y539113D01*
X273999Y541084D01*
X274278Y543200D01*
X273999Y545316D01*
X273183Y547287D01*
X271884Y548980D01*
X270191Y550279D01*
X268220Y551095D01*
X266104Y551374D01*
D02*
G37*
G36*
X59000Y572354D02*
X55867Y571941D01*
X52948Y570732D01*
X50441Y568809D01*
X48518Y566302D01*
X47309Y563383D01*
X46897Y560250D01*
X47309Y557117D01*
X48518Y554198D01*
X50441Y551692D01*
X52948Y549768D01*
X55867Y548559D01*
X59000Y548147D01*
X62133Y548559D01*
X64106Y549376D01*
X73166Y540316D01*
X73166Y540316D01*
X74489Y539432D01*
X76050Y539122D01*
X76050Y539122D01*
X169614D01*
X169617Y539113D01*
X170916Y537420D01*
X172609Y536121D01*
X174580Y535305D01*
X176696Y535026D01*
X189904D01*
X192020Y535305D01*
X193991Y536121D01*
X195684Y537420D01*
X196983Y539113D01*
X197799Y541084D01*
X198078Y543200D01*
X197799Y545316D01*
X196983Y547287D01*
X195684Y548980D01*
X193991Y550279D01*
X192020Y551095D01*
X189904Y551374D01*
X176696D01*
X174580Y551095D01*
X172609Y550279D01*
X170916Y548980D01*
X169617Y547287D01*
X169614Y547278D01*
X77739D01*
X69874Y555144D01*
X70691Y557117D01*
X71104Y560250D01*
X70691Y563383D01*
X69482Y566302D01*
X67558Y568809D01*
X65052Y570732D01*
X62133Y571941D01*
X59000Y572354D01*
D02*
G37*
G36*
X338750Y541348D02*
X336799Y540960D01*
X335145Y539855D01*
X334040Y538201D01*
X333652Y536250D01*
X334040Y534299D01*
X335145Y532645D01*
X336799Y531540D01*
X338750Y531152D01*
X340701Y531540D01*
X342355Y532645D01*
X343460Y534299D01*
X343848Y536250D01*
X343460Y538201D01*
X342355Y539855D01*
X340701Y540960D01*
X338750Y541348D01*
D02*
G37*
G36*
X407000Y541098D02*
X405049Y540710D01*
X403395Y539605D01*
X402290Y537951D01*
X401902Y536000D01*
X402290Y534049D01*
X403395Y532395D01*
X405049Y531290D01*
X407000Y530902D01*
X408951Y531290D01*
X410605Y532395D01*
X411710Y534049D01*
X412098Y536000D01*
X411710Y537951D01*
X410605Y539605D01*
X408951Y540710D01*
X407000Y541098D01*
D02*
G37*
G36*
X398000Y532348D02*
X396049Y531960D01*
X394395Y530855D01*
X393290Y529201D01*
X392902Y527250D01*
X393290Y525299D01*
X394395Y523645D01*
X396049Y522540D01*
X398000Y522152D01*
X399951Y522540D01*
X401605Y523645D01*
X402710Y525299D01*
X403098Y527250D01*
X402710Y529201D01*
X401605Y530855D01*
X399951Y531960D01*
X398000Y532348D01*
D02*
G37*
G36*
X489000Y532098D02*
X487049Y531710D01*
X485395Y530605D01*
X484290Y528951D01*
X483902Y527000D01*
X484290Y525049D01*
X485395Y523395D01*
X487049Y522290D01*
X489000Y521902D01*
X490951Y522290D01*
X492605Y523395D01*
X493710Y525049D01*
X494098Y527000D01*
X493710Y528951D01*
X492605Y530605D01*
X490951Y531710D01*
X489000Y532098D01*
D02*
G37*
G36*
X122750Y523848D02*
X120799Y523460D01*
X119145Y522355D01*
X118040Y520701D01*
X117652Y518750D01*
X118040Y516799D01*
X119145Y515145D01*
X120799Y514040D01*
X122750Y513652D01*
X124701Y514040D01*
X126355Y515145D01*
X127460Y516799D01*
X127848Y518750D01*
X127460Y520701D01*
X126355Y522355D01*
X124701Y523460D01*
X122750Y523848D01*
D02*
G37*
G36*
X745520Y520955D02*
Y512770D01*
X753705D01*
X753544Y513990D01*
X752583Y516311D01*
X751054Y518304D01*
X749061Y519833D01*
X746740Y520794D01*
X745520Y520955D01*
D02*
G37*
G36*
X742980Y520955D02*
X741760Y520794D01*
X739439Y519833D01*
X737446Y518304D01*
X735917Y516311D01*
X734956Y513990D01*
X734795Y512770D01*
X742980D01*
Y520955D01*
D02*
G37*
G36*
X274208Y525904D02*
X244792D01*
Y509696D01*
X274208D01*
Y525904D01*
D02*
G37*
G36*
X189904Y525974D02*
X176696D01*
X174580Y525695D01*
X172609Y524879D01*
X170916Y523580D01*
X169617Y521887D01*
X168801Y519916D01*
X168522Y517800D01*
X168801Y515684D01*
X169617Y513713D01*
X170916Y512020D01*
X172609Y510721D01*
X174580Y509905D01*
X176696Y509626D01*
X189904D01*
X192020Y509905D01*
X193991Y510721D01*
X195684Y512020D01*
X196983Y513713D01*
X197799Y515684D01*
X198078Y517800D01*
X197799Y519916D01*
X196983Y521887D01*
X195684Y523580D01*
X193991Y524879D01*
X192020Y525695D01*
X189904Y525974D01*
D02*
G37*
G36*
X802750Y520000D02*
X785750D01*
Y503000D01*
X802750D01*
Y520000D01*
D02*
G37*
G36*
X742980Y510230D02*
X734795D01*
X734956Y509010D01*
X735917Y506689D01*
X737446Y504696D01*
X739439Y503167D01*
X741760Y502206D01*
X742980Y502045D01*
Y510230D01*
D02*
G37*
G36*
X753705D02*
X745520D01*
Y502045D01*
X746740Y502206D01*
X749061Y503167D01*
X751054Y504696D01*
X752583Y506689D01*
X753544Y509010D01*
X753705Y510230D01*
D02*
G37*
G36*
X689120Y510249D02*
X673880D01*
X671499Y509935D01*
X669281Y509016D01*
X667376Y507555D01*
X665914Y505649D01*
X664995Y503431D01*
X664681Y501050D01*
X664995Y498669D01*
X665914Y496451D01*
X667376Y494546D01*
X669281Y493084D01*
X671499Y492165D01*
X673880Y491851D01*
X689120D01*
X691501Y492165D01*
X693719Y493084D01*
X695624Y494546D01*
X697086Y496451D01*
X698005Y498669D01*
X698319Y501050D01*
X698005Y503431D01*
X697086Y505649D01*
X695624Y507555D01*
X693719Y509016D01*
X691501Y509935D01*
X689120Y510249D01*
D02*
G37*
G36*
X356000Y499098D02*
X354049Y498710D01*
X352395Y497605D01*
X351290Y495951D01*
X350902Y494000D01*
X351290Y492049D01*
X352395Y490395D01*
X354049Y489290D01*
X356000Y488902D01*
X357951Y489290D01*
X359605Y490395D01*
X360710Y492049D01*
X361098Y494000D01*
X360710Y495951D01*
X359605Y497605D01*
X357951Y498710D01*
X356000Y499098D01*
D02*
G37*
G36*
X266104Y489124D02*
X252896D01*
X250780Y488845D01*
X248809Y488029D01*
X247116Y486730D01*
X245817Y485037D01*
X245001Y483066D01*
X244722Y480950D01*
X245001Y478834D01*
X245817Y476863D01*
X247116Y475170D01*
X248809Y473871D01*
X250780Y473055D01*
X252896Y472776D01*
X266104D01*
X268220Y473055D01*
X270191Y473871D01*
X271884Y475170D01*
X273183Y476863D01*
X273999Y478834D01*
X274278Y480950D01*
X273999Y483066D01*
X273183Y485037D01*
X271884Y486730D01*
X270191Y488029D01*
X268220Y488845D01*
X266104Y489124D01*
D02*
G37*
G36*
X59000Y522354D02*
X55867Y521941D01*
X52948Y520732D01*
X50441Y518809D01*
X48518Y516302D01*
X47309Y513383D01*
X46897Y510250D01*
X47309Y507117D01*
X48518Y504198D01*
X50441Y501692D01*
X52948Y499768D01*
X55867Y498559D01*
X59000Y498147D01*
X62133Y498559D01*
X64106Y499376D01*
X85416Y478066D01*
X86739Y477182D01*
X88300Y476872D01*
X88300Y476872D01*
X169614D01*
X169617Y476863D01*
X170916Y475170D01*
X172609Y473871D01*
X174580Y473055D01*
X176696Y472776D01*
X189904D01*
X192020Y473055D01*
X193991Y473871D01*
X195684Y475170D01*
X196983Y476863D01*
X197799Y478834D01*
X198078Y480950D01*
X197799Y483066D01*
X196983Y485037D01*
X195684Y486730D01*
X193991Y488029D01*
X192020Y488845D01*
X189904Y489124D01*
X176696D01*
X174580Y488845D01*
X172609Y488029D01*
X170916Y486730D01*
X169617Y485037D01*
X169614Y485028D01*
X89989D01*
X69874Y505144D01*
X70691Y507117D01*
X71104Y510250D01*
X70691Y513383D01*
X69482Y516302D01*
X67558Y518809D01*
X65052Y520732D01*
X62133Y521941D01*
X59000Y522354D01*
D02*
G37*
G36*
X689120Y484849D02*
X673880D01*
X671499Y484535D01*
X669281Y483616D01*
X667376Y482155D01*
X665914Y480249D01*
X664995Y478031D01*
X664681Y475650D01*
X664995Y473269D01*
X665914Y471051D01*
X667376Y469146D01*
X669281Y467684D01*
X671499Y466765D01*
X673880Y466451D01*
X689120D01*
X691501Y466765D01*
X693719Y467684D01*
X695624Y469146D01*
X697086Y471051D01*
X698005Y473269D01*
X698319Y475650D01*
X698005Y478031D01*
X697086Y480249D01*
X695624Y482155D01*
X693719Y483616D01*
X691501Y484535D01*
X689120Y484849D01*
D02*
G37*
G36*
X416750Y472848D02*
X414799Y472460D01*
X413145Y471355D01*
X412040Y469701D01*
X411652Y467750D01*
X412040Y465799D01*
X413145Y464145D01*
X414799Y463040D01*
X416750Y462652D01*
X418701Y463040D01*
X420355Y464145D01*
X421460Y465799D01*
X421848Y467750D01*
X421460Y469701D01*
X420355Y471355D01*
X418701Y472460D01*
X416750Y472848D01*
D02*
G37*
G36*
X348250Y471348D02*
X346299Y470960D01*
X344645Y469855D01*
X343540Y468201D01*
X343152Y466250D01*
X343540Y464299D01*
X344645Y462645D01*
X346299Y461540D01*
X348250Y461152D01*
X350201Y461540D01*
X351855Y462645D01*
X352960Y464299D01*
X353348Y466250D01*
X352960Y468201D01*
X351855Y469855D01*
X350201Y470960D01*
X348250Y471348D01*
D02*
G37*
G36*
X360000Y470598D02*
X358049Y470210D01*
X356395Y469105D01*
X355290Y467451D01*
X354902Y465500D01*
X355290Y463549D01*
X356395Y461895D01*
X358049Y460790D01*
X360000Y460402D01*
X361951Y460790D01*
X363605Y461895D01*
X364710Y463549D01*
X365098Y465500D01*
X364710Y467451D01*
X363605Y469105D01*
X361951Y470210D01*
X360000Y470598D01*
D02*
G37*
G36*
X499000Y493109D02*
X495594Y492774D01*
X492319Y491780D01*
X489300Y490167D01*
X486655Y487995D01*
X484483Y485350D01*
X482870Y482331D01*
X481876Y479056D01*
X481541Y475650D01*
X481876Y472244D01*
X482870Y468969D01*
X484483Y465950D01*
X486655Y463305D01*
X489300Y461133D01*
X492319Y459520D01*
X495594Y458526D01*
X499000Y458191D01*
X502406Y458526D01*
X505681Y459520D01*
X508700Y461133D01*
X511345Y463305D01*
X513517Y465950D01*
X515130Y468969D01*
X516124Y472244D01*
X516459Y475650D01*
X516124Y479056D01*
X515130Y482331D01*
X513517Y485350D01*
X511345Y487995D01*
X508700Y490167D01*
X505681Y491780D01*
X502406Y492774D01*
X499000Y493109D01*
D02*
G37*
G36*
X699280Y460410D02*
X682770D01*
Y451520D01*
X699280D01*
Y460410D01*
D02*
G37*
G36*
X680230D02*
X663720D01*
Y451520D01*
X680230D01*
Y460410D01*
D02*
G37*
G36*
X409000Y460598D02*
X407049Y460210D01*
X405395Y459105D01*
X404290Y457451D01*
X403902Y455500D01*
X404290Y453549D01*
X405395Y451895D01*
X407049Y450790D01*
X409000Y450402D01*
X410951Y450790D01*
X412605Y451895D01*
X413710Y453549D01*
X414098Y455500D01*
X413710Y457451D01*
X412605Y459105D01*
X410951Y460210D01*
X409000Y460598D01*
D02*
G37*
G36*
X123000Y460348D02*
X121049Y459960D01*
X119395Y458855D01*
X118290Y457201D01*
X117902Y455250D01*
X118290Y453299D01*
X119395Y451645D01*
X121049Y450540D01*
X123000Y450152D01*
X124951Y450540D01*
X126605Y451645D01*
X127710Y453299D01*
X128098Y455250D01*
X127710Y457201D01*
X126605Y458855D01*
X124951Y459960D01*
X123000Y460348D01*
D02*
G37*
G36*
X274208Y463654D02*
X244792D01*
Y447446D01*
X274208D01*
Y463654D01*
D02*
G37*
G36*
X189904Y463724D02*
X176696D01*
X174580Y463445D01*
X172609Y462629D01*
X170916Y461330D01*
X169617Y459637D01*
X168801Y457666D01*
X168522Y455550D01*
X168801Y453434D01*
X169617Y451463D01*
X170916Y449770D01*
X172609Y448471D01*
X174580Y447655D01*
X176696Y447376D01*
X189904D01*
X192020Y447655D01*
X193991Y448471D01*
X195684Y449770D01*
X196983Y451463D01*
X197799Y453434D01*
X198078Y455550D01*
X197799Y457666D01*
X196983Y459637D01*
X195684Y461330D01*
X193991Y462629D01*
X192020Y463445D01*
X189904Y463724D01*
D02*
G37*
G36*
X699280Y448980D02*
X682770D01*
Y440090D01*
X699280D01*
Y448980D01*
D02*
G37*
G36*
X680230D02*
X663720D01*
Y440090D01*
X680230D01*
Y448980D01*
D02*
G37*
G36*
X425750Y449348D02*
X423799Y448960D01*
X422145Y447855D01*
X421040Y446201D01*
X420652Y444250D01*
X421040Y442299D01*
X422145Y440645D01*
X423799Y439540D01*
X425750Y439152D01*
X427701Y439540D01*
X429355Y440645D01*
X430460Y442299D01*
X430848Y444250D01*
X430460Y446201D01*
X429355Y447855D01*
X427701Y448960D01*
X425750Y449348D01*
D02*
G37*
G36*
X375500D02*
X373549Y448960D01*
X371895Y447855D01*
X370790Y446201D01*
X370402Y444250D01*
X370790Y442299D01*
X371895Y440645D01*
X373549Y439540D01*
X375500Y439152D01*
X377451Y439540D01*
X379105Y440645D01*
X380210Y442299D01*
X380598Y444250D01*
X380210Y446201D01*
X379105Y447855D01*
X377451Y448960D01*
X375500Y449348D01*
D02*
G37*
G36*
X359000Y444598D02*
X357049Y444210D01*
X355395Y443105D01*
X354290Y441451D01*
X353902Y439500D01*
X354290Y437549D01*
X355395Y435895D01*
X357049Y434790D01*
X359000Y434402D01*
X360951Y434790D01*
X362605Y435895D01*
X363710Y437549D01*
X364098Y439500D01*
X363710Y441451D01*
X362605Y443105D01*
X360951Y444210D01*
X359000Y444598D01*
D02*
G37*
G36*
X367250Y430098D02*
X365299Y429710D01*
X363645Y428605D01*
X362540Y426951D01*
X362152Y425000D01*
X362540Y423049D01*
X363645Y421395D01*
X365299Y420290D01*
X367250Y419902D01*
X369201Y420290D01*
X370855Y421395D01*
X371960Y423049D01*
X372348Y425000D01*
X371960Y426951D01*
X370855Y428605D01*
X369201Y429710D01*
X367250Y430098D01*
D02*
G37*
G36*
X630750Y427848D02*
X628799Y427460D01*
X627145Y426355D01*
X626040Y424701D01*
X625652Y422750D01*
X626040Y420799D01*
X627145Y419145D01*
X628799Y418040D01*
X630750Y417652D01*
X632701Y418040D01*
X634355Y419145D01*
X635460Y420799D01*
X635848Y422750D01*
X635460Y424701D01*
X634355Y426355D01*
X632701Y427460D01*
X630750Y427848D01*
D02*
G37*
G36*
X266104Y431624D02*
X252896D01*
X250780Y431345D01*
X248809Y430529D01*
X247116Y429230D01*
X245817Y427537D01*
X245001Y425566D01*
X244722Y423450D01*
X245001Y421334D01*
X245817Y419363D01*
X247116Y417670D01*
X248809Y416371D01*
X250780Y415555D01*
X252896Y415276D01*
X266104D01*
X268220Y415555D01*
X270191Y416371D01*
X271884Y417670D01*
X273183Y419363D01*
X273999Y421334D01*
X274278Y423450D01*
X273999Y425566D01*
X273183Y427537D01*
X271884Y429230D01*
X270191Y430529D01*
X268220Y431345D01*
X266104Y431624D01*
D02*
G37*
G36*
X59000Y472354D02*
X55867Y471941D01*
X52948Y470732D01*
X50441Y468809D01*
X48518Y466302D01*
X47309Y463383D01*
X46897Y460250D01*
X47309Y457117D01*
X48518Y454198D01*
X50441Y451692D01*
X52948Y449768D01*
X55867Y448559D01*
X59000Y448147D01*
X62133Y448559D01*
X64106Y449376D01*
X92916Y420566D01*
X94239Y419682D01*
X95800Y419372D01*
X95800Y419372D01*
X169614D01*
X169617Y419363D01*
X170916Y417670D01*
X172609Y416371D01*
X174580Y415555D01*
X176696Y415276D01*
X189904D01*
X192020Y415555D01*
X193991Y416371D01*
X195684Y417670D01*
X196983Y419363D01*
X197799Y421334D01*
X198078Y423450D01*
X197799Y425566D01*
X196983Y427537D01*
X195684Y429230D01*
X193991Y430529D01*
X192020Y431345D01*
X189904Y431624D01*
X176696D01*
X174580Y431345D01*
X172609Y430529D01*
X170916Y429230D01*
X169617Y427537D01*
X169614Y427528D01*
X97489D01*
X69874Y455144D01*
X70691Y457117D01*
X71104Y460250D01*
X70691Y463383D01*
X69482Y466302D01*
X67558Y468809D01*
X65052Y470732D01*
X62133Y471941D01*
X59000Y472354D01*
D02*
G37*
G36*
X123250Y402348D02*
X121299Y401960D01*
X119645Y400855D01*
X118540Y399201D01*
X118152Y397250D01*
X118540Y395299D01*
X119645Y393645D01*
X121299Y392540D01*
X123250Y392152D01*
X125201Y392540D01*
X126855Y393645D01*
X127960Y395299D01*
X128348Y397250D01*
X127960Y399201D01*
X126855Y400855D01*
X125201Y401960D01*
X123250Y402348D01*
D02*
G37*
G36*
X274208Y406154D02*
X244792D01*
Y389946D01*
X274208D01*
Y406154D01*
D02*
G37*
G36*
X189904Y406224D02*
X176696D01*
X174580Y405945D01*
X172609Y405129D01*
X170916Y403830D01*
X169617Y402137D01*
X168801Y400166D01*
X168522Y398050D01*
X168801Y395934D01*
X169617Y393963D01*
X170916Y392270D01*
X172609Y390971D01*
X174580Y390155D01*
X176696Y389876D01*
X189904D01*
X192020Y390155D01*
X193991Y390971D01*
X195684Y392270D01*
X196983Y393963D01*
X197799Y395934D01*
X198078Y398050D01*
X197799Y400166D01*
X196983Y402137D01*
X195684Y403830D01*
X193991Y405129D01*
X192020Y405945D01*
X189904Y406224D01*
D02*
G37*
G36*
X378750Y383348D02*
X376799Y382960D01*
X375145Y381855D01*
X374040Y380201D01*
X373652Y378250D01*
X374040Y376299D01*
X375145Y374645D01*
X376799Y373540D01*
X378750Y373152D01*
X380701Y373540D01*
X382355Y374645D01*
X383460Y376299D01*
X383848Y378250D01*
X383460Y380201D01*
X382355Y381855D01*
X380701Y382960D01*
X378750Y383348D01*
D02*
G37*
G36*
X266104Y370074D02*
X252896D01*
X250780Y369795D01*
X248809Y368979D01*
X247116Y367680D01*
X245817Y365987D01*
X245001Y364016D01*
X244722Y361900D01*
X245001Y359784D01*
X245817Y357813D01*
X247116Y356120D01*
X248809Y354821D01*
X250780Y354005D01*
X252896Y353726D01*
X266104D01*
X268220Y354005D01*
X270191Y354821D01*
X271884Y356120D01*
X273183Y357813D01*
X273999Y359784D01*
X274278Y361900D01*
X273999Y364016D01*
X273183Y365987D01*
X271884Y367680D01*
X270191Y368979D01*
X268220Y369795D01*
X266104Y370074D01*
D02*
G37*
G36*
X59000Y422354D02*
X55867Y421941D01*
X52948Y420732D01*
X50441Y418809D01*
X48518Y416302D01*
X47309Y413383D01*
X46897Y410250D01*
X47309Y407117D01*
X48518Y404198D01*
X50441Y401692D01*
X52948Y399768D01*
X55867Y398559D01*
X59000Y398147D01*
X62133Y398559D01*
X64106Y399376D01*
X104466Y359016D01*
X104466Y359016D01*
X105789Y358132D01*
X107350Y357822D01*
X169614D01*
X169617Y357813D01*
X170916Y356120D01*
X172609Y354821D01*
X174580Y354005D01*
X176696Y353726D01*
X189904D01*
X192020Y354005D01*
X193991Y354821D01*
X195684Y356120D01*
X196983Y357813D01*
X197799Y359784D01*
X198078Y361900D01*
X197799Y364016D01*
X196983Y365987D01*
X195684Y367680D01*
X193991Y368979D01*
X192020Y369795D01*
X189904Y370074D01*
X176696D01*
X174580Y369795D01*
X172609Y368979D01*
X170916Y367680D01*
X169617Y365987D01*
X169614Y365978D01*
X109039D01*
X69874Y405144D01*
X70691Y407117D01*
X71104Y410250D01*
X70691Y413383D01*
X69482Y416302D01*
X67558Y418809D01*
X65052Y420732D01*
X62133Y421941D01*
X59000Y422354D01*
D02*
G37*
G36*
Y372354D02*
X55867Y371941D01*
X52948Y370732D01*
X50441Y368809D01*
X48518Y366302D01*
X47309Y363383D01*
X46897Y360250D01*
X47309Y357117D01*
X48518Y354198D01*
X50441Y351692D01*
X52948Y349768D01*
X55867Y348559D01*
X59000Y348147D01*
X62133Y348559D01*
X65052Y349768D01*
X67558Y351692D01*
X69482Y354198D01*
X70691Y357117D01*
X71104Y360250D01*
X70691Y363383D01*
X69482Y366302D01*
X67558Y368809D01*
X65052Y370732D01*
X62133Y371941D01*
X59000Y372354D01*
D02*
G37*
G36*
X274208Y344604D02*
X244792D01*
Y328396D01*
X274208D01*
Y344604D01*
D02*
G37*
G36*
X189904Y344674D02*
X176696D01*
X174580Y344395D01*
X172609Y343579D01*
X170916Y342280D01*
X169617Y340587D01*
X168801Y338616D01*
X168522Y336500D01*
X168801Y334384D01*
X169617Y332413D01*
X170916Y330720D01*
X172609Y329421D01*
X174580Y328605D01*
X176696Y328326D01*
X189904D01*
X192020Y328605D01*
X193991Y329421D01*
X195684Y330720D01*
X196983Y332413D01*
X197799Y334384D01*
X198078Y336500D01*
X197799Y338616D01*
X196983Y340587D01*
X195684Y342280D01*
X193991Y343579D01*
X192020Y344395D01*
X189904Y344674D01*
D02*
G37*
G36*
X430250Y320598D02*
X428299Y320210D01*
X426645Y319105D01*
X425540Y317451D01*
X425152Y315500D01*
X425540Y313549D01*
X426645Y311895D01*
X428299Y310790D01*
X430250Y310402D01*
X432201Y310790D01*
X433855Y311895D01*
X434960Y313549D01*
X435348Y315500D01*
X434960Y317451D01*
X433855Y319105D01*
X432201Y320210D01*
X430250Y320598D01*
D02*
G37*
G36*
X71000Y322250D02*
X47000D01*
Y298250D01*
X71000D01*
Y322250D01*
D02*
G37*
G36*
X325750Y290098D02*
X323799Y289710D01*
X322145Y288605D01*
X321040Y286951D01*
X320652Y285000D01*
X321040Y283049D01*
X322145Y281395D01*
X323799Y280290D01*
X325750Y279902D01*
X327701Y280290D01*
X329355Y281395D01*
X330460Y283049D01*
X330848Y285000D01*
X330460Y286951D01*
X329355Y288605D01*
X327701Y289710D01*
X325750Y290098D01*
D02*
G37*
G36*
X364250Y284598D02*
X362299Y284210D01*
X360645Y283105D01*
X359540Y281451D01*
X359152Y279500D01*
X359540Y277549D01*
X360645Y275895D01*
X362299Y274790D01*
X364250Y274402D01*
X366201Y274790D01*
X367855Y275895D01*
X368960Y277549D01*
X369348Y279500D01*
X368960Y281451D01*
X367855Y283105D01*
X366201Y284210D01*
X364250Y284598D01*
D02*
G37*
G36*
X404871Y284477D02*
X402920Y284089D01*
X401266Y282984D01*
X400161Y281330D01*
X399773Y279379D01*
X400161Y277428D01*
X401266Y275774D01*
X402920Y274669D01*
X404871Y274281D01*
X406822Y274669D01*
X408475Y275774D01*
X409581Y277428D01*
X409969Y279379D01*
X409581Y281330D01*
X408475Y282984D01*
X406822Y284089D01*
X404871Y284477D01*
D02*
G37*
G36*
X211500Y282348D02*
X209549Y281960D01*
X207895Y280855D01*
X206790Y279201D01*
X206402Y277250D01*
X206790Y275299D01*
X207895Y273645D01*
X209549Y272540D01*
X211500Y272152D01*
X213451Y272540D01*
X215105Y273645D01*
X216210Y275299D01*
X216598Y277250D01*
X216210Y279201D01*
X215105Y280855D01*
X213451Y281960D01*
X211500Y282348D01*
D02*
G37*
G36*
X567454Y286874D02*
X554246D01*
X552130Y286595D01*
X550159Y285779D01*
X548466Y284480D01*
X547167Y282787D01*
X546351Y280816D01*
X546072Y278700D01*
X546351Y276584D01*
X547167Y274613D01*
X548466Y272920D01*
X550159Y271621D01*
X552130Y270805D01*
X554246Y270526D01*
X567454D01*
X569570Y270805D01*
X571541Y271621D01*
X573234Y272920D01*
X574533Y274613D01*
X575349Y276584D01*
X575628Y278700D01*
X575349Y280816D01*
X574533Y282787D01*
X573234Y284480D01*
X571541Y285779D01*
X569570Y286595D01*
X567454Y286874D01*
D02*
G37*
G36*
X491254D02*
X478046D01*
X475930Y286595D01*
X473959Y285779D01*
X472266Y284480D01*
X470967Y282787D01*
X470151Y280816D01*
X469872Y278700D01*
X470151Y276584D01*
X470967Y274613D01*
X472266Y272920D01*
X473959Y271621D01*
X475930Y270805D01*
X478046Y270526D01*
X491254D01*
X493369Y270805D01*
X495341Y271621D01*
X497034Y272920D01*
X498333Y274613D01*
X499149Y276584D01*
X499428Y278700D01*
X499149Y280816D01*
X498333Y282787D01*
X497034Y284480D01*
X495341Y285779D01*
X493369Y286595D01*
X491254Y286874D01*
D02*
G37*
G36*
X446250Y276598D02*
X444299Y276210D01*
X442645Y275105D01*
X441540Y273451D01*
X441152Y271500D01*
X441540Y269549D01*
X442645Y267895D01*
X444299Y266790D01*
X446250Y266402D01*
X448201Y266790D01*
X449855Y267895D01*
X450960Y269549D01*
X451348Y271500D01*
X450960Y273451D01*
X449855Y275105D01*
X448201Y276210D01*
X446250Y276598D01*
D02*
G37*
G36*
X252000Y275848D02*
X250049Y275460D01*
X248395Y274355D01*
X247290Y272701D01*
X246902Y270750D01*
X247290Y268799D01*
X248395Y267145D01*
X250049Y266040D01*
X252000Y265652D01*
X253951Y266040D01*
X255605Y267145D01*
X256710Y268799D01*
X257098Y270750D01*
X256710Y272701D01*
X255605Y274355D01*
X253951Y275460D01*
X252000Y275848D01*
D02*
G37*
G36*
X188500Y267348D02*
X186549Y266960D01*
X184895Y265855D01*
X183790Y264201D01*
X183402Y262250D01*
X183790Y260299D01*
X184895Y258645D01*
X186549Y257540D01*
X188500Y257152D01*
X190451Y257540D01*
X192105Y258645D01*
X193210Y260299D01*
X193598Y262250D01*
X193210Y264201D01*
X192105Y265855D01*
X190451Y266960D01*
X188500Y267348D01*
D02*
G37*
G36*
X575558Y261404D02*
X546142D01*
Y245196D01*
X575558D01*
Y261404D01*
D02*
G37*
G36*
X491254Y261474D02*
X478046D01*
X475930Y261195D01*
X473959Y260379D01*
X472266Y259080D01*
X470967Y257387D01*
X470151Y255416D01*
X469872Y253300D01*
X470151Y251185D01*
X470967Y249213D01*
X472266Y247520D01*
X473959Y246221D01*
X475930Y245405D01*
X478046Y245126D01*
X491254D01*
X493369Y245405D01*
X495341Y246221D01*
X497034Y247520D01*
X498333Y249213D01*
X499149Y251185D01*
X499428Y253300D01*
X499149Y255416D01*
X498333Y257387D01*
X497034Y259080D01*
X495341Y260379D01*
X493369Y261195D01*
X491254Y261474D01*
D02*
G37*
G36*
X59000Y262854D02*
X55867Y262441D01*
X52948Y261232D01*
X50441Y259308D01*
X48518Y256802D01*
X47309Y253883D01*
X46897Y250750D01*
X47309Y247617D01*
X48518Y244698D01*
X50441Y242192D01*
X52948Y240268D01*
X55867Y239059D01*
X59000Y238646D01*
X62133Y239059D01*
X65052Y240268D01*
X67558Y242192D01*
X69482Y244698D01*
X70691Y247617D01*
X71104Y250750D01*
X70691Y253883D01*
X69482Y256802D01*
X67558Y259308D01*
X65052Y261232D01*
X62133Y262441D01*
X59000Y262854D01*
D02*
G37*
G36*
X762020Y240205D02*
Y232020D01*
X770205D01*
X770044Y233241D01*
X769083Y235561D01*
X767554Y237554D01*
X765561Y239083D01*
X763241Y240044D01*
X762020Y240205D01*
D02*
G37*
G36*
X759480D02*
X758260Y240044D01*
X755939Y239083D01*
X753946Y237554D01*
X752417Y235561D01*
X751456Y233241D01*
X751295Y232020D01*
X759480D01*
Y240205D01*
D02*
G37*
G36*
X695500Y1066806D02*
X99250D01*
X97553Y1066583D01*
X95972Y1065928D01*
X94614Y1064886D01*
X84364Y1054636D01*
X83322Y1053278D01*
X82667Y1051697D01*
X82444Y1050000D01*
Y943500D01*
X82667Y941803D01*
X83322Y940222D01*
X84364Y938864D01*
X89370Y933858D01*
X90728Y932816D01*
X92309Y932161D01*
X94006Y931938D01*
X105537D01*
X106796Y930296D01*
X108833Y928733D01*
X111205Y927751D01*
X113750Y927416D01*
X116295Y927751D01*
X118667Y928733D01*
X120704Y930296D01*
X122267Y932333D01*
X123249Y934705D01*
X123584Y937250D01*
X123249Y939795D01*
X122267Y942167D01*
X120704Y944204D01*
X118667Y945767D01*
X116295Y946749D01*
X113750Y947084D01*
X111205Y946749D01*
X108833Y945767D01*
X107899Y945050D01*
X96722D01*
X95556Y946216D01*
Y1047284D01*
X101966Y1053694D01*
X692784D01*
X714694Y1031784D01*
Y1008009D01*
X714296Y1007704D01*
X712733Y1005667D01*
X711751Y1003295D01*
X711416Y1000750D01*
X711751Y998205D01*
X712733Y995833D01*
X714296Y993796D01*
X716333Y992233D01*
X718705Y991251D01*
X721250Y990916D01*
X721747Y990981D01*
X741194Y971535D01*
Y898250D01*
X741417Y896553D01*
X742072Y894972D01*
X743114Y893614D01*
X814944Y821784D01*
Y421466D01*
X706114Y312636D01*
X705072Y311278D01*
X704417Y309697D01*
X704194Y308000D01*
Y239250D01*
X702250D01*
Y222250D01*
X719250D01*
Y239250D01*
X717306D01*
Y305284D01*
X826136Y414114D01*
X827178Y415472D01*
X827833Y417053D01*
X828056Y418750D01*
Y824500D01*
X827833Y826197D01*
X827178Y827778D01*
X826136Y829136D01*
X754306Y900966D01*
Y974250D01*
X754083Y975947D01*
X753428Y977528D01*
X752386Y978886D01*
X731019Y1000253D01*
X731084Y1000750D01*
X730749Y1003295D01*
X729767Y1005667D01*
X728204Y1007704D01*
X727806Y1008009D01*
Y1034500D01*
X727583Y1036197D01*
X726928Y1037778D01*
X725886Y1039136D01*
X700136Y1064886D01*
X698778Y1065928D01*
X697197Y1066583D01*
X695500Y1066806D01*
D02*
G37*
G36*
X770205Y229480D02*
X762020D01*
Y221295D01*
X763241Y221456D01*
X765561Y222417D01*
X767554Y223946D01*
X769083Y225939D01*
X770044Y228260D01*
X770205Y229480D01*
D02*
G37*
G36*
X759480D02*
X751295D01*
X751456Y228260D01*
X752417Y225939D01*
X753946Y223946D01*
X755939Y222417D01*
X758260Y221456D01*
X759480Y221295D01*
Y229480D01*
D02*
G37*
G36*
X567454Y228874D02*
X554246D01*
X552130Y228595D01*
X550159Y227779D01*
X548466Y226480D01*
X547167Y224787D01*
X546351Y222816D01*
X546072Y220700D01*
X546351Y218584D01*
X547167Y216613D01*
X548466Y214920D01*
X550159Y213621D01*
X552130Y212805D01*
X554246Y212526D01*
X567454D01*
X569570Y212805D01*
X571541Y213621D01*
X573234Y214920D01*
X574533Y216613D01*
X575349Y218584D01*
X575628Y220700D01*
X575349Y222816D01*
X574533Y224787D01*
X573234Y226480D01*
X571541Y227779D01*
X569570Y228595D01*
X567454Y228874D01*
D02*
G37*
G36*
X491254D02*
X478046D01*
X475930Y228595D01*
X473959Y227779D01*
X472266Y226480D01*
X470967Y224787D01*
X470151Y222816D01*
X469872Y220700D01*
X470151Y218584D01*
X470967Y216613D01*
X472266Y214920D01*
X473959Y213621D01*
X475930Y212805D01*
X478046Y212526D01*
X491254D01*
X493369Y212805D01*
X495341Y213621D01*
X497034Y214920D01*
X498333Y216613D01*
X499149Y218584D01*
X499428Y220700D01*
X499149Y222816D01*
X498333Y224787D01*
X497034Y226480D01*
X495341Y227779D01*
X493369Y228595D01*
X491254Y228874D01*
D02*
G37*
G36*
X270250Y218348D02*
X268299Y217960D01*
X266645Y216855D01*
X265540Y215201D01*
X265152Y213250D01*
X265540Y211299D01*
X266645Y209645D01*
X268299Y208540D01*
X270250Y208152D01*
X272201Y208540D01*
X273855Y209645D01*
X274960Y211299D01*
X275348Y213250D01*
X274960Y215201D01*
X273855Y216855D01*
X272201Y217960D01*
X270250Y218348D01*
D02*
G37*
G36*
X72040Y213790D02*
X60270D01*
Y202020D01*
X72040D01*
Y213790D01*
D02*
G37*
G36*
X57730D02*
X45960D01*
Y202020D01*
X57730D01*
Y213790D01*
D02*
G37*
G36*
X422000Y209348D02*
X420049Y208960D01*
X418395Y207855D01*
X417290Y206201D01*
X416902Y204250D01*
X417290Y202299D01*
X418395Y200645D01*
X420049Y199540D01*
X422000Y199152D01*
X423951Y199540D01*
X425605Y200645D01*
X426710Y202299D01*
X427098Y204250D01*
X426710Y206201D01*
X425605Y207855D01*
X423951Y208960D01*
X422000Y209348D01*
D02*
G37*
G36*
X234250Y201848D02*
X232299Y201460D01*
X230645Y200355D01*
X229540Y198701D01*
X229152Y196750D01*
X229540Y194799D01*
X230645Y193145D01*
X232299Y192040D01*
X234250Y191652D01*
X236201Y192040D01*
X237855Y193145D01*
X238960Y194799D01*
X239348Y196750D01*
X238960Y198701D01*
X237855Y200355D01*
X236201Y201460D01*
X234250Y201848D01*
D02*
G37*
G36*
X72040Y199480D02*
X60270D01*
Y187710D01*
X72040D01*
Y199480D01*
D02*
G37*
G36*
X57730D02*
X45960D01*
Y187710D01*
X57730D01*
Y199480D01*
D02*
G37*
G36*
X575558Y203404D02*
X546142D01*
Y187196D01*
X575558D01*
Y203404D01*
D02*
G37*
G36*
X491254Y203474D02*
X478046D01*
X475930Y203195D01*
X473959Y202379D01*
X472266Y201080D01*
X470967Y199387D01*
X470151Y197416D01*
X469872Y195300D01*
X470151Y193184D01*
X470967Y191213D01*
X472266Y189520D01*
X473959Y188221D01*
X475930Y187405D01*
X478046Y187126D01*
X491254D01*
X493369Y187405D01*
X495341Y188221D01*
X497034Y189520D01*
X498333Y191213D01*
X499149Y193184D01*
X499428Y195300D01*
X499149Y197416D01*
X498333Y199387D01*
X497034Y201080D01*
X495341Y202379D01*
X493369Y203195D01*
X491254Y203474D01*
D02*
G37*
G36*
X567454Y171374D02*
X554246D01*
X552130Y171095D01*
X550159Y170279D01*
X548466Y168980D01*
X547167Y167287D01*
X546351Y165316D01*
X546072Y163200D01*
X546351Y161084D01*
X547167Y159113D01*
X548466Y157420D01*
X550159Y156121D01*
X552130Y155305D01*
X554246Y155026D01*
X567454D01*
X569570Y155305D01*
X571541Y156121D01*
X573234Y157420D01*
X574533Y159113D01*
X575349Y161084D01*
X575628Y163200D01*
X575349Y165316D01*
X574533Y167287D01*
X573234Y168980D01*
X571541Y170279D01*
X569570Y171095D01*
X567454Y171374D01*
D02*
G37*
G36*
X491254D02*
X478046D01*
X475930Y171095D01*
X473959Y170279D01*
X472266Y168980D01*
X470967Y167287D01*
X470151Y165316D01*
X469872Y163200D01*
X470151Y161084D01*
X470967Y159113D01*
X472266Y157420D01*
X473959Y156121D01*
X475930Y155305D01*
X478046Y155026D01*
X491254D01*
X493369Y155305D01*
X495341Y156121D01*
X497034Y157420D01*
X498333Y159113D01*
X499149Y161084D01*
X499428Y163200D01*
X499149Y165316D01*
X498333Y167287D01*
X497034Y168980D01*
X495341Y170279D01*
X493369Y171095D01*
X491254Y171374D01*
D02*
G37*
G36*
X60270Y155485D02*
Y143770D01*
X71985D01*
X71704Y145904D01*
X70390Y149076D01*
X68300Y151800D01*
X65576Y153890D01*
X62404Y155204D01*
X60270Y155485D01*
D02*
G37*
G36*
X57730D02*
X55596Y155204D01*
X52424Y153890D01*
X49700Y151800D01*
X47610Y149076D01*
X46296Y145904D01*
X46015Y143770D01*
X57730D01*
Y155485D01*
D02*
G37*
G36*
X575558Y145904D02*
X546142D01*
Y129696D01*
X575558D01*
Y145904D01*
D02*
G37*
G36*
X491254Y145974D02*
X478046D01*
X475930Y145695D01*
X473959Y144879D01*
X472266Y143580D01*
X470967Y141887D01*
X470151Y139916D01*
X469872Y137800D01*
X470151Y135684D01*
X470967Y133713D01*
X472266Y132020D01*
X473959Y130721D01*
X475930Y129905D01*
X478046Y129626D01*
X491254D01*
X493369Y129905D01*
X495341Y130721D01*
X497034Y132020D01*
X498333Y133713D01*
X499149Y135684D01*
X499428Y137800D01*
X499149Y139916D01*
X498333Y141887D01*
X497034Y143580D01*
X495341Y144879D01*
X493369Y145695D01*
X491254Y145974D01*
D02*
G37*
G36*
X71985Y141230D02*
X60270D01*
Y129515D01*
X62404Y129796D01*
X65576Y131110D01*
X68300Y133200D01*
X70390Y135924D01*
X71704Y139096D01*
X71985Y141230D01*
D02*
G37*
G36*
X57730D02*
X46015D01*
X46296Y139096D01*
X47610Y135924D01*
X49700Y133200D01*
X52424Y131110D01*
X55596Y129796D01*
X57730Y129515D01*
Y141230D01*
D02*
G37*
G36*
X71000Y104500D02*
X47000D01*
Y80500D01*
X71000D01*
Y104500D01*
D02*
G37*
G36*
X202520Y81485D02*
Y69770D01*
X214235D01*
X213954Y71904D01*
X212640Y75076D01*
X210550Y77800D01*
X207826Y79890D01*
X204654Y81204D01*
X202520Y81485D01*
D02*
G37*
G36*
X199980D02*
X197846Y81204D01*
X194674Y79890D01*
X191950Y77800D01*
X189860Y75076D01*
X188546Y71904D01*
X188265Y69770D01*
X199980D01*
Y81485D01*
D02*
G37*
G36*
X163250Y80500D02*
X139250D01*
Y56500D01*
X163250D01*
Y80500D01*
D02*
G37*
G36*
X701250Y80604D02*
X698117Y80191D01*
X695198Y78982D01*
X692691Y77059D01*
X690768Y74552D01*
X689559Y71633D01*
X689146Y68500D01*
X689559Y65367D01*
X690768Y62448D01*
X692691Y59942D01*
X695198Y58018D01*
X698117Y56809D01*
X701250Y56396D01*
X704383Y56809D01*
X707302Y58018D01*
X709809Y59942D01*
X711732Y62448D01*
X712941Y65367D01*
X713354Y68500D01*
X712941Y71633D01*
X711732Y74552D01*
X709809Y77059D01*
X707302Y78982D01*
X704383Y80191D01*
X701250Y80604D01*
D02*
G37*
G36*
X651250D02*
X648117Y80191D01*
X645198Y78982D01*
X642691Y77059D01*
X640768Y74552D01*
X639559Y71633D01*
X639146Y68500D01*
X639559Y65367D01*
X640768Y62448D01*
X642691Y59942D01*
X645198Y58018D01*
X648117Y56809D01*
X651250Y56396D01*
X654383Y56809D01*
X657302Y58018D01*
X659809Y59942D01*
X661732Y62448D01*
X662941Y65367D01*
X663354Y68500D01*
X662941Y71633D01*
X661732Y74552D01*
X659809Y77059D01*
X657302Y78982D01*
X654383Y80191D01*
X651250Y80604D01*
D02*
G37*
G36*
X601250D02*
X598117Y80191D01*
X595198Y78982D01*
X592691Y77059D01*
X590768Y74552D01*
X589559Y71633D01*
X589146Y68500D01*
X589559Y65367D01*
X590768Y62448D01*
X592691Y59942D01*
X595198Y58018D01*
X598117Y56809D01*
X601250Y56396D01*
X604383Y56809D01*
X607302Y58018D01*
X609809Y59942D01*
X611732Y62448D01*
X612941Y65367D01*
X613354Y68500D01*
X612941Y71633D01*
X611732Y74552D01*
X609809Y77059D01*
X607302Y78982D01*
X604383Y80191D01*
X601250Y80604D01*
D02*
G37*
G36*
X551250D02*
X548117Y80191D01*
X545198Y78982D01*
X542691Y77059D01*
X540768Y74552D01*
X539559Y71633D01*
X539146Y68500D01*
X539559Y65367D01*
X540768Y62448D01*
X542691Y59942D01*
X545198Y58018D01*
X548117Y56809D01*
X551250Y56396D01*
X554383Y56809D01*
X557302Y58018D01*
X559809Y59942D01*
X561732Y62448D01*
X562941Y65367D01*
X563354Y68500D01*
X562941Y71633D01*
X561732Y74552D01*
X559809Y77059D01*
X557302Y78982D01*
X554383Y80191D01*
X551250Y80604D01*
D02*
G37*
G36*
X501250D02*
X498117Y80191D01*
X495198Y78982D01*
X492691Y77059D01*
X490768Y74552D01*
X489559Y71633D01*
X489146Y68500D01*
X489559Y65367D01*
X490768Y62448D01*
X492691Y59942D01*
X495198Y58018D01*
X498117Y56809D01*
X501250Y56396D01*
X504383Y56809D01*
X507302Y58018D01*
X509809Y59942D01*
X511732Y62448D01*
X512941Y65367D01*
X513354Y68500D01*
X512941Y71633D01*
X511732Y74552D01*
X509809Y77059D01*
X507302Y78982D01*
X504383Y80191D01*
X501250Y80604D01*
D02*
G37*
G36*
X451250D02*
X448117Y80191D01*
X445198Y78982D01*
X442691Y77059D01*
X440768Y74552D01*
X439559Y71633D01*
X439146Y68500D01*
X439559Y65367D01*
X440768Y62448D01*
X442691Y59942D01*
X445198Y58018D01*
X448117Y56809D01*
X451250Y56396D01*
X454383Y56809D01*
X457302Y58018D01*
X459809Y59942D01*
X461732Y62448D01*
X462941Y65367D01*
X463354Y68500D01*
X462941Y71633D01*
X461732Y74552D01*
X459809Y77059D01*
X457302Y78982D01*
X454383Y80191D01*
X451250Y80604D01*
D02*
G37*
G36*
X401250D02*
X398117Y80191D01*
X395198Y78982D01*
X392691Y77059D01*
X390768Y74552D01*
X389559Y71633D01*
X389146Y68500D01*
X389559Y65367D01*
X390768Y62448D01*
X392691Y59942D01*
X395198Y58018D01*
X398117Y56809D01*
X401250Y56396D01*
X404383Y56809D01*
X407302Y58018D01*
X409809Y59942D01*
X411732Y62448D01*
X412941Y65367D01*
X413354Y68500D01*
X412941Y71633D01*
X411732Y74552D01*
X409809Y77059D01*
X407302Y78982D01*
X404383Y80191D01*
X401250Y80604D01*
D02*
G37*
G36*
X351250D02*
X348117Y80191D01*
X345198Y78982D01*
X342691Y77059D01*
X340768Y74552D01*
X339559Y71633D01*
X339146Y68500D01*
X339559Y65367D01*
X340768Y62448D01*
X342691Y59942D01*
X345198Y58018D01*
X348117Y56809D01*
X351250Y56396D01*
X354383Y56809D01*
X357302Y58018D01*
X359809Y59942D01*
X361732Y62448D01*
X362941Y65367D01*
X363354Y68500D01*
X362941Y71633D01*
X361732Y74552D01*
X359809Y77059D01*
X357302Y78982D01*
X354383Y80191D01*
X351250Y80604D01*
D02*
G37*
G36*
X301250D02*
X298117Y80191D01*
X295198Y78982D01*
X292691Y77059D01*
X290768Y74552D01*
X289559Y71633D01*
X289146Y68500D01*
X289559Y65367D01*
X290768Y62448D01*
X292691Y59942D01*
X295198Y58018D01*
X298117Y56809D01*
X301250Y56396D01*
X304383Y56809D01*
X307302Y58018D01*
X309809Y59942D01*
X311732Y62448D01*
X312941Y65367D01*
X313354Y68500D01*
X312941Y71633D01*
X311732Y74552D01*
X309809Y77059D01*
X307302Y78982D01*
X304383Y80191D01*
X301250Y80604D01*
D02*
G37*
G36*
X251250D02*
X248117Y80191D01*
X245198Y78982D01*
X242691Y77059D01*
X240768Y74552D01*
X239559Y71633D01*
X239146Y68500D01*
X239559Y65367D01*
X240768Y62448D01*
X242691Y59942D01*
X245198Y58018D01*
X248117Y56809D01*
X251250Y56396D01*
X254383Y56809D01*
X257302Y58018D01*
X259809Y59942D01*
X261732Y62448D01*
X262941Y65367D01*
X263354Y68500D01*
X262941Y71633D01*
X261732Y74552D01*
X259809Y77059D01*
X257302Y78982D01*
X254383Y80191D01*
X251250Y80604D01*
D02*
G37*
G36*
X214235Y67230D02*
X202520D01*
Y55515D01*
X204654Y55796D01*
X207826Y57110D01*
X210550Y59200D01*
X212640Y61924D01*
X213954Y65096D01*
X214235Y67230D01*
D02*
G37*
G36*
X199980D02*
X188265D01*
X188546Y65096D01*
X189860Y61924D01*
X191950Y59200D01*
X194674Y57110D01*
X197846Y55796D01*
X199980Y55515D01*
Y67230D01*
D02*
G37*
G36*
X806770Y51774D02*
Y30520D01*
X828024D01*
X827714Y33669D01*
X826425Y37917D01*
X824332Y41833D01*
X821515Y45265D01*
X818083Y48082D01*
X814167Y50175D01*
X809919Y51464D01*
X806770Y51774D01*
D02*
G37*
G36*
X804230D02*
X801081Y51464D01*
X796833Y50175D01*
X792917Y48082D01*
X789485Y45265D01*
X786668Y41833D01*
X784575Y37917D01*
X783286Y33669D01*
X782976Y30520D01*
X804230D01*
Y51774D01*
D02*
G37*
G36*
X26770D02*
Y30520D01*
X48024D01*
X47714Y33669D01*
X46425Y37917D01*
X44332Y41833D01*
X41515Y45265D01*
X38083Y48082D01*
X34167Y50175D01*
X29919Y51464D01*
X26770Y51774D01*
D02*
G37*
G36*
X828024Y27980D02*
X806770D01*
Y6726D01*
X809919Y7036D01*
X814167Y8325D01*
X818083Y10418D01*
X821515Y13235D01*
X824332Y16667D01*
X826425Y20583D01*
X827714Y24831D01*
X828024Y27980D01*
D02*
G37*
G36*
X804230D02*
X782976D01*
X783286Y24831D01*
X784575Y20583D01*
X786668Y16667D01*
X789485Y13235D01*
X792917Y10418D01*
X796833Y8325D01*
X801081Y7036D01*
X804230Y6726D01*
Y27980D01*
D02*
G37*
G36*
X48024D02*
X26770D01*
Y6726D01*
X29919Y7036D01*
X34167Y8325D01*
X38083Y10418D01*
X41515Y13235D01*
X44332Y16667D01*
X46425Y20583D01*
X47714Y24831D01*
X48024Y27980D01*
D02*
G37*
%LPD*%
D13*
X780650Y724750D02*
X781750Y723650D01*
X766500Y724750D02*
X780650D01*
X757000Y734250D02*
Y799000D01*
Y734250D02*
X766500Y724750D01*
D14*
X175600Y962650D02*
X695850D01*
X139150Y975350D02*
X140862Y977062D01*
X161188D01*
X175600Y962650D01*
X208900Y975350D02*
X721250D01*
X136494Y988250D02*
X196000D01*
X113750Y965506D02*
X136494Y988250D01*
X196000D02*
X208900Y975350D01*
X113750Y962650D02*
Y965506D01*
X445500Y1028750D02*
X483750Y990500D01*
X445500Y1028750D02*
Y1040500D01*
X488980Y995855D02*
X500520D01*
X483750Y990625D02*
X488980Y995855D01*
X500520D02*
X501895Y997230D01*
X483750Y990500D02*
Y990625D01*
X501895Y997230D02*
X512285D01*
X488980Y1000895D02*
X498432D01*
X483500Y1006250D02*
X483625D01*
X488980Y1000895D01*
X498432D02*
X499807Y1002270D01*
X512285D01*
X513750Y1003735D02*
Y1009250D01*
X512285Y1002270D02*
X513750Y1003735D01*
X512285Y997230D02*
X513750Y995766D01*
Y990250D02*
Y995766D01*
D40*
X568750Y792400D02*
D03*
D94*
X721250Y1000750D02*
X747750Y974250D01*
Y898250D02*
X821500Y824500D01*
X747750Y898250D02*
Y974250D01*
X821500Y418750D02*
Y824500D01*
X710750Y230750D02*
Y308000D01*
X821500Y418750D01*
X112506Y938494D02*
X113750Y937250D01*
X94006Y938494D02*
X112506D01*
X89000Y943500D02*
X94006Y938494D01*
X89000Y943500D02*
Y1050000D01*
X99250Y1060250D01*
X695500D01*
X721250Y1000750D02*
Y1034500D01*
X695500Y1060250D02*
X721250Y1034500D01*
D95*
X107350Y361900D02*
X183300D01*
X59000Y410250D02*
X107350Y361900D01*
X95800Y423450D02*
X183300D01*
X59000Y460250D02*
X95800Y423450D01*
X88300Y480950D02*
X183300D01*
X59000Y510250D02*
X88300Y480950D01*
X76050Y543200D02*
X183300D01*
X59000Y560250D02*
X76050Y543200D01*
X815250Y891500D02*
Y932500D01*
Y1046500D01*
X543250Y999750D02*
X547750D01*
X581500Y1033500D01*
X667500D01*
X113050Y988750D02*
X113750Y988050D01*
X19750Y891500D02*
Y1046500D01*
D98*
X560850Y137800D02*
D03*
Y195300D02*
D03*
Y253300D02*
D03*
X259500Y517800D02*
D03*
Y455550D02*
D03*
Y398050D02*
D03*
Y336500D02*
D03*
D99*
X560850Y163200D02*
D03*
X484650D02*
D03*
Y137800D02*
D03*
X560850Y220700D02*
D03*
X484650D02*
D03*
Y195300D02*
D03*
X560850Y278700D02*
D03*
X484650D02*
D03*
Y253300D02*
D03*
X259500Y543200D02*
D03*
X183300D02*
D03*
Y517800D02*
D03*
X259500Y480950D02*
D03*
X183300D02*
D03*
Y455550D02*
D03*
X259500Y423450D02*
D03*
X183300D02*
D03*
Y398050D02*
D03*
X259500Y361900D02*
D03*
X183300D02*
D03*
Y336500D02*
D03*
D100*
X59000Y560250D02*
D03*
Y510250D02*
D03*
Y460250D02*
D03*
Y410250D02*
D03*
Y360250D02*
D03*
Y250750D02*
D03*
Y142500D02*
D03*
X701250Y68500D02*
D03*
X651250D02*
D03*
X601250D02*
D03*
X551250D02*
D03*
X501250D02*
D03*
X451250D02*
D03*
X401250D02*
D03*
X351250D02*
D03*
X301250D02*
D03*
X251250D02*
D03*
X201250D02*
D03*
D101*
X59000Y310250D02*
D03*
Y200750D02*
D03*
Y92500D02*
D03*
D102*
X151250Y68500D02*
D03*
D103*
X369750Y821600D02*
D03*
Y847000D02*
D03*
X530650Y867500D02*
D03*
X505250D02*
D03*
X781750Y647450D02*
D03*
Y698250D02*
D03*
Y723650D02*
D03*
Y749050D02*
D03*
Y774450D02*
D03*
X288350Y1040250D02*
D03*
X313750D02*
D03*
D104*
X369750Y872400D02*
D03*
D105*
X479850Y867500D02*
D03*
X781750Y622050D02*
D03*
X339150Y1040250D02*
D03*
D106*
X55500Y847000D02*
D03*
X602750Y834500D02*
D03*
X805500Y29250D02*
D03*
X25500D02*
D03*
D107*
X19750Y891500D02*
D03*
Y1046500D02*
D03*
X815250D02*
D03*
Y891500D02*
D03*
D108*
X139150Y924550D02*
D03*
X113750Y937250D02*
D03*
X139150Y949950D02*
D03*
X113750Y962650D02*
D03*
X139150Y975350D02*
D03*
X113750Y988050D02*
D03*
X139150Y1000750D02*
D03*
X695850Y1013450D02*
D03*
X721250Y1000750D02*
D03*
X695850Y988050D02*
D03*
X721250Y975350D02*
D03*
X695850Y962650D02*
D03*
X721250Y949950D02*
D03*
X695850Y937250D02*
D03*
D109*
X113750Y1013450D02*
D03*
X721250Y924550D02*
D03*
D110*
X50250Y911850D02*
D03*
Y1026150D02*
D03*
X784750D02*
D03*
Y911850D02*
D03*
D111*
X72750Y768650D02*
D03*
Y654350D02*
D03*
D112*
X103250Y634050D02*
D03*
Y788950D02*
D03*
D113*
X23750Y670650D02*
D03*
Y645250D02*
D03*
Y752350D02*
D03*
Y777750D02*
D03*
D114*
X161650Y667100D02*
D03*
X136250Y679800D02*
D03*
X161650Y692500D02*
D03*
X136250Y705200D02*
D03*
X161650Y717900D02*
D03*
X136250Y730600D02*
D03*
X161650Y743300D02*
D03*
D115*
X136250Y756000D02*
D03*
D116*
X681500Y450250D02*
D03*
D117*
Y475650D02*
D03*
Y501050D02*
D03*
D118*
X499000Y475650D02*
D03*
D119*
X744250Y511500D02*
D03*
X688750Y587750D02*
D03*
X760750Y230750D02*
D03*
D120*
X794250Y511500D02*
D03*
X638750Y587750D02*
D03*
X710750Y230750D02*
D03*
D121*
X568750Y767000D02*
D03*
Y741600D02*
D03*
Y716200D02*
D03*
Y690800D02*
D03*
D122*
X512250Y694250D02*
D03*
X402000Y956000D02*
D03*
X177250Y865250D02*
D03*
X613000Y628750D02*
D03*
X409000Y455500D02*
D03*
X526441Y793059D02*
D03*
X516000Y742250D02*
D03*
X529250Y729750D02*
D03*
X489000Y527000D02*
D03*
X728500Y630500D02*
D03*
X641250Y677000D02*
D03*
X207500Y631000D02*
D03*
X286000Y745000D02*
D03*
X272446Y829196D02*
D03*
X257750Y783000D02*
D03*
X236750Y744250D02*
D03*
X185500Y746000D02*
D03*
X188500Y701250D02*
D03*
X321750Y680500D02*
D03*
X305250Y556000D02*
D03*
X320750Y623000D02*
D03*
X338750Y536250D02*
D03*
X356000Y494000D02*
D03*
X356500Y615750D02*
D03*
X359500Y647000D02*
D03*
X348250Y466250D02*
D03*
X357500Y632750D02*
D03*
X360000Y465500D02*
D03*
X390500Y540750D02*
D03*
X398000Y527250D02*
D03*
X307250Y608750D02*
D03*
X427750Y608500D02*
D03*
X416750Y467750D02*
D03*
X469000Y625750D02*
D03*
X425750Y444250D02*
D03*
X453000Y657500D02*
D03*
X452750Y644000D02*
D03*
X359000Y439500D02*
D03*
X460250Y617250D02*
D03*
X375500Y444250D02*
D03*
X367250Y425000D02*
D03*
X407000Y536000D02*
D03*
X342000Y779250D02*
D03*
X319000Y739000D02*
D03*
X252000Y270750D02*
D03*
X211500Y277250D02*
D03*
X446250Y271500D02*
D03*
X404871Y279379D02*
D03*
X364250Y279500D02*
D03*
X325750Y285000D02*
D03*
X188500Y262250D02*
D03*
X378750Y378250D02*
D03*
X430250Y315500D02*
D03*
X270250Y213250D02*
D03*
X422000Y204250D02*
D03*
X234250Y196750D02*
D03*
X122750Y518750D02*
D03*
X123000Y455250D02*
D03*
X123250Y397250D02*
D03*
X717750Y833000D02*
D03*
X328750Y553500D02*
D03*
X667500Y1033500D02*
D03*
X129250Y809572D02*
D03*
X221500Y708750D02*
D03*
X757000Y799000D02*
D03*
X723750Y577000D02*
D03*
X630750Y422750D02*
D03*
X317000Y796250D02*
D03*
X331250Y790250D02*
D03*
X236750Y794750D02*
D03*
X252750Y823750D02*
D03*
X205250Y824250D02*
D03*
X237750Y807750D02*
D03*
X224250D02*
D03*
X395250Y893250D02*
D03*
X423750Y760500D02*
D03*
X449750Y748000D02*
D03*
X452750Y894000D02*
D03*
X429750Y735500D02*
D03*
X436500Y743750D02*
D03*
X452250Y986750D02*
D03*
X445500Y1040500D02*
D03*
X677000Y833500D02*
D03*
X483500Y1006250D02*
D03*
X483750Y990500D02*
D03*
X183000Y805250D02*
D03*
X357000Y739015D02*
D03*
X398250Y704000D02*
D03*
X214000Y840000D02*
D03*
X222500Y834972D02*
D03*
X212250Y830500D02*
D03*
X360000Y701250D02*
D03*
X136000Y850750D02*
D03*
X239500Y829500D02*
D03*
X195750Y778000D02*
D03*
X277750Y662750D02*
D03*
X275750Y652750D02*
D03*
X279750Y675000D02*
D03*
X192250Y798250D02*
D03*
X195000Y788000D02*
D03*
X691250Y657500D02*
D03*
X692000Y637000D02*
D03*
X715500Y656000D02*
D03*
X642750Y656750D02*
D03*
X522250Y597000D02*
D03*
X580250Y601500D02*
D03*
X469500Y589500D02*
D03*
X459500Y596750D02*
D03*
X337500Y564750D02*
D03*
D123*
X513750Y990250D02*
D03*
D124*
Y1009250D02*
D03*
X543250Y999750D02*
D03*
M02*
