G04*
G04 #@! TF.GenerationSoftware,Altium Limited,Altium Designer,20.0.13 (296)*
G04*
G04 Layer_Color=8388736*
%FSLAX44Y44*%
%MOMM*%
G71*
G01*
G75*
%ADD46R,1.5032X1.3032*%
%ADD47R,2.3532X1.1532*%
%ADD48R,2.3532X3.4532*%
%ADD49R,1.2200X1.3700*%
G04:AMPARAMS|DCode=50|XSize=2.1732mm|YSize=0.8032mm|CornerRadius=0.1766mm|HoleSize=0mm|Usage=FLASHONLY|Rotation=90.000|XOffset=0mm|YOffset=0mm|HoleType=Round|Shape=RoundedRectangle|*
%AMROUNDEDRECTD50*
21,1,2.1732,0.4500,0,0,90.0*
21,1,1.8200,0.8032,0,0,90.0*
1,1,0.3532,0.2250,0.9100*
1,1,0.3532,0.2250,-0.9100*
1,1,0.3532,-0.2250,-0.9100*
1,1,0.3532,-0.2250,0.9100*
%
%ADD50ROUNDEDRECTD50*%
G04:AMPARAMS|DCode=51|XSize=1.7632mm|YSize=0.4832mm|CornerRadius=0.1366mm|HoleSize=0mm|Usage=FLASHONLY|Rotation=90.000|XOffset=0mm|YOffset=0mm|HoleType=Round|Shape=RoundedRectangle|*
%AMROUNDEDRECTD51*
21,1,1.7632,0.2100,0,0,90.0*
21,1,1.4900,0.4832,0,0,90.0*
1,1,0.2732,0.1050,0.7450*
1,1,0.2732,0.1050,-0.7450*
1,1,0.2732,-0.1050,-0.7450*
1,1,0.2732,-0.1050,0.7450*
%
%ADD51ROUNDEDRECTD51*%
G04:AMPARAMS|DCode=52|XSize=1.7632mm|YSize=0.4832mm|CornerRadius=0.1366mm|HoleSize=0mm|Usage=FLASHONLY|Rotation=180.000|XOffset=0mm|YOffset=0mm|HoleType=Round|Shape=RoundedRectangle|*
%AMROUNDEDRECTD52*
21,1,1.7632,0.2100,0,0,180.0*
21,1,1.4900,0.4832,0,0,180.0*
1,1,0.2732,-0.7450,0.1050*
1,1,0.2732,0.7450,0.1050*
1,1,0.2732,0.7450,-0.1050*
1,1,0.2732,-0.7450,-0.1050*
%
%ADD52ROUNDEDRECTD52*%
%ADD53R,0.8032X0.7032*%
%ADD54R,0.8200X1.0200*%
%ADD55R,0.7032X0.8032*%
%ADD56R,1.2032X1.6032*%
%ADD57R,1.6032X1.2032*%
%ADD58R,1.0200X0.8200*%
%ADD59R,1.0032X1.2032*%
%ADD60R,7.2032X4.2032*%
G04:AMPARAMS|DCode=61|XSize=0.4832mm|YSize=0.8932mm|CornerRadius=0.1716mm|HoleSize=0mm|Usage=FLASHONLY|Rotation=90.000|XOffset=0mm|YOffset=0mm|HoleType=Round|Shape=RoundedRectangle|*
%AMROUNDEDRECTD61*
21,1,0.4832,0.5500,0,0,90.0*
21,1,0.1400,0.8932,0,0,90.0*
1,1,0.3432,0.2750,0.0700*
1,1,0.3432,0.2750,-0.0700*
1,1,0.3432,-0.2750,-0.0700*
1,1,0.3432,-0.2750,0.0700*
%
%ADD61ROUNDEDRECTD61*%
G04:AMPARAMS|DCode=62|XSize=0.4832mm|YSize=0.8932mm|CornerRadius=0.1716mm|HoleSize=0mm|Usage=FLASHONLY|Rotation=180.000|XOffset=0mm|YOffset=0mm|HoleType=Round|Shape=RoundedRectangle|*
%AMROUNDEDRECTD62*
21,1,0.4832,0.5500,0,0,180.0*
21,1,0.1400,0.8932,0,0,180.0*
1,1,0.3432,-0.0700,0.2750*
1,1,0.3432,0.0700,0.2750*
1,1,0.3432,0.0700,-0.2750*
1,1,0.3432,-0.0700,-0.2750*
%
%ADD62ROUNDEDRECTD62*%
%ADD63R,0.7200X4.3200*%
%ADD64R,0.7200X2.3200*%
%ADD65R,10.5700X8.4200*%
%ADD66R,1.1700X3.3200*%
%ADD67R,2.9972X4.0132*%
%ADD68R,1.2032X1.0032*%
%ADD69R,1.6200X2.5200*%
%ADD70R,3.6200X2.2700*%
%ADD71C,1.7200*%
%ADD72R,1.7200X1.7200*%
%ADD73R,1.7200X1.7200*%
%ADD74R,1.7032X1.7032*%
%ADD75C,1.7032*%
%ADD76O,2.8448X1.5240*%
%ADD77R,2.8448X1.5240*%
%ADD78R,1.6012X1.6012*%
%ADD79C,1.6012*%
%ADD80C,1.7332*%
%ADD81C,2.6482*%
%ADD82C,3.4532*%
%ADD83C,0.9032*%
%ADD84O,4.0640X2.1336*%
%ADD85R,1.5200X1.5200*%
%ADD86C,1.5200*%
G36*
X961250Y338250D02*
X942250D01*
Y365250D01*
X961250D01*
Y376250D01*
X976250D01*
Y365250D01*
X988250D01*
Y338250D01*
X976250D01*
Y327250D01*
X961250D01*
Y338250D01*
D02*
G37*
G36*
X1037250D02*
X1025250D01*
Y365250D01*
X1037250D01*
Y376250D01*
X1052250D01*
Y365250D01*
X1071250D01*
Y338250D01*
X1052250D01*
Y327250D01*
X1037250D01*
Y338250D01*
D02*
G37*
G36*
X977750Y762250D02*
X989750D01*
Y735250D01*
X977750D01*
Y724250D01*
X962750D01*
Y735250D01*
X943750D01*
Y762250D01*
X962750D01*
Y773250D01*
X977750D01*
Y762250D01*
D02*
G37*
G36*
X1053750D02*
X1072750D01*
Y735250D01*
X1053750D01*
Y724250D01*
X1038750D01*
Y735250D01*
X1026750D01*
Y762250D01*
X1038750D01*
Y773250D01*
X1053750D01*
Y762250D01*
D02*
G37*
D46*
X360750Y835750D02*
D03*
X337750D02*
D03*
Y817750D02*
D03*
X360750D02*
D03*
X654024Y277928D02*
D03*
X631024D02*
D03*
Y259928D02*
D03*
X654024D02*
D03*
D47*
X855500Y853000D02*
D03*
Y830000D02*
D03*
Y807000D02*
D03*
D48*
X913500Y830000D02*
D03*
D49*
X870000Y178000D02*
D03*
Y155000D02*
D03*
X765128Y142500D02*
D03*
Y165500D02*
D03*
X706750Y142500D02*
D03*
Y165500D02*
D03*
X648372Y142500D02*
D03*
Y165500D02*
D03*
D50*
X180300Y399750D02*
D03*
X193000D02*
D03*
X205700D02*
D03*
X218400D02*
D03*
X231100D02*
D03*
X243800D02*
D03*
X256500D02*
D03*
X269200D02*
D03*
Y350250D02*
D03*
X256500D02*
D03*
X243800D02*
D03*
X231100D02*
D03*
X218400D02*
D03*
X205700D02*
D03*
X193000D02*
D03*
X180300D02*
D03*
D51*
X593000Y511050D02*
D03*
X598000D02*
D03*
X603000D02*
D03*
X608000D02*
D03*
X613000D02*
D03*
X618000D02*
D03*
X623000D02*
D03*
X628000D02*
D03*
X633000D02*
D03*
X638000D02*
D03*
X643000D02*
D03*
X648000D02*
D03*
X653000D02*
D03*
X658000D02*
D03*
X663000D02*
D03*
X668000D02*
D03*
X673000D02*
D03*
X678000D02*
D03*
X683000D02*
D03*
X688000D02*
D03*
X693000D02*
D03*
X698000D02*
D03*
X703000D02*
D03*
X708000D02*
D03*
X713000D02*
D03*
Y357450D02*
D03*
X708000D02*
D03*
X703000D02*
D03*
X698000D02*
D03*
X693000D02*
D03*
X688000D02*
D03*
X683000D02*
D03*
X678000D02*
D03*
X673000D02*
D03*
X668000D02*
D03*
X663000D02*
D03*
X658000D02*
D03*
X653000D02*
D03*
X648000D02*
D03*
X643000D02*
D03*
X638000D02*
D03*
X633000D02*
D03*
X628000D02*
D03*
X623000D02*
D03*
X618000D02*
D03*
X613000D02*
D03*
X608000D02*
D03*
X603000D02*
D03*
X598000D02*
D03*
X593000D02*
D03*
D52*
X576200Y374250D02*
D03*
Y379250D02*
D03*
Y384250D02*
D03*
Y389250D02*
D03*
Y394250D02*
D03*
Y399250D02*
D03*
Y404250D02*
D03*
Y409250D02*
D03*
Y414250D02*
D03*
Y419250D02*
D03*
Y424250D02*
D03*
Y429250D02*
D03*
Y434250D02*
D03*
Y439250D02*
D03*
Y444250D02*
D03*
Y449250D02*
D03*
Y454250D02*
D03*
Y459250D02*
D03*
Y464250D02*
D03*
Y469250D02*
D03*
Y474250D02*
D03*
Y479250D02*
D03*
Y484250D02*
D03*
Y489250D02*
D03*
Y494250D02*
D03*
X729800D02*
D03*
Y489250D02*
D03*
Y484250D02*
D03*
Y479250D02*
D03*
Y474250D02*
D03*
Y469250D02*
D03*
Y464250D02*
D03*
Y459250D02*
D03*
Y454250D02*
D03*
Y449250D02*
D03*
Y444250D02*
D03*
Y439250D02*
D03*
Y434250D02*
D03*
Y429250D02*
D03*
Y424250D02*
D03*
Y419250D02*
D03*
Y414250D02*
D03*
Y409250D02*
D03*
Y404250D02*
D03*
Y399250D02*
D03*
Y394250D02*
D03*
Y389250D02*
D03*
Y384250D02*
D03*
Y379250D02*
D03*
Y374250D02*
D03*
D53*
X751500Y986750D02*
D03*
Y996750D02*
D03*
X724643Y986750D02*
D03*
Y996750D02*
D03*
X697786Y986750D02*
D03*
Y996750D02*
D03*
X670928Y986750D02*
D03*
Y996750D02*
D03*
X644071Y986750D02*
D03*
Y996750D02*
D03*
X159250Y143750D02*
D03*
Y153750D02*
D03*
Y207625D02*
D03*
Y217625D02*
D03*
Y271500D02*
D03*
Y281500D02*
D03*
X386500Y509000D02*
D03*
Y519000D02*
D03*
X617214Y986750D02*
D03*
Y996750D02*
D03*
X590357Y986750D02*
D03*
Y996750D02*
D03*
X386500Y574167D02*
D03*
Y584167D02*
D03*
Y639333D02*
D03*
Y649333D02*
D03*
Y704500D02*
D03*
Y714500D02*
D03*
X563500Y986750D02*
D03*
Y996750D02*
D03*
D54*
X196750Y790500D02*
D03*
X182250D02*
D03*
X144250Y1009500D02*
D03*
X129750D02*
D03*
X197500Y773000D02*
D03*
X183000D02*
D03*
X144250Y1025500D02*
D03*
X129750D02*
D03*
X419250Y964750D02*
D03*
X404750D02*
D03*
X267500Y790250D02*
D03*
X253000D02*
D03*
X419250Y948250D02*
D03*
X404750D02*
D03*
X419250Y931833D02*
D03*
X404750D02*
D03*
X454250Y837250D02*
D03*
X439750D02*
D03*
X450250Y852750D02*
D03*
X435750D02*
D03*
X261250Y830750D02*
D03*
X246750D02*
D03*
X261500Y959250D02*
D03*
X247000D02*
D03*
D55*
X117000Y538750D02*
D03*
X107000D02*
D03*
X117000Y551610D02*
D03*
X107000D02*
D03*
X218500Y538750D02*
D03*
X228500D02*
D03*
X218500Y551610D02*
D03*
X228500D02*
D03*
X165250Y538750D02*
D03*
X175250D02*
D03*
X165250Y551610D02*
D03*
X175250D02*
D03*
X117000Y592797D02*
D03*
X107000D02*
D03*
X117000Y605657D02*
D03*
X107000D02*
D03*
X218500Y592797D02*
D03*
X228500D02*
D03*
X120750Y305750D02*
D03*
X130750D02*
D03*
X120750Y340833D02*
D03*
X130750D02*
D03*
X120750Y375917D02*
D03*
X130750D02*
D03*
X120750Y411000D02*
D03*
X130750D02*
D03*
X97500Y305750D02*
D03*
X87500D02*
D03*
X97500Y340833D02*
D03*
X87500D02*
D03*
X97500Y375917D02*
D03*
X87500D02*
D03*
X97500Y411000D02*
D03*
X87500D02*
D03*
X218500Y605657D02*
D03*
X228500D02*
D03*
X165250Y592797D02*
D03*
X175250D02*
D03*
X165250Y605657D02*
D03*
X175250D02*
D03*
X117000Y646843D02*
D03*
X107000D02*
D03*
X117000Y659703D02*
D03*
X107000D02*
D03*
X218500Y646843D02*
D03*
X228500D02*
D03*
X165250Y713750D02*
D03*
X175250D02*
D03*
X165250Y700890D02*
D03*
X175250D02*
D03*
X218500Y713750D02*
D03*
X228500D02*
D03*
X218500Y700890D02*
D03*
X228500D02*
D03*
X218500Y659703D02*
D03*
X228500D02*
D03*
X165250Y646843D02*
D03*
X175250D02*
D03*
X165250Y659703D02*
D03*
X175250D02*
D03*
X117000Y700890D02*
D03*
X107000D02*
D03*
X117000Y713750D02*
D03*
X107000D02*
D03*
D56*
X108000Y203000D02*
D03*
X88000D02*
D03*
X109000Y236000D02*
D03*
X89000D02*
D03*
X108250Y270500D02*
D03*
X88250D02*
D03*
X536000Y337750D02*
D03*
X556000D02*
D03*
X917250Y154750D02*
D03*
X897250D02*
D03*
X806000Y485000D02*
D03*
X786000D02*
D03*
X587250Y587750D02*
D03*
X567250D02*
D03*
D57*
X575000Y291750D02*
D03*
Y271750D02*
D03*
X410750Y531250D02*
D03*
Y511250D02*
D03*
Y594083D02*
D03*
Y574083D02*
D03*
Y656917D02*
D03*
Y636917D02*
D03*
Y719750D02*
D03*
Y699750D02*
D03*
D58*
X261000Y917000D02*
D03*
Y902500D02*
D03*
Y930000D02*
D03*
Y944500D02*
D03*
Y860250D02*
D03*
Y845750D02*
D03*
Y873792D02*
D03*
Y888292D02*
D03*
X765378Y205000D02*
D03*
Y190500D02*
D03*
X706753Y205000D02*
D03*
Y190500D02*
D03*
X648128Y205000D02*
D03*
Y190500D02*
D03*
X381250Y818164D02*
D03*
Y832664D02*
D03*
X673750Y260750D02*
D03*
Y275250D02*
D03*
X318000Y832750D02*
D03*
Y818250D02*
D03*
X611750Y275000D02*
D03*
Y260500D02*
D03*
D59*
X850750Y562000D02*
D03*
X866750D02*
D03*
X851000Y582250D02*
D03*
X867000D02*
D03*
X384750Y878750D02*
D03*
X368750D02*
D03*
X568250Y551000D02*
D03*
X584250D02*
D03*
X552250Y315750D02*
D03*
X568250D02*
D03*
X998000Y675750D02*
D03*
X1014000D02*
D03*
D60*
X874750Y632000D02*
D03*
Y732000D02*
D03*
D61*
X299800Y910500D02*
D03*
Y905500D02*
D03*
Y885500D02*
D03*
Y890500D02*
D03*
Y900500D02*
D03*
Y895500D02*
D03*
X337700D02*
D03*
Y900500D02*
D03*
Y890500D02*
D03*
Y885500D02*
D03*
Y905500D02*
D03*
Y910500D02*
D03*
D62*
X306250Y916950D02*
D03*
X311250D02*
D03*
X331250D02*
D03*
X326250D02*
D03*
X316250D02*
D03*
X321250D02*
D03*
X306250Y879050D02*
D03*
X311250D02*
D03*
X331250D02*
D03*
X326250D02*
D03*
X316250D02*
D03*
X321250D02*
D03*
D63*
X463200Y445500D02*
D03*
X475900D02*
D03*
X488600D02*
D03*
X501300D02*
D03*
D64*
X463200Y503500D02*
D03*
X475900D02*
D03*
X488600D02*
D03*
X501300D02*
D03*
D65*
X958000Y471750D02*
D03*
D66*
X924000Y566250D02*
D03*
X941000D02*
D03*
X958000D02*
D03*
X975000D02*
D03*
X992000D02*
D03*
D67*
X1046435Y622000D02*
D03*
X975065D02*
D03*
D68*
X692050Y322750D02*
D03*
Y306750D02*
D03*
X626500Y322750D02*
D03*
Y306750D02*
D03*
X420200Y815250D02*
D03*
Y831250D02*
D03*
X400450Y815250D02*
D03*
Y831250D02*
D03*
X285250Y942750D02*
D03*
Y958750D02*
D03*
X291250Y813750D02*
D03*
Y829750D02*
D03*
X214650Y1000900D02*
D03*
Y984900D02*
D03*
X192150Y1000900D02*
D03*
Y984900D02*
D03*
X760500Y361750D02*
D03*
Y377750D02*
D03*
X766750Y525750D02*
D03*
Y509750D02*
D03*
X712050Y322750D02*
D03*
Y306750D02*
D03*
X605250Y322750D02*
D03*
Y306750D02*
D03*
X440000Y453000D02*
D03*
Y437000D02*
D03*
D69*
X398750Y906000D02*
D03*
X427750D02*
D03*
X257250Y988250D02*
D03*
X286250D02*
D03*
D70*
X793500Y812000D02*
D03*
Y847000D02*
D03*
D71*
X439750Y323150D02*
D03*
Y297750D02*
D03*
X800100Y251750D02*
D03*
X825500D02*
D03*
D72*
X439750Y272350D02*
D03*
D73*
X850900Y251750D02*
D03*
D74*
X563000Y237650D02*
D03*
X510500Y740700D02*
D03*
X672650Y879650D02*
D03*
X556650D02*
D03*
D75*
X563000Y212250D02*
D03*
Y186850D02*
D03*
Y161450D02*
D03*
Y136050D02*
D03*
X510500Y715300D02*
D03*
Y689900D02*
D03*
Y664500D02*
D03*
Y639100D02*
D03*
X698050Y879650D02*
D03*
X723450D02*
D03*
X748850D02*
D03*
X672650Y955850D02*
D03*
X698050D02*
D03*
X723450D02*
D03*
X748850D02*
D03*
X582050Y879650D02*
D03*
X607450D02*
D03*
X632850D02*
D03*
X556650Y955850D02*
D03*
X582050D02*
D03*
X607450D02*
D03*
X632850D02*
D03*
D76*
X262350Y161450D02*
D03*
Y136050D02*
D03*
X186150D02*
D03*
X262350Y225450D02*
D03*
Y200050D02*
D03*
X186150D02*
D03*
X262350Y289450D02*
D03*
Y264050D02*
D03*
X186150D02*
D03*
X282400Y503800D02*
D03*
Y529200D02*
D03*
X358600D02*
D03*
X282400Y567800D02*
D03*
Y593200D02*
D03*
X358600D02*
D03*
X282400Y631800D02*
D03*
Y657200D02*
D03*
X358600D02*
D03*
X282400Y695800D02*
D03*
Y721200D02*
D03*
X358600D02*
D03*
D77*
X186150Y161450D02*
D03*
Y225450D02*
D03*
Y289450D02*
D03*
X358600Y503800D02*
D03*
Y567800D02*
D03*
Y631800D02*
D03*
Y695800D02*
D03*
D78*
X134250Y939750D02*
D03*
D79*
X159650Y927050D02*
D03*
X134250Y914350D02*
D03*
X159650Y901650D02*
D03*
X134250Y888950D02*
D03*
X159650Y876250D02*
D03*
X134250Y863550D02*
D03*
X159650Y850850D02*
D03*
D80*
X21750Y961500D02*
D03*
Y936100D02*
D03*
Y829000D02*
D03*
Y854400D02*
D03*
D81*
X101250Y972700D02*
D03*
Y817800D02*
D03*
D82*
X70750Y838100D02*
D03*
Y952400D02*
D03*
D83*
X312750Y892030D02*
D03*
Y903700D02*
D03*
X324090Y892030D02*
D03*
Y903700D02*
D03*
X781250Y509250D02*
D03*
D84*
X41550Y130250D02*
D03*
Y165250D02*
D03*
Y200250D02*
D03*
Y235250D02*
D03*
Y270250D02*
D03*
Y305250D02*
D03*
Y340250D02*
D03*
Y375250D02*
D03*
Y410250D02*
D03*
Y445250D02*
D03*
Y480250D02*
D03*
Y515250D02*
D03*
Y550250D02*
D03*
Y585250D02*
D03*
Y620250D02*
D03*
Y655250D02*
D03*
D85*
X969000Y788250D02*
D03*
X1045000Y310250D02*
D03*
D86*
X1019000Y788250D02*
D03*
X995000Y310250D02*
D03*
M02*
