G04*
G04 #@! TF.GenerationSoftware,Altium Limited,Altium Designer,20.0.13 (296)*
G04*
G04 Layer_Physical_Order=2*
G04 Layer_Color=36540*
%FSLAX44Y44*%
%MOMM*%
G71*
G01*
G75*
%ADD12C,0.2000*%
%ADD13C,0.3000*%
%ADD14C,0.2500*%
%ADD95C,0.5000*%
%ADD97C,0.3810*%
%ADD99O,2.6416X1.3208*%
%ADD101R,2.1000X2.1000*%
%ADD104R,1.6000X1.6000*%
%ADD105R,1.6000X1.6000*%
%ADD107C,2.7000*%
%ADD108C,1.6500*%
%ADD109R,1.6500X1.6500*%
%ADD113C,1.5300*%
%ADD114C,1.3980*%
%ADD117O,3.0480X1.5240*%
%ADD120R,1.4000X1.4000*%
%ADD121C,1.5000*%
%ADD122C,0.7000*%
G36*
X838441Y3059D02*
X3059D01*
Y24889D01*
X4311Y25035D01*
X5541Y20982D01*
X7537Y17248D01*
X10224Y13974D01*
X13498Y11287D01*
X17233Y9291D01*
X21285Y8061D01*
X25500Y7646D01*
X29715Y8061D01*
X33767Y9291D01*
X37503Y11287D01*
X40776Y13974D01*
X43463Y17248D01*
X45459Y20982D01*
X46689Y25035D01*
X47104Y29250D01*
X46689Y33465D01*
X45459Y37517D01*
X43463Y41252D01*
X40776Y44526D01*
X37503Y47213D01*
X33767Y49209D01*
X29715Y50439D01*
X25500Y50854D01*
X21285Y50439D01*
X17233Y49209D01*
X13498Y47213D01*
X10224Y44526D01*
X7537Y41252D01*
X5541Y37517D01*
X4311Y33465D01*
X3059Y33611D01*
Y1076191D01*
X838441D01*
X838441Y3059D01*
D02*
G37*
%LPC*%
G36*
X794500Y1071078D02*
X794500Y1071078D01*
X40250D01*
X40250Y1071078D01*
X38689Y1070768D01*
X37366Y1069884D01*
X27075Y1059593D01*
X25518Y1060425D01*
X22690Y1061283D01*
X19750Y1061573D01*
X16810Y1061283D01*
X13982Y1060425D01*
X11376Y1059032D01*
X9092Y1057158D01*
X7218Y1054874D01*
X5825Y1052268D01*
X4967Y1049441D01*
X4678Y1046500D01*
X4967Y1043559D01*
X5825Y1040732D01*
X7218Y1038126D01*
X9092Y1035842D01*
X11376Y1033968D01*
X13982Y1032575D01*
X14922Y1032290D01*
Y991429D01*
X14922Y991429D01*
X15232Y989868D01*
X16116Y988545D01*
X19045Y985616D01*
X19045Y985616D01*
X20368Y984732D01*
X21929Y984422D01*
X104700D01*
X105233Y983133D01*
X106796Y981096D01*
X108833Y979533D01*
X111205Y978551D01*
X113750Y978216D01*
X116295Y978551D01*
X118667Y979533D01*
X120704Y981096D01*
X122267Y983133D01*
X123249Y985505D01*
X123584Y988050D01*
X123249Y990595D01*
X122267Y992967D01*
X120704Y995004D01*
X118667Y996567D01*
X116295Y997549D01*
X113750Y997884D01*
X111205Y997549D01*
X108833Y996567D01*
X106796Y995004D01*
X105233Y992967D01*
X105072Y992578D01*
X23618D01*
X23078Y993118D01*
Y1031835D01*
X25518Y1032575D01*
X28124Y1033968D01*
X30408Y1035842D01*
X32282Y1038126D01*
X33675Y1040732D01*
X34533Y1043559D01*
X34823Y1046500D01*
X34533Y1049441D01*
X33675Y1052268D01*
X32843Y1053825D01*
X41939Y1062922D01*
X792811D01*
X802070Y1053662D01*
X801325Y1052268D01*
X800467Y1049441D01*
X800177Y1046500D01*
X800467Y1043559D01*
X801325Y1040732D01*
X802718Y1038126D01*
X804592Y1035842D01*
X806876Y1033968D01*
X809482Y1032575D01*
X812309Y1031717D01*
X815250Y1031428D01*
X818191Y1031717D01*
X821018Y1032575D01*
X823624Y1033968D01*
X825908Y1035842D01*
X827782Y1038126D01*
X829175Y1040732D01*
X830033Y1043559D01*
X830323Y1046500D01*
X830033Y1049441D01*
X829175Y1052268D01*
X827782Y1054874D01*
X825908Y1057158D01*
X823624Y1059032D01*
X821018Y1060425D01*
X818191Y1061283D01*
X815250Y1061573D01*
X812309Y1061283D01*
X809482Y1060425D01*
X807762Y1059506D01*
X797384Y1069884D01*
X796061Y1070768D01*
X795802Y1070819D01*
X794500Y1071078D01*
D02*
G37*
G36*
X445500Y1045598D02*
X443549Y1045210D01*
X441895Y1044105D01*
X440790Y1042451D01*
X440402Y1040500D01*
X440790Y1038549D01*
X441895Y1036895D01*
X443549Y1035790D01*
X445500Y1035402D01*
X447451Y1035790D01*
X449105Y1036895D01*
X450210Y1038549D01*
X450598Y1040500D01*
X450210Y1042451D01*
X449105Y1044105D01*
X447451Y1045210D01*
X445500Y1045598D01*
D02*
G37*
G36*
X348650Y1049750D02*
X329650D01*
Y1030750D01*
X348650D01*
Y1049750D01*
D02*
G37*
G36*
X313750Y1049832D02*
X311270Y1049505D01*
X308959Y1048548D01*
X306975Y1047026D01*
X305452Y1045041D01*
X304494Y1042730D01*
X304168Y1040250D01*
X304494Y1037770D01*
X305452Y1035459D01*
X306975Y1033475D01*
X308959Y1031952D01*
X311270Y1030995D01*
X313750Y1030668D01*
X316230Y1030995D01*
X318541Y1031952D01*
X320525Y1033475D01*
X322048Y1035459D01*
X323005Y1037770D01*
X323332Y1040250D01*
X323005Y1042730D01*
X322048Y1045041D01*
X320525Y1047026D01*
X318541Y1048548D01*
X316230Y1049505D01*
X313750Y1049832D01*
D02*
G37*
G36*
X288350D02*
X285870Y1049505D01*
X283559Y1048548D01*
X281574Y1047026D01*
X280052Y1045041D01*
X279095Y1042730D01*
X278768Y1040250D01*
X279095Y1037770D01*
X280052Y1035459D01*
X281574Y1033475D01*
X283559Y1031952D01*
X285870Y1030995D01*
X288350Y1030668D01*
X290830Y1030995D01*
X293141Y1031952D01*
X295125Y1033475D01*
X296648Y1035459D01*
X297605Y1037770D01*
X297932Y1040250D01*
X297605Y1042730D01*
X296648Y1045041D01*
X295125Y1047026D01*
X293141Y1048548D01*
X290830Y1049505D01*
X288350Y1049832D01*
D02*
G37*
G36*
X784750Y1044740D02*
X781123Y1044382D01*
X777636Y1043325D01*
X774422Y1041607D01*
X771605Y1039295D01*
X769293Y1036478D01*
X767576Y1033264D01*
X766518Y1029777D01*
X766161Y1026150D01*
X766518Y1022523D01*
X767576Y1019036D01*
X769293Y1015822D01*
X771605Y1013005D01*
X774422Y1010693D01*
X777636Y1008976D01*
X781123Y1007918D01*
X784750Y1007561D01*
X788377Y1007918D01*
X791864Y1008976D01*
X795078Y1010693D01*
X797895Y1013005D01*
X800207Y1015822D01*
X801925Y1019036D01*
X802982Y1022523D01*
X803339Y1026150D01*
X802982Y1029777D01*
X801925Y1033264D01*
X800207Y1036478D01*
X797895Y1039295D01*
X795078Y1041607D01*
X791864Y1043325D01*
X788377Y1044382D01*
X784750Y1044740D01*
D02*
G37*
G36*
X50250D02*
X46623Y1044382D01*
X43136Y1043325D01*
X39922Y1041607D01*
X37105Y1039295D01*
X34793Y1036478D01*
X33075Y1033264D01*
X32018Y1029777D01*
X31660Y1026150D01*
X32018Y1022523D01*
X33075Y1019036D01*
X34793Y1015822D01*
X37105Y1013005D01*
X39922Y1010693D01*
X43136Y1008976D01*
X46623Y1007918D01*
X50250Y1007561D01*
X53877Y1007918D01*
X57364Y1008976D01*
X60578Y1010693D01*
X63395Y1013005D01*
X65707Y1015822D01*
X67425Y1019036D01*
X68482Y1022523D01*
X68840Y1026150D01*
X68482Y1029777D01*
X67425Y1033264D01*
X65707Y1036478D01*
X63395Y1039295D01*
X60578Y1041607D01*
X57364Y1043325D01*
X53877Y1044382D01*
X50250Y1044740D01*
D02*
G37*
G36*
X123500Y1023200D02*
X104000D01*
Y1003700D01*
X123500D01*
Y1023200D01*
D02*
G37*
G36*
X695850Y1023284D02*
X693305Y1022949D01*
X690933Y1021967D01*
X688896Y1020404D01*
X687333Y1018367D01*
X686351Y1015995D01*
X686016Y1013450D01*
X686351Y1010905D01*
X687333Y1008533D01*
X688896Y1006496D01*
X690933Y1004933D01*
X693305Y1003951D01*
X695850Y1003616D01*
X698395Y1003951D01*
X700767Y1004933D01*
X702804Y1006496D01*
X704367Y1008533D01*
X705349Y1010905D01*
X705684Y1013450D01*
X705349Y1015995D01*
X704367Y1018367D01*
X702804Y1020404D01*
X700767Y1021967D01*
X698395Y1022949D01*
X695850Y1023284D01*
D02*
G37*
G36*
X721250Y1010584D02*
X718705Y1010249D01*
X716333Y1009267D01*
X714296Y1007704D01*
X712733Y1005667D01*
X711751Y1003295D01*
X711416Y1000750D01*
X711751Y998205D01*
X712733Y995833D01*
X714296Y993796D01*
X716333Y992233D01*
X718705Y991251D01*
X721250Y990916D01*
X723795Y991251D01*
X726167Y992233D01*
X728204Y993796D01*
X729767Y995833D01*
X730749Y998205D01*
X731084Y1000750D01*
X730749Y1003295D01*
X729767Y1005667D01*
X728204Y1007704D01*
X726167Y1009267D01*
X723795Y1010249D01*
X721250Y1010584D01*
D02*
G37*
G36*
X139150D02*
X136605Y1010249D01*
X134233Y1009267D01*
X132196Y1007704D01*
X130633Y1005667D01*
X129651Y1003295D01*
X129316Y1000750D01*
X129651Y998205D01*
X130633Y995833D01*
X132196Y993796D01*
X134233Y992233D01*
X136605Y991251D01*
X139150Y990916D01*
X141695Y991251D01*
X144067Y992233D01*
X146104Y993796D01*
X147667Y995833D01*
X148649Y998205D01*
X148984Y1000750D01*
X148649Y1003295D01*
X147667Y1005667D01*
X146104Y1007704D01*
X144067Y1009267D01*
X141695Y1010249D01*
X139150Y1010584D01*
D02*
G37*
G36*
X452250Y991848D02*
X450299Y991460D01*
X448645Y990355D01*
X447540Y988701D01*
X447152Y986750D01*
X447400Y985505D01*
X436448Y974552D01*
X435895Y973726D01*
X435701Y972750D01*
Y755041D01*
X427948Y747288D01*
X427395Y746461D01*
X427201Y745485D01*
Y739810D01*
X426145Y739105D01*
X425040Y737451D01*
X424652Y735500D01*
X425040Y733549D01*
X426145Y731895D01*
X427799Y730790D01*
X429750Y730402D01*
X431701Y730790D01*
X433355Y731895D01*
X434460Y733549D01*
X434848Y735500D01*
X434460Y737451D01*
X434173Y737880D01*
X434983Y738954D01*
X436500Y738652D01*
X438451Y739040D01*
X440105Y740145D01*
X441210Y741799D01*
X441598Y743750D01*
X441350Y744995D01*
X443523Y747168D01*
X444901Y746750D01*
X445040Y746049D01*
X446145Y744395D01*
X447201Y743690D01*
Y739556D01*
X434694Y727049D01*
X420556D01*
X397799Y749806D01*
Y888940D01*
X398855Y889645D01*
X399960Y891299D01*
X400348Y893250D01*
X399960Y895201D01*
X398855Y896855D01*
X397201Y897960D01*
X395250Y898348D01*
X393299Y897960D01*
X391645Y896855D01*
X390540Y895201D01*
X390152Y893250D01*
X390540Y891299D01*
X391645Y889645D01*
X392701Y888940D01*
Y748750D01*
X392895Y747775D01*
X393448Y746948D01*
X417698Y722698D01*
X418525Y722145D01*
X419500Y721951D01*
X435750D01*
X436726Y722145D01*
X437552Y722698D01*
X451552Y736698D01*
X452105Y737525D01*
X452299Y738500D01*
Y743690D01*
X453355Y744395D01*
X454460Y746049D01*
X454848Y748000D01*
X454460Y749951D01*
X453355Y751605D01*
X451701Y752710D01*
X451000Y752849D01*
X450582Y754227D01*
X454552Y758198D01*
X455105Y759025D01*
X455299Y760000D01*
Y889690D01*
X456355Y890395D01*
X457460Y892049D01*
X457848Y894000D01*
X457460Y895951D01*
X456355Y897605D01*
X454701Y898710D01*
X452750Y899098D01*
X450799Y898710D01*
X449145Y897605D01*
X448040Y895951D01*
X447652Y894000D01*
X448040Y892049D01*
X449145Y890395D01*
X450201Y889690D01*
Y761056D01*
X441736Y752591D01*
X440666Y753317D01*
X440799Y753985D01*
Y971694D01*
X451005Y981900D01*
X452250Y981652D01*
X454201Y982040D01*
X455855Y983145D01*
X456960Y984799D01*
X457348Y986750D01*
X456960Y988701D01*
X455855Y990355D01*
X454201Y991460D01*
X452250Y991848D01*
D02*
G37*
G36*
X631000Y1028554D02*
X460250D01*
X459177Y1028340D01*
X458267Y1027733D01*
X383289Y952754D01*
X148542D01*
X147667Y954867D01*
X146104Y956904D01*
X144067Y958467D01*
X141695Y959449D01*
X139150Y959784D01*
X136605Y959449D01*
X134233Y958467D01*
X132196Y956904D01*
X130633Y954867D01*
X129651Y952495D01*
X129316Y949950D01*
X129651Y947405D01*
X130633Y945033D01*
X132196Y942996D01*
X134233Y941433D01*
X136605Y940451D01*
X139150Y940116D01*
X141695Y940451D01*
X144067Y941433D01*
X146104Y942996D01*
X147667Y945033D01*
X148542Y947146D01*
X384450D01*
X385523Y947360D01*
X386433Y947967D01*
X394690Y956225D01*
X395911Y955650D01*
X396311Y953643D01*
X397645Y951645D01*
X399643Y950310D01*
X400730Y950094D01*
Y956000D01*
X402000D01*
Y957270D01*
X407906D01*
X407690Y958357D01*
X406355Y960355D01*
X404357Y961690D01*
X402350Y962089D01*
X401775Y963310D01*
X461411Y1022946D01*
X629839D01*
X666717Y986067D01*
X667627Y985460D01*
X668700Y985246D01*
X686458D01*
X687333Y983133D01*
X688896Y981096D01*
X690933Y979533D01*
X693305Y978551D01*
X695850Y978216D01*
X698395Y978551D01*
X700767Y979533D01*
X702804Y981096D01*
X704367Y983133D01*
X705349Y985505D01*
X705684Y988050D01*
X705349Y990595D01*
X704367Y992967D01*
X702804Y995004D01*
X700767Y996567D01*
X698395Y997549D01*
X695850Y997884D01*
X693305Y997549D01*
X690933Y996567D01*
X688896Y995004D01*
X687333Y992967D01*
X686458Y990854D01*
X669861D01*
X632983Y1027733D01*
X632073Y1028340D01*
X631000Y1028554D01*
D02*
G37*
G36*
X721250Y985184D02*
X718705Y984849D01*
X716333Y983867D01*
X714296Y982304D01*
X712733Y980267D01*
X711751Y977895D01*
X711416Y975350D01*
X711751Y972805D01*
X712733Y970433D01*
X714296Y968396D01*
X716333Y966833D01*
X718705Y965851D01*
X721250Y965516D01*
X723795Y965851D01*
X726167Y966833D01*
X728204Y968396D01*
X729767Y970433D01*
X730749Y972805D01*
X731084Y975350D01*
X730749Y977895D01*
X729767Y980267D01*
X728204Y982304D01*
X726167Y983867D01*
X723795Y984849D01*
X721250Y985184D01*
D02*
G37*
G36*
X139150D02*
X136605Y984849D01*
X134233Y983867D01*
X132196Y982304D01*
X130633Y980267D01*
X129651Y977895D01*
X129316Y975350D01*
X129651Y972805D01*
X130633Y970433D01*
X132196Y968396D01*
X134233Y966833D01*
X136605Y965851D01*
X139150Y965516D01*
X141695Y965851D01*
X144067Y966833D01*
X146104Y968396D01*
X147667Y970433D01*
X148649Y972805D01*
X148984Y975350D01*
X148649Y977895D01*
X147667Y980267D01*
X146104Y982304D01*
X144067Y983867D01*
X141695Y984849D01*
X139150Y985184D01*
D02*
G37*
G36*
X667500Y1038598D02*
X665549Y1038210D01*
X663895Y1037105D01*
X662790Y1035451D01*
X662402Y1033500D01*
X662790Y1031549D01*
X663895Y1029895D01*
X665549Y1028790D01*
X667500Y1028402D01*
X669451Y1028790D01*
X670396Y1029422D01*
X746311D01*
X750172Y1025561D01*
Y961939D01*
X742261Y954028D01*
X730114D01*
X729767Y954867D01*
X728204Y956904D01*
X726167Y958467D01*
X723795Y959449D01*
X721250Y959784D01*
X718705Y959449D01*
X716333Y958467D01*
X714296Y956904D01*
X712733Y954867D01*
X711751Y952495D01*
X711416Y949950D01*
X711751Y947405D01*
X712733Y945033D01*
X714296Y942996D01*
X716333Y941433D01*
X718705Y940451D01*
X721250Y940116D01*
X723795Y940451D01*
X726167Y941433D01*
X728204Y942996D01*
X729767Y945033D01*
X730114Y945872D01*
X743950D01*
X743950Y945872D01*
X743950Y945872D01*
X807861D01*
X813422Y940311D01*
Y906393D01*
X812309Y906283D01*
X809482Y905425D01*
X806876Y904032D01*
X804592Y902158D01*
X802718Y899874D01*
X801325Y897268D01*
X800467Y894441D01*
X800177Y891500D01*
X800467Y888559D01*
X801325Y885732D01*
X802718Y883126D01*
X804592Y880842D01*
X806876Y878968D01*
X809482Y877575D01*
X812309Y876717D01*
X815250Y876428D01*
X818191Y876717D01*
X821018Y877575D01*
X823624Y878968D01*
X825908Y880842D01*
X827782Y883126D01*
X829175Y885732D01*
X830033Y888559D01*
X830323Y891500D01*
X830033Y894441D01*
X829175Y897268D01*
X827782Y899874D01*
X825908Y902158D01*
X823624Y904032D01*
X821578Y905126D01*
Y942000D01*
X821578Y942000D01*
X821268Y943561D01*
X820384Y944884D01*
X812434Y952834D01*
X811111Y953718D01*
X809550Y954028D01*
X809550Y954028D01*
X755455D01*
X754969Y955202D01*
X757134Y957366D01*
X757134Y957366D01*
X758018Y958689D01*
X758328Y960250D01*
X758328Y960250D01*
Y1027250D01*
X758328Y1027250D01*
X758018Y1028811D01*
X757134Y1030134D01*
X757134Y1030134D01*
X750884Y1036384D01*
X749561Y1037268D01*
X748000Y1037578D01*
X748000Y1037578D01*
X670396D01*
X669451Y1038210D01*
X667500Y1038598D01*
D02*
G37*
G36*
X113750Y972484D02*
X111205Y972149D01*
X108833Y971167D01*
X106796Y969604D01*
X105233Y967567D01*
X104251Y965195D01*
X103916Y962650D01*
X104251Y960105D01*
X105233Y957733D01*
X106796Y955696D01*
X108833Y954133D01*
X111205Y953151D01*
X113750Y952816D01*
X116295Y953151D01*
X118667Y954133D01*
X120704Y955696D01*
X122267Y957733D01*
X123249Y960105D01*
X123584Y962650D01*
X123249Y965195D01*
X122267Y967567D01*
X120704Y969604D01*
X118667Y971167D01*
X116295Y972149D01*
X113750Y972484D01*
D02*
G37*
G36*
X407906Y954730D02*
X403270D01*
Y950094D01*
X404357Y950310D01*
X406355Y951645D01*
X407690Y953643D01*
X407906Y954730D01*
D02*
G37*
G36*
X113750Y947084D02*
X111205Y946749D01*
X108833Y945767D01*
X106796Y944204D01*
X105233Y942167D01*
X104251Y939795D01*
X103916Y937250D01*
X104251Y934705D01*
X105233Y932333D01*
X106796Y930296D01*
X108833Y928733D01*
X111205Y927751D01*
X113750Y927416D01*
X116295Y927751D01*
X118667Y928733D01*
X120704Y930296D01*
X122267Y932333D01*
X123249Y934705D01*
X123584Y937250D01*
X123249Y939795D01*
X122267Y942167D01*
X120704Y944204D01*
X118667Y945767D01*
X116295Y946749D01*
X113750Y947084D01*
D02*
G37*
G36*
X483500Y1011348D02*
X481549Y1010960D01*
X479895Y1009855D01*
X478790Y1008201D01*
X478402Y1006250D01*
X478790Y1004299D01*
X479895Y1002645D01*
X481549Y1001540D01*
X483500Y1001152D01*
X483818Y1001215D01*
X484872Y1000161D01*
X485241Y999915D01*
X485361Y999627D01*
X485358Y998340D01*
X482335Y995317D01*
X481799Y995210D01*
X480145Y994105D01*
X479040Y992451D01*
X478652Y990500D01*
X479040Y988549D01*
X480145Y986895D01*
X481799Y985790D01*
X483750Y985402D01*
X485701Y985790D01*
X487355Y986895D01*
X488460Y988549D01*
X488848Y990500D01*
X488597Y991759D01*
X489632Y992794D01*
X635333D01*
X686931Y941196D01*
X686351Y939795D01*
X686016Y937250D01*
X686351Y934705D01*
X687333Y932333D01*
X688896Y930296D01*
X690933Y928733D01*
X693305Y927751D01*
X695850Y927416D01*
X698395Y927751D01*
X700767Y928733D01*
X702804Y930296D01*
X704367Y932333D01*
X705068Y934026D01*
X706522Y934368D01*
X711500Y929390D01*
Y914800D01*
X731000D01*
Y934300D01*
X716410D01*
X710977Y939733D01*
Y942078D01*
X710712Y943406D01*
X709960Y944533D01*
X701403Y953089D01*
X701367Y954357D01*
X701483Y954683D01*
X702804Y955696D01*
X704367Y957733D01*
X705349Y960105D01*
X705684Y962650D01*
X705349Y965195D01*
X704367Y967567D01*
X702804Y969604D01*
X700767Y971167D01*
X698395Y972149D01*
X695850Y972484D01*
X693305Y972149D01*
X690933Y971167D01*
X688896Y969604D01*
X687333Y967567D01*
X686351Y965195D01*
X686023Y962701D01*
X685649Y962422D01*
X684883Y962045D01*
X641856Y1005071D01*
X640730Y1005824D01*
X639401Y1006088D01*
X488765D01*
X488597Y1006256D01*
X488210Y1008201D01*
X487105Y1009855D01*
X485451Y1010960D01*
X483500Y1011348D01*
D02*
G37*
G36*
X139150Y934384D02*
X136605Y934049D01*
X134233Y933067D01*
X132196Y931504D01*
X130633Y929467D01*
X129651Y927095D01*
X129316Y924550D01*
X129651Y922005D01*
X130633Y919633D01*
X132196Y917596D01*
X134233Y916033D01*
X136605Y915051D01*
X139150Y914716D01*
X141695Y915051D01*
X144067Y916033D01*
X146104Y917596D01*
X147667Y919633D01*
X148649Y922005D01*
X148984Y924550D01*
X148649Y927095D01*
X147667Y929467D01*
X146104Y931504D01*
X144067Y933067D01*
X141695Y934049D01*
X139150Y934384D01*
D02*
G37*
G36*
X784750Y930440D02*
X781123Y930082D01*
X777636Y929025D01*
X774422Y927307D01*
X771605Y924995D01*
X769293Y922178D01*
X767576Y918964D01*
X766518Y915477D01*
X766161Y911850D01*
X766518Y908223D01*
X767576Y904736D01*
X769293Y901522D01*
X771605Y898705D01*
X774422Y896393D01*
X777636Y894676D01*
X781123Y893618D01*
X784750Y893260D01*
X788377Y893618D01*
X791864Y894676D01*
X795078Y896393D01*
X797895Y898705D01*
X800207Y901522D01*
X801925Y904736D01*
X802982Y908223D01*
X803339Y911850D01*
X802982Y915477D01*
X801925Y918964D01*
X800207Y922178D01*
X797895Y924995D01*
X795078Y927307D01*
X791864Y929025D01*
X788377Y930082D01*
X784750Y930440D01*
D02*
G37*
G36*
X50250D02*
X46623Y930082D01*
X43136Y929025D01*
X39922Y927307D01*
X37105Y924995D01*
X34793Y922178D01*
X33075Y918964D01*
X32018Y915477D01*
X31660Y911850D01*
X32018Y908223D01*
X33075Y904736D01*
X34793Y901522D01*
X37105Y898705D01*
X39922Y896393D01*
X43136Y894676D01*
X46623Y893618D01*
X50250Y893260D01*
X53877Y893618D01*
X57364Y894676D01*
X60578Y896393D01*
X63395Y898705D01*
X65707Y901522D01*
X67425Y904736D01*
X68482Y908223D01*
X68840Y911850D01*
X68482Y915477D01*
X67425Y918964D01*
X65707Y922178D01*
X63395Y924995D01*
X60578Y927307D01*
X57364Y929025D01*
X53877Y930082D01*
X50250Y930440D01*
D02*
G37*
G36*
X19750Y906573D02*
X16810Y906283D01*
X13982Y905425D01*
X11376Y904032D01*
X9092Y902158D01*
X7218Y899874D01*
X5825Y897268D01*
X4967Y894441D01*
X4678Y891500D01*
X4967Y888559D01*
X5825Y885732D01*
X7218Y883126D01*
X9092Y880842D01*
X11376Y878968D01*
X13982Y877575D01*
X16810Y876717D01*
X19750Y876428D01*
X22690Y876717D01*
X25518Y877575D01*
X28124Y878968D01*
X30408Y880842D01*
X32282Y883126D01*
X33675Y885732D01*
X34533Y888559D01*
X34823Y891500D01*
X34533Y894441D01*
X33675Y897268D01*
X32282Y899874D01*
X30408Y902158D01*
X28124Y904032D01*
X25518Y905425D01*
X22690Y906283D01*
X19750Y906573D01*
D02*
G37*
G36*
X380290Y882940D02*
X371020D01*
Y873670D01*
X380290D01*
Y882940D01*
D02*
G37*
G36*
X368480D02*
X359210D01*
Y873670D01*
X368480D01*
Y882940D01*
D02*
G37*
G36*
X490390Y878040D02*
X481120D01*
Y868770D01*
X490390D01*
Y878040D01*
D02*
G37*
G36*
X478580D02*
X469310D01*
Y868770D01*
X478580D01*
Y878040D01*
D02*
G37*
G36*
X178520Y871156D02*
Y866520D01*
X183156D01*
X182939Y867607D01*
X181605Y869605D01*
X179607Y870940D01*
X178520Y871156D01*
D02*
G37*
G36*
X175980D02*
X174893Y870940D01*
X172895Y869605D01*
X171560Y867607D01*
X171344Y866520D01*
X175980D01*
Y871156D01*
D02*
G37*
G36*
X380290Y871130D02*
X371020D01*
Y861860D01*
X380290D01*
Y871130D01*
D02*
G37*
G36*
X368480D02*
X359210D01*
Y861860D01*
X368480D01*
Y871130D01*
D02*
G37*
G36*
X183156Y863980D02*
X178520D01*
Y859344D01*
X179607Y859560D01*
X181605Y860895D01*
X182939Y862893D01*
X183156Y863980D01*
D02*
G37*
G36*
X175980D02*
X171344D01*
X171560Y862893D01*
X172895Y860895D01*
X174893Y859560D01*
X175980Y859344D01*
Y863980D01*
D02*
G37*
G36*
X530650Y877082D02*
X528170Y876755D01*
X525859Y875798D01*
X523875Y874275D01*
X522352Y872291D01*
X521395Y869980D01*
X521068Y867500D01*
X521395Y865020D01*
X522352Y862709D01*
X523875Y860724D01*
X525859Y859202D01*
X528170Y858244D01*
X530650Y857918D01*
X533130Y858244D01*
X535441Y859202D01*
X537425Y860724D01*
X538948Y862709D01*
X539905Y865020D01*
X540232Y867500D01*
X539905Y869980D01*
X538948Y872291D01*
X537425Y874275D01*
X535441Y875798D01*
X533130Y876755D01*
X530650Y877082D01*
D02*
G37*
G36*
X505250D02*
X502770Y876755D01*
X500459Y875798D01*
X498475Y874275D01*
X496952Y872291D01*
X495994Y869980D01*
X495668Y867500D01*
X495994Y865020D01*
X496952Y862709D01*
X498475Y860724D01*
X500459Y859202D01*
X502770Y858244D01*
X505250Y857918D01*
X507730Y858244D01*
X510041Y859202D01*
X512025Y860724D01*
X513548Y862709D01*
X514505Y865020D01*
X514832Y867500D01*
X514505Y869980D01*
X513548Y872291D01*
X512025Y874275D01*
X510041Y875798D01*
X507730Y876755D01*
X505250Y877082D01*
D02*
G37*
G36*
X490390Y866230D02*
X481120D01*
Y856960D01*
X490390D01*
Y866230D01*
D02*
G37*
G36*
X478580D02*
X469310D01*
Y856960D01*
X478580D01*
Y866230D01*
D02*
G37*
G36*
X314000Y857549D02*
X140942D01*
X139967Y857355D01*
X139140Y856802D01*
X137823Y855485D01*
X136000Y855848D01*
X134049Y855460D01*
X132395Y854355D01*
X131290Y852701D01*
X130902Y850750D01*
X131290Y848799D01*
X132395Y847145D01*
X134049Y846040D01*
X136000Y845652D01*
X137951Y846040D01*
X139605Y847145D01*
X140710Y848799D01*
X141098Y850750D01*
X140965Y851418D01*
X141998Y852451D01*
X154687D01*
X155173Y851278D01*
X136448Y832552D01*
X135895Y831725D01*
X135701Y830750D01*
Y819628D01*
X130496Y814423D01*
X129250Y814670D01*
X127299Y814282D01*
X125645Y813177D01*
X124540Y811523D01*
X124152Y809572D01*
X124540Y807622D01*
X125645Y805968D01*
X127299Y804863D01*
X129250Y804474D01*
X131201Y804863D01*
X132855Y805968D01*
X133960Y807622D01*
X134348Y809572D01*
X134100Y810818D01*
X140052Y816770D01*
X140605Y817597D01*
X140799Y818572D01*
Y829694D01*
X160056Y848951D01*
X275944D01*
X314451Y810444D01*
Y800560D01*
X313395Y799855D01*
X312290Y798201D01*
X311902Y796250D01*
X312290Y794299D01*
X313395Y792645D01*
X315049Y791540D01*
X317000Y791152D01*
X318951Y791540D01*
X320605Y792645D01*
X321710Y794299D01*
X322098Y796250D01*
X321710Y798201D01*
X320605Y799855D01*
X319549Y800560D01*
Y811500D01*
X319355Y812476D01*
X318802Y813302D01*
X280827Y851278D01*
X281313Y852451D01*
X312944D01*
X328701Y836694D01*
Y794560D01*
X327645Y793855D01*
X326540Y792201D01*
X326152Y790250D01*
X326540Y788299D01*
X327645Y786645D01*
X329299Y785540D01*
X331250Y785152D01*
X333201Y785540D01*
X334855Y786645D01*
X335960Y788299D01*
X336348Y790250D01*
X335960Y792201D01*
X334855Y793855D01*
X333799Y794560D01*
Y837750D01*
X333605Y838726D01*
X333052Y839552D01*
X315802Y856802D01*
X314975Y857355D01*
X314000Y857549D01*
D02*
G37*
G36*
X369750Y856582D02*
X367270Y856255D01*
X364959Y855298D01*
X362975Y853775D01*
X361452Y851791D01*
X360495Y849480D01*
X360168Y847000D01*
X360495Y844520D01*
X361452Y842209D01*
X362975Y840225D01*
X364959Y838702D01*
X367270Y837745D01*
X369750Y837418D01*
X372230Y837745D01*
X374541Y838702D01*
X376525Y840225D01*
X378048Y842209D01*
X379006Y844520D01*
X379332Y847000D01*
X379006Y849480D01*
X378048Y851791D01*
X376525Y853775D01*
X374541Y855298D01*
X372230Y856255D01*
X369750Y856582D01*
D02*
G37*
G36*
X273716Y835102D02*
Y830466D01*
X278352D01*
X278136Y831553D01*
X276801Y833551D01*
X274803Y834886D01*
X273716Y835102D01*
D02*
G37*
G36*
X271176D02*
X270089Y834886D01*
X268092Y833551D01*
X266756Y831553D01*
X266540Y830466D01*
X271176D01*
Y835102D01*
D02*
G37*
G36*
X214000Y845098D02*
X212049Y844710D01*
X210395Y843605D01*
X209290Y841951D01*
X208902Y840000D01*
X209290Y838049D01*
X210319Y836509D01*
X210312Y836032D01*
X210091Y835071D01*
X208645Y834105D01*
X207540Y832451D01*
X207152Y830500D01*
X207201Y830255D01*
X206121Y829175D01*
X205250Y829348D01*
X203299Y828960D01*
X201645Y827855D01*
X200540Y826201D01*
X200152Y824250D01*
X200540Y822299D01*
X201645Y820645D01*
X203299Y819540D01*
X205250Y819152D01*
X207201Y819540D01*
X208855Y820645D01*
X209960Y822299D01*
X210348Y824250D01*
X210299Y824495D01*
X211379Y825575D01*
X212250Y825402D01*
X214201Y825790D01*
X215855Y826895D01*
X216960Y828549D01*
X217348Y830500D01*
X217094Y831777D01*
X218290Y832273D01*
X218895Y831367D01*
X220549Y830262D01*
X222500Y829874D01*
X224451Y830262D01*
X226105Y831367D01*
X227210Y833021D01*
X227598Y834972D01*
X227210Y836923D01*
X226105Y838577D01*
X224451Y839682D01*
X222500Y840070D01*
X220549Y839682D01*
X220296Y839513D01*
X219748Y839736D01*
X219056Y840212D01*
X218710Y841951D01*
X217605Y843605D01*
X215951Y844710D01*
X214000Y845098D01*
D02*
G37*
G36*
X677000Y838598D02*
X675049Y838210D01*
X673395Y837105D01*
X672290Y835451D01*
X671902Y833500D01*
X672290Y831549D01*
X673395Y829895D01*
X675049Y828790D01*
X677000Y828402D01*
X678951Y828790D01*
X679522Y829172D01*
X714480D01*
X715799Y828290D01*
X717750Y827902D01*
X719701Y828290D01*
X721355Y829395D01*
X722460Y831049D01*
X722848Y833000D01*
X722460Y834951D01*
X721355Y836605D01*
X719701Y837710D01*
X717750Y838098D01*
X715799Y837710D01*
X715228Y837328D01*
X680270D01*
X678951Y838210D01*
X677000Y838598D01*
D02*
G37*
G36*
X55500Y868604D02*
X51285Y868189D01*
X47232Y866960D01*
X43498Y864963D01*
X40224Y862276D01*
X37537Y859003D01*
X35540Y855267D01*
X34311Y851215D01*
X33896Y847000D01*
X34311Y842785D01*
X35540Y838733D01*
X37537Y834997D01*
X40224Y831724D01*
X43498Y829037D01*
X47232Y827040D01*
X51285Y825811D01*
X55500Y825396D01*
X59715Y825811D01*
X63767Y827040D01*
X67503Y829037D01*
X70776Y831724D01*
X73463Y834997D01*
X75459Y838733D01*
X76689Y842785D01*
X77104Y847000D01*
X76689Y851215D01*
X75459Y855267D01*
X73463Y859003D01*
X70776Y862276D01*
X67503Y864963D01*
X63767Y866960D01*
X59715Y868189D01*
X55500Y868604D01*
D02*
G37*
G36*
X239500Y834598D02*
X237549Y834210D01*
X235895Y833105D01*
X234790Y831451D01*
X234402Y829500D01*
X234790Y827549D01*
X235895Y825895D01*
X237549Y824790D01*
X239500Y824402D01*
X241451Y824790D01*
X243105Y825895D01*
X244210Y827549D01*
X244598Y829500D01*
X244210Y831451D01*
X243105Y833105D01*
X241451Y834210D01*
X239500Y834598D01*
D02*
G37*
G36*
X278352Y827926D02*
X273716D01*
Y823290D01*
X274803Y823506D01*
X276801Y824842D01*
X278136Y826839D01*
X278352Y827926D01*
D02*
G37*
G36*
X271176D02*
X266540D01*
X266756Y826839D01*
X268092Y824842D01*
X270089Y823506D01*
X271176Y823290D01*
Y827926D01*
D02*
G37*
G36*
X252750Y828848D02*
X250799Y828460D01*
X249145Y827355D01*
X248040Y825701D01*
X247652Y823750D01*
X248040Y821799D01*
X249145Y820145D01*
X250799Y819040D01*
X252750Y818652D01*
X254701Y819040D01*
X256355Y820145D01*
X257460Y821799D01*
X257848Y823750D01*
X257460Y825701D01*
X256355Y827355D01*
X254701Y828460D01*
X252750Y828848D01*
D02*
G37*
G36*
X602750Y856104D02*
X598535Y855689D01*
X594482Y854460D01*
X590747Y852463D01*
X587474Y849776D01*
X584787Y846503D01*
X582790Y842767D01*
X581561Y838715D01*
X581146Y834500D01*
X581561Y830285D01*
X582790Y826233D01*
X584787Y822497D01*
X587474Y819224D01*
X590747Y816537D01*
X594482Y814540D01*
X598535Y813311D01*
X602750Y812896D01*
X606965Y813311D01*
X611017Y814540D01*
X614753Y816537D01*
X618026Y819224D01*
X620713Y822497D01*
X622710Y826233D01*
X623939Y830285D01*
X624354Y834500D01*
X623939Y838715D01*
X622710Y842767D01*
X620713Y846503D01*
X618026Y849776D01*
X614753Y852463D01*
X611017Y854460D01*
X606965Y855689D01*
X602750Y856104D01*
D02*
G37*
G36*
X369750Y831182D02*
X367270Y830855D01*
X364959Y829898D01*
X362975Y828375D01*
X361452Y826391D01*
X360495Y824080D01*
X360168Y821600D01*
X360495Y819120D01*
X361452Y816809D01*
X362975Y814825D01*
X364959Y813302D01*
X367270Y812345D01*
X369750Y812018D01*
X372230Y812345D01*
X374541Y813302D01*
X376525Y814825D01*
X378048Y816809D01*
X379006Y819120D01*
X379332Y821600D01*
X379006Y824080D01*
X378048Y826391D01*
X376525Y828375D01*
X374541Y829898D01*
X372230Y830855D01*
X369750Y831182D01*
D02*
G37*
G36*
X224250Y812848D02*
X222299Y812460D01*
X220645Y811355D01*
X219540Y809701D01*
X219338Y808682D01*
X218822Y807753D01*
X217958Y807761D01*
X217765Y807799D01*
X187310D01*
X186605Y808855D01*
X184951Y809960D01*
X183000Y810348D01*
X181049Y809960D01*
X179395Y808855D01*
X178290Y807201D01*
X177902Y805250D01*
X178290Y803299D01*
X179395Y801645D01*
X181049Y800540D01*
X183000Y800152D01*
X184951Y800540D01*
X186605Y801645D01*
X186769Y801891D01*
X187122Y801861D01*
X187761Y800531D01*
X187540Y800201D01*
X187152Y798250D01*
X187540Y796299D01*
X188645Y794645D01*
X190299Y793540D01*
X191614Y793279D01*
X191882Y791930D01*
X191395Y791605D01*
X190290Y789951D01*
X189902Y788000D01*
X190290Y786049D01*
X191395Y784395D01*
X192715Y783513D01*
X192875Y782409D01*
X192803Y782044D01*
X192145Y781605D01*
X191040Y779951D01*
X190652Y778000D01*
X191040Y776049D01*
X192145Y774395D01*
X193799Y773290D01*
X195750Y772902D01*
X197701Y773290D01*
X199355Y774395D01*
X200460Y776049D01*
X200848Y778000D01*
X200460Y779951D01*
X199355Y781605D01*
X198035Y782487D01*
X197875Y783591D01*
X197947Y783956D01*
X198605Y784395D01*
X199710Y786049D01*
X200098Y788000D01*
X199710Y789951D01*
X198605Y791605D01*
X196951Y792710D01*
X195636Y792971D01*
X195368Y794320D01*
X195855Y794645D01*
X196960Y796299D01*
X197348Y798250D01*
X196960Y800201D01*
X196138Y801431D01*
X196700Y802701D01*
X216709D01*
X244212Y775198D01*
X245039Y774645D01*
X246015Y774451D01*
X260235D01*
X261211Y774645D01*
X262038Y775198D01*
X263541Y776701D01*
X337690D01*
X338395Y775645D01*
X340049Y774540D01*
X342000Y774152D01*
X343951Y774540D01*
X345605Y775645D01*
X346710Y777299D01*
X347098Y779250D01*
X346710Y781201D01*
X345605Y782855D01*
X343951Y783960D01*
X342000Y784348D01*
X340049Y783960D01*
X338395Y782855D01*
X337690Y781799D01*
X264670D01*
X263865Y782781D01*
X263908Y783000D01*
X263440Y785357D01*
X262105Y787355D01*
X260107Y788690D01*
X259020Y788906D01*
Y783000D01*
X257750D01*
Y781730D01*
X251844D01*
X252026Y780819D01*
X251720Y780006D01*
X251476Y779549D01*
X247071D01*
X237884Y788736D01*
X238253Y789951D01*
X238701Y790040D01*
X240355Y791145D01*
X241460Y792799D01*
X241848Y794750D01*
X241460Y796701D01*
X240355Y798355D01*
X238701Y799460D01*
X236750Y799848D01*
X234799Y799460D01*
X233145Y798355D01*
X232040Y796701D01*
X231951Y796253D01*
X230736Y795884D01*
X225094Y801525D01*
X225512Y802903D01*
X226201Y803040D01*
X227855Y804145D01*
X228960Y805799D01*
X229348Y807750D01*
X228960Y809701D01*
X227855Y811355D01*
X226201Y812460D01*
X224250Y812848D01*
D02*
G37*
G36*
X237750D02*
X235799Y812460D01*
X234145Y811355D01*
X233040Y809701D01*
X232652Y807750D01*
X233040Y805799D01*
X234145Y804145D01*
X235799Y803040D01*
X237750Y802652D01*
X239701Y803040D01*
X241355Y804145D01*
X242460Y805799D01*
X242848Y807750D01*
X242460Y809701D01*
X241355Y811355D01*
X239701Y812460D01*
X237750Y812848D01*
D02*
G37*
G36*
X757000Y804098D02*
X755049Y803710D01*
X753395Y802605D01*
X752290Y800951D01*
X751902Y799000D01*
X752290Y797049D01*
X753395Y795395D01*
X755049Y794290D01*
X757000Y793902D01*
X758951Y794290D01*
X760605Y795395D01*
X761710Y797049D01*
X762098Y799000D01*
X761710Y800951D01*
X760605Y802605D01*
X758951Y803710D01*
X757000Y804098D01*
D02*
G37*
G36*
X526441Y798157D02*
X524491Y797768D01*
X522837Y796663D01*
X521731Y795010D01*
X521343Y793059D01*
X521731Y791108D01*
X522837Y789454D01*
X524491Y788349D01*
X526441Y787961D01*
X528392Y788349D01*
X530046Y789454D01*
X531151Y791108D01*
X531539Y793059D01*
X531151Y795010D01*
X530046Y796663D01*
X528392Y797768D01*
X526441Y798157D01*
D02*
G37*
G36*
X256480Y788906D02*
X255393Y788690D01*
X253395Y787355D01*
X252061Y785357D01*
X251844Y784270D01*
X256480D01*
Y788906D01*
D02*
G37*
G36*
X577750Y801400D02*
X559750D01*
Y783400D01*
X577750D01*
Y801400D01*
D02*
G37*
G36*
X25020Y787861D02*
Y779020D01*
X33861D01*
X33678Y780410D01*
X32651Y782889D01*
X31018Y785018D01*
X28889Y786651D01*
X26410Y787678D01*
X25020Y787861D01*
D02*
G37*
G36*
X22480D02*
X21090Y787678D01*
X18611Y786651D01*
X16482Y785018D01*
X14849Y782889D01*
X13822Y780410D01*
X13639Y779020D01*
X22480D01*
Y787861D01*
D02*
G37*
G36*
X103250Y802794D02*
X99667Y802322D01*
X96328Y800939D01*
X93461Y798739D01*
X91261Y795872D01*
X89878Y792533D01*
X89407Y788950D01*
X89878Y785367D01*
X91261Y782028D01*
X93461Y779161D01*
X96328Y776961D01*
X99667Y775578D01*
X103250Y775107D01*
X106833Y775578D01*
X110172Y776961D01*
X113039Y779161D01*
X115239Y782028D01*
X116622Y785367D01*
X117093Y788950D01*
X116622Y792533D01*
X115239Y795872D01*
X113039Y798739D01*
X110172Y800939D01*
X106833Y802322D01*
X103250Y802794D01*
D02*
G37*
G36*
X33861Y776480D02*
X25020D01*
Y767639D01*
X26410Y767822D01*
X28889Y768849D01*
X31018Y770482D01*
X32651Y772611D01*
X33678Y775090D01*
X33861Y776480D01*
D02*
G37*
G36*
X22480D02*
X13639D01*
X13822Y775090D01*
X14849Y772611D01*
X16482Y770482D01*
X18611Y768849D01*
X21090Y767822D01*
X22480Y767639D01*
Y776480D01*
D02*
G37*
G36*
X781750Y784032D02*
X779270Y783706D01*
X776959Y782748D01*
X774975Y781226D01*
X773452Y779241D01*
X772495Y776930D01*
X772168Y774450D01*
X772495Y771970D01*
X773452Y769659D01*
X774975Y767675D01*
X776959Y766152D01*
X779270Y765195D01*
X781750Y764868D01*
X784230Y765195D01*
X786541Y766152D01*
X788525Y767675D01*
X790048Y769659D01*
X791005Y771970D01*
X791332Y774450D01*
X791005Y776930D01*
X790048Y779241D01*
X788525Y781226D01*
X786541Y782748D01*
X784230Y783706D01*
X781750Y784032D01*
D02*
G37*
G36*
X568750Y776078D02*
X566400Y775768D01*
X564211Y774862D01*
X562331Y773419D01*
X560889Y771539D01*
X560064Y769549D01*
X552500D01*
X551525Y769355D01*
X550698Y768802D01*
X540698Y758802D01*
X540145Y757975D01*
X539951Y757000D01*
Y728755D01*
X521448Y710252D01*
X520895Y709425D01*
X520701Y708450D01*
Y661556D01*
X461683Y602538D01*
X461576Y602565D01*
X461187Y603972D01*
X470983Y613767D01*
X471590Y614677D01*
X471804Y615750D01*
Y621610D01*
X472605Y622145D01*
X473710Y623799D01*
X474098Y625750D01*
X473710Y627701D01*
X472605Y629355D01*
X470951Y630460D01*
X469000Y630848D01*
X467049Y630460D01*
X465395Y629355D01*
X464290Y627701D01*
X463902Y625750D01*
X464290Y623799D01*
X465395Y622145D01*
X466196Y621610D01*
Y619560D01*
X465021Y619233D01*
X464926Y619251D01*
X463855Y620855D01*
X462201Y621960D01*
X460250Y622348D01*
X458299Y621960D01*
X456645Y620855D01*
X456110Y620054D01*
X422250D01*
X421177Y619840D01*
X420267Y619233D01*
X381732Y580697D01*
X380559Y581183D01*
Y585733D01*
X435767Y640941D01*
X448780D01*
X449145Y640395D01*
X450799Y639290D01*
X452750Y638902D01*
X454701Y639290D01*
X456355Y640395D01*
X457460Y642049D01*
X457848Y644000D01*
X457460Y645951D01*
X456355Y647605D01*
X454701Y648710D01*
X452750Y649098D01*
X450799Y648710D01*
X449145Y647605D01*
X448780Y647059D01*
X434500D01*
X433330Y646826D01*
X432337Y646163D01*
X377578Y591403D01*
X376204Y591825D01*
X376137Y592172D01*
X438661Y654696D01*
X448860D01*
X449395Y653895D01*
X451049Y652790D01*
X453000Y652402D01*
X454951Y652790D01*
X456605Y653895D01*
X457710Y655549D01*
X458098Y657500D01*
X457710Y659451D01*
X456605Y661105D01*
X454951Y662210D01*
X453000Y662598D01*
X451049Y662210D01*
X449395Y661105D01*
X448860Y660304D01*
X437500D01*
X436427Y660090D01*
X435517Y659483D01*
X370767Y594733D01*
X370160Y593823D01*
X369946Y592750D01*
Y466661D01*
X365036Y461751D01*
X364050Y462561D01*
X364710Y463549D01*
X365098Y465500D01*
X364865Y466670D01*
X364912Y466819D01*
X364840Y466960D01*
X364850Y466983D01*
X364850Y467000D01*
X364869Y467034D01*
X364920Y467106D01*
X364998Y467202D01*
X365139Y467352D01*
X365269Y467693D01*
X365605Y468196D01*
X365799Y469172D01*
Y625647D01*
X365605Y626622D01*
X365052Y627449D01*
X362007Y630495D01*
X362210Y630799D01*
X362598Y632750D01*
X362210Y634701D01*
X361105Y636355D01*
X359451Y637460D01*
X357500Y637848D01*
X355764Y637503D01*
X355254Y638062D01*
X355015Y638550D01*
X358555Y642090D01*
X359500Y641902D01*
X361451Y642290D01*
X363105Y643395D01*
X364210Y645049D01*
X364598Y647000D01*
X364210Y648951D01*
X363105Y650605D01*
X361451Y651710D01*
X359500Y652098D01*
X357549Y651710D01*
X355895Y650605D01*
X354790Y648951D01*
X354402Y647000D01*
X354590Y646055D01*
X346267Y637733D01*
X345660Y636823D01*
X345446Y635750D01*
Y614428D01*
X344273Y613942D01*
X333233Y624983D01*
X332323Y625590D01*
X331250Y625804D01*
X324890D01*
X324355Y626605D01*
X322701Y627710D01*
X320750Y628098D01*
X318799Y627710D01*
X318429Y627463D01*
X317309Y628061D01*
Y674676D01*
X318579Y675355D01*
X319393Y674810D01*
X320480Y674594D01*
Y680500D01*
Y686406D01*
X319393Y686190D01*
X318579Y685645D01*
X317309Y686324D01*
Y732983D01*
X318356Y734030D01*
X319000Y733902D01*
X320951Y734290D01*
X322605Y735395D01*
X323710Y737049D01*
X324098Y739000D01*
X323710Y740951D01*
X322605Y742605D01*
X320951Y743710D01*
X319000Y744098D01*
X317049Y743710D01*
X315395Y742605D01*
X314290Y740951D01*
X313902Y739000D01*
X314030Y738356D01*
X312087Y736413D01*
X311424Y735421D01*
X311191Y734250D01*
X311191Y734250D01*
Y613657D01*
X309921Y612979D01*
X309201Y613460D01*
X307250Y613848D01*
X305299Y613460D01*
X303645Y612355D01*
X302540Y610701D01*
X302152Y608750D01*
X302540Y606799D01*
X303645Y605145D01*
X305299Y604040D01*
X307250Y603652D01*
X309201Y604040D01*
X309921Y604521D01*
X311191Y603843D01*
Y560266D01*
X309921Y559881D01*
X309605Y560355D01*
X307607Y561690D01*
X306520Y561906D01*
Y556000D01*
Y550094D01*
X307607Y550311D01*
X309605Y551645D01*
X309921Y552119D01*
X311191Y551734D01*
Y368462D01*
X275381Y332653D01*
X274208Y333139D01*
Y344604D01*
X244792D01*
Y328396D01*
X269466D01*
X269951Y327223D01*
X223038Y280309D01*
X215470D01*
X215105Y280855D01*
X213451Y281960D01*
X211500Y282348D01*
X209549Y281960D01*
X207895Y280855D01*
X206790Y279201D01*
X206402Y277250D01*
X206790Y275299D01*
X207895Y273645D01*
X209549Y272540D01*
X211500Y272152D01*
X213451Y272540D01*
X215105Y273645D01*
X215470Y274191D01*
X224305D01*
X224305Y274191D01*
X225475Y274424D01*
X226467Y275087D01*
X316413Y365033D01*
X317076Y366025D01*
X317309Y367195D01*
X317309Y367196D01*
Y617939D01*
X318429Y618537D01*
X318799Y618290D01*
X320750Y617902D01*
X322701Y618290D01*
X324355Y619395D01*
X324890Y620196D01*
X330089D01*
X341446Y608839D01*
Y569654D01*
X340176Y568975D01*
X339451Y569460D01*
X337500Y569848D01*
X335549Y569460D01*
X333895Y568355D01*
X332790Y566701D01*
X332402Y564750D01*
X332790Y562799D01*
X333895Y561145D01*
X335549Y560040D01*
X337500Y559652D01*
X339451Y560040D01*
X340176Y560525D01*
X341446Y559846D01*
Y542911D01*
X339695Y541160D01*
X338750Y541348D01*
X336799Y540960D01*
X335145Y539855D01*
X334040Y538201D01*
X333652Y536250D01*
X334040Y534299D01*
X335145Y532645D01*
X336799Y531540D01*
X338750Y531152D01*
X340701Y531540D01*
X342355Y532645D01*
X343460Y534299D01*
X343848Y536250D01*
X343768Y536653D01*
X344176Y537018D01*
X345446Y536450D01*
Y470390D01*
X344645Y469855D01*
X343540Y468201D01*
X343152Y466250D01*
X343540Y464299D01*
X344645Y462645D01*
X346299Y461540D01*
X348250Y461152D01*
X350201Y461540D01*
X351855Y462645D01*
X352960Y464299D01*
X353348Y466250D01*
X352960Y468201D01*
X351855Y469855D01*
X351054Y470390D01*
Y490117D01*
X352324Y490502D01*
X352395Y490395D01*
X354049Y489290D01*
X356000Y488902D01*
X357951Y489290D01*
X359431Y490279D01*
X360701Y489924D01*
Y471763D01*
X360689Y471701D01*
X360000Y470598D01*
X358049Y470210D01*
X356395Y469105D01*
X355290Y467451D01*
X354902Y465500D01*
X355290Y463549D01*
X356395Y461895D01*
X358049Y460790D01*
X360000Y460402D01*
X361951Y460790D01*
X362939Y461450D01*
X363749Y460464D01*
X357017Y453733D01*
X356410Y452823D01*
X356196Y451750D01*
Y443640D01*
X355395Y443105D01*
X354290Y441451D01*
X353902Y439500D01*
X354290Y437549D01*
X355395Y435895D01*
X357049Y434790D01*
X359000Y434402D01*
X360951Y434790D01*
X362605Y435895D01*
X362921Y436369D01*
X364191Y435984D01*
Y428970D01*
X363645Y428605D01*
X362540Y426951D01*
X362152Y425000D01*
X362540Y423049D01*
X363645Y421395D01*
X365299Y420290D01*
X367250Y419902D01*
X369201Y420290D01*
X370855Y421395D01*
X371960Y423049D01*
X372348Y425000D01*
X371960Y426951D01*
X370855Y428605D01*
X370309Y428970D01*
Y440733D01*
X371579Y441119D01*
X371895Y440645D01*
X373549Y439540D01*
X375500Y439152D01*
X377451Y439540D01*
X379105Y440645D01*
X380210Y442299D01*
X380598Y444250D01*
X380410Y445195D01*
X382671Y447456D01*
X383941Y446930D01*
Y389680D01*
X383941Y389680D01*
X384174Y388509D01*
X384837Y387517D01*
X449691Y322663D01*
Y276561D01*
X448571Y275963D01*
X448201Y276210D01*
X446250Y276598D01*
X444299Y276210D01*
X442645Y275105D01*
X441540Y273451D01*
X441152Y271500D01*
X441540Y269549D01*
X442645Y267895D01*
X444299Y266790D01*
X446250Y266402D01*
X448201Y266790D01*
X448571Y267038D01*
X449691Y266439D01*
Y177442D01*
X449691Y177442D01*
X449924Y176271D01*
X450587Y175279D01*
X464779Y161087D01*
X464779Y161087D01*
X465771Y160424D01*
X466942Y160191D01*
X470521D01*
X470967Y159113D01*
X472266Y157420D01*
X473959Y156121D01*
X475930Y155305D01*
X478046Y155026D01*
X491254D01*
X493369Y155305D01*
X495341Y156121D01*
X497034Y157420D01*
X498333Y159113D01*
X499149Y161084D01*
X499428Y163200D01*
X499149Y165316D01*
X498333Y167287D01*
X497034Y168980D01*
X495341Y170279D01*
X493369Y171095D01*
X491254Y171374D01*
X478046D01*
X475930Y171095D01*
X473959Y170279D01*
X472266Y168980D01*
X470967Y167287D01*
X470562Y166309D01*
X468209D01*
X455809Y178709D01*
Y227456D01*
X456982Y227942D01*
X466387Y218537D01*
X466387Y218537D01*
X467379Y217874D01*
X468550Y217641D01*
X468550Y217641D01*
X470541D01*
X470967Y216613D01*
X472266Y214920D01*
X473959Y213621D01*
X475930Y212805D01*
X478046Y212526D01*
X491254D01*
X493369Y212805D01*
X495341Y213621D01*
X497034Y214920D01*
X498333Y216613D01*
X499149Y218584D01*
X499428Y220700D01*
X499149Y222816D01*
X498333Y224787D01*
X497034Y226480D01*
X495341Y227779D01*
X493369Y228595D01*
X491254Y228874D01*
X478046D01*
X475930Y228595D01*
X473959Y227779D01*
X472266Y226480D01*
X470967Y224787D01*
X470814Y224417D01*
X469368Y224208D01*
X460309Y233267D01*
Y348096D01*
X460309Y348096D01*
X460076Y349267D01*
X459413Y350259D01*
X459413Y350259D01*
X394559Y415113D01*
Y445581D01*
X395829Y445966D01*
X395837Y445954D01*
X481591Y360200D01*
Y286874D01*
X478046D01*
X475930Y286595D01*
X473959Y285779D01*
X472266Y284480D01*
X470967Y282787D01*
X470151Y280816D01*
X469872Y278700D01*
X470151Y276584D01*
X470967Y274613D01*
X472266Y272920D01*
X473959Y271621D01*
X475930Y270805D01*
X478046Y270526D01*
X491254D01*
X493369Y270805D01*
X495341Y271621D01*
X497034Y272920D01*
X498333Y274613D01*
X499149Y276584D01*
X499428Y278700D01*
X499149Y280816D01*
X498333Y282787D01*
X497034Y284480D01*
X495341Y285779D01*
X493369Y286595D01*
X491254Y286874D01*
X487709D01*
Y361467D01*
X487476Y362637D01*
X486813Y363629D01*
X486813Y363629D01*
X401059Y449384D01*
Y523280D01*
X401605Y523645D01*
X402710Y525299D01*
X403098Y527250D01*
X402710Y529201D01*
X401605Y530855D01*
X400383Y531671D01*
X400768Y532941D01*
X403030D01*
X403395Y532395D01*
X405049Y531290D01*
X407000Y530902D01*
X408951Y531290D01*
X410605Y532395D01*
X411710Y534049D01*
X412098Y536000D01*
X411710Y537951D01*
X410605Y539605D01*
X408951Y540710D01*
X407000Y541098D01*
X405049Y540710D01*
X403395Y539605D01*
X403030Y539059D01*
X397558D01*
X396515Y538851D01*
X395980Y539175D01*
X395386Y539684D01*
X395598Y540750D01*
X395210Y542701D01*
X394105Y544355D01*
X392451Y545460D01*
X390500Y545848D01*
X388549Y545460D01*
X386895Y544355D01*
X385790Y542701D01*
X385574Y541614D01*
X384304Y541739D01*
Y575339D01*
X423411Y614446D01*
X425440D01*
X425767Y613271D01*
X425749Y613176D01*
X424145Y612105D01*
X423040Y610451D01*
X422652Y608500D01*
X422840Y607555D01*
X414767Y599483D01*
X414160Y598573D01*
X413946Y597500D01*
Y471890D01*
X413145Y471355D01*
X412040Y469701D01*
X411652Y467750D01*
X412040Y465799D01*
X413145Y464145D01*
X414799Y463040D01*
X416750Y462652D01*
X418701Y463040D01*
X420355Y464145D01*
X421460Y465799D01*
X421676Y466886D01*
X422946Y466761D01*
Y448390D01*
X422145Y447855D01*
X421040Y446201D01*
X420652Y444250D01*
X421040Y442299D01*
X422145Y440645D01*
X423799Y439540D01*
X425750Y439152D01*
X427701Y439540D01*
X429355Y440645D01*
X430460Y442299D01*
X430848Y444250D01*
X430460Y446201D01*
X429355Y447855D01*
X428554Y448390D01*
Y571339D01*
X453250Y596034D01*
X454628Y595616D01*
X454790Y594799D01*
X455895Y593145D01*
X457549Y592040D01*
X459500Y591652D01*
X461451Y592040D01*
X463105Y593145D01*
X464210Y594799D01*
X464598Y596750D01*
X464350Y597995D01*
X523528Y657173D01*
X524701Y656687D01*
Y648306D01*
X470746Y594350D01*
X469500Y594598D01*
X467549Y594210D01*
X465895Y593105D01*
X464790Y591451D01*
X464402Y589500D01*
X464790Y587549D01*
X465895Y585895D01*
X467549Y584790D01*
X469500Y584402D01*
X471451Y584790D01*
X473105Y585895D01*
X474210Y587549D01*
X474598Y589500D01*
X474350Y590746D01*
X529052Y645448D01*
X529605Y646275D01*
X529799Y647250D01*
Y706444D01*
X537006Y713651D01*
X560064D01*
X560889Y711661D01*
X562331Y709781D01*
X564211Y708339D01*
X566400Y707432D01*
X568750Y707122D01*
X571100Y707432D01*
X573289Y708339D01*
X575169Y709781D01*
X576612Y711661D01*
X577518Y713850D01*
X577828Y716200D01*
X577518Y718549D01*
X576612Y720739D01*
X575169Y722619D01*
X573289Y724062D01*
X571100Y724968D01*
X568750Y725278D01*
X566400Y724968D01*
X564211Y724062D01*
X562331Y722619D01*
X560889Y720739D01*
X560064Y718749D01*
X538813D01*
X538327Y719922D01*
X544302Y725897D01*
X544855Y726724D01*
X545049Y727700D01*
Y755944D01*
X553556Y764451D01*
X560064D01*
X560889Y762461D01*
X562331Y760581D01*
X564211Y759139D01*
X566400Y758232D01*
X568750Y757922D01*
X571100Y758232D01*
X573289Y759139D01*
X575169Y760581D01*
X576612Y762461D01*
X577518Y764650D01*
X577828Y767000D01*
X577518Y769350D01*
X576612Y771539D01*
X575169Y773419D01*
X573289Y774862D01*
X571100Y775768D01*
X568750Y776078D01*
D02*
G37*
G36*
X423750Y765598D02*
X421799Y765210D01*
X420145Y764105D01*
X419040Y762451D01*
X418652Y760500D01*
X419040Y758549D01*
X420145Y756895D01*
X421799Y755790D01*
X423750Y755402D01*
X425701Y755790D01*
X427355Y756895D01*
X428460Y758549D01*
X428848Y760500D01*
X428460Y762451D01*
X427355Y764105D01*
X425701Y765210D01*
X423750Y765598D01*
D02*
G37*
G36*
X72750Y786486D02*
X69270Y786143D01*
X65925Y785128D01*
X62841Y783480D01*
X60138Y781262D01*
X57920Y778559D01*
X56272Y775475D01*
X55257Y772130D01*
X54914Y768650D01*
X55257Y765170D01*
X56272Y761824D01*
X57920Y758741D01*
X60138Y756038D01*
X62841Y753820D01*
X65925Y752172D01*
X69270Y751157D01*
X72750Y750814D01*
X76230Y751157D01*
X79576Y752172D01*
X82659Y753820D01*
X85362Y756038D01*
X87580Y758741D01*
X89228Y761824D01*
X90243Y765170D01*
X90586Y768650D01*
X90243Y772130D01*
X89228Y775475D01*
X87580Y778559D01*
X85362Y781262D01*
X82659Y783480D01*
X79576Y785128D01*
X76230Y786143D01*
X72750Y786486D01*
D02*
G37*
G36*
X144740Y764490D02*
X127760D01*
Y747510D01*
X144740D01*
Y764490D01*
D02*
G37*
G36*
X186770Y751906D02*
Y747270D01*
X191406D01*
X191190Y748357D01*
X189855Y750355D01*
X187857Y751690D01*
X186770Y751906D01*
D02*
G37*
G36*
X184230D02*
X183143Y751690D01*
X181145Y750355D01*
X179811Y748357D01*
X179594Y747270D01*
X184230D01*
Y751906D01*
D02*
G37*
G36*
X287270Y750906D02*
Y746270D01*
X291906D01*
X291690Y747357D01*
X290355Y749355D01*
X288357Y750690D01*
X287270Y750906D01*
D02*
G37*
G36*
X284730D02*
X283643Y750690D01*
X281645Y749355D01*
X280310Y747357D01*
X280094Y746270D01*
X284730D01*
Y750906D01*
D02*
G37*
G36*
X238020Y750156D02*
Y745520D01*
X242656D01*
X242439Y746607D01*
X241105Y748605D01*
X239107Y749939D01*
X238020Y750156D01*
D02*
G37*
G36*
X235480D02*
X234393Y749939D01*
X232395Y748605D01*
X231060Y746607D01*
X230844Y745520D01*
X235480D01*
Y750156D01*
D02*
G37*
G36*
X23750Y761579D02*
X21361Y761264D01*
X19136Y760342D01*
X17224Y758876D01*
X15757Y756964D01*
X14836Y754739D01*
X14521Y752350D01*
X14836Y749961D01*
X15757Y747736D01*
X17224Y745824D01*
X19136Y744358D01*
X21361Y743436D01*
X23750Y743121D01*
X26139Y743436D01*
X28365Y744358D01*
X30276Y745824D01*
X31742Y747736D01*
X32664Y749961D01*
X32979Y752350D01*
X32664Y754739D01*
X31742Y756964D01*
X30276Y758876D01*
X28365Y760342D01*
X26139Y761264D01*
X23750Y761579D01*
D02*
G37*
G36*
X191406Y744730D02*
X186770D01*
Y740094D01*
X187857Y740311D01*
X189855Y741645D01*
X191190Y743643D01*
X191406Y744730D01*
D02*
G37*
G36*
X184230D02*
X179594D01*
X179811Y743643D01*
X181145Y741645D01*
X183143Y740311D01*
X184230Y740094D01*
Y744730D01*
D02*
G37*
G36*
X781750Y758632D02*
X779270Y758306D01*
X776959Y757348D01*
X774975Y755826D01*
X773452Y753841D01*
X772495Y751530D01*
X772168Y749050D01*
X772495Y746570D01*
X773452Y744259D01*
X774975Y742275D01*
X776959Y740752D01*
X779270Y739795D01*
X781750Y739468D01*
X784230Y739795D01*
X786541Y740752D01*
X788525Y742275D01*
X790048Y744259D01*
X791005Y746570D01*
X791332Y749050D01*
X791005Y751530D01*
X790048Y753841D01*
X788525Y755826D01*
X786541Y757348D01*
X784230Y758306D01*
X781750Y758632D01*
D02*
G37*
G36*
X291906Y743730D02*
X287270D01*
Y739094D01*
X288357Y739311D01*
X290355Y740645D01*
X291690Y742643D01*
X291906Y743730D01*
D02*
G37*
G36*
X284730D02*
X280094D01*
X280310Y742643D01*
X281645Y740645D01*
X283643Y739311D01*
X284730Y739094D01*
Y743730D01*
D02*
G37*
G36*
X242656Y742980D02*
X238020D01*
Y738344D01*
X239107Y738560D01*
X241105Y739895D01*
X242439Y741893D01*
X242656Y742980D01*
D02*
G37*
G36*
X235480D02*
X230844D01*
X231060Y741893D01*
X232395Y739895D01*
X234393Y738560D01*
X235480Y738344D01*
Y742980D01*
D02*
G37*
G36*
X516000Y747348D02*
X514049Y746960D01*
X512395Y745855D01*
X511290Y744201D01*
X510902Y742250D01*
X511290Y740299D01*
X512395Y738645D01*
X514049Y737540D01*
X516000Y737152D01*
X517951Y737540D01*
X519605Y738645D01*
X520710Y740299D01*
X521098Y742250D01*
X520710Y744201D01*
X519605Y745855D01*
X517951Y746960D01*
X516000Y747348D01*
D02*
G37*
G36*
X161650Y751863D02*
X159434Y751572D01*
X157368Y750716D01*
X155595Y749355D01*
X154234Y747582D01*
X153379Y745516D01*
X153087Y743300D01*
X153379Y741084D01*
X154234Y739018D01*
X155595Y737245D01*
X157368Y735884D01*
X159434Y735029D01*
X161650Y734737D01*
X163866Y735029D01*
X165932Y735884D01*
X167705Y737245D01*
X169066Y739018D01*
X169921Y741084D01*
X170213Y743300D01*
X169921Y745516D01*
X169066Y747582D01*
X167705Y749355D01*
X165932Y750716D01*
X163866Y751572D01*
X161650Y751863D01*
D02*
G37*
G36*
X357000Y744113D02*
X355049Y743725D01*
X353395Y742619D01*
X352290Y740966D01*
X351902Y739015D01*
X352290Y737064D01*
X353395Y735410D01*
X355049Y734305D01*
X357000Y733917D01*
X358951Y734305D01*
X360605Y735410D01*
X361710Y737064D01*
X362098Y739015D01*
X361710Y740966D01*
X360605Y742619D01*
X358951Y743725D01*
X357000Y744113D01*
D02*
G37*
G36*
X568750Y750678D02*
X566400Y750368D01*
X564211Y749462D01*
X562331Y748019D01*
X560889Y746139D01*
X559982Y743950D01*
X559672Y741600D01*
X559982Y739250D01*
X560889Y737061D01*
X562331Y735181D01*
X564211Y733739D01*
X566400Y732832D01*
X568750Y732522D01*
X571100Y732832D01*
X573289Y733739D01*
X575169Y735181D01*
X576612Y737061D01*
X577518Y739250D01*
X577828Y741600D01*
X577518Y743950D01*
X576612Y746139D01*
X575169Y748019D01*
X573289Y749462D01*
X571100Y750368D01*
X568750Y750678D01*
D02*
G37*
G36*
X529250Y734848D02*
X527299Y734460D01*
X525645Y733355D01*
X524540Y731701D01*
X524152Y729750D01*
X524540Y727799D01*
X525645Y726145D01*
X527299Y725040D01*
X529250Y724652D01*
X531201Y725040D01*
X532855Y726145D01*
X533960Y727799D01*
X534348Y729750D01*
X533960Y731701D01*
X532855Y733355D01*
X531201Y734460D01*
X529250Y734848D01*
D02*
G37*
G36*
X136250Y739163D02*
X134034Y738872D01*
X131968Y738016D01*
X130195Y736655D01*
X128834Y734882D01*
X127979Y732816D01*
X127687Y730600D01*
X127979Y728384D01*
X128834Y726318D01*
X130195Y724545D01*
X131968Y723184D01*
X134034Y722329D01*
X136250Y722037D01*
X138466Y722329D01*
X140532Y723184D01*
X142305Y724545D01*
X143666Y726318D01*
X144522Y728384D01*
X144813Y730600D01*
X144522Y732816D01*
X143666Y734882D01*
X142305Y736655D01*
X140532Y738016D01*
X138466Y738872D01*
X136250Y739163D01*
D02*
G37*
G36*
X162920Y727345D02*
Y719170D01*
X171095D01*
X170935Y720388D01*
X169974Y722706D01*
X168447Y724697D01*
X166456Y726225D01*
X164138Y727185D01*
X162920Y727345D01*
D02*
G37*
G36*
X160380D02*
X159162Y727185D01*
X156844Y726225D01*
X154853Y724697D01*
X153326Y722706D01*
X152365Y720388D01*
X152205Y719170D01*
X160380D01*
Y727345D01*
D02*
G37*
G36*
X781750Y733232D02*
X779270Y732906D01*
X776959Y731948D01*
X774975Y730425D01*
X773452Y728441D01*
X772495Y726130D01*
X772168Y723650D01*
X772495Y721170D01*
X773452Y718859D01*
X774975Y716875D01*
X776959Y715352D01*
X779270Y714395D01*
X781750Y714068D01*
X784230Y714395D01*
X786541Y715352D01*
X788525Y716875D01*
X790048Y718859D01*
X791005Y721170D01*
X791332Y723650D01*
X791005Y726130D01*
X790048Y728441D01*
X788525Y730425D01*
X786541Y731948D01*
X784230Y732906D01*
X781750Y733232D01*
D02*
G37*
G36*
X160380Y716630D02*
X152205D01*
X152365Y715412D01*
X153326Y713094D01*
X154853Y711103D01*
X156844Y709576D01*
X159162Y708615D01*
X160380Y708455D01*
Y716630D01*
D02*
G37*
G36*
X171095D02*
X162920D01*
Y708455D01*
X164138Y708615D01*
X166456Y709576D01*
X168447Y711103D01*
X169974Y713094D01*
X170935Y715412D01*
X171095Y716630D01*
D02*
G37*
G36*
X137520Y714645D02*
Y706470D01*
X145695D01*
X145535Y707688D01*
X144574Y710006D01*
X143047Y711997D01*
X141056Y713524D01*
X138738Y714485D01*
X137520Y714645D01*
D02*
G37*
G36*
X134980D02*
X133762Y714485D01*
X131444Y713524D01*
X129453Y711997D01*
X127926Y710006D01*
X126965Y707688D01*
X126805Y706470D01*
X134980D01*
Y714645D01*
D02*
G37*
G36*
X221500Y713848D02*
X219549Y713460D01*
X217895Y712355D01*
X216790Y710701D01*
X216402Y708750D01*
X216790Y706799D01*
X217895Y705145D01*
X219549Y704040D01*
X221500Y703652D01*
X223451Y704040D01*
X225105Y705145D01*
X226210Y706799D01*
X226598Y708750D01*
X226210Y710701D01*
X225105Y712355D01*
X223451Y713460D01*
X221500Y713848D01*
D02*
G37*
G36*
X189770Y707156D02*
Y702520D01*
X194406D01*
X194190Y703607D01*
X192855Y705605D01*
X190857Y706940D01*
X189770Y707156D01*
D02*
G37*
G36*
X187230D02*
X186143Y706940D01*
X184145Y705605D01*
X182810Y703607D01*
X182594Y702520D01*
X187230D01*
Y707156D01*
D02*
G37*
G36*
X398250Y709098D02*
X396299Y708710D01*
X394645Y707605D01*
X393540Y705951D01*
X393152Y704000D01*
X393540Y702049D01*
X394645Y700395D01*
X396299Y699290D01*
X398250Y698902D01*
X400201Y699290D01*
X401855Y700395D01*
X402960Y702049D01*
X403348Y704000D01*
X402960Y705951D01*
X401855Y707605D01*
X400201Y708710D01*
X398250Y709098D01*
D02*
G37*
G36*
X360000Y706348D02*
X358049Y705960D01*
X356395Y704855D01*
X355290Y703201D01*
X354902Y701250D01*
X355290Y699299D01*
X356395Y697645D01*
X358049Y696540D01*
X360000Y696152D01*
X361951Y696540D01*
X363605Y697645D01*
X364710Y699299D01*
X365098Y701250D01*
X364710Y703201D01*
X363605Y704855D01*
X361951Y705960D01*
X360000Y706348D01*
D02*
G37*
G36*
X134980Y703930D02*
X126805D01*
X126965Y702712D01*
X127926Y700394D01*
X129453Y698403D01*
X131444Y696876D01*
X133762Y695915D01*
X134980Y695755D01*
Y703930D01*
D02*
G37*
G36*
X145695D02*
X137520D01*
Y695755D01*
X138738Y695915D01*
X141056Y696876D01*
X143047Y698403D01*
X144574Y700394D01*
X145535Y702712D01*
X145695Y703930D01*
D02*
G37*
G36*
X513520Y700156D02*
Y695520D01*
X518156D01*
X517940Y696607D01*
X516605Y698605D01*
X514607Y699939D01*
X513520Y700156D01*
D02*
G37*
G36*
X510980D02*
X509893Y699939D01*
X507895Y698605D01*
X506561Y696607D01*
X506344Y695520D01*
X510980D01*
Y700156D01*
D02*
G37*
G36*
X194406Y699980D02*
X189770D01*
Y695344D01*
X190857Y695561D01*
X192855Y696895D01*
X194190Y698893D01*
X194406Y699980D01*
D02*
G37*
G36*
X187230D02*
X182594D01*
X182810Y698893D01*
X184145Y696895D01*
X186143Y695561D01*
X187230Y695344D01*
Y699980D01*
D02*
G37*
G36*
X570020Y700759D02*
Y692070D01*
X578709D01*
X578532Y693421D01*
X577520Y695863D01*
X575911Y697961D01*
X573813Y699570D01*
X571371Y700582D01*
X570020Y700759D01*
D02*
G37*
G36*
X567480Y700760D02*
X566129Y700582D01*
X563687Y699570D01*
X561589Y697961D01*
X559980Y695863D01*
X558969Y693421D01*
X558791Y692070D01*
X567480D01*
Y700760D01*
D02*
G37*
G36*
X781750Y707832D02*
X779270Y707505D01*
X776959Y706548D01*
X774975Y705025D01*
X773452Y703041D01*
X772495Y700730D01*
X772168Y698250D01*
X772495Y695770D01*
X773452Y693459D01*
X774975Y691475D01*
X776959Y689952D01*
X779270Y688995D01*
X781750Y688668D01*
X784230Y688995D01*
X786541Y689952D01*
X788525Y691475D01*
X790048Y693459D01*
X791005Y695770D01*
X791332Y698250D01*
X791005Y700730D01*
X790048Y703041D01*
X788525Y705025D01*
X786541Y706548D01*
X784230Y707505D01*
X781750Y707832D01*
D02*
G37*
G36*
X518156Y692980D02*
X513520D01*
Y688344D01*
X514607Y688560D01*
X516605Y689895D01*
X517940Y691893D01*
X518156Y692980D01*
D02*
G37*
G36*
X510980D02*
X506344D01*
X506561Y691893D01*
X507895Y689895D01*
X509893Y688560D01*
X510980Y688344D01*
Y692980D01*
D02*
G37*
G36*
X161650Y701063D02*
X159434Y700771D01*
X157368Y699916D01*
X155595Y698555D01*
X154234Y696782D01*
X153379Y694716D01*
X153087Y692500D01*
X153379Y690284D01*
X154234Y688218D01*
X155595Y686445D01*
X157368Y685084D01*
X159434Y684229D01*
X161650Y683937D01*
X163866Y684229D01*
X165932Y685084D01*
X167705Y686445D01*
X169066Y688218D01*
X169921Y690284D01*
X170213Y692500D01*
X169921Y694716D01*
X169066Y696782D01*
X167705Y698555D01*
X165932Y699916D01*
X163866Y700771D01*
X161650Y701063D01*
D02*
G37*
G36*
X323020Y686406D02*
Y681770D01*
X327656D01*
X327440Y682857D01*
X326105Y684855D01*
X324107Y686190D01*
X323020Y686406D01*
D02*
G37*
G36*
X578709Y689530D02*
X570020D01*
Y680841D01*
X571371Y681018D01*
X573813Y682030D01*
X575911Y683639D01*
X577520Y685737D01*
X578532Y688179D01*
X578709Y689530D01*
D02*
G37*
G36*
X567480D02*
X558791D01*
X558969Y688179D01*
X559980Y685737D01*
X561589Y683639D01*
X563687Y682030D01*
X566129Y681018D01*
X567480Y680841D01*
Y689530D01*
D02*
G37*
G36*
X642520Y682906D02*
Y678270D01*
X647156D01*
X646939Y679357D01*
X645605Y681355D01*
X643607Y682690D01*
X642520Y682906D01*
D02*
G37*
G36*
X639980D02*
X638893Y682690D01*
X636895Y681355D01*
X635560Y679357D01*
X635344Y678270D01*
X639980D01*
Y682906D01*
D02*
G37*
G36*
X327656Y679230D02*
X323020D01*
Y674594D01*
X324107Y674810D01*
X326105Y676145D01*
X327440Y678143D01*
X327656Y679230D01*
D02*
G37*
G36*
X136250Y688363D02*
X134034Y688072D01*
X131968Y687216D01*
X130195Y685855D01*
X128834Y684082D01*
X127979Y682016D01*
X127687Y679800D01*
X127979Y677584D01*
X128834Y675518D01*
X130195Y673745D01*
X131968Y672384D01*
X134034Y671529D01*
X136250Y671237D01*
X138466Y671529D01*
X140532Y672384D01*
X142305Y673745D01*
X143666Y675518D01*
X144522Y677584D01*
X144813Y679800D01*
X144522Y682016D01*
X143666Y684082D01*
X142305Y685855D01*
X140532Y687216D01*
X138466Y688072D01*
X136250Y688363D01*
D02*
G37*
G36*
X647156Y675730D02*
X642520D01*
Y671094D01*
X643607Y671310D01*
X645605Y672645D01*
X646939Y674643D01*
X647156Y675730D01*
D02*
G37*
G36*
X639980D02*
X635344D01*
X635560Y674643D01*
X636895Y672645D01*
X638893Y671310D01*
X639980Y671094D01*
Y675730D01*
D02*
G37*
G36*
X279750Y680098D02*
X277799Y679710D01*
X276145Y678605D01*
X275040Y676951D01*
X274652Y675000D01*
X275040Y673049D01*
X276145Y671395D01*
X277799Y670290D01*
X279750Y669902D01*
X281701Y670290D01*
X283355Y671395D01*
X284460Y673049D01*
X284848Y675000D01*
X284460Y676951D01*
X283355Y678605D01*
X281701Y679710D01*
X279750Y680098D01*
D02*
G37*
G36*
X708000Y666049D02*
X649500D01*
X648525Y665855D01*
X647698Y665302D01*
X643996Y661600D01*
X642750Y661848D01*
X640799Y661460D01*
X639145Y660355D01*
X638040Y658701D01*
X637652Y656750D01*
X638040Y654799D01*
X639145Y653145D01*
X640799Y652040D01*
X642750Y651652D01*
X644701Y652040D01*
X646355Y653145D01*
X647460Y654799D01*
X647848Y656750D01*
X647600Y657996D01*
X650556Y660951D01*
X686195D01*
X686794Y659831D01*
X686540Y659451D01*
X686152Y657500D01*
X686540Y655549D01*
X687645Y653895D01*
X689076Y652939D01*
Y641060D01*
X688395Y640605D01*
X687290Y638951D01*
X686902Y637000D01*
X687290Y635049D01*
X688395Y633395D01*
X690049Y632290D01*
X692000Y631902D01*
X693951Y632290D01*
X695605Y633395D01*
X696710Y635049D01*
X697098Y637000D01*
X696710Y638951D01*
X695605Y640605D01*
X694174Y641561D01*
Y653440D01*
X694855Y653895D01*
X695960Y655549D01*
X696348Y657500D01*
X695960Y659451D01*
X695706Y659831D01*
X696305Y660951D01*
X706944D01*
X710650Y657245D01*
X710402Y656000D01*
X710790Y654049D01*
X711895Y652395D01*
X713549Y651290D01*
X715500Y650902D01*
X717451Y651290D01*
X719105Y652395D01*
X720210Y654049D01*
X720598Y656000D01*
X720210Y657951D01*
X719105Y659605D01*
X717451Y660710D01*
X715500Y661098D01*
X714255Y660850D01*
X709802Y665302D01*
X708975Y665855D01*
X708000Y666049D01*
D02*
G37*
G36*
X23750Y679879D02*
X21361Y679565D01*
X19136Y678643D01*
X17224Y677176D01*
X15757Y675265D01*
X14836Y673039D01*
X14521Y670650D01*
X14836Y668261D01*
X15757Y666036D01*
X17224Y664124D01*
X19136Y662657D01*
X21361Y661736D01*
X23750Y661421D01*
X26139Y661736D01*
X28365Y662657D01*
X30276Y664124D01*
X31742Y666036D01*
X32664Y668261D01*
X32979Y670650D01*
X32664Y673039D01*
X31742Y675265D01*
X30276Y677176D01*
X28365Y678643D01*
X26139Y679565D01*
X23750Y679879D01*
D02*
G37*
G36*
X161650Y675663D02*
X159434Y675371D01*
X157368Y674516D01*
X155595Y673155D01*
X154234Y671382D01*
X153379Y669316D01*
X153087Y667100D01*
X153379Y664884D01*
X154234Y662818D01*
X155595Y661045D01*
X157368Y659684D01*
X159434Y658829D01*
X161650Y658537D01*
X163866Y658829D01*
X165932Y659684D01*
X167705Y661045D01*
X169066Y662818D01*
X169921Y664884D01*
X170213Y667100D01*
X169921Y669316D01*
X169066Y671382D01*
X167705Y673155D01*
X165932Y674516D01*
X163866Y675371D01*
X161650Y675663D01*
D02*
G37*
G36*
X277750Y667848D02*
X275799Y667460D01*
X274145Y666355D01*
X273040Y664701D01*
X272652Y662750D01*
X273040Y660799D01*
X274145Y659145D01*
X274516Y658897D01*
X274248Y657549D01*
X273799Y657460D01*
X272145Y656355D01*
X271040Y654701D01*
X270652Y652750D01*
X271040Y650799D01*
X272145Y649145D01*
X273799Y648040D01*
X275750Y647652D01*
X277701Y648040D01*
X279355Y649145D01*
X280460Y650799D01*
X280848Y652750D01*
X280460Y654701D01*
X279355Y656355D01*
X278984Y656603D01*
X279252Y657951D01*
X279701Y658040D01*
X281355Y659145D01*
X282460Y660799D01*
X282848Y662750D01*
X282460Y664701D01*
X281355Y666355D01*
X279701Y667460D01*
X277750Y667848D01*
D02*
G37*
G36*
X25020Y655361D02*
Y646520D01*
X33861D01*
X33678Y647910D01*
X32651Y650389D01*
X31018Y652518D01*
X28889Y654151D01*
X26410Y655178D01*
X25020Y655361D01*
D02*
G37*
G36*
X22480D02*
X21090Y655178D01*
X18611Y654151D01*
X16482Y652518D01*
X14849Y650389D01*
X13822Y647910D01*
X13639Y646520D01*
X22480D01*
Y655361D01*
D02*
G37*
G36*
X781750Y657032D02*
X779270Y656705D01*
X776959Y655748D01*
X774975Y654225D01*
X773452Y652241D01*
X772495Y649930D01*
X772168Y647450D01*
X772495Y644970D01*
X773452Y642659D01*
X774975Y640675D01*
X776959Y639152D01*
X779270Y638195D01*
X781750Y637868D01*
X784230Y638195D01*
X786541Y639152D01*
X788525Y640675D01*
X790048Y642659D01*
X791005Y644970D01*
X791332Y647450D01*
X791005Y649930D01*
X790048Y652241D01*
X788525Y654225D01*
X786541Y655748D01*
X784230Y656705D01*
X781750Y657032D01*
D02*
G37*
G36*
X72750Y672186D02*
X69270Y671843D01*
X65925Y670828D01*
X62841Y669180D01*
X60138Y666962D01*
X57920Y664259D01*
X56272Y661176D01*
X55257Y657830D01*
X54914Y654350D01*
X55257Y650870D01*
X56272Y647524D01*
X57920Y644441D01*
X60138Y641738D01*
X62841Y639520D01*
X65925Y637872D01*
X69270Y636857D01*
X72750Y636514D01*
X76230Y636857D01*
X79576Y637872D01*
X82659Y639520D01*
X85362Y641738D01*
X87580Y644441D01*
X89228Y647524D01*
X90243Y650870D01*
X90586Y654350D01*
X90243Y657830D01*
X89228Y661176D01*
X87580Y664259D01*
X85362Y666962D01*
X82659Y669180D01*
X79576Y670828D01*
X76230Y671843D01*
X72750Y672186D01*
D02*
G37*
G36*
X33861Y643980D02*
X25020D01*
Y635139D01*
X26410Y635322D01*
X28889Y636349D01*
X31018Y637982D01*
X32651Y640111D01*
X33678Y642590D01*
X33861Y643980D01*
D02*
G37*
G36*
X22480D02*
X13639D01*
X13822Y642590D01*
X14849Y640111D01*
X16482Y637982D01*
X18611Y636349D01*
X21090Y635322D01*
X22480Y635139D01*
Y643980D01*
D02*
G37*
G36*
X208770Y636906D02*
Y632270D01*
X213406D01*
X213190Y633357D01*
X211855Y635355D01*
X209857Y636690D01*
X208770Y636906D01*
D02*
G37*
G36*
X206230D02*
X205143Y636690D01*
X203145Y635355D01*
X201810Y633357D01*
X201594Y632270D01*
X206230D01*
Y636906D01*
D02*
G37*
G36*
X729770Y636406D02*
Y631770D01*
X734406D01*
X734190Y632857D01*
X732855Y634855D01*
X730857Y636190D01*
X729770Y636406D01*
D02*
G37*
G36*
X727230D02*
X726143Y636190D01*
X724145Y634855D01*
X722810Y632857D01*
X722594Y631770D01*
X727230D01*
Y636406D01*
D02*
G37*
G36*
X614270Y634656D02*
Y630020D01*
X618906D01*
X618689Y631107D01*
X617355Y633105D01*
X615357Y634440D01*
X614270Y634656D01*
D02*
G37*
G36*
X611730D02*
X610643Y634440D01*
X608645Y633105D01*
X607310Y631107D01*
X607094Y630020D01*
X611730D01*
Y634656D01*
D02*
G37*
G36*
X213406Y629730D02*
X208770D01*
Y625094D01*
X209857Y625311D01*
X211855Y626645D01*
X213190Y628643D01*
X213406Y629730D01*
D02*
G37*
G36*
X206230D02*
X201594D01*
X201810Y628643D01*
X203145Y626645D01*
X205143Y625311D01*
X206230Y625094D01*
Y629730D01*
D02*
G37*
G36*
X734406Y629230D02*
X729770D01*
Y624594D01*
X730857Y624810D01*
X732855Y626145D01*
X734190Y628143D01*
X734406Y629230D01*
D02*
G37*
G36*
X727230D02*
X722594D01*
X722810Y628143D01*
X724145Y626145D01*
X726143Y624810D01*
X727230Y624594D01*
Y629230D01*
D02*
G37*
G36*
X618906Y627480D02*
X614270D01*
Y622844D01*
X615357Y623060D01*
X617355Y624395D01*
X618689Y626393D01*
X618906Y627480D01*
D02*
G37*
G36*
X611730D02*
X607094D01*
X607310Y626393D01*
X608645Y624395D01*
X610643Y623060D01*
X611730Y622844D01*
Y627480D01*
D02*
G37*
G36*
X103250Y647893D02*
X99667Y647422D01*
X96328Y646039D01*
X93461Y643839D01*
X91261Y640972D01*
X89878Y637633D01*
X89407Y634050D01*
X89878Y630467D01*
X91261Y627128D01*
X93461Y624261D01*
X96328Y622061D01*
X99667Y620678D01*
X103250Y620207D01*
X106833Y620678D01*
X110172Y622061D01*
X113039Y624261D01*
X115239Y627128D01*
X116622Y630467D01*
X117093Y634050D01*
X116622Y637633D01*
X115239Y640972D01*
X113039Y643839D01*
X110172Y646039D01*
X106833Y647422D01*
X103250Y647893D01*
D02*
G37*
G36*
X791250Y631550D02*
X772250D01*
Y612550D01*
X791250D01*
Y631550D01*
D02*
G37*
G36*
X580250Y606598D02*
X578299Y606210D01*
X576645Y605105D01*
X575540Y603451D01*
X575152Y601500D01*
X575368Y600415D01*
X574502Y599549D01*
X526560D01*
X525855Y600605D01*
X524201Y601710D01*
X522250Y602098D01*
X520299Y601710D01*
X518645Y600605D01*
X517540Y598951D01*
X517152Y597000D01*
X517540Y595049D01*
X518645Y593395D01*
X520299Y592290D01*
X522250Y591902D01*
X524201Y592290D01*
X525855Y593395D01*
X526560Y594451D01*
X575558D01*
X576533Y594645D01*
X577360Y595198D01*
X578844Y596682D01*
X580250Y596402D01*
X582201Y596790D01*
X583855Y597895D01*
X584960Y599549D01*
X585348Y601500D01*
X584960Y603451D01*
X583855Y605105D01*
X582201Y606210D01*
X580250Y606598D01*
D02*
G37*
G36*
X648290Y597290D02*
X640020D01*
Y589020D01*
X648290D01*
Y597290D01*
D02*
G37*
G36*
X637480D02*
X629210D01*
Y589020D01*
X637480D01*
Y597290D01*
D02*
G37*
G36*
X723750Y582098D02*
X721799Y581710D01*
X720145Y580605D01*
X719780Y580059D01*
X707250D01*
X707250Y580059D01*
X706079Y579826D01*
X705087Y579163D01*
X628587Y502663D01*
X627924Y501670D01*
X627691Y500500D01*
X627691Y500500D01*
Y426720D01*
X627145Y426355D01*
X626040Y424701D01*
X625652Y422750D01*
X626040Y420799D01*
X627145Y419145D01*
X628799Y418040D01*
X630750Y417652D01*
X632701Y418040D01*
X634355Y419145D01*
X635460Y420799D01*
X635848Y422750D01*
X635460Y424701D01*
X634355Y426355D01*
X633809Y426720D01*
Y499233D01*
X708517Y573941D01*
X719780D01*
X720145Y573395D01*
X721799Y572290D01*
X723750Y571902D01*
X725701Y572290D01*
X727355Y573395D01*
X728460Y575049D01*
X728848Y577000D01*
X728460Y578951D01*
X727355Y580605D01*
X725701Y581710D01*
X723750Y582098D01*
D02*
G37*
G36*
X688750Y596323D02*
X686531Y596031D01*
X684463Y595175D01*
X682688Y593812D01*
X681325Y592037D01*
X680469Y589969D01*
X680177Y587750D01*
X680469Y585531D01*
X681325Y583463D01*
X682688Y581688D01*
X684463Y580325D01*
X686531Y579469D01*
X688750Y579177D01*
X690969Y579469D01*
X693037Y580325D01*
X694812Y581688D01*
X696175Y583463D01*
X697031Y585531D01*
X697323Y587750D01*
X697031Y589969D01*
X696175Y592037D01*
X694812Y593812D01*
X693037Y595175D01*
X690969Y596031D01*
X688750Y596323D01*
D02*
G37*
G36*
X648290Y586480D02*
X640020D01*
Y578210D01*
X648290D01*
Y586480D01*
D02*
G37*
G36*
X637480D02*
X629210D01*
Y578210D01*
X637480D01*
Y586480D01*
D02*
G37*
G36*
X303980Y561906D02*
X302893Y561690D01*
X300895Y560355D01*
X299561Y558357D01*
X299344Y557270D01*
X303980D01*
Y561906D01*
D02*
G37*
G36*
Y554730D02*
X299344D01*
X299561Y553643D01*
X300895Y551645D01*
X302893Y550311D01*
X303980Y550094D01*
Y554730D01*
D02*
G37*
G36*
X328750Y558598D02*
X326799Y558210D01*
X325145Y557105D01*
X324040Y555451D01*
X323652Y553500D01*
X324040Y551549D01*
X325145Y549895D01*
X326799Y548790D01*
X328750Y548402D01*
X330701Y548790D01*
X332355Y549895D01*
X333460Y551549D01*
X333848Y553500D01*
X333460Y555451D01*
X332355Y557105D01*
X330701Y558210D01*
X328750Y558598D01*
D02*
G37*
G36*
X59000Y572354D02*
X55867Y571941D01*
X52948Y570732D01*
X50441Y568809D01*
X48518Y566302D01*
X47309Y563383D01*
X46897Y560250D01*
X47309Y557117D01*
X48518Y554198D01*
X50441Y551692D01*
X52948Y549768D01*
X55867Y548559D01*
X59000Y548147D01*
X62133Y548559D01*
X65052Y549768D01*
X67558Y551692D01*
X69482Y554198D01*
X70691Y557117D01*
X71104Y560250D01*
X70691Y563383D01*
X69482Y566302D01*
X67558Y568809D01*
X65052Y570732D01*
X62133Y571941D01*
X59000Y572354D01*
D02*
G37*
G36*
X266104Y551374D02*
X252896D01*
X250780Y551095D01*
X248809Y550279D01*
X247116Y548980D01*
X245817Y547287D01*
X245001Y545316D01*
X244722Y543200D01*
X245001Y541084D01*
X245817Y539113D01*
X247116Y537420D01*
X248809Y536121D01*
X250780Y535305D01*
X252896Y535026D01*
X266104D01*
X268220Y535305D01*
X270191Y536121D01*
X271884Y537420D01*
X273183Y539113D01*
X273999Y541084D01*
X274278Y543200D01*
X273999Y545316D01*
X273183Y547287D01*
X271884Y548980D01*
X270191Y550279D01*
X268220Y551095D01*
X266104Y551374D01*
D02*
G37*
G36*
X189904D02*
X176696D01*
X174580Y551095D01*
X172609Y550279D01*
X170916Y548980D01*
X169617Y547287D01*
X168801Y545316D01*
X168522Y543200D01*
X168801Y541084D01*
X169617Y539113D01*
X170916Y537420D01*
X172609Y536121D01*
X174580Y535305D01*
X176696Y535026D01*
X189904D01*
X192020Y535305D01*
X193991Y536121D01*
X195684Y537420D01*
X196983Y539113D01*
X197799Y541084D01*
X198078Y543200D01*
X197799Y545316D01*
X196983Y547287D01*
X195684Y548980D01*
X193991Y550279D01*
X192020Y551095D01*
X189904Y551374D01*
D02*
G37*
G36*
X490270Y532906D02*
Y528270D01*
X494906D01*
X494690Y529357D01*
X493355Y531355D01*
X491357Y532690D01*
X490270Y532906D01*
D02*
G37*
G36*
X487730D02*
X486643Y532690D01*
X484645Y531355D01*
X483311Y529357D01*
X483094Y528270D01*
X487730D01*
Y532906D01*
D02*
G37*
G36*
X494906Y525730D02*
X490270D01*
Y521094D01*
X491357Y521310D01*
X493355Y522645D01*
X494690Y524643D01*
X494906Y525730D01*
D02*
G37*
G36*
X487730D02*
X483094D01*
X483311Y524643D01*
X484645Y522645D01*
X486643Y521310D01*
X487730Y521094D01*
Y525730D01*
D02*
G37*
G36*
X274208Y525904D02*
X244792D01*
Y509696D01*
X274208D01*
Y525904D01*
D02*
G37*
G36*
X189904Y525974D02*
X176696D01*
X174580Y525695D01*
X172609Y524879D01*
X170916Y523580D01*
X169617Y521887D01*
X168801Y519916D01*
X168522Y517800D01*
X168801Y515684D01*
X169617Y513713D01*
X170916Y512020D01*
X172609Y510721D01*
X174580Y509905D01*
X176696Y509626D01*
X189904D01*
X192020Y509905D01*
X193991Y510721D01*
X195684Y512020D01*
X196983Y513713D01*
X197799Y515684D01*
X198078Y517800D01*
X197799Y519916D01*
X196983Y521887D01*
X195684Y523580D01*
X193991Y524879D01*
X192020Y525695D01*
X189904Y525974D01*
D02*
G37*
G36*
X802750Y520000D02*
X785750D01*
Y503000D01*
X802750D01*
Y520000D01*
D02*
G37*
G36*
X744250Y520073D02*
X742031Y519781D01*
X739963Y518925D01*
X738188Y517562D01*
X736825Y515787D01*
X735969Y513719D01*
X735677Y511500D01*
X735969Y509281D01*
X736825Y507213D01*
X738188Y505438D01*
X739963Y504075D01*
X742031Y503219D01*
X744250Y502927D01*
X746469Y503219D01*
X748537Y504075D01*
X750312Y505438D01*
X751675Y507213D01*
X752531Y509281D01*
X752823Y511500D01*
X752531Y513719D01*
X751675Y515787D01*
X750312Y517562D01*
X748537Y518925D01*
X746469Y519781D01*
X744250Y520073D01*
D02*
G37*
G36*
X59000Y522354D02*
X55867Y521941D01*
X52948Y520732D01*
X50441Y518809D01*
X48518Y516302D01*
X47309Y513383D01*
X46897Y510250D01*
X47309Y507117D01*
X48518Y504198D01*
X50441Y501692D01*
X52948Y499768D01*
X55867Y498559D01*
X59000Y498147D01*
X62133Y498559D01*
X65052Y499768D01*
X67558Y501692D01*
X69482Y504198D01*
X70691Y507117D01*
X71104Y510250D01*
X70691Y513383D01*
X69482Y516302D01*
X67558Y518809D01*
X65052Y520732D01*
X62133Y521941D01*
X59000Y522354D01*
D02*
G37*
G36*
X689120Y510249D02*
X673880D01*
X671499Y509935D01*
X669281Y509016D01*
X667376Y507555D01*
X665914Y505649D01*
X664995Y503431D01*
X664681Y501050D01*
X664995Y498669D01*
X665914Y496451D01*
X667376Y494546D01*
X669281Y493084D01*
X671499Y492165D01*
X673880Y491851D01*
X689120D01*
X691501Y492165D01*
X693719Y493084D01*
X695624Y494546D01*
X697086Y496451D01*
X698005Y498669D01*
X698319Y501050D01*
X698005Y503431D01*
X697086Y505649D01*
X695624Y507555D01*
X693719Y509016D01*
X691501Y509935D01*
X689120Y510249D01*
D02*
G37*
G36*
Y485898D02*
X683500D01*
Y477650D01*
X699104D01*
X699018Y478302D01*
X697995Y480774D01*
X696366Y482896D01*
X694244Y484525D01*
X691772Y485549D01*
X689120Y485898D01*
D02*
G37*
G36*
X679500D02*
X673880D01*
X671228Y485549D01*
X668756Y484525D01*
X666634Y482896D01*
X665005Y480774D01*
X663981Y478302D01*
X663896Y477650D01*
X679500D01*
Y485898D01*
D02*
G37*
G36*
X266104Y489124D02*
X252896D01*
X250780Y488845D01*
X248809Y488029D01*
X247116Y486730D01*
X245817Y485037D01*
X245001Y483066D01*
X244722Y480950D01*
X245001Y478834D01*
X245817Y476863D01*
X247116Y475170D01*
X248809Y473871D01*
X250780Y473055D01*
X252896Y472776D01*
X266104D01*
X268220Y473055D01*
X270191Y473871D01*
X271884Y475170D01*
X273183Y476863D01*
X273999Y478834D01*
X274278Y480950D01*
X273999Y483066D01*
X273183Y485037D01*
X271884Y486730D01*
X270191Y488029D01*
X268220Y488845D01*
X266104Y489124D01*
D02*
G37*
G36*
X189904D02*
X176696D01*
X174580Y488845D01*
X172609Y488029D01*
X170916Y486730D01*
X169617Y485037D01*
X168801Y483066D01*
X168522Y480950D01*
X168801Y478834D01*
X169617Y476863D01*
X170916Y475170D01*
X172609Y473871D01*
X174580Y473055D01*
X176696Y472776D01*
X189904D01*
X192020Y473055D01*
X193991Y473871D01*
X195684Y475170D01*
X196983Y476863D01*
X197799Y478834D01*
X198078Y480950D01*
X197799Y483066D01*
X196983Y485037D01*
X195684Y486730D01*
X193991Y488029D01*
X192020Y488845D01*
X189904Y489124D01*
D02*
G37*
G36*
X699104Y473650D02*
X683500D01*
Y465402D01*
X689120D01*
X691772Y465751D01*
X694244Y466775D01*
X696366Y468404D01*
X697995Y470526D01*
X699018Y472998D01*
X699104Y473650D01*
D02*
G37*
G36*
X679500D02*
X663896D01*
X663981Y472998D01*
X665005Y470526D01*
X666634Y468404D01*
X668756Y466775D01*
X671228Y465751D01*
X673880Y465402D01*
X679500D01*
Y473650D01*
D02*
G37*
G36*
X499000Y493109D02*
X495594Y492774D01*
X492319Y491780D01*
X489300Y490167D01*
X486655Y487995D01*
X484483Y485350D01*
X482870Y482331D01*
X481876Y479056D01*
X481541Y475650D01*
X481876Y472244D01*
X482870Y468969D01*
X484483Y465950D01*
X486655Y463305D01*
X489300Y461133D01*
X492319Y459520D01*
X495594Y458526D01*
X499000Y458191D01*
X502406Y458526D01*
X505681Y459520D01*
X508700Y461133D01*
X511345Y463305D01*
X513517Y465950D01*
X515130Y468969D01*
X516124Y472244D01*
X516459Y475650D01*
X516124Y479056D01*
X515130Y482331D01*
X513517Y485350D01*
X511345Y487995D01*
X508700Y490167D01*
X505681Y491780D01*
X502406Y492774D01*
X499000Y493109D01*
D02*
G37*
G36*
X410270Y461406D02*
Y456770D01*
X414906D01*
X414689Y457857D01*
X413355Y459855D01*
X411357Y461190D01*
X410270Y461406D01*
D02*
G37*
G36*
X407730D02*
X406643Y461190D01*
X404645Y459855D01*
X403310Y457857D01*
X403094Y456770D01*
X407730D01*
Y461406D01*
D02*
G37*
G36*
X414906Y454230D02*
X410270D01*
Y449594D01*
X411357Y449810D01*
X413355Y451145D01*
X414689Y453143D01*
X414906Y454230D01*
D02*
G37*
G36*
X407730D02*
X403094D01*
X403310Y453143D01*
X404645Y451145D01*
X406643Y449810D01*
X407730Y449594D01*
Y454230D01*
D02*
G37*
G36*
X59000Y472354D02*
X55867Y471941D01*
X52948Y470732D01*
X50441Y468809D01*
X48518Y466302D01*
X47309Y463383D01*
X46897Y460250D01*
X47309Y457117D01*
X48518Y454198D01*
X50441Y451692D01*
X52948Y449768D01*
X55867Y448559D01*
X59000Y448147D01*
X62133Y448559D01*
X65052Y449768D01*
X67558Y451692D01*
X69482Y454198D01*
X70691Y457117D01*
X71104Y460250D01*
X70691Y463383D01*
X69482Y466302D01*
X67558Y468809D01*
X65052Y470732D01*
X62133Y471941D01*
X59000Y472354D01*
D02*
G37*
G36*
X274208Y463654D02*
X244792D01*
Y447446D01*
X274208D01*
Y463654D01*
D02*
G37*
G36*
X189904Y463724D02*
X176696D01*
X174580Y463445D01*
X172609Y462629D01*
X170916Y461330D01*
X169617Y459637D01*
X168801Y457666D01*
X168522Y455550D01*
X168801Y453434D01*
X169617Y451463D01*
X170916Y449770D01*
X172609Y448471D01*
X174580Y447655D01*
X176696Y447376D01*
X189904D01*
X192020Y447655D01*
X193991Y448471D01*
X195684Y449770D01*
X196983Y451463D01*
X197799Y453434D01*
X198078Y455550D01*
X197799Y457666D01*
X196983Y459637D01*
X195684Y461330D01*
X193991Y462629D01*
X192020Y463445D01*
X189904Y463724D01*
D02*
G37*
G36*
X698240Y459370D02*
X664760D01*
Y441130D01*
X698240D01*
Y459370D01*
D02*
G37*
G36*
X266104Y431624D02*
X252896D01*
X250780Y431345D01*
X248809Y430529D01*
X247116Y429230D01*
X245817Y427537D01*
X245001Y425566D01*
X244722Y423450D01*
X245001Y421334D01*
X245817Y419363D01*
X247116Y417670D01*
X248809Y416371D01*
X250780Y415555D01*
X252896Y415276D01*
X266104D01*
X268220Y415555D01*
X270191Y416371D01*
X271884Y417670D01*
X273183Y419363D01*
X273999Y421334D01*
X274278Y423450D01*
X273999Y425566D01*
X273183Y427537D01*
X271884Y429230D01*
X270191Y430529D01*
X268220Y431345D01*
X266104Y431624D01*
D02*
G37*
G36*
X189904D02*
X176696D01*
X174580Y431345D01*
X172609Y430529D01*
X170916Y429230D01*
X169617Y427537D01*
X168801Y425566D01*
X168522Y423450D01*
X168801Y421334D01*
X169617Y419363D01*
X170916Y417670D01*
X172609Y416371D01*
X174580Y415555D01*
X176696Y415276D01*
X189904D01*
X192020Y415555D01*
X193991Y416371D01*
X195684Y417670D01*
X196983Y419363D01*
X197799Y421334D01*
X198078Y423450D01*
X197799Y425566D01*
X196983Y427537D01*
X195684Y429230D01*
X193991Y430529D01*
X192020Y431345D01*
X189904Y431624D01*
D02*
G37*
G36*
X59000Y422354D02*
X55867Y421941D01*
X52948Y420732D01*
X50441Y418809D01*
X48518Y416302D01*
X47309Y413383D01*
X46897Y410250D01*
X47309Y407117D01*
X48518Y404198D01*
X50441Y401692D01*
X52948Y399768D01*
X55867Y398559D01*
X59000Y398147D01*
X62133Y398559D01*
X65052Y399768D01*
X67558Y401692D01*
X69482Y404198D01*
X70691Y407117D01*
X71104Y410250D01*
X70691Y413383D01*
X69482Y416302D01*
X67558Y418809D01*
X65052Y420732D01*
X62133Y421941D01*
X59000Y422354D01*
D02*
G37*
G36*
X274208Y406154D02*
X244792D01*
Y389946D01*
X274208D01*
Y406154D01*
D02*
G37*
G36*
X189904Y406224D02*
X176696D01*
X174580Y405945D01*
X172609Y405129D01*
X170916Y403830D01*
X169617Y402137D01*
X168801Y400166D01*
X168522Y398050D01*
X168801Y395934D01*
X169617Y393963D01*
X170916Y392270D01*
X172609Y390971D01*
X174580Y390155D01*
X176696Y389876D01*
X189904D01*
X192020Y390155D01*
X193991Y390971D01*
X195684Y392270D01*
X196983Y393963D01*
X197799Y395934D01*
X198078Y398050D01*
X197799Y400166D01*
X196983Y402137D01*
X195684Y403830D01*
X193991Y405129D01*
X192020Y405945D01*
X189904Y406224D01*
D02*
G37*
G36*
X266104Y370074D02*
X252896D01*
X250780Y369795D01*
X248809Y368979D01*
X247116Y367680D01*
X245817Y365987D01*
X245001Y364016D01*
X244722Y361900D01*
X245001Y359784D01*
X245817Y357813D01*
X247116Y356120D01*
X248809Y354821D01*
X250780Y354005D01*
X252896Y353726D01*
X266104D01*
X268220Y354005D01*
X270191Y354821D01*
X271884Y356120D01*
X273183Y357813D01*
X273999Y359784D01*
X274278Y361900D01*
X273999Y364016D01*
X273183Y365987D01*
X271884Y367680D01*
X270191Y368979D01*
X268220Y369795D01*
X266104Y370074D01*
D02*
G37*
G36*
X189904D02*
X176696D01*
X174580Y369795D01*
X172609Y368979D01*
X170916Y367680D01*
X169617Y365987D01*
X168801Y364016D01*
X168522Y361900D01*
X168801Y359784D01*
X169617Y357813D01*
X170916Y356120D01*
X172609Y354821D01*
X174580Y354005D01*
X176696Y353726D01*
X189904D01*
X192020Y354005D01*
X193991Y354821D01*
X195684Y356120D01*
X196983Y357813D01*
X197799Y359784D01*
X198078Y361900D01*
X197799Y364016D01*
X196983Y365987D01*
X195684Y367680D01*
X193991Y368979D01*
X192020Y369795D01*
X189904Y370074D01*
D02*
G37*
G36*
X59000Y372354D02*
X55867Y371941D01*
X52948Y370732D01*
X50441Y368809D01*
X48518Y366302D01*
X47309Y363383D01*
X46897Y360250D01*
X47309Y357117D01*
X48518Y354198D01*
X50441Y351692D01*
X52948Y349768D01*
X55867Y348559D01*
X59000Y348147D01*
X62133Y348559D01*
X65052Y349768D01*
X67558Y351692D01*
X69482Y354198D01*
X70691Y357117D01*
X71104Y360250D01*
X70691Y363383D01*
X69482Y366302D01*
X67558Y368809D01*
X65052Y370732D01*
X62133Y371941D01*
X59000Y372354D01*
D02*
G37*
G36*
X189904Y344674D02*
X176696D01*
X174580Y344395D01*
X172609Y343579D01*
X170916Y342280D01*
X169617Y340587D01*
X168801Y338616D01*
X168522Y336500D01*
X168801Y334384D01*
X169617Y332413D01*
X170916Y330720D01*
X172609Y329421D01*
X174580Y328605D01*
X176696Y328326D01*
X189904D01*
X192020Y328605D01*
X193991Y329421D01*
X195684Y330720D01*
X196983Y332413D01*
X197799Y334384D01*
X198078Y336500D01*
X197799Y338616D01*
X196983Y340587D01*
X195684Y342280D01*
X193991Y343579D01*
X192020Y344395D01*
X189904Y344674D01*
D02*
G37*
G36*
X378750Y383348D02*
X376799Y382960D01*
X375145Y381855D01*
X374040Y380201D01*
X373652Y378250D01*
X374040Y376299D01*
X375145Y374645D01*
X376799Y373540D01*
X378750Y373152D01*
X380701Y373540D01*
X381501Y374075D01*
X382647Y374086D01*
X434922Y321811D01*
Y319620D01*
X433652Y319240D01*
X432201Y320210D01*
X430250Y320598D01*
X428299Y320210D01*
X427354Y319578D01*
X372500D01*
X370939Y319268D01*
X369616Y318384D01*
X369616Y318384D01*
X269414Y218182D01*
X268299Y217960D01*
X266645Y216855D01*
X265540Y215201D01*
X265152Y213250D01*
X265540Y211299D01*
X266645Y209645D01*
X268299Y208540D01*
X270250Y208152D01*
X272201Y208540D01*
X273855Y209645D01*
X274960Y211299D01*
X275182Y212414D01*
X374189Y311422D01*
X427354D01*
X428299Y310790D01*
X430250Y310402D01*
X432201Y310790D01*
X433652Y311759D01*
X434922Y311380D01*
Y282939D01*
X419116Y267134D01*
X418232Y265811D01*
X417922Y264250D01*
X417922Y264250D01*
Y207146D01*
X417290Y206201D01*
X416902Y204250D01*
X417290Y202299D01*
X418395Y200645D01*
X420049Y199540D01*
X422000Y199152D01*
X423951Y199540D01*
X425605Y200645D01*
X426710Y202299D01*
X427098Y204250D01*
X426710Y206201D01*
X426078Y207146D01*
Y262561D01*
X441884Y278366D01*
X441884Y278366D01*
X442768Y279689D01*
X443078Y281250D01*
X443078Y281250D01*
Y323500D01*
X443078Y323500D01*
X442768Y325061D01*
X441884Y326384D01*
X387162Y381106D01*
X385839Y381990D01*
X384278Y382300D01*
X384278Y382300D01*
X384152D01*
X384047Y382345D01*
X384041Y382343D01*
X384036Y382345D01*
X381944Y382356D01*
X381589Y382366D01*
X380701Y382960D01*
X378750Y383348D01*
D02*
G37*
G36*
X122750Y523848D02*
X120799Y523460D01*
X119145Y522355D01*
X118040Y520701D01*
X117652Y518750D01*
X118040Y516799D01*
X118797Y515667D01*
Y457959D01*
X118290Y457201D01*
X117902Y455250D01*
X118290Y453299D01*
X119047Y452167D01*
Y399959D01*
X118540Y399201D01*
X118318Y398086D01*
X112116Y391884D01*
X111232Y390561D01*
X110922Y389000D01*
X110922Y389000D01*
Y329439D01*
X95811Y314328D01*
X71000D01*
Y322250D01*
X47000D01*
Y298250D01*
X71000D01*
Y306172D01*
X97500D01*
X97500Y306172D01*
X99061Y306482D01*
X100384Y307366D01*
X117884Y324866D01*
X117884Y324866D01*
X118768Y326189D01*
X119078Y327750D01*
X119078Y327750D01*
Y387311D01*
X124086Y392318D01*
X125201Y392540D01*
X126855Y393645D01*
X127960Y395299D01*
X128348Y397250D01*
X127960Y399201D01*
X127203Y400333D01*
Y452541D01*
X127710Y453299D01*
X128098Y455250D01*
X127710Y457201D01*
X126953Y458333D01*
Y516041D01*
X127460Y516799D01*
X127848Y518750D01*
X127460Y520701D01*
X126355Y522355D01*
X124701Y523460D01*
X122750Y523848D01*
D02*
G37*
G36*
X325750Y290098D02*
X323799Y289710D01*
X322145Y288605D01*
X321040Y286951D01*
X320652Y285000D01*
X321040Y283049D01*
X322145Y281395D01*
X323799Y280290D01*
X325750Y279902D01*
X327701Y280290D01*
X329355Y281395D01*
X330460Y283049D01*
X330848Y285000D01*
X330460Y286951D01*
X329355Y288605D01*
X327701Y289710D01*
X325750Y290098D01*
D02*
G37*
G36*
X364250Y284598D02*
X362299Y284210D01*
X360645Y283105D01*
X359540Y281451D01*
X359152Y279500D01*
X359540Y277549D01*
X360645Y275895D01*
X362299Y274790D01*
X364250Y274402D01*
X366201Y274790D01*
X367855Y275895D01*
X368960Y277549D01*
X369348Y279500D01*
X368960Y281451D01*
X367855Y283105D01*
X366201Y284210D01*
X364250Y284598D01*
D02*
G37*
G36*
X567454Y286874D02*
X554246D01*
X552130Y286595D01*
X550159Y285779D01*
X548466Y284480D01*
X547167Y282787D01*
X546351Y280816D01*
X546072Y278700D01*
X546351Y276584D01*
X547167Y274613D01*
X548466Y272920D01*
X550159Y271621D01*
X552130Y270805D01*
X554246Y270526D01*
X567454D01*
X569570Y270805D01*
X571541Y271621D01*
X573234Y272920D01*
X574533Y274613D01*
X575349Y276584D01*
X575628Y278700D01*
X575349Y280816D01*
X574533Y282787D01*
X573234Y284480D01*
X571541Y285779D01*
X569570Y286595D01*
X567454Y286874D01*
D02*
G37*
G36*
X252000Y275848D02*
X250049Y275460D01*
X248395Y274355D01*
X247290Y272701D01*
X246902Y270750D01*
X247290Y268799D01*
X248395Y267145D01*
X250049Y266040D01*
X252000Y265652D01*
X253951Y266040D01*
X255605Y267145D01*
X256710Y268799D01*
X257098Y270750D01*
X256710Y272701D01*
X255605Y274355D01*
X253951Y275460D01*
X252000Y275848D01*
D02*
G37*
G36*
X188500Y267348D02*
X186549Y266960D01*
X184895Y265855D01*
X183790Y264201D01*
X183402Y262250D01*
X183790Y260299D01*
X184895Y258645D01*
X186549Y257540D01*
X188500Y257152D01*
X190451Y257540D01*
X192105Y258645D01*
X193210Y260299D01*
X193598Y262250D01*
X193210Y264201D01*
X192105Y265855D01*
X190451Y266960D01*
X188500Y267348D01*
D02*
G37*
G36*
X491254Y262523D02*
X485920D01*
Y254570D01*
X500310D01*
X500163Y255687D01*
X499241Y257911D01*
X497776Y259822D01*
X495865Y261287D01*
X493641Y262209D01*
X491254Y262523D01*
D02*
G37*
G36*
X483380D02*
X478046D01*
X475659Y262209D01*
X473434Y261287D01*
X471524Y259822D01*
X470059Y257911D01*
X469137Y255687D01*
X468990Y254570D01*
X483380D01*
Y262523D01*
D02*
G37*
G36*
X575558Y261404D02*
X546142D01*
Y245196D01*
X575558D01*
Y261404D01*
D02*
G37*
G36*
X500310Y252030D02*
X485920D01*
Y244077D01*
X491254D01*
X493641Y244391D01*
X495865Y245313D01*
X497776Y246778D01*
X499241Y248689D01*
X500163Y250913D01*
X500310Y252030D01*
D02*
G37*
G36*
X483380D02*
X468990D01*
X469137Y250913D01*
X470059Y248689D01*
X471524Y246778D01*
X473434Y245313D01*
X475659Y244391D01*
X478046Y244077D01*
X483380D01*
Y252030D01*
D02*
G37*
G36*
X59000Y262854D02*
X55867Y262441D01*
X52948Y261232D01*
X50441Y259308D01*
X48518Y256802D01*
X47309Y253883D01*
X46897Y250750D01*
X47309Y247617D01*
X48518Y244698D01*
X50441Y242192D01*
X52948Y240268D01*
X55867Y239059D01*
X59000Y238646D01*
X62133Y239059D01*
X65052Y240268D01*
X67558Y242192D01*
X69482Y244698D01*
X70691Y247617D01*
X71104Y250750D01*
X70691Y253883D01*
X69482Y256802D01*
X67558Y259308D01*
X65052Y261232D01*
X62133Y262441D01*
X59000Y262854D01*
D02*
G37*
G36*
X719250Y239250D02*
X702250D01*
Y222250D01*
X719250D01*
Y239250D01*
D02*
G37*
G36*
X760750Y239323D02*
X758531Y239031D01*
X756463Y238175D01*
X754688Y236812D01*
X753325Y235037D01*
X752469Y232969D01*
X752177Y230750D01*
X752469Y228531D01*
X753325Y226463D01*
X754688Y224688D01*
X756463Y223325D01*
X758531Y222469D01*
X760750Y222177D01*
X762969Y222469D01*
X765037Y223325D01*
X766812Y224688D01*
X768175Y226463D01*
X769031Y228531D01*
X769323Y230750D01*
X769031Y232969D01*
X768175Y235037D01*
X766812Y236812D01*
X765037Y238175D01*
X762969Y239031D01*
X760750Y239323D01*
D02*
G37*
G36*
X567454Y228874D02*
X554246D01*
X552130Y228595D01*
X550159Y227779D01*
X548466Y226480D01*
X547167Y224787D01*
X546351Y222816D01*
X546072Y220700D01*
X546351Y218584D01*
X547167Y216613D01*
X548466Y214920D01*
X550159Y213621D01*
X552130Y212805D01*
X554246Y212526D01*
X567454D01*
X569570Y212805D01*
X571541Y213621D01*
X573234Y214920D01*
X574533Y216613D01*
X575349Y218584D01*
X575628Y220700D01*
X575349Y222816D01*
X574533Y224787D01*
X573234Y226480D01*
X571541Y227779D01*
X569570Y228595D01*
X567454Y228874D01*
D02*
G37*
G36*
X404871Y284477D02*
X402920Y284089D01*
X401266Y282984D01*
X400161Y281330D01*
X399939Y280215D01*
X320552Y200828D01*
X237146D01*
X236201Y201460D01*
X234250Y201848D01*
X232299Y201460D01*
X230645Y200355D01*
X229540Y198701D01*
X229152Y196750D01*
X229540Y194799D01*
X230645Y193145D01*
X232299Y192040D01*
X234250Y191652D01*
X236201Y192040D01*
X237146Y192672D01*
X322241D01*
X322241Y192672D01*
X323802Y192982D01*
X325125Y193866D01*
X405707Y274448D01*
X406822Y274669D01*
X408475Y275774D01*
X409581Y277428D01*
X409969Y279379D01*
X409581Y281330D01*
X408475Y282984D01*
X406822Y284089D01*
X404871Y284477D01*
D02*
G37*
G36*
X491254Y204523D02*
X485920D01*
Y196570D01*
X500310D01*
X500163Y197687D01*
X499241Y199911D01*
X497776Y201822D01*
X495865Y203287D01*
X493641Y204209D01*
X491254Y204523D01*
D02*
G37*
G36*
X483380D02*
X478046D01*
X475659Y204209D01*
X473434Y203287D01*
X471524Y201822D01*
X470059Y199911D01*
X469137Y197687D01*
X468990Y196570D01*
X483380D01*
Y204523D01*
D02*
G37*
G36*
X71000Y212750D02*
X47000D01*
Y188750D01*
X71000D01*
Y212750D01*
D02*
G37*
G36*
X575558Y203404D02*
X546142D01*
Y187196D01*
X575558D01*
Y203404D01*
D02*
G37*
G36*
X500310Y194030D02*
X485920D01*
Y186077D01*
X491254D01*
X493641Y186391D01*
X495865Y187313D01*
X497776Y188778D01*
X499241Y190689D01*
X500163Y192913D01*
X500310Y194030D01*
D02*
G37*
G36*
X483380D02*
X468990D01*
X469137Y192913D01*
X470059Y190689D01*
X471524Y188778D01*
X473434Y187313D01*
X475659Y186391D01*
X478046Y186077D01*
X483380D01*
Y194030D01*
D02*
G37*
G36*
X567454Y171374D02*
X554246D01*
X552130Y171095D01*
X550159Y170279D01*
X548466Y168980D01*
X547167Y167287D01*
X546351Y165316D01*
X546072Y163200D01*
X546351Y161084D01*
X547167Y159113D01*
X548466Y157420D01*
X550159Y156121D01*
X552130Y155305D01*
X554246Y155026D01*
X567454D01*
X569570Y155305D01*
X571541Y156121D01*
X573234Y157420D01*
X574533Y159113D01*
X575349Y161084D01*
X575628Y163200D01*
X575349Y165316D01*
X574533Y167287D01*
X573234Y168980D01*
X571541Y170279D01*
X569570Y171095D01*
X567454Y171374D01*
D02*
G37*
G36*
X491254Y147023D02*
X485920D01*
Y139070D01*
X500310D01*
X500163Y140187D01*
X499241Y142411D01*
X497776Y144322D01*
X495865Y145787D01*
X493641Y146709D01*
X491254Y147023D01*
D02*
G37*
G36*
X483380D02*
X478046D01*
X475659Y146709D01*
X473434Y145787D01*
X471524Y144322D01*
X470059Y142411D01*
X469137Y140187D01*
X468990Y139070D01*
X483380D01*
Y147023D01*
D02*
G37*
G36*
X59000Y154604D02*
X55867Y154191D01*
X52948Y152982D01*
X50441Y151059D01*
X48518Y148552D01*
X47309Y145633D01*
X46897Y142500D01*
X47309Y139367D01*
X48518Y136448D01*
X50441Y133941D01*
X52948Y132018D01*
X55867Y130809D01*
X59000Y130396D01*
X62133Y130809D01*
X65052Y132018D01*
X67558Y133941D01*
X69482Y136448D01*
X70691Y139367D01*
X71104Y142500D01*
X70691Y145633D01*
X69482Y148552D01*
X67558Y151059D01*
X65052Y152982D01*
X62133Y154191D01*
X59000Y154604D01*
D02*
G37*
G36*
X575558Y145904D02*
X546142D01*
Y129696D01*
X575558D01*
Y145904D01*
D02*
G37*
G36*
X500310Y136530D02*
X485920D01*
Y128577D01*
X491254D01*
X493641Y128891D01*
X495865Y129813D01*
X497776Y131278D01*
X499241Y133189D01*
X500163Y135413D01*
X500310Y136530D01*
D02*
G37*
G36*
X483380D02*
X468990D01*
X469137Y135413D01*
X470059Y133189D01*
X471524Y131278D01*
X473434Y129813D01*
X475659Y128891D01*
X478046Y128577D01*
X483380D01*
Y136530D01*
D02*
G37*
G36*
X71000Y104500D02*
X47000D01*
Y80500D01*
X71000D01*
Y104500D01*
D02*
G37*
G36*
X163250Y80500D02*
X139250D01*
Y56500D01*
X163250D01*
Y80500D01*
D02*
G37*
G36*
X701250Y80604D02*
X698117Y80191D01*
X695198Y78982D01*
X692691Y77059D01*
X690768Y74552D01*
X689559Y71633D01*
X689146Y68500D01*
X689559Y65367D01*
X690768Y62448D01*
X692691Y59942D01*
X695198Y58018D01*
X698117Y56809D01*
X701250Y56396D01*
X704383Y56809D01*
X707302Y58018D01*
X709809Y59942D01*
X711732Y62448D01*
X712941Y65367D01*
X713354Y68500D01*
X712941Y71633D01*
X711732Y74552D01*
X709809Y77059D01*
X707302Y78982D01*
X704383Y80191D01*
X701250Y80604D01*
D02*
G37*
G36*
X651250D02*
X648117Y80191D01*
X645198Y78982D01*
X642691Y77059D01*
X640768Y74552D01*
X639559Y71633D01*
X639146Y68500D01*
X639559Y65367D01*
X640768Y62448D01*
X642691Y59942D01*
X645198Y58018D01*
X648117Y56809D01*
X651250Y56396D01*
X654383Y56809D01*
X657302Y58018D01*
X659809Y59942D01*
X661732Y62448D01*
X662941Y65367D01*
X663354Y68500D01*
X662941Y71633D01*
X661732Y74552D01*
X659809Y77059D01*
X657302Y78982D01*
X654383Y80191D01*
X651250Y80604D01*
D02*
G37*
G36*
X601250D02*
X598117Y80191D01*
X595198Y78982D01*
X592691Y77059D01*
X590768Y74552D01*
X589559Y71633D01*
X589146Y68500D01*
X589559Y65367D01*
X590768Y62448D01*
X592691Y59942D01*
X595198Y58018D01*
X598117Y56809D01*
X601250Y56396D01*
X604383Y56809D01*
X607302Y58018D01*
X609809Y59942D01*
X611732Y62448D01*
X612941Y65367D01*
X613354Y68500D01*
X612941Y71633D01*
X611732Y74552D01*
X609809Y77059D01*
X607302Y78982D01*
X604383Y80191D01*
X601250Y80604D01*
D02*
G37*
G36*
X551250D02*
X548117Y80191D01*
X545198Y78982D01*
X542691Y77059D01*
X540768Y74552D01*
X539559Y71633D01*
X539146Y68500D01*
X539559Y65367D01*
X540768Y62448D01*
X542691Y59942D01*
X545198Y58018D01*
X548117Y56809D01*
X551250Y56396D01*
X554383Y56809D01*
X557302Y58018D01*
X559809Y59942D01*
X561732Y62448D01*
X562941Y65367D01*
X563354Y68500D01*
X562941Y71633D01*
X561732Y74552D01*
X559809Y77059D01*
X557302Y78982D01*
X554383Y80191D01*
X551250Y80604D01*
D02*
G37*
G36*
X501250D02*
X498117Y80191D01*
X495198Y78982D01*
X492691Y77059D01*
X490768Y74552D01*
X489559Y71633D01*
X489146Y68500D01*
X489559Y65367D01*
X490768Y62448D01*
X492691Y59942D01*
X495198Y58018D01*
X498117Y56809D01*
X501250Y56396D01*
X504383Y56809D01*
X507302Y58018D01*
X509809Y59942D01*
X511732Y62448D01*
X512941Y65367D01*
X513354Y68500D01*
X512941Y71633D01*
X511732Y74552D01*
X509809Y77059D01*
X507302Y78982D01*
X504383Y80191D01*
X501250Y80604D01*
D02*
G37*
G36*
X451250D02*
X448117Y80191D01*
X445198Y78982D01*
X442691Y77059D01*
X440768Y74552D01*
X439559Y71633D01*
X439146Y68500D01*
X439559Y65367D01*
X440768Y62448D01*
X442691Y59942D01*
X445198Y58018D01*
X448117Y56809D01*
X451250Y56396D01*
X454383Y56809D01*
X457302Y58018D01*
X459809Y59942D01*
X461732Y62448D01*
X462941Y65367D01*
X463354Y68500D01*
X462941Y71633D01*
X461732Y74552D01*
X459809Y77059D01*
X457302Y78982D01*
X454383Y80191D01*
X451250Y80604D01*
D02*
G37*
G36*
X401250D02*
X398117Y80191D01*
X395198Y78982D01*
X392691Y77059D01*
X390768Y74552D01*
X389559Y71633D01*
X389146Y68500D01*
X389559Y65367D01*
X390768Y62448D01*
X392691Y59942D01*
X395198Y58018D01*
X398117Y56809D01*
X401250Y56396D01*
X404383Y56809D01*
X407302Y58018D01*
X409809Y59942D01*
X411732Y62448D01*
X412941Y65367D01*
X413354Y68500D01*
X412941Y71633D01*
X411732Y74552D01*
X409809Y77059D01*
X407302Y78982D01*
X404383Y80191D01*
X401250Y80604D01*
D02*
G37*
G36*
X351250D02*
X348117Y80191D01*
X345198Y78982D01*
X342691Y77059D01*
X340768Y74552D01*
X339559Y71633D01*
X339146Y68500D01*
X339559Y65367D01*
X340768Y62448D01*
X342691Y59942D01*
X345198Y58018D01*
X348117Y56809D01*
X351250Y56396D01*
X354383Y56809D01*
X357302Y58018D01*
X359809Y59942D01*
X361732Y62448D01*
X362941Y65367D01*
X363354Y68500D01*
X362941Y71633D01*
X361732Y74552D01*
X359809Y77059D01*
X357302Y78982D01*
X354383Y80191D01*
X351250Y80604D01*
D02*
G37*
G36*
X301250D02*
X298117Y80191D01*
X295198Y78982D01*
X292691Y77059D01*
X290768Y74552D01*
X289559Y71633D01*
X289146Y68500D01*
X289559Y65367D01*
X290768Y62448D01*
X292691Y59942D01*
X295198Y58018D01*
X298117Y56809D01*
X301250Y56396D01*
X304383Y56809D01*
X307302Y58018D01*
X309809Y59942D01*
X311732Y62448D01*
X312941Y65367D01*
X313354Y68500D01*
X312941Y71633D01*
X311732Y74552D01*
X309809Y77059D01*
X307302Y78982D01*
X304383Y80191D01*
X301250Y80604D01*
D02*
G37*
G36*
X251250D02*
X248117Y80191D01*
X245198Y78982D01*
X242691Y77059D01*
X240768Y74552D01*
X239559Y71633D01*
X239146Y68500D01*
X239559Y65367D01*
X240768Y62448D01*
X242691Y59942D01*
X245198Y58018D01*
X248117Y56809D01*
X251250Y56396D01*
X254383Y56809D01*
X257302Y58018D01*
X259809Y59942D01*
X261732Y62448D01*
X262941Y65367D01*
X263354Y68500D01*
X262941Y71633D01*
X261732Y74552D01*
X259809Y77059D01*
X257302Y78982D01*
X254383Y80191D01*
X251250Y80604D01*
D02*
G37*
G36*
X201250D02*
X198117Y80191D01*
X195198Y78982D01*
X192691Y77059D01*
X190768Y74552D01*
X189559Y71633D01*
X189146Y68500D01*
X189559Y65367D01*
X190768Y62448D01*
X192691Y59942D01*
X195198Y58018D01*
X198117Y56809D01*
X201250Y56396D01*
X204383Y56809D01*
X207302Y58018D01*
X209809Y59942D01*
X211732Y62448D01*
X212941Y65367D01*
X213354Y68500D01*
X212941Y71633D01*
X211732Y74552D01*
X209809Y77059D01*
X207302Y78982D01*
X204383Y80191D01*
X201250Y80604D01*
D02*
G37*
G36*
X805500Y50854D02*
X801285Y50439D01*
X797233Y49209D01*
X793497Y47213D01*
X790224Y44526D01*
X787537Y41252D01*
X785540Y37517D01*
X784311Y33465D01*
X783896Y29250D01*
X784311Y25035D01*
X785540Y20982D01*
X787537Y17248D01*
X790224Y13974D01*
X793497Y11287D01*
X797233Y9291D01*
X801285Y8061D01*
X805500Y7646D01*
X809715Y8061D01*
X813767Y9291D01*
X817503Y11287D01*
X820776Y13974D01*
X823463Y17248D01*
X825460Y20982D01*
X826689Y25035D01*
X827104Y29250D01*
X826689Y33465D01*
X825460Y37517D01*
X823463Y41252D01*
X820776Y44526D01*
X817503Y47213D01*
X813767Y49209D01*
X809715Y50439D01*
X805500Y50854D01*
D02*
G37*
%LPD*%
G36*
X359002Y613235D02*
X358507Y612426D01*
X358306Y612025D01*
X358136Y611628D01*
X357997Y611233D01*
X357889Y610840D01*
X357812Y610451D01*
X357766Y610065D01*
X357750Y609681D01*
X355250D01*
X355234Y610065D01*
X355188Y610451D01*
X355111Y610840D01*
X355003Y611233D01*
X354864Y611628D01*
X354694Y612025D01*
X354493Y612426D01*
X354261Y612829D01*
X353998Y613235D01*
X353705Y613644D01*
X359295D01*
X359002Y613235D01*
D02*
G37*
G36*
X391450Y537382D02*
X391139Y537282D01*
X390825Y537157D01*
X390509Y537008D01*
X390190Y536835D01*
X389870Y536637D01*
X389223Y536169D01*
X388896Y535897D01*
X388235Y535282D01*
X385939Y537228D01*
X386158Y537470D01*
X386352Y537733D01*
X386521Y538018D01*
X386665Y538324D01*
X386784Y538650D01*
X386878Y538998D01*
X386946Y539368D01*
X386990Y539758D01*
X387009Y540170D01*
X387003Y540603D01*
X391450Y537382D01*
D02*
G37*
G36*
X357750Y499831D02*
X357762Y499421D01*
X357798Y499014D01*
X357858Y498611D01*
X357943Y498210D01*
X358051Y497813D01*
X358184Y497420D01*
X358340Y497029D01*
X358521Y496642D01*
X358726Y496258D01*
X358954Y495877D01*
X353381Y496322D01*
X353736Y496740D01*
X354334Y497558D01*
X354577Y497957D01*
X354783Y498350D01*
X354951Y498737D01*
X355082Y499117D01*
X355175Y499491D01*
X355231Y499858D01*
X355250Y500219D01*
X357750Y499831D01*
D02*
G37*
G36*
X363957Y468465D02*
X363778Y468274D01*
X363624Y468087D01*
X363495Y467901D01*
X363391Y467719D01*
X363312Y467539D01*
X363259Y467363D01*
X363230Y467188D01*
X363227Y467016D01*
X363248Y466847D01*
X363295Y466681D01*
X360605Y468947D01*
X360778Y468930D01*
X360956Y468937D01*
X361139Y468968D01*
X361326Y469024D01*
X361517Y469105D01*
X361714Y469211D01*
X361914Y469341D01*
X362119Y469495D01*
X362329Y469675D01*
X362543Y469879D01*
X363957Y468465D01*
D02*
G37*
G36*
X381220Y380757D02*
X381311Y380750D01*
X381917Y380733D01*
X384028Y380722D01*
X383970Y375722D01*
X381142Y375695D01*
X381183Y380766D01*
X381220Y380757D01*
D02*
G37*
D12*
X246015Y777000D02*
X260235D01*
X217765Y805250D02*
X246015Y777000D01*
X262485Y779250D02*
X342000D01*
X260235Y777000D02*
X262485Y779250D01*
X357500Y631397D02*
X363250Y625647D01*
X360000Y465500D02*
Y465922D01*
X363250Y469172D02*
Y625647D01*
X360000Y465922D02*
X363250Y469172D01*
X438250Y972750D02*
X452250Y986750D01*
X438250Y753985D02*
Y972750D01*
X429750Y745485D02*
X438250Y753985D01*
X429750Y735500D02*
Y745485D01*
X459500Y596750D02*
X523250Y660500D01*
X552500Y767000D02*
X568750D01*
X542500Y757000D02*
X552500Y767000D01*
X542500Y727700D02*
Y757000D01*
X523250Y708450D02*
X542500Y727700D01*
X523250Y660500D02*
Y708450D01*
X469500Y589500D02*
X527250Y647250D01*
Y707500D01*
X535950Y716200D02*
X568750D01*
X527250Y707500D02*
X535950Y716200D01*
X642750Y656750D02*
X649500Y663500D01*
X395250Y748750D02*
Y893250D01*
Y748750D02*
X419500Y724500D01*
X436500Y743750D02*
X452750Y760000D01*
X708000Y663500D02*
X715500Y656000D01*
X580058Y601500D02*
X580250D01*
X419500Y724500D02*
X435750D01*
X357500Y631397D02*
Y632750D01*
X452750Y760000D02*
Y894000D01*
X649500Y663500D02*
X708000D01*
X522250Y597000D02*
X575558D01*
X435750Y724500D02*
X449750Y738500D01*
X575558Y597000D02*
X580058Y601500D01*
X449750Y738500D02*
Y748000D01*
X183000Y805250D02*
X217765D01*
X129250Y809572D02*
X138250Y818572D01*
Y830750D01*
X159000Y851500D01*
X136000Y850750D02*
X136692D01*
X140942Y855000D01*
X314000D01*
X159000Y851500D02*
X277000D01*
X314000Y855000D02*
X331250Y837750D01*
X317000Y796250D02*
Y811500D01*
X277000Y851500D02*
X317000Y811500D01*
X331250Y790250D02*
Y837750D01*
X691625Y637375D02*
X692000Y637000D01*
X691625Y637375D02*
Y657125D01*
X691250Y657500D02*
X691625Y657125D01*
D13*
X224305Y277250D02*
X314250Y367195D01*
Y734250D02*
X319000Y739000D01*
X314250Y367195D02*
Y734250D01*
X367250Y452000D02*
X377250Y462000D01*
X367250Y425000D02*
Y452000D01*
X377250Y578260D02*
X377500Y578510D01*
X377250Y462000D02*
Y578260D01*
X377500Y578510D02*
Y587000D01*
X434500Y644000D01*
X452750D01*
X391500Y413846D02*
X457250Y348096D01*
Y232000D02*
X468550Y220700D01*
X391500Y413846D02*
Y529942D01*
X457250Y232000D02*
Y348096D01*
X391500Y529942D02*
X397558Y536000D01*
X407000D01*
X452750Y177442D02*
Y323930D01*
X398000Y448117D02*
X484650Y361467D01*
X398000Y448117D02*
Y527250D01*
X484600Y163250D02*
X484650Y163200D01*
X452750Y177442D02*
X466942Y163250D01*
X387000Y389680D02*
X452750Y323930D01*
X466942Y163250D02*
X484600D01*
X390500Y539668D02*
Y540750D01*
X484650Y278700D02*
Y361467D01*
X387000Y536168D02*
X390500Y539668D01*
X387000Y389680D02*
Y536168D01*
X468550Y220700D02*
X484650D01*
X211500Y277250D02*
X224305D01*
X630750Y500500D02*
X707250Y577000D01*
X630750Y422750D02*
Y500500D01*
X707250Y577000D02*
X723750D01*
D14*
X320750Y623000D02*
X331250D01*
X344250Y610000D01*
X338750Y536250D02*
X344250Y541750D01*
Y610000D01*
X356000Y494000D02*
X356500Y494500D01*
Y615750D01*
X416750Y597500D02*
X427750Y608500D01*
X425750Y444250D02*
Y572500D01*
X381500Y450250D02*
Y576500D01*
X359000Y451750D02*
X372750Y465500D01*
Y592750D01*
X348250Y466250D02*
Y635750D01*
X437500Y657500D02*
X453000D01*
X469000Y615750D02*
Y625750D01*
X359000Y439500D02*
Y451750D01*
X348250Y635750D02*
X359500Y647000D01*
X372750Y592750D02*
X437500Y657500D01*
X381500Y576500D02*
X422250Y617250D01*
X460250D01*
X375500Y444250D02*
X381500Y450250D01*
X416750Y467750D02*
Y597500D01*
X425750Y572500D02*
X469000Y615750D01*
X139150Y949950D02*
X384450D01*
X460250Y1025750D01*
X668700Y988050D02*
X695850D01*
X460250Y1025750D02*
X631000D01*
X668700Y988050D01*
D95*
X322241Y196750D02*
X404871Y279379D01*
X234250Y196750D02*
X322241D01*
X378750Y378250D02*
X378778Y378222D01*
X384278D01*
X439000Y323500D01*
Y281250D02*
Y323500D01*
X422000Y264250D02*
X439000Y281250D01*
X270250Y213250D02*
X372500Y315500D01*
X430250D01*
X422000Y204250D02*
Y264250D01*
X122875Y455375D02*
X123000Y455250D01*
X122875Y455375D02*
Y518625D01*
X122750Y518750D02*
X122875Y518625D01*
X123125Y397375D02*
X123250Y397250D01*
X123125Y397375D02*
Y455125D01*
X123000Y455250D02*
X123125Y455125D01*
X115000Y389000D02*
X123250Y397250D01*
X115000Y327750D02*
Y389000D01*
X59000Y310250D02*
X97500D01*
X115000Y327750D01*
X815000Y1046500D02*
X815250D01*
Y891500D02*
X817500Y893750D01*
Y942000D01*
X19750Y1046500D02*
X40250Y1067000D01*
X794500D01*
X815000Y1046500D01*
X19000Y1045750D02*
X19750Y1046500D01*
X721250Y949950D02*
X743950D01*
X717500Y833250D02*
X717750Y833000D01*
X677250Y833250D02*
X717500D01*
X21929Y988500D02*
X113300D01*
X19000Y991429D02*
Y1045750D01*
Y991429D02*
X21929Y988500D01*
X113300D02*
X113750Y988050D01*
X743950Y949950D02*
X809550D01*
X817500Y942000D01*
X754250Y960250D02*
Y1027250D01*
X743950Y949950D02*
X754250Y960250D01*
X667500Y1033500D02*
X748000D01*
X754250Y1027250D01*
X677000Y833500D02*
X677250Y833250D01*
D97*
X698588Y950995D02*
X707505Y942078D01*
X487327Y1002616D02*
X639401D01*
X483500Y1006250D02*
X483693D01*
X691022Y950995D02*
X698588D01*
X483693Y1006250D02*
X487327Y1002616D01*
X639401D02*
X691022Y950995D01*
X707505Y938295D02*
Y942078D01*
Y938295D02*
X721250Y924550D01*
X483750Y990500D02*
Y991822D01*
X636771Y996266D02*
X695787Y937250D01*
X483750Y991822D02*
X488195Y996266D01*
X636771D01*
X695787Y937250D02*
X695850D01*
D99*
X484650Y163200D02*
D03*
Y137800D02*
D03*
Y220700D02*
D03*
Y195300D02*
D03*
Y278700D02*
D03*
Y253300D02*
D03*
D101*
X59000Y310250D02*
D03*
D104*
X369750Y872400D02*
D03*
D105*
X479850Y867500D02*
D03*
D107*
X19750Y1046500D02*
D03*
X815250D02*
D03*
Y891500D02*
D03*
D108*
X139150Y949950D02*
D03*
X113750Y988050D02*
D03*
X695850D02*
D03*
X721250Y949950D02*
D03*
X695850Y937250D02*
D03*
D109*
X721250Y924550D02*
D03*
D113*
X23750Y645250D02*
D03*
Y777750D02*
D03*
D114*
X136250Y705200D02*
D03*
X161650Y717900D02*
D03*
D117*
X681500Y475650D02*
D03*
D120*
X638750Y587750D02*
D03*
D121*
X568750Y767000D02*
D03*
Y716200D02*
D03*
Y690800D02*
D03*
D122*
X512250Y694250D02*
D03*
X402000Y956000D02*
D03*
X177250Y865250D02*
D03*
X613000Y628750D02*
D03*
X409000Y455500D02*
D03*
X489000Y527000D02*
D03*
X728500Y630500D02*
D03*
X641250Y677000D02*
D03*
X207500Y631000D02*
D03*
X286000Y745000D02*
D03*
X272446Y829196D02*
D03*
X257750Y783000D02*
D03*
X236750Y744250D02*
D03*
X185500Y746000D02*
D03*
X188500Y701250D02*
D03*
X321750Y680500D02*
D03*
X305250Y556000D02*
D03*
X320750Y623000D02*
D03*
X338750Y536250D02*
D03*
X356000Y494000D02*
D03*
X356500Y615750D02*
D03*
X359500Y647000D02*
D03*
X348250Y466250D02*
D03*
X357500Y632750D02*
D03*
X360000Y465500D02*
D03*
X390500Y540750D02*
D03*
X398000Y527250D02*
D03*
X427750Y608500D02*
D03*
X416750Y467750D02*
D03*
X469000Y625750D02*
D03*
X425750Y444250D02*
D03*
X453000Y657500D02*
D03*
X452750Y644000D02*
D03*
X359000Y439500D02*
D03*
X460250Y617250D02*
D03*
X375500Y444250D02*
D03*
X367250Y425000D02*
D03*
X407000Y536000D02*
D03*
X342000Y779250D02*
D03*
X319000Y739000D02*
D03*
X211500Y277250D02*
D03*
X404871Y279379D02*
D03*
X378750Y378250D02*
D03*
X430250Y315500D02*
D03*
X270250Y213250D02*
D03*
X422000Y204250D02*
D03*
X234250Y196750D02*
D03*
X122750Y518750D02*
D03*
X123000Y455250D02*
D03*
X123250Y397250D02*
D03*
X717750Y833000D02*
D03*
X667500Y1033500D02*
D03*
X129250Y809572D02*
D03*
X723750Y577000D02*
D03*
X630750Y422750D02*
D03*
X317000Y796250D02*
D03*
X331250Y790250D02*
D03*
X395250Y893250D02*
D03*
X449750Y748000D02*
D03*
X452750Y894000D02*
D03*
X429750Y735500D02*
D03*
X436500Y743750D02*
D03*
X452250Y986750D02*
D03*
X677000Y833500D02*
D03*
X483500Y1006250D02*
D03*
X483750Y990500D02*
D03*
X183000Y805250D02*
D03*
X136000Y850750D02*
D03*
X691250Y657500D02*
D03*
X692000Y637000D02*
D03*
X715500Y656000D02*
D03*
X642750Y656750D02*
D03*
X522250Y597000D02*
D03*
X580250Y601500D02*
D03*
X469500Y589500D02*
D03*
X459500Y596750D02*
D03*
M02*
