G04*
G04 #@! TF.GenerationSoftware,Altium Limited,Altium Designer,20.0.13 (296)*
G04*
G04 Layer_Color=8388736*
%FSLAX44Y44*%
%MOMM*%
G71*
G01*
G75*
%ADD46R,0.7032X0.8032*%
%ADD47R,1.0032X1.2032*%
%ADD48R,1.0200X0.8200*%
%ADD49R,1.5032X1.3032*%
%ADD50R,0.8200X1.0200*%
%ADD51R,1.3032X1.5032*%
%ADD52R,1.2032X1.6032*%
%ADD53R,1.3400X0.7400*%
%ADD54R,0.8032X0.7032*%
%ADD55R,1.2032X1.0032*%
%ADD56R,1.6032X1.2032*%
G04:AMPARAMS|DCode=57|XSize=2.1732mm|YSize=0.8032mm|CornerRadius=0.1766mm|HoleSize=0mm|Usage=FLASHONLY|Rotation=0.000|XOffset=0mm|YOffset=0mm|HoleType=Round|Shape=RoundedRectangle|*
%AMROUNDEDRECTD57*
21,1,2.1732,0.4500,0,0,0.0*
21,1,1.8200,0.8032,0,0,0.0*
1,1,0.3532,0.9100,-0.2250*
1,1,0.3532,-0.9100,-0.2250*
1,1,0.3532,-0.9100,0.2250*
1,1,0.3532,0.9100,0.2250*
%
%ADD57ROUNDEDRECTD57*%
%ADD58R,2.5200X1.6200*%
G04:AMPARAMS|DCode=59|XSize=0.4832mm|YSize=0.8932mm|CornerRadius=0.1716mm|HoleSize=0mm|Usage=FLASHONLY|Rotation=180.000|XOffset=0mm|YOffset=0mm|HoleType=Round|Shape=RoundedRectangle|*
%AMROUNDEDRECTD59*
21,1,0.4832,0.5500,0,0,180.0*
21,1,0.1400,0.8932,0,0,180.0*
1,1,0.3432,-0.0700,0.2750*
1,1,0.3432,0.0700,0.2750*
1,1,0.3432,0.0700,-0.2750*
1,1,0.3432,-0.0700,-0.2750*
%
%ADD59ROUNDEDRECTD59*%
G04:AMPARAMS|DCode=60|XSize=0.4832mm|YSize=0.8932mm|CornerRadius=0.1716mm|HoleSize=0mm|Usage=FLASHONLY|Rotation=270.000|XOffset=0mm|YOffset=0mm|HoleType=Round|Shape=RoundedRectangle|*
%AMROUNDEDRECTD60*
21,1,0.4832,0.5500,0,0,270.0*
21,1,0.1400,0.8932,0,0,270.0*
1,1,0.3432,-0.2750,-0.0700*
1,1,0.3432,-0.2750,0.0700*
1,1,0.3432,0.2750,0.0700*
1,1,0.3432,0.2750,-0.0700*
%
%ADD60ROUNDEDRECTD60*%
%ADD61R,2.4892X2.4892*%
%ADD62R,0.7200X2.3200*%
%ADD63R,0.7200X4.3200*%
%ADD64R,1.1032X1.7032*%
%ADD65R,3.3200X1.1700*%
%ADD66R,8.4200X10.5700*%
%ADD67R,4.0132X2.9972*%
%ADD68R,7.2032X4.2032*%
%ADD69R,1.7032X1.7032*%
G04:AMPARAMS|DCode=70|XSize=1.7632mm|YSize=0.4832mm|CornerRadius=0.1366mm|HoleSize=0mm|Usage=FLASHONLY|Rotation=270.000|XOffset=0mm|YOffset=0mm|HoleType=Round|Shape=RoundedRectangle|*
%AMROUNDEDRECTD70*
21,1,1.7632,0.2100,0,0,270.0*
21,1,1.4900,0.4832,0,0,270.0*
1,1,0.2732,-0.1050,-0.7450*
1,1,0.2732,-0.1050,0.7450*
1,1,0.2732,0.1050,0.7450*
1,1,0.2732,0.1050,-0.7450*
%
%ADD70ROUNDEDRECTD70*%
G04:AMPARAMS|DCode=71|XSize=1.7632mm|YSize=0.4832mm|CornerRadius=0.1366mm|HoleSize=0mm|Usage=FLASHONLY|Rotation=0.000|XOffset=0mm|YOffset=0mm|HoleType=Round|Shape=RoundedRectangle|*
%AMROUNDEDRECTD71*
21,1,1.7632,0.2100,0,0,0.0*
21,1,1.4900,0.4832,0,0,0.0*
1,1,0.2732,0.7450,-0.1050*
1,1,0.2732,-0.7450,-0.1050*
1,1,0.2732,-0.7450,0.1050*
1,1,0.2732,0.7450,0.1050*
%
%ADD71ROUNDEDRECTD71*%
%ADD72C,6.2032*%
%ADD73R,2.8448X1.5240*%
%ADD74O,2.8448X1.5240*%
%ADD75C,2.3032*%
%ADD76R,2.3032X2.3032*%
%ADD77R,2.3032X2.3032*%
%ADD78C,1.7200*%
%ADD79R,1.7200X1.7200*%
%ADD80C,3.4532*%
%ADD81C,2.6482*%
%ADD82C,1.7332*%
%ADD83C,1.6012*%
%ADD84R,1.6012X1.6012*%
%ADD85C,1.5200*%
%ADD86R,1.5200X1.5200*%
%ADD87R,1.7032X1.7032*%
%ADD88C,1.7032*%
%ADD89R,1.7200X1.7200*%
G36*
X671000Y454125D02*
Y447375D01*
X657875D01*
Y454125D01*
X671000D01*
D02*
G37*
G36*
Y473125D02*
Y466375D01*
X657875D01*
Y473125D01*
X671000D01*
D02*
G37*
G36*
X694125Y454125D02*
Y447375D01*
X681000D01*
Y454125D01*
X694125D01*
D02*
G37*
G36*
Y463625D02*
Y456875D01*
X681000D01*
Y463625D01*
X694125D01*
D02*
G37*
G36*
Y473125D02*
Y466375D01*
X681000D01*
Y473125D01*
X694125D01*
D02*
G37*
G36*
Y525875D02*
X681000D01*
Y532625D01*
X694125D01*
Y525875D01*
D02*
G37*
G36*
X671000D02*
X657875D01*
Y532625D01*
X671000D01*
Y525875D01*
D02*
G37*
G36*
X694125Y516375D02*
X681000D01*
Y523125D01*
X694125D01*
Y516375D01*
D02*
G37*
G36*
Y506875D02*
X681000D01*
Y513625D01*
X694125D01*
Y506875D01*
D02*
G37*
G36*
X671000D02*
X657875D01*
Y513625D01*
X671000D01*
Y506875D01*
D02*
G37*
D46*
X144750Y544750D02*
D03*
X154750D02*
D03*
X144750Y513643D02*
D03*
X154750D02*
D03*
X178250Y544750D02*
D03*
X168250D02*
D03*
X178250Y513643D02*
D03*
X168250D02*
D03*
X113500Y544750D02*
D03*
X123500D02*
D03*
X113500Y513643D02*
D03*
X123500D02*
D03*
X178250Y451428D02*
D03*
X168250D02*
D03*
X113500D02*
D03*
X123500D02*
D03*
X113500Y482536D02*
D03*
X123500D02*
D03*
X144750Y389214D02*
D03*
X154750D02*
D03*
X113500Y358107D02*
D03*
X123500D02*
D03*
X154750Y482536D02*
D03*
X144750D02*
D03*
X123500Y389214D02*
D03*
X113500D02*
D03*
X123500Y420321D02*
D03*
X113500D02*
D03*
X168250Y389214D02*
D03*
X178250D02*
D03*
X154750Y358107D02*
D03*
X144750D02*
D03*
X154750Y327000D02*
D03*
X144750D02*
D03*
X168250Y358107D02*
D03*
X178250D02*
D03*
X168250Y327000D02*
D03*
X178250D02*
D03*
X168250Y420321D02*
D03*
X178250D02*
D03*
X154750D02*
D03*
X144750D02*
D03*
X123500Y327000D02*
D03*
X113500D02*
D03*
X168250Y482536D02*
D03*
X178250D02*
D03*
X154750Y451428D02*
D03*
X144750D02*
D03*
D47*
X459750Y742500D02*
D03*
X443750D02*
D03*
X157750Y589250D02*
D03*
X173750D02*
D03*
X124500D02*
D03*
X140500D02*
D03*
X188500Y715000D02*
D03*
X204500D02*
D03*
X292000Y569750D02*
D03*
X308000D02*
D03*
X817750Y577988D02*
D03*
X801750D02*
D03*
X669500Y413000D02*
D03*
X685500D02*
D03*
X736750Y578000D02*
D03*
X752750D02*
D03*
X290250Y820000D02*
D03*
X306250D02*
D03*
X290500Y837750D02*
D03*
X306500D02*
D03*
X273000Y783000D02*
D03*
X289000D02*
D03*
X503000Y740250D02*
D03*
X487000D02*
D03*
X512000Y711000D02*
D03*
X528000D02*
D03*
X594750Y672250D02*
D03*
X610750D02*
D03*
X489250Y547250D02*
D03*
X505250D02*
D03*
X314500Y691250D02*
D03*
X298500D02*
D03*
X155750Y803750D02*
D03*
X171750D02*
D03*
D48*
X645000Y497000D02*
D03*
Y481000D02*
D03*
X385750Y801500D02*
D03*
Y817500D02*
D03*
X498250Y791500D02*
D03*
Y775500D02*
D03*
X435500Y775750D02*
D03*
Y791750D02*
D03*
X201750Y864000D02*
D03*
Y848000D02*
D03*
X302250Y760000D02*
D03*
Y744000D02*
D03*
X192500Y836000D02*
D03*
Y820000D02*
D03*
X149000Y864750D02*
D03*
Y848750D02*
D03*
X139250Y833000D02*
D03*
Y817000D02*
D03*
X247250Y728250D02*
D03*
Y744250D02*
D03*
X225750Y728250D02*
D03*
Y744250D02*
D03*
D49*
X455500Y792750D02*
D03*
X478500D02*
D03*
Y774750D02*
D03*
X455500D02*
D03*
D50*
X349750Y847500D02*
D03*
X365750D02*
D03*
X224250Y617500D02*
D03*
X240250D02*
D03*
X217000Y579750D02*
D03*
X233000D02*
D03*
X307000Y674250D02*
D03*
X291000D02*
D03*
X307000Y646000D02*
D03*
X291000D02*
D03*
X307000Y660250D02*
D03*
X291000D02*
D03*
X229750Y758750D02*
D03*
X213750D02*
D03*
X185500D02*
D03*
X201500D02*
D03*
X287250D02*
D03*
X271250D02*
D03*
X243000D02*
D03*
X259000D02*
D03*
D51*
X348250Y828000D02*
D03*
Y805000D02*
D03*
X366250D02*
D03*
Y828000D02*
D03*
D52*
X515750Y675500D02*
D03*
X535750D02*
D03*
X334500Y526704D02*
D03*
X354500D02*
D03*
X334500Y497250D02*
D03*
X354500D02*
D03*
X334500Y466250D02*
D03*
X354500D02*
D03*
X334250Y434500D02*
D03*
X354250D02*
D03*
X294750Y712000D02*
D03*
X314750D02*
D03*
X309750Y589000D02*
D03*
X289750D02*
D03*
X752000Y159500D02*
D03*
X732000D02*
D03*
X473000Y832000D02*
D03*
X493000D02*
D03*
X480000Y857750D02*
D03*
X500000D02*
D03*
D53*
X664500Y510250D02*
D03*
Y529250D02*
D03*
X687500D02*
D03*
Y519750D02*
D03*
Y510250D02*
D03*
X664500Y450750D02*
D03*
Y469750D02*
D03*
X687500D02*
D03*
Y460250D02*
D03*
Y450750D02*
D03*
D54*
X592000Y266000D02*
D03*
Y256000D02*
D03*
Y207000D02*
D03*
Y197000D02*
D03*
Y152000D02*
D03*
Y142000D02*
D03*
X422000Y146500D02*
D03*
Y136500D02*
D03*
X383250Y146500D02*
D03*
Y136500D02*
D03*
X343500Y146500D02*
D03*
Y136500D02*
D03*
X306250Y146500D02*
D03*
Y136500D02*
D03*
X269250Y146500D02*
D03*
Y136500D02*
D03*
X233000Y146500D02*
D03*
Y136500D02*
D03*
X440500Y177750D02*
D03*
Y167750D02*
D03*
X402250Y178250D02*
D03*
Y168250D02*
D03*
X363750Y178500D02*
D03*
Y168500D02*
D03*
X325750Y178750D02*
D03*
Y168750D02*
D03*
X288750Y180000D02*
D03*
Y170000D02*
D03*
X252000Y180000D02*
D03*
Y170000D02*
D03*
X440000Y235250D02*
D03*
Y225250D02*
D03*
X402450Y235250D02*
D03*
Y225250D02*
D03*
X364900Y235250D02*
D03*
Y225250D02*
D03*
X327350Y235250D02*
D03*
Y225250D02*
D03*
X289800Y235250D02*
D03*
Y225250D02*
D03*
X252250Y235250D02*
D03*
Y225250D02*
D03*
X310250Y528000D02*
D03*
Y538000D02*
D03*
Y468750D02*
D03*
Y478750D02*
D03*
Y406000D02*
D03*
Y416000D02*
D03*
Y347250D02*
D03*
Y357250D02*
D03*
D55*
X405000Y767750D02*
D03*
Y783750D02*
D03*
X209000Y199750D02*
D03*
Y215750D02*
D03*
X320500Y772250D02*
D03*
Y756250D02*
D03*
X193500Y646000D02*
D03*
Y630000D02*
D03*
X375000Y741250D02*
D03*
Y757250D02*
D03*
X235750Y863250D02*
D03*
Y847250D02*
D03*
D56*
X340500Y741000D02*
D03*
Y761000D02*
D03*
X211000Y236750D02*
D03*
Y256750D02*
D03*
X593000Y509750D02*
D03*
Y489750D02*
D03*
X638000Y151250D02*
D03*
Y131250D02*
D03*
X666500Y151250D02*
D03*
Y131250D02*
D03*
X698500Y151000D02*
D03*
Y131000D02*
D03*
X451750Y510000D02*
D03*
Y530000D02*
D03*
X417000Y853750D02*
D03*
Y833750D02*
D03*
D57*
X135250Y240050D02*
D03*
Y227350D02*
D03*
Y214650D02*
D03*
Y201950D02*
D03*
X184750D02*
D03*
Y214650D02*
D03*
Y227350D02*
D03*
Y240050D02*
D03*
X411250Y391200D02*
D03*
Y378500D02*
D03*
Y365800D02*
D03*
Y353100D02*
D03*
Y340400D02*
D03*
Y327700D02*
D03*
Y315000D02*
D03*
Y302300D02*
D03*
X361750D02*
D03*
Y315000D02*
D03*
Y327700D02*
D03*
Y340400D02*
D03*
Y353100D02*
D03*
Y365800D02*
D03*
Y378500D02*
D03*
Y391200D02*
D03*
D58*
X98500Y825000D02*
D03*
Y854000D02*
D03*
X260000Y872500D02*
D03*
Y843500D02*
D03*
D59*
X218500Y782300D02*
D03*
X223500D02*
D03*
X243500D02*
D03*
X238500D02*
D03*
X228500D02*
D03*
X233500D02*
D03*
Y820200D02*
D03*
X228500D02*
D03*
X238500D02*
D03*
X243500D02*
D03*
X223500D02*
D03*
X218500D02*
D03*
D60*
X212050Y788750D02*
D03*
Y793750D02*
D03*
Y813750D02*
D03*
Y808750D02*
D03*
Y798750D02*
D03*
Y803750D02*
D03*
X249950Y788750D02*
D03*
Y793750D02*
D03*
Y813750D02*
D03*
Y808750D02*
D03*
Y798750D02*
D03*
Y803750D02*
D03*
D61*
X231000Y801250D02*
D03*
D62*
X541700Y570750D02*
D03*
X554400D02*
D03*
X567100D02*
D03*
X579800D02*
D03*
D63*
X541700Y633750D02*
D03*
X554400D02*
D03*
X567100D02*
D03*
X579800D02*
D03*
D64*
X439250Y830750D02*
D03*
X453250D02*
D03*
Y861750D02*
D03*
X439250D02*
D03*
D65*
X605250Y322000D02*
D03*
Y339000D02*
D03*
Y356000D02*
D03*
Y373000D02*
D03*
Y390000D02*
D03*
D66*
X510750Y356000D02*
D03*
D67*
X665750Y309815D02*
D03*
Y381185D02*
D03*
D68*
X767500Y413250D02*
D03*
Y313250D02*
D03*
D69*
X763250Y131750D02*
D03*
X798250D02*
D03*
D70*
X473000Y565950D02*
D03*
X468000D02*
D03*
X463000D02*
D03*
X458000D02*
D03*
X453000D02*
D03*
X448000D02*
D03*
X443000D02*
D03*
X438000D02*
D03*
X433000D02*
D03*
X428000D02*
D03*
X423000D02*
D03*
X418000D02*
D03*
X413000D02*
D03*
X408000D02*
D03*
X403000D02*
D03*
X398000D02*
D03*
X393000D02*
D03*
X388000D02*
D03*
X383000D02*
D03*
X378000D02*
D03*
X373000D02*
D03*
X368000D02*
D03*
X363000D02*
D03*
X358000D02*
D03*
X353000D02*
D03*
Y719550D02*
D03*
X358000D02*
D03*
X363000D02*
D03*
X368000D02*
D03*
X373000D02*
D03*
X378000D02*
D03*
X383000D02*
D03*
X388000D02*
D03*
X393000D02*
D03*
X398000D02*
D03*
X403000D02*
D03*
X408000D02*
D03*
X413000D02*
D03*
X418000D02*
D03*
X423000D02*
D03*
X428000D02*
D03*
X433000D02*
D03*
X438000D02*
D03*
X443000D02*
D03*
X448000D02*
D03*
X453000D02*
D03*
X458000D02*
D03*
X463000D02*
D03*
X468000D02*
D03*
X473000D02*
D03*
D71*
X489800Y702750D02*
D03*
Y697750D02*
D03*
Y692750D02*
D03*
Y687750D02*
D03*
Y682750D02*
D03*
Y677750D02*
D03*
Y672750D02*
D03*
Y667750D02*
D03*
Y662750D02*
D03*
Y657750D02*
D03*
Y652750D02*
D03*
Y647750D02*
D03*
Y642750D02*
D03*
Y637750D02*
D03*
Y632750D02*
D03*
Y627750D02*
D03*
Y622750D02*
D03*
Y617750D02*
D03*
Y612750D02*
D03*
Y607750D02*
D03*
Y602750D02*
D03*
Y597750D02*
D03*
Y592750D02*
D03*
Y587750D02*
D03*
Y582750D02*
D03*
X336200D02*
D03*
Y587750D02*
D03*
Y592750D02*
D03*
Y597750D02*
D03*
Y602750D02*
D03*
Y607750D02*
D03*
Y612750D02*
D03*
Y617750D02*
D03*
Y622750D02*
D03*
Y627750D02*
D03*
Y632750D02*
D03*
Y637750D02*
D03*
Y642750D02*
D03*
Y647750D02*
D03*
Y652750D02*
D03*
Y657750D02*
D03*
Y662750D02*
D03*
Y667750D02*
D03*
Y672750D02*
D03*
Y677750D02*
D03*
Y682750D02*
D03*
Y687750D02*
D03*
Y692750D02*
D03*
Y697750D02*
D03*
Y702750D02*
D03*
D72*
X791250Y53000D02*
D03*
Y839000D02*
D03*
D73*
X560850Y137800D02*
D03*
Y195300D02*
D03*
Y253300D02*
D03*
X285750Y519800D02*
D03*
Y459367D02*
D03*
Y398933D02*
D03*
Y338500D02*
D03*
D74*
X560850Y163200D02*
D03*
X484650D02*
D03*
Y137800D02*
D03*
X560850Y220700D02*
D03*
X484650D02*
D03*
Y195300D02*
D03*
X560850Y278700D02*
D03*
X484650D02*
D03*
Y253300D02*
D03*
X285750Y545200D02*
D03*
X209550D02*
D03*
Y519800D02*
D03*
X285750Y484767D02*
D03*
X209550D02*
D03*
Y459367D02*
D03*
X285750Y424333D02*
D03*
X209550D02*
D03*
Y398933D02*
D03*
X285750Y363900D02*
D03*
X209550D02*
D03*
Y338500D02*
D03*
D75*
X59000Y560250D02*
D03*
Y510250D02*
D03*
Y460250D02*
D03*
Y410250D02*
D03*
Y360250D02*
D03*
Y250750D02*
D03*
Y142500D02*
D03*
X701250Y68500D02*
D03*
X651250D02*
D03*
X601250D02*
D03*
X551250D02*
D03*
X501250D02*
D03*
X451250D02*
D03*
X401250D02*
D03*
X351250D02*
D03*
X301250D02*
D03*
X251250D02*
D03*
X201250D02*
D03*
D76*
X59000Y310250D02*
D03*
Y200750D02*
D03*
Y92500D02*
D03*
D77*
X151250Y68500D02*
D03*
D78*
X557650Y508750D02*
D03*
X532250D02*
D03*
X557650Y462000D02*
D03*
X532250D02*
D03*
X624000Y556350D02*
D03*
Y581750D02*
D03*
D79*
X506850Y508750D02*
D03*
Y462000D02*
D03*
D80*
X72750Y768650D02*
D03*
Y654350D02*
D03*
D81*
X103250Y634050D02*
D03*
Y788950D02*
D03*
D82*
X23750Y670650D02*
D03*
Y645250D02*
D03*
Y752350D02*
D03*
Y777750D02*
D03*
D83*
X161650Y667100D02*
D03*
X136250Y679800D02*
D03*
X161650Y692500D02*
D03*
X136250Y705200D02*
D03*
X161650Y717900D02*
D03*
X136250Y730600D02*
D03*
X161650Y743300D02*
D03*
D84*
X136250Y756000D02*
D03*
D85*
X744250Y511500D02*
D03*
X760750Y230750D02*
D03*
D86*
X794250Y511500D02*
D03*
X710750Y230750D02*
D03*
D87*
X568750Y792400D02*
D03*
D88*
Y767000D02*
D03*
Y741600D02*
D03*
Y716200D02*
D03*
Y690800D02*
D03*
D89*
X624000Y607150D02*
D03*
M02*
