G04*
G04 #@! TF.GenerationSoftware,Altium Limited,Altium Designer,20.0.13 (296)*
G04*
G04 Layer_Color=16711935*
%FSLAX44Y44*%
%MOMM*%
G71*
G01*
G75*
%ADD68R,1.7032X1.7032*%
%ADD75C,1.7200*%
%ADD76R,1.7200X1.7200*%
%ADD77R,1.5200X1.5200*%
%ADD78C,1.5200*%
%ADD79C,1.7032*%
%ADD80R,2.8448X1.5240*%
%ADD81O,2.8448X1.5240*%
%ADD82C,3.4532*%
%ADD83C,2.6482*%
%ADD84C,1.7332*%
%ADD85C,1.6012*%
%ADD86R,1.6012X1.6012*%
%ADD87O,4.0640X2.1336*%
%ADD88R,1.7200X1.7200*%
D68*
X563000Y237650D02*
D03*
X672650Y879650D02*
D03*
X563650D02*
D03*
X510500Y740700D02*
D03*
D75*
X825500Y251750D02*
D03*
X800100D02*
D03*
X439750Y323150D02*
D03*
Y297750D02*
D03*
D76*
X850900Y251750D02*
D03*
D77*
X1045000Y310250D02*
D03*
X969000Y788250D02*
D03*
D78*
X995000Y310250D02*
D03*
X1019000Y788250D02*
D03*
D79*
X563000Y136050D02*
D03*
Y161450D02*
D03*
Y186850D02*
D03*
Y212250D02*
D03*
X748850Y955850D02*
D03*
X723450D02*
D03*
X698050D02*
D03*
X672650D02*
D03*
X748850Y879650D02*
D03*
X723450D02*
D03*
X698050D02*
D03*
X639850Y955850D02*
D03*
X614450D02*
D03*
X589050D02*
D03*
X563650D02*
D03*
X639850Y879650D02*
D03*
X614450D02*
D03*
X589050D02*
D03*
X510500Y715300D02*
D03*
Y689900D02*
D03*
Y664500D02*
D03*
Y639100D02*
D03*
D80*
X186150Y161450D02*
D03*
Y225450D02*
D03*
Y289450D02*
D03*
X358600Y695800D02*
D03*
Y631800D02*
D03*
Y567800D02*
D03*
Y503800D02*
D03*
D81*
X186150Y136050D02*
D03*
X262350D02*
D03*
Y161450D02*
D03*
X186150Y200050D02*
D03*
X262350D02*
D03*
Y225450D02*
D03*
X186150Y264050D02*
D03*
X262350D02*
D03*
Y289450D02*
D03*
X358600Y721200D02*
D03*
X282400D02*
D03*
Y695800D02*
D03*
X358600Y657200D02*
D03*
X282400D02*
D03*
Y631800D02*
D03*
X358600Y593200D02*
D03*
X282400D02*
D03*
Y567800D02*
D03*
X358600Y529200D02*
D03*
X282400D02*
D03*
Y503800D02*
D03*
D82*
X70750Y952400D02*
D03*
Y838100D02*
D03*
D83*
X101250Y817800D02*
D03*
Y972700D02*
D03*
D84*
X21750Y854400D02*
D03*
Y829000D02*
D03*
Y936100D02*
D03*
Y961500D02*
D03*
D85*
X159650Y850850D02*
D03*
X134250Y863550D02*
D03*
X159650Y876250D02*
D03*
X134250Y888950D02*
D03*
X159650Y901650D02*
D03*
X134250Y914350D02*
D03*
X159650Y927050D02*
D03*
D86*
X134250Y939750D02*
D03*
D87*
X41550Y655250D02*
D03*
Y620250D02*
D03*
Y585250D02*
D03*
Y550250D02*
D03*
Y515250D02*
D03*
Y480250D02*
D03*
Y445250D02*
D03*
Y410250D02*
D03*
Y375250D02*
D03*
Y340250D02*
D03*
Y305250D02*
D03*
Y270250D02*
D03*
Y235250D02*
D03*
Y200250D02*
D03*
Y165250D02*
D03*
Y130250D02*
D03*
D88*
X439750Y272350D02*
D03*
M02*
