G04*
G04 #@! TF.GenerationSoftware,Altium Limited,Altium Designer,20.0.13 (296)*
G04*
G04 Layer_Color=65535*
%FSLAX44Y44*%
%MOMM*%
G71*
G01*
G75*
%ADD10C,0.2000*%
%ADD11C,0.1500*%
%ADD12C,0.1524*%
%ADD13C,0.2500*%
%ADD14C,0.2540*%
%ADD15C,0.6000*%
%ADD16C,0.3000*%
%ADD17C,0.6096*%
%ADD18C,0.1270*%
%ADD19C,0.1520*%
%ADD20R,0.5500X2.8000*%
D10*
X946250Y769750D02*
G03*
X946250Y769750I-1000J0D01*
G01*
X1070000Y310250D02*
G03*
X1070000Y310250I-50000J0D01*
G01*
X1044000Y788250D02*
G03*
X1044000Y788250I-50000J0D01*
G01*
X659250Y911400D02*
G03*
X659250Y924100I0J6350D01*
G01*
X543250Y911400D02*
G03*
X543250Y924100I0J6350D01*
G01*
X1070750Y330750D02*
G03*
X1070750Y330750I-1000J0D01*
G01*
X839500Y853000D02*
G03*
X839500Y853000I-1000J0D01*
G01*
X594000Y339850D02*
G03*
X594000Y339850I-1000J0D01*
G01*
X176300Y333550D02*
G03*
X176300Y333550I-1000J0D01*
G01*
X865000Y164750D02*
X875000D01*
X53500Y497500D02*
X139500D01*
X53750Y182250D02*
X139750D01*
X53750Y287500D02*
X139750D01*
X787400Y239050D02*
X863600D01*
X787400Y264450D02*
X863600D01*
X787400Y239050D02*
Y264450D01*
X863600Y239050D02*
Y264450D01*
X1075250Y310250D02*
X1082250D01*
X1078750Y306750D02*
Y313750D01*
X931750Y788250D02*
X938750D01*
X935250Y784750D02*
Y791750D01*
X550300Y250350D02*
X575700D01*
Y123350D02*
Y250350D01*
X550300Y123350D02*
Y250350D01*
Y123350D02*
X575700D01*
X252750Y954750D02*
X255750D01*
X252750Y963750D02*
X255750D01*
X410500Y960250D02*
X413500D01*
X410500Y969250D02*
X413500D01*
X410250Y892000D02*
Y920000D01*
Y892000D02*
X416250D01*
X410250Y920000D02*
X416250D01*
X410500Y943750D02*
X413500D01*
X410500Y952750D02*
X413500D01*
X410500Y927333D02*
X413500D01*
X410500Y936333D02*
X413500D01*
X441500Y848250D02*
X444500D01*
X441500Y857250D02*
X444500D01*
X445500Y832750D02*
X448500D01*
X445500Y841750D02*
X448500D01*
X258750Y785750D02*
X261750D01*
X258750Y794750D02*
X261750D01*
X188750Y768500D02*
X191750D01*
X188750Y777500D02*
X191750D01*
X135500Y1021000D02*
X138500D01*
X135500Y1030000D02*
X138500D01*
X135500Y1005000D02*
X138500D01*
X135500Y1014000D02*
X138500D01*
X188000Y786000D02*
X191000D01*
X188000Y795000D02*
X191000D01*
X616250Y266250D02*
Y269250D01*
X607250Y266250D02*
Y269250D01*
X669250Y266500D02*
Y269500D01*
X678250Y266500D02*
Y269500D01*
X769878Y196250D02*
Y199250D01*
X760878Y196250D02*
Y199250D01*
X711253Y196250D02*
Y199250D01*
X702253Y196250D02*
Y199250D01*
X652628Y196250D02*
Y199250D01*
X643628Y196250D02*
Y199250D01*
X760128Y155750D02*
X770128D01*
X701750D02*
X711750D01*
X643372D02*
X653372D01*
X153750Y138750D02*
Y158750D01*
Y138750D02*
X164750D01*
Y158750D01*
X153750D02*
X164750D01*
X153750Y202625D02*
Y222625D01*
Y202625D02*
X164750D01*
Y222625D01*
X153750D02*
X164750D01*
X153750Y266500D02*
Y286500D01*
Y266500D02*
X164750D01*
Y286500D01*
X153750D02*
X164750D01*
X381000Y504000D02*
Y524000D01*
Y504000D02*
X392000D01*
Y524000D01*
X381000D02*
X392000D01*
X457250Y488500D02*
X507250D01*
X457250Y470500D02*
X507250D01*
Y488500D01*
X457250Y470500D02*
Y488500D01*
X381000Y569167D02*
Y589167D01*
Y569167D02*
X392000D01*
Y589167D01*
X381000D02*
X392000D01*
X381000Y634333D02*
Y654333D01*
Y634333D02*
X392000D01*
Y654333D01*
X381000D02*
X392000D01*
X381000Y699500D02*
Y719500D01*
Y699500D02*
X392000D01*
Y719500D01*
X381000D02*
X392000D01*
X213500Y544250D02*
X233500D01*
X213500Y533250D02*
Y544250D01*
Y533250D02*
X233500D01*
Y544250D01*
X213500Y557110D02*
X233500D01*
X213500Y546110D02*
Y557110D01*
Y546110D02*
X233500D01*
Y557110D01*
X160250Y544250D02*
X180250D01*
X160250Y533250D02*
Y544250D01*
Y533250D02*
X180250D01*
Y544250D01*
X160250Y557110D02*
X180250D01*
X160250Y546110D02*
Y557110D01*
Y546110D02*
X180250D01*
Y557110D01*
X213500Y598297D02*
X233500D01*
X213500Y587297D02*
Y598297D01*
Y587297D02*
X233500D01*
Y598297D01*
X213500Y611157D02*
X233500D01*
X213500Y600157D02*
Y611157D01*
Y600157D02*
X233500D01*
Y611157D01*
X160250Y598297D02*
X180250D01*
X160250Y587297D02*
Y598297D01*
Y587297D02*
X180250D01*
Y598297D01*
X160250Y611157D02*
X180250D01*
X160250Y600157D02*
Y611157D01*
Y600157D02*
X180250D01*
Y611157D01*
X213500Y652343D02*
X233500D01*
X213500Y641343D02*
Y652343D01*
Y641343D02*
X233500D01*
Y652343D01*
X213500Y665203D02*
X233500D01*
X213500Y654203D02*
Y665203D01*
Y654203D02*
X233500D01*
Y665203D01*
X160250D02*
X180250D01*
X160250Y654203D02*
Y665203D01*
Y654203D02*
X180250D01*
Y665203D01*
X160250Y652343D02*
X180250D01*
X160250Y641343D02*
Y652343D01*
Y641343D02*
X180250D01*
Y652343D01*
X213500Y706390D02*
X233500D01*
X213500Y695390D02*
Y706390D01*
Y695390D02*
X233500D01*
Y706390D01*
X160250Y719250D02*
X180250D01*
X160250Y708250D02*
Y719250D01*
Y708250D02*
X180250D01*
Y719250D01*
X160250Y706390D02*
X180250D01*
X160250Y695390D02*
Y706390D01*
Y695390D02*
X180250D01*
Y706390D01*
X213500Y719250D02*
X233500D01*
X213500Y708250D02*
Y719250D01*
Y708250D02*
X233500D01*
Y719250D01*
X102000Y533250D02*
X122000D01*
Y544250D01*
X102000D02*
X122000D01*
X102000Y533250D02*
Y544250D01*
Y546110D02*
X122000D01*
Y557110D01*
X102000D02*
X122000D01*
X102000Y546110D02*
Y557110D01*
Y587297D02*
X122000D01*
Y598297D01*
X102000D02*
X122000D01*
X102000Y587297D02*
Y598297D01*
Y600157D02*
X122000D01*
Y611157D01*
X102000D02*
X122000D01*
X102000Y600157D02*
Y611157D01*
X102000Y641343D02*
X122000D01*
Y652343D01*
X102000D02*
X122000D01*
X102000Y641343D02*
Y652343D01*
X102000Y654203D02*
X122000D01*
Y665203D01*
X102000D02*
X122000D01*
X102000Y654203D02*
Y665203D01*
Y708250D02*
X122000D01*
Y719250D01*
X102000D02*
X122000D01*
X102000Y708250D02*
Y719250D01*
Y695390D02*
X122000D01*
Y706390D01*
X102000D02*
X122000D01*
X102000Y695390D02*
Y706390D01*
X252500Y826250D02*
X255500D01*
X252500Y835250D02*
X255500D01*
X265500Y908250D02*
Y911250D01*
X256500Y908250D02*
Y911250D01*
Y935750D02*
Y938750D01*
X265500Y935750D02*
Y938750D01*
Y851500D02*
Y854500D01*
X256500Y851500D02*
Y854500D01*
Y879542D02*
Y882542D01*
X265500Y879542D02*
Y882542D01*
X376750Y823914D02*
Y826914D01*
X385750Y823914D02*
Y826914D01*
X322500Y824000D02*
Y827000D01*
X313500Y824000D02*
Y827000D01*
X810000Y826500D02*
Y832500D01*
X777000Y826500D02*
Y832500D01*
X746000Y981750D02*
Y1001750D01*
Y981750D02*
X757000D01*
Y1001750D01*
X746000D02*
X757000D01*
X719143Y981750D02*
Y1001750D01*
Y981750D02*
X730143D01*
Y1001750D01*
X719143D02*
X730143D01*
X692286Y981750D02*
Y1001750D01*
Y981750D02*
X703286D01*
Y1001750D01*
X692286D02*
X703286D01*
X665428Y981750D02*
Y1001750D01*
Y981750D02*
X676429D01*
Y1001750D01*
X665428D02*
X676429D01*
X638571Y981750D02*
Y1001750D01*
Y981750D02*
X649571D01*
Y1001750D01*
X638571D02*
X649571D01*
X611714Y981750D02*
Y1001750D01*
Y981750D02*
X622714D01*
Y1001750D01*
X611714D02*
X622714D01*
X584857Y981750D02*
Y1001750D01*
Y981750D02*
X595857D01*
Y1001750D01*
X584857D02*
X595857D01*
X558000Y981750D02*
Y1001750D01*
Y981750D02*
X569000D01*
Y1001750D01*
X558000D02*
X569000D01*
X762250Y891250D02*
Y944250D01*
X659250Y924100D02*
Y944250D01*
Y891250D02*
Y911400D01*
Y944250D02*
X762250D01*
X659250Y891250D02*
X762250D01*
X646250D02*
Y944250D01*
X543250Y924100D02*
Y944250D01*
Y891250D02*
Y911400D01*
Y944250D02*
X646250D01*
X543250Y891250D02*
X646250D01*
X906000Y517250D02*
Y539750D01*
X1010000D01*
Y517250D02*
Y539750D01*
X497800Y626400D02*
X523200D01*
X497800D02*
Y753400D01*
X523200Y626400D02*
Y753400D01*
X497800D02*
X523200D01*
X427050Y259650D02*
X452450D01*
X427050Y335850D02*
X452450D01*
Y259650D02*
Y335850D01*
X427050Y259650D02*
Y335850D01*
X82500Y405500D02*
Y416500D01*
X102500D01*
Y405500D02*
Y416500D01*
X82500Y405500D02*
X102500D01*
X82500Y370417D02*
Y381417D01*
X102500D01*
Y370417D02*
Y381417D01*
X82500Y370417D02*
X102500D01*
X82500Y335333D02*
Y346333D01*
X102500D01*
Y335333D02*
Y346333D01*
X82500Y335333D02*
X102500D01*
X82500Y300250D02*
Y311250D01*
X102500D01*
Y300250D02*
Y311250D01*
X82500Y300250D02*
X102500D01*
X135750D02*
Y311250D01*
X115750Y300250D02*
X135750D01*
X115750D02*
Y311250D01*
X135750D01*
Y335333D02*
Y346333D01*
X115750Y335333D02*
X135750D01*
X115750D02*
Y346333D01*
X135750D01*
Y370417D02*
Y381417D01*
X115750Y370417D02*
X135750D01*
X115750D02*
Y381417D01*
X135750D01*
Y405500D02*
Y416500D01*
X115750Y405500D02*
X135750D01*
X115750D02*
Y416500D01*
X135750D01*
X268750Y1002250D02*
X274750D01*
X268750Y974250D02*
X274750D01*
X268750D02*
Y1002250D01*
X24170Y699749D02*
Y691751D01*
X28168D01*
X29501Y693084D01*
Y698416D01*
X28168Y699749D01*
X24170D01*
X37499Y698416D02*
X36166Y699749D01*
X33500D01*
X32167Y698416D01*
Y693084D01*
X33500Y691751D01*
X36166D01*
X37499Y693084D01*
Y695750D01*
X34833D01*
X40164Y691751D02*
X42830D01*
X41498D01*
Y699749D01*
X40164Y698416D01*
X428120Y352004D02*
X433452Y344006D01*
Y352004D02*
X428120Y344006D01*
X436118D02*
Y352004D01*
X440117D01*
X441449Y350671D01*
Y348005D01*
X440117Y346672D01*
X436118D01*
X444115Y350671D02*
X445448Y352004D01*
X448114D01*
X449447Y350671D01*
Y349338D01*
X448114Y348005D01*
X446781D01*
X448114D01*
X449447Y346672D01*
Y345339D01*
X448114Y344006D01*
X445448D01*
X444115Y345339D01*
X756087Y255749D02*
X761418Y247751D01*
Y255749D02*
X756087Y247751D01*
X764084D02*
Y255749D01*
X768083D01*
X769416Y254416D01*
Y251750D01*
X768083Y250417D01*
X764084D01*
X777413Y247751D02*
X772082D01*
X777413Y253083D01*
Y254416D01*
X776080Y255749D01*
X773415D01*
X772082Y254416D01*
X342585Y801749D02*
X347917Y793751D01*
Y801749D02*
X342585Y793751D01*
X350583Y800416D02*
X351916Y801749D01*
X354582D01*
X355914Y800416D01*
Y799083D01*
X354582Y797750D01*
X353249D01*
X354582D01*
X355914Y796417D01*
Y795084D01*
X354582Y793751D01*
X351916D01*
X350583Y795084D01*
X635586Y245749D02*
X640917Y237751D01*
Y245749D02*
X635586Y237751D01*
X648914D02*
X643583D01*
X648914Y243083D01*
Y244416D01*
X647582Y245749D01*
X644916D01*
X643583Y244416D01*
X498890Y769487D02*
X504222Y761490D01*
Y769487D02*
X498890Y761490D01*
X506887D02*
X509553D01*
X508220D01*
Y769487D01*
X506887Y768155D01*
X838470Y880347D02*
Y875016D01*
X841136Y872350D01*
X843802Y875016D01*
Y880347D01*
X846467Y872350D02*
Y880347D01*
X850466D01*
X851799Y879015D01*
Y876349D01*
X850466Y875016D01*
X846467D01*
X849133D02*
X851799Y872350D01*
X854465D02*
X857131D01*
X855798D01*
Y880347D01*
X854465Y879015D01*
X174528Y427397D02*
Y420733D01*
X175861Y419400D01*
X178527D01*
X179860Y420733D01*
Y427397D01*
X186524Y419400D02*
Y427397D01*
X182525Y423399D01*
X187857D01*
X567630Y536695D02*
Y530031D01*
X568963Y528698D01*
X571629D01*
X572962Y530031D01*
Y536695D01*
X575627Y535363D02*
X576960Y536695D01*
X579626D01*
X580959Y535363D01*
Y534030D01*
X579626Y532697D01*
X578293D01*
X579626D01*
X580959Y531364D01*
Y530031D01*
X579626Y528698D01*
X576960D01*
X575627Y530031D01*
X775917Y900166D02*
X774584Y901499D01*
X771918D01*
X770585Y900166D01*
Y898833D01*
X771918Y897500D01*
X774584D01*
X775917Y896167D01*
Y894834D01*
X774584Y893501D01*
X771918D01*
X770585Y894834D01*
X783914Y893501D02*
X778583D01*
X783914Y898833D01*
Y900166D01*
X782582Y901499D01*
X779916D01*
X778583Y900166D01*
X531000Y901416D02*
X529667Y902749D01*
X527001D01*
X525668Y901416D01*
Y900083D01*
X527001Y898750D01*
X529667D01*
X531000Y897417D01*
Y896084D01*
X529667Y894751D01*
X527001D01*
X525668Y896084D01*
X533666Y894751D02*
X536332D01*
X534999D01*
Y902749D01*
X533666Y901416D01*
X754998Y1007087D02*
X747001D01*
Y1011086D01*
X748334Y1012418D01*
X751000D01*
X752333Y1011086D01*
Y1007087D01*
Y1009753D02*
X754998Y1012418D01*
X748334Y1015084D02*
X747001Y1016417D01*
Y1019083D01*
X748334Y1020416D01*
X749667D01*
X751000Y1019083D01*
X752333Y1020416D01*
X753666D01*
X754998Y1019083D01*
Y1016417D01*
X753666Y1015084D01*
X752333D01*
X751000Y1016417D01*
X749667Y1015084D01*
X748334D01*
X751000Y1016417D02*
Y1019083D01*
X748334Y1023082D02*
X747001Y1024415D01*
Y1027080D01*
X748334Y1028413D01*
X749667D01*
X751000Y1027080D01*
X752333Y1028413D01*
X753666D01*
X754998Y1027080D01*
Y1024415D01*
X753666Y1023082D01*
X752333D01*
X751000Y1024415D01*
X749667Y1023082D01*
X748334D01*
X751000Y1024415D02*
Y1027080D01*
X728391Y1007087D02*
X720394D01*
Y1011086D01*
X721727Y1012418D01*
X724393D01*
X725726Y1011086D01*
Y1007087D01*
Y1009753D02*
X728391Y1012418D01*
X721727Y1015084D02*
X720394Y1016417D01*
Y1019083D01*
X721727Y1020416D01*
X723060D01*
X724393Y1019083D01*
X725726Y1020416D01*
X727058D01*
X728391Y1019083D01*
Y1016417D01*
X727058Y1015084D01*
X725726D01*
X724393Y1016417D01*
X723060Y1015084D01*
X721727D01*
X724393Y1016417D02*
Y1019083D01*
X720394Y1023082D02*
Y1028413D01*
X721727D01*
X727058Y1023082D01*
X728391D01*
X700784Y1007087D02*
X692787D01*
Y1011086D01*
X694120Y1012418D01*
X696786D01*
X698119Y1011086D01*
Y1007087D01*
Y1009753D02*
X700784Y1012418D01*
X694120Y1015084D02*
X692787Y1016417D01*
Y1019083D01*
X694120Y1020416D01*
X695453D01*
X696786Y1019083D01*
X698119Y1020416D01*
X699451D01*
X700784Y1019083D01*
Y1016417D01*
X699451Y1015084D01*
X698119D01*
X696786Y1016417D01*
X695453Y1015084D01*
X694120D01*
X696786Y1016417D02*
Y1019083D01*
X692787Y1028413D02*
X694120Y1025747D01*
X696786Y1023082D01*
X699451D01*
X700784Y1024415D01*
Y1027080D01*
X699451Y1028413D01*
X698119D01*
X696786Y1027080D01*
Y1023082D01*
X675927Y1007087D02*
X667930D01*
Y1011086D01*
X669263Y1012418D01*
X671928D01*
X673261Y1011086D01*
Y1007087D01*
Y1009753D02*
X675927Y1012418D01*
X669263Y1015084D02*
X667930Y1016417D01*
Y1019083D01*
X669263Y1020416D01*
X670596D01*
X671928Y1019083D01*
X673261Y1020416D01*
X674594D01*
X675927Y1019083D01*
Y1016417D01*
X674594Y1015084D01*
X673261D01*
X671928Y1016417D01*
X670596Y1015084D01*
X669263D01*
X671928Y1016417D02*
Y1019083D01*
X667930Y1028413D02*
Y1023082D01*
X671928D01*
X670596Y1025747D01*
Y1027080D01*
X671928Y1028413D01*
X674594D01*
X675927Y1027080D01*
Y1024415D01*
X674594Y1023082D01*
X649070Y1007087D02*
X641073D01*
Y1011086D01*
X642405Y1012418D01*
X645071D01*
X646404Y1011086D01*
Y1007087D01*
Y1009753D02*
X649070Y1012418D01*
X642405Y1015084D02*
X641073Y1016417D01*
Y1019083D01*
X642405Y1020416D01*
X643738D01*
X645071Y1019083D01*
X646404Y1020416D01*
X647737D01*
X649070Y1019083D01*
Y1016417D01*
X647737Y1015084D01*
X646404D01*
X645071Y1016417D01*
X643738Y1015084D01*
X642405D01*
X645071Y1016417D02*
Y1019083D01*
X649070Y1027080D02*
X641073D01*
X645071Y1023082D01*
Y1028413D01*
X210587Y785751D02*
Y793749D01*
X214585D01*
X215918Y792416D01*
Y789750D01*
X214585Y788417D01*
X210587D01*
X213253D02*
X215918Y785751D01*
X218584Y792416D02*
X219917Y793749D01*
X222583D01*
X223916Y792416D01*
Y791083D01*
X222583Y789750D01*
X223916Y788417D01*
Y787084D01*
X222583Y785751D01*
X219917D01*
X218584Y787084D01*
Y788417D01*
X219917Y789750D01*
X218584Y791083D01*
Y792416D01*
X219917Y789750D02*
X222583D01*
X226582Y792416D02*
X227915Y793749D01*
X230580D01*
X231913Y792416D01*
Y791083D01*
X230580Y789750D01*
X229247D01*
X230580D01*
X231913Y788417D01*
Y787084D01*
X230580Y785751D01*
X227915D01*
X226582Y787084D01*
X156587Y1005501D02*
Y1013499D01*
X160585D01*
X161918Y1012166D01*
Y1009500D01*
X160585Y1008167D01*
X156587D01*
X159253D02*
X161918Y1005501D01*
X164584Y1012166D02*
X165917Y1013499D01*
X168583D01*
X169916Y1012166D01*
Y1010833D01*
X168583Y1009500D01*
X169916Y1008167D01*
Y1006834D01*
X168583Y1005501D01*
X165917D01*
X164584Y1006834D01*
Y1008167D01*
X165917Y1009500D01*
X164584Y1010833D01*
Y1012166D01*
X165917Y1009500D02*
X168583D01*
X177913Y1005501D02*
X172582D01*
X177913Y1010833D01*
Y1012166D01*
X176580Y1013499D01*
X173915D01*
X172582Y1012166D01*
X130087Y534751D02*
Y542749D01*
X134086D01*
X135418Y541416D01*
Y538750D01*
X134086Y537417D01*
X130087D01*
X132753D02*
X135418Y534751D01*
X138084Y541416D02*
X139417Y542749D01*
X142083D01*
X143416Y541416D01*
Y540083D01*
X142083Y538750D01*
X143416Y537417D01*
Y536084D01*
X142083Y534751D01*
X139417D01*
X138084Y536084D01*
Y537417D01*
X139417Y538750D01*
X138084Y540083D01*
Y541416D01*
X139417Y538750D02*
X142083D01*
X146082Y534751D02*
X148747D01*
X147415D01*
Y542749D01*
X146082Y541416D01*
X130087Y548111D02*
Y556109D01*
X134086D01*
X135418Y554776D01*
Y552110D01*
X134086Y550777D01*
X130087D01*
X132753D02*
X135418Y548111D01*
X138084Y554776D02*
X139417Y556109D01*
X142083D01*
X143416Y554776D01*
Y553443D01*
X142083Y552110D01*
X143416Y550777D01*
Y549444D01*
X142083Y548111D01*
X139417D01*
X138084Y549444D01*
Y550777D01*
X139417Y552110D01*
X138084Y553443D01*
Y554776D01*
X139417Y552110D02*
X142083D01*
X146082Y554776D02*
X147415Y556109D01*
X150080D01*
X151413Y554776D01*
Y549444D01*
X150080Y548111D01*
X147415D01*
X146082Y549444D01*
Y554776D01*
X240087Y534751D02*
Y542749D01*
X244086D01*
X245418Y541416D01*
Y538750D01*
X244086Y537417D01*
X240087D01*
X242752D02*
X245418Y534751D01*
X248084Y542749D02*
X253416D01*
Y541416D01*
X248084Y536084D01*
Y534751D01*
X256082Y536084D02*
X257414Y534751D01*
X260080D01*
X261413Y536084D01*
Y541416D01*
X260080Y542749D01*
X257414D01*
X256082Y541416D01*
Y540083D01*
X257414Y538750D01*
X261413D01*
X239837Y548111D02*
Y556109D01*
X243836D01*
X245168Y554776D01*
Y552110D01*
X243836Y550777D01*
X239837D01*
X242503D02*
X245168Y548111D01*
X247834Y556109D02*
X253166D01*
Y554776D01*
X247834Y549444D01*
Y548111D01*
X255832Y554776D02*
X257164Y556109D01*
X259830D01*
X261163Y554776D01*
Y553443D01*
X259830Y552110D01*
X261163Y550777D01*
Y549444D01*
X259830Y548111D01*
X257164D01*
X255832Y549444D01*
Y550777D01*
X257164Y552110D01*
X255832Y553443D01*
Y554776D01*
X257164Y552110D02*
X259830D01*
X186837Y534751D02*
Y542749D01*
X190835D01*
X192168Y541416D01*
Y538750D01*
X190835Y537417D01*
X186837D01*
X189503D02*
X192168Y534751D01*
X194834Y542749D02*
X200166D01*
Y541416D01*
X194834Y536084D01*
Y534751D01*
X202832Y542749D02*
X208163D01*
Y541416D01*
X202832Y536084D01*
Y534751D01*
X186337Y548111D02*
Y556109D01*
X190336D01*
X191668Y554776D01*
Y552110D01*
X190336Y550777D01*
X186337D01*
X189003D02*
X191668Y548111D01*
X194334Y556109D02*
X199666D01*
Y554776D01*
X194334Y549444D01*
Y548111D01*
X207663Y556109D02*
X204997Y554776D01*
X202332Y552110D01*
Y549444D01*
X203664Y548111D01*
X206330D01*
X207663Y549444D01*
Y550777D01*
X206330Y552110D01*
X202332D01*
X130087Y588298D02*
Y596295D01*
X134086D01*
X135418Y594963D01*
Y592297D01*
X134086Y590964D01*
X130087D01*
X132753D02*
X135418Y588298D01*
X138084Y596295D02*
X143416D01*
Y594963D01*
X138084Y589631D01*
Y588298D01*
X151413Y596295D02*
X146082D01*
Y592297D01*
X148747Y593630D01*
X150080D01*
X151413Y592297D01*
Y589631D01*
X150080Y588298D01*
X147415D01*
X146082Y589631D01*
X130087Y602408D02*
Y610405D01*
X134086D01*
X135418Y609072D01*
Y606407D01*
X134086Y605074D01*
X130087D01*
X132753D02*
X135418Y602408D01*
X138084Y610405D02*
X143416D01*
Y609072D01*
X138084Y603741D01*
Y602408D01*
X150080D02*
Y610405D01*
X146082Y606407D01*
X151413D01*
X240837Y588298D02*
Y596295D01*
X244835D01*
X246168Y594963D01*
Y592297D01*
X244835Y590964D01*
X240837D01*
X243503D02*
X246168Y588298D01*
X248834Y596295D02*
X254166D01*
Y594963D01*
X248834Y589631D01*
Y588298D01*
X256832Y594963D02*
X258165Y596295D01*
X260830D01*
X262163Y594963D01*
Y593630D01*
X260830Y592297D01*
X259497D01*
X260830D01*
X262163Y590964D01*
Y589631D01*
X260830Y588298D01*
X258165D01*
X256832Y589631D01*
X161249Y167837D02*
X153251D01*
Y171835D01*
X154584Y173168D01*
X157250D01*
X158583Y171835D01*
Y167837D01*
Y170503D02*
X161249Y173168D01*
X153251Y175834D02*
Y181166D01*
X154584D01*
X159916Y175834D01*
X161249D01*
X154584Y183832D02*
X153251Y185165D01*
Y187830D01*
X154584Y189163D01*
X159916D01*
X161249Y187830D01*
Y185165D01*
X159916Y183832D01*
X154584D01*
X124587Y197001D02*
Y204999D01*
X128586D01*
X129918Y203666D01*
Y201000D01*
X128586Y199667D01*
X124587D01*
X127253D02*
X129918Y197001D01*
X137916Y204999D02*
X135250Y203666D01*
X132584Y201000D01*
Y198334D01*
X133917Y197001D01*
X136583D01*
X137916Y198334D01*
Y199667D01*
X136583Y201000D01*
X132584D01*
X140582Y198334D02*
X141915Y197001D01*
X144580D01*
X145913Y198334D01*
Y203666D01*
X144580Y204999D01*
X141915D01*
X140582Y203666D01*
Y202333D01*
X141915Y201000D01*
X145913D01*
X162749Y228962D02*
X154751D01*
Y232960D01*
X156084Y234293D01*
X158750D01*
X160083Y232960D01*
Y228962D01*
Y231628D02*
X162749Y234293D01*
X154751Y242291D02*
X156084Y239625D01*
X158750Y236959D01*
X161416D01*
X162749Y238292D01*
Y240958D01*
X161416Y242291D01*
X160083D01*
X158750Y240958D01*
Y236959D01*
X156084Y244957D02*
X154751Y246290D01*
Y248955D01*
X156084Y250288D01*
X157417D01*
X158750Y248955D01*
X160083Y250288D01*
X161416D01*
X162749Y248955D01*
Y246290D01*
X161416Y244957D01*
X160083D01*
X158750Y246290D01*
X157417Y244957D01*
X156084D01*
X158750Y246290D02*
Y248955D01*
X123837Y232251D02*
Y240249D01*
X127836D01*
X129168Y238916D01*
Y236250D01*
X127836Y234917D01*
X123837D01*
X126503D02*
X129168Y232251D01*
X137166Y240249D02*
X134500Y238916D01*
X131834Y236250D01*
Y233584D01*
X133167Y232251D01*
X135833D01*
X137166Y233584D01*
Y234917D01*
X135833Y236250D01*
X131834D01*
X139832Y240249D02*
X145163D01*
Y238916D01*
X139832Y233584D01*
Y232251D01*
X161499Y293587D02*
X153501D01*
Y297586D01*
X154834Y298918D01*
X157500D01*
X158833Y297586D01*
Y293587D01*
Y296252D02*
X161499Y298918D01*
X153501Y306916D02*
X154834Y304250D01*
X157500Y301584D01*
X160166D01*
X161499Y302917D01*
Y305583D01*
X160166Y306916D01*
X158833D01*
X157500Y305583D01*
Y301584D01*
X153501Y314913D02*
X154834Y312247D01*
X157500Y309582D01*
X160166D01*
X161499Y310914D01*
Y313580D01*
X160166Y314913D01*
X158833D01*
X157500Y313580D01*
Y309582D01*
X122587Y268501D02*
Y276499D01*
X126586D01*
X127918Y275166D01*
Y272500D01*
X126586Y271167D01*
X122587D01*
X125253D02*
X127918Y268501D01*
X135916Y276499D02*
X133250Y275166D01*
X130584Y272500D01*
Y269834D01*
X131917Y268501D01*
X134583D01*
X135916Y269834D01*
Y271167D01*
X134583Y272500D01*
X130584D01*
X143913Y276499D02*
X138582D01*
Y272500D01*
X141247Y273833D01*
X142580D01*
X143913Y272500D01*
Y269834D01*
X142580Y268501D01*
X139915D01*
X138582Y269834D01*
X116722Y319296D02*
Y327293D01*
X120721D01*
X122054Y325961D01*
Y323295D01*
X120721Y321962D01*
X116722D01*
X119388D02*
X122054Y319296D01*
X130051Y327293D02*
X127385Y325961D01*
X124719Y323295D01*
Y320629D01*
X126052Y319296D01*
X128718D01*
X130051Y320629D01*
Y321962D01*
X128718Y323295D01*
X124719D01*
X136715Y319296D02*
Y327293D01*
X132717Y323295D01*
X138048D01*
X116784Y354435D02*
Y362433D01*
X120783D01*
X122116Y361100D01*
Y358434D01*
X120783Y357101D01*
X116784D01*
X119450D02*
X122116Y354435D01*
X130113Y362433D02*
X127447Y361100D01*
X124781Y358434D01*
Y355768D01*
X126114Y354435D01*
X128780D01*
X130113Y355768D01*
Y357101D01*
X128780Y358434D01*
X124781D01*
X132779Y361100D02*
X134112Y362433D01*
X136777D01*
X138110Y361100D01*
Y359767D01*
X136777Y358434D01*
X135445D01*
X136777D01*
X138110Y357101D01*
Y355768D01*
X136777Y354435D01*
X134112D01*
X132779Y355768D01*
X116792Y389543D02*
Y397540D01*
X120791D01*
X122124Y396207D01*
Y393541D01*
X120791Y392208D01*
X116792D01*
X119458D02*
X122124Y389543D01*
X130121Y397540D02*
X127455Y396207D01*
X124789Y393541D01*
Y390876D01*
X126122Y389543D01*
X128788D01*
X130121Y390876D01*
Y392208D01*
X128788Y393541D01*
X124789D01*
X138118Y389543D02*
X132787D01*
X138118Y394874D01*
Y396207D01*
X136786Y397540D01*
X134120D01*
X132787Y396207D01*
X116744Y424686D02*
Y432683D01*
X120743D01*
X122076Y431351D01*
Y428685D01*
X120743Y427352D01*
X116744D01*
X119410D02*
X122076Y424686D01*
X130073Y432683D02*
X127407Y431351D01*
X124741Y428685D01*
Y426019D01*
X126074Y424686D01*
X128740D01*
X130073Y426019D01*
Y427352D01*
X128740Y428685D01*
X124741D01*
X132739Y424686D02*
X135405D01*
X134072D01*
Y432683D01*
X132739Y431351D01*
X83378Y319204D02*
Y327201D01*
X87377D01*
X88710Y325868D01*
Y323203D01*
X87377Y321870D01*
X83378D01*
X86044D02*
X88710Y319204D01*
X96707Y327201D02*
X91375D01*
Y323203D01*
X94041Y324536D01*
X95374D01*
X96707Y323203D01*
Y320537D01*
X95374Y319204D01*
X92708D01*
X91375Y320537D01*
X99373Y325868D02*
X100706Y327201D01*
X103371D01*
X104704Y325868D01*
Y324536D01*
X103371Y323203D01*
X104704Y321870D01*
Y320537D01*
X103371Y319204D01*
X100706D01*
X99373Y320537D01*
Y321870D01*
X100706Y323203D01*
X99373Y324536D01*
Y325868D01*
X100706Y323203D02*
X103371D01*
X83458Y354315D02*
Y362313D01*
X87457D01*
X88790Y360980D01*
Y358314D01*
X87457Y356981D01*
X83458D01*
X86124D02*
X88790Y354315D01*
X96787Y362313D02*
X91455D01*
Y358314D01*
X94121Y359647D01*
X95454D01*
X96787Y358314D01*
Y355648D01*
X95454Y354315D01*
X92788D01*
X91455Y355648D01*
X99453Y362313D02*
X104784D01*
Y360980D01*
X99453Y355648D01*
Y354315D01*
X83502Y389431D02*
Y397428D01*
X87501D01*
X88834Y396095D01*
Y393429D01*
X87501Y392096D01*
X83502D01*
X86168D02*
X88834Y389431D01*
X96831Y397428D02*
X91499D01*
Y393429D01*
X94165Y394762D01*
X95498D01*
X96831Y393429D01*
Y390764D01*
X95498Y389431D01*
X92832D01*
X91499Y390764D01*
X104828Y397428D02*
X102163Y396095D01*
X99497Y393429D01*
Y390764D01*
X100830Y389431D01*
X103496D01*
X104828Y390764D01*
Y392096D01*
X103496Y393429D01*
X99497D01*
X558749Y269837D02*
X550751D01*
Y273836D01*
X552084Y275168D01*
X554750D01*
X556083Y273836D01*
Y269837D01*
Y272503D02*
X558749Y275168D01*
X550751Y283166D02*
Y277834D01*
X554750D01*
X553417Y280500D01*
Y281833D01*
X554750Y283166D01*
X557416D01*
X558749Y281833D01*
Y279167D01*
X557416Y277834D01*
X550751Y291163D02*
Y285832D01*
X554750D01*
X553417Y288497D01*
Y289830D01*
X554750Y291163D01*
X557416D01*
X558749Y289830D01*
Y287165D01*
X557416Y285832D01*
X83434Y424694D02*
Y432691D01*
X87433D01*
X88766Y431358D01*
Y428693D01*
X87433Y427360D01*
X83434D01*
X86100D02*
X88766Y424694D01*
X96763Y432691D02*
X91431D01*
Y428693D01*
X94097Y430026D01*
X95430D01*
X96763Y428693D01*
Y426027D01*
X95430Y424694D01*
X92764D01*
X91431Y426027D01*
X103428Y424694D02*
Y432691D01*
X99429Y428693D01*
X104760D01*
X210837Y768501D02*
Y776499D01*
X214835D01*
X216168Y775166D01*
Y772500D01*
X214835Y771167D01*
X210837D01*
X213503D02*
X216168Y768501D01*
X222833D02*
Y776499D01*
X218834Y772500D01*
X224166D01*
X232163Y776499D02*
X229497Y775166D01*
X226832Y772500D01*
Y769834D01*
X228165Y768501D01*
X230830D01*
X232163Y769834D01*
Y771167D01*
X230830Y772500D01*
X226832D01*
X155337Y1022001D02*
Y1029999D01*
X159335D01*
X160668Y1028666D01*
Y1026000D01*
X159335Y1024667D01*
X155337D01*
X158003D02*
X160668Y1022001D01*
X167333D02*
Y1029999D01*
X163334Y1026000D01*
X168666D01*
X176663Y1029999D02*
X171332D01*
Y1026000D01*
X173997Y1027333D01*
X175330D01*
X176663Y1026000D01*
Y1023334D01*
X175330Y1022001D01*
X172665D01*
X171332Y1023334D01*
X240837Y602408D02*
Y610405D01*
X244835D01*
X246168Y609072D01*
Y606407D01*
X244835Y605074D01*
X240837D01*
X243503D02*
X246168Y602408D01*
X252833D02*
Y610405D01*
X248834Y606407D01*
X254166D01*
X260830Y602408D02*
Y610405D01*
X256832Y606407D01*
X262163D01*
X433337Y961251D02*
Y969249D01*
X437336D01*
X438668Y967916D01*
Y965250D01*
X437336Y963917D01*
X433337D01*
X436003D02*
X438668Y961251D01*
X445333D02*
Y969249D01*
X441334Y965250D01*
X446666D01*
X449332Y967916D02*
X450664Y969249D01*
X453330D01*
X454663Y967916D01*
Y966583D01*
X453330Y965250D01*
X451997D01*
X453330D01*
X454663Y963917D01*
Y962584D01*
X453330Y961251D01*
X450664D01*
X449332Y962584D01*
X186087Y588298D02*
Y596295D01*
X190085D01*
X191418Y594963D01*
Y592297D01*
X190085Y590964D01*
X186087D01*
X188752D02*
X191418Y588298D01*
X198083D02*
Y596295D01*
X194084Y592297D01*
X199416D01*
X207413Y588298D02*
X202082D01*
X207413Y593630D01*
Y594963D01*
X206080Y596295D01*
X203414D01*
X202082Y594963D01*
X251170Y768751D02*
Y776749D01*
X255168D01*
X256501Y775416D01*
Y772750D01*
X255168Y771417D01*
X251170D01*
X253836D02*
X256501Y768751D01*
X263166D02*
Y776749D01*
X259167Y772750D01*
X264499D01*
X267164Y768751D02*
X269830D01*
X268498D01*
Y776749D01*
X267164Y775416D01*
X433337Y944751D02*
Y952749D01*
X437336D01*
X438668Y951416D01*
Y948750D01*
X437336Y947417D01*
X433337D01*
X436003D02*
X438668Y944751D01*
X445333D02*
Y952749D01*
X441334Y948750D01*
X446666D01*
X449332Y951416D02*
X450664Y952749D01*
X453330D01*
X454663Y951416D01*
Y946084D01*
X453330Y944751D01*
X450664D01*
X449332Y946084D01*
Y951416D01*
X433587Y928251D02*
Y936249D01*
X437585D01*
X438918Y934916D01*
Y932250D01*
X437585Y930917D01*
X433587D01*
X436253D02*
X438918Y928251D01*
X441584Y934916D02*
X442917Y936249D01*
X445583D01*
X446916Y934916D01*
Y933583D01*
X445583Y932250D01*
X444250D01*
X445583D01*
X446916Y930917D01*
Y929584D01*
X445583Y928251D01*
X442917D01*
X441584Y929584D01*
X449582D02*
X450914Y928251D01*
X453580D01*
X454913Y929584D01*
Y934916D01*
X453580Y936249D01*
X450914D01*
X449582Y934916D01*
Y933583D01*
X450914Y932250D01*
X454913D01*
X469587Y833751D02*
Y841749D01*
X473586D01*
X474918Y840416D01*
Y837750D01*
X473586Y836417D01*
X469587D01*
X472253D02*
X474918Y833751D01*
X477584Y840416D02*
X478917Y841749D01*
X481583D01*
X482916Y840416D01*
Y839083D01*
X481583Y837750D01*
X480250D01*
X481583D01*
X482916Y836417D01*
Y835084D01*
X481583Y833751D01*
X478917D01*
X477584Y835084D01*
X485582Y840416D02*
X486914Y841749D01*
X489580D01*
X490913Y840416D01*
Y839083D01*
X489580Y837750D01*
X490913Y836417D01*
Y835084D01*
X489580Y833751D01*
X486914D01*
X485582Y835084D01*
Y836417D01*
X486914Y837750D01*
X485582Y839083D01*
Y840416D01*
X486914Y837750D02*
X489580D01*
X465587Y849085D02*
Y857082D01*
X469585D01*
X470918Y855749D01*
Y853083D01*
X469585Y851750D01*
X465587D01*
X468253D02*
X470918Y849085D01*
X473584Y855749D02*
X474917Y857082D01*
X477583D01*
X478916Y855749D01*
Y854416D01*
X477583Y853083D01*
X476250D01*
X477583D01*
X478916Y851750D01*
Y850418D01*
X477583Y849085D01*
X474917D01*
X473584Y850418D01*
X481582Y857082D02*
X486913D01*
Y855749D01*
X481582Y850418D01*
Y849085D01*
X185837Y602408D02*
Y610405D01*
X189835D01*
X191168Y609072D01*
Y606407D01*
X189835Y605074D01*
X185837D01*
X188503D02*
X191168Y602408D01*
X193834Y609072D02*
X195167Y610405D01*
X197833D01*
X199166Y609072D01*
Y607740D01*
X197833Y606407D01*
X196500D01*
X197833D01*
X199166Y605074D01*
Y603741D01*
X197833Y602408D01*
X195167D01*
X193834Y603741D01*
X207163Y610405D02*
X201832D01*
Y606407D01*
X204497Y607740D01*
X205830D01*
X207163Y606407D01*
Y603741D01*
X205830Y602408D01*
X203165D01*
X201832Y603741D01*
X130087Y641845D02*
Y649842D01*
X134086D01*
X135418Y648509D01*
Y645843D01*
X134086Y644510D01*
X130087D01*
X132753D02*
X135418Y641845D01*
X138084Y648509D02*
X139417Y649842D01*
X142083D01*
X143416Y648509D01*
Y647176D01*
X142083Y645843D01*
X140750D01*
X142083D01*
X143416Y644510D01*
Y643177D01*
X142083Y641845D01*
X139417D01*
X138084Y643177D01*
X150080Y641845D02*
Y649842D01*
X146082Y645843D01*
X151413D01*
X130087Y655705D02*
Y663702D01*
X134086D01*
X135418Y662369D01*
Y659703D01*
X134086Y658370D01*
X130087D01*
X132753D02*
X135418Y655705D01*
X138084Y662369D02*
X139417Y663702D01*
X142083D01*
X143416Y662369D01*
Y661036D01*
X142083Y659703D01*
X140750D01*
X142083D01*
X143416Y658370D01*
Y657038D01*
X142083Y655705D01*
X139417D01*
X138084Y657038D01*
X146082Y662369D02*
X147415Y663702D01*
X150080D01*
X151413Y662369D01*
Y661036D01*
X150080Y659703D01*
X148747D01*
X150080D01*
X151413Y658370D01*
Y657038D01*
X150080Y655705D01*
X147415D01*
X146082Y657038D01*
X241337Y641845D02*
Y649842D01*
X245336D01*
X246668Y648509D01*
Y645843D01*
X245336Y644510D01*
X241337D01*
X244003D02*
X246668Y641845D01*
X249334Y648509D02*
X250667Y649842D01*
X253333D01*
X254666Y648509D01*
Y647176D01*
X253333Y645843D01*
X252000D01*
X253333D01*
X254666Y644510D01*
Y643177D01*
X253333Y641845D01*
X250667D01*
X249334Y643177D01*
X262663Y641845D02*
X257332D01*
X262663Y647176D01*
Y648509D01*
X261330Y649842D01*
X258664D01*
X257332Y648509D01*
X248499Y901920D02*
X240501D01*
Y905918D01*
X241834Y907251D01*
X244500D01*
X245833Y905918D01*
Y901920D01*
Y904585D02*
X248499Y907251D01*
X241834Y909917D02*
X240501Y911250D01*
Y913916D01*
X241834Y915249D01*
X243167D01*
X244500Y913916D01*
Y912583D01*
Y913916D01*
X245833Y915249D01*
X247166D01*
X248499Y913916D01*
Y911250D01*
X247166Y909917D01*
X248499Y917915D02*
Y920580D01*
Y919247D01*
X240501D01*
X241834Y917915D01*
X248499Y928337D02*
X240501D01*
Y932336D01*
X241834Y933668D01*
X244500D01*
X245833Y932336D01*
Y928337D01*
Y931003D02*
X248499Y933668D01*
X241834Y936334D02*
X240501Y937667D01*
Y940333D01*
X241834Y941666D01*
X243167D01*
X244500Y940333D01*
Y939000D01*
Y940333D01*
X245833Y941666D01*
X247166D01*
X248499Y940333D01*
Y937667D01*
X247166Y936334D01*
X241834Y944332D02*
X240501Y945665D01*
Y948330D01*
X241834Y949663D01*
X247166D01*
X248499Y948330D01*
Y945665D01*
X247166Y944332D01*
X241834D01*
X248499Y841337D02*
X240501D01*
Y845335D01*
X241834Y846668D01*
X244500D01*
X245833Y845335D01*
Y841337D01*
Y844003D02*
X248499Y846668D01*
Y854666D02*
Y849334D01*
X243167Y854666D01*
X241834D01*
X240501Y853333D01*
Y850667D01*
X241834Y849334D01*
X247166Y857332D02*
X248499Y858664D01*
Y861330D01*
X247166Y862663D01*
X241834D01*
X240501Y861330D01*
Y858664D01*
X241834Y857332D01*
X243167D01*
X244500Y858664D01*
Y862663D01*
X248499Y870337D02*
X240501D01*
Y874335D01*
X241834Y875668D01*
X244500D01*
X245833Y874335D01*
Y870337D01*
Y873003D02*
X248499Y875668D01*
Y883666D02*
Y878334D01*
X243167Y883666D01*
X241834D01*
X240501Y882333D01*
Y879667D01*
X241834Y878334D01*
Y886332D02*
X240501Y887664D01*
Y890330D01*
X241834Y891663D01*
X243167D01*
X244500Y890330D01*
X245833Y891663D01*
X247166D01*
X248499Y890330D01*
Y887664D01*
X247166Y886332D01*
X245833D01*
X244500Y887664D01*
X243167Y886332D01*
X241834D01*
X244500Y887664D02*
Y890330D01*
X390249Y530587D02*
X382251D01*
Y534585D01*
X383584Y535918D01*
X386250D01*
X387583Y534585D01*
Y530587D01*
Y533253D02*
X390249Y535918D01*
Y543916D02*
Y538584D01*
X384917Y543916D01*
X383584D01*
X382251Y542583D01*
Y539917D01*
X383584Y538584D01*
X382251Y546582D02*
Y551913D01*
X383584D01*
X388916Y546582D01*
X390249D01*
X434749Y512587D02*
X426751D01*
Y516586D01*
X428084Y517918D01*
X430750D01*
X432083Y516586D01*
Y512587D01*
Y515253D02*
X434749Y517918D01*
Y525916D02*
Y520584D01*
X429417Y525916D01*
X428084D01*
X426751Y524583D01*
Y521917D01*
X428084Y520584D01*
X426751Y533913D02*
X428084Y531247D01*
X430750Y528582D01*
X433416D01*
X434749Y529915D01*
Y532580D01*
X433416Y533913D01*
X432083D01*
X430750Y532580D01*
Y528582D01*
X621213Y1007087D02*
X613215D01*
Y1011086D01*
X614548Y1012418D01*
X617214D01*
X618547Y1011086D01*
Y1007087D01*
Y1009753D02*
X621213Y1012418D01*
Y1020416D02*
Y1015084D01*
X615881Y1020416D01*
X614548D01*
X613215Y1019083D01*
Y1016417D01*
X614548Y1015084D01*
X613215Y1028413D02*
Y1023082D01*
X617214D01*
X615881Y1025747D01*
Y1027080D01*
X617214Y1028413D01*
X619880D01*
X621213Y1027080D01*
Y1024415D01*
X619880Y1023082D01*
X597356Y1007087D02*
X589358D01*
Y1011086D01*
X590691Y1012418D01*
X593357D01*
X594690Y1011086D01*
Y1007087D01*
Y1009753D02*
X597356Y1012418D01*
Y1020416D02*
Y1015084D01*
X592024Y1020416D01*
X590691D01*
X589358Y1019083D01*
Y1016417D01*
X590691Y1015084D01*
X597356Y1027080D02*
X589358D01*
X593357Y1023082D01*
Y1028413D01*
X391499Y597753D02*
X383501D01*
Y601752D01*
X384834Y603085D01*
X387500D01*
X388833Y601752D01*
Y597753D01*
Y600419D02*
X391499Y603085D01*
Y611082D02*
Y605751D01*
X386167Y611082D01*
X384834D01*
X383501Y609750D01*
Y607084D01*
X384834Y605751D01*
Y613748D02*
X383501Y615081D01*
Y617747D01*
X384834Y619080D01*
X386167D01*
X387500Y617747D01*
Y616414D01*
Y617747D01*
X388833Y619080D01*
X390166D01*
X391499Y617747D01*
Y615081D01*
X390166Y613748D01*
X434999Y575170D02*
X427001D01*
Y579169D01*
X428334Y580502D01*
X431000D01*
X432333Y579169D01*
Y575170D01*
Y577836D02*
X434999Y580502D01*
Y588499D02*
Y583167D01*
X429667Y588499D01*
X428334D01*
X427001Y587166D01*
Y584500D01*
X428334Y583167D01*
X434999Y596497D02*
Y591165D01*
X429667Y596497D01*
X428334D01*
X427001Y595164D01*
Y592498D01*
X428334Y591165D01*
X391499Y663253D02*
X383501D01*
Y667252D01*
X384834Y668585D01*
X387500D01*
X388833Y667252D01*
Y663253D01*
Y665919D02*
X391499Y668585D01*
Y676582D02*
Y671250D01*
X386167Y676582D01*
X384834D01*
X383501Y675249D01*
Y672583D01*
X384834Y671250D01*
X391499Y679248D02*
Y681914D01*
Y680581D01*
X383501D01*
X384834Y679248D01*
X437499Y636753D02*
X429501D01*
Y640752D01*
X430834Y642085D01*
X433500D01*
X434833Y640752D01*
Y636753D01*
Y639419D02*
X437499Y642085D01*
Y650082D02*
Y644751D01*
X432167Y650082D01*
X430834D01*
X429501Y648750D01*
Y646084D01*
X430834Y644751D01*
Y652748D02*
X429501Y654081D01*
Y656747D01*
X430834Y658080D01*
X436166D01*
X437499Y656747D01*
Y654081D01*
X436166Y652748D01*
X430834D01*
X392249Y726503D02*
X384251D01*
Y730502D01*
X385584Y731835D01*
X388250D01*
X389583Y730502D01*
Y726503D01*
Y729169D02*
X392249Y731835D01*
Y734501D02*
Y737166D01*
Y735834D01*
X384251D01*
X385584Y734501D01*
X390916Y741165D02*
X392249Y742498D01*
Y745164D01*
X390916Y746497D01*
X385584D01*
X384251Y745164D01*
Y742498D01*
X385584Y741165D01*
X386917D01*
X388250Y742498D01*
Y746497D01*
X439249Y700503D02*
X431251D01*
Y704502D01*
X432584Y705835D01*
X435250D01*
X436583Y704502D01*
Y700503D01*
Y703169D02*
X439249Y705835D01*
Y708501D02*
Y711166D01*
Y709834D01*
X431251D01*
X432584Y708501D01*
Y715165D02*
X431251Y716498D01*
Y719164D01*
X432584Y720497D01*
X433917D01*
X435250Y719164D01*
X436583Y720497D01*
X437916D01*
X439249Y719164D01*
Y716498D01*
X437916Y715165D01*
X436583D01*
X435250Y716498D01*
X433917Y715165D01*
X432584D01*
X435250Y716498D02*
Y719164D01*
X186253Y710251D02*
Y718249D01*
X190252D01*
X191585Y716916D01*
Y714250D01*
X190252Y712917D01*
X186253D01*
X188919D02*
X191585Y710251D01*
X194251D02*
X196916D01*
X195583D01*
Y718249D01*
X194251Y716916D01*
X200915Y718249D02*
X206247D01*
Y716916D01*
X200915Y711584D01*
Y710251D01*
X187253Y696891D02*
Y704889D01*
X191252D01*
X192585Y703556D01*
Y700890D01*
X191252Y699557D01*
X187253D01*
X189919D02*
X192585Y696891D01*
X195251D02*
X197916D01*
X196584D01*
Y704889D01*
X195251Y703556D01*
X207247Y704889D02*
X204581Y703556D01*
X201915Y700890D01*
Y698224D01*
X203248Y696891D01*
X205914D01*
X207247Y698224D01*
Y699557D01*
X205914Y700890D01*
X201915D01*
X780879Y206247D02*
X788877D01*
Y202248D01*
X787544Y200915D01*
X784878D01*
X783545Y202248D01*
Y206247D01*
Y203581D02*
X780879Y200915D01*
Y198249D02*
Y195583D01*
Y196916D01*
X788877D01*
X787544Y198249D01*
X788877Y186253D02*
Y191585D01*
X784878D01*
X786211Y188919D01*
Y187586D01*
X784878Y186253D01*
X782212D01*
X780879Y187586D01*
Y190252D01*
X782212Y191585D01*
X723504Y207497D02*
X731502D01*
Y203498D01*
X730169Y202165D01*
X727503D01*
X726170Y203498D01*
Y207497D01*
Y204831D02*
X723504Y202165D01*
Y199499D02*
Y196834D01*
Y198167D01*
X731502D01*
X730169Y199499D01*
X723504Y188836D02*
X731502D01*
X727503Y192835D01*
Y187503D01*
X663379Y205497D02*
X671377D01*
Y201498D01*
X670044Y200165D01*
X667378D01*
X666045Y201498D01*
Y205497D01*
Y202831D02*
X663379Y200165D01*
Y197499D02*
Y194834D01*
Y196166D01*
X671377D01*
X670044Y197499D01*
Y190835D02*
X671377Y189502D01*
Y186836D01*
X670044Y185503D01*
X668711D01*
X667378Y186836D01*
Y188169D01*
Y186836D01*
X666045Y185503D01*
X664712D01*
X663379Y186836D01*
Y189502D01*
X664712Y190835D01*
X536503Y354001D02*
Y361999D01*
X540502D01*
X541835Y360666D01*
Y358000D01*
X540502Y356667D01*
X536503D01*
X539169D02*
X541835Y354001D01*
X544501D02*
X547166D01*
X545834D01*
Y361999D01*
X544501Y360666D01*
X556497Y354001D02*
X551165D01*
X556497Y359333D01*
Y360666D01*
X555164Y361999D01*
X552498D01*
X551165Y360666D01*
X240836Y710251D02*
Y718249D01*
X244835D01*
X246168Y716916D01*
Y714250D01*
X244835Y712917D01*
X240836D01*
X243502D02*
X246168Y710251D01*
X248834D02*
X251499D01*
X250166D01*
Y718249D01*
X248834Y716916D01*
X255498Y710251D02*
X258164D01*
X256831D01*
Y718249D01*
X255498Y716916D01*
X241003Y696891D02*
Y704889D01*
X245002D01*
X246335Y703556D01*
Y700890D01*
X245002Y699557D01*
X241003D01*
X243669D02*
X246335Y696891D01*
X249001D02*
X251666D01*
X250333D01*
Y704889D01*
X249001Y703556D01*
X255665D02*
X256998Y704889D01*
X259664D01*
X260997Y703556D01*
Y698224D01*
X259664Y696891D01*
X256998D01*
X255665Y698224D01*
Y703556D01*
X566749Y1007087D02*
X558751D01*
Y1011086D01*
X560084Y1012418D01*
X562750D01*
X564083Y1011086D01*
Y1007087D01*
Y1009753D02*
X566749Y1012418D01*
X565416Y1015084D02*
X566749Y1016417D01*
Y1019083D01*
X565416Y1020416D01*
X560084D01*
X558751Y1019083D01*
Y1016417D01*
X560084Y1015084D01*
X561417D01*
X562750Y1016417D01*
Y1020416D01*
X243836Y655705D02*
Y663702D01*
X247834D01*
X249167Y662369D01*
Y659703D01*
X247834Y658370D01*
X243836D01*
X246501D02*
X249167Y655705D01*
X251833Y662369D02*
X253166Y663702D01*
X255832D01*
X257164Y662369D01*
Y661036D01*
X255832Y659703D01*
X257164Y658370D01*
Y657038D01*
X255832Y655705D01*
X253166D01*
X251833Y657038D01*
Y658370D01*
X253166Y659703D01*
X251833Y661036D01*
Y662369D01*
X253166Y659703D02*
X255832D01*
X187335Y641845D02*
Y649842D01*
X191334D01*
X192667Y648509D01*
Y645843D01*
X191334Y644510D01*
X187335D01*
X190001D02*
X192667Y641845D01*
X195333Y649842D02*
X200665D01*
Y648509D01*
X195333Y643177D01*
Y641845D01*
X890454Y172584D02*
Y180581D01*
X894453D01*
X895786Y179249D01*
Y176583D01*
X894453Y175250D01*
X890454D01*
X893120D02*
X895786Y172584D01*
X903783Y180581D02*
X901117Y179249D01*
X898451Y176583D01*
Y173917D01*
X899784Y172584D01*
X902450D01*
X903783Y173917D01*
Y175250D01*
X902450Y176583D01*
X898451D01*
X188085Y655705D02*
Y663702D01*
X192084D01*
X193417Y662369D01*
Y659703D01*
X192084Y658370D01*
X188085D01*
X190751D02*
X193417Y655705D01*
X201415Y663702D02*
X196083D01*
Y659703D01*
X198749Y661036D01*
X200082D01*
X201415Y659703D01*
Y657038D01*
X200082Y655705D01*
X197416D01*
X196083Y657038D01*
X130087Y696891D02*
Y704889D01*
X134086D01*
X135418Y703556D01*
Y700890D01*
X134086Y699557D01*
X130087D01*
X132753D02*
X135418Y696891D01*
X142083D02*
Y704889D01*
X138084Y700890D01*
X143416D01*
X130087Y710251D02*
Y718249D01*
X134086D01*
X135418Y716916D01*
Y714250D01*
X134086Y712917D01*
X130087D01*
X132753D02*
X135418Y710251D01*
X138084Y716916D02*
X139417Y718249D01*
X142083D01*
X143416Y716916D01*
Y715583D01*
X142083Y714250D01*
X140750D01*
X142083D01*
X143416Y712917D01*
Y711584D01*
X142083Y710251D01*
X139417D01*
X138084Y711584D01*
X823586Y559501D02*
Y567499D01*
X827584D01*
X828917Y566166D01*
Y563500D01*
X827584Y562167D01*
X823586D01*
X826251D02*
X828917Y559501D01*
X836915D02*
X831583D01*
X836915Y564833D01*
Y566166D01*
X835582Y567499D01*
X832916D01*
X831583Y566166D01*
X824418Y580251D02*
Y588249D01*
X828417D01*
X829750Y586916D01*
Y584250D01*
X828417Y582917D01*
X824418D01*
X827084D02*
X829750Y580251D01*
X832416D02*
X835082D01*
X833749D01*
Y588249D01*
X832416Y586916D01*
X217085Y148999D02*
X214420D01*
X213087Y147666D01*
Y142334D01*
X214420Y141001D01*
X217085D01*
X218418Y142334D01*
Y147666D01*
X217085Y148999D01*
X221084D02*
Y141001D01*
Y143667D01*
X226416Y148999D01*
X222417Y145000D01*
X226416Y141001D01*
X229082Y148999D02*
X234413D01*
Y147666D01*
X229082Y142334D01*
Y141001D01*
X214835Y216249D02*
X212170D01*
X210837Y214916D01*
Y209584D01*
X212170Y208251D01*
X214835D01*
X216168Y209584D01*
Y214916D01*
X214835Y216249D01*
X218834D02*
Y208251D01*
Y210917D01*
X224166Y216249D01*
X220167Y212250D01*
X224166Y208251D01*
X232163Y216249D02*
X229497Y214916D01*
X226832Y212250D01*
Y209584D01*
X228165Y208251D01*
X230830D01*
X232163Y209584D01*
Y210917D01*
X230830Y212250D01*
X226832D01*
X215585Y281249D02*
X212920D01*
X211587Y279916D01*
Y274584D01*
X212920Y273251D01*
X215585D01*
X216918Y274584D01*
Y279916D01*
X215585Y281249D01*
X219584D02*
Y273251D01*
Y275917D01*
X224916Y281249D01*
X220917Y277250D01*
X224916Y273251D01*
X232913Y281249D02*
X227582D01*
Y277250D01*
X230247Y278583D01*
X231580D01*
X232913Y277250D01*
Y274584D01*
X231580Y273251D01*
X228915D01*
X227582Y274584D01*
X315336Y522499D02*
X312670D01*
X311337Y521166D01*
Y515834D01*
X312670Y514501D01*
X315336D01*
X316668Y515834D01*
Y521166D01*
X315336Y522499D01*
X319334D02*
Y514501D01*
Y517167D01*
X324666Y522499D01*
X320667Y518500D01*
X324666Y514501D01*
X331330D02*
Y522499D01*
X327332Y518500D01*
X332663D01*
X314835Y587999D02*
X312170D01*
X310837Y586666D01*
Y581334D01*
X312170Y580001D01*
X314835D01*
X316168Y581334D01*
Y586666D01*
X314835Y587999D01*
X318834D02*
Y580001D01*
Y582667D01*
X324166Y587999D01*
X320167Y584000D01*
X324166Y580001D01*
X326832Y586666D02*
X328164Y587999D01*
X330830D01*
X332163Y586666D01*
Y585333D01*
X330830Y584000D01*
X329497D01*
X330830D01*
X332163Y582667D01*
Y581334D01*
X330830Y580001D01*
X328164D01*
X326832Y581334D01*
X314335Y652999D02*
X311670D01*
X310337Y651666D01*
Y646334D01*
X311670Y645001D01*
X314335D01*
X315668Y646334D01*
Y651666D01*
X314335Y652999D01*
X318334D02*
Y645001D01*
Y647667D01*
X323666Y652999D01*
X319667Y649000D01*
X323666Y645001D01*
X331663D02*
X326332D01*
X331663Y650333D01*
Y651666D01*
X330330Y652999D01*
X327665D01*
X326332Y651666D01*
X316168Y716249D02*
X313503D01*
X312170Y714916D01*
Y709584D01*
X313503Y708251D01*
X316168D01*
X317501Y709584D01*
Y714916D01*
X316168Y716249D01*
X320167D02*
Y708251D01*
Y710917D01*
X325499Y716249D01*
X321500Y712250D01*
X325499Y708251D01*
X328164D02*
X330830D01*
X329497D01*
Y716249D01*
X328164Y714916D01*
X811112Y768217D02*
Y760220D01*
X816444D01*
X819109D02*
X821775D01*
X820442D01*
Y768217D01*
X819109Y766885D01*
X26667Y793499D02*
X24001D01*
X25334D01*
Y786834D01*
X24001Y785501D01*
X22668D01*
X21335Y786834D01*
X29333Y792166D02*
X30666Y793499D01*
X33332D01*
X34664Y792166D01*
Y790833D01*
X33332Y789500D01*
X34664Y788167D01*
Y786834D01*
X33332Y785501D01*
X30666D01*
X29333Y786834D01*
Y788167D01*
X30666Y789500D01*
X29333Y790833D01*
Y792166D01*
X30666Y789500D02*
X33332D01*
X346501Y905753D02*
Y908419D01*
Y907086D01*
X354499D01*
Y905753D01*
Y908419D01*
X347834Y917749D02*
X346501Y916416D01*
Y913751D01*
X347834Y912418D01*
X353166D01*
X354499Y913751D01*
Y916416D01*
X353166Y917749D01*
X354499Y925747D02*
Y920415D01*
X349167Y925747D01*
X347834D01*
X346501Y924414D01*
Y921748D01*
X347834Y920415D01*
X473086Y532999D02*
X475752D01*
X474419D01*
Y525001D01*
X473086D01*
X475752D01*
X485082Y531666D02*
X483749Y532999D01*
X481084D01*
X479751Y531666D01*
Y526334D01*
X481084Y525001D01*
X483749D01*
X485082Y526334D01*
X487748Y525001D02*
X490414D01*
X489081D01*
Y532999D01*
X487748Y531666D01*
X904584Y600323D02*
Y592326D01*
X908583D01*
X909916Y593659D01*
Y598991D01*
X908583Y600323D01*
X904584D01*
X912581D02*
Y592326D01*
X916580D01*
X917913Y593659D01*
Y598991D01*
X916580Y600323D01*
X912581D01*
X920579Y592326D02*
X923245D01*
X921912D01*
Y600323D01*
X920579Y598991D01*
X959702Y670173D02*
Y662176D01*
X963701D01*
X965034Y663509D01*
Y668840D01*
X963701Y670173D01*
X959702D01*
X973031Y662176D02*
X967699D01*
X973031Y667508D01*
Y668840D01*
X971698Y670173D01*
X969032D01*
X967699Y668840D01*
X671834Y310168D02*
X670501Y308836D01*
Y306170D01*
X671834Y304837D01*
X677166D01*
X678499Y306170D01*
Y308836D01*
X677166Y310168D01*
X671834Y312834D02*
X670501Y314167D01*
Y316833D01*
X671834Y318166D01*
X673167D01*
X674500Y316833D01*
Y315500D01*
Y316833D01*
X675833Y318166D01*
X677166D01*
X678499Y316833D01*
Y314167D01*
X677166Y312834D01*
X670501Y320832D02*
Y326163D01*
X671834D01*
X677166Y320832D01*
X678499D01*
X640834Y310418D02*
X639501Y309086D01*
Y306420D01*
X640834Y305087D01*
X646166D01*
X647499Y306420D01*
Y309086D01*
X646166Y310418D01*
X640834Y313084D02*
X639501Y314417D01*
Y317083D01*
X640834Y318416D01*
X642167D01*
X643500Y317083D01*
Y315750D01*
Y317083D01*
X644833Y318416D01*
X646166D01*
X647499Y317083D01*
Y314417D01*
X646166Y313084D01*
X639501Y326413D02*
X640834Y323747D01*
X643500Y321082D01*
X646166D01*
X647499Y322415D01*
Y325080D01*
X646166Y326413D01*
X644833D01*
X643500Y325080D01*
Y321082D01*
X449168Y909416D02*
X447836Y910749D01*
X445170D01*
X443837Y909416D01*
Y904084D01*
X445170Y902751D01*
X447836D01*
X449168Y904084D01*
X451834Y909416D02*
X453167Y910749D01*
X455833D01*
X457166Y909416D01*
Y908083D01*
X455833Y906750D01*
X454500D01*
X455833D01*
X457166Y905417D01*
Y904084D01*
X455833Y902751D01*
X453167D01*
X451834Y904084D01*
X465163Y902751D02*
X459832D01*
X465163Y908083D01*
Y909416D01*
X463830Y910749D01*
X461165D01*
X459832Y909416D01*
X417284Y782001D02*
X415951Y780668D01*
Y778003D01*
X417284Y776670D01*
X422616D01*
X423949Y778003D01*
Y780668D01*
X422616Y782001D01*
X417284Y784667D02*
X415951Y786000D01*
Y788666D01*
X417284Y789999D01*
X418617D01*
X419950Y788666D01*
Y787333D01*
Y788666D01*
X421283Y789999D01*
X422616D01*
X423949Y788666D01*
Y786000D01*
X422616Y784667D01*
X423949Y792664D02*
Y795330D01*
Y793997D01*
X415951D01*
X417284Y792664D01*
X397034Y781418D02*
X395701Y780086D01*
Y777420D01*
X397034Y776087D01*
X402366D01*
X403699Y777420D01*
Y780086D01*
X402366Y781418D01*
X397034Y784084D02*
X395701Y785417D01*
Y788083D01*
X397034Y789416D01*
X398367D01*
X399700Y788083D01*
Y786750D01*
Y788083D01*
X401033Y789416D01*
X402366D01*
X403699Y788083D01*
Y785417D01*
X402366Y784084D01*
X397034Y792082D02*
X395701Y793415D01*
Y796080D01*
X397034Y797413D01*
X402366D01*
X403699Y796080D01*
Y793415D01*
X402366Y792082D01*
X397034D01*
X368918Y862416D02*
X367585Y863749D01*
X364920D01*
X363587Y862416D01*
Y857084D01*
X364920Y855751D01*
X367585D01*
X368918Y857084D01*
X376916Y855751D02*
X371584D01*
X376916Y861083D01*
Y862416D01*
X375583Y863749D01*
X372917D01*
X371584Y862416D01*
X379582Y857084D02*
X380914Y855751D01*
X383580D01*
X384913Y857084D01*
Y862416D01*
X383580Y863749D01*
X380914D01*
X379582Y862416D01*
Y861083D01*
X380914Y859750D01*
X384913D01*
X303668Y963416D02*
X302335Y964749D01*
X299670D01*
X298337Y963416D01*
Y958084D01*
X299670Y956751D01*
X302335D01*
X303668Y958084D01*
X311666Y956751D02*
X306334D01*
X311666Y962083D01*
Y963416D01*
X310333Y964749D01*
X307667D01*
X306334Y963416D01*
X314332D02*
X315665Y964749D01*
X318330D01*
X319663Y963416D01*
Y962083D01*
X318330Y960750D01*
X319663Y959417D01*
Y958084D01*
X318330Y956751D01*
X315665D01*
X314332Y958084D01*
Y959417D01*
X315665Y960750D01*
X314332Y962083D01*
Y963416D01*
X315665Y960750D02*
X318330D01*
X288834Y779168D02*
X287501Y777835D01*
Y775170D01*
X288834Y773837D01*
X294166D01*
X295499Y775170D01*
Y777835D01*
X294166Y779168D01*
X295499Y787166D02*
Y781834D01*
X290167Y787166D01*
X288834D01*
X287501Y785833D01*
Y783167D01*
X288834Y781834D01*
X287501Y789832D02*
Y795163D01*
X288834D01*
X294166Y789832D01*
X295499D01*
X249418Y819166D02*
X248085Y820499D01*
X245420D01*
X244087Y819166D01*
Y813834D01*
X245420Y812501D01*
X248085D01*
X249418Y813834D01*
X257416Y812501D02*
X252084D01*
X257416Y817833D01*
Y819166D01*
X256083Y820499D01*
X253417D01*
X252084Y819166D01*
X265413Y820499D02*
X262747Y819166D01*
X260082Y816500D01*
Y813834D01*
X261415Y812501D01*
X264080D01*
X265413Y813834D01*
Y815167D01*
X264080Y816500D01*
X260082D01*
X217668Y962666D02*
X216336Y963999D01*
X213670D01*
X212337Y962666D01*
Y957334D01*
X213670Y956001D01*
X216336D01*
X217668Y957334D01*
X225666Y956001D02*
X220334D01*
X225666Y961333D01*
Y962666D01*
X224333Y963999D01*
X221667D01*
X220334Y962666D01*
X233663Y963999D02*
X228332D01*
Y960000D01*
X230997Y961333D01*
X232330D01*
X233663Y960000D01*
Y957334D01*
X232330Y956001D01*
X229664D01*
X228332Y957334D01*
X253976Y1018416D02*
X252643Y1019749D01*
X249977D01*
X248644Y1018416D01*
Y1013084D01*
X249977Y1011751D01*
X252643D01*
X253976Y1013084D01*
X261973Y1011751D02*
X256642D01*
X261973Y1017083D01*
Y1018416D01*
X260641Y1019749D01*
X257975D01*
X256642Y1018416D01*
X268638Y1011751D02*
Y1019749D01*
X264639Y1015750D01*
X269971D01*
X212434Y1026168D02*
X211101Y1024836D01*
Y1022170D01*
X212434Y1020837D01*
X217766D01*
X219099Y1022170D01*
Y1024836D01*
X217766Y1026168D01*
X219099Y1034166D02*
Y1028834D01*
X213767Y1034166D01*
X212434D01*
X211101Y1032833D01*
Y1030167D01*
X212434Y1028834D01*
Y1036832D02*
X211101Y1038165D01*
Y1040830D01*
X212434Y1042163D01*
X213767D01*
X215100Y1040830D01*
Y1039497D01*
Y1040830D01*
X216433Y1042163D01*
X217766D01*
X219099Y1040830D01*
Y1038165D01*
X217766Y1036832D01*
X190434Y1025918D02*
X189101Y1024585D01*
Y1021920D01*
X190434Y1020587D01*
X195766D01*
X197099Y1021920D01*
Y1024585D01*
X195766Y1025918D01*
X197099Y1033916D02*
Y1028584D01*
X191767Y1033916D01*
X190434D01*
X189101Y1032583D01*
Y1029917D01*
X190434Y1028584D01*
X197099Y1041913D02*
Y1036582D01*
X191767Y1041913D01*
X190434D01*
X189101Y1040580D01*
Y1037915D01*
X190434Y1036582D01*
X829751Y487916D02*
X828418Y489249D01*
X825753D01*
X824420Y487916D01*
Y482584D01*
X825753Y481251D01*
X828418D01*
X829751Y482584D01*
X837749Y481251D02*
X832417D01*
X837749Y486583D01*
Y487916D01*
X836416Y489249D01*
X833750D01*
X832417Y487916D01*
X840415Y481251D02*
X843080D01*
X841747D01*
Y489249D01*
X840415Y487916D01*
X776834Y365168D02*
X775501Y363835D01*
Y361170D01*
X776834Y359837D01*
X782166D01*
X783499Y361170D01*
Y363835D01*
X782166Y365168D01*
X783499Y373166D02*
Y367834D01*
X778167Y373166D01*
X776834D01*
X775501Y371833D01*
Y369167D01*
X776834Y367834D01*
Y375832D02*
X775501Y377164D01*
Y379830D01*
X776834Y381163D01*
X782166D01*
X783499Y379830D01*
Y377164D01*
X782166Y375832D01*
X776834D01*
X763084Y548835D02*
X761751Y547502D01*
Y544836D01*
X763084Y543503D01*
X768416D01*
X769749Y544836D01*
Y547502D01*
X768416Y548835D01*
X769749Y551501D02*
Y554166D01*
Y552834D01*
X761751D01*
X763084Y551501D01*
X768416Y558165D02*
X769749Y559498D01*
Y562164D01*
X768416Y563497D01*
X763084D01*
X761751Y562164D01*
Y559498D01*
X763084Y558165D01*
X764417D01*
X765750Y559498D01*
Y563497D01*
X727634Y310835D02*
X726301Y309502D01*
Y306836D01*
X727634Y305503D01*
X732966D01*
X734299Y306836D01*
Y309502D01*
X732966Y310835D01*
X734299Y313501D02*
Y316166D01*
Y314834D01*
X726301D01*
X727634Y313501D01*
Y320165D02*
X726301Y321498D01*
Y324164D01*
X727634Y325497D01*
X728967D01*
X730300Y324164D01*
X731633Y325497D01*
X732966D01*
X734299Y324164D01*
Y321498D01*
X732966Y320165D01*
X731633D01*
X730300Y321498D01*
X728967Y320165D01*
X727634D01*
X730300Y321498D02*
Y324164D01*
X585334Y310585D02*
X584001Y309252D01*
Y306586D01*
X585334Y305253D01*
X590666D01*
X591999Y306586D01*
Y309252D01*
X590666Y310585D01*
X591999Y313251D02*
Y315916D01*
Y314583D01*
X584001D01*
X585334Y313251D01*
X584001Y325247D02*
X585334Y322581D01*
X588000Y319915D01*
X590666D01*
X591999Y321248D01*
Y323914D01*
X590666Y325247D01*
X589333D01*
X588000Y323914D01*
Y319915D01*
X609835Y590916D02*
X608502Y592249D01*
X605836D01*
X604503Y590916D01*
Y585584D01*
X605836Y584251D01*
X608502D01*
X609835Y585584D01*
X612501Y584251D02*
X615167D01*
X613834D01*
Y592249D01*
X612501Y590916D01*
X623164Y584251D02*
Y592249D01*
X619165Y588250D01*
X624497D01*
X537585Y555166D02*
X536252Y556499D01*
X533586D01*
X532253Y555166D01*
Y549834D01*
X533586Y548501D01*
X536252D01*
X537585Y549834D01*
X540251Y548501D02*
X542916D01*
X541584D01*
Y556499D01*
X540251Y555166D01*
X546915D02*
X548248Y556499D01*
X550914D01*
X552247Y555166D01*
Y553833D01*
X550914Y552500D01*
X549581D01*
X550914D01*
X552247Y551167D01*
Y549834D01*
X550914Y548501D01*
X548248D01*
X546915Y549834D01*
X522585Y319166D02*
X521252Y320499D01*
X518586D01*
X517253Y319166D01*
Y313834D01*
X518586Y312501D01*
X521252D01*
X522585Y313834D01*
X525251Y312501D02*
X527916D01*
X526584D01*
Y320499D01*
X525251Y319166D01*
X537247Y312501D02*
X531915D01*
X537247Y317833D01*
Y319166D01*
X535914Y320499D01*
X533248D01*
X531915Y319166D01*
X418834Y452168D02*
X417501Y450835D01*
Y448169D01*
X418834Y446836D01*
X424166D01*
X425499Y448169D01*
Y450835D01*
X424166Y452168D01*
X425499Y454834D02*
Y457499D01*
Y456166D01*
X417501D01*
X418834Y454834D01*
X425499Y461498D02*
Y464164D01*
Y462831D01*
X417501D01*
X418834Y461498D01*
X1082417Y786416D02*
X1081084Y787749D01*
X1078418D01*
X1077085Y786416D01*
Y781084D01*
X1078418Y779751D01*
X1081084D01*
X1082417Y781084D01*
X1085083Y786416D02*
X1086416Y787749D01*
X1089082D01*
X1090415Y786416D01*
Y785083D01*
X1089082Y783750D01*
X1090415Y782417D01*
Y781084D01*
X1089082Y779751D01*
X1086416D01*
X1085083Y781084D01*
Y782417D01*
X1086416Y783750D01*
X1085083Y785083D01*
Y786416D01*
X1086416Y783750D02*
X1089082D01*
X380167Y804666D02*
X378834Y805999D01*
X376168D01*
X374836Y804666D01*
Y799334D01*
X376168Y798001D01*
X378834D01*
X380167Y799334D01*
X382833Y805999D02*
X388164D01*
Y804666D01*
X382833Y799334D01*
Y798001D01*
X693666Y267583D02*
X694999Y268916D01*
Y271582D01*
X693666Y272915D01*
X688334D01*
X687001Y271582D01*
Y268916D01*
X688334Y267583D01*
X694999Y259585D02*
X693666Y262251D01*
X691000Y264917D01*
X688334D01*
X687001Y263584D01*
Y260918D01*
X688334Y259585D01*
X689667D01*
X691000Y260918D01*
Y264917D01*
X764416Y833833D02*
X765749Y835166D01*
Y837832D01*
X764416Y839165D01*
X759084D01*
X757751Y837832D01*
Y835166D01*
X759084Y833833D01*
X765749Y825835D02*
Y831167D01*
X761750D01*
X763083Y828501D01*
Y827168D01*
X761750Y825835D01*
X759084D01*
X757751Y827168D01*
Y829834D01*
X759084Y831167D01*
X1037167Y678666D02*
X1035834Y679999D01*
X1033168D01*
X1031835Y678666D01*
Y673334D01*
X1033168Y672001D01*
X1035834D01*
X1037167Y673334D01*
X1043832Y672001D02*
Y679999D01*
X1039833Y676000D01*
X1045164D01*
X1047417Y428166D02*
X1046084Y429499D01*
X1043418D01*
X1042085Y428166D01*
Y422834D01*
X1043418Y421501D01*
X1046084D01*
X1047417Y422834D01*
X1050083Y428166D02*
X1051416Y429499D01*
X1054082D01*
X1055415Y428166D01*
Y426833D01*
X1054082Y425500D01*
X1052749D01*
X1054082D01*
X1055415Y424167D01*
Y422834D01*
X1054082Y421501D01*
X1051416D01*
X1050083Y422834D01*
X316917Y805252D02*
X315584Y806585D01*
X312918D01*
X311586Y805252D01*
Y799920D01*
X312918Y798587D01*
X315584D01*
X316917Y799920D01*
X324915Y798587D02*
X319583D01*
X324915Y803919D01*
Y805252D01*
X323582Y806585D01*
X320916D01*
X319583Y805252D01*
X599166Y264250D02*
X600499Y265583D01*
Y268249D01*
X599166Y269582D01*
X593834D01*
X592501Y268249D01*
Y265583D01*
X593834Y264250D01*
X592501Y261584D02*
Y258918D01*
Y260251D01*
X600499D01*
X599166Y261584D01*
D11*
X293263Y966155D02*
G03*
X277350Y966050I-7877J-12168D01*
G01*
X277237Y935045D02*
G03*
X293150Y935150I7877J12168D01*
G01*
X361345Y886762D02*
G03*
X361450Y870850I12168J-7877D01*
G01*
X392454Y870738D02*
G03*
X392350Y886650I-12168J7877D01*
G01*
X684037Y299345D02*
G03*
X699950Y299450I7877J12168D01*
G01*
X700062Y330454D02*
G03*
X684150Y330350I-7877J-12168D01*
G01*
X1021405Y667738D02*
G03*
X1021300Y683650I-12168J7877D01*
G01*
X990295Y683763D02*
G03*
X990400Y667850I12168J-7877D01*
G01*
X814000Y475000D02*
G03*
X814076Y494984I-14270J10047D01*
G01*
X778000Y495000D02*
G03*
X777924Y475016I14270J-10047D01*
G01*
X431987Y429595D02*
G03*
X447900Y429700I7877J12168D01*
G01*
X448013Y460704D02*
G03*
X432100Y460600I-7877J-12168D01*
G01*
X299263Y837155D02*
G03*
X283350Y837050I-7877J-12168D01*
G01*
X283237Y806046D02*
G03*
X299150Y806150I7877J12168D01*
G01*
X428213Y838655D02*
G03*
X412300Y838550I-7877J-12168D01*
G01*
X412188Y807545D02*
G03*
X428100Y807650I7877J12168D01*
G01*
X408462Y838655D02*
G03*
X392550Y838550I-7877J-12168D01*
G01*
X392437Y807545D02*
G03*
X408350Y807650I7877J12168D01*
G01*
X184137Y977495D02*
G03*
X200050Y977600I7877J12168D01*
G01*
X200163Y1008605D02*
G03*
X184250Y1008500I-7877J-12168D01*
G01*
X206637Y977495D02*
G03*
X222550Y977600I7877J12168D01*
G01*
X222663Y1008605D02*
G03*
X206750Y1008500I-7877J-12168D01*
G01*
X597238Y299345D02*
G03*
X613150Y299450I7877J12168D01*
G01*
X613262Y330454D02*
G03*
X597350Y330350I-7877J-12168D01*
G01*
X618488Y299345D02*
G03*
X634400Y299450I7877J12168D01*
G01*
X634512Y330454D02*
G03*
X618600Y330350I-7877J-12168D01*
G01*
X704037Y299345D02*
G03*
X719950Y299450I7877J12168D01*
G01*
X720062Y330454D02*
G03*
X704150Y330350I-7877J-12168D01*
G01*
X758737Y502346D02*
G03*
X774650Y502450I7877J12168D01*
G01*
X774762Y533455D02*
G03*
X758850Y533350I-7877J-12168D01*
G01*
X768512Y385155D02*
G03*
X752600Y385050I-7877J-12168D01*
G01*
X752487Y354045D02*
G03*
X768400Y354150I7877J12168D01*
G01*
X595250Y577750D02*
G03*
X595326Y597734I-14270J10047D01*
G01*
X559250Y597750D02*
G03*
X559174Y577766I14270J-10047D01*
G01*
X591655Y542988D02*
G03*
X591550Y558900I-12168J7877D01*
G01*
X560546Y559012D02*
G03*
X560650Y543100I12168J-7877D01*
G01*
X575655Y307738D02*
G03*
X575550Y323650I-12168J7877D01*
G01*
X544546Y323763D02*
G03*
X544650Y307850I12168J-7877D01*
G01*
X277250Y935250D02*
Y966000D01*
X293250Y935250D02*
Y966000D01*
X282650Y952150D02*
X287950D01*
X282650Y949350D02*
X287950D01*
X548750Y334750D02*
Y340500D01*
X543250Y334750D02*
X548750D01*
X543250D02*
Y340500D01*
X548750D01*
X528000Y347750D02*
X564000D01*
Y327750D02*
Y347750D01*
X528000Y327750D02*
Y347750D01*
Y327750D02*
X564000D01*
X361500Y870750D02*
X392250D01*
X361500Y886750D02*
X392250D01*
X375350Y876150D02*
Y881450D01*
X378150Y876150D02*
Y881450D01*
X700050Y299500D02*
Y330250D01*
X684050Y299500D02*
Y330250D01*
X689350Y313350D02*
X694650D01*
X689350Y316150D02*
X694650D01*
X990500Y683750D02*
X1021250D01*
X990500Y667750D02*
X1021250D01*
X1007400Y673050D02*
Y678350D01*
X1004600Y673050D02*
Y678350D01*
X843500Y590250D02*
X874250D01*
X843500Y574250D02*
Y590250D01*
Y574250D02*
X874250D01*
Y590250D01*
X861000Y580000D02*
Y584250D01*
X857000Y580000D02*
X861000D01*
X857000D02*
Y584250D01*
X861000D01*
X843250Y570000D02*
X874000D01*
X843250Y554000D02*
Y570000D01*
Y554000D02*
X874000D01*
Y570000D01*
X860750Y559750D02*
Y564000D01*
X856750Y559750D02*
X860750D01*
X856750D02*
Y564000D01*
X860750D01*
X778000Y475000D02*
X814000D01*
X778000Y495000D02*
X814000D01*
X794000Y481000D02*
Y489100D01*
X798000Y481000D02*
Y489000D01*
X448000Y429750D02*
Y460500D01*
X432000Y429750D02*
Y460500D01*
X437300Y443600D02*
X442600D01*
X437300Y446400D02*
X442600D01*
X283250Y806250D02*
Y837000D01*
X299250Y806250D02*
Y837000D01*
X288650Y823150D02*
X293950D01*
X288650Y820350D02*
X293950D01*
X412200Y807750D02*
Y838500D01*
X428200Y807750D02*
Y838500D01*
X417600Y824650D02*
X422900D01*
X417600Y821850D02*
X422900D01*
X392450Y807750D02*
Y838500D01*
X408450Y807750D02*
Y838500D01*
X397850Y824650D02*
X403150D01*
X397850Y821850D02*
X403150D01*
X200150Y977650D02*
Y1008400D01*
X184150Y977650D02*
Y1008400D01*
X189450Y991500D02*
X194750D01*
X189450Y994300D02*
X194750D01*
X222650Y977650D02*
Y1008400D01*
X206650Y977650D02*
Y1008400D01*
X211950Y991500D02*
X217250D01*
X211950Y994300D02*
X217250D01*
X572000Y279000D02*
X577750D01*
X572000D02*
Y284500D01*
X577750D01*
Y279000D02*
Y284500D01*
X585000Y263750D02*
Y299750D01*
X565000Y263750D02*
X585000D01*
X565000Y299750D02*
X585000D01*
X565000Y263750D02*
Y299750D01*
X613250Y299500D02*
Y330250D01*
X597250Y299500D02*
Y330250D01*
X602550Y313350D02*
X607850D01*
X602550Y316150D02*
X607850D01*
X634500Y299500D02*
Y330250D01*
X618500Y299500D02*
Y330250D01*
X623800Y313350D02*
X629100D01*
X623800Y316150D02*
X629100D01*
X720050Y299500D02*
Y330250D01*
X704050Y299500D02*
Y330250D01*
X709350Y313350D02*
X714650D01*
X709350Y316150D02*
X714650D01*
X774750Y502500D02*
Y533250D01*
X758750Y502500D02*
Y533250D01*
X764050Y516350D02*
X769350D01*
X764050Y519150D02*
X769350D01*
X752500Y354250D02*
Y385000D01*
X768500Y354250D02*
Y385000D01*
X757900Y371150D02*
X763200D01*
X757900Y368350D02*
X763200D01*
X559250Y577750D02*
X595250D01*
X559250Y597750D02*
X595250D01*
X575250Y583750D02*
Y591850D01*
X579250Y583750D02*
Y591750D01*
X560750Y559000D02*
X591500D01*
X560750Y543000D02*
X591500D01*
X577650Y548300D02*
Y553600D01*
X574850Y548300D02*
Y553600D01*
X544750Y323750D02*
X575500D01*
X544750Y307750D02*
X575500D01*
X561650Y313050D02*
Y318350D01*
X558850Y313050D02*
Y318350D01*
X95250Y200250D02*
Y206000D01*
X100750D01*
Y200250D02*
Y206000D01*
X95250Y200250D02*
X100750D01*
X80000Y193000D02*
X116000D01*
X80000D02*
Y213000D01*
X116000Y193000D02*
Y213000D01*
X80000D02*
X116000D01*
X96250Y233250D02*
Y239000D01*
X101750D01*
Y233250D02*
Y239000D01*
X96250Y233250D02*
X101750D01*
X81000Y226000D02*
X117000D01*
X81000D02*
Y246000D01*
X117000Y226000D02*
Y246000D01*
X81000D02*
X117000D01*
X95500Y267750D02*
Y273500D01*
X101000D01*
Y267750D02*
Y273500D01*
X95500Y267750D02*
X101000D01*
X80250Y260500D02*
X116250D01*
X80250D02*
Y280500D01*
X116250Y260500D02*
Y280500D01*
X80250D02*
X116250D01*
X407750Y518500D02*
X413500D01*
X407750D02*
Y524000D01*
X413500D01*
Y518500D02*
Y524000D01*
X420750Y503250D02*
Y539250D01*
X400750Y503250D02*
X420750D01*
X400750Y539250D02*
X420750D01*
X400750Y503250D02*
Y539250D01*
X407750Y581333D02*
X413500D01*
X407750D02*
Y586833D01*
X413500D01*
Y581333D02*
Y586833D01*
X420750Y566083D02*
Y602083D01*
X400750Y566083D02*
X420750D01*
X400750Y602083D02*
X420750D01*
X400750Y566083D02*
Y602083D01*
X407750Y644167D02*
X413500D01*
X407750D02*
Y649667D01*
X413500D01*
Y644167D02*
Y649667D01*
X420750Y628917D02*
Y664917D01*
X400750Y628917D02*
X420750D01*
X400750Y664917D02*
X420750D01*
X400750Y628917D02*
Y664917D01*
X407750Y707000D02*
X413500D01*
X407750D02*
Y712500D01*
X413500D01*
Y707000D02*
Y712500D01*
X420750Y691750D02*
Y727750D01*
X400750Y691750D02*
X420750D01*
X400750Y727750D02*
X420750D01*
X400750Y691750D02*
Y727750D01*
X889250Y164750D02*
X925250D01*
Y144750D02*
Y164750D01*
X889250Y144750D02*
Y164750D01*
Y144750D02*
X925250D01*
X904500Y152000D02*
X910000D01*
Y157750D01*
X904500D02*
X910000D01*
X904500Y152000D02*
Y157750D01*
D12*
X214090Y174150D02*
G03*
X234410Y174150I10160J0D01*
G01*
X214090Y238150D02*
G03*
X234410Y238150I10160J0D01*
G01*
X214090Y302150D02*
G03*
X234410Y302150I10160J0D01*
G01*
X330660Y683100D02*
G03*
X310340Y683100I-10160J0D01*
G01*
X330660Y619100D02*
G03*
X310340Y619100I-10160J0D01*
G01*
X330660Y555100D02*
G03*
X310340Y555100I-10160J0D01*
G01*
X330660Y491100D02*
G03*
X310340Y491100I-10160J0D01*
G01*
X253460Y123350D02*
Y174150D01*
X195040Y123350D02*
Y174150D01*
Y123350D02*
X253460D01*
X234410Y174150D02*
X253460D01*
X195040D02*
X214090D01*
X253460Y187350D02*
Y238150D01*
X195040Y187350D02*
Y238150D01*
Y187350D02*
X253460D01*
X234410Y238150D02*
X253460D01*
X195040D02*
X214090D01*
X253460Y251350D02*
Y302150D01*
X195040Y251350D02*
Y302150D01*
Y251350D02*
X253460D01*
X234410Y302150D02*
X253460D01*
X195040D02*
X214090D01*
X291290Y683100D02*
Y733900D01*
X349710Y683100D02*
Y733900D01*
X291290D02*
X349710D01*
X291290Y683100D02*
X310340D01*
X330660D02*
X349710D01*
X291290Y619100D02*
Y669900D01*
X349710Y619100D02*
Y669900D01*
X291290D02*
X349710D01*
X291290Y619100D02*
X310340D01*
X330660D02*
X349710D01*
X291290Y555100D02*
Y605900D01*
X349710Y555100D02*
Y605900D01*
X291290D02*
X349710D01*
X291290Y555100D02*
X310340D01*
X330660D02*
X349710D01*
X291290Y491100D02*
Y541900D01*
X349710Y491100D02*
Y541900D01*
X291290D02*
X349710D01*
X291290Y491100D02*
X310340D01*
X330660D02*
X349710D01*
X809750Y617000D02*
Y747000D01*
X939750Y617000D02*
Y747000D01*
D13*
X511050Y503500D02*
G03*
X511050Y503500I-1250J0D01*
G01*
X660900Y879650D02*
G03*
X660900Y879650I-1250J0D01*
G01*
X544900D02*
G03*
X544900Y879650I-1250J0D01*
G01*
X1004000Y566250D02*
G03*
X1004000Y566250I-1250J0D01*
G01*
D14*
X301401Y873500D02*
G03*
X301401Y873500I-901J0D01*
G01*
X621512Y286564D02*
X644626D01*
X621512Y251512D02*
Y286564D01*
Y251512D02*
X663422D01*
Y268784D01*
X656564Y286564D02*
X663422D01*
Y279198D02*
Y286564D01*
X328238Y844386D02*
X351352D01*
X328238Y809334D02*
Y844386D01*
Y809334D02*
X370148D01*
Y826606D01*
X363290Y844386D02*
X370148D01*
Y837020D02*
Y844386D01*
X79704Y170371D02*
X78038Y172037D01*
X74706D01*
X73040Y170371D01*
Y163706D01*
X74706Y162040D01*
X78038D01*
X79704Y163706D01*
X88035Y172037D02*
X84703D01*
X83037Y170371D01*
Y163706D01*
X84703Y162040D01*
X88035D01*
X89701Y163706D01*
Y170371D01*
X88035Y172037D01*
X93034Y162040D02*
Y172037D01*
X96366Y168704D01*
X99698Y172037D01*
Y162040D01*
X103030D02*
Y172037D01*
X106363Y168704D01*
X109695Y172037D01*
Y162040D01*
X71290Y129538D02*
X77955D01*
X74622Y132871D02*
Y126206D01*
X87951Y134537D02*
X81287D01*
Y129538D01*
X84619Y131205D01*
X86285D01*
X87951Y129538D01*
Y126206D01*
X86285Y124540D01*
X82953D01*
X81287Y126206D01*
X83455Y450371D02*
X81788Y452037D01*
X78456D01*
X76790Y450371D01*
Y443706D01*
X78456Y442040D01*
X81788D01*
X83455Y443706D01*
Y447038D01*
X80122D01*
X84454Y513121D02*
X82788Y514787D01*
X79456D01*
X77790Y513121D01*
Y506456D01*
X79456Y504790D01*
X82788D01*
X84454Y506456D01*
Y509788D01*
X81122D01*
X76790Y480288D02*
X83455D01*
X80122Y483621D02*
Y476956D01*
X93451Y475290D02*
X86787D01*
X93451Y481954D01*
Y483621D01*
X91785Y485287D01*
X88453D01*
X86787Y483621D01*
X101782Y475290D02*
Y485287D01*
X96784Y480288D01*
X103448D01*
X850462Y270790D02*
Y277454D01*
X847129Y274122D02*
X853794D01*
X847129Y280787D02*
X845463Y282453D01*
Y285785D01*
X847129Y287451D01*
X848795D01*
X850462Y285785D01*
Y284119D01*
Y285785D01*
X852128Y287451D01*
X853794D01*
X855460Y285785D01*
Y282453D01*
X853794Y280787D01*
X855460Y290784D02*
X853794D01*
Y292450D01*
X855460D01*
Y290784D01*
X847129Y299114D02*
X845463Y300780D01*
Y304113D01*
X847129Y305779D01*
X848795D01*
X850462Y304113D01*
Y302446D01*
Y304113D01*
X852128Y305779D01*
X853794D01*
X855460Y304113D01*
Y300780D01*
X853794Y299114D01*
X818963Y271290D02*
X825628D01*
X828960Y274622D01*
X825628Y277955D01*
X818963D01*
Y281287D02*
X828960D01*
Y286285D01*
X827294Y287951D01*
X825628D01*
X823962D01*
X822296Y286285D01*
Y281287D01*
Y292950D02*
Y296282D01*
X823962Y297948D01*
X828960D01*
Y292950D01*
X827294Y291283D01*
X825628Y292950D01*
Y297948D01*
X820629Y302946D02*
X822296D01*
Y301280D01*
Y304613D01*
Y302946D01*
X827294D01*
X828960Y304613D01*
X583040Y135538D02*
X589705D01*
X586372Y138871D02*
Y132206D01*
X599701Y140537D02*
X593037D01*
Y135538D01*
X596369Y137205D01*
X598035D01*
X599701Y135538D01*
Y132206D01*
X598035Y130540D01*
X594703D01*
X593037Y132206D01*
X590454Y214871D02*
X588788Y216537D01*
X585456D01*
X583790Y214871D01*
Y208206D01*
X585456Y206540D01*
X588788D01*
X590454Y208206D01*
Y211538D01*
X587122D01*
X583790Y237040D02*
Y247037D01*
X588788D01*
X590454Y245371D01*
Y242038D01*
X588788Y240372D01*
X583790D01*
X587122D02*
X590454Y237040D01*
X593787Y247037D02*
X600451Y237040D01*
Y247037D02*
X593787Y237040D01*
X584540Y166037D02*
Y156040D01*
X589538D01*
X591204Y157706D01*
Y164371D01*
X589538Y166037D01*
X584540D01*
X601201D02*
X594537D01*
Y156040D01*
X601201D01*
X594537Y161038D02*
X597869D01*
X583040Y191037D02*
X589705D01*
X586372D01*
Y181040D01*
X593037Y191037D02*
X599701Y181040D01*
Y191037D02*
X593037Y181040D01*
X379954Y300037D02*
X378288Y301703D01*
X374956D01*
X373290Y300037D01*
Y298371D01*
X374956Y296705D01*
X378288D01*
X379954Y295038D01*
Y293372D01*
X378288Y291706D01*
X374956D01*
X373290Y293372D01*
X383287Y290040D02*
X389951D01*
X393284Y291706D02*
Y301703D01*
X398282D01*
X399948Y300037D01*
Y296705D01*
X398282Y295038D01*
X393284D01*
X396616D02*
X399948Y291706D01*
X409945Y300037D02*
X408279Y301703D01*
X404947D01*
X403280Y300037D01*
Y298371D01*
X404947Y296705D01*
X408279D01*
X409945Y295038D01*
Y293372D01*
X408279Y291706D01*
X404947D01*
X403280Y293372D01*
X413277Y301703D02*
X419942D01*
X416609D01*
Y291706D01*
X456040Y636788D02*
X462705D01*
X459372Y640121D02*
Y633456D01*
X466037Y640121D02*
X467703Y641787D01*
X471035D01*
X472701Y640121D01*
Y638455D01*
X471035Y636788D01*
X469369D01*
X471035D01*
X472701Y635122D01*
Y633456D01*
X471035Y631790D01*
X467703D01*
X466037Y633456D01*
X476034Y631790D02*
Y633456D01*
X477700D01*
Y631790D01*
X476034D01*
X484364Y640121D02*
X486030Y641787D01*
X489363D01*
X491029Y640121D01*
Y638455D01*
X489363Y636788D01*
X487696D01*
X489363D01*
X491029Y635122D01*
Y633456D01*
X489363Y631790D01*
X486030D01*
X484364Y633456D01*
X465790Y736790D02*
Y746787D01*
X470788D01*
X472454Y745121D01*
Y741788D01*
X470788Y740122D01*
X465790D01*
X469122D02*
X472454Y736790D01*
X482451Y745121D02*
X480785Y746787D01*
X477453D01*
X475787Y745121D01*
Y743455D01*
X477453Y741788D01*
X480785D01*
X482451Y740122D01*
Y738456D01*
X480785Y736790D01*
X477453D01*
X475787Y738456D01*
X485784Y746787D02*
X492448D01*
X489116D01*
Y736790D01*
X534379Y682455D02*
X532713Y680788D01*
Y677456D01*
X534379Y675790D01*
X536045D01*
X537712Y677456D01*
Y680788D01*
X539378Y682455D01*
X541044D01*
X542710Y680788D01*
Y677456D01*
X541044Y675790D01*
X532713Y685787D02*
X542710D01*
X539378Y689119D01*
X542710Y692451D01*
X532713D01*
Y695783D02*
X542710D01*
Y700782D01*
X541044Y702448D01*
X534379D01*
X532713Y700782D01*
Y695783D01*
X743040Y857787D02*
X749704D01*
Y856121D01*
X743040Y849456D01*
Y847790D01*
X722812Y857787D02*
X719479Y856121D01*
X716147Y852788D01*
Y849456D01*
X717813Y847790D01*
X721145D01*
X722812Y849456D01*
Y851122D01*
X721145Y852788D01*
X716147D01*
X695919Y857787D02*
X689254D01*
Y852788D01*
X692586Y854454D01*
X694253D01*
X695919Y852788D01*
Y849456D01*
X694253Y847790D01*
X690920D01*
X689254Y849456D01*
X667360Y847790D02*
Y857787D01*
X662361Y852788D01*
X669026D01*
X635468Y856121D02*
X637135Y857787D01*
X640467D01*
X642133Y856121D01*
Y854454D01*
X640467Y852788D01*
X638801D01*
X640467D01*
X642133Y851122D01*
Y849456D01*
X640467Y847790D01*
X637135D01*
X635468Y849456D01*
X615240Y847790D02*
X608576D01*
X615240Y854454D01*
Y856121D01*
X613574Y857787D01*
X610242D01*
X608576Y856121D01*
X581683Y847790D02*
X585015D01*
X583349D01*
Y857787D01*
X581683Y856121D01*
X554790D02*
X556456Y857787D01*
X559788D01*
X561455Y856121D01*
Y849456D01*
X559788Y847790D01*
X556456D01*
X554790Y849456D01*
Y856121D01*
X84205Y557037D02*
X77540D01*
Y547040D01*
X84205D01*
X77540Y552038D02*
X80872D01*
X84205Y539371D02*
X82538Y541037D01*
X79206D01*
X77540Y539371D01*
Y532706D01*
X79206Y531040D01*
X82538D01*
X84205Y532706D01*
Y611537D02*
X77540D01*
Y601540D01*
X84205D01*
X77540Y606538D02*
X80872D01*
X84205Y593871D02*
X82538Y595537D01*
X79206D01*
X77540Y593871D01*
Y587206D01*
X79206Y585540D01*
X82538D01*
X84205Y587206D01*
Y663787D02*
X77540D01*
Y653790D01*
X84205D01*
X77540Y658788D02*
X80872D01*
X84205Y646121D02*
X82538Y647787D01*
X79206D01*
X77540Y646121D01*
Y639456D01*
X79206Y637790D01*
X82538D01*
X84205Y639456D01*
X138790Y562540D02*
Y572537D01*
X143788D01*
X145455Y570871D01*
Y567538D01*
X143788Y565872D01*
X138790D01*
X148787Y572537D02*
Y567538D01*
X150453Y565872D01*
X155451D01*
Y572537D01*
X158784Y565872D02*
X162116D01*
X160450D01*
Y575869D01*
X158784D01*
X183776D02*
X177111D01*
Y570871D01*
X180443Y572537D01*
X182109D01*
X183776Y570871D01*
Y567538D01*
X182109Y565872D01*
X178777D01*
X177111Y567538D01*
X187108Y572537D02*
X190440Y565872D01*
X193772Y572537D01*
X210434Y562540D02*
X212100D01*
X213766Y564206D01*
Y572537D01*
X208768D01*
X207101Y570871D01*
Y567538D01*
X208768Y565872D01*
X213766D01*
X217098D02*
Y572537D01*
X222097D01*
X223763Y570871D01*
Y565872D01*
X233759Y575869D02*
Y565872D01*
X228761D01*
X227095Y567538D01*
Y570871D01*
X228761Y572537D01*
X233759D01*
X138040Y615790D02*
Y625787D01*
X143038D01*
X144705Y624121D01*
Y620788D01*
X143038Y619122D01*
X138040D01*
X148037Y625787D02*
Y620788D01*
X149703Y619122D01*
X154701D01*
Y625787D01*
X158034Y619122D02*
X161366D01*
X159700D01*
Y629119D01*
X158034D01*
X183025D02*
X176361D01*
Y624121D01*
X179693Y625787D01*
X181359D01*
X183025Y624121D01*
Y620788D01*
X181359Y619122D01*
X178027D01*
X176361Y620788D01*
X186358Y625787D02*
X189690Y619122D01*
X193022Y625787D01*
X209684Y615790D02*
X211350D01*
X213016Y617456D01*
Y625787D01*
X208018D01*
X206351Y624121D01*
Y620788D01*
X208018Y619122D01*
X213016D01*
X216348D02*
Y625787D01*
X221346D01*
X223013Y624121D01*
Y619122D01*
X233009Y629119D02*
Y619122D01*
X228011D01*
X226345Y620788D01*
Y624121D01*
X228011Y625787D01*
X233009D01*
X138040Y670540D02*
Y680537D01*
X143038D01*
X144705Y678871D01*
Y675538D01*
X143038Y673872D01*
X138040D01*
X148037Y680537D02*
Y675538D01*
X149703Y673872D01*
X154701D01*
Y680537D01*
X158034Y673872D02*
X161366D01*
X159700D01*
Y683869D01*
X158034D01*
X183025D02*
X176361D01*
Y678871D01*
X179693Y680537D01*
X181359D01*
X183025Y678871D01*
Y675538D01*
X181359Y673872D01*
X178027D01*
X176361Y675538D01*
X186358Y680537D02*
X189690Y673872D01*
X193022Y680537D01*
X209684Y670540D02*
X211350D01*
X213016Y672206D01*
Y680537D01*
X208018D01*
X206351Y678871D01*
Y675538D01*
X208018Y673872D01*
X213016D01*
X216348D02*
Y680537D01*
X221346D01*
X223013Y678871D01*
Y673872D01*
X233009Y683869D02*
Y673872D01*
X228011D01*
X226345Y675538D01*
Y678871D01*
X228011Y680537D01*
X233009D01*
X138040Y727790D02*
Y737787D01*
X143038D01*
X144705Y736121D01*
Y732788D01*
X143038Y731122D01*
X138040D01*
X148037Y737787D02*
Y732788D01*
X149703Y731122D01*
X154701D01*
Y737787D01*
X158034Y731122D02*
X161366D01*
X159700D01*
Y741119D01*
X158034D01*
X183025D02*
X176361D01*
Y736121D01*
X179693Y737787D01*
X181359D01*
X183025Y736121D01*
Y732788D01*
X181359Y731122D01*
X178027D01*
X176361Y732788D01*
X186358Y737787D02*
X189690Y731122D01*
X193022Y737787D01*
X209684Y727790D02*
X211350D01*
X213016Y729456D01*
Y737787D01*
X208018D01*
X206351Y736121D01*
Y732788D01*
X208018Y731122D01*
X213016D01*
X216348D02*
Y737787D01*
X221346D01*
X223013Y736121D01*
Y731122D01*
X233009Y741119D02*
Y731122D01*
X228011D01*
X226345Y732788D01*
Y736121D01*
X228011Y737787D01*
X233009D01*
X84205Y701871D02*
X82538Y703537D01*
X79206D01*
X77540Y701871D01*
Y695206D01*
X79206Y693540D01*
X82538D01*
X84205Y695206D01*
Y719537D02*
X77540D01*
Y709540D01*
X84205D01*
X77540Y714538D02*
X80872D01*
X838632Y147437D02*
X848789D01*
X853867Y152515D01*
X848789Y157593D01*
X838632D01*
Y162672D02*
X853867D01*
Y170289D01*
X851328Y172828D01*
X841172D01*
X838632Y170289D01*
Y162672D01*
X853867Y185524D02*
X838632D01*
X846250Y177907D01*
Y188063D01*
X943324Y861017D02*
X940785Y863556D01*
X935706D01*
X933167Y861017D01*
Y850860D01*
X935706Y848321D01*
X940785D01*
X943324Y850860D01*
X948402Y848321D02*
X953480D01*
X950941D01*
Y863556D01*
X948402Y861017D01*
X961098D02*
X963637Y863556D01*
X968716D01*
X971255Y861017D01*
Y850860D01*
X968716Y848321D01*
X963637D01*
X961098Y850860D01*
Y861017D01*
X980253Y382950D02*
X977713Y385489D01*
X972635D01*
X970096Y382950D01*
Y372793D01*
X972635Y370254D01*
X977713D01*
X980253Y372793D01*
X985331D02*
X987870Y370254D01*
X992949D01*
X995488Y372793D01*
Y382950D01*
X992949Y385489D01*
X987870D01*
X985331Y382950D01*
Y380411D01*
X987870Y377872D01*
X995488D01*
X516382Y179554D02*
X531618Y189711D01*
X516382D02*
X531618Y179554D01*
Y202407D02*
X516382D01*
X524000Y194789D01*
Y204946D01*
X797245Y171813D02*
X787089D01*
X782010Y166735D01*
X787089Y161657D01*
X797245D01*
Y156578D02*
X782010D01*
Y148961D01*
X784549Y146422D01*
X794706D01*
X797245Y148961D01*
Y156578D01*
X794706Y141343D02*
X797245Y138804D01*
Y133726D01*
X794706Y131187D01*
X792167D01*
X789628Y133726D01*
Y136265D01*
Y133726D01*
X787089Y131187D01*
X784549D01*
X782010Y133726D01*
Y138804D01*
X784549Y141343D01*
X737120Y171313D02*
X726964D01*
X721885Y166235D01*
X726964Y161157D01*
X737120D01*
Y156078D02*
X721885D01*
Y148461D01*
X724425Y145922D01*
X734581D01*
X737120Y148461D01*
Y156078D01*
X721885Y130687D02*
Y140843D01*
X732042Y130687D01*
X734581D01*
X737120Y133226D01*
Y138304D01*
X734581Y140843D01*
X678495Y166274D02*
X668339D01*
X663260Y161196D01*
X668339Y156117D01*
X678495D01*
Y151039D02*
X663260D01*
Y143422D01*
X665800Y140882D01*
X675956D01*
X678495Y143422D01*
Y151039D01*
X663260Y135804D02*
Y130726D01*
Y133265D01*
X678495D01*
X675956Y135804D01*
D15*
X672250Y901250D02*
G03*
X672250Y901250I-3000J0D01*
G01*
X556250D02*
G03*
X556250Y901250I-3000J0D01*
G01*
D16*
X135250Y985250D02*
G03*
X135250Y985250I-1500J0D01*
G01*
D17*
X969070Y648670D02*
G03*
X969070Y648670I-1500J0D01*
G01*
D18*
X1059750Y697250D02*
Y733050D01*
Y764450D02*
Y800250D01*
X956750Y715250D02*
Y733050D01*
Y764450D02*
Y782250D01*
X974750Y800250D01*
X1059750D01*
X974750Y697250D02*
X1059750D01*
X956750Y715250D02*
X974750Y697250D01*
X298600Y914010D02*
Y918030D01*
X298660Y918090D01*
X302620D01*
X298570Y878050D02*
Y882010D01*
X298630Y877990D02*
X302650D01*
X338650Y914060D02*
Y918020D01*
X334570Y918080D02*
X338590D01*
X334620Y877970D02*
X338580D01*
X338640Y878030D02*
Y882050D01*
X955250Y367450D02*
Y403250D01*
Y300250D02*
Y336050D01*
X1058250Y367450D02*
Y385250D01*
Y318250D02*
Y336050D01*
X1040250Y300250D02*
X1058250Y318250D01*
X955250Y300250D02*
X1040250D01*
X955250Y403250D02*
X1040250D01*
X1058250Y385250D01*
X116750Y975250D02*
X175550D01*
X-38450D02*
X85750D01*
X116750Y815250D02*
X175550D01*
X-38450D02*
X85750D01*
X-38450D02*
Y975250D01*
X175550Y815250D02*
Y975250D01*
X-38450Y109150D02*
Y676750D01*
Y109150D02*
X53550D01*
Y676750D01*
X-38450D02*
X53550D01*
X902000Y850100D02*
Y862500D01*
X867000D02*
X902000D01*
Y797500D02*
Y809900D01*
X867000Y797500D02*
X902000D01*
X976450Y592800D02*
X1045050D01*
X976450Y651200D02*
X1045050D01*
X723000Y498850D02*
Y504250D01*
X583000Y498850D02*
Y504250D01*
X723000Y364250D02*
Y369650D01*
X583000Y364250D02*
Y369650D01*
X717600Y504250D02*
X723000D01*
X583000D02*
X588400D01*
X717600Y364250D02*
X723000D01*
X583000D02*
X588400D01*
X275400Y355500D02*
Y394500D01*
X174100Y355500D02*
Y394500D01*
D19*
X809750Y617000D02*
Y617230D01*
Y617000D02*
Y617230D01*
X836650D01*
X939750Y617000D02*
Y617230D01*
X912850D02*
X939750D01*
X809750Y746770D02*
Y747000D01*
Y746770D02*
X836650D01*
X939750D02*
Y747000D01*
X912850Y746770D02*
X939750D01*
D20*
X413000Y906000D02*
D03*
X271500Y988250D02*
D03*
M02*
