G04*
G04 #@! TF.GenerationSoftware,Altium Limited,Altium Designer,20.0.13 (296)*
G04*
G04 Layer_Physical_Order=2*
G04 Layer_Color=36540*
%FSLAX44Y44*%
%MOMM*%
G71*
G01*
G75*
%ADD12C,0.2000*%
%ADD13C,0.3000*%
%ADD14C,0.2500*%
%ADD94C,0.3810*%
%ADD95C,0.5000*%
%ADD99O,2.6416X1.3208*%
%ADD101R,2.1000X2.1000*%
%ADD104R,1.6000X1.6000*%
%ADD105R,1.6000X1.6000*%
%ADD107C,2.7000*%
%ADD108C,1.6500*%
%ADD109R,1.6500X1.6500*%
%ADD113C,1.5300*%
%ADD114C,1.3980*%
%ADD117O,3.0480X1.5240*%
%ADD120R,1.4000X1.4000*%
%ADD121C,1.5000*%
%ADD122C,0.7000*%
G36*
X837931Y3569D02*
X3569D01*
Y21386D01*
X4839Y21574D01*
X5076Y20790D01*
X7119Y16968D01*
X9868Y13618D01*
X13218Y10869D01*
X17040Y8826D01*
X21187Y7568D01*
X25500Y7144D01*
X29813Y7568D01*
X33960Y8826D01*
X37782Y10869D01*
X41132Y13618D01*
X43881Y16968D01*
X45924Y20790D01*
X47182Y24937D01*
X47606Y29250D01*
X47182Y33563D01*
X45924Y37710D01*
X43881Y41532D01*
X41132Y44882D01*
X37782Y47631D01*
X33960Y49674D01*
X29813Y50932D01*
X25500Y51356D01*
X21187Y50932D01*
X17040Y49674D01*
X13218Y47631D01*
X9868Y44882D01*
X7119Y41532D01*
X5076Y37710D01*
X4839Y36926D01*
X3569Y37115D01*
Y887072D01*
X4839Y887261D01*
X5361Y885540D01*
X6800Y882847D01*
X8737Y880487D01*
X11097Y878550D01*
X13790Y877111D01*
X16711Y876224D01*
X19750Y875925D01*
X22789Y876224D01*
X25710Y877111D01*
X28403Y878550D01*
X30763Y880487D01*
X32700Y882847D01*
X34139Y885540D01*
X35026Y888462D01*
X35325Y891500D01*
X35026Y894539D01*
X34139Y897460D01*
X32700Y900153D01*
X30763Y902513D01*
X28403Y904450D01*
X25710Y905890D01*
X22789Y906776D01*
X19750Y907075D01*
X16711Y906776D01*
X13790Y905890D01*
X11097Y904450D01*
X8737Y902513D01*
X6800Y900153D01*
X5361Y897460D01*
X4839Y895740D01*
X3569Y895928D01*
Y1042072D01*
X4839Y1042261D01*
X5361Y1040540D01*
X6800Y1037847D01*
X8737Y1035487D01*
X11097Y1033550D01*
X13790Y1032111D01*
X14412Y1031922D01*
Y991429D01*
X14761Y989673D01*
X15756Y988185D01*
X18685Y985256D01*
X20173Y984261D01*
X21929Y983912D01*
X104370D01*
X104797Y982881D01*
X106440Y980740D01*
X108581Y979097D01*
X111074Y978064D01*
X113750Y977712D01*
X116426Y978064D01*
X118919Y979097D01*
X121060Y980740D01*
X122703Y982881D01*
X123736Y985374D01*
X124088Y988050D01*
X123736Y990726D01*
X122703Y993219D01*
X121060Y995360D01*
X118919Y997003D01*
X116426Y998036D01*
X113750Y998389D01*
X111074Y998036D01*
X108581Y997003D01*
X106440Y995360D01*
X104797Y993219D01*
X104742Y993088D01*
X23829D01*
X23588Y993329D01*
Y1031467D01*
X25710Y1032111D01*
X28403Y1033550D01*
X30763Y1035487D01*
X32700Y1037847D01*
X34139Y1040540D01*
X35026Y1043462D01*
X35325Y1046500D01*
X35026Y1049539D01*
X34139Y1052460D01*
X33463Y1053725D01*
X42151Y1062412D01*
X792599D01*
X801449Y1053562D01*
X800861Y1052460D01*
X799974Y1049539D01*
X799675Y1046500D01*
X799974Y1043462D01*
X800861Y1040540D01*
X802300Y1037847D01*
X804237Y1035487D01*
X806597Y1033550D01*
X809290Y1032111D01*
X812212Y1031224D01*
X815250Y1030925D01*
X818288Y1031224D01*
X821210Y1032111D01*
X823903Y1033550D01*
X826263Y1035487D01*
X828200Y1037847D01*
X829639Y1040540D01*
X830526Y1043462D01*
X830825Y1046500D01*
X830526Y1049539D01*
X829639Y1052460D01*
X828200Y1055153D01*
X826263Y1057513D01*
X823903Y1059450D01*
X821210Y1060890D01*
X818288Y1061776D01*
X815250Y1062075D01*
X812212Y1061776D01*
X809290Y1060890D01*
X807862Y1060126D01*
X797744Y1070244D01*
X796256Y1071239D01*
X794500Y1071588D01*
X40250D01*
X38494Y1071239D01*
X37006Y1070244D01*
X26975Y1060214D01*
X25710Y1060890D01*
X22789Y1061776D01*
X19750Y1062075D01*
X16711Y1061776D01*
X13790Y1060890D01*
X11097Y1059450D01*
X8737Y1057513D01*
X6800Y1055153D01*
X5361Y1052460D01*
X4839Y1050740D01*
X3569Y1050928D01*
Y1075681D01*
X837931D01*
X837931Y3569D01*
D02*
G37*
%LPC*%
G36*
X445500Y1046108D02*
X443354Y1045681D01*
X441535Y1044465D01*
X440319Y1042646D01*
X439892Y1040500D01*
X440319Y1038354D01*
X441535Y1036535D01*
X443354Y1035319D01*
X445500Y1034892D01*
X447646Y1035319D01*
X449465Y1036535D01*
X450681Y1038354D01*
X451108Y1040500D01*
X450681Y1042646D01*
X449465Y1044465D01*
X447646Y1045681D01*
X445500Y1046108D01*
D02*
G37*
G36*
X349150Y1050250D02*
X329150D01*
Y1030250D01*
X349150D01*
Y1050250D01*
D02*
G37*
G36*
X313750Y1050336D02*
X311140Y1049993D01*
X308707Y1048985D01*
X306618Y1047382D01*
X305015Y1045293D01*
X304007Y1042860D01*
X303664Y1040250D01*
X304007Y1037639D01*
X305015Y1035207D01*
X306618Y1033118D01*
X308707Y1031515D01*
X311140Y1030507D01*
X313750Y1030164D01*
X316360Y1030507D01*
X318793Y1031515D01*
X320882Y1033118D01*
X322485Y1035207D01*
X323493Y1037639D01*
X323836Y1040250D01*
X323493Y1042860D01*
X322485Y1045293D01*
X320882Y1047382D01*
X318793Y1048985D01*
X316360Y1049993D01*
X313750Y1050336D01*
D02*
G37*
G36*
X288350D02*
X285739Y1049993D01*
X283307Y1048985D01*
X281218Y1047382D01*
X279615Y1045293D01*
X278607Y1042860D01*
X278264Y1040250D01*
X278607Y1037639D01*
X279615Y1035207D01*
X281218Y1033118D01*
X283307Y1031515D01*
X285739Y1030507D01*
X288350Y1030164D01*
X290961Y1030507D01*
X293393Y1031515D01*
X295482Y1033118D01*
X297085Y1035207D01*
X298093Y1037639D01*
X298436Y1040250D01*
X298093Y1042860D01*
X297085Y1045293D01*
X295482Y1047382D01*
X293393Y1048985D01*
X290961Y1049993D01*
X288350Y1050336D01*
D02*
G37*
G36*
X784750Y1045242D02*
X781025Y1044875D01*
X777444Y1043789D01*
X774143Y1042024D01*
X771250Y1039650D01*
X768876Y1036757D01*
X767111Y1033456D01*
X766025Y1029875D01*
X765658Y1026150D01*
X766025Y1022425D01*
X767111Y1018844D01*
X768876Y1015543D01*
X771250Y1012650D01*
X774143Y1010276D01*
X777444Y1008511D01*
X781025Y1007425D01*
X784750Y1007058D01*
X788475Y1007425D01*
X792056Y1008511D01*
X795357Y1010276D01*
X798250Y1012650D01*
X800624Y1015543D01*
X802389Y1018844D01*
X803475Y1022425D01*
X803842Y1026150D01*
X803475Y1029875D01*
X802389Y1033456D01*
X800624Y1036757D01*
X798250Y1039650D01*
X795357Y1042024D01*
X792056Y1043789D01*
X788475Y1044875D01*
X784750Y1045242D01*
D02*
G37*
G36*
X50250D02*
X46525Y1044875D01*
X42944Y1043789D01*
X39643Y1042024D01*
X36750Y1039650D01*
X34376Y1036757D01*
X32611Y1033456D01*
X31525Y1029875D01*
X31158Y1026150D01*
X31525Y1022425D01*
X32611Y1018844D01*
X34376Y1015543D01*
X36750Y1012650D01*
X39643Y1010276D01*
X42944Y1008511D01*
X46525Y1007425D01*
X50250Y1007058D01*
X53975Y1007425D01*
X57556Y1008511D01*
X60857Y1010276D01*
X63750Y1012650D01*
X66124Y1015543D01*
X67889Y1018844D01*
X68975Y1022425D01*
X69342Y1026150D01*
X68975Y1029875D01*
X67889Y1033456D01*
X66124Y1036757D01*
X63750Y1039650D01*
X60857Y1042024D01*
X57556Y1043789D01*
X53975Y1044875D01*
X50250Y1045242D01*
D02*
G37*
G36*
X124000Y1023700D02*
X103500D01*
Y1003200D01*
X124000D01*
Y1023700D01*
D02*
G37*
G36*
X695850Y1023789D02*
X693174Y1023436D01*
X690681Y1022403D01*
X688540Y1020760D01*
X686897Y1018619D01*
X685864Y1016126D01*
X685512Y1013450D01*
X685864Y1010774D01*
X686897Y1008281D01*
X688540Y1006140D01*
X690681Y1004497D01*
X693174Y1003464D01*
X695850Y1003112D01*
X698526Y1003464D01*
X701019Y1004497D01*
X703160Y1006140D01*
X704803Y1008281D01*
X705836Y1010774D01*
X706189Y1013450D01*
X705836Y1016126D01*
X704803Y1018619D01*
X703160Y1020760D01*
X701019Y1022403D01*
X698526Y1023436D01*
X695850Y1023789D01*
D02*
G37*
G36*
X721250Y1011088D02*
X718574Y1010736D01*
X716081Y1009703D01*
X713940Y1008060D01*
X712297Y1005919D01*
X711264Y1003426D01*
X710912Y1000750D01*
X711264Y998074D01*
X712297Y995581D01*
X713940Y993440D01*
X716081Y991797D01*
X718574Y990764D01*
X721250Y990412D01*
X723926Y990764D01*
X726419Y991797D01*
X728560Y993440D01*
X730203Y995581D01*
X731236Y998074D01*
X731589Y1000750D01*
X731236Y1003426D01*
X730203Y1005919D01*
X728560Y1008060D01*
X726419Y1009703D01*
X723926Y1010736D01*
X721250Y1011088D01*
D02*
G37*
G36*
X139150D02*
X136474Y1010736D01*
X133981Y1009703D01*
X131840Y1008060D01*
X130197Y1005919D01*
X129164Y1003426D01*
X128812Y1000750D01*
X129164Y998074D01*
X130197Y995581D01*
X131840Y993440D01*
X133981Y991797D01*
X136474Y990764D01*
X139150Y990412D01*
X141826Y990764D01*
X144319Y991797D01*
X146460Y993440D01*
X148103Y995581D01*
X149136Y998074D01*
X149488Y1000750D01*
X149136Y1003426D01*
X148103Y1005919D01*
X146460Y1008060D01*
X144319Y1009703D01*
X141826Y1010736D01*
X139150Y1011088D01*
D02*
G37*
G36*
X452250Y992358D02*
X450104Y991931D01*
X448285Y990715D01*
X447069Y988896D01*
X446642Y986750D01*
X446855Y985681D01*
X436087Y974913D01*
X435424Y973921D01*
X435191Y972750D01*
X435191Y972750D01*
Y755252D01*
X427587Y747648D01*
X426924Y746656D01*
X426691Y745485D01*
X426691Y745485D01*
Y739911D01*
X425881Y739369D01*
X424665Y737550D01*
X424239Y735404D01*
X424665Y733258D01*
X425881Y731439D01*
X427700Y730223D01*
X429846Y729796D01*
X431992Y730223D01*
X433811Y731439D01*
X435027Y733258D01*
X435454Y735404D01*
X435403Y735661D01*
X436301Y736559D01*
X436558Y736508D01*
X438704Y736935D01*
X440523Y738150D01*
X441739Y739969D01*
X442166Y742115D01*
X441953Y743185D01*
X445413Y746645D01*
X445413Y746645D01*
X446076Y747637D01*
X446309Y748808D01*
Y749233D01*
X454913Y757837D01*
X454913Y757837D01*
X455576Y758829D01*
X455809Y760000D01*
Y889429D01*
X456715Y890035D01*
X457931Y891854D01*
X458358Y894000D01*
X457931Y896146D01*
X456715Y897965D01*
X454896Y899181D01*
X452750Y899608D01*
X450604Y899181D01*
X448785Y897965D01*
X447569Y896146D01*
X447142Y894000D01*
X447569Y891854D01*
X448785Y890035D01*
X449691Y889429D01*
Y761267D01*
X442579Y754155D01*
X441309Y754681D01*
Y971483D01*
X451181Y981355D01*
X452250Y981142D01*
X454396Y981569D01*
X456215Y982785D01*
X457431Y984604D01*
X457858Y986750D01*
X457431Y988896D01*
X456215Y990715D01*
X454396Y991931D01*
X452250Y992358D01*
D02*
G37*
G36*
X631000Y1029064D02*
X460250D01*
X458982Y1028811D01*
X457907Y1028093D01*
X383078Y953264D01*
X148872D01*
X148103Y955119D01*
X146460Y957260D01*
X144319Y958903D01*
X141826Y959936D01*
X139150Y960288D01*
X136474Y959936D01*
X133981Y958903D01*
X131840Y957260D01*
X130197Y955119D01*
X129164Y952626D01*
X128812Y949950D01*
X129164Y947274D01*
X130197Y944781D01*
X131840Y942640D01*
X133981Y940997D01*
X136474Y939964D01*
X139150Y939612D01*
X141826Y939964D01*
X144319Y940997D01*
X146460Y942640D01*
X148103Y944781D01*
X148872Y946636D01*
X384450D01*
X385718Y946889D01*
X386793Y947607D01*
X461623Y1022436D01*
X629627D01*
X666357Y985707D01*
X667432Y984989D01*
X668700Y984736D01*
X686128D01*
X686897Y982881D01*
X688540Y980740D01*
X690681Y979097D01*
X693174Y978064D01*
X695850Y977712D01*
X698526Y978064D01*
X701019Y979097D01*
X703160Y980740D01*
X704803Y982881D01*
X705836Y985374D01*
X706189Y988050D01*
X705836Y990726D01*
X704803Y993219D01*
X703160Y995360D01*
X701019Y997003D01*
X698526Y998036D01*
X695850Y998389D01*
X693174Y998036D01*
X690681Y997003D01*
X688540Y995360D01*
X686897Y993219D01*
X686128Y991364D01*
X670072D01*
X633343Y1028093D01*
X632268Y1028811D01*
X632058Y1028853D01*
X631000Y1029064D01*
D02*
G37*
G36*
X721250Y985688D02*
X718574Y985336D01*
X716081Y984303D01*
X713940Y982660D01*
X712297Y980519D01*
X711264Y978026D01*
X710912Y975350D01*
X711264Y972674D01*
X712297Y970181D01*
X713940Y968040D01*
X716081Y966397D01*
X718574Y965364D01*
X721250Y965012D01*
X723926Y965364D01*
X726419Y966397D01*
X728560Y968040D01*
X730203Y970181D01*
X731236Y972674D01*
X731589Y975350D01*
X731236Y978026D01*
X730203Y980519D01*
X728560Y982660D01*
X726419Y984303D01*
X723926Y985336D01*
X721250Y985688D01*
D02*
G37*
G36*
X139150D02*
X136474Y985336D01*
X133981Y984303D01*
X131840Y982660D01*
X130197Y980519D01*
X129164Y978026D01*
X128812Y975350D01*
X129164Y972674D01*
X130197Y970181D01*
X131840Y968040D01*
X133981Y966397D01*
X136474Y965364D01*
X139150Y965012D01*
X141826Y965364D01*
X144319Y966397D01*
X146460Y968040D01*
X148103Y970181D01*
X149136Y972674D01*
X149488Y975350D01*
X149136Y978026D01*
X148103Y980519D01*
X146460Y982660D01*
X144319Y984303D01*
X141826Y985336D01*
X139150Y985688D01*
D02*
G37*
G36*
X406520Y959656D02*
Y955020D01*
X411156D01*
X410939Y956107D01*
X409605Y958105D01*
X407607Y959440D01*
X406520Y959656D01*
D02*
G37*
G36*
X403980D02*
X402893Y959440D01*
X400895Y958105D01*
X399560Y956107D01*
X399344Y955020D01*
X403980D01*
Y959656D01*
D02*
G37*
G36*
X667500Y1039108D02*
X665354Y1038681D01*
X663535Y1037465D01*
X662319Y1035646D01*
X661892Y1033500D01*
X662319Y1031354D01*
X663535Y1029535D01*
X665354Y1028319D01*
X667500Y1027892D01*
X669646Y1028319D01*
X670533Y1028912D01*
X746099D01*
X749662Y1025350D01*
Y962150D01*
X742049Y954538D01*
X730444D01*
X730203Y955119D01*
X728560Y957260D01*
X726419Y958903D01*
X723926Y959936D01*
X721250Y960288D01*
X718574Y959936D01*
X716081Y958903D01*
X713940Y957260D01*
X712297Y955119D01*
X711264Y952626D01*
X710912Y949950D01*
X711091Y948586D01*
X709888Y947992D01*
X704570Y953310D01*
X703518Y954013D01*
X703266Y954949D01*
X703258Y955451D01*
X703262Y955472D01*
X704803Y957481D01*
X705836Y959974D01*
X706189Y962650D01*
X705836Y965326D01*
X704803Y967819D01*
X703160Y969960D01*
X701019Y971603D01*
X698526Y972636D01*
X695850Y972989D01*
X693174Y972636D01*
X690681Y971603D01*
X688540Y969960D01*
X686897Y967819D01*
X685864Y965326D01*
X685512Y962650D01*
X685864Y959974D01*
X686508Y958419D01*
X685432Y957699D01*
X637699Y1005432D01*
X636408Y1006295D01*
X634884Y1006598D01*
X489039D01*
X488681Y1008396D01*
X487465Y1010215D01*
X485646Y1011431D01*
X483500Y1011858D01*
X481354Y1011431D01*
X479535Y1010215D01*
X478319Y1008396D01*
X477892Y1006250D01*
X478319Y1004104D01*
X479535Y1002285D01*
X481354Y1001069D01*
X483500Y1000642D01*
X483631Y1000668D01*
X483743Y1000570D01*
X484512Y999801D01*
X484547Y998250D01*
X482271Y995973D01*
X482035Y995767D01*
X481604Y995681D01*
X479785Y994465D01*
X478569Y992646D01*
X478142Y990500D01*
X478569Y988354D01*
X479785Y986535D01*
X481604Y985319D01*
X483750Y984892D01*
X485896Y985319D01*
X487715Y986535D01*
X488931Y988354D01*
X489358Y990500D01*
X489203Y991280D01*
X490067Y992285D01*
X629835D01*
X685257Y936863D01*
X685592Y936639D01*
X685864Y934574D01*
X686897Y932081D01*
X688540Y929940D01*
X690681Y928297D01*
X693174Y927264D01*
X695850Y926912D01*
X698526Y927264D01*
X701019Y928297D01*
X703160Y929940D01*
X704803Y932081D01*
X705836Y934574D01*
X706059Y936264D01*
X707400Y936720D01*
X710923Y933196D01*
Y930895D01*
X711000Y930510D01*
Y914300D01*
X731500D01*
Y934800D01*
X718886D01*
Y934845D01*
X718583Y936369D01*
X717720Y937660D01*
X715422Y939958D01*
X716081Y940997D01*
X718574Y939964D01*
X721250Y939612D01*
X723926Y939964D01*
X726419Y940997D01*
X728560Y942640D01*
X730203Y944781D01*
X730444Y945362D01*
X807650D01*
X812912Y940099D01*
Y906845D01*
X812212Y906776D01*
X809290Y905890D01*
X806597Y904450D01*
X804237Y902513D01*
X802300Y900153D01*
X800861Y897460D01*
X799974Y894539D01*
X799675Y891500D01*
X799974Y888462D01*
X800861Y885540D01*
X802300Y882847D01*
X804237Y880487D01*
X806597Y878550D01*
X809290Y877111D01*
X812212Y876224D01*
X815250Y875925D01*
X818288Y876224D01*
X821210Y877111D01*
X823903Y878550D01*
X826263Y880487D01*
X828200Y882847D01*
X829639Y885540D01*
X830526Y888462D01*
X830825Y891500D01*
X830526Y894539D01*
X829639Y897460D01*
X828200Y900153D01*
X826263Y902513D01*
X823903Y904450D01*
X822088Y905420D01*
Y942000D01*
X821739Y943756D01*
X820744Y945244D01*
X812794Y953194D01*
X811306Y954189D01*
X809550Y954538D01*
X756686D01*
X756200Y955712D01*
X757494Y957006D01*
X758489Y958494D01*
X758838Y960250D01*
Y1027250D01*
X758489Y1029006D01*
X757494Y1030494D01*
X751244Y1036744D01*
X749756Y1037739D01*
X748000Y1038088D01*
X670533D01*
X669646Y1038681D01*
X667500Y1039108D01*
D02*
G37*
G36*
X113750Y972989D02*
X111074Y972636D01*
X108581Y971603D01*
X106440Y969960D01*
X104797Y967819D01*
X103764Y965326D01*
X103412Y962650D01*
X103764Y959974D01*
X104797Y957481D01*
X106440Y955340D01*
X108581Y953697D01*
X111074Y952664D01*
X113750Y952312D01*
X116426Y952664D01*
X118919Y953697D01*
X121060Y955340D01*
X122703Y957481D01*
X123736Y959974D01*
X124088Y962650D01*
X123736Y965326D01*
X122703Y967819D01*
X121060Y969960D01*
X118919Y971603D01*
X116426Y972636D01*
X113750Y972989D01*
D02*
G37*
G36*
X411156Y952480D02*
X406520D01*
Y947844D01*
X407607Y948061D01*
X409605Y949395D01*
X410939Y951393D01*
X411156Y952480D01*
D02*
G37*
G36*
X403980D02*
X399344D01*
X399560Y951393D01*
X400895Y949395D01*
X402893Y948061D01*
X403980Y947844D01*
Y952480D01*
D02*
G37*
G36*
X113750Y947589D02*
X111074Y947236D01*
X108581Y946203D01*
X106440Y944560D01*
X104797Y942419D01*
X103764Y939926D01*
X103412Y937250D01*
X103764Y934574D01*
X104797Y932081D01*
X106440Y929940D01*
X108581Y928297D01*
X111074Y927264D01*
X113750Y926912D01*
X116426Y927264D01*
X118919Y928297D01*
X121060Y929940D01*
X122703Y932081D01*
X123736Y934574D01*
X124088Y937250D01*
X123736Y939926D01*
X122703Y942419D01*
X121060Y944560D01*
X118919Y946203D01*
X116426Y947236D01*
X113750Y947589D01*
D02*
G37*
G36*
X139150Y934889D02*
X136474Y934536D01*
X133981Y933503D01*
X131840Y931860D01*
X130197Y929719D01*
X129164Y927226D01*
X128812Y924550D01*
X129164Y921874D01*
X130197Y919381D01*
X131840Y917240D01*
X133981Y915597D01*
X136474Y914564D01*
X139150Y914212D01*
X141826Y914564D01*
X144319Y915597D01*
X146460Y917240D01*
X148103Y919381D01*
X149136Y921874D01*
X149488Y924550D01*
X149136Y927226D01*
X148103Y929719D01*
X146460Y931860D01*
X144319Y933503D01*
X141826Y934536D01*
X139150Y934889D01*
D02*
G37*
G36*
X784750Y930942D02*
X781025Y930575D01*
X777444Y929489D01*
X774143Y927724D01*
X771250Y925350D01*
X768876Y922457D01*
X767111Y919156D01*
X766025Y915575D01*
X765658Y911850D01*
X766025Y908125D01*
X767111Y904544D01*
X768876Y901243D01*
X771250Y898350D01*
X774143Y895976D01*
X777444Y894211D01*
X781025Y893125D01*
X784750Y892758D01*
X788475Y893125D01*
X792056Y894211D01*
X795357Y895976D01*
X798250Y898350D01*
X800624Y901243D01*
X802389Y904544D01*
X803475Y908125D01*
X803842Y911850D01*
X803475Y915575D01*
X802389Y919156D01*
X800624Y922457D01*
X798250Y925350D01*
X795357Y927724D01*
X792056Y929489D01*
X788475Y930575D01*
X784750Y930942D01*
D02*
G37*
G36*
X50250D02*
X46525Y930575D01*
X42944Y929489D01*
X39643Y927724D01*
X36750Y925350D01*
X34376Y922457D01*
X32611Y919156D01*
X31525Y915575D01*
X31158Y911850D01*
X31525Y908125D01*
X32611Y904544D01*
X34376Y901243D01*
X36750Y898350D01*
X39643Y895976D01*
X42944Y894211D01*
X46525Y893125D01*
X50250Y892758D01*
X53975Y893125D01*
X57556Y894211D01*
X60857Y895976D01*
X63750Y898350D01*
X66124Y901243D01*
X67889Y904544D01*
X68975Y908125D01*
X69342Y911850D01*
X68975Y915575D01*
X67889Y919156D01*
X66124Y922457D01*
X63750Y925350D01*
X60857Y927724D01*
X57556Y929489D01*
X53975Y930575D01*
X50250Y930942D01*
D02*
G37*
G36*
X380290Y882940D02*
X371020D01*
Y873670D01*
X380290D01*
Y882940D01*
D02*
G37*
G36*
X368480D02*
X359210D01*
Y873670D01*
X368480D01*
Y882940D01*
D02*
G37*
G36*
X490390Y878040D02*
X481120D01*
Y868770D01*
X490390D01*
Y878040D01*
D02*
G37*
G36*
X478580D02*
X469310D01*
Y868770D01*
X478580D01*
Y878040D01*
D02*
G37*
G36*
X178520Y871156D02*
Y866520D01*
X183156D01*
X182939Y867607D01*
X181605Y869605D01*
X179607Y870940D01*
X178520Y871156D01*
D02*
G37*
G36*
X175980D02*
X174893Y870940D01*
X172895Y869605D01*
X171560Y867607D01*
X171344Y866520D01*
X175980D01*
Y871156D01*
D02*
G37*
G36*
X380290Y871130D02*
X371020D01*
Y861860D01*
X380290D01*
Y871130D01*
D02*
G37*
G36*
X368480D02*
X359210D01*
Y861860D01*
X368480D01*
Y871130D01*
D02*
G37*
G36*
X530650Y877586D02*
X528040Y877243D01*
X525607Y876235D01*
X523518Y874632D01*
X521915Y872543D01*
X520907Y870110D01*
X520564Y867500D01*
X520907Y864890D01*
X521915Y862457D01*
X523518Y860368D01*
X525607Y858765D01*
X528040Y857757D01*
X530650Y857414D01*
X533260Y857757D01*
X535693Y858765D01*
X537782Y860368D01*
X539385Y862457D01*
X540393Y864890D01*
X540736Y867500D01*
X540393Y870110D01*
X539385Y872543D01*
X537782Y874632D01*
X535693Y876235D01*
X533260Y877243D01*
X530650Y877586D01*
D02*
G37*
G36*
X505250D02*
X502640Y877243D01*
X500207Y876235D01*
X498118Y874632D01*
X496515Y872543D01*
X495507Y870110D01*
X495164Y867500D01*
X495507Y864890D01*
X496515Y862457D01*
X498118Y860368D01*
X500207Y858765D01*
X502640Y857757D01*
X505250Y857414D01*
X507860Y857757D01*
X510293Y858765D01*
X512382Y860368D01*
X513985Y862457D01*
X514993Y864890D01*
X515336Y867500D01*
X514993Y870110D01*
X513985Y872543D01*
X512382Y874632D01*
X510293Y876235D01*
X507860Y877243D01*
X505250Y877586D01*
D02*
G37*
G36*
X490390Y866230D02*
X481120D01*
Y856960D01*
X490390D01*
Y866230D01*
D02*
G37*
G36*
X478580D02*
X469310D01*
Y856960D01*
X478580D01*
Y866230D01*
D02*
G37*
G36*
X183156Y863980D02*
X171344D01*
X171560Y862893D01*
X172895Y860895D01*
X174893Y859560D01*
X176058Y859329D01*
X175933Y858059D01*
X140942D01*
X139772Y857826D01*
X138779Y857163D01*
X138779Y857163D01*
X137647Y856030D01*
X136000Y856358D01*
X133854Y855931D01*
X132035Y854715D01*
X130819Y852896D01*
X130392Y850750D01*
X130819Y848604D01*
X132035Y846785D01*
X133854Y845569D01*
X136000Y845142D01*
X138146Y845569D01*
X139965Y846785D01*
X141181Y848604D01*
X141608Y850750D01*
X141571Y850936D01*
X142454Y851941D01*
X153456D01*
X153942Y850768D01*
X136087Y832913D01*
X135424Y831921D01*
X135191Y830750D01*
X135191Y830750D01*
Y819839D01*
X130319Y814967D01*
X129250Y815180D01*
X127104Y814753D01*
X125285Y813538D01*
X124069Y811718D01*
X123642Y809572D01*
X124069Y807426D01*
X125285Y805607D01*
X127104Y804391D01*
X129250Y803965D01*
X131396Y804391D01*
X133215Y805607D01*
X134431Y807426D01*
X134858Y809572D01*
X134645Y810642D01*
X140413Y816409D01*
X140413Y816410D01*
X141076Y817402D01*
X141309Y818572D01*
X141309Y818572D01*
Y829483D01*
X159017Y847191D01*
X276983D01*
X313941Y810233D01*
Y800821D01*
X313035Y800215D01*
X311819Y798396D01*
X311392Y796250D01*
X311819Y794104D01*
X313035Y792285D01*
X314854Y791069D01*
X317000Y790642D01*
X319146Y791069D01*
X320965Y792285D01*
X322181Y794104D01*
X322608Y796250D01*
X322181Y798396D01*
X320965Y800215D01*
X320059Y800821D01*
Y811500D01*
X319826Y812671D01*
X319163Y813663D01*
X282058Y850768D01*
X282544Y851941D01*
X312733D01*
X328191Y836483D01*
Y794821D01*
X327285Y794215D01*
X326069Y792396D01*
X325642Y790250D01*
X326069Y788104D01*
X327285Y786285D01*
X329104Y785069D01*
X331250Y784642D01*
X333396Y785069D01*
X335215Y786285D01*
X336431Y788104D01*
X336858Y790250D01*
X336431Y792396D01*
X335215Y794215D01*
X334309Y794821D01*
Y837750D01*
X334076Y838921D01*
X333413Y839913D01*
X316163Y857163D01*
X315171Y857826D01*
X314000Y858059D01*
X314000Y858059D01*
X178567D01*
X178442Y859329D01*
X179607Y859560D01*
X181605Y860895D01*
X182939Y862893D01*
X183156Y863980D01*
D02*
G37*
G36*
X369750Y857086D02*
X367140Y856743D01*
X364707Y855735D01*
X362618Y854132D01*
X361015Y852043D01*
X360007Y849611D01*
X359664Y847000D01*
X360007Y844389D01*
X361015Y841957D01*
X362618Y839868D01*
X364707Y838265D01*
X367140Y837257D01*
X369750Y836914D01*
X372360Y837257D01*
X374793Y838265D01*
X376882Y839868D01*
X378485Y841957D01*
X379493Y844389D01*
X379836Y847000D01*
X379493Y849611D01*
X378485Y852043D01*
X376882Y854132D01*
X374793Y855735D01*
X372360Y856743D01*
X369750Y857086D01*
D02*
G37*
G36*
X273716Y835102D02*
Y830466D01*
X278352D01*
X278136Y831553D01*
X276801Y833551D01*
X274803Y834886D01*
X273716Y835102D01*
D02*
G37*
G36*
X271176D02*
X270089Y834886D01*
X268092Y833551D01*
X266756Y831553D01*
X266540Y830466D01*
X271176D01*
Y835102D01*
D02*
G37*
G36*
X214000Y845608D02*
X211854Y845181D01*
X210035Y843965D01*
X208819Y842146D01*
X208392Y840000D01*
X208819Y837854D01*
X209568Y836734D01*
X209965Y835953D01*
X209244Y835106D01*
X208285Y834465D01*
X207069Y832646D01*
X206714Y830861D01*
X205594Y829789D01*
X205250Y829858D01*
X203104Y829431D01*
X201285Y828215D01*
X200069Y826396D01*
X199642Y824250D01*
X200069Y822104D01*
X201285Y820285D01*
X203104Y819069D01*
X205250Y818642D01*
X207396Y819069D01*
X209215Y820285D01*
X210431Y822104D01*
X210786Y823889D01*
X211906Y824961D01*
X212250Y824892D01*
X214396Y825319D01*
X216215Y826535D01*
X217431Y828354D01*
X217639Y829402D01*
X219051Y829987D01*
X219615Y829610D01*
X221761Y829183D01*
X223907Y829610D01*
X225726Y830826D01*
X226942Y832645D01*
X227369Y834791D01*
X226942Y836937D01*
X225726Y838756D01*
X223907Y839972D01*
X221761Y840398D01*
X220764Y840200D01*
X219609Y840000D01*
X219384Y841122D01*
X219181Y842146D01*
X217965Y843965D01*
X216146Y845181D01*
X214000Y845608D01*
D02*
G37*
G36*
X677000Y839108D02*
X674854Y838681D01*
X673035Y837465D01*
X671819Y835646D01*
X671392Y833500D01*
X671819Y831354D01*
X673035Y829535D01*
X674854Y828319D01*
X677000Y827892D01*
X679146Y828319D01*
X679659Y828662D01*
X714343D01*
X715604Y827819D01*
X717750Y827392D01*
X719896Y827819D01*
X721715Y829035D01*
X722931Y830854D01*
X723358Y833000D01*
X722931Y835146D01*
X721715Y836965D01*
X719896Y838181D01*
X717750Y838608D01*
X715604Y838181D01*
X715091Y837838D01*
X680407D01*
X679146Y838681D01*
X677000Y839108D01*
D02*
G37*
G36*
X55500Y869106D02*
X51187Y868682D01*
X47040Y867424D01*
X43218Y865381D01*
X39868Y862632D01*
X37119Y859282D01*
X35076Y855460D01*
X33818Y851313D01*
X33394Y847000D01*
X33818Y842687D01*
X35076Y838540D01*
X37119Y834718D01*
X39868Y831368D01*
X43218Y828619D01*
X47040Y826576D01*
X51187Y825318D01*
X55500Y824894D01*
X59813Y825318D01*
X63960Y826576D01*
X67782Y828619D01*
X71132Y831368D01*
X73881Y834718D01*
X75924Y838540D01*
X77182Y842687D01*
X77606Y847000D01*
X77182Y851313D01*
X75924Y855460D01*
X73881Y859282D01*
X71132Y862632D01*
X67782Y865381D01*
X63960Y867424D01*
X59813Y868682D01*
X55500Y869106D01*
D02*
G37*
G36*
X241500Y835858D02*
X239354Y835431D01*
X237535Y834215D01*
X236319Y832396D01*
X235892Y830250D01*
X236319Y828104D01*
X237535Y826285D01*
X239354Y825069D01*
X241500Y824642D01*
X243646Y825069D01*
X245465Y826285D01*
X246681Y828104D01*
X247108Y830250D01*
X246681Y832396D01*
X245465Y834215D01*
X243646Y835431D01*
X241500Y835858D01*
D02*
G37*
G36*
X278352Y827926D02*
X273716D01*
Y823290D01*
X274803Y823506D01*
X276801Y824842D01*
X278136Y826839D01*
X278352Y827926D01*
D02*
G37*
G36*
X271176D02*
X266540D01*
X266756Y826839D01*
X268092Y824842D01*
X270089Y823506D01*
X271176Y823290D01*
Y827926D01*
D02*
G37*
G36*
X252750Y829358D02*
X250604Y828931D01*
X248785Y827715D01*
X247569Y825896D01*
X247142Y823750D01*
X247569Y821604D01*
X248785Y819785D01*
X250604Y818569D01*
X252750Y818142D01*
X254896Y818569D01*
X256715Y819785D01*
X257931Y821604D01*
X258358Y823750D01*
X257931Y825896D01*
X256715Y827715D01*
X254896Y828931D01*
X252750Y829358D01*
D02*
G37*
G36*
X602750Y856606D02*
X598437Y856182D01*
X594290Y854924D01*
X590468Y852881D01*
X587118Y850132D01*
X584369Y846782D01*
X582326Y842960D01*
X581068Y838813D01*
X580644Y834500D01*
X581068Y830187D01*
X582326Y826040D01*
X584369Y822218D01*
X587118Y818868D01*
X590468Y816119D01*
X594290Y814076D01*
X598437Y812818D01*
X602750Y812394D01*
X607063Y812818D01*
X611210Y814076D01*
X615032Y816119D01*
X618382Y818868D01*
X621131Y822218D01*
X623174Y826040D01*
X624432Y830187D01*
X624856Y834500D01*
X624432Y838813D01*
X623174Y842960D01*
X621131Y846782D01*
X618382Y850132D01*
X615032Y852881D01*
X611210Y854924D01*
X607063Y856182D01*
X602750Y856606D01*
D02*
G37*
G36*
X369750Y831686D02*
X367140Y831343D01*
X364707Y830335D01*
X362618Y828732D01*
X361015Y826643D01*
X360007Y824211D01*
X359664Y821600D01*
X360007Y818989D01*
X361015Y816557D01*
X362618Y814468D01*
X364707Y812865D01*
X367140Y811857D01*
X369750Y811514D01*
X372360Y811857D01*
X374793Y812865D01*
X376882Y814468D01*
X378485Y816557D01*
X379493Y818989D01*
X379836Y821600D01*
X379493Y824211D01*
X378485Y826643D01*
X376882Y828732D01*
X374793Y830335D01*
X372360Y831343D01*
X369750Y831686D01*
D02*
G37*
G36*
X224250Y813358D02*
X222104Y812931D01*
X220285Y811715D01*
X219069Y809896D01*
X218891Y809000D01*
X217835Y808295D01*
X217765Y808309D01*
X217765Y808309D01*
X187571D01*
X186965Y809215D01*
X185146Y810431D01*
X183000Y810858D01*
X180854Y810431D01*
X179035Y809215D01*
X177819Y807396D01*
X177392Y805250D01*
X177819Y803104D01*
X179035Y801285D01*
X180854Y800069D01*
X183000Y799642D01*
X185146Y800069D01*
X185796Y800503D01*
X186938Y799740D01*
X186642Y798250D01*
X187069Y796104D01*
X188285Y794285D01*
X190104Y793069D01*
X190467Y792997D01*
X190813Y791633D01*
X189819Y790146D01*
X189392Y788000D01*
X189819Y785854D01*
X191035Y784035D01*
X191815Y783513D01*
Y781986D01*
X191785Y781965D01*
X190569Y780146D01*
X190142Y778000D01*
X190569Y775854D01*
X191785Y774035D01*
X193604Y772819D01*
X195750Y772392D01*
X197896Y772819D01*
X199715Y774035D01*
X200931Y775854D01*
X201358Y778000D01*
X200931Y780146D01*
X199715Y781965D01*
X198935Y782487D01*
Y784014D01*
X198965Y784035D01*
X200181Y785854D01*
X200608Y788000D01*
X200181Y790146D01*
X198965Y791965D01*
X197146Y793181D01*
X196783Y793253D01*
X196437Y794617D01*
X197431Y796104D01*
X197858Y798250D01*
X197431Y800396D01*
X196980Y801071D01*
X197578Y802191D01*
X216498D01*
X243852Y774837D01*
X243852Y774837D01*
X244844Y774174D01*
X246015Y773941D01*
X246015Y773941D01*
X260235D01*
X260235Y773941D01*
X261406Y774174D01*
X262398Y774837D01*
X263752Y776191D01*
X337429D01*
X338035Y775285D01*
X339854Y774069D01*
X342000Y773642D01*
X344146Y774069D01*
X345965Y775285D01*
X347181Y777104D01*
X347608Y779250D01*
X347181Y781396D01*
X345965Y783215D01*
X344146Y784431D01*
X342000Y784858D01*
X339854Y784431D01*
X338035Y783215D01*
X337429Y782309D01*
X265377D01*
X264376Y783579D01*
X264406Y783730D01*
X252594D01*
X252810Y782643D01*
X253689Y781329D01*
X253010Y780059D01*
X247282D01*
X238956Y788385D01*
X239298Y789838D01*
X240715Y790785D01*
X241931Y792604D01*
X242358Y794750D01*
X241931Y796896D01*
X240715Y798715D01*
X238896Y799931D01*
X236750Y800358D01*
X234604Y799931D01*
X232785Y798715D01*
X231838Y797299D01*
X230385Y796956D01*
X225993Y801347D01*
X226300Y802358D01*
X226499Y802638D01*
X228215Y803785D01*
X229431Y805604D01*
X229858Y807750D01*
X229431Y809896D01*
X228215Y811715D01*
X226396Y812931D01*
X224250Y813358D01*
D02*
G37*
G36*
X237750D02*
X235604Y812931D01*
X233785Y811715D01*
X232569Y809896D01*
X232142Y807750D01*
X232569Y805604D01*
X233785Y803785D01*
X235604Y802569D01*
X237750Y802142D01*
X239896Y802569D01*
X241715Y803785D01*
X242931Y805604D01*
X243358Y807750D01*
X242931Y809896D01*
X241715Y811715D01*
X239896Y812931D01*
X237750Y813358D01*
D02*
G37*
G36*
X757000Y804608D02*
X754854Y804181D01*
X753035Y802965D01*
X751819Y801146D01*
X751392Y799000D01*
X751819Y796854D01*
X753035Y795035D01*
X754854Y793819D01*
X757000Y793392D01*
X759146Y793819D01*
X760965Y795035D01*
X762181Y796854D01*
X762608Y799000D01*
X762181Y801146D01*
X760965Y802965D01*
X759146Y804181D01*
X757000Y804608D01*
D02*
G37*
G36*
X526441Y798666D02*
X524295Y798239D01*
X522476Y797024D01*
X521261Y795205D01*
X520834Y793059D01*
X521261Y790913D01*
X522476Y789093D01*
X524295Y787878D01*
X526441Y787451D01*
X528587Y787878D01*
X530407Y789093D01*
X531622Y790913D01*
X532049Y793059D01*
X531622Y795205D01*
X530407Y797024D01*
X528587Y798239D01*
X526441Y798666D01*
D02*
G37*
G36*
X259770Y790906D02*
Y786270D01*
X264406D01*
X264189Y787357D01*
X262855Y789355D01*
X260857Y790690D01*
X259770Y790906D01*
D02*
G37*
G36*
X257230D02*
X256143Y790690D01*
X254145Y789355D01*
X252810Y787357D01*
X252594Y786270D01*
X257230D01*
Y790906D01*
D02*
G37*
G36*
X578250Y801900D02*
X559250D01*
Y782900D01*
X578250D01*
Y801900D01*
D02*
G37*
G36*
X25020Y787861D02*
Y779020D01*
X33861D01*
X33678Y780410D01*
X32651Y782889D01*
X31018Y785018D01*
X28889Y786651D01*
X26410Y787678D01*
X25020Y787861D01*
D02*
G37*
G36*
X22480D02*
X21090Y787678D01*
X18611Y786651D01*
X16482Y785018D01*
X14849Y782889D01*
X13822Y780410D01*
X13639Y779020D01*
X22480D01*
Y787861D01*
D02*
G37*
G36*
X103250Y803298D02*
X99537Y802809D01*
X96076Y801376D01*
X93105Y799095D01*
X90824Y796124D01*
X89391Y792663D01*
X88902Y788950D01*
X89391Y785237D01*
X90824Y781776D01*
X93105Y778805D01*
X96076Y776525D01*
X99537Y775091D01*
X103250Y774602D01*
X106964Y775091D01*
X110424Y776525D01*
X113395Y778805D01*
X115675Y781776D01*
X117109Y785237D01*
X117598Y788950D01*
X117109Y792663D01*
X115675Y796124D01*
X113395Y799095D01*
X110424Y801376D01*
X106964Y802809D01*
X103250Y803298D01*
D02*
G37*
G36*
X33861Y776480D02*
X25020D01*
Y767639D01*
X26410Y767822D01*
X28889Y768849D01*
X31018Y770482D01*
X32651Y772611D01*
X33678Y775090D01*
X33861Y776480D01*
D02*
G37*
G36*
X22480D02*
X13639D01*
X13822Y775090D01*
X14849Y772611D01*
X16482Y770482D01*
X18611Y768849D01*
X21090Y767822D01*
X22480Y767639D01*
Y776480D01*
D02*
G37*
G36*
X781750Y784536D02*
X779139Y784193D01*
X776707Y783185D01*
X774618Y781582D01*
X773015Y779493D01*
X772007Y777060D01*
X771664Y774450D01*
X772007Y771840D01*
X773015Y769407D01*
X774618Y767318D01*
X776707Y765715D01*
X779139Y764707D01*
X781750Y764364D01*
X784361Y764707D01*
X786793Y765715D01*
X788882Y767318D01*
X790485Y769407D01*
X791493Y771840D01*
X791836Y774450D01*
X791493Y777060D01*
X790485Y779493D01*
X788882Y781582D01*
X786793Y783185D01*
X784361Y784193D01*
X781750Y784536D01*
D02*
G37*
G36*
X568750Y776582D02*
X566270Y776255D01*
X563959Y775298D01*
X561975Y773775D01*
X560452Y771791D01*
X559734Y770059D01*
X552500D01*
X551329Y769826D01*
X550337Y769163D01*
X550337Y769163D01*
X540337Y759163D01*
X539674Y758170D01*
X539441Y757000D01*
X539441Y757000D01*
Y728967D01*
X521087Y710613D01*
X520424Y709620D01*
X520191Y708450D01*
X520191Y708450D01*
Y661767D01*
X472447Y614022D01*
X471460Y614832D01*
X472061Y615732D01*
X472314Y617000D01*
Y621349D01*
X472965Y621785D01*
X474181Y623604D01*
X474608Y625750D01*
X474181Y627896D01*
X472965Y629715D01*
X471146Y630931D01*
X469000Y631358D01*
X466854Y630931D01*
X465035Y629715D01*
X463819Y627896D01*
X463392Y625750D01*
X463819Y623604D01*
X464430Y622690D01*
X463514Y621774D01*
X462123Y622704D01*
X459977Y623131D01*
X457831Y622704D01*
X456012Y621488D01*
X455394Y620564D01*
X422250D01*
X420982Y620311D01*
X419907Y619593D01*
X382242Y581928D01*
X381069Y582414D01*
Y585522D01*
X435978Y640431D01*
X448520D01*
X448785Y640035D01*
X450604Y638819D01*
X452750Y638392D01*
X454896Y638819D01*
X456715Y640035D01*
X457931Y641854D01*
X458358Y644000D01*
X457931Y646146D01*
X456715Y647965D01*
X454896Y649181D01*
X452750Y649608D01*
X450604Y649181D01*
X448785Y647965D01*
X448520Y647569D01*
X434500D01*
X433939Y647457D01*
X433314Y648627D01*
X438873Y654186D01*
X448599D01*
X449035Y653535D01*
X450854Y652319D01*
X453000Y651892D01*
X455146Y652319D01*
X456965Y653535D01*
X458181Y655354D01*
X458608Y657500D01*
X458181Y659646D01*
X456965Y661465D01*
X455146Y662681D01*
X453000Y663108D01*
X450854Y662681D01*
X449035Y661465D01*
X448599Y660814D01*
X437500D01*
X436232Y660561D01*
X435157Y659843D01*
X369657Y594343D01*
X368939Y593268D01*
X368686Y592000D01*
Y466123D01*
X366614Y464050D01*
X365444Y464676D01*
X365608Y465500D01*
X365325Y466921D01*
X365413Y467009D01*
X366076Y468001D01*
X366309Y469172D01*
X366309Y469172D01*
Y625647D01*
X366309Y625647D01*
X366076Y626818D01*
X365413Y627810D01*
X362656Y630567D01*
X362681Y630604D01*
X363108Y632750D01*
X362681Y634896D01*
X361465Y636715D01*
X359646Y637931D01*
X357500Y638358D01*
X357300Y638318D01*
X356675Y639488D01*
X358731Y641545D01*
X359500Y641392D01*
X361646Y641819D01*
X363465Y643035D01*
X364681Y644854D01*
X365108Y647000D01*
X364681Y649146D01*
X363465Y650965D01*
X361646Y652181D01*
X359500Y652608D01*
X357354Y652181D01*
X355535Y650965D01*
X354319Y649146D01*
X353892Y647000D01*
X354045Y646231D01*
X347157Y639343D01*
X346439Y638268D01*
X346186Y637000D01*
Y614409D01*
X345013Y613923D01*
X333593Y625343D01*
X332518Y626061D01*
X331250Y626314D01*
X325151D01*
X324715Y626965D01*
X322896Y628181D01*
X320750Y628608D01*
X318604Y628181D01*
X317839Y627669D01*
X316569Y628348D01*
Y675271D01*
X317839Y675849D01*
X319393Y674810D01*
X320480Y674594D01*
Y680500D01*
Y686406D01*
X319393Y686190D01*
X317839Y685151D01*
X316569Y685729D01*
Y731522D01*
X318532Y733485D01*
X319000Y733392D01*
X321146Y733819D01*
X322965Y735035D01*
X324181Y736854D01*
X324608Y739000D01*
X324181Y741146D01*
X322965Y742965D01*
X321146Y744181D01*
X319000Y744608D01*
X316854Y744181D01*
X315035Y742965D01*
X313819Y741146D01*
X313392Y739000D01*
X313485Y738532D01*
X310477Y735523D01*
X309703Y734366D01*
X309431Y733000D01*
Y614419D01*
X308311Y613820D01*
X308146Y613931D01*
X306000Y614358D01*
X303854Y613931D01*
X302035Y612715D01*
X300819Y610896D01*
X300392Y608750D01*
X300819Y606604D01*
X302035Y604785D01*
X303854Y603569D01*
X306000Y603142D01*
X308146Y603569D01*
X308311Y603680D01*
X309431Y603081D01*
Y561817D01*
X308311Y561219D01*
X307607Y561690D01*
X306520Y561906D01*
Y556000D01*
Y550094D01*
X307607Y550311D01*
X308311Y550781D01*
X309431Y550183D01*
Y367424D01*
X275881Y333873D01*
X274708Y334360D01*
Y345104D01*
X244292D01*
Y327896D01*
X268244D01*
X268731Y326723D01*
X222826Y280819D01*
X215730D01*
X215465Y281215D01*
X213646Y282431D01*
X211500Y282858D01*
X209354Y282431D01*
X207535Y281215D01*
X206319Y279396D01*
X205892Y277250D01*
X206319Y275104D01*
X207535Y273285D01*
X209354Y272069D01*
X211500Y271642D01*
X213646Y272069D01*
X215465Y273285D01*
X215730Y273681D01*
X224305D01*
X225670Y273953D01*
X226828Y274727D01*
X275120Y323019D01*
X275523Y323099D01*
X276681Y323873D01*
X278731Y325923D01*
X279505Y327081D01*
X279585Y327484D01*
X315523Y363422D01*
X316297Y364580D01*
X316569Y365945D01*
Y617652D01*
X317839Y618331D01*
X318604Y617819D01*
X320750Y617392D01*
X322896Y617819D01*
X324715Y619035D01*
X325151Y619686D01*
X329878D01*
X340936Y608628D01*
Y570416D01*
X339816Y569817D01*
X339646Y569931D01*
X337500Y570358D01*
X335354Y569931D01*
X333535Y568715D01*
X332319Y566896D01*
X331892Y564750D01*
X332319Y562604D01*
X333535Y560785D01*
X335354Y559569D01*
X337500Y559142D01*
X339646Y559569D01*
X339816Y559683D01*
X340936Y559084D01*
Y543123D01*
X339519Y541705D01*
X338750Y541858D01*
X336604Y541431D01*
X334785Y540215D01*
X333569Y538396D01*
X333142Y536250D01*
X333569Y534104D01*
X334785Y532285D01*
X336604Y531069D01*
X338750Y530642D01*
X340896Y531069D01*
X342715Y532285D01*
X343931Y534104D01*
X344358Y536250D01*
X344216Y536965D01*
X345100Y537791D01*
X346186Y537341D01*
Y471447D01*
X346104Y471431D01*
X344285Y470215D01*
X343069Y468396D01*
X342642Y466250D01*
X343069Y464104D01*
X344285Y462285D01*
X346104Y461069D01*
X348250Y460642D01*
X350396Y461069D01*
X352215Y462285D01*
X353388Y464040D01*
X353668Y464078D01*
X354698Y463964D01*
X354819Y463354D01*
X356035Y461535D01*
X357854Y460319D01*
X360000Y459892D01*
X360824Y460056D01*
X361450Y458886D01*
X356657Y454093D01*
X355939Y453018D01*
X355686Y451750D01*
Y443901D01*
X355035Y443465D01*
X353819Y441646D01*
X353392Y439500D01*
X353819Y437354D01*
X355035Y435535D01*
X356854Y434319D01*
X359000Y433892D01*
X361146Y434319D01*
X362411Y435165D01*
X363681Y434495D01*
Y429230D01*
X363285Y428965D01*
X362069Y427146D01*
X361642Y425000D01*
X362069Y422854D01*
X363285Y421035D01*
X365104Y419819D01*
X367250Y419392D01*
X369396Y419819D01*
X371215Y421035D01*
X372431Y422854D01*
X372858Y425000D01*
X372431Y427146D01*
X371215Y428965D01*
X370819Y429230D01*
Y439245D01*
X372089Y439915D01*
X373354Y439069D01*
X375500Y438642D01*
X377646Y439069D01*
X379465Y440285D01*
X380681Y442104D01*
X381108Y444250D01*
X380968Y444953D01*
X381839Y445765D01*
X382931Y445310D01*
Y390180D01*
X383203Y388814D01*
X383977Y387656D01*
X449181Y322452D01*
Y277567D01*
X447911Y276777D01*
X446250Y277108D01*
X444104Y276681D01*
X442285Y275465D01*
X441069Y273646D01*
X440642Y271500D01*
X441069Y269354D01*
X442285Y267535D01*
X444104Y266319D01*
X446250Y265892D01*
X447911Y266223D01*
X449181Y265433D01*
Y177442D01*
X449453Y176076D01*
X450227Y174919D01*
X464419Y160727D01*
X465576Y159953D01*
X466942Y159681D01*
X470191D01*
X470530Y158861D01*
X471909Y157064D01*
X473707Y155684D01*
X475800Y154817D01*
X478046Y154522D01*
X491254D01*
X493500Y154817D01*
X495593Y155684D01*
X497390Y157064D01*
X498770Y158861D01*
X499636Y160954D01*
X499932Y163200D01*
X499636Y165446D01*
X498770Y167539D01*
X497390Y169336D01*
X495593Y170716D01*
X493500Y171583D01*
X491254Y171878D01*
X478046D01*
X475800Y171583D01*
X473707Y170716D01*
X471909Y169336D01*
X470530Y167539D01*
X470232Y166819D01*
X468420D01*
X456319Y178920D01*
Y226089D01*
X457589Y226615D01*
X466027Y218177D01*
X467184Y217403D01*
X468550Y217131D01*
X470211D01*
X470530Y216361D01*
X471909Y214564D01*
X473707Y213184D01*
X475800Y212318D01*
X478046Y212022D01*
X491254D01*
X493500Y212318D01*
X495593Y213184D01*
X497390Y214564D01*
X498770Y216361D01*
X499636Y218454D01*
X499932Y220700D01*
X499636Y222946D01*
X498770Y225039D01*
X497390Y226836D01*
X495593Y228216D01*
X493500Y229083D01*
X491254Y229378D01*
X478046D01*
X475800Y229083D01*
X473707Y228216D01*
X471909Y226836D01*
X470758Y225335D01*
X469690Y225084D01*
X469186Y225111D01*
X462569Y231728D01*
Y346346D01*
X462297Y347712D01*
X461523Y348870D01*
X395069Y415324D01*
Y444205D01*
X396339Y444731D01*
X481081Y359988D01*
Y287654D01*
X481065Y287469D01*
X481050Y287378D01*
X478046D01*
X475800Y287083D01*
X473707Y286216D01*
X471909Y284837D01*
X470530Y283039D01*
X469663Y280946D01*
X469368Y278700D01*
X469663Y276454D01*
X470530Y274361D01*
X471909Y272564D01*
X473707Y271184D01*
X475800Y270317D01*
X478046Y270022D01*
X491254D01*
X493500Y270317D01*
X495593Y271184D01*
X497390Y272564D01*
X498770Y274361D01*
X499636Y276454D01*
X499932Y278700D01*
X499636Y280946D01*
X498770Y283039D01*
X497390Y284837D01*
X495593Y286216D01*
X493500Y287083D01*
X491254Y287378D01*
X488250D01*
X488235Y287469D01*
X488219Y287654D01*
Y361467D01*
X487947Y362832D01*
X487173Y363990D01*
X401569Y449595D01*
Y522547D01*
X402672Y523285D01*
X403888Y525104D01*
X404315Y527250D01*
X403888Y529396D01*
X403638Y529770D01*
X404149Y530519D01*
X404481Y530794D01*
X406500Y530392D01*
X408646Y530819D01*
X410465Y532035D01*
X411681Y533854D01*
X412108Y536000D01*
X411681Y538146D01*
X410465Y539965D01*
X408646Y541181D01*
X406500Y541608D01*
X404354Y541181D01*
X402535Y539965D01*
X402270Y539569D01*
X397558D01*
X397152Y539488D01*
X396072Y540568D01*
X396108Y540750D01*
X395681Y542896D01*
X394465Y544715D01*
X392646Y545931D01*
X390500Y546358D01*
X388354Y545931D01*
X386535Y544715D01*
X386084Y544040D01*
X384814Y544425D01*
Y575127D01*
X422470Y612784D01*
X423457Y611975D01*
X422569Y610646D01*
X422142Y608500D01*
X422295Y607731D01*
X414407Y599843D01*
X413689Y598768D01*
X413436Y597500D01*
Y472151D01*
X412785Y471715D01*
X411569Y469896D01*
X411142Y467750D01*
X411569Y465604D01*
X412785Y463785D01*
X414604Y462569D01*
X416750Y462142D01*
X418896Y462569D01*
X420715Y463785D01*
X421166Y464460D01*
X422436Y464075D01*
Y448651D01*
X421785Y448215D01*
X420569Y446396D01*
X420142Y444250D01*
X420569Y442104D01*
X421785Y440285D01*
X423604Y439069D01*
X425750Y438642D01*
X427896Y439069D01*
X429715Y440285D01*
X430931Y442104D01*
X431358Y444250D01*
X430931Y446396D01*
X429715Y448215D01*
X429064Y448651D01*
Y572378D01*
X452737Y596050D01*
X454115Y595632D01*
X454319Y594604D01*
X455535Y592785D01*
X457354Y591569D01*
X459500Y591142D01*
X461646Y591569D01*
X463465Y592785D01*
X464681Y594604D01*
X465108Y596750D01*
X464895Y597819D01*
X523018Y655942D01*
X524191Y655456D01*
Y648517D01*
X470569Y594895D01*
X469500Y595108D01*
X467354Y594681D01*
X465535Y593465D01*
X464319Y591646D01*
X463892Y589500D01*
X464319Y587354D01*
X465535Y585535D01*
X467354Y584319D01*
X469500Y583892D01*
X471646Y584319D01*
X473465Y585535D01*
X474681Y587354D01*
X475108Y589500D01*
X474895Y590569D01*
X529413Y645087D01*
X530076Y646079D01*
X530309Y647250D01*
Y703733D01*
X539717Y713141D01*
X559734D01*
X560452Y711409D01*
X561975Y709425D01*
X563959Y707902D01*
X566270Y706945D01*
X568750Y706618D01*
X571230Y706945D01*
X573541Y707902D01*
X575526Y709425D01*
X577048Y711409D01*
X578005Y713720D01*
X578332Y716200D01*
X578005Y718680D01*
X577048Y720991D01*
X575526Y722975D01*
X573541Y724498D01*
X571230Y725455D01*
X568750Y725782D01*
X566270Y725455D01*
X563959Y724498D01*
X561975Y722975D01*
X560452Y720991D01*
X559734Y719259D01*
X540181D01*
X539655Y720529D01*
X544663Y725537D01*
X544663Y725537D01*
X545326Y726529D01*
X545559Y727700D01*
X545559Y727700D01*
Y755733D01*
X553767Y763941D01*
X559734D01*
X560452Y762209D01*
X561975Y760225D01*
X563959Y758702D01*
X566270Y757745D01*
X568750Y757418D01*
X571230Y757745D01*
X573541Y758702D01*
X575526Y760225D01*
X577048Y762209D01*
X578005Y764520D01*
X578332Y767000D01*
X578005Y769480D01*
X577048Y771791D01*
X575526Y773775D01*
X573541Y775298D01*
X571230Y776255D01*
X568750Y776582D01*
D02*
G37*
G36*
X423750Y766108D02*
X421604Y765681D01*
X419785Y764465D01*
X418569Y762646D01*
X418142Y760500D01*
X418569Y758354D01*
X419785Y756535D01*
X421604Y755319D01*
X423750Y754892D01*
X425896Y755319D01*
X427715Y756535D01*
X428931Y758354D01*
X429358Y760500D01*
X428931Y762646D01*
X427715Y764465D01*
X425896Y765681D01*
X423750Y766108D01*
D02*
G37*
G36*
X72750Y786988D02*
X69172Y786636D01*
X65732Y785592D01*
X62562Y783898D01*
X59783Y781617D01*
X57502Y778838D01*
X55808Y775668D01*
X54764Y772228D01*
X54412Y768650D01*
X54764Y765072D01*
X55808Y761632D01*
X57502Y758462D01*
X59783Y755683D01*
X62562Y753402D01*
X65732Y751708D01*
X69172Y750664D01*
X72750Y750312D01*
X76328Y750664D01*
X79768Y751708D01*
X82938Y753402D01*
X85717Y755683D01*
X87998Y758462D01*
X89692Y761632D01*
X90736Y765072D01*
X91088Y768650D01*
X90736Y772228D01*
X89692Y775668D01*
X87998Y778838D01*
X85717Y781617D01*
X82938Y783898D01*
X79768Y785592D01*
X76328Y786636D01*
X72750Y786988D01*
D02*
G37*
G36*
X186770Y751906D02*
Y747270D01*
X191406D01*
X191190Y748357D01*
X189855Y750355D01*
X187857Y751690D01*
X186770Y751906D01*
D02*
G37*
G36*
X184230D02*
X183143Y751690D01*
X181145Y750355D01*
X179811Y748357D01*
X179594Y747270D01*
X184230D01*
Y751906D01*
D02*
G37*
G36*
X145240Y764990D02*
X127260D01*
Y747010D01*
X145240D01*
Y764990D01*
D02*
G37*
G36*
X287270Y750906D02*
Y746270D01*
X291906D01*
X291690Y747357D01*
X290355Y749355D01*
X288357Y750690D01*
X287270Y750906D01*
D02*
G37*
G36*
X284730D02*
X283643Y750690D01*
X281645Y749355D01*
X280310Y747357D01*
X280094Y746270D01*
X284730D01*
Y750906D01*
D02*
G37*
G36*
X238020Y750156D02*
Y745520D01*
X242656D01*
X242439Y746607D01*
X241105Y748605D01*
X239107Y749939D01*
X238020Y750156D01*
D02*
G37*
G36*
X235480D02*
X234393Y749939D01*
X232395Y748605D01*
X231060Y746607D01*
X230844Y745520D01*
X235480D01*
Y750156D01*
D02*
G37*
G36*
X23750Y762083D02*
X21231Y761752D01*
X18883Y760779D01*
X16868Y759232D01*
X15321Y757217D01*
X14348Y754869D01*
X14017Y752350D01*
X14348Y749831D01*
X15321Y747483D01*
X16868Y745468D01*
X18883Y743921D01*
X21231Y742948D01*
X23750Y742617D01*
X26269Y742948D01*
X28617Y743921D01*
X30633Y745468D01*
X32179Y747483D01*
X33152Y749831D01*
X33483Y752350D01*
X33152Y754869D01*
X32179Y757217D01*
X30633Y759232D01*
X28617Y760779D01*
X26269Y761752D01*
X23750Y762083D01*
D02*
G37*
G36*
X191406Y744730D02*
X186770D01*
Y740094D01*
X187857Y740311D01*
X189855Y741645D01*
X191190Y743643D01*
X191406Y744730D01*
D02*
G37*
G36*
X184230D02*
X179594D01*
X179811Y743643D01*
X181145Y741645D01*
X183143Y740311D01*
X184230Y740094D01*
Y744730D01*
D02*
G37*
G36*
X291906Y743730D02*
X287270D01*
Y739094D01*
X288357Y739311D01*
X290355Y740645D01*
X291690Y742643D01*
X291906Y743730D01*
D02*
G37*
G36*
X284730D02*
X280094D01*
X280310Y742643D01*
X281645Y740645D01*
X283643Y739311D01*
X284730Y739094D01*
Y743730D01*
D02*
G37*
G36*
X781750Y759136D02*
X779139Y758793D01*
X776707Y757785D01*
X774618Y756182D01*
X773015Y754093D01*
X772007Y751661D01*
X771664Y749050D01*
X772007Y746440D01*
X773015Y744007D01*
X774618Y741918D01*
X776707Y740315D01*
X779139Y739307D01*
X781750Y738964D01*
X784361Y739307D01*
X786793Y740315D01*
X788882Y741918D01*
X790485Y744007D01*
X791493Y746440D01*
X791836Y749050D01*
X791493Y751661D01*
X790485Y754093D01*
X788882Y756182D01*
X786793Y757785D01*
X784361Y758793D01*
X781750Y759136D01*
D02*
G37*
G36*
X242656Y742980D02*
X238020D01*
Y738344D01*
X239107Y738560D01*
X241105Y739895D01*
X242439Y741893D01*
X242656Y742980D01*
D02*
G37*
G36*
X235480D02*
X230844D01*
X231060Y741893D01*
X232395Y739895D01*
X234393Y738560D01*
X235480Y738344D01*
Y742980D01*
D02*
G37*
G36*
X395250Y898858D02*
X393104Y898431D01*
X391285Y897215D01*
X390069Y895396D01*
X389642Y893250D01*
X390069Y891104D01*
X391285Y889285D01*
X392191Y888679D01*
Y748750D01*
X392191Y748750D01*
X392424Y747579D01*
X393087Y746587D01*
X417337Y722337D01*
X418330Y721674D01*
X419500Y721441D01*
X434750D01*
X434750Y721441D01*
X435921Y721674D01*
X436913Y722337D01*
X452931Y738355D01*
X454000Y738142D01*
X456146Y738569D01*
X457965Y739785D01*
X459181Y741604D01*
X459608Y743750D01*
X459181Y745896D01*
X457965Y747715D01*
X456146Y748931D01*
X454000Y749358D01*
X451854Y748931D01*
X450035Y747715D01*
X448819Y745896D01*
X448392Y743750D01*
X448605Y742681D01*
X433483Y727559D01*
X420767D01*
X398309Y750017D01*
Y888679D01*
X399215Y889285D01*
X400431Y891104D01*
X400858Y893250D01*
X400431Y895396D01*
X399215Y897215D01*
X397396Y898431D01*
X395250Y898858D01*
D02*
G37*
G36*
X516000Y747858D02*
X513854Y747431D01*
X512035Y746215D01*
X510819Y744396D01*
X510392Y742250D01*
X510819Y740104D01*
X512035Y738285D01*
X513854Y737069D01*
X516000Y736642D01*
X518146Y737069D01*
X519965Y738285D01*
X521181Y740104D01*
X521608Y742250D01*
X521181Y744396D01*
X519965Y746215D01*
X518146Y747431D01*
X516000Y747858D01*
D02*
G37*
G36*
X161650Y752368D02*
X159303Y752059D01*
X157116Y751153D01*
X155238Y749712D01*
X153797Y747834D01*
X152891Y745647D01*
X152582Y743300D01*
X152891Y740953D01*
X153797Y738766D01*
X155238Y736888D01*
X157116Y735447D01*
X159303Y734541D01*
X161650Y734232D01*
X163997Y734541D01*
X166184Y735447D01*
X168062Y736888D01*
X169503Y738766D01*
X170409Y740953D01*
X170718Y743300D01*
X170409Y745647D01*
X169503Y747834D01*
X168062Y749712D01*
X166184Y751153D01*
X163997Y752059D01*
X161650Y752368D01*
D02*
G37*
G36*
X357000Y744622D02*
X354854Y744196D01*
X353035Y742980D01*
X351819Y741161D01*
X351392Y739015D01*
X351819Y736869D01*
X353035Y735050D01*
X354854Y733834D01*
X357000Y733407D01*
X359146Y733834D01*
X360965Y735050D01*
X362181Y736869D01*
X362608Y739015D01*
X362181Y741161D01*
X360965Y742980D01*
X359146Y744196D01*
X357000Y744622D01*
D02*
G37*
G36*
X568750Y751182D02*
X566270Y750855D01*
X563959Y749898D01*
X561975Y748375D01*
X560452Y746391D01*
X559495Y744080D01*
X559168Y741600D01*
X559495Y739120D01*
X560452Y736809D01*
X561975Y734825D01*
X563959Y733302D01*
X566270Y732345D01*
X568750Y732018D01*
X571230Y732345D01*
X573541Y733302D01*
X575526Y734825D01*
X577048Y736809D01*
X578005Y739120D01*
X578332Y741600D01*
X578005Y744080D01*
X577048Y746391D01*
X575526Y748375D01*
X573541Y749898D01*
X571230Y750855D01*
X568750Y751182D01*
D02*
G37*
G36*
X529250Y735358D02*
X527104Y734931D01*
X525285Y733715D01*
X524069Y731896D01*
X523642Y729750D01*
X524069Y727604D01*
X525285Y725785D01*
X527104Y724569D01*
X529250Y724142D01*
X531396Y724569D01*
X533215Y725785D01*
X534431Y727604D01*
X534858Y729750D01*
X534431Y731896D01*
X533215Y733715D01*
X531396Y734931D01*
X529250Y735358D01*
D02*
G37*
G36*
X136250Y739668D02*
X133903Y739359D01*
X131716Y738453D01*
X129838Y737012D01*
X128397Y735134D01*
X127491Y732947D01*
X127182Y730600D01*
X127491Y728253D01*
X128397Y726066D01*
X129838Y724188D01*
X131716Y722747D01*
X133903Y721841D01*
X136250Y721533D01*
X138597Y721841D01*
X140784Y722747D01*
X142662Y724188D01*
X144103Y726066D01*
X145009Y728253D01*
X145318Y730600D01*
X145009Y732947D01*
X144103Y735134D01*
X142662Y737012D01*
X140784Y738453D01*
X138597Y739359D01*
X136250Y739668D01*
D02*
G37*
G36*
X162920Y727345D02*
Y719170D01*
X171095D01*
X170935Y720388D01*
X169974Y722706D01*
X168447Y724697D01*
X166456Y726225D01*
X164138Y727185D01*
X162920Y727345D01*
D02*
G37*
G36*
X160380D02*
X159162Y727185D01*
X156844Y726225D01*
X154853Y724697D01*
X153326Y722706D01*
X152365Y720388D01*
X152205Y719170D01*
X160380D01*
Y727345D01*
D02*
G37*
G36*
X781750Y733736D02*
X779139Y733393D01*
X776707Y732385D01*
X774618Y730782D01*
X773015Y728693D01*
X772007Y726261D01*
X771664Y723650D01*
X772007Y721040D01*
X773015Y718607D01*
X774618Y716518D01*
X776707Y714915D01*
X779139Y713907D01*
X781750Y713564D01*
X784361Y713907D01*
X786793Y714915D01*
X788882Y716518D01*
X790485Y718607D01*
X791493Y721040D01*
X791836Y723650D01*
X791493Y726261D01*
X790485Y728693D01*
X788882Y730782D01*
X786793Y732385D01*
X784361Y733393D01*
X781750Y733736D01*
D02*
G37*
G36*
X160380Y716630D02*
X152205D01*
X152365Y715412D01*
X153326Y713094D01*
X154853Y711103D01*
X156844Y709576D01*
X159162Y708615D01*
X160380Y708455D01*
Y716630D01*
D02*
G37*
G36*
X171095D02*
X162920D01*
Y708455D01*
X164138Y708615D01*
X166456Y709576D01*
X168447Y711103D01*
X169974Y713094D01*
X170935Y715412D01*
X171095Y716630D01*
D02*
G37*
G36*
X137520Y714645D02*
Y706470D01*
X145695D01*
X145535Y707688D01*
X144574Y710006D01*
X143047Y711997D01*
X141056Y713524D01*
X138738Y714485D01*
X137520Y714645D01*
D02*
G37*
G36*
X134980D02*
X133762Y714485D01*
X131444Y713524D01*
X129453Y711997D01*
X127926Y710006D01*
X126965Y707688D01*
X126805Y706470D01*
X134980D01*
Y714645D01*
D02*
G37*
G36*
X221500Y714358D02*
X219354Y713931D01*
X217535Y712715D01*
X216319Y710896D01*
X215892Y708750D01*
X216319Y706604D01*
X217535Y704785D01*
X219354Y703569D01*
X221500Y703142D01*
X223646Y703569D01*
X225465Y704785D01*
X226681Y706604D01*
X227108Y708750D01*
X226681Y710896D01*
X225465Y712715D01*
X223646Y713931D01*
X221500Y714358D01*
D02*
G37*
G36*
X189770Y707156D02*
Y702520D01*
X194406D01*
X194190Y703607D01*
X192855Y705605D01*
X190857Y706940D01*
X189770Y707156D01*
D02*
G37*
G36*
X187230D02*
X186143Y706940D01*
X184145Y705605D01*
X182810Y703607D01*
X182594Y702520D01*
X187230D01*
Y707156D01*
D02*
G37*
G36*
X398250Y709608D02*
X396104Y709181D01*
X394285Y707965D01*
X393069Y706146D01*
X392642Y704000D01*
X393069Y701854D01*
X394285Y700035D01*
X396104Y698819D01*
X398250Y698392D01*
X400396Y698819D01*
X402215Y700035D01*
X403431Y701854D01*
X403858Y704000D01*
X403431Y706146D01*
X402215Y707965D01*
X400396Y709181D01*
X398250Y709608D01*
D02*
G37*
G36*
X134980Y703930D02*
X126805D01*
X126965Y702712D01*
X127926Y700394D01*
X129453Y698403D01*
X131444Y696876D01*
X133762Y695915D01*
X134980Y695755D01*
Y703930D01*
D02*
G37*
G36*
X145695D02*
X137520D01*
Y695755D01*
X138738Y695915D01*
X141056Y696876D01*
X143047Y698403D01*
X144574Y700394D01*
X145535Y702712D01*
X145695Y703930D01*
D02*
G37*
G36*
X360000Y706858D02*
X357854Y706431D01*
X356035Y705215D01*
X354819Y703396D01*
X354392Y701250D01*
X354819Y699104D01*
X356035Y697285D01*
X357854Y696069D01*
X360000Y695642D01*
X362146Y696069D01*
X363965Y697285D01*
X365181Y699104D01*
X365608Y701250D01*
X365181Y703396D01*
X363965Y705215D01*
X362146Y706431D01*
X360000Y706858D01*
D02*
G37*
G36*
X513520Y700156D02*
Y695520D01*
X518156D01*
X517940Y696607D01*
X516605Y698605D01*
X514607Y699939D01*
X513520Y700156D01*
D02*
G37*
G36*
X510980D02*
X509893Y699939D01*
X507895Y698605D01*
X506561Y696607D01*
X506344Y695520D01*
X510980D01*
Y700156D01*
D02*
G37*
G36*
X194406Y699980D02*
X189770D01*
Y695344D01*
X190857Y695561D01*
X192855Y696895D01*
X194190Y698893D01*
X194406Y699980D01*
D02*
G37*
G36*
X187230D02*
X182594D01*
X182810Y698893D01*
X184145Y696895D01*
X186143Y695561D01*
X187230Y695344D01*
Y699980D01*
D02*
G37*
G36*
X570020Y700759D02*
Y692070D01*
X578709D01*
X578532Y693421D01*
X577520Y695863D01*
X575911Y697961D01*
X573813Y699570D01*
X571371Y700582D01*
X570020Y700759D01*
D02*
G37*
G36*
X567480Y700760D02*
X566129Y700582D01*
X563687Y699570D01*
X561589Y697961D01*
X559980Y695863D01*
X558969Y693421D01*
X558791Y692070D01*
X567480D01*
Y700760D01*
D02*
G37*
G36*
X518156Y692980D02*
X513520D01*
Y688344D01*
X514607Y688560D01*
X516605Y689895D01*
X517940Y691893D01*
X518156Y692980D01*
D02*
G37*
G36*
X510980D02*
X506344D01*
X506561Y691893D01*
X507895Y689895D01*
X509893Y688560D01*
X510980Y688344D01*
Y692980D01*
D02*
G37*
G36*
X781750Y708336D02*
X779139Y707993D01*
X776707Y706985D01*
X774618Y705382D01*
X773015Y703293D01*
X772007Y700861D01*
X771664Y698250D01*
X772007Y695639D01*
X773015Y693207D01*
X774618Y691118D01*
X776707Y689515D01*
X779139Y688507D01*
X781750Y688164D01*
X784361Y688507D01*
X786793Y689515D01*
X788882Y691118D01*
X790485Y693207D01*
X791493Y695639D01*
X791836Y698250D01*
X791493Y700861D01*
X790485Y703293D01*
X788882Y705382D01*
X786793Y706985D01*
X784361Y707993D01*
X781750Y708336D01*
D02*
G37*
G36*
X161650Y701568D02*
X159303Y701259D01*
X157116Y700353D01*
X155238Y698912D01*
X153797Y697034D01*
X152891Y694847D01*
X152582Y692500D01*
X152891Y690153D01*
X153797Y687966D01*
X155238Y686088D01*
X157116Y684647D01*
X159303Y683741D01*
X161650Y683432D01*
X163997Y683741D01*
X166184Y684647D01*
X168062Y686088D01*
X169503Y687966D01*
X170409Y690153D01*
X170718Y692500D01*
X170409Y694847D01*
X169503Y697034D01*
X168062Y698912D01*
X166184Y700353D01*
X163997Y701259D01*
X161650Y701568D01*
D02*
G37*
G36*
X323020Y686406D02*
Y681770D01*
X327656D01*
X327440Y682857D01*
X326105Y684855D01*
X324107Y686190D01*
X323020Y686406D01*
D02*
G37*
G36*
X578709Y689530D02*
X570020D01*
Y680841D01*
X571371Y681018D01*
X573813Y682030D01*
X575911Y683639D01*
X577520Y685737D01*
X578532Y688179D01*
X578709Y689530D01*
D02*
G37*
G36*
X567480D02*
X558791D01*
X558969Y688179D01*
X559980Y685737D01*
X561589Y683639D01*
X563687Y682030D01*
X566129Y681018D01*
X567480Y680841D01*
Y689530D01*
D02*
G37*
G36*
X642520Y682906D02*
Y678270D01*
X647156D01*
X646939Y679357D01*
X645605Y681355D01*
X643607Y682690D01*
X642520Y682906D01*
D02*
G37*
G36*
X639980D02*
X638893Y682690D01*
X636895Y681355D01*
X635560Y679357D01*
X635344Y678270D01*
X639980D01*
Y682906D01*
D02*
G37*
G36*
X327656Y679230D02*
X323020D01*
Y674594D01*
X324107Y674810D01*
X326105Y676145D01*
X327440Y678143D01*
X327656Y679230D01*
D02*
G37*
G36*
X647156Y675730D02*
X642520D01*
Y671094D01*
X643607Y671310D01*
X645605Y672645D01*
X646939Y674643D01*
X647156Y675730D01*
D02*
G37*
G36*
X639980D02*
X635344D01*
X635560Y674643D01*
X636895Y672645D01*
X638893Y671310D01*
X639980Y671094D01*
Y675730D01*
D02*
G37*
G36*
X136250Y688868D02*
X133903Y688559D01*
X131716Y687653D01*
X129838Y686212D01*
X128397Y684334D01*
X127491Y682147D01*
X127182Y679800D01*
X127491Y677453D01*
X128397Y675266D01*
X129838Y673388D01*
X131716Y671947D01*
X133903Y671041D01*
X136250Y670732D01*
X138597Y671041D01*
X140784Y671947D01*
X142662Y673388D01*
X144103Y675266D01*
X145009Y677453D01*
X145318Y679800D01*
X145009Y682147D01*
X144103Y684334D01*
X142662Y686212D01*
X140784Y687653D01*
X138597Y688559D01*
X136250Y688868D01*
D02*
G37*
G36*
X279750Y680608D02*
X277604Y680181D01*
X275785Y678965D01*
X274569Y677146D01*
X274142Y675000D01*
X274569Y672854D01*
X275785Y671035D01*
X277604Y669819D01*
X279750Y669392D01*
X281896Y669819D01*
X283715Y671035D01*
X284931Y672854D01*
X285358Y675000D01*
X284931Y677146D01*
X283715Y678965D01*
X281896Y680181D01*
X279750Y680608D01*
D02*
G37*
G36*
X706500Y668059D02*
X706500Y668059D01*
X651000D01*
X649829Y667826D01*
X648837Y667163D01*
X648837Y667163D01*
X643819Y662145D01*
X642750Y662358D01*
X640604Y661931D01*
X638785Y660715D01*
X637569Y658896D01*
X637142Y656750D01*
X637569Y654604D01*
X638785Y652785D01*
X640604Y651569D01*
X642750Y651142D01*
X644896Y651569D01*
X646715Y652785D01*
X647931Y654604D01*
X648358Y656750D01*
X648145Y657819D01*
X652267Y661941D01*
X686075D01*
X686754Y660671D01*
X686069Y659646D01*
X685642Y657500D01*
X686069Y655354D01*
X687285Y653535D01*
X688566Y652679D01*
Y641320D01*
X688035Y640965D01*
X686819Y639146D01*
X686392Y637000D01*
X686819Y634854D01*
X688035Y633035D01*
X689854Y631819D01*
X692000Y631392D01*
X694146Y631819D01*
X695965Y633035D01*
X697181Y634854D01*
X697608Y637000D01*
X697181Y639146D01*
X695965Y640965D01*
X694684Y641822D01*
Y653180D01*
X695215Y653535D01*
X696431Y655354D01*
X696858Y657500D01*
X696431Y659646D01*
X695746Y660671D01*
X696425Y661941D01*
X705233D01*
X710105Y657069D01*
X709892Y656000D01*
X710319Y653854D01*
X711535Y652035D01*
X713354Y650819D01*
X715500Y650392D01*
X717646Y650819D01*
X719465Y652035D01*
X720681Y653854D01*
X721108Y656000D01*
X720681Y658146D01*
X719465Y659965D01*
X717646Y661181D01*
X715500Y661608D01*
X714431Y661395D01*
X708663Y667163D01*
X707671Y667826D01*
X706500Y668059D01*
D02*
G37*
G36*
X23750Y680383D02*
X21231Y680052D01*
X18883Y679079D01*
X16868Y677533D01*
X15321Y675517D01*
X14348Y673169D01*
X14017Y670650D01*
X14348Y668131D01*
X15321Y665783D01*
X16868Y663768D01*
X18883Y662221D01*
X21231Y661248D01*
X23750Y660917D01*
X26269Y661248D01*
X28617Y662221D01*
X30633Y663768D01*
X32179Y665783D01*
X33152Y668131D01*
X33483Y670650D01*
X33152Y673169D01*
X32179Y675517D01*
X30633Y677533D01*
X28617Y679079D01*
X26269Y680052D01*
X23750Y680383D01*
D02*
G37*
G36*
X161650Y676168D02*
X159303Y675859D01*
X157116Y674953D01*
X155238Y673512D01*
X153797Y671634D01*
X152891Y669447D01*
X152582Y667100D01*
X152891Y664753D01*
X153797Y662566D01*
X155238Y660688D01*
X157116Y659247D01*
X159303Y658341D01*
X161650Y658033D01*
X163997Y658341D01*
X166184Y659247D01*
X168062Y660688D01*
X169503Y662566D01*
X170409Y664753D01*
X170718Y667100D01*
X170409Y669447D01*
X169503Y671634D01*
X168062Y673512D01*
X166184Y674953D01*
X163997Y675859D01*
X161650Y676168D01*
D02*
G37*
G36*
X277750Y668358D02*
X275604Y667931D01*
X273785Y666715D01*
X272569Y664896D01*
X272142Y662750D01*
X272569Y660604D01*
X273503Y659206D01*
X273569Y658374D01*
X273190Y657654D01*
X271785Y656715D01*
X270569Y654896D01*
X270142Y652750D01*
X270569Y650604D01*
X271785Y648785D01*
X273604Y647569D01*
X275750Y647142D01*
X277896Y647569D01*
X279715Y648785D01*
X280931Y650604D01*
X281358Y652750D01*
X280931Y654896D01*
X279997Y656294D01*
X279931Y657125D01*
X280310Y657846D01*
X281715Y658785D01*
X282931Y660604D01*
X283358Y662750D01*
X282931Y664896D01*
X281715Y666715D01*
X279896Y667931D01*
X277750Y668358D01*
D02*
G37*
G36*
X25020Y655361D02*
Y646520D01*
X33861D01*
X33678Y647910D01*
X32651Y650389D01*
X31018Y652518D01*
X28889Y654151D01*
X26410Y655178D01*
X25020Y655361D01*
D02*
G37*
G36*
X22480D02*
X21090Y655178D01*
X18611Y654151D01*
X16482Y652518D01*
X14849Y650389D01*
X13822Y647910D01*
X13639Y646520D01*
X22480D01*
Y655361D01*
D02*
G37*
G36*
X781750Y657536D02*
X779139Y657193D01*
X776707Y656185D01*
X774618Y654582D01*
X773015Y652493D01*
X772007Y650061D01*
X771664Y647450D01*
X772007Y644839D01*
X773015Y642407D01*
X774618Y640318D01*
X776707Y638715D01*
X779139Y637707D01*
X781750Y637364D01*
X784361Y637707D01*
X786793Y638715D01*
X788882Y640318D01*
X790485Y642407D01*
X791493Y644839D01*
X791836Y647450D01*
X791493Y650061D01*
X790485Y652493D01*
X788882Y654582D01*
X786793Y656185D01*
X784361Y657193D01*
X781750Y657536D01*
D02*
G37*
G36*
X72750Y672688D02*
X69172Y672336D01*
X65732Y671292D01*
X62562Y669598D01*
X59783Y667317D01*
X57502Y664538D01*
X55808Y661368D01*
X54764Y657928D01*
X54412Y654350D01*
X54764Y650772D01*
X55808Y647332D01*
X57502Y644162D01*
X59783Y641383D01*
X62562Y639102D01*
X65732Y637408D01*
X69172Y636364D01*
X72750Y636012D01*
X76328Y636364D01*
X79768Y637408D01*
X82938Y639102D01*
X85717Y641383D01*
X87998Y644162D01*
X89692Y647332D01*
X90736Y650772D01*
X91088Y654350D01*
X90736Y657928D01*
X89692Y661368D01*
X87998Y664538D01*
X85717Y667317D01*
X82938Y669598D01*
X79768Y671292D01*
X76328Y672336D01*
X72750Y672688D01*
D02*
G37*
G36*
X33861Y643980D02*
X25020D01*
Y635139D01*
X26410Y635322D01*
X28889Y636349D01*
X31018Y637982D01*
X32651Y640111D01*
X33678Y642590D01*
X33861Y643980D01*
D02*
G37*
G36*
X22480D02*
X13639D01*
X13822Y642590D01*
X14849Y640111D01*
X16482Y637982D01*
X18611Y636349D01*
X21090Y635322D01*
X22480Y635139D01*
Y643980D01*
D02*
G37*
G36*
X208770Y636906D02*
Y632270D01*
X213406D01*
X213190Y633357D01*
X211855Y635355D01*
X209857Y636690D01*
X208770Y636906D01*
D02*
G37*
G36*
X206230D02*
X205143Y636690D01*
X203145Y635355D01*
X201810Y633357D01*
X201594Y632270D01*
X206230D01*
Y636906D01*
D02*
G37*
G36*
X729770Y636406D02*
Y631770D01*
X734406D01*
X734190Y632857D01*
X732855Y634855D01*
X730857Y636190D01*
X729770Y636406D01*
D02*
G37*
G36*
X727230D02*
X726143Y636190D01*
X724145Y634855D01*
X722810Y632857D01*
X722594Y631770D01*
X727230D01*
Y636406D01*
D02*
G37*
G36*
X614270Y634656D02*
Y630020D01*
X618906D01*
X618689Y631107D01*
X617355Y633105D01*
X615357Y634440D01*
X614270Y634656D01*
D02*
G37*
G36*
X611730D02*
X610643Y634440D01*
X608645Y633105D01*
X607310Y631107D01*
X607094Y630020D01*
X611730D01*
Y634656D01*
D02*
G37*
G36*
X213406Y629730D02*
X208770D01*
Y625094D01*
X209857Y625311D01*
X211855Y626645D01*
X213190Y628643D01*
X213406Y629730D01*
D02*
G37*
G36*
X206230D02*
X201594D01*
X201810Y628643D01*
X203145Y626645D01*
X205143Y625311D01*
X206230Y625094D01*
Y629730D01*
D02*
G37*
G36*
X734406Y629230D02*
X729770D01*
Y624594D01*
X730857Y624810D01*
X732855Y626145D01*
X734190Y628143D01*
X734406Y629230D01*
D02*
G37*
G36*
X727230D02*
X722594D01*
X722810Y628143D01*
X724145Y626145D01*
X726143Y624810D01*
X727230Y624594D01*
Y629230D01*
D02*
G37*
G36*
X618906Y627480D02*
X614270D01*
Y622844D01*
X615357Y623060D01*
X617355Y624395D01*
X618689Y626393D01*
X618906Y627480D01*
D02*
G37*
G36*
X611730D02*
X607094D01*
X607310Y626393D01*
X608645Y624395D01*
X610643Y623060D01*
X611730Y622844D01*
Y627480D01*
D02*
G37*
G36*
X103250Y648398D02*
X99537Y647909D01*
X96076Y646476D01*
X93105Y644195D01*
X90824Y641224D01*
X89391Y637763D01*
X88902Y634050D01*
X89391Y630336D01*
X90824Y626876D01*
X93105Y623905D01*
X96076Y621624D01*
X99537Y620191D01*
X103250Y619702D01*
X106964Y620191D01*
X110424Y621624D01*
X113395Y623905D01*
X115675Y626876D01*
X117109Y630336D01*
X117598Y634050D01*
X117109Y637763D01*
X115675Y641224D01*
X113395Y644195D01*
X110424Y646476D01*
X106964Y647909D01*
X103250Y648398D01*
D02*
G37*
G36*
X791750Y632050D02*
X771750D01*
Y612050D01*
X791750D01*
Y632050D01*
D02*
G37*
G36*
X580250Y607108D02*
X578104Y606681D01*
X576285Y605465D01*
X575069Y603646D01*
X574642Y601500D01*
X574711Y601155D01*
X573768Y600059D01*
X526821D01*
X526215Y600965D01*
X524396Y602181D01*
X522250Y602608D01*
X520104Y602181D01*
X518285Y600965D01*
X517069Y599146D01*
X516642Y597000D01*
X517069Y594854D01*
X518285Y593035D01*
X520104Y591819D01*
X522250Y591392D01*
X524396Y591819D01*
X526215Y593035D01*
X526821Y593941D01*
X575558D01*
X575558Y593941D01*
X576728Y594174D01*
X577720Y594837D01*
X579020Y596137D01*
X580250Y595892D01*
X582396Y596319D01*
X584215Y597535D01*
X585431Y599354D01*
X585858Y601500D01*
X585431Y603646D01*
X584215Y605465D01*
X582396Y606681D01*
X580250Y607108D01*
D02*
G37*
G36*
X648290Y597290D02*
X640020D01*
Y589020D01*
X648290D01*
Y597290D01*
D02*
G37*
G36*
X637480D02*
X629210D01*
Y589020D01*
X637480D01*
Y597290D01*
D02*
G37*
G36*
X688750Y596828D02*
X686401Y596518D01*
X684211Y595611D01*
X682331Y594169D01*
X680889Y592289D01*
X679982Y590099D01*
X679672Y587750D01*
X679982Y585401D01*
X680889Y583211D01*
X682331Y581331D01*
X684211Y579889D01*
X686401Y578982D01*
X688750Y578672D01*
X691099Y578982D01*
X693289Y579889D01*
X695169Y581331D01*
X696611Y583211D01*
X697518Y585401D01*
X697828Y587750D01*
X697518Y590099D01*
X696611Y592289D01*
X695169Y594169D01*
X693289Y595611D01*
X691099Y596518D01*
X688750Y596828D01*
D02*
G37*
G36*
X648290Y586480D02*
X640020D01*
Y578210D01*
X648290D01*
Y586480D01*
D02*
G37*
G36*
X637480D02*
X629210D01*
Y578210D01*
X637480D01*
Y586480D01*
D02*
G37*
G36*
X723750Y582608D02*
X721604Y582181D01*
X719785Y580965D01*
X719520Y580569D01*
X707250D01*
X705884Y580297D01*
X704727Y579523D01*
X628227Y503023D01*
X627453Y501866D01*
X627181Y500500D01*
Y426980D01*
X626785Y426715D01*
X625569Y424896D01*
X625142Y422750D01*
X625569Y420604D01*
X626785Y418785D01*
X628604Y417569D01*
X630750Y417142D01*
X632896Y417569D01*
X634715Y418785D01*
X635931Y420604D01*
X636358Y422750D01*
X635931Y424896D01*
X634715Y426715D01*
X634319Y426980D01*
Y499022D01*
X708728Y573431D01*
X719520D01*
X719785Y573035D01*
X721604Y571819D01*
X723750Y571392D01*
X725896Y571819D01*
X727715Y573035D01*
X728931Y574854D01*
X729358Y577000D01*
X728931Y579146D01*
X727715Y580965D01*
X725896Y582181D01*
X723750Y582608D01*
D02*
G37*
G36*
X303980Y561906D02*
X302893Y561690D01*
X300895Y560355D01*
X299561Y558357D01*
X299344Y557270D01*
X303980D01*
Y561906D01*
D02*
G37*
G36*
Y554730D02*
X299344D01*
X299561Y553643D01*
X300895Y551645D01*
X302893Y550311D01*
X303980Y550094D01*
Y554730D01*
D02*
G37*
G36*
X328750Y559108D02*
X326604Y558681D01*
X324785Y557465D01*
X323569Y555646D01*
X323142Y553500D01*
X323569Y551354D01*
X324785Y549535D01*
X326604Y548319D01*
X328750Y547892D01*
X330896Y548319D01*
X332715Y549535D01*
X333931Y551354D01*
X334358Y553500D01*
X333931Y555646D01*
X332715Y557465D01*
X330896Y558681D01*
X328750Y559108D01*
D02*
G37*
G36*
X59000Y572858D02*
X55737Y572428D01*
X52696Y571169D01*
X50085Y569165D01*
X48081Y566554D01*
X46822Y563513D01*
X46392Y560250D01*
X46822Y556987D01*
X48081Y553946D01*
X50085Y551335D01*
X52696Y549331D01*
X55737Y548072D01*
X59000Y547642D01*
X62263Y548072D01*
X65304Y549331D01*
X67915Y551335D01*
X69919Y553946D01*
X71178Y556987D01*
X71608Y560250D01*
X71178Y563513D01*
X69919Y566554D01*
X67915Y569165D01*
X65304Y571169D01*
X62263Y572428D01*
X59000Y572858D01*
D02*
G37*
G36*
X266104Y551878D02*
X252896D01*
X250650Y551582D01*
X248557Y550716D01*
X246760Y549336D01*
X245380Y547539D01*
X244513Y545446D01*
X244218Y543200D01*
X244513Y540954D01*
X245380Y538861D01*
X246760Y537063D01*
X248557Y535684D01*
X250650Y534817D01*
X252896Y534522D01*
X266104D01*
X268350Y534817D01*
X270443Y535684D01*
X272241Y537063D01*
X273620Y538861D01*
X274487Y540954D01*
X274782Y543200D01*
X274487Y545446D01*
X273620Y547539D01*
X272241Y549336D01*
X270443Y550716D01*
X268350Y551582D01*
X266104Y551878D01*
D02*
G37*
G36*
X189904D02*
X176696D01*
X174450Y551582D01*
X172357Y550716D01*
X170560Y549336D01*
X169180Y547539D01*
X168314Y545446D01*
X168018Y543200D01*
X168314Y540954D01*
X169180Y538861D01*
X170560Y537063D01*
X172357Y535684D01*
X174450Y534817D01*
X176696Y534522D01*
X189904D01*
X192150Y534817D01*
X194243Y535684D01*
X196040Y537063D01*
X197420Y538861D01*
X198286Y540954D01*
X198582Y543200D01*
X198286Y545446D01*
X197420Y547539D01*
X196040Y549336D01*
X194243Y550716D01*
X192150Y551582D01*
X189904Y551878D01*
D02*
G37*
G36*
X490270Y532906D02*
Y528270D01*
X494906D01*
X494690Y529357D01*
X493355Y531355D01*
X491357Y532690D01*
X490270Y532906D01*
D02*
G37*
G36*
X487730D02*
X486643Y532690D01*
X484645Y531355D01*
X483311Y529357D01*
X483094Y528270D01*
X487730D01*
Y532906D01*
D02*
G37*
G36*
X494906Y525730D02*
X490270D01*
Y521094D01*
X491357Y521310D01*
X493355Y522645D01*
X494690Y524643D01*
X494906Y525730D01*
D02*
G37*
G36*
X487730D02*
X483094D01*
X483311Y524643D01*
X484645Y522645D01*
X486643Y521310D01*
X487730Y521094D01*
Y525730D01*
D02*
G37*
G36*
X274708Y526404D02*
X244292D01*
Y509196D01*
X274708D01*
Y526404D01*
D02*
G37*
G36*
X189904Y526478D02*
X176696D01*
X174450Y526183D01*
X172357Y525316D01*
X170560Y523936D01*
X169180Y522139D01*
X168314Y520046D01*
X168018Y517800D01*
X168314Y515554D01*
X169180Y513461D01*
X170560Y511664D01*
X172357Y510284D01*
X174450Y509417D01*
X176696Y509122D01*
X189904D01*
X192150Y509417D01*
X194243Y510284D01*
X196040Y511664D01*
X197420Y513461D01*
X198286Y515554D01*
X198582Y517800D01*
X198286Y520046D01*
X197420Y522139D01*
X196040Y523936D01*
X194243Y525316D01*
X192150Y526183D01*
X189904Y526478D01*
D02*
G37*
G36*
X803250Y520500D02*
X785250D01*
Y502500D01*
X803250D01*
Y520500D01*
D02*
G37*
G36*
X744250Y520578D02*
X741900Y520268D01*
X739711Y519361D01*
X737831Y517919D01*
X736389Y516039D01*
X735482Y513849D01*
X735172Y511500D01*
X735482Y509151D01*
X736389Y506961D01*
X737831Y505081D01*
X739711Y503638D01*
X741900Y502732D01*
X744250Y502422D01*
X746600Y502732D01*
X748789Y503638D01*
X750669Y505081D01*
X752112Y506961D01*
X753018Y509151D01*
X753328Y511500D01*
X753018Y513849D01*
X752112Y516039D01*
X750669Y517919D01*
X748789Y519361D01*
X746600Y520268D01*
X744250Y520578D01*
D02*
G37*
G36*
X59000Y522858D02*
X55737Y522428D01*
X52696Y521169D01*
X50085Y519165D01*
X48081Y516554D01*
X46822Y513513D01*
X46392Y510250D01*
X46822Y506987D01*
X48081Y503946D01*
X50085Y501335D01*
X52696Y499331D01*
X55737Y498072D01*
X59000Y497642D01*
X62263Y498072D01*
X65304Y499331D01*
X67915Y501335D01*
X69919Y503946D01*
X71178Y506987D01*
X71608Y510250D01*
X71178Y513513D01*
X69919Y516554D01*
X67915Y519165D01*
X65304Y521169D01*
X62263Y522428D01*
X59000Y522858D01*
D02*
G37*
G36*
X689120Y510753D02*
X673880D01*
X671369Y510422D01*
X669028Y509453D01*
X667019Y507911D01*
X665477Y505901D01*
X664508Y503561D01*
X664177Y501050D01*
X664508Y498539D01*
X665477Y496199D01*
X667019Y494189D01*
X669028Y492647D01*
X671369Y491678D01*
X673880Y491347D01*
X689120D01*
X691631Y491678D01*
X693971Y492647D01*
X695981Y494189D01*
X697523Y496199D01*
X698492Y498539D01*
X698823Y501050D01*
X698492Y503561D01*
X697523Y505901D01*
X695981Y507911D01*
X693971Y509453D01*
X691631Y510422D01*
X689120Y510753D01*
D02*
G37*
G36*
Y485898D02*
X683500D01*
Y477650D01*
X699104D01*
X699018Y478302D01*
X697995Y480774D01*
X696366Y482896D01*
X694244Y484525D01*
X691772Y485549D01*
X689120Y485898D01*
D02*
G37*
G36*
X679500D02*
X673880D01*
X671228Y485549D01*
X668756Y484525D01*
X666634Y482896D01*
X665005Y480774D01*
X663981Y478302D01*
X663896Y477650D01*
X679500D01*
Y485898D01*
D02*
G37*
G36*
X266104Y489628D02*
X252896D01*
X250650Y489333D01*
X248557Y488466D01*
X246760Y487086D01*
X245380Y485289D01*
X244513Y483196D01*
X244218Y480950D01*
X244513Y478704D01*
X245380Y476611D01*
X246760Y474814D01*
X248557Y473434D01*
X250650Y472567D01*
X252896Y472272D01*
X266104D01*
X268350Y472567D01*
X270443Y473434D01*
X272241Y474814D01*
X273620Y476611D01*
X274487Y478704D01*
X274782Y480950D01*
X274487Y483196D01*
X273620Y485289D01*
X272241Y487086D01*
X270443Y488466D01*
X268350Y489333D01*
X266104Y489628D01*
D02*
G37*
G36*
X189904D02*
X176696D01*
X174450Y489333D01*
X172357Y488466D01*
X170560Y487086D01*
X169180Y485289D01*
X168314Y483196D01*
X168018Y480950D01*
X168314Y478704D01*
X169180Y476611D01*
X170560Y474814D01*
X172357Y473434D01*
X174450Y472567D01*
X176696Y472272D01*
X189904D01*
X192150Y472567D01*
X194243Y473434D01*
X196040Y474814D01*
X197420Y476611D01*
X198286Y478704D01*
X198582Y480950D01*
X198286Y483196D01*
X197420Y485289D01*
X196040Y487086D01*
X194243Y488466D01*
X192150Y489333D01*
X189904Y489628D01*
D02*
G37*
G36*
X699104Y473650D02*
X683500D01*
Y465402D01*
X689120D01*
X691772Y465751D01*
X694244Y466775D01*
X696366Y468404D01*
X697995Y470526D01*
X699018Y472998D01*
X699104Y473650D01*
D02*
G37*
G36*
X679500D02*
X663896D01*
X663981Y472998D01*
X665005Y470526D01*
X666634Y468404D01*
X668756Y466775D01*
X671228Y465751D01*
X673880Y465402D01*
X679500D01*
Y473650D01*
D02*
G37*
G36*
X499000Y493611D02*
X495496Y493266D01*
X492126Y492244D01*
X489021Y490584D01*
X486299Y488351D01*
X484066Y485629D01*
X482406Y482524D01*
X481384Y479154D01*
X481039Y475650D01*
X481384Y472146D01*
X482406Y468777D01*
X484066Y465671D01*
X486299Y462949D01*
X489021Y460716D01*
X492126Y459056D01*
X495496Y458034D01*
X499000Y457688D01*
X502504Y458034D01*
X505874Y459056D01*
X508979Y460716D01*
X511701Y462949D01*
X513935Y465671D01*
X515594Y468777D01*
X516616Y472146D01*
X516962Y475650D01*
X516616Y479154D01*
X515594Y482524D01*
X513935Y485629D01*
X511701Y488351D01*
X508979Y490584D01*
X505874Y492244D01*
X502504Y493266D01*
X499000Y493611D01*
D02*
G37*
G36*
X410270Y461406D02*
Y456770D01*
X414906D01*
X414689Y457857D01*
X413355Y459855D01*
X411357Y461190D01*
X410270Y461406D01*
D02*
G37*
G36*
X407730D02*
X406643Y461190D01*
X404645Y459855D01*
X403310Y457857D01*
X403094Y456770D01*
X407730D01*
Y461406D01*
D02*
G37*
G36*
X414906Y454230D02*
X410270D01*
Y449594D01*
X411357Y449810D01*
X413355Y451145D01*
X414689Y453143D01*
X414906Y454230D01*
D02*
G37*
G36*
X407730D02*
X403094D01*
X403310Y453143D01*
X404645Y451145D01*
X406643Y449810D01*
X407730Y449594D01*
Y454230D01*
D02*
G37*
G36*
X59000Y472858D02*
X55737Y472428D01*
X52696Y471169D01*
X50085Y469165D01*
X48081Y466554D01*
X46822Y463513D01*
X46392Y460250D01*
X46822Y456987D01*
X48081Y453946D01*
X50085Y451335D01*
X52696Y449331D01*
X55737Y448072D01*
X59000Y447642D01*
X62263Y448072D01*
X65304Y449331D01*
X67915Y451335D01*
X69919Y453946D01*
X71178Y456987D01*
X71608Y460250D01*
X71178Y463513D01*
X69919Y466554D01*
X67915Y469165D01*
X65304Y471169D01*
X62263Y472428D01*
X59000Y472858D01*
D02*
G37*
G36*
X274708Y464154D02*
X244292D01*
Y446946D01*
X274708D01*
Y464154D01*
D02*
G37*
G36*
X189904Y464228D02*
X176696D01*
X174450Y463932D01*
X172357Y463066D01*
X170560Y461686D01*
X169180Y459889D01*
X168314Y457796D01*
X168018Y455550D01*
X168314Y453304D01*
X169180Y451211D01*
X170560Y449414D01*
X172357Y448034D01*
X174450Y447168D01*
X176696Y446872D01*
X189904D01*
X192150Y447168D01*
X194243Y448034D01*
X196040Y449414D01*
X197420Y451211D01*
X198286Y453304D01*
X198582Y455550D01*
X198286Y457796D01*
X197420Y459889D01*
X196040Y461686D01*
X194243Y463066D01*
X192150Y463932D01*
X189904Y464228D01*
D02*
G37*
G36*
X698740Y459870D02*
X664260D01*
Y440630D01*
X698740D01*
Y459870D01*
D02*
G37*
G36*
X266104Y432128D02*
X252896D01*
X250650Y431833D01*
X248557Y430966D01*
X246760Y429586D01*
X245380Y427789D01*
X244513Y425696D01*
X244218Y423450D01*
X244513Y421204D01*
X245380Y419111D01*
X246760Y417314D01*
X248557Y415934D01*
X250650Y415067D01*
X252896Y414772D01*
X266104D01*
X268350Y415067D01*
X270443Y415934D01*
X272241Y417314D01*
X273620Y419111D01*
X274487Y421204D01*
X274782Y423450D01*
X274487Y425696D01*
X273620Y427789D01*
X272241Y429586D01*
X270443Y430966D01*
X268350Y431833D01*
X266104Y432128D01*
D02*
G37*
G36*
X189904D02*
X176696D01*
X174450Y431833D01*
X172357Y430966D01*
X170560Y429586D01*
X169180Y427789D01*
X168314Y425696D01*
X168018Y423450D01*
X168314Y421204D01*
X169180Y419111D01*
X170560Y417314D01*
X172357Y415934D01*
X174450Y415067D01*
X176696Y414772D01*
X189904D01*
X192150Y415067D01*
X194243Y415934D01*
X196040Y417314D01*
X197420Y419111D01*
X198286Y421204D01*
X198582Y423450D01*
X198286Y425696D01*
X197420Y427789D01*
X196040Y429586D01*
X194243Y430966D01*
X192150Y431833D01*
X189904Y432128D01*
D02*
G37*
G36*
X59000Y422858D02*
X55737Y422428D01*
X52696Y421169D01*
X50085Y419165D01*
X48081Y416554D01*
X46822Y413513D01*
X46392Y410250D01*
X46822Y406987D01*
X48081Y403946D01*
X50085Y401335D01*
X52696Y399331D01*
X55737Y398072D01*
X59000Y397642D01*
X62263Y398072D01*
X65304Y399331D01*
X67915Y401335D01*
X69919Y403946D01*
X71178Y406987D01*
X71608Y410250D01*
X71178Y413513D01*
X69919Y416554D01*
X67915Y419165D01*
X65304Y421169D01*
X62263Y422428D01*
X59000Y422858D01*
D02*
G37*
G36*
X274708Y406654D02*
X244292D01*
Y389446D01*
X274708D01*
Y406654D01*
D02*
G37*
G36*
X189904Y406728D02*
X176696D01*
X174450Y406432D01*
X172357Y405566D01*
X170560Y404186D01*
X169180Y402389D01*
X168314Y400296D01*
X168018Y398050D01*
X168314Y395804D01*
X169180Y393711D01*
X170560Y391914D01*
X172357Y390534D01*
X174450Y389668D01*
X176696Y389372D01*
X189904D01*
X192150Y389668D01*
X194243Y390534D01*
X196040Y391914D01*
X197420Y393711D01*
X198286Y395804D01*
X198582Y398050D01*
X198286Y400296D01*
X197420Y402389D01*
X196040Y404186D01*
X194243Y405566D01*
X192150Y406432D01*
X189904Y406728D01*
D02*
G37*
G36*
X266104Y370578D02*
X252896D01*
X250650Y370283D01*
X248557Y369416D01*
X246760Y368036D01*
X245380Y366239D01*
X244513Y364146D01*
X244218Y361900D01*
X244513Y359654D01*
X245380Y357561D01*
X246760Y355764D01*
X248557Y354384D01*
X250650Y353517D01*
X252896Y353222D01*
X266104D01*
X268350Y353517D01*
X270443Y354384D01*
X272241Y355764D01*
X273620Y357561D01*
X274487Y359654D01*
X274782Y361900D01*
X274487Y364146D01*
X273620Y366239D01*
X272241Y368036D01*
X270443Y369416D01*
X268350Y370283D01*
X266104Y370578D01*
D02*
G37*
G36*
X189904D02*
X176696D01*
X174450Y370283D01*
X172357Y369416D01*
X170560Y368036D01*
X169180Y366239D01*
X168314Y364146D01*
X168018Y361900D01*
X168314Y359654D01*
X169180Y357561D01*
X170560Y355764D01*
X172357Y354384D01*
X174450Y353517D01*
X176696Y353222D01*
X189904D01*
X192150Y353517D01*
X194243Y354384D01*
X196040Y355764D01*
X197420Y357561D01*
X198286Y359654D01*
X198582Y361900D01*
X198286Y364146D01*
X197420Y366239D01*
X196040Y368036D01*
X194243Y369416D01*
X192150Y370283D01*
X189904Y370578D01*
D02*
G37*
G36*
X59000Y372858D02*
X55737Y372428D01*
X52696Y371169D01*
X50085Y369165D01*
X48081Y366554D01*
X46822Y363513D01*
X46392Y360250D01*
X46822Y356987D01*
X48081Y353946D01*
X50085Y351335D01*
X52696Y349331D01*
X55737Y348072D01*
X59000Y347642D01*
X62263Y348072D01*
X65304Y349331D01*
X67915Y351335D01*
X69919Y353946D01*
X71178Y356987D01*
X71608Y360250D01*
X71178Y363513D01*
X69919Y366554D01*
X67915Y369165D01*
X65304Y371169D01*
X62263Y372428D01*
X59000Y372858D01*
D02*
G37*
G36*
X189904Y345178D02*
X176696D01*
X174450Y344883D01*
X172357Y344016D01*
X170560Y342636D01*
X169180Y340839D01*
X168314Y338746D01*
X168018Y336500D01*
X168314Y334254D01*
X169180Y332161D01*
X170560Y330364D01*
X172357Y328984D01*
X174450Y328117D01*
X176696Y327822D01*
X189904D01*
X192150Y328117D01*
X194243Y328984D01*
X196040Y330364D01*
X197420Y332161D01*
X198286Y334254D01*
X198582Y336500D01*
X198286Y338746D01*
X197420Y340839D01*
X196040Y342636D01*
X194243Y344016D01*
X192150Y344883D01*
X189904Y345178D01*
D02*
G37*
G36*
X378750Y383858D02*
X376604Y383431D01*
X374785Y382215D01*
X373569Y380396D01*
X373142Y378250D01*
X373569Y376104D01*
X374785Y374285D01*
X376604Y373069D01*
X378750Y372642D01*
X380896Y373069D01*
X381741Y373634D01*
X382378D01*
X434011Y322001D01*
X433915Y321137D01*
X432643Y320516D01*
X432396Y320681D01*
X430250Y321108D01*
X428104Y320681D01*
X427217Y320088D01*
X372500D01*
X370744Y319739D01*
X369256Y318744D01*
X269150Y218639D01*
X268104Y218431D01*
X266285Y217215D01*
X265069Y215396D01*
X264642Y213250D01*
X265069Y211104D01*
X266285Y209285D01*
X268104Y208069D01*
X270250Y207642D01*
X272396Y208069D01*
X274215Y209285D01*
X275431Y211104D01*
X275639Y212150D01*
X374400Y310912D01*
X427217D01*
X428104Y310319D01*
X430250Y309892D01*
X432396Y310319D01*
X433142Y310818D01*
X434412Y310139D01*
Y283151D01*
X418756Y267494D01*
X417761Y266006D01*
X417412Y264250D01*
Y207283D01*
X416819Y206396D01*
X416392Y204250D01*
X416819Y202104D01*
X418035Y200285D01*
X419854Y199069D01*
X422000Y198642D01*
X424146Y199069D01*
X425965Y200285D01*
X427181Y202104D01*
X427608Y204250D01*
X427181Y206396D01*
X426588Y207283D01*
Y262349D01*
X442244Y278006D01*
X443239Y279494D01*
X443588Y281250D01*
Y323500D01*
X443239Y325256D01*
X442244Y326744D01*
X387523Y381466D01*
X386034Y382461D01*
X384278Y382810D01*
X381825D01*
X380896Y383431D01*
X378750Y383858D01*
D02*
G37*
G36*
X122750Y524358D02*
X120604Y523931D01*
X118785Y522715D01*
X117569Y520896D01*
X117142Y518750D01*
X117569Y516604D01*
X118162Y515717D01*
Y460157D01*
X117319Y458896D01*
X116892Y456750D01*
X117319Y454604D01*
X118063Y453491D01*
X118261Y452494D01*
X118662Y451894D01*
Y400283D01*
X118069Y399396D01*
X117861Y398350D01*
X111756Y392244D01*
X110761Y390756D01*
X110412Y389000D01*
Y329650D01*
X95600Y314838D01*
X71500D01*
Y322750D01*
X46500D01*
Y297750D01*
X71500D01*
Y305662D01*
X97500D01*
X99256Y306011D01*
X100744Y307006D01*
X118244Y324506D01*
X119239Y325994D01*
X119588Y327750D01*
Y387099D01*
X124350Y391861D01*
X125396Y392069D01*
X127215Y393285D01*
X128431Y395104D01*
X128858Y397250D01*
X128431Y399396D01*
X127838Y400283D01*
Y453500D01*
X127633Y454532D01*
X127681Y454604D01*
X128108Y456750D01*
X127681Y458896D01*
X127338Y459409D01*
Y515717D01*
X127931Y516604D01*
X128358Y518750D01*
X127931Y520896D01*
X126715Y522715D01*
X124896Y523931D01*
X122750Y524358D01*
D02*
G37*
G36*
X325750Y290608D02*
X323604Y290181D01*
X321785Y288965D01*
X320569Y287146D01*
X320142Y285000D01*
X320569Y282854D01*
X321785Y281035D01*
X323604Y279819D01*
X325750Y279392D01*
X327896Y279819D01*
X329715Y281035D01*
X330931Y282854D01*
X331358Y285000D01*
X330931Y287146D01*
X329715Y288965D01*
X327896Y290181D01*
X325750Y290608D01*
D02*
G37*
G36*
X364250Y285108D02*
X362104Y284681D01*
X360285Y283465D01*
X359069Y281646D01*
X358642Y279500D01*
X359069Y277354D01*
X360285Y275535D01*
X362104Y274319D01*
X364250Y273892D01*
X366396Y274319D01*
X368215Y275535D01*
X369431Y277354D01*
X369858Y279500D01*
X369431Y281646D01*
X368215Y283465D01*
X366396Y284681D01*
X364250Y285108D01*
D02*
G37*
G36*
X567454Y287378D02*
X554246D01*
X552000Y287083D01*
X549907Y286216D01*
X548110Y284837D01*
X546730Y283039D01*
X545863Y280946D01*
X545568Y278700D01*
X545863Y276454D01*
X546730Y274361D01*
X548110Y272564D01*
X549907Y271184D01*
X552000Y270317D01*
X554246Y270022D01*
X567454D01*
X569700Y270317D01*
X571793Y271184D01*
X573590Y272564D01*
X574970Y274361D01*
X575836Y276454D01*
X576132Y278700D01*
X575836Y280946D01*
X574970Y283039D01*
X573590Y284837D01*
X571793Y286216D01*
X569700Y287083D01*
X567454Y287378D01*
D02*
G37*
G36*
X252000Y276358D02*
X249854Y275931D01*
X248035Y274715D01*
X246819Y272896D01*
X246392Y270750D01*
X246819Y268604D01*
X248035Y266785D01*
X249854Y265569D01*
X252000Y265142D01*
X254146Y265569D01*
X255965Y266785D01*
X257181Y268604D01*
X257608Y270750D01*
X257181Y272896D01*
X255965Y274715D01*
X254146Y275931D01*
X252000Y276358D01*
D02*
G37*
G36*
X188500Y267858D02*
X186354Y267431D01*
X184535Y266215D01*
X183319Y264396D01*
X182892Y262250D01*
X183319Y260104D01*
X184535Y258285D01*
X186354Y257069D01*
X188500Y256642D01*
X190646Y257069D01*
X192465Y258285D01*
X193681Y260104D01*
X194108Y262250D01*
X193681Y264396D01*
X192465Y266215D01*
X190646Y267431D01*
X188500Y267858D01*
D02*
G37*
G36*
X491254Y262523D02*
X485920D01*
Y254570D01*
X500310D01*
X500163Y255687D01*
X499241Y257911D01*
X497776Y259822D01*
X495865Y261287D01*
X493641Y262209D01*
X491254Y262523D01*
D02*
G37*
G36*
X483380D02*
X478046D01*
X475659Y262209D01*
X473434Y261287D01*
X471524Y259822D01*
X470059Y257911D01*
X469137Y255687D01*
X468990Y254570D01*
X483380D01*
Y262523D01*
D02*
G37*
G36*
X576058Y261904D02*
X545642D01*
Y244696D01*
X576058D01*
Y261904D01*
D02*
G37*
G36*
X500310Y252030D02*
X485920D01*
Y244077D01*
X491254D01*
X493641Y244391D01*
X495865Y245313D01*
X497776Y246778D01*
X499241Y248689D01*
X500163Y250913D01*
X500310Y252030D01*
D02*
G37*
G36*
X483380D02*
X468990D01*
X469137Y250913D01*
X470059Y248689D01*
X471524Y246778D01*
X473434Y245313D01*
X475659Y244391D01*
X478046Y244077D01*
X483380D01*
Y252030D01*
D02*
G37*
G36*
X59000Y263358D02*
X55737Y262928D01*
X52696Y261669D01*
X50085Y259665D01*
X48081Y257054D01*
X46822Y254013D01*
X46392Y250750D01*
X46822Y247487D01*
X48081Y244446D01*
X50085Y241835D01*
X52696Y239831D01*
X55737Y238572D01*
X59000Y238142D01*
X62263Y238572D01*
X65304Y239831D01*
X67915Y241835D01*
X69919Y244446D01*
X71178Y247487D01*
X71608Y250750D01*
X71178Y254013D01*
X69919Y257054D01*
X67915Y259665D01*
X65304Y261669D01*
X62263Y262928D01*
X59000Y263358D01*
D02*
G37*
G36*
X719750Y239750D02*
X701750D01*
Y221750D01*
X719750D01*
Y239750D01*
D02*
G37*
G36*
X760750Y239828D02*
X758400Y239518D01*
X756211Y238612D01*
X754331Y237169D01*
X752889Y235289D01*
X751982Y233099D01*
X751672Y230750D01*
X751982Y228401D01*
X752889Y226211D01*
X754331Y224331D01*
X756211Y222889D01*
X758400Y221982D01*
X760750Y221672D01*
X763100Y221982D01*
X765289Y222889D01*
X767169Y224331D01*
X768612Y226211D01*
X769518Y228401D01*
X769828Y230750D01*
X769518Y233099D01*
X768612Y235289D01*
X767169Y237169D01*
X765289Y238612D01*
X763100Y239518D01*
X760750Y239828D01*
D02*
G37*
G36*
X567454Y229378D02*
X554246D01*
X552000Y229083D01*
X549907Y228216D01*
X548110Y226836D01*
X546730Y225039D01*
X545863Y222946D01*
X545568Y220700D01*
X545863Y218454D01*
X546730Y216361D01*
X548110Y214564D01*
X549907Y213184D01*
X552000Y212318D01*
X554246Y212022D01*
X567454D01*
X569700Y212318D01*
X571793Y213184D01*
X573590Y214564D01*
X574970Y216361D01*
X575836Y218454D01*
X576132Y220700D01*
X575836Y222946D01*
X574970Y225039D01*
X573590Y226836D01*
X571793Y228216D01*
X569700Y229083D01*
X567454Y229378D01*
D02*
G37*
G36*
X404871Y284987D02*
X402725Y284560D01*
X400905Y283345D01*
X399690Y281525D01*
X399482Y280479D01*
X320341Y201338D01*
X237283D01*
X236396Y201931D01*
X234250Y202358D01*
X232104Y201931D01*
X230285Y200715D01*
X229069Y198896D01*
X228642Y196750D01*
X229069Y194604D01*
X230285Y192785D01*
X232104Y191569D01*
X234250Y191142D01*
X236396Y191569D01*
X237283Y192162D01*
X322241D01*
X323997Y192511D01*
X325486Y193506D01*
X405970Y273990D01*
X407017Y274198D01*
X408836Y275414D01*
X410052Y277233D01*
X410478Y279379D01*
X410052Y281525D01*
X408836Y283345D01*
X407017Y284560D01*
X404871Y284987D01*
D02*
G37*
G36*
X491254Y204523D02*
X485920D01*
Y196570D01*
X500310D01*
X500163Y197687D01*
X499241Y199911D01*
X497776Y201822D01*
X495865Y203287D01*
X493641Y204209D01*
X491254Y204523D01*
D02*
G37*
G36*
X483380D02*
X478046D01*
X475659Y204209D01*
X473434Y203287D01*
X471524Y201822D01*
X470059Y199911D01*
X469137Y197687D01*
X468990Y196570D01*
X483380D01*
Y204523D01*
D02*
G37*
G36*
X71500Y213250D02*
X46500D01*
Y188250D01*
X71500D01*
Y213250D01*
D02*
G37*
G36*
X576058Y203904D02*
X545642D01*
Y186696D01*
X576058D01*
Y203904D01*
D02*
G37*
G36*
X500310Y194030D02*
X485920D01*
Y186077D01*
X491254D01*
X493641Y186391D01*
X495865Y187313D01*
X497776Y188778D01*
X499241Y190689D01*
X500163Y192913D01*
X500310Y194030D01*
D02*
G37*
G36*
X483380D02*
X468990D01*
X469137Y192913D01*
X470059Y190689D01*
X471524Y188778D01*
X473434Y187313D01*
X475659Y186391D01*
X478046Y186077D01*
X483380D01*
Y194030D01*
D02*
G37*
G36*
X567454Y171878D02*
X554246D01*
X552000Y171583D01*
X549907Y170716D01*
X548110Y169336D01*
X546730Y167539D01*
X545863Y165446D01*
X545568Y163200D01*
X545863Y160954D01*
X546730Y158861D01*
X548110Y157064D01*
X549907Y155684D01*
X552000Y154817D01*
X554246Y154522D01*
X567454D01*
X569700Y154817D01*
X571793Y155684D01*
X573590Y157064D01*
X574970Y158861D01*
X575836Y160954D01*
X576132Y163200D01*
X575836Y165446D01*
X574970Y167539D01*
X573590Y169336D01*
X571793Y170716D01*
X569700Y171583D01*
X567454Y171878D01*
D02*
G37*
G36*
X491254Y147023D02*
X485920D01*
Y139070D01*
X500310D01*
X500163Y140187D01*
X499241Y142411D01*
X497776Y144322D01*
X495865Y145787D01*
X493641Y146709D01*
X491254Y147023D01*
D02*
G37*
G36*
X483380D02*
X478046D01*
X475659Y146709D01*
X473434Y145787D01*
X471524Y144322D01*
X470059Y142411D01*
X469137Y140187D01*
X468990Y139070D01*
X483380D01*
Y147023D01*
D02*
G37*
G36*
X59000Y155108D02*
X55737Y154678D01*
X52696Y153419D01*
X50085Y151415D01*
X48081Y148804D01*
X46822Y145763D01*
X46392Y142500D01*
X46822Y139237D01*
X48081Y136196D01*
X50085Y133585D01*
X52696Y131581D01*
X55737Y130322D01*
X59000Y129892D01*
X62263Y130322D01*
X65304Y131581D01*
X67915Y133585D01*
X69919Y136196D01*
X71178Y139237D01*
X71608Y142500D01*
X71178Y145763D01*
X69919Y148804D01*
X67915Y151415D01*
X65304Y153419D01*
X62263Y154678D01*
X59000Y155108D01*
D02*
G37*
G36*
X576058Y146404D02*
X545642D01*
Y129196D01*
X576058D01*
Y146404D01*
D02*
G37*
G36*
X500310Y136530D02*
X485920D01*
Y128577D01*
X491254D01*
X493641Y128891D01*
X495865Y129813D01*
X497776Y131278D01*
X499241Y133189D01*
X500163Y135413D01*
X500310Y136530D01*
D02*
G37*
G36*
X483380D02*
X468990D01*
X469137Y135413D01*
X470059Y133189D01*
X471524Y131278D01*
X473434Y129813D01*
X475659Y128891D01*
X478046Y128577D01*
X483380D01*
Y136530D01*
D02*
G37*
G36*
X71500Y105000D02*
X46500D01*
Y80000D01*
X71500D01*
Y105000D01*
D02*
G37*
G36*
X163750Y81000D02*
X138750D01*
Y56000D01*
X163750D01*
Y81000D01*
D02*
G37*
G36*
X701250Y81108D02*
X697987Y80678D01*
X694946Y79419D01*
X692335Y77415D01*
X690331Y74804D01*
X689072Y71763D01*
X688642Y68500D01*
X689072Y65237D01*
X690331Y62196D01*
X692335Y59585D01*
X694946Y57581D01*
X697987Y56322D01*
X701250Y55892D01*
X704513Y56322D01*
X707554Y57581D01*
X710165Y59585D01*
X712169Y62196D01*
X713428Y65237D01*
X713858Y68500D01*
X713428Y71763D01*
X712169Y74804D01*
X710165Y77415D01*
X707554Y79419D01*
X704513Y80678D01*
X701250Y81108D01*
D02*
G37*
G36*
X651250D02*
X647987Y80678D01*
X644946Y79419D01*
X642335Y77415D01*
X640331Y74804D01*
X639072Y71763D01*
X638642Y68500D01*
X639072Y65237D01*
X640331Y62196D01*
X642335Y59585D01*
X644946Y57581D01*
X647987Y56322D01*
X651250Y55892D01*
X654513Y56322D01*
X657554Y57581D01*
X660165Y59585D01*
X662169Y62196D01*
X663428Y65237D01*
X663858Y68500D01*
X663428Y71763D01*
X662169Y74804D01*
X660165Y77415D01*
X657554Y79419D01*
X654513Y80678D01*
X651250Y81108D01*
D02*
G37*
G36*
X601250D02*
X597987Y80678D01*
X594946Y79419D01*
X592335Y77415D01*
X590331Y74804D01*
X589072Y71763D01*
X588642Y68500D01*
X589072Y65237D01*
X590331Y62196D01*
X592335Y59585D01*
X594946Y57581D01*
X597987Y56322D01*
X601250Y55892D01*
X604513Y56322D01*
X607554Y57581D01*
X610165Y59585D01*
X612169Y62196D01*
X613428Y65237D01*
X613858Y68500D01*
X613428Y71763D01*
X612169Y74804D01*
X610165Y77415D01*
X607554Y79419D01*
X604513Y80678D01*
X601250Y81108D01*
D02*
G37*
G36*
X551250D02*
X547987Y80678D01*
X544946Y79419D01*
X542335Y77415D01*
X540331Y74804D01*
X539072Y71763D01*
X538642Y68500D01*
X539072Y65237D01*
X540331Y62196D01*
X542335Y59585D01*
X544946Y57581D01*
X547987Y56322D01*
X551250Y55892D01*
X554513Y56322D01*
X557554Y57581D01*
X560165Y59585D01*
X562169Y62196D01*
X563428Y65237D01*
X563858Y68500D01*
X563428Y71763D01*
X562169Y74804D01*
X560165Y77415D01*
X557554Y79419D01*
X554513Y80678D01*
X551250Y81108D01*
D02*
G37*
G36*
X501250D02*
X497987Y80678D01*
X494946Y79419D01*
X492335Y77415D01*
X490331Y74804D01*
X489072Y71763D01*
X488642Y68500D01*
X489072Y65237D01*
X490331Y62196D01*
X492335Y59585D01*
X494946Y57581D01*
X497987Y56322D01*
X501250Y55892D01*
X504513Y56322D01*
X507554Y57581D01*
X510165Y59585D01*
X512169Y62196D01*
X513428Y65237D01*
X513858Y68500D01*
X513428Y71763D01*
X512169Y74804D01*
X510165Y77415D01*
X507554Y79419D01*
X504513Y80678D01*
X501250Y81108D01*
D02*
G37*
G36*
X451250D02*
X447987Y80678D01*
X444946Y79419D01*
X442335Y77415D01*
X440331Y74804D01*
X439072Y71763D01*
X438642Y68500D01*
X439072Y65237D01*
X440331Y62196D01*
X442335Y59585D01*
X444946Y57581D01*
X447987Y56322D01*
X451250Y55892D01*
X454513Y56322D01*
X457554Y57581D01*
X460165Y59585D01*
X462169Y62196D01*
X463428Y65237D01*
X463858Y68500D01*
X463428Y71763D01*
X462169Y74804D01*
X460165Y77415D01*
X457554Y79419D01*
X454513Y80678D01*
X451250Y81108D01*
D02*
G37*
G36*
X401250D02*
X397987Y80678D01*
X394946Y79419D01*
X392335Y77415D01*
X390331Y74804D01*
X389072Y71763D01*
X388642Y68500D01*
X389072Y65237D01*
X390331Y62196D01*
X392335Y59585D01*
X394946Y57581D01*
X397987Y56322D01*
X401250Y55892D01*
X404513Y56322D01*
X407554Y57581D01*
X410165Y59585D01*
X412169Y62196D01*
X413428Y65237D01*
X413858Y68500D01*
X413428Y71763D01*
X412169Y74804D01*
X410165Y77415D01*
X407554Y79419D01*
X404513Y80678D01*
X401250Y81108D01*
D02*
G37*
G36*
X351250D02*
X347987Y80678D01*
X344946Y79419D01*
X342335Y77415D01*
X340331Y74804D01*
X339072Y71763D01*
X338642Y68500D01*
X339072Y65237D01*
X340331Y62196D01*
X342335Y59585D01*
X344946Y57581D01*
X347987Y56322D01*
X351250Y55892D01*
X354513Y56322D01*
X357554Y57581D01*
X360165Y59585D01*
X362169Y62196D01*
X363428Y65237D01*
X363858Y68500D01*
X363428Y71763D01*
X362169Y74804D01*
X360165Y77415D01*
X357554Y79419D01*
X354513Y80678D01*
X351250Y81108D01*
D02*
G37*
G36*
X301250D02*
X297987Y80678D01*
X294946Y79419D01*
X292335Y77415D01*
X290331Y74804D01*
X289072Y71763D01*
X288642Y68500D01*
X289072Y65237D01*
X290331Y62196D01*
X292335Y59585D01*
X294946Y57581D01*
X297987Y56322D01*
X301250Y55892D01*
X304513Y56322D01*
X307554Y57581D01*
X310165Y59585D01*
X312169Y62196D01*
X313428Y65237D01*
X313858Y68500D01*
X313428Y71763D01*
X312169Y74804D01*
X310165Y77415D01*
X307554Y79419D01*
X304513Y80678D01*
X301250Y81108D01*
D02*
G37*
G36*
X251250D02*
X247987Y80678D01*
X244946Y79419D01*
X242335Y77415D01*
X240331Y74804D01*
X239072Y71763D01*
X238642Y68500D01*
X239072Y65237D01*
X240331Y62196D01*
X242335Y59585D01*
X244946Y57581D01*
X247987Y56322D01*
X251250Y55892D01*
X254513Y56322D01*
X257554Y57581D01*
X260165Y59585D01*
X262169Y62196D01*
X263428Y65237D01*
X263858Y68500D01*
X263428Y71763D01*
X262169Y74804D01*
X260165Y77415D01*
X257554Y79419D01*
X254513Y80678D01*
X251250Y81108D01*
D02*
G37*
G36*
X201250D02*
X197987Y80678D01*
X194946Y79419D01*
X192335Y77415D01*
X190331Y74804D01*
X189072Y71763D01*
X188642Y68500D01*
X189072Y65237D01*
X190331Y62196D01*
X192335Y59585D01*
X194946Y57581D01*
X197987Y56322D01*
X201250Y55892D01*
X204513Y56322D01*
X207554Y57581D01*
X210165Y59585D01*
X212169Y62196D01*
X213428Y65237D01*
X213858Y68500D01*
X213428Y71763D01*
X212169Y74804D01*
X210165Y77415D01*
X207554Y79419D01*
X204513Y80678D01*
X201250Y81108D01*
D02*
G37*
G36*
X805500Y51356D02*
X801187Y50932D01*
X797040Y49674D01*
X793218Y47631D01*
X789868Y44882D01*
X787119Y41532D01*
X785076Y37710D01*
X783818Y33563D01*
X783394Y29250D01*
X783818Y24937D01*
X785076Y20790D01*
X787119Y16968D01*
X789868Y13618D01*
X793218Y10869D01*
X797040Y8826D01*
X801187Y7568D01*
X805500Y7144D01*
X809813Y7568D01*
X813960Y8826D01*
X817782Y10869D01*
X821132Y13618D01*
X823881Y16968D01*
X825924Y20790D01*
X827182Y24937D01*
X827606Y29250D01*
X827182Y33563D01*
X825924Y37710D01*
X823881Y41532D01*
X821132Y44882D01*
X817782Y47631D01*
X813960Y49674D01*
X809813Y50932D01*
X805500Y51356D01*
D02*
G37*
%LPD*%
G36*
X486989Y1005810D02*
X487030Y1005735D01*
X487101Y1005634D01*
X487202Y1005507D01*
X487685Y1004970D01*
X488439Y1004198D01*
X485870Y1001379D01*
X485587Y1001659D01*
X484412Y1002703D01*
X484303Y1002770D01*
X484220Y1002807D01*
X484161Y1002813D01*
X486978Y1005859D01*
X486989Y1005810D01*
D02*
G37*
G36*
X488299Y993677D02*
X488033Y993400D01*
X487598Y992884D01*
X487430Y992644D01*
X487295Y992417D01*
X487193Y992203D01*
X487124Y992001D01*
X487088Y991811D01*
X487084Y991633D01*
X487113Y991468D01*
X482849Y993882D01*
X482933Y993915D01*
X483039Y993976D01*
X483166Y994063D01*
X483316Y994178D01*
X483896Y994686D01*
X484674Y995440D01*
X488299Y993677D01*
D02*
G37*
G36*
X716812Y934445D02*
X716919Y932824D01*
X716948Y932760D01*
X716980Y932739D01*
X713030Y932770D01*
X713000Y934845D01*
X716810D01*
X716812Y934445D01*
D02*
G37*
G36*
X358722Y613010D02*
X358518Y612759D01*
X358338Y612498D01*
X358182Y612227D01*
X358050Y611945D01*
X357942Y611653D01*
X357858Y611350D01*
X357798Y611037D01*
X357762Y610714D01*
X357750Y610381D01*
X355250D01*
X355238Y610714D01*
X355202Y611037D01*
X355142Y611350D01*
X355058Y611653D01*
X354950Y611945D01*
X354818Y612227D01*
X354662Y612498D01*
X354482Y612759D01*
X354278Y613010D01*
X354050Y613251D01*
X358950D01*
X358722Y613010D01*
D02*
G37*
G36*
X391231Y537327D02*
X390989Y537265D01*
X390745Y537183D01*
X390499Y537079D01*
X390251Y536955D01*
X390002Y536810D01*
X389751Y536645D01*
X389244Y536252D01*
X388988Y536025D01*
X388730Y535777D01*
X386076Y537365D01*
X386323Y537627D01*
X386537Y537889D01*
X386720Y538150D01*
X386870Y538410D01*
X386987Y538669D01*
X387073Y538927D01*
X387126Y539184D01*
X387147Y539440D01*
X387136Y539696D01*
X387093Y539950D01*
X391231Y537327D01*
D02*
G37*
G36*
X357750Y499262D02*
X357761Y498931D01*
X357795Y498609D01*
X357851Y498294D01*
X357930Y497987D01*
X358031Y497689D01*
X358154Y497399D01*
X358300Y497116D01*
X358468Y496842D01*
X358659Y496576D01*
X358872Y496318D01*
X353985Y496668D01*
X354225Y496889D01*
X354440Y497123D01*
X354630Y497370D01*
X354795Y497630D01*
X354934Y497902D01*
X355048Y498187D01*
X355136Y498484D01*
X355199Y498795D01*
X355237Y499118D01*
X355250Y499454D01*
X357750Y499262D01*
D02*
G37*
G36*
X363957Y468465D02*
X363773Y468271D01*
X363614Y468084D01*
X363481Y467903D01*
X363372Y467728D01*
X363289Y467559D01*
X363230Y467396D01*
X363197Y467240D01*
X363188Y467089D01*
X363205Y466945D01*
X363247Y466806D01*
X360736Y468922D01*
X360880Y468904D01*
X361032Y468912D01*
X361193Y468945D01*
X361361Y469003D01*
X361538Y469086D01*
X361722Y469194D01*
X361915Y469327D01*
X362116Y469486D01*
X362326Y469670D01*
X362543Y469879D01*
X363957Y468465D01*
D02*
G37*
G36*
X486165Y287729D02*
X486210Y287214D01*
X486285Y286760D01*
X486390Y286366D01*
X486525Y286033D01*
X486690Y285760D01*
X486885Y285548D01*
X487110Y285396D01*
X487365Y285305D01*
X487650Y285275D01*
X481650D01*
X481935Y285305D01*
X482190Y285396D01*
X482415Y285548D01*
X482610Y285760D01*
X482775Y286033D01*
X482910Y286366D01*
X483015Y286760D01*
X483090Y287214D01*
X483135Y287729D01*
X483150Y288305D01*
X486150D01*
X486165Y287729D01*
D02*
G37*
D12*
X138250Y830750D02*
X157750Y850250D01*
X278250D02*
X317000Y811500D01*
X157750Y850250D02*
X278250D01*
X642750Y656750D02*
X651000Y665000D01*
X706500D02*
X715500Y656000D01*
X651000Y665000D02*
X706500D01*
X691250Y657500D02*
X691625Y657125D01*
Y637375D02*
Y657125D01*
X538450Y716200D02*
X568750D01*
X527250Y647250D02*
Y705000D01*
X538450Y716200D01*
X434750Y724500D02*
X454000Y743750D01*
X419500Y724500D02*
X434750D01*
X395250Y748750D02*
X419500Y724500D01*
X443250Y748808D02*
Y750500D01*
X452750Y760000D01*
X429750Y735500D02*
X429846Y735404D01*
X429750Y735500D02*
Y745485D01*
X436558Y742115D02*
X443250Y748808D01*
X262485Y779250D02*
X342000D01*
X260235Y777000D02*
X262485Y779250D01*
X246015Y777000D02*
X260235D01*
X217765Y805250D02*
X246015Y777000D01*
X357500Y631397D02*
X363250Y625647D01*
X360000Y465500D02*
Y465922D01*
X363250Y469172D02*
Y625647D01*
X360000Y465922D02*
X363250Y469172D01*
X438250Y972750D02*
X452250Y986750D01*
X438250Y753985D02*
Y972750D01*
X429750Y745485D02*
X438250Y753985D01*
X459500Y596750D02*
X523250Y660500D01*
X552500Y767000D02*
X568750D01*
X542500Y757000D02*
X552500Y767000D01*
X542500Y727700D02*
Y757000D01*
X523250Y708450D02*
X542500Y727700D01*
X523250Y660500D02*
Y708450D01*
X469500Y589500D02*
X527250Y647250D01*
X395250Y748750D02*
Y893250D01*
X580058Y601500D02*
X580250D01*
X357500Y631397D02*
Y632750D01*
X452750Y760000D02*
Y894000D01*
X522250Y597000D02*
X575558D01*
X580058Y601500D01*
X183000Y805250D02*
X217765D01*
X129250Y809572D02*
X138250Y818572D01*
Y830750D01*
X136000Y850750D02*
X136692D01*
X140942Y855000D01*
X314000D01*
X331250Y837750D01*
X317000Y796250D02*
Y811500D01*
X331250Y790250D02*
Y837750D01*
X691625Y637375D02*
X692000Y637000D01*
D13*
X391500Y413846D02*
X459000Y346346D01*
Y230250D02*
X468550Y220700D01*
X459000Y230250D02*
Y346346D01*
X386500Y535668D02*
X390500Y539668D01*
X386500Y390180D02*
Y535668D01*
Y390180D02*
X452750Y323930D01*
X391500Y413846D02*
Y529942D01*
X452750Y177442D02*
X466942Y163250D01*
X390500Y539668D02*
Y540750D01*
X398000Y526543D02*
X398707Y527250D01*
X452750Y177442D02*
Y323930D01*
X398000Y448117D02*
Y526543D01*
X276208Y329153D02*
X313000Y365945D01*
X274158Y326396D02*
X276208Y328446D01*
X313000Y733000D02*
X319000Y739000D01*
X273451Y326396D02*
X274158D01*
X224305Y277250D02*
X273451Y326396D01*
X276208Y328446D02*
Y329153D01*
X313000Y365945D02*
Y733000D01*
X377250Y462000D02*
Y578260D01*
X391500Y529942D02*
X397558Y536000D01*
X377500Y578510D02*
Y587000D01*
X367250Y452000D02*
X377250Y462000D01*
X377500Y587000D02*
X434500Y644000D01*
X377250Y578260D02*
X377500Y578510D01*
X397558Y536000D02*
X406500D01*
X367250Y425000D02*
Y452000D01*
X434500Y644000D02*
X452750D01*
X398000Y448117D02*
X484650Y361467D01*
X484600Y163250D02*
X484650Y163200D01*
X466942Y163250D02*
X484600D01*
X484650Y278700D02*
Y361467D01*
X468550Y220700D02*
X484650D01*
X211500Y277250D02*
X224305D01*
X630750Y500500D02*
X707250Y577000D01*
X630750Y422750D02*
Y500500D01*
X707250Y577000D02*
X723750D01*
D14*
X422250Y617250D02*
X459704D01*
X425750Y573750D02*
X469000Y617000D01*
Y625750D01*
X425750Y444250D02*
Y573750D01*
X459704Y617250D02*
X459977Y617523D01*
X416750Y467750D02*
Y597500D01*
X427750Y608500D01*
X320750Y623000D02*
X331250D01*
X348250Y466250D02*
X349111Y467111D01*
Y469576D01*
X356250Y494000D02*
Y494250D01*
X349500Y637000D02*
X359500Y647000D01*
X349111Y469576D02*
X349500Y469964D01*
Y637000D01*
X356250Y494250D02*
X356500Y494500D01*
X338750Y536250D02*
X344250Y541750D01*
Y610000D01*
X331250Y623000D02*
X344250Y610000D01*
X359000Y451750D02*
X372000Y464750D01*
Y592000D01*
X437500Y657500D01*
X381500Y576500D02*
X422250Y617250D01*
X381500Y450250D02*
Y576500D01*
X375500Y444250D02*
X381500Y450250D01*
X356500Y494500D02*
Y615750D01*
X437500Y657500D02*
X453000D01*
X359000Y439500D02*
Y451750D01*
X139150Y949950D02*
X384450D01*
X460250Y1025750D01*
X668700Y988050D02*
X695850D01*
X460250Y1025750D02*
X631000D01*
X668700Y988050D01*
D94*
X708005Y941745D02*
Y944245D01*
X714905Y930895D02*
X721250Y924550D01*
X714905Y930895D02*
Y934845D01*
X708005Y941745D02*
X714905Y934845D01*
X690815Y950495D02*
X701755D01*
X708005Y944245D01*
X487327Y1002616D02*
X634884D01*
X686505Y950995D01*
X690315D01*
X690815Y950495D01*
X488195Y996266D02*
X631484D01*
X688072Y939678D01*
X693422D02*
X695850Y937250D01*
X688072Y939678D02*
X693422D01*
X483500Y1006250D02*
X483693D01*
X487327Y1002616D01*
X483750Y990500D02*
Y991822D01*
X488195Y996266D01*
D95*
X122500Y456750D02*
X122750Y457000D01*
Y518750D01*
X122500Y454250D02*
Y456750D01*
Y454250D02*
X123250Y453500D01*
Y397250D02*
Y453500D01*
X322241Y196750D02*
X404871Y279379D01*
X234250Y196750D02*
X322241D01*
X378750Y378250D02*
X378778Y378222D01*
X384278D01*
X439000Y323500D01*
Y281250D02*
Y323500D01*
X422000Y264250D02*
X439000Y281250D01*
X270250Y213250D02*
X372500Y315500D01*
X430250D01*
X422000Y204250D02*
Y264250D01*
X115000Y389000D02*
X123250Y397250D01*
X115000Y327750D02*
Y389000D01*
X59000Y310250D02*
X97500D01*
X115000Y327750D01*
X815000Y1046500D02*
X815250D01*
Y891500D02*
X817500Y893750D01*
Y942000D01*
X19750Y1046500D02*
X40250Y1067000D01*
X794500D01*
X815000Y1046500D01*
X19000Y1045750D02*
X19750Y1046500D01*
X721250Y949950D02*
X743950D01*
X717500Y833250D02*
X717750Y833000D01*
X677250Y833250D02*
X717500D01*
X21929Y988500D02*
X113300D01*
X19000Y991429D02*
Y1045750D01*
Y991429D02*
X21929Y988500D01*
X113300D02*
X113750Y988050D01*
X743950Y949950D02*
X809550D01*
X817500Y942000D01*
X754250Y960250D02*
Y1027250D01*
X743950Y949950D02*
X754250Y960250D01*
X667500Y1033500D02*
X748000D01*
X754250Y1027250D01*
X677000Y833500D02*
X677250Y833250D01*
D99*
X484650Y163200D02*
D03*
Y137800D02*
D03*
Y220700D02*
D03*
Y195300D02*
D03*
Y278700D02*
D03*
Y253300D02*
D03*
D101*
X59000Y310250D02*
D03*
D104*
X369750Y872400D02*
D03*
D105*
X479850Y867500D02*
D03*
D107*
X19750Y1046500D02*
D03*
X815250D02*
D03*
Y891500D02*
D03*
D108*
X139150Y949950D02*
D03*
X113750Y988050D02*
D03*
X695850D02*
D03*
X721250Y949950D02*
D03*
X695850Y937250D02*
D03*
D109*
X721250Y924550D02*
D03*
D113*
X23750Y645250D02*
D03*
Y777750D02*
D03*
D114*
X136250Y705200D02*
D03*
X161650Y717900D02*
D03*
D117*
X681500Y475650D02*
D03*
D120*
X638750Y587750D02*
D03*
D121*
X568750Y767000D02*
D03*
Y716200D02*
D03*
Y690800D02*
D03*
D122*
X459977Y617523D02*
D03*
X236750Y744250D02*
D03*
X398707Y527250D02*
D03*
X320750Y623000D02*
D03*
X356250Y494000D02*
D03*
X691250Y657500D02*
D03*
X454000Y743750D02*
D03*
X405250Y953750D02*
D03*
X122500Y456750D02*
D03*
X122750Y518750D02*
D03*
X406500Y536000D02*
D03*
X429846Y735404D02*
D03*
X436558Y742115D02*
D03*
X258500Y785000D02*
D03*
X512250Y694250D02*
D03*
X177250Y865250D02*
D03*
X613000Y628750D02*
D03*
X409000Y455500D02*
D03*
X489000Y527000D02*
D03*
X728500Y630500D02*
D03*
X641250Y677000D02*
D03*
X207500Y631000D02*
D03*
X286000Y745000D02*
D03*
X272446Y829196D02*
D03*
X185500Y746000D02*
D03*
X188500Y701250D02*
D03*
X321750Y680500D02*
D03*
X305250Y556000D02*
D03*
X338750Y536250D02*
D03*
X356500Y615750D02*
D03*
X359500Y647000D02*
D03*
X348250Y466250D02*
D03*
X357500Y632750D02*
D03*
X360000Y465500D02*
D03*
X390500Y540750D02*
D03*
X427750Y608500D02*
D03*
X416750Y467750D02*
D03*
X469000Y625750D02*
D03*
X425750Y444250D02*
D03*
X453000Y657500D02*
D03*
X452750Y644000D02*
D03*
X359000Y439500D02*
D03*
X375500Y444250D02*
D03*
X367250Y425000D02*
D03*
X342000Y779250D02*
D03*
X319000Y739000D02*
D03*
X211500Y277250D02*
D03*
X404871Y279379D02*
D03*
X378750Y378250D02*
D03*
X430250Y315500D02*
D03*
X270250Y213250D02*
D03*
X422000Y204250D02*
D03*
X234250Y196750D02*
D03*
X123250Y397250D02*
D03*
X717750Y833000D02*
D03*
X667500Y1033500D02*
D03*
X129250Y809572D02*
D03*
X723750Y577000D02*
D03*
X630750Y422750D02*
D03*
X317000Y796250D02*
D03*
X331250Y790250D02*
D03*
X395250Y893250D02*
D03*
X452750Y894000D02*
D03*
X452250Y986750D02*
D03*
X677000Y833500D02*
D03*
X483500Y1006250D02*
D03*
X483750Y990500D02*
D03*
X183000Y805250D02*
D03*
X136000Y850750D02*
D03*
X692000Y637000D02*
D03*
X715500Y656000D02*
D03*
X642750Y656750D02*
D03*
X522250Y597000D02*
D03*
X580250Y601500D02*
D03*
X469500Y589500D02*
D03*
X459500Y596750D02*
D03*
M02*
