G04*
G04 #@! TF.GenerationSoftware,Altium Limited,Altium Designer,20.0.13 (296)*
G04*
G04 Layer_Physical_Order=3*
G04 Layer_Color=16440176*
%FSLAX44Y44*%
%MOMM*%
G71*
G01*
G75*
%ADD94C,1.6000*%
%ADD97C,1.4000*%
%ADD98C,1.5000*%
%ADD100R,2.6416X1.3208*%
%ADD103C,2.4450*%
%ADD105C,1.3980*%
%ADD107O,3.8608X1.9304*%
%ADD109C,0.8000*%
%ADD110C,0.7000*%
G36*
X1190000Y3569D02*
X3569D01*
Y1090000D01*
X1190000Y1090000D01*
X1190000Y3569D01*
D02*
G37*
%LPC*%
G36*
X102520Y987411D02*
Y973970D01*
X115961D01*
X115801Y975594D01*
X114957Y978378D01*
X113586Y980943D01*
X111741Y983191D01*
X109493Y985036D01*
X106928Y986407D01*
X104144Y987251D01*
X102520Y987411D01*
D02*
G37*
G36*
X99980D02*
X98356Y987251D01*
X95572Y986407D01*
X93007Y985036D01*
X90759Y983191D01*
X88914Y980943D01*
X87543Y978378D01*
X86699Y975594D01*
X86539Y973970D01*
X99980D01*
Y987411D01*
D02*
G37*
G36*
X231750Y971358D02*
X229604Y970931D01*
X227785Y969715D01*
X226569Y967896D01*
X226142Y965750D01*
X226569Y963604D01*
X227785Y961785D01*
X229604Y960569D01*
X231750Y960142D01*
X233896Y960569D01*
X235715Y961785D01*
X236931Y963604D01*
X237358Y965750D01*
X236931Y967896D01*
X235715Y969715D01*
X233896Y970931D01*
X231750Y971358D01*
D02*
G37*
G36*
X432000Y969858D02*
X429854Y969431D01*
X428035Y968215D01*
X426819Y966396D01*
X426392Y964250D01*
X426819Y962104D01*
X428035Y960285D01*
X429854Y959069D01*
X432000Y958642D01*
X434146Y959069D01*
X435965Y960285D01*
X437181Y962104D01*
X437608Y964250D01*
X437181Y966396D01*
X435965Y968215D01*
X434146Y969431D01*
X432000Y969858D01*
D02*
G37*
G36*
X115961Y971430D02*
X102520D01*
Y957989D01*
X104144Y958149D01*
X106928Y958993D01*
X109493Y960364D01*
X111741Y962209D01*
X113586Y964457D01*
X114957Y967022D01*
X115801Y969806D01*
X115961Y971430D01*
D02*
G37*
G36*
X99980D02*
X86539D01*
X86699Y969806D01*
X87543Y967022D01*
X88914Y964457D01*
X90759Y962209D01*
X93007Y960364D01*
X95572Y958993D01*
X98356Y958149D01*
X99980Y957989D01*
Y971430D01*
D02*
G37*
G36*
X21750Y971233D02*
X19231Y970902D01*
X16883Y969929D01*
X14868Y968382D01*
X13321Y966367D01*
X12348Y964019D01*
X12017Y961500D01*
X12348Y958981D01*
X13321Y956633D01*
X14868Y954617D01*
X16883Y953071D01*
X19231Y952098D01*
X21750Y951767D01*
X24269Y952098D01*
X26617Y953071D01*
X28633Y954617D01*
X30179Y956633D01*
X31152Y958981D01*
X31483Y961500D01*
X31152Y964019D01*
X30179Y966367D01*
X28633Y968382D01*
X26617Y969929D01*
X24269Y970902D01*
X21750Y971233D01*
D02*
G37*
G36*
X305500Y961358D02*
X303354Y960931D01*
X301535Y959715D01*
X300319Y957896D01*
X299892Y955750D01*
X300319Y953604D01*
X301535Y951785D01*
X303354Y950569D01*
X305500Y950142D01*
X307646Y950569D01*
X309465Y951785D01*
X310681Y953604D01*
X311108Y955750D01*
X310681Y957896D01*
X309465Y959715D01*
X307646Y960931D01*
X305500Y961358D01*
D02*
G37*
G36*
X195750Y959358D02*
X193604Y958931D01*
X191785Y957715D01*
X190569Y955896D01*
X190142Y953750D01*
X190569Y951604D01*
X191785Y949785D01*
X193604Y948569D01*
X195750Y948142D01*
X197896Y948569D01*
X199715Y949785D01*
X200931Y951604D01*
X201358Y953750D01*
X200931Y955896D01*
X199715Y957715D01*
X197896Y958931D01*
X195750Y959358D01*
D02*
G37*
G36*
X748850Y965432D02*
X746370Y965106D01*
X744059Y964148D01*
X742075Y962626D01*
X740552Y960641D01*
X739594Y958330D01*
X739268Y955850D01*
X739594Y953370D01*
X740552Y951059D01*
X742075Y949075D01*
X744059Y947552D01*
X746370Y946595D01*
X748850Y946268D01*
X751330Y946595D01*
X753641Y947552D01*
X755625Y949075D01*
X757148Y951059D01*
X758105Y953370D01*
X758432Y955850D01*
X758105Y958330D01*
X757148Y960641D01*
X755625Y962626D01*
X753641Y964148D01*
X751330Y965106D01*
X748850Y965432D01*
D02*
G37*
G36*
X723450D02*
X720970Y965106D01*
X718659Y964148D01*
X716674Y962626D01*
X715152Y960641D01*
X714194Y958330D01*
X713868Y955850D01*
X714194Y953370D01*
X715152Y951059D01*
X716674Y949075D01*
X718659Y947552D01*
X720970Y946595D01*
X723450Y946268D01*
X725930Y946595D01*
X728241Y947552D01*
X730225Y949075D01*
X731748Y951059D01*
X732705Y953370D01*
X733032Y955850D01*
X732705Y958330D01*
X731748Y960641D01*
X730225Y962626D01*
X728241Y964148D01*
X725930Y965106D01*
X723450Y965432D01*
D02*
G37*
G36*
X698050D02*
X695570Y965106D01*
X693259Y964148D01*
X691274Y962626D01*
X689752Y960641D01*
X688794Y958330D01*
X688468Y955850D01*
X688794Y953370D01*
X689752Y951059D01*
X691274Y949075D01*
X693259Y947552D01*
X695570Y946595D01*
X698050Y946268D01*
X700530Y946595D01*
X702841Y947552D01*
X704825Y949075D01*
X706348Y951059D01*
X707305Y953370D01*
X707632Y955850D01*
X707305Y958330D01*
X706348Y960641D01*
X704825Y962626D01*
X702841Y964148D01*
X700530Y965106D01*
X698050Y965432D01*
D02*
G37*
G36*
X672650D02*
X670170Y965106D01*
X667859Y964148D01*
X665874Y962626D01*
X664352Y960641D01*
X663394Y958330D01*
X663068Y955850D01*
X663394Y953370D01*
X664352Y951059D01*
X665874Y949075D01*
X667859Y947552D01*
X670170Y946595D01*
X672650Y946268D01*
X675130Y946595D01*
X677441Y947552D01*
X679425Y949075D01*
X680948Y951059D01*
X681905Y953370D01*
X682232Y955850D01*
X681905Y958330D01*
X680948Y960641D01*
X679425Y962626D01*
X677441Y964148D01*
X675130Y965106D01*
X672650Y965432D01*
D02*
G37*
G36*
X632850D02*
X630370Y965106D01*
X628059Y964148D01*
X626074Y962626D01*
X624552Y960641D01*
X623595Y958330D01*
X623268Y955850D01*
X623595Y953370D01*
X624552Y951059D01*
X626074Y949075D01*
X628059Y947552D01*
X630370Y946595D01*
X632850Y946268D01*
X635330Y946595D01*
X637641Y947552D01*
X639625Y949075D01*
X641148Y951059D01*
X642105Y953370D01*
X642432Y955850D01*
X642105Y958330D01*
X641148Y960641D01*
X639625Y962626D01*
X637641Y964148D01*
X635330Y965106D01*
X632850Y965432D01*
D02*
G37*
G36*
X607450D02*
X604970Y965106D01*
X602659Y964148D01*
X600675Y962626D01*
X599152Y960641D01*
X598195Y958330D01*
X597868Y955850D01*
X598195Y953370D01*
X599152Y951059D01*
X600675Y949075D01*
X602659Y947552D01*
X604970Y946595D01*
X607450Y946268D01*
X609930Y946595D01*
X612241Y947552D01*
X614225Y949075D01*
X615748Y951059D01*
X616705Y953370D01*
X617032Y955850D01*
X616705Y958330D01*
X615748Y960641D01*
X614225Y962626D01*
X612241Y964148D01*
X609930Y965106D01*
X607450Y965432D01*
D02*
G37*
G36*
X582050D02*
X579570Y965106D01*
X577259Y964148D01*
X575275Y962626D01*
X573752Y960641D01*
X572794Y958330D01*
X572468Y955850D01*
X572794Y953370D01*
X573752Y951059D01*
X575275Y949075D01*
X577259Y947552D01*
X579570Y946595D01*
X582050Y946268D01*
X584530Y946595D01*
X586841Y947552D01*
X588825Y949075D01*
X590348Y951059D01*
X591305Y953370D01*
X591632Y955850D01*
X591305Y958330D01*
X590348Y960641D01*
X588825Y962626D01*
X586841Y964148D01*
X584530Y965106D01*
X582050Y965432D01*
D02*
G37*
G36*
X556650D02*
X554170Y965106D01*
X551859Y964148D01*
X549874Y962626D01*
X548352Y960641D01*
X547394Y958330D01*
X547068Y955850D01*
X547394Y953370D01*
X548352Y951059D01*
X549874Y949075D01*
X551859Y947552D01*
X554170Y946595D01*
X556650Y946268D01*
X559130Y946595D01*
X561441Y947552D01*
X563425Y949075D01*
X564948Y951059D01*
X565905Y953370D01*
X566232Y955850D01*
X565905Y958330D01*
X564948Y960641D01*
X563425Y962626D01*
X561441Y964148D01*
X559130Y965106D01*
X556650Y965432D01*
D02*
G37*
G36*
X448000Y953608D02*
X445854Y953181D01*
X444035Y951965D01*
X442819Y950146D01*
X442392Y948000D01*
X442819Y945854D01*
X444035Y944035D01*
X445854Y942819D01*
X448000Y942392D01*
X450146Y942819D01*
X451965Y944035D01*
X453181Y945854D01*
X453608Y948000D01*
X453181Y950146D01*
X451965Y951965D01*
X450146Y953181D01*
X448000Y953608D01*
D02*
G37*
G36*
X227250Y951608D02*
X225104Y951181D01*
X223285Y949965D01*
X222069Y948146D01*
X221642Y946000D01*
X222069Y943854D01*
X223285Y942035D01*
X225104Y940819D01*
X227250Y940392D01*
X229396Y940819D01*
X231215Y942035D01*
X232431Y943854D01*
X232858Y946000D01*
X232431Y948146D01*
X231215Y949965D01*
X229396Y951181D01*
X227250Y951608D01*
D02*
G37*
G36*
X334000Y949108D02*
X331854Y948681D01*
X330035Y947465D01*
X328819Y945646D01*
X328392Y943500D01*
X328819Y941354D01*
X330035Y939535D01*
X331854Y938319D01*
X334000Y937892D01*
X336146Y938319D01*
X337965Y939535D01*
X339181Y941354D01*
X339608Y943500D01*
X339181Y945646D01*
X337965Y947465D01*
X336146Y948681D01*
X334000Y949108D01*
D02*
G37*
G36*
X312250Y945300D02*
X310104Y944873D01*
X308285Y943658D01*
X307069Y941838D01*
X306642Y939692D01*
X307069Y937546D01*
X308285Y935727D01*
X310104Y934511D01*
X312250Y934085D01*
X314396Y934511D01*
X316215Y935727D01*
X317431Y937546D01*
X317858Y939692D01*
X317431Y941838D01*
X316215Y943658D01*
X314396Y944873D01*
X312250Y945300D01*
D02*
G37*
G36*
X70750Y970738D02*
X67172Y970386D01*
X63732Y969342D01*
X60562Y967648D01*
X57783Y965367D01*
X55502Y962588D01*
X53808Y959418D01*
X52764Y955978D01*
X52412Y952400D01*
X52764Y948822D01*
X53808Y945382D01*
X55502Y942212D01*
X57783Y939433D01*
X60562Y937152D01*
X63732Y935458D01*
X67172Y934414D01*
X70750Y934062D01*
X74328Y934414D01*
X77768Y935458D01*
X80938Y937152D01*
X83717Y939433D01*
X85998Y942212D01*
X87692Y945382D01*
X88736Y948822D01*
X89088Y952400D01*
X88736Y955978D01*
X87692Y959418D01*
X85998Y962588D01*
X83717Y965367D01*
X80938Y967648D01*
X77768Y969342D01*
X74328Y970386D01*
X70750Y970738D01*
D02*
G37*
G36*
X143240Y948740D02*
X125260D01*
Y930760D01*
X143240D01*
Y948740D01*
D02*
G37*
G36*
X324000Y937858D02*
X321854Y937431D01*
X320035Y936215D01*
X318819Y934396D01*
X318392Y932250D01*
X318819Y930104D01*
X320035Y928285D01*
X321854Y927069D01*
X324000Y926642D01*
X326146Y927069D01*
X327965Y928285D01*
X329181Y930104D01*
X329608Y932250D01*
X329181Y934396D01*
X327965Y936215D01*
X326146Y937431D01*
X324000Y937858D01*
D02*
G37*
G36*
X21750Y945833D02*
X19231Y945502D01*
X16883Y944529D01*
X14868Y942982D01*
X13321Y940967D01*
X12348Y938619D01*
X12017Y936100D01*
X12348Y933581D01*
X13321Y931233D01*
X14868Y929218D01*
X16883Y927671D01*
X19231Y926698D01*
X21750Y926367D01*
X24269Y926698D01*
X26617Y927671D01*
X28633Y929218D01*
X30179Y931233D01*
X31152Y933581D01*
X31483Y936100D01*
X31152Y938619D01*
X30179Y940967D01*
X28633Y942982D01*
X26617Y944529D01*
X24269Y945502D01*
X21750Y945833D01*
D02*
G37*
G36*
X283250Y931608D02*
X281104Y931181D01*
X279285Y929965D01*
X278069Y928146D01*
X277642Y926000D01*
X278069Y923854D01*
X279285Y922035D01*
X281104Y920819D01*
X283250Y920392D01*
X285396Y920819D01*
X287215Y922035D01*
X288431Y923854D01*
X288858Y926000D01*
X288431Y928146D01*
X287215Y929965D01*
X285396Y931181D01*
X283250Y931608D01*
D02*
G37*
G36*
X159650Y936118D02*
X157303Y935809D01*
X155116Y934903D01*
X153238Y933462D01*
X151797Y931584D01*
X150891Y929397D01*
X150582Y927050D01*
X150891Y924703D01*
X151797Y922516D01*
X153238Y920638D01*
X155116Y919197D01*
X157303Y918291D01*
X159650Y917982D01*
X161997Y918291D01*
X164184Y919197D01*
X166062Y920638D01*
X167503Y922516D01*
X168409Y924703D01*
X168718Y927050D01*
X168409Y929397D01*
X167503Y931584D01*
X166062Y933462D01*
X164184Y934903D01*
X161997Y935809D01*
X159650Y936118D01*
D02*
G37*
G36*
X350750Y927108D02*
X348604Y926681D01*
X346785Y925465D01*
X345569Y923646D01*
X345142Y921500D01*
X345569Y919354D01*
X346785Y917535D01*
X348604Y916319D01*
X350750Y915892D01*
X352896Y916319D01*
X354715Y917535D01*
X355931Y919354D01*
X356358Y921500D01*
X355931Y923646D01*
X354715Y925465D01*
X352896Y926681D01*
X350750Y927108D01*
D02*
G37*
G36*
X134250Y923418D02*
X131903Y923109D01*
X129716Y922203D01*
X127838Y920762D01*
X126397Y918884D01*
X125491Y916697D01*
X125182Y914350D01*
X125491Y912003D01*
X126397Y909816D01*
X127838Y907938D01*
X129716Y906497D01*
X131903Y905591D01*
X134250Y905282D01*
X136597Y905591D01*
X138784Y906497D01*
X140662Y907938D01*
X142103Y909816D01*
X143009Y912003D01*
X143318Y914350D01*
X143009Y916697D01*
X142103Y918884D01*
X140662Y920762D01*
X138784Y922203D01*
X136597Y923109D01*
X134250Y923418D01*
D02*
G37*
G36*
X362000Y915358D02*
X359854Y914931D01*
X358035Y913715D01*
X356819Y911896D01*
X356392Y909750D01*
X356819Y907604D01*
X358035Y905785D01*
X359854Y904569D01*
X362000Y904142D01*
X364146Y904569D01*
X365965Y905785D01*
X367181Y907604D01*
X367608Y909750D01*
X367181Y911896D01*
X365965Y913715D01*
X364146Y914931D01*
X362000Y915358D01*
D02*
G37*
G36*
X227500Y907358D02*
X225354Y906931D01*
X223535Y905715D01*
X222319Y903896D01*
X221892Y901750D01*
X222319Y899604D01*
X223535Y897785D01*
X225354Y896569D01*
X227500Y896142D01*
X229646Y896569D01*
X231465Y897785D01*
X232681Y899604D01*
X233108Y901750D01*
X232681Y903896D01*
X231465Y905715D01*
X229646Y906931D01*
X227500Y907358D01*
D02*
G37*
G36*
X159650Y910718D02*
X157303Y910409D01*
X155116Y909503D01*
X153238Y908062D01*
X151797Y906184D01*
X150891Y903997D01*
X150582Y901650D01*
X150891Y899303D01*
X151797Y897116D01*
X153238Y895238D01*
X155116Y893797D01*
X157303Y892891D01*
X159650Y892582D01*
X161997Y892891D01*
X164184Y893797D01*
X166062Y895238D01*
X167503Y897116D01*
X168409Y899303D01*
X168718Y901650D01*
X168409Y903997D01*
X167503Y906184D01*
X166062Y908062D01*
X164184Y909503D01*
X161997Y910409D01*
X159650Y910718D01*
D02*
G37*
G36*
X363000Y898108D02*
X360854Y897681D01*
X359035Y896465D01*
X357819Y894646D01*
X357392Y892500D01*
X357819Y890354D01*
X359035Y888535D01*
X360854Y887319D01*
X363000Y886892D01*
X365146Y887319D01*
X366965Y888535D01*
X368181Y890354D01*
X368608Y892500D01*
X368181Y894646D01*
X366965Y896465D01*
X365146Y897681D01*
X363000Y898108D01*
D02*
G37*
G36*
X226750Y892858D02*
X224604Y892431D01*
X222785Y891215D01*
X221569Y889396D01*
X221142Y887250D01*
X221569Y885104D01*
X222785Y883285D01*
X224604Y882069D01*
X226750Y881642D01*
X228896Y882069D01*
X230715Y883285D01*
X231931Y885104D01*
X232358Y887250D01*
X231931Y889396D01*
X230715Y891215D01*
X228896Y892431D01*
X226750Y892858D01*
D02*
G37*
G36*
X134250Y898018D02*
X131903Y897709D01*
X129716Y896803D01*
X127838Y895362D01*
X126397Y893484D01*
X125491Y891297D01*
X125182Y888950D01*
X125491Y886603D01*
X126397Y884416D01*
X127838Y882538D01*
X129716Y881097D01*
X131903Y880191D01*
X134250Y879882D01*
X136597Y880191D01*
X138784Y881097D01*
X140662Y882538D01*
X142103Y884416D01*
X143009Y886603D01*
X143318Y888950D01*
X143009Y891297D01*
X142103Y893484D01*
X140662Y895362D01*
X138784Y896803D01*
X136597Y897709D01*
X134250Y898018D01*
D02*
G37*
G36*
X682150Y889150D02*
X663150D01*
Y870150D01*
X682150D01*
Y889150D01*
D02*
G37*
G36*
X566150D02*
X547150D01*
Y870150D01*
X566150D01*
Y889150D01*
D02*
G37*
G36*
X748850Y889232D02*
X746370Y888905D01*
X744059Y887948D01*
X742075Y886425D01*
X740552Y884441D01*
X739594Y882130D01*
X739268Y879650D01*
X739594Y877170D01*
X740552Y874859D01*
X742075Y872875D01*
X744059Y871352D01*
X746370Y870395D01*
X748850Y870068D01*
X751330Y870395D01*
X753641Y871352D01*
X755625Y872875D01*
X757148Y874859D01*
X758105Y877170D01*
X758432Y879650D01*
X758105Y882130D01*
X757148Y884441D01*
X755625Y886425D01*
X753641Y887948D01*
X751330Y888905D01*
X748850Y889232D01*
D02*
G37*
G36*
X723450D02*
X720970Y888905D01*
X718659Y887948D01*
X716674Y886425D01*
X715152Y884441D01*
X714194Y882130D01*
X713868Y879650D01*
X714194Y877170D01*
X715152Y874859D01*
X716674Y872875D01*
X718659Y871352D01*
X720970Y870395D01*
X723450Y870068D01*
X725930Y870395D01*
X728241Y871352D01*
X730225Y872875D01*
X731748Y874859D01*
X732705Y877170D01*
X733032Y879650D01*
X732705Y882130D01*
X731748Y884441D01*
X730225Y886425D01*
X728241Y887948D01*
X725930Y888905D01*
X723450Y889232D01*
D02*
G37*
G36*
X698050D02*
X695570Y888905D01*
X693259Y887948D01*
X691274Y886425D01*
X689752Y884441D01*
X688794Y882130D01*
X688468Y879650D01*
X688794Y877170D01*
X689752Y874859D01*
X691274Y872875D01*
X693259Y871352D01*
X695570Y870395D01*
X698050Y870068D01*
X700530Y870395D01*
X702841Y871352D01*
X704825Y872875D01*
X706348Y874859D01*
X707305Y877170D01*
X707632Y879650D01*
X707305Y882130D01*
X706348Y884441D01*
X704825Y886425D01*
X702841Y887948D01*
X700530Y888905D01*
X698050Y889232D01*
D02*
G37*
G36*
X632850D02*
X630370Y888905D01*
X628059Y887948D01*
X626074Y886425D01*
X624552Y884441D01*
X623595Y882130D01*
X623268Y879650D01*
X623595Y877170D01*
X624552Y874859D01*
X626074Y872875D01*
X628059Y871352D01*
X630370Y870395D01*
X632850Y870068D01*
X635330Y870395D01*
X637641Y871352D01*
X639625Y872875D01*
X641148Y874859D01*
X642105Y877170D01*
X642432Y879650D01*
X642105Y882130D01*
X641148Y884441D01*
X639625Y886425D01*
X637641Y887948D01*
X635330Y888905D01*
X632850Y889232D01*
D02*
G37*
G36*
X607450D02*
X604970Y888905D01*
X602659Y887948D01*
X600675Y886425D01*
X599152Y884441D01*
X598195Y882130D01*
X597868Y879650D01*
X598195Y877170D01*
X599152Y874859D01*
X600675Y872875D01*
X602659Y871352D01*
X604970Y870395D01*
X607450Y870068D01*
X609930Y870395D01*
X612241Y871352D01*
X614225Y872875D01*
X615748Y874859D01*
X616705Y877170D01*
X617032Y879650D01*
X616705Y882130D01*
X615748Y884441D01*
X614225Y886425D01*
X612241Y887948D01*
X609930Y888905D01*
X607450Y889232D01*
D02*
G37*
G36*
X582050D02*
X579570Y888905D01*
X577259Y887948D01*
X575275Y886425D01*
X573752Y884441D01*
X572794Y882130D01*
X572468Y879650D01*
X572794Y877170D01*
X573752Y874859D01*
X575275Y872875D01*
X577259Y871352D01*
X579570Y870395D01*
X582050Y870068D01*
X584530Y870395D01*
X586841Y871352D01*
X588825Y872875D01*
X590348Y874859D01*
X591305Y877170D01*
X591632Y879650D01*
X591305Y882130D01*
X590348Y884441D01*
X588825Y886425D01*
X586841Y887948D01*
X584530Y888905D01*
X582050Y889232D01*
D02*
G37*
G36*
X159650Y885318D02*
X157303Y885009D01*
X155116Y884103D01*
X153238Y882662D01*
X151797Y880784D01*
X150891Y878597D01*
X150582Y876250D01*
X150891Y873903D01*
X151797Y871716D01*
X153238Y869838D01*
X155116Y868397D01*
X157303Y867491D01*
X159650Y867182D01*
X161997Y867491D01*
X164184Y868397D01*
X166062Y869838D01*
X167503Y871716D01*
X168409Y873903D01*
X168718Y876250D01*
X168409Y878597D01*
X167503Y880784D01*
X166062Y882662D01*
X164184Y884103D01*
X161997Y885009D01*
X159650Y885318D01*
D02*
G37*
G36*
X1024000Y869118D02*
X1021659Y868652D01*
X1019674Y867326D01*
X1018734Y865918D01*
X1017266D01*
X1016326Y867326D01*
X1014341Y868652D01*
X1012000Y869118D01*
X1009659Y868652D01*
X1007674Y867326D01*
X1006733Y865918D01*
X1005266D01*
X1004326Y867326D01*
X1002341Y868652D01*
X1000000Y869118D01*
X997659Y868652D01*
X995674Y867326D01*
X994734Y865918D01*
X993267D01*
X992326Y867326D01*
X990341Y868652D01*
X988000Y869118D01*
X985659Y868652D01*
X983674Y867326D01*
X982734Y865918D01*
X981266D01*
X980326Y867326D01*
X978341Y868652D01*
X976000Y869118D01*
X973659Y868652D01*
X971674Y867326D01*
X970348Y865341D01*
X969883Y863000D01*
X970348Y860659D01*
X971674Y858674D01*
X973082Y857734D01*
Y856266D01*
X971674Y855326D01*
X970348Y853341D01*
X969883Y851000D01*
X970348Y848659D01*
X971674Y846674D01*
X973082Y845733D01*
Y844267D01*
X971674Y843326D01*
X970348Y841341D01*
X969883Y839000D01*
X970348Y836659D01*
X971674Y834674D01*
X973659Y833348D01*
X976000Y832883D01*
X978341Y833348D01*
X980326Y834674D01*
X981266Y836082D01*
X982734D01*
X983674Y834674D01*
X985659Y833348D01*
X988000Y832883D01*
X990341Y833348D01*
X992326Y834674D01*
X993267Y836082D01*
X994734D01*
X995674Y834674D01*
X997659Y833348D01*
X1000000Y832883D01*
X1002341Y833348D01*
X1004326Y834674D01*
X1005266Y836082D01*
X1006733D01*
X1007674Y834674D01*
X1009659Y833348D01*
X1012000Y832883D01*
X1014341Y833348D01*
X1016326Y834674D01*
X1017266Y836082D01*
X1018734D01*
X1019674Y834674D01*
X1021659Y833348D01*
X1024000Y832883D01*
X1026341Y833348D01*
X1028326Y834674D01*
X1029652Y836659D01*
X1030117Y839000D01*
X1029652Y841341D01*
X1028326Y843326D01*
X1026918Y844267D01*
Y845733D01*
X1028326Y846674D01*
X1029652Y848659D01*
X1030117Y851000D01*
X1029652Y853341D01*
X1028326Y855326D01*
X1026918Y856266D01*
Y857734D01*
X1028326Y858674D01*
X1029652Y860659D01*
X1030117Y863000D01*
X1029652Y865341D01*
X1028326Y867326D01*
X1026341Y868652D01*
X1024000Y869118D01*
D02*
G37*
G36*
X316750Y866608D02*
X314604Y866181D01*
X312785Y864965D01*
X311569Y863146D01*
X311142Y861000D01*
X311569Y858854D01*
X312785Y857035D01*
X314604Y855819D01*
X316750Y855392D01*
X318896Y855819D01*
X320715Y857035D01*
X321931Y858854D01*
X322358Y861000D01*
X321931Y863146D01*
X320715Y864965D01*
X318896Y866181D01*
X316750Y866608D01*
D02*
G37*
G36*
X134250Y872618D02*
X131903Y872309D01*
X129716Y871403D01*
X127838Y869962D01*
X126397Y868084D01*
X125491Y865897D01*
X125182Y863550D01*
X125491Y861203D01*
X126397Y859016D01*
X127838Y857138D01*
X129716Y855697D01*
X131903Y854791D01*
X134250Y854482D01*
X136597Y854791D01*
X138784Y855697D01*
X140662Y857138D01*
X142103Y859016D01*
X143009Y861203D01*
X143318Y863550D01*
X143009Y865897D01*
X142103Y868084D01*
X140662Y869962D01*
X138784Y871403D01*
X136597Y872309D01*
X134250Y872618D01*
D02*
G37*
G36*
X160920Y860295D02*
Y852120D01*
X169095D01*
X168935Y853338D01*
X167974Y855656D01*
X166447Y857647D01*
X164456Y859174D01*
X162138Y860135D01*
X160920Y860295D01*
D02*
G37*
G36*
X158380D02*
X157162Y860135D01*
X154844Y859174D01*
X152853Y857647D01*
X151326Y855656D01*
X150365Y853338D01*
X150205Y852120D01*
X158380D01*
Y860295D01*
D02*
G37*
G36*
X21750Y864133D02*
X19231Y863802D01*
X16883Y862829D01*
X14868Y861283D01*
X13321Y859267D01*
X12348Y856919D01*
X12017Y854400D01*
X12348Y851881D01*
X13321Y849533D01*
X14868Y847517D01*
X16883Y845971D01*
X19231Y844998D01*
X21750Y844667D01*
X24269Y844998D01*
X26617Y845971D01*
X28633Y847517D01*
X30179Y849533D01*
X31152Y851881D01*
X31483Y854400D01*
X31152Y856919D01*
X30179Y859267D01*
X28633Y861283D01*
X26617Y862829D01*
X24269Y863802D01*
X21750Y864133D01*
D02*
G37*
G36*
X279750Y854108D02*
X277604Y853681D01*
X275785Y852465D01*
X274569Y850646D01*
X274142Y848500D01*
X274569Y846354D01*
X275785Y844535D01*
X277604Y843319D01*
X279750Y842892D01*
X281896Y843319D01*
X283715Y844535D01*
X284931Y846354D01*
X285358Y848500D01*
X284931Y850646D01*
X283715Y852465D01*
X281896Y853681D01*
X279750Y854108D01*
D02*
G37*
G36*
X158380Y849580D02*
X150205D01*
X150365Y848362D01*
X151326Y846044D01*
X152853Y844053D01*
X154844Y842526D01*
X157162Y841565D01*
X158380Y841405D01*
Y849580D01*
D02*
G37*
G36*
X169095D02*
X160920D01*
Y841405D01*
X162138Y841565D01*
X164456Y842526D01*
X166447Y844053D01*
X167974Y846044D01*
X168935Y848362D01*
X169095Y849580D01*
D02*
G37*
G36*
X226500Y851358D02*
X224354Y850931D01*
X222535Y849715D01*
X221319Y847896D01*
X220892Y845750D01*
X221319Y843604D01*
X222535Y841785D01*
X224354Y840569D01*
X226500Y840142D01*
X228646Y840569D01*
X230465Y841785D01*
X231681Y843604D01*
X232108Y845750D01*
X231681Y847896D01*
X230465Y849715D01*
X228646Y850931D01*
X226500Y851358D01*
D02*
G37*
G36*
X616750Y833858D02*
X614604Y833431D01*
X612785Y832215D01*
X611569Y830396D01*
X611142Y828250D01*
X611569Y826104D01*
X612785Y824285D01*
X614604Y823069D01*
X616750Y822642D01*
X618896Y823069D01*
X620715Y824285D01*
X621931Y826104D01*
X622358Y828250D01*
X621931Y830396D01*
X620715Y832215D01*
X618896Y833431D01*
X616750Y833858D01*
D02*
G37*
G36*
X629250Y833608D02*
X627104Y833181D01*
X625285Y831965D01*
X624069Y830146D01*
X623642Y828000D01*
X624069Y825854D01*
X625285Y824035D01*
X627104Y822819D01*
X629250Y822392D01*
X631396Y822819D01*
X633215Y824035D01*
X634431Y825854D01*
X634858Y828000D01*
X634431Y830146D01*
X633215Y831965D01*
X631396Y833181D01*
X629250Y833608D01*
D02*
G37*
G36*
X599500Y832358D02*
X597354Y831931D01*
X595535Y830715D01*
X594319Y828896D01*
X593892Y826750D01*
X594319Y824604D01*
X595535Y822785D01*
X597354Y821569D01*
X599500Y821142D01*
X601646Y821569D01*
X603465Y822785D01*
X604681Y824604D01*
X605108Y826750D01*
X604681Y828896D01*
X603465Y830715D01*
X601646Y831931D01*
X599500Y832358D01*
D02*
G37*
G36*
X70750Y856438D02*
X67172Y856086D01*
X63732Y855042D01*
X60562Y853348D01*
X57783Y851067D01*
X55502Y848288D01*
X53808Y845118D01*
X52764Y841678D01*
X52412Y838100D01*
X52764Y834522D01*
X53808Y831082D01*
X55502Y827912D01*
X57783Y825133D01*
X60562Y822852D01*
X63732Y821158D01*
X67172Y820114D01*
X70750Y819762D01*
X74328Y820114D01*
X77768Y821158D01*
X80938Y822852D01*
X83717Y825133D01*
X85998Y827912D01*
X87692Y831082D01*
X88736Y834522D01*
X89088Y838100D01*
X88736Y841678D01*
X87692Y845118D01*
X85998Y848288D01*
X83717Y851067D01*
X80938Y853348D01*
X77768Y855042D01*
X74328Y856086D01*
X70750Y856438D01*
D02*
G37*
G36*
X586250Y830858D02*
X584104Y830431D01*
X582285Y829215D01*
X581069Y827396D01*
X580642Y825250D01*
X581069Y823104D01*
X582285Y821285D01*
X584104Y820069D01*
X586250Y819642D01*
X588396Y820069D01*
X590215Y821285D01*
X591431Y823104D01*
X591858Y825250D01*
X591431Y827396D01*
X590215Y829215D01*
X588396Y830431D01*
X586250Y830858D01*
D02*
G37*
G36*
X21750Y838733D02*
X19231Y838402D01*
X16883Y837429D01*
X14868Y835882D01*
X13321Y833867D01*
X12348Y831519D01*
X12017Y829000D01*
X12348Y826481D01*
X13321Y824133D01*
X14868Y822117D01*
X16883Y820571D01*
X19231Y819598D01*
X21750Y819267D01*
X24269Y819598D01*
X26617Y820571D01*
X28633Y822117D01*
X30179Y824133D01*
X31152Y826481D01*
X31483Y829000D01*
X31152Y831519D01*
X30179Y833867D01*
X28633Y835882D01*
X26617Y837429D01*
X24269Y838402D01*
X21750Y838733D01*
D02*
G37*
G36*
X102520Y832511D02*
Y819070D01*
X115961D01*
X115801Y820694D01*
X114957Y823478D01*
X113586Y826043D01*
X111741Y828291D01*
X109493Y830136D01*
X106928Y831507D01*
X104144Y832351D01*
X102520Y832511D01*
D02*
G37*
G36*
X99980D02*
X98356Y832351D01*
X95572Y831507D01*
X93007Y830136D01*
X90759Y828291D01*
X88914Y826043D01*
X87543Y823478D01*
X86699Y820694D01*
X86539Y819070D01*
X99980D01*
Y832511D01*
D02*
G37*
G36*
X645750Y829858D02*
X643604Y829431D01*
X641785Y828215D01*
X640569Y826396D01*
X640142Y824250D01*
X640569Y822104D01*
X641785Y820285D01*
X643604Y819069D01*
X645750Y818642D01*
X647896Y819069D01*
X649715Y820285D01*
X650931Y822104D01*
X651358Y824250D01*
X650931Y826396D01*
X649715Y828215D01*
X647896Y829431D01*
X645750Y829858D01*
D02*
G37*
G36*
X115961Y816530D02*
X102520D01*
Y803089D01*
X104144Y803249D01*
X106928Y804093D01*
X109493Y805464D01*
X111741Y807309D01*
X113586Y809557D01*
X114957Y812122D01*
X115801Y814905D01*
X115961Y816530D01*
D02*
G37*
G36*
X99980D02*
X86539D01*
X86699Y814905D01*
X87543Y812122D01*
X88914Y809557D01*
X90759Y807309D01*
X93007Y805464D01*
X95572Y804093D01*
X98356Y803249D01*
X99980Y803089D01*
Y816530D01*
D02*
G37*
G36*
X655750Y813108D02*
X653604Y812681D01*
X651785Y811465D01*
X650569Y809646D01*
X650142Y807500D01*
X650569Y805354D01*
X651785Y803535D01*
X653604Y802319D01*
X655750Y801892D01*
X657896Y802319D01*
X659715Y803535D01*
X660931Y805354D01*
X661358Y807500D01*
X660931Y809646D01*
X659715Y811465D01*
X657896Y812681D01*
X655750Y813108D01*
D02*
G37*
G36*
X261750Y810108D02*
X259604Y809681D01*
X257785Y808465D01*
X256569Y806646D01*
X256142Y804500D01*
X256569Y802354D01*
X257785Y800535D01*
X259604Y799319D01*
X261750Y798892D01*
X263896Y799319D01*
X265715Y800535D01*
X266931Y802354D01*
X267358Y804500D01*
X266931Y806646D01*
X265715Y808465D01*
X263896Y809681D01*
X261750Y810108D01*
D02*
G37*
G36*
X1020270Y797705D02*
Y789520D01*
X1028455D01*
X1028294Y790741D01*
X1027333Y793061D01*
X1025804Y795054D01*
X1023811Y796583D01*
X1021490Y797544D01*
X1020270Y797705D01*
D02*
G37*
G36*
X1017730D02*
X1016509Y797544D01*
X1014189Y796583D01*
X1012196Y795054D01*
X1010667Y793061D01*
X1009706Y790741D01*
X1009545Y789520D01*
X1017730D01*
Y797705D01*
D02*
G37*
G36*
X654500Y793858D02*
X652354Y793431D01*
X650535Y792215D01*
X649319Y790396D01*
X648892Y788250D01*
X649319Y786104D01*
X650535Y784285D01*
X652354Y783069D01*
X654500Y782642D01*
X656646Y783069D01*
X658465Y784285D01*
X659681Y786104D01*
X660108Y788250D01*
X659681Y790396D01*
X658465Y792215D01*
X656646Y793431D01*
X654500Y793858D01*
D02*
G37*
G36*
X978000Y797250D02*
X960000D01*
Y779250D01*
X978000D01*
Y797250D01*
D02*
G37*
G36*
X1028455Y786980D02*
X1020270D01*
Y778795D01*
X1021490Y778956D01*
X1023811Y779917D01*
X1025804Y781446D01*
X1027333Y783439D01*
X1028294Y785760D01*
X1028455Y786980D01*
D02*
G37*
G36*
X1017730D02*
X1009545D01*
X1009706Y785760D01*
X1010667Y783439D01*
X1012196Y781446D01*
X1014189Y779917D01*
X1016509Y778956D01*
X1017730Y778795D01*
Y786980D01*
D02*
G37*
G36*
X781250Y769867D02*
X778909Y769402D01*
X776924Y768076D01*
X775984Y766668D01*
X774517D01*
X773576Y768076D01*
X771591Y769402D01*
X769250Y769867D01*
X766909Y769402D01*
X764924Y768076D01*
X763984Y766668D01*
X762516D01*
X761576Y768076D01*
X759591Y769402D01*
X757250Y769867D01*
X754909Y769402D01*
X752924Y768076D01*
X751983Y766668D01*
X750517D01*
X749576Y768076D01*
X747591Y769402D01*
X745250Y769867D01*
X742909Y769402D01*
X740924Y768076D01*
X739984Y766668D01*
X738516D01*
X737576Y768076D01*
X735591Y769402D01*
X733250Y769867D01*
X730909Y769402D01*
X728924Y768076D01*
X727598Y766091D01*
X727132Y763750D01*
X727598Y761409D01*
X728924Y759424D01*
X730332Y758484D01*
Y757017D01*
X728924Y756076D01*
X727598Y754091D01*
X727132Y751750D01*
X727598Y749409D01*
X728924Y747424D01*
X730332Y746484D01*
Y745016D01*
X728924Y744076D01*
X727598Y742091D01*
X727132Y739750D01*
X727598Y737409D01*
X728924Y735424D01*
X730909Y734098D01*
X733250Y733633D01*
X735591Y734098D01*
X737576Y735424D01*
X738516Y736832D01*
X739984D01*
X740924Y735424D01*
X742909Y734098D01*
X745250Y733633D01*
X747591Y734098D01*
X749576Y735424D01*
X750517Y736832D01*
X751983D01*
X752924Y735424D01*
X754909Y734098D01*
X757250Y733633D01*
X759591Y734098D01*
X761576Y735424D01*
X762516Y736832D01*
X763984D01*
X764924Y735424D01*
X766909Y734098D01*
X769250Y733633D01*
X771591Y734098D01*
X773576Y735424D01*
X774517Y736832D01*
X775984D01*
X776924Y735424D01*
X778909Y734098D01*
X781250Y733633D01*
X783591Y734098D01*
X785576Y735424D01*
X786902Y737409D01*
X787367Y739750D01*
X786902Y742091D01*
X785576Y744076D01*
X784168Y745016D01*
Y746484D01*
X785576Y747424D01*
X786902Y749409D01*
X787367Y751750D01*
X786902Y754091D01*
X785576Y756076D01*
X784168Y757017D01*
Y758484D01*
X785576Y759424D01*
X786902Y761409D01*
X787367Y763750D01*
X786902Y766091D01*
X785576Y768076D01*
X783591Y769402D01*
X781250Y769867D01*
D02*
G37*
G36*
X655250Y774858D02*
X653104Y774431D01*
X651285Y773215D01*
X650069Y771396D01*
X649642Y769250D01*
X650069Y767104D01*
X651285Y765285D01*
X653104Y764069D01*
X655250Y763642D01*
X657396Y764069D01*
X659215Y765285D01*
X660431Y767104D01*
X660858Y769250D01*
X660431Y771396D01*
X659215Y773215D01*
X657396Y774431D01*
X655250Y774858D01*
D02*
G37*
G36*
X520000Y750200D02*
X501000D01*
Y731200D01*
X520000D01*
Y750200D01*
D02*
G37*
G36*
X365204Y729878D02*
X351996D01*
X349750Y729583D01*
X347657Y728716D01*
X345860Y727336D01*
X344480Y725539D01*
X343614Y723446D01*
X343318Y721200D01*
X343614Y718954D01*
X344480Y716861D01*
X345860Y715064D01*
X347657Y713684D01*
X349750Y712818D01*
X351996Y712522D01*
X365204D01*
X367450Y712818D01*
X369543Y713684D01*
X371340Y715064D01*
X372720Y716861D01*
X373587Y718954D01*
X373882Y721200D01*
X373587Y723446D01*
X372720Y725539D01*
X371340Y727336D01*
X369543Y728716D01*
X367450Y729583D01*
X365204Y729878D01*
D02*
G37*
G36*
X289004D02*
X275796D01*
X273550Y729583D01*
X271457Y728716D01*
X269660Y727336D01*
X268280Y725539D01*
X267414Y723446D01*
X267118Y721200D01*
X267414Y718954D01*
X268280Y716861D01*
X269660Y715064D01*
X271457Y713684D01*
X273550Y712818D01*
X275796Y712522D01*
X289004D01*
X291250Y712818D01*
X293343Y713684D01*
X295140Y715064D01*
X296520Y716861D01*
X297387Y718954D01*
X297682Y721200D01*
X297387Y723446D01*
X296520Y725539D01*
X295140Y727336D01*
X293343Y728716D01*
X291250Y729583D01*
X289004Y729878D01*
D02*
G37*
G36*
X510500Y724882D02*
X508020Y724555D01*
X505709Y723598D01*
X503725Y722075D01*
X502202Y720091D01*
X501245Y717780D01*
X500918Y715300D01*
X501245Y712820D01*
X502202Y710509D01*
X503725Y708524D01*
X505709Y707002D01*
X508020Y706044D01*
X510500Y705718D01*
X512980Y706044D01*
X515291Y707002D01*
X517275Y708524D01*
X518798Y710509D01*
X519756Y712820D01*
X520082Y715300D01*
X519756Y717780D01*
X518798Y720091D01*
X517275Y722075D01*
X515291Y723598D01*
X512980Y724555D01*
X510500Y724882D01*
D02*
G37*
G36*
X193750Y712858D02*
X191604Y712431D01*
X189785Y711215D01*
X188569Y709396D01*
X188142Y707250D01*
X188569Y705104D01*
X189785Y703285D01*
X191604Y702069D01*
X193750Y701642D01*
X195896Y702069D01*
X197715Y703285D01*
X198931Y705104D01*
X199358Y707250D01*
X198931Y709396D01*
X197715Y711215D01*
X195896Y712431D01*
X193750Y712858D01*
D02*
G37*
G36*
X374348Y704944D02*
X359870D01*
Y697070D01*
X374348D01*
Y704944D01*
D02*
G37*
G36*
X357330D02*
X342852D01*
Y697070D01*
X357330D01*
Y704944D01*
D02*
G37*
G36*
X511770Y699859D02*
Y691170D01*
X520459D01*
X520282Y692521D01*
X519270Y694963D01*
X517661Y697061D01*
X515563Y698670D01*
X513121Y699682D01*
X511770Y699859D01*
D02*
G37*
G36*
X509230D02*
X507879Y699682D01*
X505437Y698670D01*
X503339Y697061D01*
X501730Y694963D01*
X500718Y692521D01*
X500541Y691170D01*
X509230D01*
Y699859D01*
D02*
G37*
G36*
X289004Y704478D02*
X275796D01*
X273550Y704183D01*
X271457Y703316D01*
X269660Y701936D01*
X268280Y700139D01*
X267414Y698046D01*
X267118Y695800D01*
X267414Y693554D01*
X268280Y691461D01*
X269660Y689664D01*
X271457Y688284D01*
X273550Y687418D01*
X275796Y687122D01*
X289004D01*
X291250Y687418D01*
X293343Y688284D01*
X295140Y689664D01*
X296520Y691461D01*
X297387Y693554D01*
X297682Y695800D01*
X297387Y698046D01*
X296520Y700139D01*
X295140Y701936D01*
X293343Y703316D01*
X291250Y704183D01*
X289004Y704478D01*
D02*
G37*
G36*
X374348Y694530D02*
X359870D01*
Y686656D01*
X374348D01*
Y694530D01*
D02*
G37*
G36*
X357330D02*
X342852D01*
Y686656D01*
X357330D01*
Y694530D01*
D02*
G37*
G36*
X520459Y688630D02*
X511770D01*
Y679941D01*
X513121Y680118D01*
X515563Y681130D01*
X517661Y682739D01*
X519270Y684837D01*
X520282Y687279D01*
X520459Y688630D01*
D02*
G37*
G36*
X509230D02*
X500541D01*
X500718Y687279D01*
X501730Y684837D01*
X503339Y682739D01*
X505437Y681130D01*
X507879Y680118D01*
X509230Y679941D01*
Y688630D01*
D02*
G37*
G36*
X432500Y684108D02*
X430354Y683681D01*
X428535Y682465D01*
X427319Y680646D01*
X426892Y678500D01*
X427319Y676354D01*
X428535Y674535D01*
X430354Y673319D01*
X432500Y672892D01*
X434646Y673319D01*
X436465Y674535D01*
X437681Y676354D01*
X438108Y678500D01*
X437681Y680646D01*
X436465Y682465D01*
X434646Y683681D01*
X432500Y684108D01*
D02*
G37*
G36*
X510500Y674082D02*
X508020Y673755D01*
X505709Y672798D01*
X503725Y671275D01*
X502202Y669291D01*
X501245Y666980D01*
X500918Y664500D01*
X501245Y662020D01*
X502202Y659709D01*
X503725Y657725D01*
X505709Y656202D01*
X508020Y655245D01*
X510500Y654918D01*
X512980Y655245D01*
X515291Y656202D01*
X517275Y657725D01*
X518798Y659709D01*
X519756Y662020D01*
X520082Y664500D01*
X519756Y666980D01*
X518798Y669291D01*
X517275Y671275D01*
X515291Y672798D01*
X512980Y673755D01*
X510500Y674082D01*
D02*
G37*
G36*
X365204Y665878D02*
X351996D01*
X349750Y665583D01*
X347657Y664716D01*
X345860Y663336D01*
X344480Y661539D01*
X343614Y659446D01*
X343318Y657200D01*
X343614Y654954D01*
X344480Y652861D01*
X345860Y651064D01*
X347657Y649684D01*
X349750Y648818D01*
X351996Y648522D01*
X365204D01*
X367450Y648818D01*
X369543Y649684D01*
X371340Y651064D01*
X372720Y652861D01*
X373587Y654954D01*
X373882Y657200D01*
X373587Y659446D01*
X372720Y661539D01*
X371340Y663336D01*
X369543Y664716D01*
X367450Y665583D01*
X365204Y665878D01*
D02*
G37*
G36*
X289004D02*
X275796D01*
X273550Y665583D01*
X271457Y664716D01*
X269660Y663336D01*
X268280Y661539D01*
X267414Y659446D01*
X267118Y657200D01*
X267414Y654954D01*
X268280Y652861D01*
X269660Y651064D01*
X271457Y649684D01*
X273550Y648818D01*
X275796Y648522D01*
X289004D01*
X291250Y648818D01*
X293343Y649684D01*
X295140Y651064D01*
X296520Y652861D01*
X297387Y654954D01*
X297682Y657200D01*
X297387Y659446D01*
X296520Y661539D01*
X295140Y663336D01*
X293343Y664716D01*
X291250Y665583D01*
X289004Y665878D01*
D02*
G37*
G36*
X190750Y658358D02*
X188604Y657931D01*
X186785Y656715D01*
X185569Y654896D01*
X185142Y652750D01*
X185569Y650604D01*
X186785Y648785D01*
X188604Y647569D01*
X190750Y647142D01*
X192896Y647569D01*
X194715Y648785D01*
X195931Y650604D01*
X196358Y652750D01*
X195931Y654896D01*
X194715Y656715D01*
X192896Y657931D01*
X190750Y658358D01*
D02*
G37*
G36*
X51202Y667002D02*
X31898D01*
X28856Y666602D01*
X26022Y665428D01*
X23588Y663560D01*
X21720Y661126D01*
X20546Y658292D01*
X20145Y655250D01*
X20546Y652208D01*
X21720Y649374D01*
X23588Y646940D01*
X26022Y645072D01*
X28856Y643898D01*
X31898Y643497D01*
X51202D01*
X54244Y643898D01*
X57078Y645072D01*
X59512Y646940D01*
X61380Y649374D01*
X62554Y652208D01*
X62955Y655250D01*
X62554Y658292D01*
X61380Y661126D01*
X59512Y663560D01*
X57078Y665428D01*
X54244Y666602D01*
X51202Y667002D01*
D02*
G37*
G36*
X374348Y640944D02*
X359870D01*
Y633070D01*
X374348D01*
Y640944D01*
D02*
G37*
G36*
X357330D02*
X342852D01*
Y633070D01*
X357330D01*
Y640944D01*
D02*
G37*
G36*
X510500Y648682D02*
X508020Y648355D01*
X505709Y647398D01*
X503725Y645875D01*
X502202Y643891D01*
X501245Y641580D01*
X500918Y639100D01*
X501245Y636620D01*
X502202Y634309D01*
X503725Y632324D01*
X505709Y630802D01*
X508020Y629845D01*
X510500Y629518D01*
X512980Y629845D01*
X515291Y630802D01*
X517275Y632324D01*
X518798Y634309D01*
X519756Y636620D01*
X520082Y639100D01*
X519756Y641580D01*
X518798Y643891D01*
X517275Y645875D01*
X515291Y647398D01*
X512980Y648355D01*
X510500Y648682D01*
D02*
G37*
G36*
X289004Y640478D02*
X275796D01*
X273550Y640182D01*
X271457Y639316D01*
X269660Y637936D01*
X268280Y636139D01*
X267414Y634046D01*
X267118Y631800D01*
X267414Y629554D01*
X268280Y627461D01*
X269660Y625664D01*
X271457Y624284D01*
X273550Y623418D01*
X275796Y623122D01*
X289004D01*
X291250Y623418D01*
X293343Y624284D01*
X295140Y625664D01*
X296520Y627461D01*
X297387Y629554D01*
X297682Y631800D01*
X297387Y634046D01*
X296520Y636139D01*
X295140Y637936D01*
X293343Y639316D01*
X291250Y640182D01*
X289004Y640478D01*
D02*
G37*
G36*
X374348Y630530D02*
X359870D01*
Y622656D01*
X374348D01*
Y630530D01*
D02*
G37*
G36*
X357330D02*
X342852D01*
Y622656D01*
X357330D01*
Y630530D01*
D02*
G37*
G36*
X479500Y623108D02*
X477354Y622681D01*
X475535Y621465D01*
X474319Y619646D01*
X473892Y617500D01*
X474319Y615354D01*
X475535Y613535D01*
X477354Y612319D01*
X479500Y611892D01*
X481646Y612319D01*
X483465Y613535D01*
X484681Y615354D01*
X485108Y617500D01*
X484681Y619646D01*
X483465Y621465D01*
X481646Y622681D01*
X479500Y623108D01*
D02*
G37*
G36*
X546500Y622358D02*
X544354Y621931D01*
X542535Y620715D01*
X541319Y618896D01*
X540892Y616750D01*
X541319Y614604D01*
X542535Y612785D01*
X544354Y611569D01*
X546500Y611142D01*
X548646Y611569D01*
X550465Y612785D01*
X551681Y614604D01*
X552108Y616750D01*
X551681Y618896D01*
X550465Y620715D01*
X548646Y621931D01*
X546500Y622358D01*
D02*
G37*
G36*
X411000Y621858D02*
X408854Y621431D01*
X407035Y620215D01*
X405819Y618396D01*
X405392Y616250D01*
X405819Y614104D01*
X407035Y612285D01*
X408854Y611069D01*
X411000Y610642D01*
X413146Y611069D01*
X414965Y612285D01*
X416181Y614104D01*
X416608Y616250D01*
X416181Y618396D01*
X414965Y620215D01*
X413146Y621431D01*
X411000Y621858D01*
D02*
G37*
G36*
X51202Y632002D02*
X31898D01*
X28856Y631602D01*
X26022Y630428D01*
X23588Y628560D01*
X21720Y626126D01*
X20546Y623292D01*
X20145Y620250D01*
X20546Y617208D01*
X21720Y614374D01*
X23588Y611940D01*
X26022Y610072D01*
X28856Y608898D01*
X31898Y608497D01*
X51202D01*
X54244Y608898D01*
X57078Y610072D01*
X59512Y611940D01*
X61380Y614374D01*
X62554Y617208D01*
X62955Y620250D01*
X62554Y623292D01*
X61380Y626126D01*
X59512Y628560D01*
X57078Y630428D01*
X54244Y631602D01*
X51202Y632002D01*
D02*
G37*
G36*
X193750Y604358D02*
X191604Y603931D01*
X189785Y602715D01*
X188569Y600896D01*
X188142Y598750D01*
X188569Y596604D01*
X189785Y594785D01*
X191604Y593569D01*
X193750Y593142D01*
X195896Y593569D01*
X197715Y594785D01*
X198931Y596604D01*
X199358Y598750D01*
X198931Y600896D01*
X197715Y602715D01*
X195896Y603931D01*
X193750Y604358D01*
D02*
G37*
G36*
X365204Y601878D02*
X351996D01*
X349750Y601582D01*
X347657Y600716D01*
X345860Y599336D01*
X344480Y597539D01*
X343614Y595446D01*
X343318Y593200D01*
X343614Y590954D01*
X344480Y588861D01*
X345860Y587064D01*
X347657Y585684D01*
X349750Y584818D01*
X351996Y584522D01*
X365204D01*
X367450Y584818D01*
X369543Y585684D01*
X371340Y587064D01*
X372720Y588861D01*
X373587Y590954D01*
X373882Y593200D01*
X373587Y595446D01*
X372720Y597539D01*
X371340Y599336D01*
X369543Y600716D01*
X367450Y601582D01*
X365204Y601878D01*
D02*
G37*
G36*
X289004D02*
X275796D01*
X273550Y601582D01*
X271457Y600716D01*
X269660Y599336D01*
X268280Y597539D01*
X267414Y595446D01*
X267118Y593200D01*
X267414Y590954D01*
X268280Y588861D01*
X269660Y587064D01*
X271457Y585684D01*
X273550Y584818D01*
X275796Y584522D01*
X289004D01*
X291250Y584818D01*
X293343Y585684D01*
X295140Y587064D01*
X296520Y588861D01*
X297387Y590954D01*
X297682Y593200D01*
X297387Y595446D01*
X296520Y597539D01*
X295140Y599336D01*
X293343Y600716D01*
X291250Y601582D01*
X289004Y601878D01*
D02*
G37*
G36*
X51202Y597002D02*
X31898D01*
X28856Y596602D01*
X26022Y595428D01*
X23588Y593560D01*
X21720Y591126D01*
X20546Y588292D01*
X20145Y585250D01*
X20546Y582208D01*
X21720Y579374D01*
X23588Y576940D01*
X26022Y575072D01*
X28856Y573898D01*
X31898Y573497D01*
X51202D01*
X54244Y573898D01*
X57078Y575072D01*
X59512Y576940D01*
X61380Y579374D01*
X62554Y582208D01*
X62955Y585250D01*
X62554Y588292D01*
X61380Y591126D01*
X59512Y593560D01*
X57078Y595428D01*
X54244Y596602D01*
X51202Y597002D01*
D02*
G37*
G36*
X374348Y576944D02*
X359870D01*
Y569070D01*
X374348D01*
Y576944D01*
D02*
G37*
G36*
X357330D02*
X342852D01*
Y569070D01*
X357330D01*
Y576944D01*
D02*
G37*
G36*
X584250Y573108D02*
X582104Y572681D01*
X580285Y571465D01*
X579069Y569646D01*
X578642Y567500D01*
X579069Y565354D01*
X580285Y563535D01*
X582104Y562319D01*
X584250Y561892D01*
X586396Y562319D01*
X588215Y563535D01*
X589431Y565354D01*
X589858Y567500D01*
X589431Y569646D01*
X588215Y571465D01*
X586396Y572681D01*
X584250Y573108D01*
D02*
G37*
G36*
X289004Y576478D02*
X275796D01*
X273550Y576183D01*
X271457Y575316D01*
X269660Y573936D01*
X268280Y572139D01*
X267414Y570046D01*
X267118Y567800D01*
X267414Y565554D01*
X268280Y563461D01*
X269660Y561664D01*
X271457Y560284D01*
X273550Y559417D01*
X275796Y559122D01*
X289004D01*
X291250Y559417D01*
X293343Y560284D01*
X295140Y561664D01*
X296520Y563461D01*
X297387Y565554D01*
X297682Y567800D01*
X297387Y570046D01*
X296520Y572139D01*
X295140Y573936D01*
X293343Y575316D01*
X291250Y576183D01*
X289004Y576478D01*
D02*
G37*
G36*
X374348Y566530D02*
X359870D01*
Y558656D01*
X374348D01*
Y566530D01*
D02*
G37*
G36*
X357330D02*
X342852D01*
Y558656D01*
X357330D01*
Y566530D01*
D02*
G37*
G36*
X410250Y560858D02*
X408104Y560431D01*
X406285Y559215D01*
X405069Y557396D01*
X404642Y555250D01*
X405069Y553104D01*
X406285Y551285D01*
X408104Y550069D01*
X410250Y549642D01*
X412396Y550069D01*
X414215Y551285D01*
X415431Y553104D01*
X415858Y555250D01*
X415431Y557396D01*
X414215Y559215D01*
X412396Y560431D01*
X410250Y560858D01*
D02*
G37*
G36*
X721250Y553608D02*
X719104Y553181D01*
X717285Y551965D01*
X716069Y550146D01*
X715642Y548000D01*
X716069Y545854D01*
X717285Y544035D01*
X719104Y542819D01*
X721250Y542392D01*
X723396Y542819D01*
X725215Y544035D01*
X726431Y545854D01*
X726858Y548000D01*
X726431Y550146D01*
X725215Y551965D01*
X723396Y553181D01*
X721250Y553608D01*
D02*
G37*
G36*
X193500Y550608D02*
X191354Y550181D01*
X189535Y548965D01*
X188319Y547146D01*
X187892Y545000D01*
X188319Y542854D01*
X189535Y541035D01*
X191354Y539819D01*
X193500Y539392D01*
X195646Y539819D01*
X197465Y541035D01*
X198681Y542854D01*
X199108Y545000D01*
X198681Y547146D01*
X197465Y548965D01*
X195646Y550181D01*
X193500Y550608D01*
D02*
G37*
G36*
X51202Y562002D02*
X31898D01*
X28856Y561602D01*
X26022Y560428D01*
X23588Y558560D01*
X21720Y556126D01*
X20546Y553292D01*
X20145Y550250D01*
X20546Y547208D01*
X21720Y544374D01*
X23588Y541940D01*
X26022Y540072D01*
X28856Y538898D01*
X31898Y538497D01*
X51202D01*
X54244Y538898D01*
X57078Y540072D01*
X59512Y541940D01*
X61380Y544374D01*
X62554Y547208D01*
X62955Y550250D01*
X62554Y553292D01*
X61380Y556126D01*
X59512Y558560D01*
X57078Y560428D01*
X54244Y561602D01*
X51202Y562002D01*
D02*
G37*
G36*
X714750Y543108D02*
X712604Y542681D01*
X710785Y541465D01*
X709569Y539646D01*
X709142Y537500D01*
X709569Y535354D01*
X710785Y533535D01*
X712604Y532319D01*
X714750Y531892D01*
X716896Y532319D01*
X718715Y533535D01*
X719931Y535354D01*
X720358Y537500D01*
X719931Y539646D01*
X718715Y541465D01*
X716896Y542681D01*
X714750Y543108D01*
D02*
G37*
G36*
X365204Y537878D02*
X351996D01*
X349750Y537583D01*
X347657Y536716D01*
X345860Y535336D01*
X344480Y533539D01*
X343614Y531446D01*
X343318Y529200D01*
X343614Y526954D01*
X344480Y524861D01*
X345860Y523064D01*
X347657Y521684D01*
X349750Y520817D01*
X351996Y520522D01*
X365204D01*
X367450Y520817D01*
X369543Y521684D01*
X371340Y523064D01*
X372720Y524861D01*
X373587Y526954D01*
X373882Y529200D01*
X373587Y531446D01*
X372720Y533539D01*
X371340Y535336D01*
X369543Y536716D01*
X367450Y537583D01*
X365204Y537878D01*
D02*
G37*
G36*
X289004D02*
X275796D01*
X273550Y537583D01*
X271457Y536716D01*
X269660Y535336D01*
X268280Y533539D01*
X267414Y531446D01*
X267118Y529200D01*
X267414Y526954D01*
X268280Y524861D01*
X269660Y523064D01*
X271457Y521684D01*
X273550Y520817D01*
X275796Y520522D01*
X289004D01*
X291250Y520817D01*
X293343Y521684D01*
X295140Y523064D01*
X296520Y524861D01*
X297387Y526954D01*
X297682Y529200D01*
X297387Y531446D01*
X296520Y533539D01*
X295140Y535336D01*
X293343Y536716D01*
X291250Y537583D01*
X289004Y537878D01*
D02*
G37*
G36*
X51202Y527547D02*
X42820D01*
Y516520D01*
X63332D01*
X63080Y518433D01*
X61852Y521399D01*
X59897Y523945D01*
X57351Y525900D01*
X54385Y527128D01*
X51202Y527547D01*
D02*
G37*
G36*
X40280D02*
X31898D01*
X28715Y527128D01*
X25749Y525900D01*
X23203Y523945D01*
X21248Y521399D01*
X20020Y518433D01*
X19768Y516520D01*
X40280D01*
Y527547D01*
D02*
G37*
G36*
X374348Y512944D02*
X359870D01*
Y505070D01*
X374348D01*
Y512944D01*
D02*
G37*
G36*
X357330D02*
X342852D01*
Y505070D01*
X357330D01*
Y512944D01*
D02*
G37*
G36*
X781250Y514858D02*
X779104Y514431D01*
X777285Y513215D01*
X776069Y511396D01*
X775642Y509250D01*
X776069Y507104D01*
X777285Y505285D01*
X779104Y504069D01*
X781250Y503642D01*
X783396Y504069D01*
X785215Y505285D01*
X786431Y507104D01*
X786858Y509250D01*
X786431Y511396D01*
X785215Y513215D01*
X783396Y514431D01*
X781250Y514858D01*
D02*
G37*
G36*
X63332Y513980D02*
X42820D01*
Y502953D01*
X51202D01*
X54385Y503372D01*
X57351Y504600D01*
X59897Y506554D01*
X61852Y509101D01*
X63080Y512067D01*
X63332Y513980D01*
D02*
G37*
G36*
X40280D02*
X19768D01*
X20020Y512067D01*
X21248Y509101D01*
X23203Y506554D01*
X25749Y504600D01*
X28715Y503372D01*
X31898Y502953D01*
X40280D01*
Y513980D01*
D02*
G37*
G36*
X289004Y512478D02*
X275796D01*
X273550Y512183D01*
X271457Y511316D01*
X269660Y509936D01*
X268280Y508139D01*
X267414Y506046D01*
X267118Y503800D01*
X267414Y501554D01*
X268280Y499461D01*
X269660Y497664D01*
X271457Y496284D01*
X273550Y495418D01*
X275796Y495122D01*
X289004D01*
X291250Y495418D01*
X293343Y496284D01*
X295140Y497664D01*
X296520Y499461D01*
X297387Y501554D01*
X297682Y503800D01*
X297387Y506046D01*
X296520Y508139D01*
X295140Y509936D01*
X293343Y511316D01*
X291250Y512183D01*
X289004Y512478D01*
D02*
G37*
G36*
X374348Y502530D02*
X359870D01*
Y494656D01*
X374348D01*
Y502530D01*
D02*
G37*
G36*
X357330D02*
X342852D01*
Y494656D01*
X357330D01*
Y502530D01*
D02*
G37*
G36*
X538250Y499358D02*
X536104Y498931D01*
X534285Y497715D01*
X533069Y495896D01*
X532642Y493750D01*
X533069Y491604D01*
X534285Y489785D01*
X536104Y488569D01*
X538250Y488142D01*
X540396Y488569D01*
X542215Y489785D01*
X543431Y491604D01*
X543858Y493750D01*
X543431Y495896D01*
X542215Y497715D01*
X540396Y498931D01*
X538250Y499358D01*
D02*
G37*
G36*
X646750Y494358D02*
X644604Y493931D01*
X642785Y492715D01*
X641569Y490896D01*
X641142Y488750D01*
X641569Y486604D01*
X642785Y484785D01*
X644604Y483569D01*
X646750Y483142D01*
X648896Y483569D01*
X650715Y484785D01*
X651931Y486604D01*
X652358Y488750D01*
X651931Y490896D01*
X650715Y492715D01*
X648896Y493931D01*
X646750Y494358D01*
D02*
G37*
G36*
X411250Y493858D02*
X409104Y493431D01*
X407285Y492215D01*
X406069Y490396D01*
X405642Y488250D01*
X406069Y486104D01*
X407285Y484285D01*
X409104Y483069D01*
X411250Y482642D01*
X413396Y483069D01*
X415215Y484285D01*
X416431Y486104D01*
X416858Y488250D01*
X416431Y490396D01*
X415215Y492215D01*
X413396Y493431D01*
X411250Y493858D01*
D02*
G37*
G36*
X621000Y490358D02*
X618854Y489931D01*
X617035Y488715D01*
X615819Y486896D01*
X615392Y484750D01*
X615819Y482604D01*
X617035Y480785D01*
X618854Y479569D01*
X621000Y479142D01*
X623146Y479569D01*
X624965Y480785D01*
X626181Y482604D01*
X626608Y484750D01*
X626181Y486896D01*
X624965Y488715D01*
X623146Y489931D01*
X621000Y490358D01*
D02*
G37*
G36*
X750500Y489358D02*
X748354Y488931D01*
X746535Y487715D01*
X745319Y485896D01*
X744892Y483750D01*
X745319Y481604D01*
X746535Y479785D01*
X748354Y478569D01*
X750500Y478142D01*
X752646Y478569D01*
X754465Y479785D01*
X755681Y481604D01*
X756108Y483750D01*
X755681Y485896D01*
X754465Y487715D01*
X752646Y488931D01*
X750500Y489358D01*
D02*
G37*
G36*
X488000Y487358D02*
X485854Y486931D01*
X484035Y485715D01*
X482819Y483896D01*
X482392Y481750D01*
X482819Y479604D01*
X484035Y477785D01*
X485854Y476569D01*
X488000Y476142D01*
X490146Y476569D01*
X491965Y477785D01*
X493181Y479604D01*
X493608Y481750D01*
X493181Y483896D01*
X491965Y485715D01*
X490146Y486931D01*
X488000Y487358D01*
D02*
G37*
G36*
X471500Y483358D02*
X469354Y482931D01*
X467535Y481715D01*
X466319Y479896D01*
X465892Y477750D01*
X466319Y475604D01*
X467535Y473785D01*
X469354Y472569D01*
X471500Y472142D01*
X473646Y472569D01*
X475465Y473785D01*
X476681Y475604D01*
X477108Y477750D01*
X476681Y479896D01*
X475465Y481715D01*
X473646Y482931D01*
X471500Y483358D01*
D02*
G37*
G36*
X645250Y481608D02*
X643104Y481181D01*
X641285Y479965D01*
X640069Y478146D01*
X639642Y476000D01*
X640069Y473854D01*
X641285Y472035D01*
X643104Y470819D01*
X645250Y470392D01*
X647396Y470819D01*
X649215Y472035D01*
X650431Y473854D01*
X650858Y476000D01*
X650431Y478146D01*
X649215Y479965D01*
X647396Y481181D01*
X645250Y481608D01*
D02*
G37*
G36*
X610520Y481358D02*
X608374Y480931D01*
X606555Y479715D01*
X605339Y477896D01*
X604912Y475750D01*
X605339Y473604D01*
X606555Y471785D01*
X608374Y470569D01*
X610520Y470142D01*
X612666Y470569D01*
X614485Y471785D01*
X615701Y473604D01*
X616128Y475750D01*
X615701Y477896D01*
X614485Y479715D01*
X612666Y480931D01*
X610520Y481358D01*
D02*
G37*
G36*
X51202Y492002D02*
X31898D01*
X28856Y491602D01*
X26022Y490428D01*
X23588Y488560D01*
X21720Y486126D01*
X20546Y483292D01*
X20145Y480250D01*
X20546Y477208D01*
X21720Y474374D01*
X23588Y471940D01*
X26022Y470072D01*
X28856Y468898D01*
X31898Y468497D01*
X51202D01*
X54244Y468898D01*
X57078Y470072D01*
X59512Y471940D01*
X61380Y474374D01*
X62554Y477208D01*
X62955Y480250D01*
X62554Y483292D01*
X61380Y486126D01*
X59512Y488560D01*
X57078Y490428D01*
X54244Y491602D01*
X51202Y492002D01*
D02*
G37*
G36*
X629250Y479358D02*
X627104Y478931D01*
X625285Y477715D01*
X624069Y475896D01*
X623642Y473750D01*
X624069Y471604D01*
X625285Y469785D01*
X627104Y468569D01*
X629250Y468142D01*
X631396Y468569D01*
X633215Y469785D01*
X634431Y471604D01*
X634858Y473750D01*
X634431Y475896D01*
X633215Y477715D01*
X631396Y478931D01*
X629250Y479358D01*
D02*
G37*
G36*
X654750Y471608D02*
X652604Y471181D01*
X650785Y469965D01*
X649569Y468146D01*
X649142Y466000D01*
X649569Y463854D01*
X650785Y462035D01*
X652604Y460819D01*
X654750Y460392D01*
X656896Y460819D01*
X658715Y462035D01*
X659931Y463854D01*
X660358Y466000D01*
X659931Y468146D01*
X658715Y469965D01*
X656896Y471181D01*
X654750Y471608D01*
D02*
G37*
G36*
X523000Y470858D02*
X520854Y470431D01*
X519035Y469215D01*
X517819Y467396D01*
X517392Y465250D01*
X517819Y463104D01*
X519035Y461285D01*
X520854Y460069D01*
X523000Y459642D01*
X525146Y460069D01*
X526965Y461285D01*
X528181Y463104D01*
X528608Y465250D01*
X528181Y467396D01*
X526965Y469215D01*
X525146Y470431D01*
X523000Y470858D01*
D02*
G37*
G36*
X630500Y465608D02*
X628354Y465181D01*
X626535Y463965D01*
X625319Y462146D01*
X624892Y460000D01*
X625319Y457854D01*
X626535Y456035D01*
X628354Y454819D01*
X630500Y454392D01*
X632646Y454819D01*
X634465Y456035D01*
X635681Y457854D01*
X636108Y460000D01*
X635681Y462146D01*
X634465Y463965D01*
X632646Y465181D01*
X630500Y465608D01*
D02*
G37*
G36*
X51202Y457547D02*
X42820D01*
Y446520D01*
X63332D01*
X63080Y448433D01*
X61852Y451399D01*
X59897Y453945D01*
X57351Y455900D01*
X54385Y457128D01*
X51202Y457547D01*
D02*
G37*
G36*
X40280D02*
X31898D01*
X28715Y457128D01*
X25749Y455900D01*
X23203Y453945D01*
X21248Y451399D01*
X20020Y448433D01*
X19768Y446520D01*
X40280D01*
Y457547D01*
D02*
G37*
G36*
X63332Y443980D02*
X42820D01*
Y432953D01*
X51202D01*
X54385Y433372D01*
X57351Y434600D01*
X59897Y436554D01*
X61852Y439101D01*
X63080Y442067D01*
X63332Y443980D01*
D02*
G37*
G36*
X40280D02*
X19768D01*
X20020Y442067D01*
X21248Y439101D01*
X23203Y436554D01*
X25749Y434600D01*
X28715Y433372D01*
X31898Y432953D01*
X40280D01*
Y443980D01*
D02*
G37*
G36*
X422000Y442358D02*
X419854Y441931D01*
X418035Y440715D01*
X416819Y438896D01*
X416392Y436750D01*
X416819Y434604D01*
X418035Y432785D01*
X419854Y431569D01*
X422000Y431142D01*
X424146Y431569D01*
X425965Y432785D01*
X427181Y434604D01*
X427608Y436750D01*
X427181Y438896D01*
X425965Y440715D01*
X424146Y441931D01*
X422000Y442358D01*
D02*
G37*
G36*
X219250Y431858D02*
X217104Y431431D01*
X215285Y430215D01*
X214069Y428396D01*
X213642Y426250D01*
X214069Y424104D01*
X215285Y422285D01*
X217104Y421069D01*
X219250Y420642D01*
X221396Y421069D01*
X223215Y422285D01*
X224431Y424104D01*
X224858Y426250D01*
X224431Y428396D01*
X223215Y430215D01*
X221396Y431431D01*
X219250Y431858D01*
D02*
G37*
G36*
X51202Y422002D02*
X31898D01*
X28856Y421602D01*
X26022Y420428D01*
X23588Y418560D01*
X21720Y416126D01*
X20546Y413292D01*
X20145Y410250D01*
X20546Y407208D01*
X21720Y404374D01*
X23588Y401940D01*
X26022Y400072D01*
X28856Y398898D01*
X31898Y398498D01*
X51202D01*
X54244Y398898D01*
X57078Y400072D01*
X59512Y401940D01*
X61380Y404374D01*
X62554Y407208D01*
X62955Y410250D01*
X62554Y413292D01*
X61380Y416126D01*
X59512Y418560D01*
X57078Y420428D01*
X54244Y421602D01*
X51202Y422002D01*
D02*
G37*
G36*
X765000Y406608D02*
X762854Y406181D01*
X761035Y404965D01*
X759819Y403146D01*
X759392Y401000D01*
X759819Y398854D01*
X761035Y397035D01*
X762854Y395819D01*
X765000Y395392D01*
X767146Y395819D01*
X768965Y397035D01*
X770181Y398854D01*
X770608Y401000D01*
X770181Y403146D01*
X768965Y404965D01*
X767146Y406181D01*
X765000Y406608D01*
D02*
G37*
G36*
X287500Y405358D02*
X285354Y404931D01*
X283535Y403715D01*
X282319Y401896D01*
X281892Y399750D01*
X282319Y397604D01*
X283535Y395785D01*
X285354Y394569D01*
X287500Y394142D01*
X289646Y394569D01*
X291465Y395785D01*
X292681Y397604D01*
X293108Y399750D01*
X292681Y401896D01*
X291465Y403715D01*
X289646Y404931D01*
X287500Y405358D01*
D02*
G37*
G36*
X692000Y403108D02*
X689854Y402681D01*
X688035Y401465D01*
X686819Y399646D01*
X686392Y397500D01*
X686819Y395354D01*
X688035Y393535D01*
X689854Y392319D01*
X692000Y391892D01*
X694146Y392319D01*
X695965Y393535D01*
X697181Y395354D01*
X697608Y397500D01*
X697181Y399646D01*
X695965Y401465D01*
X694146Y402681D01*
X692000Y403108D01*
D02*
G37*
G36*
X642000Y401608D02*
X639854Y401181D01*
X638035Y399965D01*
X636819Y398146D01*
X636392Y396000D01*
X636819Y393854D01*
X638035Y392035D01*
X639854Y390819D01*
X642000Y390392D01*
X644146Y390819D01*
X645965Y392035D01*
X647181Y393854D01*
X647608Y396000D01*
X647181Y398146D01*
X645965Y399965D01*
X644146Y401181D01*
X642000Y401608D01*
D02*
G37*
G36*
X475250Y397608D02*
X473104Y397181D01*
X471285Y395965D01*
X470069Y394146D01*
X469642Y392000D01*
X470069Y389854D01*
X471285Y388035D01*
X473104Y386819D01*
X475250Y386392D01*
X477396Y386819D01*
X479215Y388035D01*
X480431Y389854D01*
X480858Y392000D01*
X480431Y394146D01*
X479215Y395965D01*
X477396Y397181D01*
X475250Y397608D01*
D02*
G37*
G36*
X711750Y396608D02*
X709604Y396181D01*
X707785Y394965D01*
X706569Y393146D01*
X706142Y391000D01*
X706569Y388854D01*
X707785Y387035D01*
X709604Y385819D01*
X711750Y385392D01*
X713896Y385819D01*
X715715Y387035D01*
X716931Y388854D01*
X717358Y391000D01*
X716931Y393146D01*
X715715Y394965D01*
X713896Y396181D01*
X711750Y396608D01*
D02*
G37*
G36*
X521500Y393858D02*
X519354Y393431D01*
X517535Y392215D01*
X516319Y390396D01*
X515892Y388250D01*
X516319Y386104D01*
X517535Y384285D01*
X519354Y383069D01*
X521500Y382642D01*
X523646Y383069D01*
X525465Y384285D01*
X526681Y386104D01*
X527108Y388250D01*
X526681Y390396D01*
X525465Y392215D01*
X523646Y393431D01*
X521500Y393858D01*
D02*
G37*
G36*
X699250Y392858D02*
X697104Y392431D01*
X695285Y391215D01*
X694069Y389396D01*
X693642Y387250D01*
X694069Y385104D01*
X695285Y383285D01*
X697104Y382069D01*
X699250Y381642D01*
X701396Y382069D01*
X703215Y383285D01*
X704431Y385104D01*
X704858Y387250D01*
X704431Y389396D01*
X703215Y391215D01*
X701396Y392431D01*
X699250Y392858D01*
D02*
G37*
G36*
X491025Y391108D02*
X488879Y390681D01*
X487060Y389465D01*
X485844Y387646D01*
X485417Y385500D01*
X485844Y383354D01*
X487060Y381535D01*
X488879Y380319D01*
X491025Y379892D01*
X493171Y380319D01*
X494990Y381535D01*
X496206Y383354D01*
X496633Y385500D01*
X496206Y387646D01*
X494990Y389465D01*
X493171Y390681D01*
X491025Y391108D01*
D02*
G37*
G36*
X630250Y390858D02*
X628104Y390431D01*
X626285Y389215D01*
X625069Y387396D01*
X624642Y385250D01*
X625069Y383104D01*
X626285Y381285D01*
X628104Y380069D01*
X630250Y379642D01*
X632396Y380069D01*
X634215Y381285D01*
X635431Y383104D01*
X635858Y385250D01*
X635431Y387396D01*
X634215Y389215D01*
X632396Y390431D01*
X630250Y390858D01*
D02*
G37*
G36*
X275500Y382108D02*
X273354Y381681D01*
X271535Y380465D01*
X270319Y378646D01*
X269892Y376500D01*
X270319Y374354D01*
X271535Y372535D01*
X273354Y371319D01*
X275500Y370892D01*
X277646Y371319D01*
X279465Y372535D01*
X280681Y374354D01*
X281108Y376500D01*
X280681Y378646D01*
X279465Y380465D01*
X277646Y381681D01*
X275500Y382108D01*
D02*
G37*
G36*
X619000Y381108D02*
X616854Y380681D01*
X615035Y379465D01*
X613819Y377646D01*
X613392Y375500D01*
X613819Y373354D01*
X615035Y371535D01*
X616854Y370319D01*
X619000Y369892D01*
X621146Y370319D01*
X622965Y371535D01*
X624181Y373354D01*
X624608Y375500D01*
X624181Y377646D01*
X622965Y379465D01*
X621146Y380681D01*
X619000Y381108D01*
D02*
G37*
G36*
X51202Y387002D02*
X31898D01*
X28856Y386602D01*
X26022Y385428D01*
X23588Y383560D01*
X21720Y381126D01*
X20546Y378292D01*
X20145Y375250D01*
X20546Y372208D01*
X21720Y369374D01*
X23588Y366940D01*
X26022Y365072D01*
X28856Y363898D01*
X31898Y363497D01*
X51202D01*
X54244Y363898D01*
X57078Y365072D01*
X59512Y366940D01*
X61380Y369374D01*
X62554Y372208D01*
X62955Y375250D01*
X62554Y378292D01*
X61380Y381126D01*
X59512Y383560D01*
X57078Y385428D01*
X54244Y386602D01*
X51202Y387002D01*
D02*
G37*
G36*
X725500Y361858D02*
X723354Y361431D01*
X721535Y360215D01*
X720319Y358396D01*
X719892Y356250D01*
X720319Y354104D01*
X721535Y352285D01*
X723354Y351069D01*
X725500Y350642D01*
X727646Y351069D01*
X729465Y352285D01*
X730681Y354104D01*
X731108Y356250D01*
X730681Y358396D01*
X729465Y360215D01*
X727646Y361431D01*
X725500Y361858D01*
D02*
G37*
G36*
X626500Y344608D02*
X624354Y344181D01*
X622535Y342965D01*
X621319Y341146D01*
X620892Y339000D01*
X621319Y336854D01*
X622535Y335035D01*
X624354Y333819D01*
X626500Y333392D01*
X628646Y333819D01*
X630465Y335035D01*
X631681Y336854D01*
X632108Y339000D01*
X631681Y341146D01*
X630465Y342965D01*
X628646Y344181D01*
X626500Y344608D01*
D02*
G37*
G36*
X163500Y344108D02*
X161354Y343681D01*
X159535Y342465D01*
X158319Y340646D01*
X157892Y338500D01*
X158319Y336354D01*
X159535Y334535D01*
X161354Y333319D01*
X163500Y332892D01*
X165646Y333319D01*
X167465Y334535D01*
X168681Y336354D01*
X169108Y338500D01*
X168681Y340646D01*
X167465Y342465D01*
X165646Y343681D01*
X163500Y344108D01*
D02*
G37*
G36*
X51202Y352002D02*
X31898D01*
X28856Y351602D01*
X26022Y350428D01*
X23588Y348560D01*
X21720Y346126D01*
X20546Y343292D01*
X20145Y340250D01*
X20546Y337208D01*
X21720Y334374D01*
X23588Y331940D01*
X26022Y330072D01*
X28856Y328898D01*
X31898Y328498D01*
X51202D01*
X54244Y328898D01*
X57078Y330072D01*
X59512Y331940D01*
X61380Y334374D01*
X62554Y337208D01*
X62955Y340250D01*
X62554Y343292D01*
X61380Y346126D01*
X59512Y348560D01*
X57078Y350428D01*
X54244Y351602D01*
X51202Y352002D01*
D02*
G37*
G36*
X218263Y336070D02*
X216117Y335643D01*
X214297Y334428D01*
X213082Y332608D01*
X212655Y330462D01*
X213082Y328316D01*
X214297Y326497D01*
X216117Y325282D01*
X218263Y324855D01*
X220408Y325282D01*
X222228Y326497D01*
X223443Y328316D01*
X223870Y330462D01*
X223443Y332608D01*
X222228Y334428D01*
X220408Y335643D01*
X218263Y336070D01*
D02*
G37*
G36*
X441020Y333614D02*
Y324420D01*
X450214D01*
X450019Y325901D01*
X448957Y328465D01*
X447267Y330667D01*
X445065Y332357D01*
X442501Y333419D01*
X441020Y333614D01*
D02*
G37*
G36*
X438480D02*
X436998Y333419D01*
X434435Y332357D01*
X432233Y330667D01*
X430543Y328465D01*
X429481Y325901D01*
X429286Y324420D01*
X438480D01*
Y333614D01*
D02*
G37*
G36*
X501500Y330358D02*
X499354Y329931D01*
X497535Y328715D01*
X496319Y326896D01*
X495892Y324750D01*
X496319Y322604D01*
X497535Y320785D01*
X499354Y319569D01*
X501500Y319142D01*
X503646Y319569D01*
X505465Y320785D01*
X506681Y322604D01*
X507108Y324750D01*
X506681Y326896D01*
X505465Y328715D01*
X503646Y329931D01*
X501500Y330358D01*
D02*
G37*
G36*
X450214Y321880D02*
X441020D01*
Y312686D01*
X442501Y312881D01*
X445065Y313943D01*
X447267Y315633D01*
X448957Y317834D01*
X450019Y320398D01*
X450214Y321880D01*
D02*
G37*
G36*
X438480D02*
X429286D01*
X429481Y320398D01*
X430543Y317834D01*
X432233Y315633D01*
X434435Y313943D01*
X436998Y312881D01*
X438480Y312686D01*
Y321880D01*
D02*
G37*
G36*
X996270Y319705D02*
Y311520D01*
X1004455D01*
X1004294Y312740D01*
X1003333Y315061D01*
X1001804Y317054D01*
X999811Y318583D01*
X997490Y319544D01*
X996270Y319705D01*
D02*
G37*
G36*
X993730Y319705D02*
X992510Y319544D01*
X990189Y318583D01*
X988196Y317054D01*
X986667Y315061D01*
X985705Y312740D01*
X985545Y311520D01*
X993730D01*
Y319705D01*
D02*
G37*
G36*
X485500Y320608D02*
X483354Y320181D01*
X481535Y318965D01*
X480319Y317146D01*
X479892Y315000D01*
X480319Y312854D01*
X481535Y311035D01*
X483354Y309819D01*
X485500Y309392D01*
X487646Y309819D01*
X489465Y311035D01*
X490681Y312854D01*
X491108Y315000D01*
X490681Y317146D01*
X489465Y318965D01*
X487646Y320181D01*
X485500Y320608D01*
D02*
G37*
G36*
X184750Y317858D02*
X182604Y317431D01*
X180785Y316215D01*
X179569Y314396D01*
X179142Y312250D01*
X179569Y310104D01*
X180785Y308285D01*
X182604Y307069D01*
X184750Y306642D01*
X186896Y307069D01*
X188715Y308285D01*
X189931Y310104D01*
X190358Y312250D01*
X189931Y314396D01*
X188715Y316215D01*
X186896Y317431D01*
X184750Y317858D01*
D02*
G37*
G36*
X1054000Y319250D02*
X1036000D01*
Y301250D01*
X1054000D01*
Y319250D01*
D02*
G37*
G36*
X993730Y308980D02*
X985545D01*
X985705Y307759D01*
X986667Y305439D01*
X988196Y303446D01*
X990189Y301917D01*
X992510Y300956D01*
X993730Y300795D01*
Y308980D01*
D02*
G37*
G36*
X1004455D02*
X996270D01*
Y300795D01*
X997490Y300956D01*
X999811Y301917D01*
X1001804Y303446D01*
X1003333Y305439D01*
X1004294Y307759D01*
X1004455Y308980D01*
D02*
G37*
G36*
X471500Y308108D02*
X469354Y307681D01*
X467535Y306465D01*
X466319Y304646D01*
X465892Y302500D01*
X466319Y300354D01*
X467535Y298535D01*
X469354Y297319D01*
X471500Y296892D01*
X473646Y297319D01*
X475465Y298535D01*
X476681Y300354D01*
X477108Y302500D01*
X476681Y304646D01*
X475465Y306465D01*
X473646Y307681D01*
X471500Y308108D01*
D02*
G37*
G36*
X51202Y317003D02*
X31898D01*
X28856Y316602D01*
X26022Y315428D01*
X23588Y313560D01*
X21720Y311126D01*
X20546Y308292D01*
X20145Y305250D01*
X20546Y302208D01*
X21720Y299374D01*
X23588Y296940D01*
X26022Y295072D01*
X28856Y293898D01*
X31898Y293498D01*
X51202D01*
X54244Y293898D01*
X57078Y295072D01*
X59512Y296940D01*
X61380Y299374D01*
X62554Y302208D01*
X62955Y305250D01*
X62554Y308292D01*
X61380Y311126D01*
X59512Y313560D01*
X57078Y315428D01*
X54244Y316602D01*
X51202Y317003D01*
D02*
G37*
G36*
X551000Y304608D02*
X548854Y304181D01*
X547035Y302965D01*
X545819Y301146D01*
X545392Y299000D01*
X545819Y296854D01*
X547035Y295035D01*
X548854Y293819D01*
X551000Y293392D01*
X553146Y293819D01*
X554965Y295035D01*
X556181Y296854D01*
X556608Y299000D01*
X556181Y301146D01*
X554965Y302965D01*
X553146Y304181D01*
X551000Y304608D01*
D02*
G37*
G36*
X439750Y307836D02*
X437140Y307493D01*
X434707Y306485D01*
X432618Y304882D01*
X431015Y302793D01*
X430007Y300361D01*
X429664Y297750D01*
X430007Y295140D01*
X431015Y292707D01*
X432618Y290618D01*
X434707Y289015D01*
X437140Y288007D01*
X439750Y287664D01*
X442360Y288007D01*
X444793Y289015D01*
X446882Y290618D01*
X448485Y292707D01*
X449493Y295140D01*
X449836Y297750D01*
X449493Y300361D01*
X448485Y302793D01*
X446882Y304882D01*
X444793Y306485D01*
X442360Y307493D01*
X439750Y307836D01*
D02*
G37*
G36*
X201358Y298054D02*
X170942D01*
Y280846D01*
X201358D01*
Y298054D01*
D02*
G37*
G36*
X268954Y298128D02*
X255746D01*
X253500Y297833D01*
X251407Y296966D01*
X249610Y295586D01*
X248230Y293789D01*
X247363Y291696D01*
X247068Y289450D01*
X247363Y287204D01*
X248230Y285111D01*
X249610Y283314D01*
X251407Y281934D01*
X253500Y281068D01*
X255746Y280772D01*
X268954D01*
X271200Y281068D01*
X273293Y281934D01*
X275090Y283314D01*
X276470Y285111D01*
X277337Y287204D01*
X277632Y289450D01*
X277337Y291696D01*
X276470Y293789D01*
X275090Y295586D01*
X273293Y296966D01*
X271200Y297833D01*
X268954Y298128D01*
D02*
G37*
G36*
X449750Y282350D02*
X429750D01*
Y262350D01*
X449750D01*
Y282350D01*
D02*
G37*
G36*
X51202Y282003D02*
X31898D01*
X28856Y281602D01*
X26022Y280428D01*
X23588Y278560D01*
X21720Y276126D01*
X20546Y273292D01*
X20145Y270250D01*
X20546Y267208D01*
X21720Y264374D01*
X23588Y261940D01*
X26022Y260072D01*
X28856Y258898D01*
X31898Y258498D01*
X51202D01*
X54244Y258898D01*
X57078Y260072D01*
X59512Y261940D01*
X61380Y264374D01*
X62554Y267208D01*
X62955Y270250D01*
X62554Y273292D01*
X61380Y276126D01*
X59512Y278560D01*
X57078Y280428D01*
X54244Y281602D01*
X51202Y282003D01*
D02*
G37*
G36*
X268954Y272728D02*
X255746D01*
X253500Y272432D01*
X251407Y271566D01*
X249610Y270186D01*
X248230Y268389D01*
X247363Y266296D01*
X247068Y264050D01*
X247363Y261804D01*
X248230Y259711D01*
X249610Y257914D01*
X251407Y256534D01*
X253500Y255667D01*
X255746Y255372D01*
X268954D01*
X271200Y255667D01*
X273293Y256534D01*
X275090Y257914D01*
X276470Y259711D01*
X277337Y261804D01*
X277632Y264050D01*
X277337Y266296D01*
X276470Y268389D01*
X275090Y270186D01*
X273293Y271566D01*
X271200Y272432D01*
X268954Y272728D01*
D02*
G37*
G36*
X192754D02*
X179546D01*
X177300Y272432D01*
X175207Y271566D01*
X173410Y270186D01*
X172030Y268389D01*
X171164Y266296D01*
X170868Y264050D01*
X171164Y261804D01*
X172030Y259711D01*
X173410Y257914D01*
X175207Y256534D01*
X177300Y255667D01*
X179546Y255372D01*
X192754D01*
X195000Y255667D01*
X197093Y256534D01*
X198890Y257914D01*
X200270Y259711D01*
X201136Y261804D01*
X201432Y264050D01*
X201136Y266296D01*
X200270Y268389D01*
X198890Y270186D01*
X197093Y271566D01*
X195000Y272432D01*
X192754Y272728D01*
D02*
G37*
G36*
X860900Y261750D02*
X840900D01*
Y241750D01*
X860900D01*
Y261750D01*
D02*
G37*
G36*
X825500Y261836D02*
X822889Y261493D01*
X820457Y260485D01*
X818368Y258882D01*
X816765Y256793D01*
X815757Y254361D01*
X815414Y251750D01*
X815757Y249139D01*
X816765Y246707D01*
X818368Y244618D01*
X820457Y243015D01*
X822889Y242007D01*
X825500Y241664D01*
X828111Y242007D01*
X830543Y243015D01*
X832632Y244618D01*
X834235Y246707D01*
X835243Y249139D01*
X835586Y251750D01*
X835243Y254361D01*
X834235Y256793D01*
X832632Y258882D01*
X830543Y260485D01*
X828111Y261493D01*
X825500Y261836D01*
D02*
G37*
G36*
X800100D02*
X797489Y261493D01*
X795057Y260485D01*
X792968Y258882D01*
X791365Y256793D01*
X790357Y254361D01*
X790014Y251750D01*
X790357Y249139D01*
X791365Y246707D01*
X792968Y244618D01*
X795057Y243015D01*
X797489Y242007D01*
X800100Y241664D01*
X802710Y242007D01*
X805143Y243015D01*
X807232Y244618D01*
X808835Y246707D01*
X809843Y249139D01*
X810186Y251750D01*
X809843Y254361D01*
X808835Y256793D01*
X807232Y258882D01*
X805143Y260485D01*
X802710Y261493D01*
X800100Y261836D01*
D02*
G37*
G36*
X572500Y247150D02*
X553500D01*
Y228150D01*
X572500D01*
Y247150D01*
D02*
G37*
G36*
X51202Y247003D02*
X31898D01*
X28856Y246602D01*
X26022Y245428D01*
X23588Y243560D01*
X21720Y241126D01*
X20546Y238292D01*
X20145Y235250D01*
X20546Y232208D01*
X21720Y229374D01*
X23588Y226940D01*
X26022Y225072D01*
X28856Y223898D01*
X31898Y223498D01*
X51202D01*
X54244Y223898D01*
X57078Y225072D01*
X59512Y226940D01*
X61380Y229374D01*
X62554Y232208D01*
X62955Y235250D01*
X62554Y238292D01*
X61380Y241126D01*
X59512Y243560D01*
X57078Y245428D01*
X54244Y246602D01*
X51202Y247003D01*
D02*
G37*
G36*
X201358Y234054D02*
X170942D01*
Y216846D01*
X201358D01*
Y234054D01*
D02*
G37*
G36*
X268954Y234128D02*
X255746D01*
X253500Y233832D01*
X251407Y232966D01*
X249610Y231586D01*
X248230Y229789D01*
X247363Y227696D01*
X247068Y225450D01*
X247363Y223204D01*
X248230Y221111D01*
X249610Y219314D01*
X251407Y217934D01*
X253500Y217068D01*
X255746Y216772D01*
X268954D01*
X271200Y217068D01*
X273293Y217934D01*
X275090Y219314D01*
X276470Y221111D01*
X277337Y223204D01*
X277632Y225450D01*
X277337Y227696D01*
X276470Y229789D01*
X275090Y231586D01*
X273293Y232966D01*
X271200Y233832D01*
X268954Y234128D01*
D02*
G37*
G36*
X648000Y226608D02*
X645854Y226181D01*
X644035Y224965D01*
X642819Y223146D01*
X642392Y221000D01*
X642819Y218854D01*
X644035Y217035D01*
X645854Y215819D01*
X648000Y215392D01*
X650146Y215819D01*
X651965Y217035D01*
X653181Y218854D01*
X653608Y221000D01*
X653181Y223146D01*
X651965Y224965D01*
X650146Y226181D01*
X648000Y226608D01*
D02*
G37*
G36*
X564270Y222209D02*
Y213520D01*
X572959D01*
X572782Y214871D01*
X571770Y217313D01*
X570161Y219411D01*
X568063Y221020D01*
X565621Y222032D01*
X564270Y222209D01*
D02*
G37*
G36*
X561730D02*
X560379Y222032D01*
X557937Y221020D01*
X555839Y219411D01*
X554230Y217313D01*
X553218Y214871D01*
X553041Y213520D01*
X561730D01*
Y222209D01*
D02*
G37*
G36*
X765000Y224608D02*
X762854Y224181D01*
X761035Y222965D01*
X759819Y221146D01*
X759392Y219000D01*
X759819Y216854D01*
X761035Y215035D01*
X762854Y213819D01*
X765000Y213392D01*
X767146Y213819D01*
X768965Y215035D01*
X770181Y216854D01*
X770608Y219000D01*
X770181Y221146D01*
X768965Y222965D01*
X767146Y224181D01*
X765000Y224608D01*
D02*
G37*
G36*
X706750Y224108D02*
X704604Y223681D01*
X702785Y222465D01*
X701569Y220646D01*
X701142Y218500D01*
X701569Y216354D01*
X702785Y214535D01*
X704604Y213319D01*
X706750Y212892D01*
X708896Y213319D01*
X710715Y214535D01*
X711931Y216354D01*
X712358Y218500D01*
X711931Y220646D01*
X710715Y222465D01*
X708896Y223681D01*
X706750Y224108D01*
D02*
G37*
G36*
X561730Y210980D02*
X553041D01*
X553218Y209629D01*
X554230Y207187D01*
X555839Y205089D01*
X557937Y203480D01*
X560379Y202468D01*
X561730Y202291D01*
Y210980D01*
D02*
G37*
G36*
X572959D02*
X564270D01*
Y202291D01*
X565621Y202468D01*
X568063Y203480D01*
X570161Y205089D01*
X571770Y207187D01*
X572782Y209629D01*
X572959Y210980D01*
D02*
G37*
G36*
X268954Y208728D02*
X255746D01*
X253500Y208433D01*
X251407Y207566D01*
X249610Y206186D01*
X248230Y204389D01*
X247363Y202296D01*
X247068Y200050D01*
X247363Y197804D01*
X248230Y195711D01*
X249610Y193914D01*
X251407Y192534D01*
X253500Y191667D01*
X255746Y191372D01*
X268954D01*
X271200Y191667D01*
X273293Y192534D01*
X275090Y193914D01*
X276470Y195711D01*
X277337Y197804D01*
X277632Y200050D01*
X277337Y202296D01*
X276470Y204389D01*
X275090Y206186D01*
X273293Y207566D01*
X271200Y208433D01*
X268954Y208728D01*
D02*
G37*
G36*
X192754D02*
X179546D01*
X177300Y208433D01*
X175207Y207566D01*
X173410Y206186D01*
X172030Y204389D01*
X171164Y202296D01*
X170868Y200050D01*
X171164Y197804D01*
X172030Y195711D01*
X173410Y193914D01*
X175207Y192534D01*
X177300Y191667D01*
X179546Y191372D01*
X192754D01*
X195000Y191667D01*
X197093Y192534D01*
X198890Y193914D01*
X200270Y195711D01*
X201136Y197804D01*
X201432Y200050D01*
X201136Y202296D01*
X200270Y204389D01*
X198890Y206186D01*
X197093Y207566D01*
X195000Y208433D01*
X192754Y208728D01*
D02*
G37*
G36*
X51202Y212003D02*
X31898D01*
X28856Y211602D01*
X26022Y210428D01*
X23588Y208560D01*
X21720Y206126D01*
X20546Y203292D01*
X20145Y200250D01*
X20546Y197208D01*
X21720Y194374D01*
X23588Y191940D01*
X26022Y190072D01*
X28856Y188898D01*
X31898Y188498D01*
X51202D01*
X54244Y188898D01*
X57078Y190072D01*
X59512Y191940D01*
X61380Y194374D01*
X62554Y197208D01*
X62955Y200250D01*
X62554Y203292D01*
X61380Y206126D01*
X59512Y208560D01*
X57078Y210428D01*
X54244Y211602D01*
X51202Y212003D01*
D02*
G37*
G36*
X1061000Y186367D02*
X1058659Y185902D01*
X1056674Y184576D01*
X1055733Y183168D01*
X1054267D01*
X1053326Y184576D01*
X1051341Y185902D01*
X1049000Y186367D01*
X1046659Y185902D01*
X1044674Y184576D01*
X1043348Y182591D01*
X1042883Y180250D01*
X1043348Y177909D01*
X1044674Y175924D01*
X1046082Y174984D01*
Y173517D01*
X1044674Y172576D01*
X1043734Y171168D01*
X1042266D01*
X1041326Y172576D01*
X1039341Y173902D01*
X1037000Y174368D01*
X1034659Y173902D01*
X1032674Y172576D01*
X1031733Y171168D01*
X1030266D01*
X1029326Y172576D01*
X1027341Y173902D01*
X1025000Y174368D01*
X1022659Y173902D01*
X1020674Y172576D01*
X1019734Y171168D01*
X1018267D01*
X1017326Y172576D01*
X1015918Y173517D01*
Y174984D01*
X1017326Y175924D01*
X1018652Y177909D01*
X1019118Y180250D01*
X1018652Y182591D01*
X1017326Y184576D01*
X1015341Y185902D01*
X1013000Y186367D01*
X1010659Y185902D01*
X1008674Y184576D01*
X1007734Y183168D01*
X1006266D01*
X1005326Y184576D01*
X1003341Y185902D01*
X1001000Y186367D01*
X998659Y185902D01*
X996674Y184576D01*
X995733Y183168D01*
X994267D01*
X993326Y184576D01*
X991341Y185902D01*
X989000Y186367D01*
X986659Y185902D01*
X984674Y184576D01*
X983348Y182591D01*
X982883Y180250D01*
X983348Y177909D01*
X984674Y175924D01*
X986082Y174984D01*
Y173517D01*
X984674Y172576D01*
X983348Y170591D01*
X982883Y168250D01*
X983348Y165909D01*
X984674Y163924D01*
X986082Y162983D01*
Y161516D01*
X984674Y160576D01*
X983348Y158591D01*
X982883Y156250D01*
X983348Y153909D01*
X984674Y151924D01*
X986082Y150983D01*
Y149516D01*
X984674Y148576D01*
X983348Y146591D01*
X982883Y144250D01*
X983348Y141909D01*
X984674Y139924D01*
X986082Y138983D01*
Y137516D01*
X984674Y136576D01*
X983348Y134591D01*
X982883Y132250D01*
X983348Y129909D01*
X984674Y127924D01*
X986659Y126598D01*
X989000Y126132D01*
X991341Y126598D01*
X993326Y127924D01*
X994267Y129332D01*
X995733D01*
X996674Y127924D01*
X998659Y126598D01*
X1001000Y126132D01*
X1003341Y126598D01*
X1005326Y127924D01*
X1006266Y129332D01*
X1007734D01*
X1008674Y127924D01*
X1010659Y126598D01*
X1013000Y126132D01*
X1015341Y126598D01*
X1017326Y127924D01*
X1018652Y129909D01*
X1019118Y132250D01*
X1018652Y134591D01*
X1017326Y136576D01*
X1015918Y137516D01*
Y138983D01*
X1017326Y139924D01*
X1018267Y141332D01*
X1019734D01*
X1020674Y139924D01*
X1022659Y138598D01*
X1025000Y138132D01*
X1027341Y138598D01*
X1029326Y139924D01*
X1030266Y141332D01*
X1031733D01*
X1032674Y139924D01*
X1034082Y138983D01*
Y137516D01*
X1032674Y136576D01*
X1031348Y134591D01*
X1030882Y132250D01*
X1031348Y129909D01*
X1032674Y127924D01*
X1034659Y126598D01*
X1037000Y126132D01*
X1039341Y126598D01*
X1041326Y127924D01*
X1042266Y129332D01*
X1043734D01*
X1044674Y127924D01*
X1046659Y126598D01*
X1049000Y126132D01*
X1051341Y126598D01*
X1053326Y127924D01*
X1054267Y129332D01*
X1055733D01*
X1056674Y127924D01*
X1058659Y126598D01*
X1061000Y126132D01*
X1063341Y126598D01*
X1065326Y127924D01*
X1066652Y129909D01*
X1067118Y132250D01*
X1066652Y134591D01*
X1065326Y136576D01*
X1063918Y137516D01*
Y138983D01*
X1065326Y139924D01*
X1066652Y141909D01*
X1067118Y144250D01*
X1066652Y146591D01*
X1065326Y148576D01*
X1063918Y149516D01*
Y150983D01*
X1065326Y151924D01*
X1066652Y153909D01*
X1067118Y156250D01*
X1066652Y158591D01*
X1065326Y160576D01*
X1063918Y161516D01*
Y162983D01*
X1065326Y163924D01*
X1066652Y165909D01*
X1067118Y168250D01*
X1066652Y170591D01*
X1065326Y172576D01*
X1063918Y173517D01*
Y174984D01*
X1065326Y175924D01*
X1066652Y177909D01*
X1067118Y180250D01*
X1066652Y182591D01*
X1065326Y184576D01*
X1063341Y185902D01*
X1061000Y186367D01*
D02*
G37*
G36*
X563000Y196432D02*
X560520Y196105D01*
X558209Y195148D01*
X556225Y193625D01*
X554702Y191641D01*
X553745Y189330D01*
X553418Y186850D01*
X553745Y184370D01*
X554702Y182059D01*
X556225Y180075D01*
X558209Y178552D01*
X560520Y177595D01*
X563000Y177268D01*
X565480Y177595D01*
X567791Y178552D01*
X569775Y180075D01*
X571298Y182059D01*
X572255Y184370D01*
X572582Y186850D01*
X572255Y189330D01*
X571298Y191641D01*
X569775Y193625D01*
X567791Y195148D01*
X565480Y196105D01*
X563000Y196432D01*
D02*
G37*
G36*
X51202Y177003D02*
X31898D01*
X28856Y176602D01*
X26022Y175428D01*
X23588Y173560D01*
X21720Y171126D01*
X20546Y168292D01*
X20145Y165250D01*
X20546Y162208D01*
X21720Y159374D01*
X23588Y156940D01*
X26022Y155072D01*
X28856Y153898D01*
X31898Y153497D01*
X51202D01*
X54244Y153898D01*
X57078Y155072D01*
X59512Y156940D01*
X61380Y159374D01*
X62554Y162208D01*
X62955Y165250D01*
X62554Y168292D01*
X61380Y171126D01*
X59512Y173560D01*
X57078Y175428D01*
X54244Y176602D01*
X51202Y177003D01*
D02*
G37*
G36*
X201358Y170054D02*
X170942D01*
Y152846D01*
X201358D01*
Y170054D01*
D02*
G37*
G36*
X268954Y170128D02*
X255746D01*
X253500Y169832D01*
X251407Y168966D01*
X249610Y167586D01*
X248230Y165789D01*
X247363Y163696D01*
X247068Y161450D01*
X247363Y159204D01*
X248230Y157111D01*
X249610Y155314D01*
X251407Y153934D01*
X253500Y153068D01*
X255746Y152772D01*
X268954D01*
X271200Y153068D01*
X273293Y153934D01*
X275090Y155314D01*
X276470Y157111D01*
X277337Y159204D01*
X277632Y161450D01*
X277337Y163696D01*
X276470Y165789D01*
X275090Y167586D01*
X273293Y168966D01*
X271200Y169832D01*
X268954Y170128D01*
D02*
G37*
G36*
X563000Y171032D02*
X560520Y170705D01*
X558209Y169748D01*
X556225Y168225D01*
X554702Y166241D01*
X553745Y163930D01*
X553418Y161450D01*
X553745Y158970D01*
X554702Y156659D01*
X556225Y154675D01*
X558209Y153152D01*
X560520Y152194D01*
X563000Y151868D01*
X565480Y152194D01*
X567791Y153152D01*
X569775Y154675D01*
X571298Y156659D01*
X572255Y158970D01*
X572582Y161450D01*
X572255Y163930D01*
X571298Y166241D01*
X569775Y168225D01*
X567791Y169748D01*
X565480Y170705D01*
X563000Y171032D01*
D02*
G37*
G36*
X268954Y144728D02*
X255746D01*
X253500Y144432D01*
X251407Y143566D01*
X249610Y142186D01*
X248230Y140389D01*
X247363Y138296D01*
X247068Y136050D01*
X247363Y133804D01*
X248230Y131711D01*
X249610Y129914D01*
X251407Y128534D01*
X253500Y127668D01*
X255746Y127372D01*
X268954D01*
X271200Y127668D01*
X273293Y128534D01*
X275090Y129914D01*
X276470Y131711D01*
X277337Y133804D01*
X277632Y136050D01*
X277337Y138296D01*
X276470Y140389D01*
X275090Y142186D01*
X273293Y143566D01*
X271200Y144432D01*
X268954Y144728D01*
D02*
G37*
G36*
X192754D02*
X179546D01*
X177300Y144432D01*
X175207Y143566D01*
X173410Y142186D01*
X172030Y140389D01*
X171164Y138296D01*
X170868Y136050D01*
X171164Y133804D01*
X172030Y131711D01*
X173410Y129914D01*
X175207Y128534D01*
X177300Y127668D01*
X179546Y127372D01*
X192754D01*
X195000Y127668D01*
X197093Y128534D01*
X198890Y129914D01*
X200270Y131711D01*
X201136Y133804D01*
X201432Y136050D01*
X201136Y138296D01*
X200270Y140389D01*
X198890Y142186D01*
X197093Y143566D01*
X195000Y144432D01*
X192754Y144728D01*
D02*
G37*
G36*
X563000Y145632D02*
X560520Y145305D01*
X558209Y144348D01*
X556225Y142825D01*
X554702Y140841D01*
X553745Y138530D01*
X553418Y136050D01*
X553745Y133570D01*
X554702Y131259D01*
X556225Y129275D01*
X558209Y127752D01*
X560520Y126795D01*
X563000Y126468D01*
X565480Y126795D01*
X567791Y127752D01*
X569775Y129275D01*
X571298Y131259D01*
X572255Y133570D01*
X572582Y136050D01*
X572255Y138530D01*
X571298Y140841D01*
X569775Y142825D01*
X567791Y144348D01*
X565480Y145305D01*
X563000Y145632D01*
D02*
G37*
G36*
X51202Y142002D02*
X31898D01*
X28856Y141602D01*
X26022Y140428D01*
X23588Y138560D01*
X21720Y136126D01*
X20546Y133292D01*
X20145Y130250D01*
X20546Y127208D01*
X21720Y124374D01*
X23588Y121940D01*
X26022Y120072D01*
X28856Y118898D01*
X31898Y118497D01*
X51202D01*
X54244Y118898D01*
X57078Y120072D01*
X59512Y121940D01*
X61380Y124374D01*
X62554Y127208D01*
X62955Y130250D01*
X62554Y133292D01*
X61380Y136126D01*
X59512Y138560D01*
X57078Y140428D01*
X54244Y141602D01*
X51202Y142002D01*
D02*
G37*
%LPD*%
D94*
X439750Y323150D02*
D03*
D97*
X995000Y310250D02*
D03*
X1019000Y788250D02*
D03*
D98*
X563000Y212250D02*
D03*
X510500Y689900D02*
D03*
D100*
X358600Y695800D02*
D03*
Y631800D02*
D03*
Y567800D02*
D03*
Y503800D02*
D03*
D103*
X101250Y817800D02*
D03*
Y972700D02*
D03*
D105*
X159650Y850850D02*
D03*
D107*
X41550Y515250D02*
D03*
Y445250D02*
D03*
D109*
X781000Y456750D02*
D03*
X793000D02*
D03*
X781000Y444750D02*
D03*
X811000Y384750D02*
D03*
Y372750D02*
D03*
X805000Y456750D02*
D03*
X823000Y372750D02*
D03*
X793000Y444750D02*
D03*
X823000Y384750D02*
D03*
X619750Y386500D02*
D03*
X631250Y396500D02*
D03*
X340250Y951250D02*
D03*
X418925Y863925D02*
D03*
X501250Y913500D02*
D03*
X324000Y407500D02*
D03*
X362500Y424000D02*
D03*
X602500Y469250D02*
D03*
X706250Y399000D02*
D03*
X285000Y860000D02*
D03*
X631000Y483250D02*
D03*
X203000Y884250D02*
D03*
Y896250D02*
D03*
X191000D02*
D03*
Y884250D02*
D03*
X598500Y424500D02*
D03*
X709750Y479750D02*
D03*
X710750Y428250D02*
D03*
X324250Y775750D02*
D03*
X284000D02*
D03*
X329500Y850750D02*
D03*
X327500Y454750D02*
D03*
Y466750D02*
D03*
Y478750D02*
D03*
X375500D02*
D03*
Y466750D02*
D03*
Y454750D02*
D03*
X363500Y478750D02*
D03*
Y466750D02*
D03*
Y454750D02*
D03*
X351500Y478750D02*
D03*
Y466750D02*
D03*
Y454750D02*
D03*
X339500Y478750D02*
D03*
Y466750D02*
D03*
Y454750D02*
D03*
X835000Y360750D02*
D03*
X823000D02*
D03*
X811000D02*
D03*
X805000Y444750D02*
D03*
X835000Y384750D02*
D03*
Y372750D02*
D03*
X521500Y1031000D02*
D03*
X470250D02*
D03*
X521500Y952250D02*
D03*
Y919500D02*
D03*
X406000Y867250D02*
D03*
X344250Y1012250D02*
D03*
Y993750D02*
D03*
X399000D02*
D03*
X470250Y975000D02*
D03*
X312500Y893000D02*
D03*
X324750Y892500D02*
D03*
X325250Y903500D02*
D03*
X312500Y903750D02*
D03*
D110*
X481750Y384032D02*
D03*
X477250Y309750D02*
D03*
X494500Y317000D02*
D03*
X210500Y431750D02*
D03*
X514250Y382000D02*
D03*
X226500Y324000D02*
D03*
M02*
