G04*
G04 #@! TF.GenerationSoftware,Altium Limited,Altium Designer,20.0.13 (296)*
G04*
G04 Layer_Physical_Order=2*
G04 Layer_Color=16711680*
%FSLAX44Y44*%
%MOMM*%
G71*
G01*
G75*
%ADD10C,0.2000*%
%ADD13C,0.2500*%
%ADD14C,0.2540*%
%ADD16C,0.3000*%
%ADD41R,1.5000X1.5000*%
%ADD90C,2.0000*%
%ADD91C,1.0000*%
%ADD92C,0.4000*%
%ADD93C,0.5000*%
%ADD94C,1.6000*%
%ADD95R,1.6000X1.6000*%
%ADD96R,1.4000X1.4000*%
%ADD97C,1.4000*%
%ADD98C,1.5000*%
%ADD99R,2.6416X1.3208*%
%ADD100O,2.6416X1.3208*%
%ADD101C,3.2500*%
%ADD102C,2.4450*%
%ADD103C,1.5300*%
%ADD104C,1.3980*%
%ADD105R,1.3980X1.3980*%
%ADD106O,3.8608X1.9304*%
%ADD107R,1.6000X1.6000*%
%ADD108C,0.8000*%
%ADD109C,0.7000*%
G36*
X1186431Y3569D02*
X3569D01*
Y1086431D01*
X1186431D01*
Y3569D01*
D02*
G37*
%LPC*%
G36*
X102520Y987411D02*
Y973970D01*
X115961D01*
X115801Y975594D01*
X114957Y978378D01*
X113586Y980943D01*
X111741Y983191D01*
X109493Y985036D01*
X106928Y986407D01*
X104144Y987251D01*
X102520Y987411D01*
D02*
G37*
G36*
X99980D02*
X98356Y987251D01*
X95572Y986407D01*
X93007Y985036D01*
X90759Y983191D01*
X88914Y980943D01*
X87543Y978378D01*
X86699Y975594D01*
X86539Y973970D01*
X99980D01*
Y987411D01*
D02*
G37*
G36*
X115961Y971430D02*
X102520D01*
Y957989D01*
X104144Y958149D01*
X106928Y958993D01*
X109493Y960364D01*
X111741Y962209D01*
X113586Y964457D01*
X114957Y967022D01*
X115801Y969806D01*
X115961Y971430D01*
D02*
G37*
G36*
X99980D02*
X86539D01*
X86699Y969806D01*
X87543Y967022D01*
X88914Y964457D01*
X90759Y962209D01*
X93007Y960364D01*
X95572Y958993D01*
X98356Y958149D01*
X99980Y957989D01*
Y971430D01*
D02*
G37*
G36*
X748850Y965432D02*
X746370Y965106D01*
X744059Y964148D01*
X742075Y962626D01*
X740552Y960641D01*
X739594Y958330D01*
X739268Y955850D01*
X739594Y953370D01*
X740552Y951059D01*
X742075Y949075D01*
X744059Y947552D01*
X746370Y946595D01*
X748850Y946268D01*
X751330Y946595D01*
X753641Y947552D01*
X755625Y949075D01*
X757148Y951059D01*
X758105Y953370D01*
X758432Y955850D01*
X758105Y958330D01*
X757148Y960641D01*
X755625Y962626D01*
X753641Y964148D01*
X751330Y965106D01*
X748850Y965432D01*
D02*
G37*
G36*
X723450D02*
X720970Y965106D01*
X718659Y964148D01*
X716674Y962626D01*
X715152Y960641D01*
X714194Y958330D01*
X713868Y955850D01*
X714194Y953370D01*
X715152Y951059D01*
X716674Y949075D01*
X718659Y947552D01*
X720970Y946595D01*
X723450Y946268D01*
X725930Y946595D01*
X728241Y947552D01*
X730225Y949075D01*
X731748Y951059D01*
X732705Y953370D01*
X733032Y955850D01*
X732705Y958330D01*
X731748Y960641D01*
X730225Y962626D01*
X728241Y964148D01*
X725930Y965106D01*
X723450Y965432D01*
D02*
G37*
G36*
X698050D02*
X695570Y965106D01*
X693259Y964148D01*
X691274Y962626D01*
X689752Y960641D01*
X688794Y958330D01*
X688468Y955850D01*
X688794Y953370D01*
X689752Y951059D01*
X691274Y949075D01*
X693259Y947552D01*
X695570Y946595D01*
X698050Y946268D01*
X700530Y946595D01*
X702841Y947552D01*
X704825Y949075D01*
X706348Y951059D01*
X707305Y953370D01*
X707632Y955850D01*
X707305Y958330D01*
X706348Y960641D01*
X704825Y962626D01*
X702841Y964148D01*
X700530Y965106D01*
X698050Y965432D01*
D02*
G37*
G36*
X672650D02*
X670170Y965106D01*
X667859Y964148D01*
X665874Y962626D01*
X664352Y960641D01*
X663394Y958330D01*
X663068Y955850D01*
X663394Y953370D01*
X664352Y951059D01*
X665874Y949075D01*
X667859Y947552D01*
X670170Y946595D01*
X672650Y946268D01*
X675130Y946595D01*
X677441Y947552D01*
X679425Y949075D01*
X680948Y951059D01*
X681905Y953370D01*
X682232Y955850D01*
X681905Y958330D01*
X680948Y960641D01*
X679425Y962626D01*
X677441Y964148D01*
X675130Y965106D01*
X672650Y965432D01*
D02*
G37*
G36*
X639850D02*
X637370Y965106D01*
X635059Y964148D01*
X633075Y962626D01*
X631552Y960641D01*
X630594Y958330D01*
X630268Y955850D01*
X630594Y953370D01*
X631552Y951059D01*
X633075Y949075D01*
X635059Y947552D01*
X637370Y946595D01*
X639850Y946268D01*
X642330Y946595D01*
X644641Y947552D01*
X646626Y949075D01*
X648148Y951059D01*
X649106Y953370D01*
X649432Y955850D01*
X649106Y958330D01*
X648148Y960641D01*
X646626Y962626D01*
X644641Y964148D01*
X642330Y965106D01*
X639850Y965432D01*
D02*
G37*
G36*
X614450D02*
X611970Y965106D01*
X609659Y964148D01*
X607675Y962626D01*
X606152Y960641D01*
X605195Y958330D01*
X604868Y955850D01*
X605195Y953370D01*
X606152Y951059D01*
X607675Y949075D01*
X609659Y947552D01*
X611970Y946595D01*
X614450Y946268D01*
X616930Y946595D01*
X619241Y947552D01*
X621226Y949075D01*
X622748Y951059D01*
X623705Y953370D01*
X624032Y955850D01*
X623705Y958330D01*
X622748Y960641D01*
X621226Y962626D01*
X619241Y964148D01*
X616930Y965106D01*
X614450Y965432D01*
D02*
G37*
G36*
X589050D02*
X586570Y965106D01*
X584259Y964148D01*
X582275Y962626D01*
X580752Y960641D01*
X579795Y958330D01*
X579468Y955850D01*
X579795Y953370D01*
X580752Y951059D01*
X582275Y949075D01*
X584259Y947552D01*
X586570Y946595D01*
X589050Y946268D01*
X591530Y946595D01*
X593841Y947552D01*
X595826Y949075D01*
X597348Y951059D01*
X598306Y953370D01*
X598632Y955850D01*
X598306Y958330D01*
X597348Y960641D01*
X595826Y962626D01*
X593841Y964148D01*
X591530Y965106D01*
X589050Y965432D01*
D02*
G37*
G36*
X563650D02*
X561170Y965106D01*
X558859Y964148D01*
X556875Y962626D01*
X555352Y960641D01*
X554394Y958330D01*
X554068Y955850D01*
X554394Y953370D01*
X555352Y951059D01*
X556875Y949075D01*
X558859Y947552D01*
X561170Y946595D01*
X563650Y946268D01*
X566130Y946595D01*
X568441Y947552D01*
X570425Y949075D01*
X571948Y951059D01*
X572906Y953370D01*
X573232Y955850D01*
X572906Y958330D01*
X571948Y960641D01*
X570425Y962626D01*
X568441Y964148D01*
X566130Y965106D01*
X563650Y965432D01*
D02*
G37*
G36*
X70750Y970738D02*
X67172Y970386D01*
X63732Y969342D01*
X60562Y967648D01*
X57783Y965367D01*
X55502Y962588D01*
X53808Y959418D01*
X52764Y955978D01*
X52412Y952400D01*
X52764Y948822D01*
X53808Y945382D01*
X55502Y942212D01*
X57783Y939433D01*
X60562Y937152D01*
X63732Y935458D01*
X67172Y934414D01*
X70750Y934062D01*
X74328Y934414D01*
X77768Y935458D01*
X80938Y937152D01*
X83717Y939433D01*
X85998Y942212D01*
X87692Y945382D01*
X88736Y948822D01*
X89088Y952400D01*
X88736Y955978D01*
X87692Y959418D01*
X85998Y962588D01*
X83717Y965367D01*
X80938Y967648D01*
X77768Y969342D01*
X74328Y970386D01*
X70750Y970738D01*
D02*
G37*
G36*
X143240Y948740D02*
X125260D01*
Y930760D01*
X143240D01*
Y948740D01*
D02*
G37*
G36*
X21750Y945833D02*
X19231Y945502D01*
X16883Y944529D01*
X14868Y942982D01*
X13321Y940967D01*
X12348Y938619D01*
X12017Y936100D01*
X12348Y933581D01*
X13321Y931233D01*
X14868Y929218D01*
X16883Y927671D01*
X19231Y926698D01*
X21750Y926367D01*
X24269Y926698D01*
X26617Y927671D01*
X28633Y929218D01*
X30179Y931233D01*
X31152Y933581D01*
X31483Y936100D01*
X31152Y938619D01*
X30179Y940967D01*
X28633Y942982D01*
X26617Y944529D01*
X24269Y945502D01*
X21750Y945833D01*
D02*
G37*
G36*
X159650Y936118D02*
X157303Y935809D01*
X155116Y934903D01*
X153238Y933462D01*
X151797Y931584D01*
X150891Y929397D01*
X150582Y927050D01*
X150891Y924703D01*
X151797Y922516D01*
X153238Y920638D01*
X155116Y919197D01*
X157303Y918291D01*
X159650Y917982D01*
X161997Y918291D01*
X164184Y919197D01*
X166062Y920638D01*
X167503Y922516D01*
X168409Y924703D01*
X168718Y927050D01*
X168409Y929397D01*
X167503Y931584D01*
X166062Y933462D01*
X164184Y934903D01*
X161997Y935809D01*
X159650Y936118D01*
D02*
G37*
G36*
X195750Y959358D02*
X193604Y958931D01*
X191785Y957715D01*
X190569Y955896D01*
X190142Y953750D01*
X190569Y951604D01*
X191162Y950717D01*
Y939650D01*
X161929Y910418D01*
X159650Y910718D01*
X157303Y910409D01*
X155116Y909503D01*
X153238Y908062D01*
X151797Y906184D01*
X150891Y903997D01*
X150582Y901650D01*
X150891Y899303D01*
X151797Y897116D01*
X153238Y895238D01*
X155116Y893797D01*
X157303Y892891D01*
X159650Y892582D01*
X161997Y892891D01*
X164184Y893797D01*
X166062Y895238D01*
X167503Y897116D01*
X168409Y899303D01*
X168718Y901650D01*
X168417Y903929D01*
X198994Y934506D01*
X199989Y935994D01*
X200338Y937750D01*
Y950717D01*
X200931Y951604D01*
X201358Y953750D01*
X200931Y955896D01*
X199715Y957715D01*
X197896Y958931D01*
X195750Y959358D01*
D02*
G37*
G36*
X134250Y923418D02*
X131903Y923109D01*
X129716Y922203D01*
X127838Y920762D01*
X126397Y918884D01*
X125491Y916697D01*
X125182Y914350D01*
X125491Y912003D01*
X126397Y909816D01*
X127838Y907938D01*
X129716Y906497D01*
X131903Y905591D01*
X134250Y905282D01*
X136597Y905591D01*
X138784Y906497D01*
X140662Y907938D01*
X142103Y909816D01*
X143009Y912003D01*
X143318Y914350D01*
X143009Y916697D01*
X142103Y918884D01*
X140662Y920762D01*
X138784Y922203D01*
X136597Y923109D01*
X134250Y923418D01*
D02*
G37*
G36*
X227250Y951608D02*
X225104Y951181D01*
X223285Y949965D01*
X222069Y948146D01*
X221642Y946000D01*
X222069Y943854D01*
X222787Y942780D01*
Y904596D01*
X222319Y903896D01*
X221892Y901750D01*
X222319Y899604D01*
X223535Y897785D01*
X225354Y896569D01*
X227500Y896142D01*
X229646Y896569D01*
X231465Y897785D01*
X232681Y899604D01*
X233108Y901750D01*
X232681Y903896D01*
X231963Y904970D01*
Y943154D01*
X232431Y943854D01*
X232858Y946000D01*
X232431Y948146D01*
X231215Y949965D01*
X229396Y951181D01*
X227250Y951608D01*
D02*
G37*
G36*
X134250Y898018D02*
X131903Y897709D01*
X129716Y896803D01*
X127838Y895362D01*
X126397Y893484D01*
X125491Y891297D01*
X125182Y888950D01*
X125491Y886603D01*
X126397Y884416D01*
X127838Y882538D01*
X129716Y881097D01*
X131903Y880191D01*
X134250Y879882D01*
X136597Y880191D01*
X138784Y881097D01*
X140662Y882538D01*
X142103Y884416D01*
X143009Y886603D01*
X143318Y888950D01*
X143009Y891297D01*
X142103Y893484D01*
X140662Y895362D01*
X138784Y896803D01*
X136597Y897709D01*
X134250Y898018D01*
D02*
G37*
G36*
X159650Y885318D02*
X157303Y885009D01*
X155116Y884103D01*
X153238Y882662D01*
X151797Y880784D01*
X150891Y878597D01*
X150582Y876250D01*
X150891Y873903D01*
X151797Y871716D01*
X153238Y869838D01*
X155116Y868397D01*
X157303Y867491D01*
X159650Y867182D01*
X161997Y867491D01*
X164184Y868397D01*
X166062Y869838D01*
X167503Y871716D01*
X168409Y873903D01*
X168718Y876250D01*
X168409Y878597D01*
X167503Y880784D01*
X166062Y882662D01*
X164184Y884103D01*
X161997Y885009D01*
X159650Y885318D01*
D02*
G37*
G36*
X134250Y872618D02*
X131903Y872309D01*
X129716Y871403D01*
X127838Y869962D01*
X126397Y868084D01*
X125491Y865897D01*
X125182Y863550D01*
X125491Y861203D01*
X126397Y859016D01*
X127838Y857138D01*
X129716Y855697D01*
X131903Y854791D01*
X134250Y854482D01*
X136597Y854791D01*
X138784Y855697D01*
X140662Y857138D01*
X142103Y859016D01*
X143009Y861203D01*
X143318Y863550D01*
X143009Y865897D01*
X142103Y868084D01*
X140662Y869962D01*
X138784Y871403D01*
X136597Y872309D01*
X134250Y872618D01*
D02*
G37*
G36*
X160920Y860295D02*
Y852120D01*
X169095D01*
X168935Y853338D01*
X167974Y855656D01*
X166447Y857647D01*
X164456Y859174D01*
X162138Y860135D01*
X160920Y860295D01*
D02*
G37*
G36*
X158380D02*
X157162Y860135D01*
X154844Y859174D01*
X152853Y857647D01*
X151326Y855656D01*
X150365Y853338D01*
X150205Y852120D01*
X158380D01*
Y860295D01*
D02*
G37*
G36*
X21750Y864133D02*
X19231Y863802D01*
X16883Y862829D01*
X14868Y861283D01*
X13321Y859267D01*
X12348Y856919D01*
X12017Y854400D01*
X12348Y851881D01*
X13321Y849533D01*
X14868Y847517D01*
X16883Y845971D01*
X19231Y844998D01*
X21750Y844667D01*
X24269Y844998D01*
X26617Y845971D01*
X28633Y847517D01*
X30179Y849533D01*
X31152Y851881D01*
X31483Y854400D01*
X31152Y856919D01*
X30179Y859267D01*
X28633Y861283D01*
X26617Y862829D01*
X24269Y863802D01*
X21750Y864133D01*
D02*
G37*
G36*
X158380Y849580D02*
X150205D01*
X150365Y848362D01*
X151326Y846044D01*
X152853Y844053D01*
X154844Y842526D01*
X157162Y841565D01*
X158380Y841405D01*
Y849580D01*
D02*
G37*
G36*
X169095D02*
X160920D01*
Y841405D01*
X162138Y841565D01*
X164456Y842526D01*
X166447Y844053D01*
X167974Y846044D01*
X168935Y848362D01*
X169095Y849580D01*
D02*
G37*
G36*
X226750Y892858D02*
X224604Y892431D01*
X222785Y891215D01*
X221569Y889396D01*
X221142Y887250D01*
X221569Y885104D01*
X222037Y884404D01*
Y848970D01*
X221319Y847896D01*
X220892Y845750D01*
X221319Y843604D01*
X222535Y841785D01*
X224354Y840569D01*
X226500Y840142D01*
X228646Y840569D01*
X230465Y841785D01*
X231681Y843604D01*
X232108Y845750D01*
X231681Y847896D01*
X231213Y848596D01*
Y884030D01*
X231931Y885104D01*
X232358Y887250D01*
X231931Y889396D01*
X230715Y891215D01*
X228896Y892431D01*
X226750Y892858D01*
D02*
G37*
G36*
X70750Y856438D02*
X67172Y856086D01*
X63732Y855042D01*
X60562Y853348D01*
X57783Y851067D01*
X55502Y848288D01*
X53808Y845118D01*
X52764Y841678D01*
X52412Y838100D01*
X52764Y834522D01*
X53808Y831082D01*
X55502Y827912D01*
X57783Y825133D01*
X60562Y822852D01*
X63732Y821158D01*
X67172Y820114D01*
X70750Y819762D01*
X74328Y820114D01*
X77768Y821158D01*
X80938Y822852D01*
X83717Y825133D01*
X85998Y827912D01*
X87692Y831082D01*
X88736Y834522D01*
X89088Y838100D01*
X88736Y841678D01*
X87692Y845118D01*
X85998Y848288D01*
X83717Y851067D01*
X80938Y853348D01*
X77768Y855042D01*
X74328Y856086D01*
X70750Y856438D01*
D02*
G37*
G36*
X21750Y838733D02*
X19231Y838402D01*
X16883Y837429D01*
X14868Y835882D01*
X13321Y833867D01*
X12348Y831519D01*
X12017Y829000D01*
X12348Y826481D01*
X13321Y824133D01*
X14868Y822117D01*
X16883Y820571D01*
X19231Y819598D01*
X21750Y819267D01*
X24269Y819598D01*
X26617Y820571D01*
X28633Y822117D01*
X30179Y824133D01*
X31152Y826481D01*
X31483Y829000D01*
X31152Y831519D01*
X30179Y833867D01*
X28633Y835882D01*
X26617Y837429D01*
X24269Y838402D01*
X21750Y838733D01*
D02*
G37*
G36*
X102520Y832511D02*
Y819070D01*
X115961D01*
X115801Y820694D01*
X114957Y823478D01*
X113586Y826043D01*
X111741Y828291D01*
X109493Y830136D01*
X106928Y831507D01*
X104144Y832351D01*
X102520Y832511D01*
D02*
G37*
G36*
X99980D02*
X98356Y832351D01*
X95572Y831507D01*
X93007Y830136D01*
X90759Y828291D01*
X88914Y826043D01*
X87543Y823478D01*
X86699Y820694D01*
X86539Y819070D01*
X99980D01*
Y832511D01*
D02*
G37*
G36*
X573150Y889150D02*
X554150D01*
Y870150D01*
X558941D01*
Y823571D01*
X558035Y822965D01*
X556819Y821146D01*
X556392Y819000D01*
X556819Y816854D01*
X558035Y815035D01*
X559854Y813819D01*
X562000Y813392D01*
X564146Y813819D01*
X565965Y815035D01*
X567181Y816854D01*
X567608Y819000D01*
X567181Y821146D01*
X565965Y822965D01*
X565059Y823571D01*
Y870150D01*
X573150D01*
Y889150D01*
D02*
G37*
G36*
X115961Y816530D02*
X102520D01*
Y803089D01*
X104144Y803249D01*
X106928Y804093D01*
X109493Y805464D01*
X111741Y807309D01*
X113586Y809557D01*
X114957Y812122D01*
X115801Y814905D01*
X115961Y816530D01*
D02*
G37*
G36*
X99980D02*
X86539D01*
X86699Y814905D01*
X87543Y812122D01*
X88914Y809557D01*
X90759Y807309D01*
X93007Y805464D01*
X95572Y804093D01*
X98356Y803249D01*
X99980Y803089D01*
Y816530D01*
D02*
G37*
G36*
X231750Y971358D02*
X229604Y970931D01*
X227785Y969715D01*
X226569Y967896D01*
X226142Y965750D01*
X226569Y963604D01*
X227785Y961785D01*
X229604Y960569D01*
X230650Y960361D01*
X257162Y933849D01*
Y807533D01*
X256569Y806646D01*
X256142Y804500D01*
X256569Y802354D01*
X257785Y800535D01*
X259604Y799319D01*
X261750Y798892D01*
X263896Y799319D01*
X265715Y800535D01*
X266931Y802354D01*
X267358Y804500D01*
X266931Y806646D01*
X266338Y807533D01*
Y935750D01*
X265989Y937506D01*
X264994Y938994D01*
X237139Y966850D01*
X236931Y967896D01*
X235715Y969715D01*
X233896Y970931D01*
X231750Y971358D01*
D02*
G37*
G36*
X589050Y889232D02*
X586570Y888905D01*
X584259Y887948D01*
X582275Y886425D01*
X580752Y884441D01*
X579795Y882130D01*
X579468Y879650D01*
X579795Y877170D01*
X580752Y874859D01*
X582275Y872875D01*
X584259Y871352D01*
X585991Y870634D01*
Y801621D01*
X585085Y801015D01*
X583869Y799196D01*
X583442Y797050D01*
X583869Y794904D01*
X585085Y793085D01*
X586904Y791869D01*
X589050Y791442D01*
X591196Y791869D01*
X593015Y793085D01*
X594231Y794904D01*
X594658Y797050D01*
X594231Y799196D01*
X593015Y801015D01*
X592109Y801621D01*
Y870634D01*
X593841Y871352D01*
X595826Y872875D01*
X597348Y874859D01*
X598306Y877170D01*
X598632Y879650D01*
X598306Y882130D01*
X597348Y884441D01*
X595826Y886425D01*
X593841Y887948D01*
X591530Y888905D01*
X589050Y889232D01*
D02*
G37*
G36*
X1020270Y797705D02*
Y789520D01*
X1028455D01*
X1028294Y790741D01*
X1027333Y793061D01*
X1025804Y795054D01*
X1023811Y796583D01*
X1021490Y797544D01*
X1020270Y797705D01*
D02*
G37*
G36*
X1017730D02*
X1016509Y797544D01*
X1014189Y796583D01*
X1012196Y795054D01*
X1010667Y793061D01*
X1009706Y790741D01*
X1009545Y789520D01*
X1017730D01*
Y797705D01*
D02*
G37*
G36*
X978000Y797250D02*
X960000D01*
Y779250D01*
X978000D01*
Y797250D01*
D02*
G37*
G36*
X1028455Y786980D02*
X1020270D01*
Y778795D01*
X1021490Y778956D01*
X1023811Y779917D01*
X1025804Y781446D01*
X1027333Y783439D01*
X1028294Y785760D01*
X1028455Y786980D01*
D02*
G37*
G36*
X1017730D02*
X1009545D01*
X1009706Y785760D01*
X1010667Y783439D01*
X1012196Y781446D01*
X1014189Y779917D01*
X1016509Y778956D01*
X1017730Y778795D01*
Y786980D01*
D02*
G37*
G36*
X520000Y750200D02*
X501000D01*
Y731200D01*
X520000D01*
Y750200D01*
D02*
G37*
G36*
X216000Y999559D02*
X216000Y999559D01*
X56750D01*
X55579Y999326D01*
X54587Y998663D01*
X54587Y998663D01*
X26077Y970153D01*
X24269Y970902D01*
X21750Y971233D01*
X19231Y970902D01*
X16883Y969929D01*
X14868Y968382D01*
X13321Y966367D01*
X12348Y964019D01*
X12017Y961500D01*
X12348Y958981D01*
X13321Y956633D01*
X14868Y954617D01*
X16883Y953071D01*
X19231Y952098D01*
X21750Y951767D01*
X24269Y952098D01*
X26617Y953071D01*
X28633Y954617D01*
X30179Y956633D01*
X31152Y958981D01*
X31483Y961500D01*
X31152Y964019D01*
X30403Y965827D01*
X58017Y993441D01*
X214733D01*
X270691Y937483D01*
Y885750D01*
X270691Y885750D01*
X270924Y884579D01*
X271587Y883587D01*
X296337Y858837D01*
X296337Y858837D01*
X297329Y858174D01*
X298500Y857941D01*
X312179D01*
X312785Y857035D01*
X314604Y855819D01*
X315300Y855681D01*
X315669Y854465D01*
X313272Y852069D01*
X283980D01*
X283715Y852465D01*
X281896Y853681D01*
X279750Y854108D01*
X277604Y853681D01*
X275785Y852465D01*
X274569Y850646D01*
X274142Y848500D01*
X274569Y846354D01*
X275785Y844535D01*
X277604Y843319D01*
X279750Y842892D01*
X281896Y843319D01*
X283715Y844535D01*
X283980Y844931D01*
X314750D01*
X316116Y845203D01*
X317273Y845977D01*
X329773Y858477D01*
X330547Y859634D01*
X330819Y861000D01*
Y867000D01*
X330547Y868366D01*
X329773Y869524D01*
X324274Y875023D01*
X323116Y875797D01*
X321750Y876069D01*
X307478D01*
X287069Y896478D01*
Y921681D01*
X335022D01*
X351227Y905477D01*
X352384Y904703D01*
X353750Y904431D01*
X377020D01*
X377285Y904035D01*
X379104Y902819D01*
X381250Y902392D01*
X383396Y902819D01*
X385215Y904035D01*
X386431Y905854D01*
X386858Y908000D01*
X386431Y910146D01*
X386147Y910571D01*
X386745Y911691D01*
X403326D01*
X674204Y640814D01*
X673578Y639643D01*
X672500Y639858D01*
X670354Y639431D01*
X668535Y638215D01*
X667319Y636396D01*
X666892Y634250D01*
X667319Y632104D01*
X668535Y630285D01*
X670354Y629069D01*
X672500Y628642D01*
X672941Y628280D01*
Y426528D01*
X671671Y425808D01*
X671559Y425876D01*
Y621250D01*
X671559Y621250D01*
X671326Y622421D01*
X670663Y623413D01*
X658059Y636017D01*
Y637429D01*
X658965Y638035D01*
X660181Y639854D01*
X660608Y642000D01*
X660181Y644146D01*
X658965Y645965D01*
X657146Y647181D01*
X655000Y647608D01*
X652854Y647181D01*
X651035Y645965D01*
X649819Y644146D01*
X649392Y642000D01*
X649819Y639854D01*
X651035Y638035D01*
X651941Y637429D01*
Y634750D01*
X651941Y634750D01*
X652174Y633579D01*
X652837Y632587D01*
X665441Y619983D01*
Y595412D01*
X664321Y594814D01*
X664146Y594931D01*
X662000Y595358D01*
X661532Y595265D01*
X615173Y641623D01*
X614016Y642397D01*
X612650Y642669D01*
X519305D01*
X518798Y643891D01*
X517275Y645875D01*
X515291Y647398D01*
X512980Y648355D01*
X510500Y648682D01*
X508020Y648355D01*
X505709Y647398D01*
X503725Y645875D01*
X502202Y643891D01*
X501245Y641580D01*
X500918Y639100D01*
X501245Y636620D01*
X502202Y634309D01*
X503725Y632324D01*
X505709Y630802D01*
X508020Y629845D01*
X510500Y629518D01*
X512980Y629845D01*
X515291Y630802D01*
X517275Y632324D01*
X518798Y634309D01*
X519305Y635531D01*
X611172D01*
X652211Y594492D01*
X651725Y593319D01*
X606500D01*
X605134Y593047D01*
X603977Y592273D01*
X584718Y573015D01*
X584250Y573108D01*
X582104Y572681D01*
X580285Y571465D01*
X579069Y569646D01*
X578642Y567500D01*
X579069Y565354D01*
X580285Y563535D01*
X582104Y562319D01*
X584250Y561892D01*
X586396Y562319D01*
X588215Y563535D01*
X589431Y565354D01*
X589858Y567500D01*
X589765Y567968D01*
X607978Y586181D01*
X657770D01*
X658035Y585785D01*
X659854Y584569D01*
X662000Y584142D01*
X664146Y584569D01*
X664321Y584686D01*
X665441Y584087D01*
Y424571D01*
X664535Y423965D01*
X663319Y422146D01*
X662892Y420000D01*
X663319Y417854D01*
X664535Y416035D01*
X666354Y414819D01*
X668500Y414392D01*
X670646Y414819D01*
X671671Y415504D01*
X672941Y414825D01*
Y408821D01*
X672035Y408215D01*
X670819Y406396D01*
X670392Y404250D01*
X670819Y402104D01*
X672035Y400285D01*
X673854Y399069D01*
X676000Y398642D01*
X678146Y399069D01*
X679421Y399921D01*
X680691Y399259D01*
Y385500D01*
X680691Y385500D01*
X680924Y384329D01*
X681587Y383337D01*
X703837Y361087D01*
X704829Y360424D01*
X706000Y360191D01*
X706000Y360191D01*
X717233D01*
X720105Y357319D01*
X719892Y356250D01*
X720319Y354104D01*
X721535Y352285D01*
X723354Y351069D01*
X725500Y350642D01*
X727646Y351069D01*
X729465Y352285D01*
X730681Y354104D01*
X731108Y356250D01*
X730681Y358396D01*
X729465Y360215D01*
X727646Y361431D01*
X725500Y361858D01*
X724431Y361645D01*
X720663Y365413D01*
X719670Y366076D01*
X718500Y366309D01*
X718500Y366309D01*
X707267D01*
X686809Y386767D01*
Y393083D01*
X687815Y393454D01*
X688079Y393505D01*
X689854Y392319D01*
X692000Y391892D01*
X693953Y392281D01*
X694429Y392122D01*
X695266Y391540D01*
X695285Y391216D01*
X695279Y391206D01*
X694069Y389396D01*
X693642Y387250D01*
X694069Y385104D01*
X695285Y383285D01*
X697104Y382069D01*
X699250Y381642D01*
X701396Y382069D01*
X703215Y383285D01*
X704431Y385104D01*
X704858Y387250D01*
X704431Y389396D01*
X703215Y391215D01*
X702309Y391821D01*
Y520500D01*
X702309Y520500D01*
X702076Y521670D01*
X701413Y522663D01*
X701413Y522663D01*
X694809Y529267D01*
Y533456D01*
X695982Y533942D01*
X745105Y484819D01*
X744892Y483750D01*
X745319Y481604D01*
X746535Y479785D01*
X748354Y478569D01*
X750500Y478142D01*
X752646Y478569D01*
X754421Y479755D01*
X754685Y479704D01*
X755691Y479334D01*
Y439267D01*
X712819Y396395D01*
X711750Y396608D01*
X709604Y396181D01*
X707785Y394965D01*
X706569Y393146D01*
X706142Y391000D01*
X706569Y388854D01*
X707785Y387035D01*
X709604Y385819D01*
X711750Y385392D01*
X713896Y385819D01*
X715715Y387035D01*
X716931Y388854D01*
X717358Y391000D01*
X717145Y392069D01*
X760913Y435837D01*
X761576Y436829D01*
X761671Y437309D01*
X762941Y437183D01*
Y417017D01*
X755069Y409145D01*
X754000Y409358D01*
X751854Y408931D01*
X750035Y407715D01*
X748819Y405896D01*
X748392Y403750D01*
X748819Y401604D01*
X750035Y399785D01*
X751854Y398569D01*
X754000Y398142D01*
X756146Y398569D01*
X757965Y399785D01*
X759181Y401604D01*
X759608Y403750D01*
X759395Y404819D01*
X768163Y413587D01*
X768163Y413587D01*
X768826Y414579D01*
X769059Y415750D01*
Y490750D01*
X769059Y490750D01*
X768826Y491921D01*
X768163Y492913D01*
X768163Y492913D01*
X731559Y529517D01*
Y631750D01*
X731559Y631750D01*
X731326Y632921D01*
X730663Y633913D01*
X730663Y633913D01*
X608390Y756186D01*
X609199Y757172D01*
X609354Y757069D01*
X611500Y756642D01*
X613646Y757069D01*
X614236Y757463D01*
X614580Y757283D01*
X615265Y756624D01*
X614892Y754750D01*
X615319Y752604D01*
X616535Y750785D01*
X618354Y749569D01*
X620500Y749142D01*
X622646Y749569D01*
X623422Y750088D01*
X624338Y749172D01*
X623819Y748396D01*
X623392Y746250D01*
X623819Y744104D01*
X625035Y742285D01*
X626854Y741069D01*
X629000Y740642D01*
X630796Y741000D01*
X631928Y740181D01*
X631892Y740000D01*
X632319Y737854D01*
X633535Y736035D01*
X635354Y734819D01*
X637500Y734392D01*
X639453Y734781D01*
X640008Y734533D01*
X640694Y733992D01*
X641069Y732104D01*
X642285Y730285D01*
X644104Y729069D01*
X646250Y728642D01*
X648396Y729069D01*
X650215Y730285D01*
X651431Y732104D01*
X651858Y734250D01*
X651645Y735319D01*
X751013Y834687D01*
X751676Y835679D01*
X751909Y836850D01*
X751909Y836850D01*
Y870634D01*
X753641Y871352D01*
X755625Y872875D01*
X757148Y874859D01*
X758105Y877170D01*
X758432Y879650D01*
X758105Y882130D01*
X757148Y884441D01*
X755625Y886425D01*
X753641Y887948D01*
X751330Y888905D01*
X748850Y889232D01*
X746370Y888905D01*
X744059Y887948D01*
X742075Y886425D01*
X740552Y884441D01*
X739594Y882130D01*
X739268Y879650D01*
X739594Y877170D01*
X740552Y874859D01*
X742075Y872875D01*
X744059Y871352D01*
X745791Y870634D01*
Y838117D01*
X647319Y739645D01*
X646250Y739858D01*
X644456Y739501D01*
X643359Y740253D01*
X643249Y741423D01*
X725613Y823787D01*
X726276Y824780D01*
X726509Y825950D01*
X726509Y825950D01*
Y870634D01*
X728241Y871352D01*
X730225Y872875D01*
X731748Y874859D01*
X732705Y877170D01*
X733032Y879650D01*
X732705Y882130D01*
X731748Y884441D01*
X730225Y886425D01*
X728241Y887948D01*
X725930Y888905D01*
X723450Y889232D01*
X720970Y888905D01*
X718659Y887948D01*
X716674Y886425D01*
X715152Y884441D01*
X714194Y882130D01*
X713868Y879650D01*
X714194Y877170D01*
X715152Y874859D01*
X716674Y872875D01*
X718659Y871352D01*
X720391Y870634D01*
Y827217D01*
X638569Y745395D01*
X637500Y745608D01*
X635704Y745250D01*
X634572Y746069D01*
X634608Y746250D01*
X634395Y747319D01*
X700213Y813137D01*
X700213Y813137D01*
X700876Y814129D01*
X701109Y815300D01*
X701109Y815300D01*
Y870634D01*
X702841Y871352D01*
X704825Y872875D01*
X706348Y874859D01*
X707305Y877170D01*
X707632Y879650D01*
X707305Y882130D01*
X706348Y884441D01*
X704825Y886425D01*
X702841Y887948D01*
X700530Y888905D01*
X698050Y889232D01*
X695570Y888905D01*
X693259Y887948D01*
X691274Y886425D01*
X689752Y884441D01*
X688794Y882130D01*
X688468Y879650D01*
X688794Y877170D01*
X689752Y874859D01*
X691274Y872875D01*
X693259Y871352D01*
X694991Y870634D01*
Y816567D01*
X630069Y751645D01*
X629000Y751858D01*
X626854Y751431D01*
X626078Y750912D01*
X625162Y751828D01*
X625681Y752604D01*
X626108Y754750D01*
X625895Y755819D01*
X674813Y804737D01*
X675476Y805730D01*
X675709Y806900D01*
Y870150D01*
X682150D01*
Y889150D01*
X663150D01*
Y870150D01*
X669591D01*
Y808167D01*
X621569Y760145D01*
X620500Y760358D01*
X618354Y759931D01*
X617764Y759537D01*
X617420Y759717D01*
X616735Y760377D01*
X617108Y762250D01*
X616895Y763319D01*
X642013Y788437D01*
X642676Y789429D01*
X642909Y790600D01*
Y870634D01*
X644641Y871352D01*
X646626Y872875D01*
X648148Y874859D01*
X649106Y877170D01*
X649432Y879650D01*
X649106Y882130D01*
X648148Y884441D01*
X646626Y886425D01*
X644641Y887948D01*
X642330Y888905D01*
X639850Y889232D01*
X637370Y888905D01*
X635059Y887948D01*
X633075Y886425D01*
X631552Y884441D01*
X630594Y882130D01*
X630268Y879650D01*
X630594Y877170D01*
X631552Y874859D01*
X633075Y872875D01*
X635059Y871352D01*
X636791Y870634D01*
Y791867D01*
X612569Y767645D01*
X611500Y767858D01*
X609819Y767523D01*
X609027Y768623D01*
X609181Y768854D01*
X609608Y771000D01*
X609395Y772069D01*
X616613Y779287D01*
X616613Y779287D01*
X617276Y780279D01*
X617509Y781450D01*
X617509Y781450D01*
Y870634D01*
X619241Y871352D01*
X621226Y872875D01*
X622748Y874859D01*
X623705Y877170D01*
X624032Y879650D01*
X623705Y882130D01*
X622748Y884441D01*
X621226Y886425D01*
X619241Y887948D01*
X616930Y888905D01*
X614450Y889232D01*
X611970Y888905D01*
X609659Y887948D01*
X607675Y886425D01*
X606152Y884441D01*
X605195Y882130D01*
X604868Y879650D01*
X605195Y877170D01*
X606152Y874859D01*
X607675Y872875D01*
X609659Y871352D01*
X611391Y870634D01*
Y782717D01*
X605069Y776395D01*
X604000Y776608D01*
X601854Y776181D01*
X600035Y774965D01*
X598819Y773146D01*
X598392Y771000D01*
X598819Y768854D01*
X600035Y767035D01*
X601854Y765819D01*
X604000Y765392D01*
X605681Y765727D01*
X606473Y764627D01*
X606319Y764396D01*
X605892Y762250D01*
X606319Y760104D01*
X606423Y759949D01*
X605436Y759140D01*
X451059Y913517D01*
Y943429D01*
X451965Y944035D01*
X453181Y945854D01*
X453608Y948000D01*
X453181Y950146D01*
X451965Y951965D01*
X450146Y953181D01*
X448000Y953608D01*
X445854Y953181D01*
X444035Y951965D01*
X442819Y950146D01*
X442392Y948000D01*
X442819Y945854D01*
X444035Y944035D01*
X444941Y943429D01*
Y915637D01*
X443768Y915151D01*
X435059Y923860D01*
Y959679D01*
X435965Y960285D01*
X437181Y962104D01*
X437608Y964250D01*
X437181Y966396D01*
X435965Y968215D01*
X434146Y969431D01*
X432000Y969858D01*
X429854Y969431D01*
X428035Y968215D01*
X426819Y966396D01*
X426392Y964250D01*
X426819Y962104D01*
X428035Y960285D01*
X428941Y959679D01*
Y925294D01*
X427768Y924808D01*
X395913Y956663D01*
X394921Y957326D01*
X393750Y957559D01*
X393750Y957559D01*
X313000D01*
X311829Y957326D01*
X310837Y956663D01*
X310837Y956663D01*
X306819Y952645D01*
X305750Y952858D01*
X303604Y952431D01*
X301785Y951215D01*
X300569Y949396D01*
X300142Y947250D01*
X300569Y945104D01*
X301785Y943285D01*
X303604Y942069D01*
X305750Y941642D01*
X306815Y940559D01*
X306642Y939692D01*
X307069Y937546D01*
X308285Y935727D01*
X310104Y934511D01*
X312250Y934085D01*
X314396Y934511D01*
X316215Y935727D01*
X317431Y937546D01*
X317858Y939692D01*
X317663Y940672D01*
X318517Y941490D01*
X319663Y941137D01*
X319694Y940979D01*
X320910Y939160D01*
X321627Y938681D01*
X321695Y938303D01*
X321533Y937216D01*
X320035Y936215D01*
X318819Y934396D01*
X318392Y932250D01*
X318819Y930104D01*
X318930Y929939D01*
X318331Y928819D01*
X287981D01*
X287215Y929965D01*
X285396Y931181D01*
X283250Y931608D01*
X281104Y931181D01*
X279285Y929965D01*
X278069Y928146D01*
X276809Y928319D01*
Y938750D01*
X276576Y939921D01*
X275913Y940913D01*
X218163Y998663D01*
X217171Y999326D01*
X216000Y999559D01*
D02*
G37*
G36*
X365204Y729878D02*
X351996D01*
X349750Y729583D01*
X347657Y728716D01*
X345860Y727336D01*
X344480Y725539D01*
X343614Y723446D01*
X343318Y721200D01*
X343614Y718954D01*
X344480Y716861D01*
X345860Y715064D01*
X347657Y713684D01*
X349750Y712818D01*
X351996Y712522D01*
X365204D01*
X367450Y712818D01*
X369543Y713684D01*
X371340Y715064D01*
X372720Y716861D01*
X373587Y718954D01*
X373882Y721200D01*
X373587Y723446D01*
X372720Y725539D01*
X371340Y727336D01*
X369543Y728716D01*
X367450Y729583D01*
X365204Y729878D01*
D02*
G37*
G36*
X289004D02*
X275796D01*
X273550Y729583D01*
X271457Y728716D01*
X269660Y727336D01*
X268280Y725539D01*
X267414Y723446D01*
X267118Y721200D01*
X267414Y718954D01*
X268280Y716861D01*
X269660Y715064D01*
X271457Y713684D01*
X273550Y712818D01*
X275796Y712522D01*
X289004D01*
X291250Y712818D01*
X293343Y713684D01*
X295140Y715064D01*
X296520Y716861D01*
X297387Y718954D01*
X297682Y721200D01*
X297387Y723446D01*
X296520Y725539D01*
X295140Y727336D01*
X293343Y728716D01*
X291250Y729583D01*
X289004Y729878D01*
D02*
G37*
G36*
X510500Y724882D02*
X508020Y724555D01*
X505709Y723598D01*
X503725Y722075D01*
X502202Y720091D01*
X501245Y717780D01*
X500918Y715300D01*
X501245Y712820D01*
X502202Y710509D01*
X503725Y708524D01*
X505709Y707002D01*
X508020Y706044D01*
X510500Y705718D01*
X512980Y706044D01*
X515291Y707002D01*
X517275Y708524D01*
X518798Y710509D01*
X519756Y712820D01*
X520082Y715300D01*
X519756Y717780D01*
X518798Y720091D01*
X517275Y722075D01*
X515291Y723598D01*
X512980Y724555D01*
X510500Y724882D01*
D02*
G37*
G36*
X374348Y704944D02*
X359870D01*
Y697070D01*
X374348D01*
Y704944D01*
D02*
G37*
G36*
X357330D02*
X342852D01*
Y697070D01*
X357330D01*
Y704944D01*
D02*
G37*
G36*
X511770Y699859D02*
Y691170D01*
X520459D01*
X520282Y692521D01*
X519270Y694963D01*
X517661Y697061D01*
X515563Y698670D01*
X513121Y699682D01*
X511770Y699859D01*
D02*
G37*
G36*
X509230D02*
X507879Y699682D01*
X505437Y698670D01*
X503339Y697061D01*
X501730Y694963D01*
X500718Y692521D01*
X500541Y691170D01*
X509230D01*
Y699859D01*
D02*
G37*
G36*
X289004Y704478D02*
X275796D01*
X273550Y704183D01*
X271457Y703316D01*
X269660Y701936D01*
X268280Y700139D01*
X267414Y698046D01*
X267118Y695800D01*
X267414Y693554D01*
X268280Y691461D01*
X269660Y689664D01*
X271457Y688284D01*
X273550Y687418D01*
X275796Y687122D01*
X289004D01*
X291250Y687418D01*
X293343Y688284D01*
X295140Y689664D01*
X296520Y691461D01*
X297387Y693554D01*
X297682Y695800D01*
X297387Y698046D01*
X296520Y700139D01*
X295140Y701936D01*
X293343Y703316D01*
X291250Y704183D01*
X289004Y704478D01*
D02*
G37*
G36*
X374348Y694530D02*
X359870D01*
Y686656D01*
X374348D01*
Y694530D01*
D02*
G37*
G36*
X357330D02*
X342852D01*
Y686656D01*
X357330D01*
Y694530D01*
D02*
G37*
G36*
X520459Y688630D02*
X511770D01*
Y679941D01*
X513121Y680118D01*
X515563Y681130D01*
X517661Y682739D01*
X519270Y684837D01*
X520282Y687279D01*
X520459Y688630D01*
D02*
G37*
G36*
X509230D02*
X500541D01*
X500718Y687279D01*
X501730Y684837D01*
X503339Y682739D01*
X505437Y681130D01*
X507879Y680118D01*
X509230Y679941D01*
Y688630D01*
D02*
G37*
G36*
X510500Y674082D02*
X508020Y673755D01*
X505709Y672798D01*
X503725Y671275D01*
X502202Y669291D01*
X501245Y666980D01*
X500918Y664500D01*
X501245Y662020D01*
X502202Y659709D01*
X503725Y657725D01*
X505709Y656202D01*
X508020Y655245D01*
X510500Y654918D01*
X512980Y655245D01*
X515291Y656202D01*
X517275Y657725D01*
X518798Y659709D01*
X519756Y662020D01*
X520082Y664500D01*
X519756Y666980D01*
X518798Y669291D01*
X517275Y671275D01*
X515291Y672798D01*
X512980Y673755D01*
X510500Y674082D01*
D02*
G37*
G36*
X365204Y665878D02*
X351996D01*
X349750Y665583D01*
X347657Y664716D01*
X345860Y663336D01*
X344480Y661539D01*
X343614Y659446D01*
X343318Y657200D01*
X343614Y654954D01*
X344480Y652861D01*
X345860Y651064D01*
X347657Y649684D01*
X349750Y648818D01*
X351996Y648522D01*
X365204D01*
X367450Y648818D01*
X369543Y649684D01*
X371340Y651064D01*
X372720Y652861D01*
X373587Y654954D01*
X373882Y657200D01*
X373587Y659446D01*
X372720Y661539D01*
X371340Y663336D01*
X369543Y664716D01*
X367450Y665583D01*
X365204Y665878D01*
D02*
G37*
G36*
X289004D02*
X275796D01*
X273550Y665583D01*
X271457Y664716D01*
X269660Y663336D01*
X268280Y661539D01*
X267414Y659446D01*
X267118Y657200D01*
X267414Y654954D01*
X268280Y652861D01*
X269660Y651064D01*
X271457Y649684D01*
X273550Y648818D01*
X275796Y648522D01*
X289004D01*
X291250Y648818D01*
X293343Y649684D01*
X295140Y651064D01*
X296520Y652861D01*
X297387Y654954D01*
X297682Y657200D01*
X297387Y659446D01*
X296520Y661539D01*
X295140Y663336D01*
X293343Y664716D01*
X291250Y665583D01*
X289004Y665878D01*
D02*
G37*
G36*
X51202Y667002D02*
X31898D01*
X28856Y666602D01*
X26022Y665428D01*
X23588Y663560D01*
X21720Y661126D01*
X20546Y658292D01*
X20145Y655250D01*
X20546Y652208D01*
X21720Y649374D01*
X23588Y646940D01*
X26022Y645072D01*
X28856Y643898D01*
X31898Y643497D01*
X51202D01*
X54244Y643898D01*
X57078Y645072D01*
X59512Y646940D01*
X61380Y649374D01*
X62554Y652208D01*
X62955Y655250D01*
X62554Y658292D01*
X61380Y661126D01*
X59512Y663560D01*
X57078Y665428D01*
X54244Y666602D01*
X51202Y667002D01*
D02*
G37*
G36*
X374348Y640944D02*
X359870D01*
Y633070D01*
X374348D01*
Y640944D01*
D02*
G37*
G36*
X357330D02*
X342852D01*
Y633070D01*
X357330D01*
Y640944D01*
D02*
G37*
G36*
X289004Y640478D02*
X275796D01*
X273550Y640182D01*
X271457Y639316D01*
X269660Y637936D01*
X268280Y636139D01*
X267414Y634046D01*
X267118Y631800D01*
X267414Y629554D01*
X268280Y627461D01*
X269660Y625664D01*
X271457Y624284D01*
X273550Y623418D01*
X275796Y623122D01*
X289004D01*
X291250Y623418D01*
X293343Y624284D01*
X295140Y625664D01*
X296520Y627461D01*
X297387Y629554D01*
X297682Y631800D01*
X297387Y634046D01*
X296520Y636139D01*
X295140Y637936D01*
X293343Y639316D01*
X291250Y640182D01*
X289004Y640478D01*
D02*
G37*
G36*
X374348Y630530D02*
X359870D01*
Y622656D01*
X374348D01*
Y630530D01*
D02*
G37*
G36*
X357330D02*
X342852D01*
Y622656D01*
X357330D01*
Y630530D01*
D02*
G37*
G36*
X51202Y632002D02*
X31898D01*
X28856Y631602D01*
X26022Y630428D01*
X23588Y628560D01*
X21720Y626126D01*
X20546Y623292D01*
X20145Y620250D01*
X20546Y617208D01*
X21720Y614374D01*
X23588Y611940D01*
X26022Y610072D01*
X28856Y608898D01*
X31898Y608497D01*
X51202D01*
X54244Y608898D01*
X57078Y610072D01*
X59512Y611940D01*
X61380Y614374D01*
X62554Y617208D01*
X62955Y620250D01*
X62554Y623292D01*
X61380Y626126D01*
X59512Y628560D01*
X57078Y630428D01*
X54244Y631602D01*
X51202Y632002D01*
D02*
G37*
G36*
X365204Y601878D02*
X351996D01*
X349750Y601582D01*
X347657Y600716D01*
X345860Y599336D01*
X344480Y597539D01*
X343614Y595446D01*
X343318Y593200D01*
X343614Y590954D01*
X344480Y588861D01*
X345860Y587064D01*
X347657Y585684D01*
X349750Y584818D01*
X351996Y584522D01*
X365204D01*
X367450Y584818D01*
X369543Y585684D01*
X371340Y587064D01*
X372720Y588861D01*
X373587Y590954D01*
X373882Y593200D01*
X373587Y595446D01*
X372720Y597539D01*
X371340Y599336D01*
X369543Y600716D01*
X367450Y601582D01*
X365204Y601878D01*
D02*
G37*
G36*
X289004D02*
X275796D01*
X273550Y601582D01*
X271457Y600716D01*
X269660Y599336D01*
X268280Y597539D01*
X267414Y595446D01*
X267118Y593200D01*
X267414Y590954D01*
X268280Y588861D01*
X269660Y587064D01*
X271457Y585684D01*
X273550Y584818D01*
X275796Y584522D01*
X289004D01*
X291250Y584818D01*
X293343Y585684D01*
X295140Y587064D01*
X296520Y588861D01*
X297387Y590954D01*
X297682Y593200D01*
X297387Y595446D01*
X296520Y597539D01*
X295140Y599336D01*
X293343Y600716D01*
X291250Y601582D01*
X289004Y601878D01*
D02*
G37*
G36*
X51202Y597002D02*
X31898D01*
X28856Y596602D01*
X26022Y595428D01*
X23588Y593560D01*
X21720Y591126D01*
X20546Y588292D01*
X20145Y585250D01*
X20546Y582208D01*
X21720Y579374D01*
X23588Y576940D01*
X26022Y575072D01*
X28856Y573898D01*
X31898Y573497D01*
X51202D01*
X54244Y573898D01*
X57078Y575072D01*
X59512Y576940D01*
X61380Y579374D01*
X62554Y582208D01*
X62955Y585250D01*
X62554Y588292D01*
X61380Y591126D01*
X59512Y593560D01*
X57078Y595428D01*
X54244Y596602D01*
X51202Y597002D01*
D02*
G37*
G36*
X374348Y576944D02*
X359870D01*
Y569070D01*
X374348D01*
Y576944D01*
D02*
G37*
G36*
X357330D02*
X342852D01*
Y569070D01*
X357330D01*
Y576944D01*
D02*
G37*
G36*
X289004Y576478D02*
X275796D01*
X273550Y576183D01*
X271457Y575316D01*
X269660Y573936D01*
X268280Y572139D01*
X267414Y570046D01*
X267118Y567800D01*
X267414Y565554D01*
X268280Y563461D01*
X269660Y561664D01*
X271457Y560284D01*
X273550Y559417D01*
X275796Y559122D01*
X289004D01*
X291250Y559417D01*
X293343Y560284D01*
X295140Y561664D01*
X296520Y563461D01*
X297387Y565554D01*
X297682Y567800D01*
X297387Y570046D01*
X296520Y572139D01*
X295140Y573936D01*
X293343Y575316D01*
X291250Y576183D01*
X289004Y576478D01*
D02*
G37*
G36*
X374348Y566530D02*
X359870D01*
Y558656D01*
X374348D01*
Y566530D01*
D02*
G37*
G36*
X357330D02*
X342852D01*
Y558656D01*
X357330D01*
Y566530D01*
D02*
G37*
G36*
X51202Y562002D02*
X31898D01*
X28856Y561602D01*
X26022Y560428D01*
X23588Y558560D01*
X21720Y556126D01*
X20546Y553292D01*
X20145Y550250D01*
X20546Y547208D01*
X21720Y544374D01*
X23588Y541940D01*
X26022Y540072D01*
X28856Y538898D01*
X31898Y538497D01*
X51202D01*
X54244Y538898D01*
X57078Y540072D01*
X59512Y541940D01*
X61380Y544374D01*
X62554Y547208D01*
X62955Y550250D01*
X62554Y553292D01*
X61380Y556126D01*
X59512Y558560D01*
X57078Y560428D01*
X54244Y561602D01*
X51202Y562002D01*
D02*
G37*
G36*
X365204Y537878D02*
X351996D01*
X349750Y537583D01*
X347657Y536716D01*
X345860Y535336D01*
X344480Y533539D01*
X343614Y531446D01*
X343318Y529200D01*
X343614Y526954D01*
X344480Y524861D01*
X345860Y523064D01*
X347657Y521684D01*
X349750Y520817D01*
X351996Y520522D01*
X365204D01*
X367450Y520817D01*
X369543Y521684D01*
X371340Y523064D01*
X372720Y524861D01*
X373587Y526954D01*
X373882Y529200D01*
X373587Y531446D01*
X372720Y533539D01*
X371340Y535336D01*
X369543Y536716D01*
X367450Y537583D01*
X365204Y537878D01*
D02*
G37*
G36*
X289004D02*
X275796D01*
X273550Y537583D01*
X271457Y536716D01*
X269660Y535336D01*
X268280Y533539D01*
X267414Y531446D01*
X267118Y529200D01*
X267414Y526954D01*
X268280Y524861D01*
X269660Y523064D01*
X271457Y521684D01*
X273550Y520817D01*
X275796Y520522D01*
X289004D01*
X291250Y520817D01*
X293343Y521684D01*
X295140Y523064D01*
X296520Y524861D01*
X297387Y526954D01*
X297682Y529200D01*
X297387Y531446D01*
X296520Y533539D01*
X295140Y535336D01*
X293343Y536716D01*
X291250Y537583D01*
X289004Y537878D01*
D02*
G37*
G36*
X51202Y527547D02*
X42820D01*
Y516520D01*
X63332D01*
X63080Y518433D01*
X61852Y521399D01*
X59897Y523945D01*
X57351Y525900D01*
X54385Y527128D01*
X51202Y527547D01*
D02*
G37*
G36*
X40280D02*
X31898D01*
X28715Y527128D01*
X25749Y525900D01*
X23203Y523945D01*
X21248Y521399D01*
X20020Y518433D01*
X19768Y516520D01*
X40280D01*
Y527547D01*
D02*
G37*
G36*
X374348Y512944D02*
X359870D01*
Y505070D01*
X374348D01*
Y512944D01*
D02*
G37*
G36*
X357330D02*
X342852D01*
Y505070D01*
X357330D01*
Y512944D01*
D02*
G37*
G36*
X63332Y513980D02*
X42820D01*
Y502953D01*
X51202D01*
X54385Y503372D01*
X57351Y504600D01*
X59897Y506554D01*
X61852Y509101D01*
X63080Y512067D01*
X63332Y513980D01*
D02*
G37*
G36*
X40280D02*
X19768D01*
X20020Y512067D01*
X21248Y509101D01*
X23203Y506554D01*
X25749Y504600D01*
X28715Y503372D01*
X31898Y502953D01*
X40280D01*
Y513980D01*
D02*
G37*
G36*
X432500Y684108D02*
X430354Y683681D01*
X428535Y682465D01*
X427319Y680646D01*
X426892Y678500D01*
X427319Y676354D01*
X428535Y674535D01*
X429441Y673929D01*
Y643500D01*
X429441Y643500D01*
X429674Y642329D01*
X430337Y641337D01*
X547337Y524337D01*
X547337Y524337D01*
X548330Y523674D01*
X549500Y523441D01*
X549500Y523441D01*
X575983D01*
X596900Y502524D01*
X596641Y501737D01*
X596319Y501309D01*
X530267D01*
X416395Y615181D01*
X416608Y616250D01*
X416181Y618396D01*
X414965Y620215D01*
X413146Y621431D01*
X411000Y621858D01*
X408854Y621431D01*
X407035Y620215D01*
X405819Y618396D01*
X405392Y616250D01*
X405819Y614104D01*
X407035Y612285D01*
X408854Y611069D01*
X411000Y610642D01*
X412069Y610855D01*
X526837Y496087D01*
X527829Y495424D01*
X529000Y495191D01*
X595233D01*
X599973Y490451D01*
Y488443D01*
X598703Y487808D01*
X597396Y488681D01*
X595250Y489108D01*
X593104Y488681D01*
X591285Y487465D01*
X590679Y486559D01*
X511767D01*
X506413Y491913D01*
X505420Y492576D01*
X504250Y492809D01*
X504250Y492809D01*
X483500D01*
X482329Y492576D01*
X481337Y491913D01*
X481337Y491913D01*
X472569Y483145D01*
X471500Y483358D01*
X469354Y482931D01*
X467535Y481715D01*
X466319Y479896D01*
X465892Y477750D01*
X466319Y475604D01*
X467535Y473785D01*
X469354Y472569D01*
X471500Y472142D01*
X473646Y472569D01*
X475465Y473785D01*
X476681Y475604D01*
X477108Y477750D01*
X476895Y478819D01*
X481537Y483461D01*
X482708Y482836D01*
X482392Y481250D01*
X482819Y479104D01*
X484035Y477285D01*
X485854Y476069D01*
X488000Y475642D01*
X488745Y475790D01*
X497392Y467142D01*
X498474Y466420D01*
X499750Y466166D01*
X591613D01*
X592035Y465535D01*
X593854Y464319D01*
X596000Y463892D01*
X598146Y464319D01*
X599965Y465535D01*
X601181Y467354D01*
X601608Y469500D01*
X601181Y471646D01*
X599965Y473465D01*
X598146Y474681D01*
X596000Y475108D01*
X593854Y474681D01*
X592035Y473465D01*
X591613Y472834D01*
X501131D01*
X493460Y480505D01*
X493608Y481250D01*
X493181Y483396D01*
X491965Y485215D01*
X491657Y485421D01*
X492042Y486691D01*
X502983D01*
X508337Y481337D01*
X508337Y481337D01*
X509329Y480674D01*
X510500Y480441D01*
X510500Y480441D01*
X590679D01*
X591285Y479535D01*
X593104Y478319D01*
X595250Y477892D01*
X597396Y478319D01*
X599215Y479535D01*
X599793Y480399D01*
X599923Y480481D01*
X601410Y480534D01*
X605125Y476819D01*
X604912Y475750D01*
X605339Y473604D01*
X606555Y471785D01*
X608374Y470569D01*
X610011Y470243D01*
X610507Y468943D01*
X593877Y452314D01*
X471373D01*
X413564Y510123D01*
Y550849D01*
X414215Y551285D01*
X415431Y553104D01*
X415858Y555250D01*
X415431Y557396D01*
X414215Y559215D01*
X412396Y560431D01*
X410250Y560858D01*
X408104Y560431D01*
X406285Y559215D01*
X405069Y557396D01*
X404642Y555250D01*
X405069Y553104D01*
X406285Y551285D01*
X406936Y550849D01*
Y508750D01*
X407189Y507482D01*
X407907Y506407D01*
X467657Y446657D01*
X468732Y445939D01*
X470000Y445686D01*
X595250D01*
X596518Y445939D01*
X597593Y446657D01*
X621373Y470436D01*
X624849D01*
X625285Y469785D01*
X627104Y468569D01*
X629250Y468142D01*
X631396Y468569D01*
X632666Y469418D01*
X633936Y468752D01*
Y465666D01*
X632816Y465067D01*
X632646Y465181D01*
X630500Y465608D01*
X628354Y465181D01*
X626535Y463965D01*
X626099Y463314D01*
X617750D01*
X616482Y463061D01*
X615407Y462343D01*
X595127Y442064D01*
X462123D01*
X416705Y487481D01*
X416858Y488250D01*
X416431Y490396D01*
X415215Y492215D01*
X413396Y493431D01*
X411250Y493858D01*
X409104Y493431D01*
X407285Y492215D01*
X406069Y490396D01*
X405642Y488250D01*
X406069Y486104D01*
X407285Y484285D01*
X409104Y483069D01*
X411250Y482642D01*
X412019Y482795D01*
X458407Y436407D01*
X459482Y435689D01*
X460750Y435436D01*
X596500D01*
X597768Y435689D01*
X598843Y436407D01*
X619123Y456686D01*
X626099D01*
X626535Y456035D01*
X628354Y454819D01*
X630500Y454392D01*
X632646Y454819D01*
X632816Y454933D01*
X633936Y454334D01*
Y417850D01*
X468650Y252564D01*
X301123D01*
X286093Y267593D01*
X285018Y268311D01*
X283750Y268564D01*
X276336D01*
X275090Y270186D01*
X273293Y271566D01*
X271200Y272432D01*
X268954Y272728D01*
X255746D01*
X253500Y272432D01*
X251407Y271566D01*
X249610Y270186D01*
X248230Y268389D01*
X247363Y266296D01*
X247068Y264050D01*
X247363Y261804D01*
X248230Y259711D01*
X249610Y257914D01*
X251407Y256534D01*
X253500Y255667D01*
X255746Y255372D01*
X268954D01*
X271200Y255667D01*
X273293Y256534D01*
X275090Y257914D01*
X276470Y259711D01*
X277337Y261804D01*
X277354Y261936D01*
X282377D01*
X297407Y246907D01*
X298482Y246189D01*
X299750Y245936D01*
X466727D01*
X467213Y244763D01*
X435293Y212843D01*
X435293Y212843D01*
X425813Y203364D01*
X276894D01*
X276470Y204389D01*
X275090Y206186D01*
X273293Y207566D01*
X271200Y208433D01*
X268954Y208728D01*
X255746D01*
X253500Y208433D01*
X251407Y207566D01*
X249610Y206186D01*
X248230Y204389D01*
X247363Y202296D01*
X247068Y200050D01*
X247363Y197804D01*
X248230Y195711D01*
X249610Y193914D01*
X251407Y192534D01*
X253500Y191667D01*
X255746Y191372D01*
X268954D01*
X271200Y191667D01*
X273293Y192534D01*
X275090Y193914D01*
X276470Y195711D01*
X276894Y196736D01*
X424437D01*
X424553Y196695D01*
X425479Y195466D01*
X425436Y195250D01*
Y182373D01*
X382427Y139364D01*
X276894D01*
X276470Y140389D01*
X275090Y142186D01*
X273293Y143566D01*
X271200Y144432D01*
X268954Y144728D01*
X255746D01*
X253500Y144432D01*
X251407Y143566D01*
X249610Y142186D01*
X248230Y140389D01*
X247363Y138296D01*
X247068Y136050D01*
X247363Y133804D01*
X248230Y131711D01*
X249610Y129914D01*
X251407Y128534D01*
X253500Y127668D01*
X255746Y127372D01*
X268954D01*
X271200Y127668D01*
X273293Y128534D01*
X275090Y129914D01*
X276470Y131711D01*
X276894Y132736D01*
X383800D01*
X385068Y132989D01*
X386143Y133707D01*
X431093Y178657D01*
X431811Y179732D01*
X432064Y181000D01*
Y193878D01*
X438093Y199907D01*
X614447Y376261D01*
X615662Y375892D01*
X615819Y375104D01*
X617035Y373285D01*
X618854Y372069D01*
X621000Y371642D01*
X622069Y371855D01*
X644941Y348983D01*
Y225571D01*
X644035Y224965D01*
X642819Y223146D01*
X642392Y221000D01*
X642819Y218854D01*
X644035Y217035D01*
X645854Y215819D01*
X648000Y215392D01*
X650146Y215819D01*
X651965Y217035D01*
X653181Y218854D01*
X653608Y221000D01*
X653181Y223146D01*
X651965Y224965D01*
X651059Y225571D01*
Y350250D01*
X651059Y350250D01*
X650826Y351421D01*
X650163Y352413D01*
X650163Y352413D01*
X626395Y376181D01*
X626608Y377250D01*
X626181Y379396D01*
X625661Y380174D01*
X626577Y381090D01*
X628104Y380069D01*
X630250Y379642D01*
X631319Y379855D01*
X703691Y307483D01*
Y223071D01*
X702785Y222465D01*
X701569Y220646D01*
X701142Y218500D01*
X701569Y216354D01*
X702785Y214535D01*
X704604Y213319D01*
X706750Y212892D01*
X708896Y213319D01*
X710715Y214535D01*
X711931Y216354D01*
X712358Y218500D01*
X711931Y220646D01*
X710715Y222465D01*
X709809Y223071D01*
Y308750D01*
X709809Y308750D01*
X709576Y309921D01*
X708913Y310913D01*
X635645Y384181D01*
X635858Y385250D01*
X635512Y386991D01*
X635618Y387185D01*
X636315Y387882D01*
X636509Y387989D01*
X638250Y387642D01*
X639319Y387855D01*
X761941Y265233D01*
Y223571D01*
X761035Y222965D01*
X759819Y221146D01*
X759392Y219000D01*
X759819Y216854D01*
X761035Y215035D01*
X762854Y213819D01*
X765000Y213392D01*
X767146Y213819D01*
X768965Y215035D01*
X770181Y216854D01*
X770608Y219000D01*
X770181Y221146D01*
X768965Y222965D01*
X768059Y223571D01*
Y266500D01*
X768059Y266500D01*
X767826Y267670D01*
X767163Y268663D01*
X767163Y268663D01*
X643645Y392181D01*
X643858Y393250D01*
X643431Y395396D01*
X642215Y397215D01*
X640396Y398431D01*
X638742Y398760D01*
X638238Y400052D01*
X658343Y420157D01*
X659061Y421232D01*
X659314Y422500D01*
Y467849D01*
X659965Y468285D01*
X661181Y470104D01*
X661608Y472250D01*
X661181Y474396D01*
X659965Y476215D01*
X658146Y477431D01*
X656000Y477858D01*
X653854Y477431D01*
X652035Y476215D01*
X650744Y476570D01*
X650431Y478146D01*
X649215Y479965D01*
X647396Y481181D01*
X646814Y481297D01*
X646346Y482685D01*
X646750Y483142D01*
X648896Y483569D01*
X650715Y484785D01*
X651931Y486604D01*
X652358Y488750D01*
X651931Y490896D01*
X650715Y492715D01*
X648896Y493931D01*
X646750Y494358D01*
X644604Y493931D01*
X642785Y492715D01*
X641569Y490896D01*
X641142Y488750D01*
X641295Y487981D01*
X634907Y481593D01*
X634189Y480518D01*
X633936Y479250D01*
Y478748D01*
X632666Y478082D01*
X631396Y478931D01*
X629250Y479358D01*
X627104Y478931D01*
X626176Y478311D01*
X625260Y479226D01*
X626181Y480604D01*
X626608Y482750D01*
X626181Y484896D01*
X624965Y486715D01*
X623146Y487931D01*
X621000Y488358D01*
X619931Y488145D01*
X579413Y528663D01*
X578421Y529326D01*
X577250Y529559D01*
X577250Y529559D01*
X550767D01*
X435559Y644767D01*
Y673929D01*
X436465Y674535D01*
X437681Y676354D01*
X438108Y678500D01*
X437681Y680646D01*
X436465Y682465D01*
X434646Y683681D01*
X432500Y684108D01*
D02*
G37*
G36*
X289004Y512478D02*
X275796D01*
X273550Y512183D01*
X271457Y511316D01*
X269660Y509936D01*
X268280Y508139D01*
X267414Y506046D01*
X267118Y503800D01*
X267414Y501554D01*
X268280Y499461D01*
X269660Y497664D01*
X271457Y496284D01*
X273550Y495418D01*
X275796Y495122D01*
X289004D01*
X291250Y495418D01*
X293343Y496284D01*
X295140Y497664D01*
X296520Y499461D01*
X297387Y501554D01*
X297682Y503800D01*
X297387Y506046D01*
X296520Y508139D01*
X295140Y509936D01*
X293343Y511316D01*
X291250Y512183D01*
X289004Y512478D01*
D02*
G37*
G36*
X374348Y502530D02*
X359870D01*
Y494656D01*
X374348D01*
Y502530D01*
D02*
G37*
G36*
X357330D02*
X342852D01*
Y494656D01*
X357330D01*
Y502530D01*
D02*
G37*
G36*
X51202Y457547D02*
X42820D01*
Y446520D01*
X63332D01*
X63080Y448433D01*
X61852Y451399D01*
X59897Y453945D01*
X57351Y455900D01*
X54385Y457128D01*
X51202Y457547D01*
D02*
G37*
G36*
X40280D02*
X31898D01*
X28715Y457128D01*
X25749Y455900D01*
X23203Y453945D01*
X21248Y451399D01*
X20020Y448433D01*
X19768Y446520D01*
X40280D01*
Y457547D01*
D02*
G37*
G36*
X63332Y443980D02*
X42820D01*
Y432953D01*
X51202D01*
X54385Y433372D01*
X57351Y434600D01*
X59897Y436554D01*
X61852Y439101D01*
X63080Y442067D01*
X63332Y443980D01*
D02*
G37*
G36*
X40280D02*
X19768D01*
X20020Y442067D01*
X21248Y439101D01*
X23203Y436554D01*
X25749Y434600D01*
X28715Y433372D01*
X31898Y432953D01*
X40280D01*
Y443980D01*
D02*
G37*
G36*
X51202Y422002D02*
X31898D01*
X28856Y421602D01*
X26022Y420428D01*
X23588Y418560D01*
X21720Y416126D01*
X20546Y413292D01*
X20145Y410250D01*
X20546Y407208D01*
X21720Y404374D01*
X23588Y401940D01*
X26022Y400072D01*
X28856Y398898D01*
X31898Y398498D01*
X51202D01*
X54244Y398898D01*
X57078Y400072D01*
X59512Y401940D01*
X61380Y404374D01*
X62554Y407208D01*
X62955Y410250D01*
X62554Y413292D01*
X61380Y416126D01*
X59512Y418560D01*
X57078Y420428D01*
X54244Y421602D01*
X51202Y422002D01*
D02*
G37*
G36*
X521500Y393858D02*
X519354Y393431D01*
X517535Y392215D01*
X516319Y390396D01*
X515892Y388250D01*
X516105Y387181D01*
X502837Y373913D01*
X502174Y372920D01*
X501941Y371750D01*
X501941Y371750D01*
Y307571D01*
X501035Y306965D01*
X499819Y305146D01*
X499392Y303000D01*
X499819Y300854D01*
X501035Y299035D01*
X502854Y297819D01*
X505000Y297392D01*
X507146Y297819D01*
X508965Y299035D01*
X510181Y300854D01*
X510608Y303000D01*
X510181Y305146D01*
X508965Y306965D01*
X508059Y307571D01*
Y370483D01*
X520431Y382855D01*
X521500Y382642D01*
X523646Y383069D01*
X525465Y384285D01*
X526681Y386104D01*
X527108Y388250D01*
X526681Y390396D01*
X525465Y392215D01*
X523646Y393431D01*
X521500Y393858D01*
D02*
G37*
G36*
X422000Y443810D02*
X420173Y443570D01*
X418470Y442864D01*
X417007Y441742D01*
X415886Y440280D01*
X415180Y438577D01*
X414940Y436750D01*
X415180Y434923D01*
X415886Y433220D01*
X416940Y431846D01*
Y371619D01*
X415670Y371163D01*
X414146Y372181D01*
X412000Y372608D01*
X410931Y372395D01*
X392163Y391163D01*
X391171Y391826D01*
X390000Y392059D01*
X390000Y392059D01*
X249767D01*
X246809Y395017D01*
Y421012D01*
X247965Y421785D01*
X249181Y423604D01*
X249608Y425750D01*
X249181Y427896D01*
X247965Y429715D01*
X246146Y430931D01*
X244000Y431358D01*
X241854Y430931D01*
X240035Y429715D01*
X238819Y427896D01*
X238392Y425750D01*
X238819Y423604D01*
X240035Y421785D01*
X240691Y421346D01*
Y393750D01*
X240691Y393750D01*
X240924Y392579D01*
X241587Y391587D01*
X246337Y386837D01*
X246337Y386837D01*
X247330Y386174D01*
X248500Y385941D01*
X369523D01*
X370189Y384671D01*
X369775Y384071D01*
X238255D01*
X233309Y389017D01*
Y420929D01*
X234215Y421535D01*
X235431Y423354D01*
X235858Y425500D01*
X235431Y427646D01*
X234215Y429465D01*
X232396Y430681D01*
X230250Y431108D01*
X228104Y430681D01*
X226285Y429465D01*
X225069Y427646D01*
X224642Y425500D01*
X225069Y423354D01*
X226285Y421535D01*
X227191Y420929D01*
Y387750D01*
X227191Y387750D01*
X227424Y386580D01*
X228087Y385587D01*
X234825Y378849D01*
X234825Y378849D01*
X235817Y378186D01*
X236988Y377953D01*
X370415D01*
X371021Y377047D01*
X372840Y375831D01*
X374986Y375404D01*
X377132Y375831D01*
X378952Y377047D01*
X380167Y378866D01*
X380594Y381012D01*
X380167Y383158D01*
X379156Y384671D01*
X379621Y385941D01*
X388733D01*
X406605Y368069D01*
X406392Y367000D01*
X406819Y364854D01*
X408035Y363035D01*
X409854Y361819D01*
X412000Y361392D01*
X414146Y361819D01*
X415670Y362837D01*
X416940Y362381D01*
Y275865D01*
X417180Y274037D01*
X417886Y272334D01*
X419007Y270872D01*
X422522Y267358D01*
X423984Y266236D01*
X425687Y265530D01*
X427515Y265290D01*
X429750D01*
Y262350D01*
X449750D01*
Y282350D01*
X431060D01*
Y290672D01*
X432263Y291080D01*
X432618Y290618D01*
X434707Y289015D01*
X437140Y288007D01*
X439750Y287664D01*
X442360Y288007D01*
X444793Y289015D01*
X446882Y290618D01*
X448485Y292707D01*
X449493Y295140D01*
X449836Y297750D01*
X449493Y300361D01*
X448485Y302793D01*
X446882Y304882D01*
X444793Y306485D01*
X442360Y307493D01*
X439750Y307836D01*
X437140Y307493D01*
X434707Y306485D01*
X432618Y304882D01*
X432263Y304419D01*
X431060Y304828D01*
Y315235D01*
X431609Y315421D01*
X432330Y315558D01*
X434435Y313943D01*
X436998Y312881D01*
X438480Y312686D01*
Y323150D01*
Y333614D01*
X436998Y333419D01*
X434435Y332357D01*
X432330Y330742D01*
X431609Y330879D01*
X431060Y331065D01*
Y434750D01*
X430820Y436577D01*
X430115Y438280D01*
X428992Y439743D01*
X426992Y441742D01*
X425530Y442864D01*
X423827Y443570D01*
X422000Y443810D01*
D02*
G37*
G36*
X51202Y387002D02*
X31898D01*
X28856Y386602D01*
X26022Y385428D01*
X23588Y383560D01*
X21720Y381126D01*
X20546Y378292D01*
X20145Y375250D01*
X20546Y372208D01*
X21720Y369374D01*
X23588Y366940D01*
X26022Y365072D01*
X28856Y363898D01*
X31898Y363497D01*
X51202D01*
X54244Y363898D01*
X57078Y365072D01*
X59512Y366940D01*
X61380Y369374D01*
X62554Y372208D01*
X62955Y375250D01*
X62554Y378292D01*
X61380Y381126D01*
X59512Y383560D01*
X57078Y385428D01*
X54244Y386602D01*
X51202Y387002D01*
D02*
G37*
G36*
X351250Y341108D02*
X349104Y340681D01*
X347285Y339465D01*
X346679Y338559D01*
X235692D01*
X234522Y338326D01*
X233529Y337663D01*
X232230Y336363D01*
X231000Y336608D01*
X228854Y336181D01*
X227035Y334965D01*
X225819Y333146D01*
X225392Y331000D01*
X225819Y328854D01*
X227035Y327035D01*
X228854Y325819D01*
X231000Y325392D01*
X233146Y325819D01*
X234965Y327035D01*
X236181Y328854D01*
X236608Y331000D01*
X236539Y331345D01*
X237482Y332441D01*
X346679D01*
X347285Y331535D01*
X349104Y330319D01*
X351250Y329892D01*
X353396Y330319D01*
X355215Y331535D01*
X356431Y333354D01*
X356858Y335500D01*
X356431Y337646D01*
X355215Y339465D01*
X353396Y340681D01*
X351250Y341108D01*
D02*
G37*
G36*
X51202Y352002D02*
X31898D01*
X28856Y351602D01*
X26022Y350428D01*
X23588Y348560D01*
X21720Y346126D01*
X20546Y343292D01*
X20145Y340250D01*
X20546Y337208D01*
X21720Y334374D01*
X23588Y331940D01*
X26022Y330072D01*
X28856Y328898D01*
X31898Y328498D01*
X51202D01*
X54244Y328898D01*
X57078Y330072D01*
X59512Y331940D01*
X61380Y334374D01*
X62554Y337208D01*
X62955Y340250D01*
X62554Y343292D01*
X61380Y346126D01*
X59512Y348560D01*
X57078Y350428D01*
X54244Y351602D01*
X51202Y352002D01*
D02*
G37*
G36*
X441020Y333614D02*
Y324420D01*
X450214D01*
X450019Y325901D01*
X448957Y328465D01*
X447267Y330667D01*
X445065Y332357D01*
X442501Y333419D01*
X441020Y333614D01*
D02*
G37*
G36*
X450214Y321880D02*
X441020D01*
Y312686D01*
X442501Y312881D01*
X445065Y313943D01*
X447267Y315633D01*
X448957Y317834D01*
X450019Y320398D01*
X450214Y321880D01*
D02*
G37*
G36*
X996270Y319705D02*
Y311520D01*
X1004455D01*
X1004294Y312740D01*
X1003333Y315061D01*
X1001804Y317054D01*
X999811Y318583D01*
X997490Y319544D01*
X996270Y319705D01*
D02*
G37*
G36*
X993730Y319705D02*
X992510Y319544D01*
X990189Y318583D01*
X988196Y317054D01*
X986667Y315061D01*
X985705Y312740D01*
X985545Y311520D01*
X993730D01*
Y319705D01*
D02*
G37*
G36*
X1054000Y319250D02*
X1036000D01*
Y301250D01*
X1054000D01*
Y319250D01*
D02*
G37*
G36*
X993730Y308980D02*
X985545D01*
X985705Y307759D01*
X986667Y305439D01*
X988196Y303446D01*
X990189Y301917D01*
X992510Y300956D01*
X993730Y300795D01*
Y308980D01*
D02*
G37*
G36*
X1004455D02*
X996270D01*
Y300795D01*
X997490Y300956D01*
X999811Y301917D01*
X1001804Y303446D01*
X1003333Y305439D01*
X1004294Y307759D01*
X1004455Y308980D01*
D02*
G37*
G36*
X489000Y397358D02*
X486854Y396931D01*
X485035Y395715D01*
X483819Y393896D01*
X483392Y391750D01*
X483819Y389604D01*
X485035Y387785D01*
X485941Y387179D01*
Y304321D01*
X485035Y303715D01*
X483819Y301896D01*
X483392Y299750D01*
X483819Y297604D01*
X485035Y295785D01*
X486854Y294569D01*
X489000Y294142D01*
X491146Y294569D01*
X492965Y295785D01*
X494181Y297604D01*
X494608Y299750D01*
X494181Y301896D01*
X492965Y303715D01*
X492059Y304321D01*
Y387179D01*
X492965Y387785D01*
X494181Y389604D01*
X494608Y391750D01*
X494181Y393896D01*
X492965Y395715D01*
X491146Y396931D01*
X489000Y397358D01*
D02*
G37*
G36*
X51202Y317003D02*
X31898D01*
X28856Y316602D01*
X26022Y315428D01*
X23588Y313560D01*
X21720Y311126D01*
X20546Y308292D01*
X20145Y305250D01*
X20546Y302208D01*
X21720Y299374D01*
X23588Y296940D01*
X26022Y295072D01*
X28856Y293898D01*
X31898Y293498D01*
X51202D01*
X54244Y293898D01*
X57078Y295072D01*
X59512Y296940D01*
X61380Y299374D01*
X62554Y302208D01*
X62955Y305250D01*
X62554Y308292D01*
X61380Y311126D01*
X59512Y313560D01*
X57078Y315428D01*
X54244Y316602D01*
X51202Y317003D01*
D02*
G37*
G36*
X475250Y397608D02*
X473104Y397181D01*
X471285Y395965D01*
X470069Y394146D01*
X469642Y392000D01*
X470069Y389854D01*
X471285Y388035D01*
X472191Y387429D01*
Y303071D01*
X471285Y302465D01*
X470069Y300646D01*
X469642Y298500D01*
X470069Y296354D01*
X471285Y294535D01*
X473104Y293319D01*
X475250Y292892D01*
X477396Y293319D01*
X479215Y294535D01*
X480431Y296354D01*
X480858Y298500D01*
X480431Y300646D01*
X479215Y302465D01*
X478309Y303071D01*
Y387429D01*
X479215Y388035D01*
X480431Y389854D01*
X480858Y392000D01*
X480431Y394146D01*
X479215Y395965D01*
X477396Y397181D01*
X475250Y397608D01*
D02*
G37*
G36*
X201358Y298054D02*
X170942D01*
Y280846D01*
X201358D01*
Y298054D01*
D02*
G37*
G36*
X268954Y298128D02*
X255746D01*
X253500Y297833D01*
X251407Y296966D01*
X249610Y295586D01*
X248230Y293789D01*
X247363Y291696D01*
X247068Y289450D01*
X247363Y287204D01*
X248230Y285111D01*
X249610Y283314D01*
X251407Y281934D01*
X253500Y281068D01*
X255746Y280772D01*
X268954D01*
X271200Y281068D01*
X273293Y281934D01*
X275090Y283314D01*
X276470Y285111D01*
X277337Y287204D01*
X277632Y289450D01*
X277337Y291696D01*
X276470Y293789D01*
X275090Y295586D01*
X273293Y296966D01*
X271200Y297833D01*
X268954Y298128D01*
D02*
G37*
G36*
X51202Y282003D02*
X31898D01*
X28856Y281602D01*
X26022Y280428D01*
X23588Y278560D01*
X21720Y276126D01*
X20546Y273292D01*
X20145Y270250D01*
X20546Y267208D01*
X21720Y264374D01*
X23588Y261940D01*
X26022Y260072D01*
X28856Y258898D01*
X31898Y258498D01*
X51202D01*
X54244Y258898D01*
X57078Y260072D01*
X59512Y261940D01*
X61380Y264374D01*
X62554Y267208D01*
X62955Y270250D01*
X62554Y273292D01*
X61380Y276126D01*
X59512Y278560D01*
X57078Y280428D01*
X54244Y281602D01*
X51202Y282003D01*
D02*
G37*
G36*
X192754Y272728D02*
X179546D01*
X177300Y272432D01*
X175207Y271566D01*
X173410Y270186D01*
X172030Y268389D01*
X171164Y266296D01*
X170868Y264050D01*
X171164Y261804D01*
X172030Y259711D01*
X173410Y257914D01*
X175207Y256534D01*
X177300Y255667D01*
X179546Y255372D01*
X192754D01*
X195000Y255667D01*
X197093Y256534D01*
X198890Y257914D01*
X200270Y259711D01*
X201136Y261804D01*
X201432Y264050D01*
X201136Y266296D01*
X200270Y268389D01*
X198890Y270186D01*
X197093Y271566D01*
X195000Y272432D01*
X192754Y272728D01*
D02*
G37*
G36*
X825500Y261836D02*
X822889Y261493D01*
X820457Y260485D01*
X818368Y258882D01*
X816765Y256793D01*
X815757Y254361D01*
X815414Y251750D01*
X815757Y249139D01*
X816765Y246707D01*
X818368Y244618D01*
X820457Y243015D01*
X822889Y242007D01*
X825500Y241664D01*
X828111Y242007D01*
X830543Y243015D01*
X832632Y244618D01*
X834235Y246707D01*
X835243Y249139D01*
X835586Y251750D01*
X835243Y254361D01*
X834235Y256793D01*
X832632Y258882D01*
X830543Y260485D01*
X828111Y261493D01*
X825500Y261836D01*
D02*
G37*
G36*
X800100D02*
X797489Y261493D01*
X795057Y260485D01*
X792968Y258882D01*
X791365Y256793D01*
X790357Y254361D01*
X790014Y251750D01*
X790357Y249139D01*
X791365Y246707D01*
X792968Y244618D01*
X795057Y243015D01*
X797489Y242007D01*
X800100Y241664D01*
X802710Y242007D01*
X805143Y243015D01*
X807232Y244618D01*
X808835Y246707D01*
X809843Y249139D01*
X810186Y251750D01*
X809843Y254361D01*
X808835Y256793D01*
X807232Y258882D01*
X805143Y260485D01*
X802710Y261493D01*
X800100Y261836D01*
D02*
G37*
G36*
X572500Y247150D02*
X553500D01*
Y228150D01*
X572500D01*
Y247150D01*
D02*
G37*
G36*
X51202Y247003D02*
X31898D01*
X28856Y246602D01*
X26022Y245428D01*
X23588Y243560D01*
X21720Y241126D01*
X20546Y238292D01*
X20145Y235250D01*
X20546Y232208D01*
X21720Y229374D01*
X23588Y226940D01*
X26022Y225072D01*
X28856Y223898D01*
X31898Y223498D01*
X51202D01*
X54244Y223898D01*
X57078Y225072D01*
X59512Y226940D01*
X61380Y229374D01*
X62554Y232208D01*
X62955Y235250D01*
X62554Y238292D01*
X61380Y241126D01*
X59512Y243560D01*
X57078Y245428D01*
X54244Y246602D01*
X51202Y247003D01*
D02*
G37*
G36*
X201358Y234054D02*
X170942D01*
Y216846D01*
X201358D01*
Y234054D01*
D02*
G37*
G36*
X268954Y234128D02*
X255746D01*
X253500Y233832D01*
X251407Y232966D01*
X249610Y231586D01*
X248230Y229789D01*
X247363Y227696D01*
X247068Y225450D01*
X247363Y223204D01*
X248230Y221111D01*
X249610Y219314D01*
X251407Y217934D01*
X253500Y217068D01*
X255746Y216772D01*
X268954D01*
X271200Y217068D01*
X273293Y217934D01*
X275090Y219314D01*
X276470Y221111D01*
X277337Y223204D01*
X277632Y225450D01*
X277337Y227696D01*
X276470Y229789D01*
X275090Y231586D01*
X273293Y232966D01*
X271200Y233832D01*
X268954Y234128D01*
D02*
G37*
G36*
X564270Y222209D02*
Y213520D01*
X572959D01*
X572782Y214871D01*
X571770Y217313D01*
X570161Y219411D01*
X568063Y221020D01*
X565621Y222032D01*
X564270Y222209D01*
D02*
G37*
G36*
X561730D02*
X560379Y222032D01*
X557937Y221020D01*
X555839Y219411D01*
X554230Y217313D01*
X553218Y214871D01*
X553041Y213520D01*
X561730D01*
Y222209D01*
D02*
G37*
G36*
Y210980D02*
X553041D01*
X553218Y209629D01*
X554230Y207187D01*
X555839Y205089D01*
X557937Y203480D01*
X560379Y202468D01*
X561730Y202291D01*
Y210980D01*
D02*
G37*
G36*
X572959D02*
X564270D01*
Y202291D01*
X565621Y202468D01*
X568063Y203480D01*
X570161Y205089D01*
X571770Y207187D01*
X572782Y209629D01*
X572959Y210980D01*
D02*
G37*
G36*
X787500Y774539D02*
X725750D01*
X724970Y774384D01*
X724308Y773942D01*
X723866Y773280D01*
X723711Y772500D01*
Y731000D01*
X723866Y730220D01*
X724308Y729558D01*
X724970Y729116D01*
X725750Y728961D01*
X752662D01*
Y580500D01*
X753011Y578744D01*
X754006Y577256D01*
X846312Y484949D01*
Y261750D01*
X840900D01*
Y248239D01*
X786249Y193588D01*
X641650D01*
X591088Y244151D01*
Y297099D01*
X627600Y333611D01*
X628646Y333819D01*
X630465Y335035D01*
X631681Y336854D01*
X632108Y339000D01*
X631681Y341146D01*
X630465Y342965D01*
X628646Y344181D01*
X626500Y344608D01*
X624354Y344181D01*
X622535Y342965D01*
X621319Y341146D01*
X621111Y340100D01*
X584599Y303588D01*
X554033D01*
X553146Y304181D01*
X551000Y304608D01*
X548854Y304181D01*
X547035Y302965D01*
X545819Y301146D01*
X545392Y299000D01*
X545819Y296854D01*
X547035Y295035D01*
X548854Y293819D01*
X551000Y293392D01*
X553146Y293819D01*
X554033Y294412D01*
X581912D01*
Y242250D01*
X582261Y240494D01*
X583256Y239006D01*
X636506Y185756D01*
X637994Y184761D01*
X639750Y184412D01*
X788150D01*
X789906Y184761D01*
X791394Y185756D01*
X847389Y241750D01*
X860900D01*
Y261750D01*
X855488D01*
Y486850D01*
X855139Y488606D01*
X854144Y490094D01*
X761838Y582401D01*
Y728961D01*
X787500D01*
X788280Y729116D01*
X788942Y729558D01*
X789384Y730220D01*
X789539Y731000D01*
Y772500D01*
X789384Y773280D01*
X788942Y773942D01*
X788280Y774384D01*
X787500Y774539D01*
D02*
G37*
G36*
X192754Y208728D02*
X179546D01*
X177300Y208433D01*
X175207Y207566D01*
X173410Y206186D01*
X172030Y204389D01*
X171164Y202296D01*
X170868Y200050D01*
X171164Y197804D01*
X172030Y195711D01*
X173410Y193914D01*
X175207Y192534D01*
X177300Y191667D01*
X179546Y191372D01*
X192754D01*
X195000Y191667D01*
X197093Y192534D01*
X198890Y193914D01*
X200270Y195711D01*
X201136Y197804D01*
X201432Y200050D01*
X201136Y202296D01*
X200270Y204389D01*
X198890Y206186D01*
X197093Y207566D01*
X195000Y208433D01*
X192754Y208728D01*
D02*
G37*
G36*
X51202Y212003D02*
X31898D01*
X28856Y211602D01*
X26022Y210428D01*
X23588Y208560D01*
X21720Y206126D01*
X20546Y203292D01*
X20145Y200250D01*
X20546Y197208D01*
X21720Y194374D01*
X23588Y191940D01*
X26022Y190072D01*
X28856Y188898D01*
X31898Y188498D01*
X51202D01*
X54244Y188898D01*
X57078Y190072D01*
X59512Y191940D01*
X61380Y194374D01*
X62554Y197208D01*
X62955Y200250D01*
X62554Y203292D01*
X61380Y206126D01*
X59512Y208560D01*
X57078Y210428D01*
X54244Y211602D01*
X51202Y212003D01*
D02*
G37*
G36*
X563000Y196432D02*
X560520Y196105D01*
X558209Y195148D01*
X556225Y193625D01*
X554702Y191641D01*
X553745Y189330D01*
X553418Y186850D01*
X553745Y184370D01*
X554702Y182059D01*
X556225Y180075D01*
X558209Y178552D01*
X560520Y177595D01*
X563000Y177268D01*
X565480Y177595D01*
X567791Y178552D01*
X569775Y180075D01*
X571298Y182059D01*
X572255Y184370D01*
X572582Y186850D01*
X572255Y189330D01*
X571298Y191641D01*
X569775Y193625D01*
X567791Y195148D01*
X565480Y196105D01*
X563000Y196432D01*
D02*
G37*
G36*
X51202Y177003D02*
X31898D01*
X28856Y176602D01*
X26022Y175428D01*
X23588Y173560D01*
X21720Y171126D01*
X20546Y168292D01*
X20145Y165250D01*
X20546Y162208D01*
X21720Y159374D01*
X23588Y156940D01*
X26022Y155072D01*
X28856Y153898D01*
X31898Y153497D01*
X51202D01*
X54244Y153898D01*
X57078Y155072D01*
X59512Y156940D01*
X61380Y159374D01*
X62554Y162208D01*
X62955Y165250D01*
X62554Y168292D01*
X61380Y171126D01*
X59512Y173560D01*
X57078Y175428D01*
X54244Y176602D01*
X51202Y177003D01*
D02*
G37*
G36*
X201358Y170054D02*
X170942D01*
Y152846D01*
X201358D01*
Y170054D01*
D02*
G37*
G36*
X268954Y170128D02*
X255746D01*
X253500Y169832D01*
X251407Y168966D01*
X249610Y167586D01*
X248230Y165789D01*
X247363Y163696D01*
X247068Y161450D01*
X247363Y159204D01*
X248230Y157111D01*
X249610Y155314D01*
X251407Y153934D01*
X253500Y153068D01*
X255746Y152772D01*
X268954D01*
X271200Y153068D01*
X273293Y153934D01*
X275090Y155314D01*
X276470Y157111D01*
X277337Y159204D01*
X277632Y161450D01*
X277337Y163696D01*
X276470Y165789D01*
X275090Y167586D01*
X273293Y168966D01*
X271200Y169832D01*
X268954Y170128D01*
D02*
G37*
G36*
X563000Y171032D02*
X560520Y170705D01*
X558209Y169748D01*
X556225Y168225D01*
X554702Y166241D01*
X553745Y163930D01*
X553418Y161450D01*
X553745Y158970D01*
X554702Y156659D01*
X556225Y154675D01*
X558209Y153152D01*
X560520Y152194D01*
X563000Y151868D01*
X565480Y152194D01*
X567791Y153152D01*
X569775Y154675D01*
X571298Y156659D01*
X572255Y158970D01*
X572582Y161450D01*
X572255Y163930D01*
X571298Y166241D01*
X569775Y168225D01*
X567791Y169748D01*
X565480Y170705D01*
X563000Y171032D01*
D02*
G37*
G36*
X192754Y144728D02*
X179546D01*
X177300Y144432D01*
X175207Y143566D01*
X173410Y142186D01*
X172030Y140389D01*
X171164Y138296D01*
X170868Y136050D01*
X171164Y133804D01*
X172030Y131711D01*
X173410Y129914D01*
X175207Y128534D01*
X177300Y127668D01*
X179546Y127372D01*
X192754D01*
X195000Y127668D01*
X197093Y128534D01*
X198890Y129914D01*
X200270Y131711D01*
X201136Y133804D01*
X201432Y136050D01*
X201136Y138296D01*
X200270Y140389D01*
X198890Y142186D01*
X197093Y143566D01*
X195000Y144432D01*
X192754Y144728D01*
D02*
G37*
G36*
X51202Y142002D02*
X31898D01*
X28856Y141602D01*
X26022Y140428D01*
X23588Y138560D01*
X21720Y136126D01*
X20546Y133292D01*
X20145Y130250D01*
X20546Y127208D01*
X21720Y124374D01*
X23588Y121940D01*
X26022Y120072D01*
X28856Y118898D01*
X31898Y118497D01*
X51202D01*
X54244Y118898D01*
X57078Y120072D01*
X59512Y121940D01*
X61380Y124374D01*
X62554Y127208D01*
X62955Y130250D01*
X62554Y133292D01*
X61380Y136126D01*
X59512Y138560D01*
X57078Y140428D01*
X54244Y141602D01*
X51202Y142002D01*
D02*
G37*
G36*
X1031000Y875289D02*
X969250D01*
X968470Y875134D01*
X967808Y874692D01*
X967366Y874030D01*
X967211Y873250D01*
Y831750D01*
X967366Y830970D01*
X967808Y830308D01*
X968076Y830129D01*
X968371Y828896D01*
X968340Y828597D01*
X882508Y742765D01*
X881385Y741302D01*
X880680Y739599D01*
X880440Y737772D01*
Y230175D01*
X749576Y99310D01*
X609725D01*
X572521Y136514D01*
X572255Y138530D01*
X571298Y140841D01*
X569775Y142825D01*
X567791Y144348D01*
X565480Y145305D01*
X563000Y145632D01*
X560520Y145305D01*
X558209Y144348D01*
X556225Y142825D01*
X554702Y140841D01*
X553745Y138530D01*
X553418Y136050D01*
X553745Y133570D01*
X554040Y132857D01*
X511011Y89828D01*
X155439D01*
X132828Y112439D01*
Y409811D01*
X196384Y473366D01*
X196384Y473366D01*
X197268Y474689D01*
X197578Y476250D01*
Y541204D01*
X198681Y542854D01*
X199108Y545000D01*
X198681Y547146D01*
X197703Y548609D01*
Y594777D01*
X197715Y594785D01*
X198931Y596604D01*
X199358Y598750D01*
X198931Y600896D01*
X197715Y602715D01*
X195896Y603931D01*
X194963Y604116D01*
X194828Y604251D01*
Y648954D01*
X195931Y650604D01*
X196358Y652750D01*
X196250Y653294D01*
X196634Y653678D01*
X196634Y653678D01*
X197518Y655001D01*
X197828Y656562D01*
X197828Y656562D01*
Y703454D01*
X198931Y705104D01*
X199358Y707250D01*
X198931Y709396D01*
X197715Y711215D01*
X195896Y712431D01*
X193750Y712858D01*
X191604Y712431D01*
X189785Y711215D01*
X188569Y709396D01*
X188142Y707250D01*
X188569Y705104D01*
X189672Y703454D01*
Y658251D01*
X189537Y658116D01*
X188604Y657931D01*
X186785Y656715D01*
X185569Y654896D01*
X185142Y652750D01*
X185569Y650604D01*
X186672Y648954D01*
Y602562D01*
X186672Y602562D01*
X186982Y601001D01*
X187866Y599678D01*
X188250Y599294D01*
X188142Y598750D01*
X188569Y596604D01*
X189547Y595141D01*
Y548973D01*
X189535Y548965D01*
X188319Y547146D01*
X187892Y545000D01*
X188319Y542854D01*
X189422Y541204D01*
Y477939D01*
X125866Y414384D01*
X124982Y413061D01*
X124672Y411500D01*
X124672Y411500D01*
Y110750D01*
X124672Y110750D01*
X124982Y109189D01*
X125866Y107866D01*
X150866Y82866D01*
X150866Y82866D01*
X152189Y81982D01*
X153750Y81672D01*
X153750Y81672D01*
X512700D01*
X512700Y81672D01*
X514261Y81982D01*
X515584Y82866D01*
X559807Y127090D01*
X560520Y126795D01*
X562536Y126529D01*
X601808Y87258D01*
X603270Y86136D01*
X604973Y85430D01*
X606800Y85190D01*
X752500D01*
X754327Y85430D01*
X756030Y86136D01*
X757493Y87258D01*
X892492Y222257D01*
X893615Y223720D01*
X894320Y225423D01*
X894560Y227250D01*
Y734848D01*
X989424Y829711D01*
X1031000D01*
X1031780Y829866D01*
X1032442Y830308D01*
X1032884Y830970D01*
X1033039Y831750D01*
Y873250D01*
X1032884Y874030D01*
X1032442Y874692D01*
X1031780Y875134D01*
X1031000Y875289D01*
D02*
G37*
G36*
X79284Y492354D02*
X41550D01*
X38884Y492002D01*
X31898D01*
X28856Y491602D01*
X26022Y490428D01*
X23588Y488560D01*
X21720Y486126D01*
X20546Y483292D01*
X20145Y480250D01*
X20546Y477208D01*
X21720Y474374D01*
X23588Y471940D01*
X26022Y470072D01*
X28856Y468898D01*
X31898Y468497D01*
X38884D01*
X41550Y468146D01*
X74271D01*
X77896Y464521D01*
Y70216D01*
X78309Y67083D01*
X79518Y64164D01*
X81441Y61657D01*
X87885Y55214D01*
X90392Y53290D01*
X93311Y52081D01*
X96444Y51669D01*
X1007022D01*
X1010155Y52081D01*
X1013074Y53290D01*
X1015581Y55214D01*
X1035309Y74942D01*
X1037232Y77448D01*
X1038441Y80367D01*
X1038854Y83500D01*
Y119211D01*
X1070250D01*
X1071030Y119366D01*
X1071692Y119808D01*
X1072134Y120470D01*
X1072289Y121250D01*
Y187500D01*
X1072134Y188280D01*
X1071692Y188942D01*
X1071030Y189384D01*
X1070250Y189539D01*
X982250D01*
X981470Y189384D01*
X980808Y188942D01*
X980366Y188280D01*
X980211Y187500D01*
Y121250D01*
X980366Y120470D01*
X980808Y119808D01*
X981470Y119366D01*
X982250Y119211D01*
X1014646D01*
Y88513D01*
X1002009Y75876D01*
X102104D01*
Y469534D01*
X101691Y472667D01*
X100482Y475586D01*
X98559Y478093D01*
X87843Y488809D01*
X85336Y490732D01*
X82417Y491941D01*
X79284Y492354D01*
D02*
G37*
%LPD*%
G36*
X787500Y731000D02*
X725750D01*
Y772500D01*
X787500D01*
Y731000D01*
D02*
G37*
G36*
X1031000Y831750D02*
X969250D01*
Y873250D01*
X1031000D01*
Y831750D01*
D02*
G37*
G36*
X1070250Y121250D02*
X982250D01*
Y187500D01*
X1070250D01*
Y121250D01*
D02*
G37*
D10*
X471500Y477750D02*
X483500Y489750D01*
X504250D02*
X510500Y483500D01*
X483500Y489750D02*
X504250D01*
X471500Y477750D02*
X471500D01*
X411000Y616250D02*
X529000Y498250D01*
X596500D01*
X603032Y491718D01*
Y483238D02*
X610520Y475750D01*
X603032Y483238D02*
Y491718D01*
X549500Y526500D02*
X577250D01*
X432500Y643500D02*
X549500Y526500D01*
X432500Y643500D02*
Y678500D01*
X577250Y526500D02*
X621000Y482750D01*
X510500Y483500D02*
X595250D01*
X505000Y371750D02*
X521500Y388250D01*
X505000Y303000D02*
Y371750D01*
X489000Y299750D02*
Y391750D01*
X475250Y298500D02*
Y392000D01*
X390000Y389000D02*
X412000Y367000D01*
X248500Y389000D02*
X390000D01*
X707750Y548000D02*
Y640500D01*
X393750Y954500D02*
X707750Y640500D01*
X699250Y387250D02*
Y520500D01*
X691750Y528000D02*
X699250Y520500D01*
X765000Y219000D02*
Y266500D01*
X638250Y393250D02*
X765000Y266500D01*
X630250Y385250D02*
X706750Y308750D01*
Y218500D02*
Y308750D01*
X648000Y221000D02*
Y350250D01*
X621000Y377250D02*
X648000Y350250D01*
X243750Y425500D02*
X244000Y425750D01*
X243750Y393750D02*
Y425500D01*
Y393750D02*
X248500Y389000D01*
X235692Y335500D02*
X351250D01*
X231192Y331000D02*
X235692Y335500D01*
X231000Y331000D02*
X231192D01*
X236988Y381012D02*
X374986D01*
X230250Y387750D02*
Y425500D01*
Y387750D02*
X236988Y381012D01*
X655000Y634750D02*
X668500Y621250D01*
Y420000D02*
Y621250D01*
X676000Y404250D02*
Y630578D01*
X683750Y385500D02*
Y635593D01*
X672500Y634078D02*
Y634250D01*
Y634078D02*
X676000Y630578D01*
X692000Y397500D02*
Y522093D01*
X683750Y385500D02*
X706000Y363250D01*
X718500D01*
X687750Y526343D02*
Y637250D01*
X399030Y932250D02*
X691750Y639529D01*
X400250Y924750D02*
X687750Y637250D01*
X392093Y950500D02*
X699750Y642843D01*
X695750Y538500D02*
X750500Y483750D01*
X687750Y526343D02*
X692000Y522093D01*
X691750Y528000D02*
Y639529D01*
X695750Y538500D02*
Y641186D01*
X404593Y914750D02*
X683750Y635593D01*
X392936Y944000D02*
X695750Y641186D01*
X699750Y543000D02*
X705250Y537500D01*
X699750Y543000D02*
Y642843D01*
X655000Y634750D02*
Y642000D01*
X562000Y878000D02*
X563650Y879650D01*
X562000Y819000D02*
Y878000D01*
X589050Y797050D02*
Y879650D01*
X614450Y781450D02*
Y879650D01*
X604000Y771000D02*
X614450Y781450D01*
X728500Y528250D02*
Y631750D01*
X448000Y912250D02*
Y948000D01*
Y912250D02*
X728500Y631750D01*
X611500Y762250D02*
X639850Y790600D01*
Y879650D01*
X646250Y734250D02*
X748850Y836850D01*
X620500Y754750D02*
X672650Y806900D01*
Y879650D01*
X324000Y932250D02*
X399030D01*
X432000Y922593D02*
Y964250D01*
X325750Y944000D02*
X392936D01*
X323058Y950500D02*
X392093D01*
X432000Y922593D02*
X722750Y631843D01*
X355750Y924750D02*
X400250D01*
X722750Y525250D02*
Y631843D01*
X313000Y954500D02*
X393750D01*
X359000Y914750D02*
X404593D01*
X629000Y746250D02*
X698050Y815300D01*
Y879650D01*
X358750Y915000D02*
X359000Y914750D01*
X728500Y528250D02*
X766000Y490750D01*
X637500Y740000D02*
X723450Y825950D01*
Y879650D01*
X748850Y836850D02*
Y879650D01*
X722750Y525250D02*
X758750Y489250D01*
Y438000D02*
Y489250D01*
X705250Y537500D02*
X714750D01*
X754000Y403750D02*
X766000Y415750D01*
Y490750D01*
X711750Y391000D02*
X758750Y438000D01*
X21750Y961500D02*
X56750Y996500D01*
X216000D02*
X273750Y938750D01*
X56750Y996500D02*
X216000D01*
X273750Y885750D02*
X298500Y861000D01*
X273750Y885750D02*
Y938750D01*
X298500Y861000D02*
X316750D01*
X718500Y363250D02*
X725500Y356250D01*
X324875Y943125D02*
X325750Y944000D01*
X305750Y947250D02*
X313000Y954500D01*
X312250Y939692D02*
X323058Y950500D01*
D13*
X383800Y136050D02*
X428750Y181000D01*
Y195250D01*
X435750Y202250D01*
X470022Y249250D02*
X637250Y416478D01*
X283750Y265250D02*
X299750Y249250D01*
X470022D01*
X262350Y200050D02*
X427186D01*
X437636Y210500D01*
X437636D01*
X435750Y202250D02*
X435750D01*
X656000Y422500D01*
X620000Y473750D02*
X629250D01*
X595250Y449000D02*
X620000Y473750D01*
X470000Y449000D02*
X595250D01*
X617750Y460000D02*
X630500D01*
X596500Y438750D02*
X617750Y460000D01*
X637250Y416478D02*
Y479250D01*
X646750Y488750D01*
X410250Y508750D02*
Y555250D01*
Y508750D02*
X470000Y449000D01*
X411250Y488250D02*
X460750Y438750D01*
X596500D01*
X656000Y422500D02*
Y472250D01*
X645250Y418114D02*
Y476000D01*
X437636Y210500D02*
X645250Y418114D01*
X262350Y264050D02*
X263550Y265250D01*
X283750D01*
X262350Y136050D02*
X383800D01*
D14*
X499750Y469500D02*
X596000D01*
X488000Y481250D02*
X499750Y469500D01*
D16*
X314750Y848500D02*
X327250Y861000D01*
X279750Y848500D02*
X314750D01*
X510500Y639100D02*
X612650D01*
X662000Y589750D01*
X584250Y567500D02*
X606500Y589750D01*
X662000D01*
X327250Y861000D02*
Y867000D01*
X306000Y872500D02*
X321750D01*
X327250Y867000D01*
X283500Y895000D02*
X306000Y872500D01*
X283500Y925750D02*
X284000Y925250D01*
X283250Y926000D02*
X283500Y925750D01*
X284000Y925250D02*
X336500D01*
X353750Y908000D01*
X381250D01*
X283500Y895000D02*
Y925750D01*
D41*
X563000Y237650D02*
D03*
X672650Y879650D02*
D03*
X563650D02*
D03*
X510500Y740700D02*
D03*
D90*
X1026750Y83500D02*
Y122714D01*
X90000Y70216D02*
Y469534D01*
Y70216D02*
X96444Y63772D01*
X1007022D01*
X1026750Y83500D01*
X41550Y480250D02*
X79284D01*
X90000Y469534D01*
D91*
X427515Y272350D02*
X439750D01*
X424000Y275865D02*
Y434750D01*
Y275865D02*
X427515Y272350D01*
X887500Y737772D02*
X985000Y835272D01*
X887500Y227250D02*
Y737772D01*
X985000Y836000D02*
X988000Y839000D01*
X985000Y835272D02*
Y836000D01*
X752500Y92250D02*
X887500Y227250D01*
X563000Y136050D02*
X606800Y92250D01*
X752500D01*
X422000Y436750D02*
X424000Y434750D01*
D92*
X512700Y85750D02*
X563000Y136050D01*
X153750Y85750D02*
X512700D01*
X128750Y110750D02*
X153750Y85750D01*
X128750Y110750D02*
Y411500D01*
X193500Y476250D02*
Y545000D01*
X128750Y411500D02*
X193500Y476250D01*
X193625Y598625D02*
X193750Y598750D01*
X193625Y545125D02*
Y598625D01*
X193500Y545000D02*
X193625Y545125D01*
X190750Y602562D02*
Y652750D01*
Y602562D02*
X193750Y599562D01*
Y598750D02*
Y599562D01*
Y656562D02*
Y707250D01*
X190750Y653562D02*
X193750Y656562D01*
X190750Y652750D02*
Y653562D01*
D93*
X788150Y189000D02*
X850900Y251750D01*
X639750Y189000D02*
X788150D01*
X757250Y580500D02*
Y739750D01*
X850900Y251750D02*
Y486850D01*
X757250Y580500D02*
X850900Y486850D01*
X586500Y242250D02*
Y299000D01*
Y242250D02*
X639750Y189000D01*
X586500Y299000D02*
X626500Y339000D01*
X551000Y299000D02*
X586500D01*
X231750Y965750D02*
X261750Y935750D01*
Y804500D02*
Y935750D01*
X227375Y901875D02*
X227500Y901750D01*
X227375Y901875D02*
Y945875D01*
X227250Y946000D02*
X227375Y945875D01*
X226625Y887125D02*
X226750Y887250D01*
X226625Y845875D02*
Y887125D01*
X226500Y845750D02*
X226625Y845875D01*
X159650Y901650D02*
X195750Y937750D01*
Y953750D01*
D94*
X825500Y251750D02*
D03*
X800100D02*
D03*
X439750Y323150D02*
D03*
Y297750D02*
D03*
D95*
X850900Y251750D02*
D03*
D96*
X1045000Y310250D02*
D03*
X969000Y788250D02*
D03*
D97*
X995000Y310250D02*
D03*
X1019000Y788250D02*
D03*
D98*
X563000Y136050D02*
D03*
Y161450D02*
D03*
Y186850D02*
D03*
Y212250D02*
D03*
X748850Y955850D02*
D03*
X723450D02*
D03*
X698050D02*
D03*
X672650D02*
D03*
X748850Y879650D02*
D03*
X723450D02*
D03*
X698050D02*
D03*
X639850Y955850D02*
D03*
X614450D02*
D03*
X589050D02*
D03*
X563650D02*
D03*
X639850Y879650D02*
D03*
X614450D02*
D03*
X589050D02*
D03*
X510500Y715300D02*
D03*
Y689900D02*
D03*
Y664500D02*
D03*
Y639100D02*
D03*
D99*
X186150Y161450D02*
D03*
Y225450D02*
D03*
Y289450D02*
D03*
X358600Y695800D02*
D03*
Y631800D02*
D03*
Y567800D02*
D03*
Y503800D02*
D03*
D100*
X186150Y136050D02*
D03*
X262350D02*
D03*
Y161450D02*
D03*
X186150Y200050D02*
D03*
X262350D02*
D03*
Y225450D02*
D03*
X186150Y264050D02*
D03*
X262350D02*
D03*
Y289450D02*
D03*
X358600Y721200D02*
D03*
X282400D02*
D03*
Y695800D02*
D03*
X358600Y657200D02*
D03*
X282400D02*
D03*
Y631800D02*
D03*
X358600Y593200D02*
D03*
X282400D02*
D03*
Y567800D02*
D03*
X358600Y529200D02*
D03*
X282400D02*
D03*
Y503800D02*
D03*
D101*
X70750Y952400D02*
D03*
Y838100D02*
D03*
D102*
X101250Y817800D02*
D03*
Y972700D02*
D03*
D103*
X21750Y854400D02*
D03*
Y829000D02*
D03*
Y936100D02*
D03*
Y961500D02*
D03*
D104*
X159650Y850850D02*
D03*
X134250Y863550D02*
D03*
X159650Y876250D02*
D03*
X134250Y888950D02*
D03*
X159650Y901650D02*
D03*
X134250Y914350D02*
D03*
X159650Y927050D02*
D03*
D105*
X134250Y939750D02*
D03*
D106*
X41550Y655250D02*
D03*
Y620250D02*
D03*
Y585250D02*
D03*
Y550250D02*
D03*
Y515250D02*
D03*
Y480250D02*
D03*
Y445250D02*
D03*
Y410250D02*
D03*
Y375250D02*
D03*
Y340250D02*
D03*
Y305250D02*
D03*
Y270250D02*
D03*
Y235250D02*
D03*
Y200250D02*
D03*
Y165250D02*
D03*
Y130250D02*
D03*
D107*
X439750Y272350D02*
D03*
D108*
X630250Y493250D02*
D03*
X203000Y884250D02*
D03*
Y896250D02*
D03*
X191000D02*
D03*
Y884250D02*
D03*
X599750Y401500D02*
D03*
X618250Y424500D02*
D03*
X598500D02*
D03*
X709750Y479750D02*
D03*
X710750Y428250D02*
D03*
X668500Y391750D02*
D03*
X681000Y373750D02*
D03*
X324250Y775750D02*
D03*
X284000D02*
D03*
X329500Y850750D02*
D03*
X327000Y433500D02*
D03*
Y445500D02*
D03*
Y457500D02*
D03*
X375000D02*
D03*
Y445500D02*
D03*
Y433500D02*
D03*
X363000Y457500D02*
D03*
Y445500D02*
D03*
Y433500D02*
D03*
X351000Y457500D02*
D03*
Y445500D02*
D03*
Y433500D02*
D03*
X339000Y457500D02*
D03*
Y445500D02*
D03*
Y433500D02*
D03*
X812750Y400500D02*
D03*
X800750D02*
D03*
X788750D02*
D03*
Y448500D02*
D03*
X800750D02*
D03*
X812750D02*
D03*
X788750Y436500D02*
D03*
X800750D02*
D03*
X812750D02*
D03*
X788750Y424500D02*
D03*
X800750D02*
D03*
X812750D02*
D03*
X788750Y412500D02*
D03*
X800750D02*
D03*
X812750D02*
D03*
X733250Y739750D02*
D03*
Y751750D02*
D03*
Y763750D02*
D03*
X781250D02*
D03*
Y751750D02*
D03*
Y739750D02*
D03*
X769250Y763750D02*
D03*
Y751750D02*
D03*
Y739750D02*
D03*
X757250Y763750D02*
D03*
Y751750D02*
D03*
Y739750D02*
D03*
X745250Y763750D02*
D03*
Y751750D02*
D03*
Y739750D02*
D03*
X976000Y839000D02*
D03*
Y851000D02*
D03*
Y863000D02*
D03*
X1024000D02*
D03*
Y851000D02*
D03*
Y839000D02*
D03*
X1012000Y863000D02*
D03*
Y851000D02*
D03*
Y839000D02*
D03*
X1000000Y863000D02*
D03*
Y851000D02*
D03*
Y839000D02*
D03*
X988000Y863000D02*
D03*
Y851000D02*
D03*
Y839000D02*
D03*
X521500Y1031000D02*
D03*
X470250D02*
D03*
X521500Y952250D02*
D03*
Y919500D02*
D03*
X494250Y888500D02*
D03*
X422250Y867250D02*
D03*
X406000D02*
D03*
X344250Y1012250D02*
D03*
Y993750D02*
D03*
X399000D02*
D03*
X470250Y975000D02*
D03*
X1049000Y180250D02*
D03*
X989000Y168250D02*
D03*
X1001000D02*
D03*
X1013000D02*
D03*
X1025000D02*
D03*
X1037000D02*
D03*
X1049000D02*
D03*
X1061000D02*
D03*
X989000Y156250D02*
D03*
X1001000D02*
D03*
X1013000D02*
D03*
X1025000D02*
D03*
X1037000D02*
D03*
X1049000D02*
D03*
X1061000D02*
D03*
X989000Y144250D02*
D03*
X1001000D02*
D03*
X1013000D02*
D03*
X1025000D02*
D03*
X1037000D02*
D03*
X1049000D02*
D03*
X1061000D02*
D03*
X989000Y132250D02*
D03*
X1001000D02*
D03*
X1013000D02*
D03*
X1037000D02*
D03*
X1049000D02*
D03*
X1061000D02*
D03*
Y180250D02*
D03*
X1013000D02*
D03*
X1001000D02*
D03*
X989000D02*
D03*
X312500Y893000D02*
D03*
X324750Y892500D02*
D03*
X325250Y903500D02*
D03*
X312500Y903750D02*
D03*
D109*
X662000Y589750D02*
D03*
X584250Y567500D02*
D03*
X551000Y299000D02*
D03*
X626500Y339000D02*
D03*
X411000Y616250D02*
D03*
X610520Y475750D02*
D03*
X432500Y678500D02*
D03*
X621000Y482750D02*
D03*
X629250Y473750D02*
D03*
X630500Y460000D02*
D03*
X410250Y555250D02*
D03*
X411250Y488250D02*
D03*
X193750Y707250D02*
D03*
X190750Y652750D02*
D03*
X193750Y598750D02*
D03*
X193500Y545000D02*
D03*
X422000Y436750D02*
D03*
X471500Y477750D02*
D03*
X595250Y483500D02*
D03*
X488000Y481250D02*
D03*
X596000Y469500D02*
D03*
X505000Y303000D02*
D03*
X521500Y388250D02*
D03*
X489000Y299750D02*
D03*
Y391750D02*
D03*
X475250Y298500D02*
D03*
Y392000D02*
D03*
X412000Y367000D02*
D03*
X656000Y472250D02*
D03*
X645250Y476000D02*
D03*
X646750Y488750D02*
D03*
X707750Y548000D02*
D03*
X699250Y387250D02*
D03*
X638250Y393250D02*
D03*
X630250Y385250D02*
D03*
X621000Y377250D02*
D03*
X648000Y221000D02*
D03*
X706750Y218500D02*
D03*
X765000Y219000D02*
D03*
X244000Y425750D02*
D03*
X231000Y331000D02*
D03*
X351250Y335500D02*
D03*
X374986Y381012D02*
D03*
X230250Y425500D02*
D03*
X668500Y420000D02*
D03*
X676000Y404250D02*
D03*
X692000Y397500D02*
D03*
X672500Y634250D02*
D03*
X655000Y642000D02*
D03*
X562000Y819000D02*
D03*
X589050Y797050D02*
D03*
X604000Y771000D02*
D03*
X611500Y762250D02*
D03*
X646250Y734250D02*
D03*
X620500Y754750D02*
D03*
X629000Y746250D02*
D03*
X637500Y740000D02*
D03*
X754000Y403750D02*
D03*
X448000Y948000D02*
D03*
X432000Y964250D02*
D03*
X714750Y537500D02*
D03*
X750500Y483750D02*
D03*
X711750Y391000D02*
D03*
X358750Y915000D02*
D03*
X381250Y908000D02*
D03*
X283250Y926000D02*
D03*
X279750Y848500D02*
D03*
X231750Y965750D02*
D03*
X316750Y861000D02*
D03*
X355750Y924750D02*
D03*
X725500Y356250D02*
D03*
X324000Y932250D02*
D03*
X324875Y943125D02*
D03*
X312250Y939692D02*
D03*
X305750Y947250D02*
D03*
X261750Y804500D02*
D03*
X227250Y946000D02*
D03*
X227500Y901750D02*
D03*
X226500Y845750D02*
D03*
X226750Y887250D02*
D03*
X195750Y953750D02*
D03*
M02*
