G04*
G04 #@! TF.GenerationSoftware,Altium Limited,Altium Designer,20.0.13 (296)*
G04*
G04 Layer_Color=8421504*
%FSLAX44Y44*%
%MOMM*%
G71*
G01*
G75*
%ADD20R,4.8000X1.1000*%
%ADD21R,0.8000X1.0000*%
%ADD22R,1.4000X1.0000*%
G04:AMPARAMS|DCode=23|XSize=1.97mm|YSize=0.6mm|CornerRadius=0.075mm|HoleSize=0mm|Usage=FLASHONLY|Rotation=0.000|XOffset=0mm|YOffset=0mm|HoleType=Round|Shape=RoundedRectangle|*
%AMROUNDEDRECTD23*
21,1,1.9700,0.4500,0,0,0.0*
21,1,1.8200,0.6000,0,0,0.0*
1,1,0.1500,0.9100,-0.2250*
1,1,0.1500,-0.9100,-0.2250*
1,1,0.1500,-0.9100,0.2250*
1,1,0.1500,0.9100,0.2250*
%
%ADD23ROUNDEDRECTD23*%
%ADD24R,1.0000X0.8000*%
%ADD25R,1.0000X1.4000*%
%ADD26R,2.2000X0.6000*%
%ADD27R,0.7000X0.9000*%
%ADD28R,0.9000X0.7000*%
%ADD29R,2.4000X1.5000*%
G04:AMPARAMS|DCode=30|XSize=0.28mm|YSize=0.69mm|CornerRadius=0.07mm|HoleSize=0mm|Usage=FLASHONLY|Rotation=180.000|XOffset=0mm|YOffset=0mm|HoleType=Round|Shape=RoundedRectangle|*
%AMROUNDEDRECTD30*
21,1,0.2800,0.5500,0,0,180.0*
21,1,0.1400,0.6900,0,0,180.0*
1,1,0.1400,-0.0700,0.2750*
1,1,0.1400,0.0700,0.2750*
1,1,0.1400,0.0700,-0.2750*
1,1,0.1400,-0.0700,-0.2750*
%
%ADD30ROUNDEDRECTD30*%
G04:AMPARAMS|DCode=31|XSize=0.28mm|YSize=0.69mm|CornerRadius=0.07mm|HoleSize=0mm|Usage=FLASHONLY|Rotation=270.000|XOffset=0mm|YOffset=0mm|HoleType=Round|Shape=RoundedRectangle|*
%AMROUNDEDRECTD31*
21,1,0.2800,0.5500,0,0,270.0*
21,1,0.1400,0.6900,0,0,270.0*
1,1,0.1400,-0.2750,-0.0700*
1,1,0.1400,-0.2750,0.0700*
1,1,0.1400,0.2750,0.0700*
1,1,0.1400,0.2750,-0.0700*
%
%ADD31ROUNDEDRECTD31*%
%ADD32R,2.2860X2.2860*%
%ADD33R,0.6000X2.2000*%
%ADD34R,0.9000X1.5000*%
%ADD35R,1.1500X2.7000*%
%ADD36R,3.2000X1.0500*%
%ADD37R,8.3000X10.4500*%
%ADD38R,3.8100X2.7940*%
%ADD39R,7.0000X4.0000*%
%ADD40R,1.5000X1.5000*%
%ADD41R,0.6000X2.0600*%
G04:AMPARAMS|DCode=42|XSize=1.56mm|YSize=0.28mm|CornerRadius=0.035mm|HoleSize=0mm|Usage=FLASHONLY|Rotation=270.000|XOffset=0mm|YOffset=0mm|HoleType=Round|Shape=RoundedRectangle|*
%AMROUNDEDRECTD42*
21,1,1.5600,0.2100,0,0,270.0*
21,1,1.4900,0.2800,0,0,270.0*
1,1,0.0700,-0.1050,-0.7450*
1,1,0.0700,-0.1050,0.7450*
1,1,0.0700,0.1050,0.7450*
1,1,0.0700,0.1050,-0.7450*
%
%ADD42ROUNDEDRECTD42*%
G04:AMPARAMS|DCode=43|XSize=1.56mm|YSize=0.28mm|CornerRadius=0.035mm|HoleSize=0mm|Usage=FLASHONLY|Rotation=0.000|XOffset=0mm|YOffset=0mm|HoleType=Round|Shape=RoundedRectangle|*
%AMROUNDEDRECTD43*
21,1,1.5600,0.2100,0,0,0.0*
21,1,1.4900,0.2800,0,0,0.0*
1,1,0.0700,0.7450,-0.1050*
1,1,0.0700,-0.7450,-0.1050*
1,1,0.0700,-0.7450,0.1050*
1,1,0.0700,0.7450,0.1050*
%
%ADD43ROUNDEDRECTD43*%
D20*
X518750Y810750D02*
D03*
X422750D02*
D03*
X225000Y913500D02*
D03*
X321000D02*
D03*
D21*
X188500Y715000D02*
D03*
X204500D02*
D03*
X292000Y569750D02*
D03*
X308000D02*
D03*
X320500Y950000D02*
D03*
X304500D02*
D03*
X225000Y949750D02*
D03*
X241000D02*
D03*
X817750Y577988D02*
D03*
X801750D02*
D03*
X669500Y413000D02*
D03*
X685500D02*
D03*
X736750Y578000D02*
D03*
X752750D02*
D03*
X728250Y652250D02*
D03*
X744250D02*
D03*
X574000Y947000D02*
D03*
X558000D02*
D03*
X666500Y795750D02*
D03*
X650500D02*
D03*
X290250Y820000D02*
D03*
X306250D02*
D03*
X290500Y837750D02*
D03*
X306500D02*
D03*
X273000Y783000D02*
D03*
X289000D02*
D03*
X503000Y740250D02*
D03*
X487000D02*
D03*
X512000Y711000D02*
D03*
X528000D02*
D03*
X489250Y547250D02*
D03*
X505250D02*
D03*
X314500Y691250D02*
D03*
X298500D02*
D03*
X511750Y774750D02*
D03*
X527750D02*
D03*
X429500D02*
D03*
X413500D02*
D03*
X155750Y803750D02*
D03*
X171750D02*
D03*
D22*
X340500Y741000D02*
D03*
Y761000D02*
D03*
X422000Y126500D02*
D03*
Y146500D02*
D03*
X383250Y126500D02*
D03*
Y146500D02*
D03*
X440500Y167750D02*
D03*
Y187750D02*
D03*
X402250Y168250D02*
D03*
Y188250D02*
D03*
X343500Y126500D02*
D03*
Y146500D02*
D03*
X363750Y168500D02*
D03*
Y188500D02*
D03*
X306250Y126500D02*
D03*
Y146500D02*
D03*
X325750Y168750D02*
D03*
Y188750D02*
D03*
X269250Y126500D02*
D03*
Y146500D02*
D03*
X252000Y170000D02*
D03*
Y190000D02*
D03*
X288750Y170000D02*
D03*
Y190000D02*
D03*
X233000Y126500D02*
D03*
Y146500D02*
D03*
X592000Y142000D02*
D03*
Y162000D02*
D03*
Y197000D02*
D03*
Y217000D02*
D03*
X211000Y236750D02*
D03*
Y256750D02*
D03*
X440000Y245250D02*
D03*
Y225250D02*
D03*
X402450Y245250D02*
D03*
Y225250D02*
D03*
X364900Y245250D02*
D03*
Y225250D02*
D03*
X327350Y245250D02*
D03*
Y225250D02*
D03*
X289800Y245250D02*
D03*
Y225250D02*
D03*
X252250Y245250D02*
D03*
Y225250D02*
D03*
X638000Y151250D02*
D03*
Y131250D02*
D03*
X666500Y151250D02*
D03*
Y131250D02*
D03*
X698500Y151000D02*
D03*
Y131000D02*
D03*
X592000Y276000D02*
D03*
Y256000D02*
D03*
X293750Y541000D02*
D03*
Y521000D02*
D03*
X316750Y521250D02*
D03*
Y541250D02*
D03*
X293750Y478750D02*
D03*
Y458750D02*
D03*
X316750Y458750D02*
D03*
Y478750D02*
D03*
X293750Y417000D02*
D03*
Y397000D02*
D03*
X316750Y396750D02*
D03*
Y416750D02*
D03*
X293750Y357750D02*
D03*
Y337750D02*
D03*
X316750Y338000D02*
D03*
Y358000D02*
D03*
X451750Y510000D02*
D03*
Y530000D02*
D03*
X771500Y152250D02*
D03*
Y172250D02*
D03*
X395750Y926750D02*
D03*
Y906750D02*
D03*
X453250Y929750D02*
D03*
Y909750D02*
D03*
Y954250D02*
D03*
Y974250D02*
D03*
D23*
X135250Y240050D02*
D03*
Y227350D02*
D03*
Y214650D02*
D03*
Y201950D02*
D03*
X184750D02*
D03*
Y214650D02*
D03*
Y227350D02*
D03*
Y240050D02*
D03*
X411250Y391200D02*
D03*
Y378500D02*
D03*
Y365800D02*
D03*
Y353100D02*
D03*
Y340400D02*
D03*
Y327700D02*
D03*
Y315000D02*
D03*
Y302300D02*
D03*
X361750D02*
D03*
Y315000D02*
D03*
Y327700D02*
D03*
Y340400D02*
D03*
Y353100D02*
D03*
Y365800D02*
D03*
Y378500D02*
D03*
Y391200D02*
D03*
D24*
X209000Y199750D02*
D03*
Y215750D02*
D03*
X320500Y772250D02*
D03*
Y756250D02*
D03*
X804000Y234000D02*
D03*
Y250000D02*
D03*
X193500Y646000D02*
D03*
Y630000D02*
D03*
X597500Y628250D02*
D03*
Y612250D02*
D03*
X375000Y741250D02*
D03*
Y757250D02*
D03*
X235750Y863250D02*
D03*
Y847250D02*
D03*
D25*
X136250Y364500D02*
D03*
X156250D02*
D03*
X136250Y424250D02*
D03*
X156250D02*
D03*
X156250Y455250D02*
D03*
X136250D02*
D03*
X136250Y483500D02*
D03*
X156250D02*
D03*
X156250Y518500D02*
D03*
X136250D02*
D03*
X136250Y547500D02*
D03*
X156250D02*
D03*
X531000Y900500D02*
D03*
X511000D02*
D03*
X136250Y398000D02*
D03*
X156250D02*
D03*
X136250Y336500D02*
D03*
X156250D02*
D03*
X595000Y945000D02*
D03*
X615000D02*
D03*
X294750Y712000D02*
D03*
X314750D02*
D03*
X309750Y589000D02*
D03*
X289750D02*
D03*
X504000Y996500D02*
D03*
X524000D02*
D03*
X504000Y973000D02*
D03*
X524000D02*
D03*
X430000Y1041000D02*
D03*
X410000D02*
D03*
X561250Y1030500D02*
D03*
X581250D02*
D03*
X613500Y671000D02*
D03*
X593500D02*
D03*
D26*
X609500Y967200D02*
D03*
Y979900D02*
D03*
Y992600D02*
D03*
Y1005300D02*
D03*
X561500Y967200D02*
D03*
Y979900D02*
D03*
Y992600D02*
D03*
Y1005300D02*
D03*
D27*
X307000Y674250D02*
D03*
X291000D02*
D03*
X307000Y646000D02*
D03*
X291000D02*
D03*
X307000Y660250D02*
D03*
X291000D02*
D03*
X229750Y758750D02*
D03*
X213750D02*
D03*
X185500D02*
D03*
X201500D02*
D03*
X287250D02*
D03*
X271250D02*
D03*
X243000D02*
D03*
X259000D02*
D03*
D28*
X201750Y864000D02*
D03*
Y848000D02*
D03*
X302250Y760000D02*
D03*
Y744000D02*
D03*
X192500Y836000D02*
D03*
Y820000D02*
D03*
X149000Y864750D02*
D03*
Y848750D02*
D03*
X139250Y833000D02*
D03*
Y817000D02*
D03*
X119750Y848750D02*
D03*
Y864750D02*
D03*
X119500Y817000D02*
D03*
Y833000D02*
D03*
X247250Y728250D02*
D03*
Y744250D02*
D03*
X225750Y728250D02*
D03*
Y744250D02*
D03*
D29*
X178500Y910250D02*
D03*
Y881250D02*
D03*
X260000Y872500D02*
D03*
Y843500D02*
D03*
D30*
X218500Y782300D02*
D03*
X223500D02*
D03*
X243500D02*
D03*
X238500D02*
D03*
X228500D02*
D03*
X233500D02*
D03*
Y820200D02*
D03*
X228500D02*
D03*
X238500D02*
D03*
X243500D02*
D03*
X223500D02*
D03*
X218500D02*
D03*
D31*
X212050Y788750D02*
D03*
Y793750D02*
D03*
Y813750D02*
D03*
Y808750D02*
D03*
Y798750D02*
D03*
Y803750D02*
D03*
X249950Y788750D02*
D03*
Y793750D02*
D03*
Y813750D02*
D03*
Y808750D02*
D03*
Y798750D02*
D03*
Y803750D02*
D03*
D32*
X231000Y801250D02*
D03*
D33*
X541700Y570750D02*
D03*
X554400D02*
D03*
X567100D02*
D03*
X579800D02*
D03*
X541700Y618750D02*
D03*
X554400D02*
D03*
X567100D02*
D03*
X579800D02*
D03*
D34*
X417750Y925000D02*
D03*
X431750D02*
D03*
Y956000D02*
D03*
X417750D02*
D03*
D35*
X783000Y836500D02*
D03*
X813000D02*
D03*
D36*
X605250Y322000D02*
D03*
Y339000D02*
D03*
Y356000D02*
D03*
Y373000D02*
D03*
Y390000D02*
D03*
D37*
X510750Y356000D02*
D03*
D38*
X665750Y309815D02*
D03*
Y381185D02*
D03*
D39*
X767500Y413250D02*
D03*
Y313250D02*
D03*
D40*
X771500Y124500D02*
D03*
Y89500D02*
D03*
D41*
X653800Y770150D02*
D03*
X666500D02*
D03*
X679200D02*
D03*
X691900D02*
D03*
X704600D02*
D03*
X717300D02*
D03*
X730000D02*
D03*
X742700D02*
D03*
Y677350D02*
D03*
X730000D02*
D03*
X717300D02*
D03*
X704600D02*
D03*
X691900D02*
D03*
X679200D02*
D03*
X666500D02*
D03*
X653800D02*
D03*
D42*
X473000Y565950D02*
D03*
X468000D02*
D03*
X463000D02*
D03*
X458000D02*
D03*
X453000D02*
D03*
X448000D02*
D03*
X443000D02*
D03*
X438000D02*
D03*
X433000D02*
D03*
X428000D02*
D03*
X423000D02*
D03*
X418000D02*
D03*
X413000D02*
D03*
X408000D02*
D03*
X403000D02*
D03*
X398000D02*
D03*
X393000D02*
D03*
X388000D02*
D03*
X383000D02*
D03*
X378000D02*
D03*
X373000D02*
D03*
X368000D02*
D03*
X363000D02*
D03*
X358000D02*
D03*
X353000D02*
D03*
Y719550D02*
D03*
X358000D02*
D03*
X363000D02*
D03*
X368000D02*
D03*
X373000D02*
D03*
X378000D02*
D03*
X383000D02*
D03*
X388000D02*
D03*
X393000D02*
D03*
X398000D02*
D03*
X403000D02*
D03*
X408000D02*
D03*
X413000D02*
D03*
X418000D02*
D03*
X423000D02*
D03*
X428000D02*
D03*
X433000D02*
D03*
X438000D02*
D03*
X443000D02*
D03*
X448000D02*
D03*
X453000D02*
D03*
X458000D02*
D03*
X463000D02*
D03*
X468000D02*
D03*
X473000D02*
D03*
D43*
X489800Y702750D02*
D03*
Y697750D02*
D03*
Y692750D02*
D03*
Y687750D02*
D03*
Y682750D02*
D03*
Y677750D02*
D03*
Y672750D02*
D03*
Y667750D02*
D03*
Y662750D02*
D03*
Y657750D02*
D03*
Y652750D02*
D03*
Y647750D02*
D03*
Y642750D02*
D03*
Y637750D02*
D03*
Y632750D02*
D03*
Y627750D02*
D03*
Y622750D02*
D03*
Y617750D02*
D03*
Y612750D02*
D03*
Y607750D02*
D03*
Y602750D02*
D03*
Y597750D02*
D03*
Y592750D02*
D03*
Y587750D02*
D03*
Y582750D02*
D03*
X336200D02*
D03*
Y587750D02*
D03*
Y592750D02*
D03*
Y597750D02*
D03*
Y602750D02*
D03*
Y607750D02*
D03*
Y612750D02*
D03*
Y617750D02*
D03*
Y622750D02*
D03*
Y627750D02*
D03*
Y632750D02*
D03*
Y637750D02*
D03*
Y642750D02*
D03*
Y647750D02*
D03*
Y652750D02*
D03*
Y657750D02*
D03*
Y662750D02*
D03*
Y667750D02*
D03*
Y672750D02*
D03*
Y677750D02*
D03*
Y682750D02*
D03*
Y687750D02*
D03*
Y692750D02*
D03*
Y697750D02*
D03*
Y702750D02*
D03*
M02*
