M48
;Layer_Color=9474304
;FILE_FORMAT=4:4
METRIC,LZ
;TYPE=PLATED
T1F00S00C0.3000
T2F00S00C0.8000
T3F00S00C0.8128
T4F00S00C0.8900
T5F00S00C0.9000
T6F00S00C1.0000
T7F00S00C1.0200
T8F00S00C1.4000
T9F00S00C1.6300
%
T01
X00989Y0013225
Y0014425
Y0015625
X01001
X01013
X01025
X01037
X01049
X01061
Y0014425
X01049
X01037
X01025
X01013
X01001
Y0013225
X01013
X01037
X01049
X01061
Y0016825
X01049
Y0018025
X01061
X01037Y0016825
X01025
X01013
X01001
X00989
Y0018025
X01001
X01013
X00765Y00219
X0070675Y002185
X00648Y00221
X006265Y00339
X00621Y0037725
X0063025Y0038525
X0063825Y0039325
X006685Y0039175
X00676Y0040425
X00692Y003975
X0069925Y0038725
X0071175Y00391
X0071075Y0042825
X006685Y0042
X0061825Y004245
X005985
X0059975Y004015
X00596Y004695
X0059525Y004835
X0061052Y0047575
X00621Y0048275
X0062925Y0047375
X006305Y0046
X0064525Y00476
X0064675Y0048875
X0063025Y0049325
X00656Y0047225
X0070975Y0047975
X007505Y0048375
X0078875Y004485
X0080075
X0081275
Y004365
X0080075
X0078875
Y004245
X0080075
X0081275
Y004125
Y004005
X0080075
X0078875
Y004125
X0080075
X00754Y0040375
X007255Y0035625
X00681Y0037375
X005215Y0038825
X00489Y0039175
X0047525Y00392
X004715Y0047775
X00488Y0048125
X00489Y0029975
X0047525Y002985
X00505Y00303
X00551Y00299
X0071475Y005375
X0070775Y00548
X0041025Y0055525
X0041125Y0048825
X00422Y0043675
X00375Y004335
Y004455
Y004575
X00363
Y004455
Y004335
X00351
Y004455
Y004575
X00339
X00327
Y004455
Y004335
X00339
Y004455
X00374986Y00381012
X00412Y00367
X0035125Y003355
X00231Y00331
X0023025Y004255
X00244Y0042575
X001935Y00545
X0019375Y0059875
X0019075Y0065275
X0019375Y0070725
X00284Y0077575
X0032425
X003295Y0085075
X0031675Y00861
X003125Y00893
Y0090375
X0032525Y009035
X0032475Y008925
X00324Y0093225
X00324875Y00943125
X0031225Y00939692
X0030575Y0094725
X0028325Y00926
X0035575Y0092475
X0035875Y00915
X0038125Y00908
X00406Y0086725
X0042225
X0027975Y008485
X002265Y0084575
X0022675Y0088725
X002275Y0090175
X00203Y0089625
Y0088425
X00191
Y0089625
X0022725Y00946
X0026175Y008045
X004325Y006785
X00411Y0061625
X0058425Y005675
X00662Y0058975
X006725Y0063425
X00655Y00642
X0064625Y0073425
X006375Y0074
X00629Y0074625
X006205Y0075475
X006115Y0076225
X00604Y00771
X0058905Y0079705
X00562Y00819
X0049425Y008885
X005215Y009195
Y0095225
X00448Y00948
X0073325Y0076375
Y0075175
Y0073975
X0074525
X0075725
X0076925
X0078125
Y0075175
Y0076375
X0076925
Y0075175
X0075725
Y0076375
X0074525
Y0075175
X00976Y00839
Y00851
Y00863
X00988
X01
X01012
X01024
Y00851
Y00839
X01012
Y00851
X01
Y00839
X00988
Y00851
X0047025Y00975
Y01031
X005215
X00432Y0096425
X00399Y0099375
X0034425
Y0101225
X0023175Y0096575
X0019575Y0095375
T02
X00995Y0031025
X01045
X01019Y0078825
X00969
T03
X0018615Y0013605
X0026235
Y0016145
Y0020005
Y0022545
Y0026405
Y0028945
X0018615
Y0026405
Y0022545
Y0020005
Y0016145
X002824Y005038
Y005292
X003586
Y005038
Y005678
Y005932
Y006318
Y006572
Y006958
Y007212
X002824
Y006958
Y006572
Y006318
Y005932
Y005678
T04
X0013425Y0086355
Y0088895
Y0091435
Y0093975
X0015965Y0092705
Y0090165
Y0087625
Y0085085
T05
X00563Y0013605
Y0016145
Y0018685
Y0021225
Y0023765
X005105Y006391
Y006645
Y006899
Y007153
Y007407
X0056365Y0087965
X0058905
X0061445
X0063985
X0067265
X0069805
X0072345
X0074885
Y0095585
X0072345
X0069805
X0067265
X0063985
X0061445
X0058905
X0056365
T06
X008509Y0025175
X008255
X008001
X0043975Y0027235
Y0029775
Y0032315
T07
X0002175Y00829
Y008544
Y009361
Y009615
T08
X0004155Y0013025
Y0016525
Y0020025
Y0023525
Y0027025
Y0030525
Y0034025
Y0037525
Y0041025
Y0044525
Y0048025
Y0051525
Y0055025
Y0058525
Y0062025
Y0065525
T09
X0010125Y008178
Y009727
M30
