M48
;Layer_Color=9474304
;FILE_FORMAT=4:4
METRIC,LZ
;TYPE=PLATED
T1F00S00C0.3000
T2F00S00C0.8000
T3F00S00C0.8128
T4F00S00C0.8900
T5F00S00C0.9000
T6F00S00C1.0000
T7F00S00C1.0160
T8F00S00C1.0200
T9F00S00C1.1000
T10F00S00C1.4000
T11F00S00C1.6300
T12F00S00C1.8000
T13F00S00C3.2000
;TYPE=NON_PLATED
T14F00S00C3.1750
T15F00S00C3.2500
T16F00S00C3.4000
%
T01
X0044625Y002715
X00489Y00527
X0063075Y0042275
X0042575Y0044425
X00409Y004555
X0041675Y0046775
X0036Y004655
X0034825Y0046625
X0035625Y00494
X00359Y004395
X003755Y0044425
X0036725Y00425
X0037875Y0037825
X0036425Y002795
X00404871Y00279379
X0043025Y003155
X00422Y0020425
X0027025Y0021325
X0023425Y0019675
X00252Y0027075
X002115Y0027725
X001885Y0026225
X0032575Y00285
X0033875Y0053625
X0032875Y005535
X003905Y0054075
X004065Y00536
X00398707Y0052725
X0012275Y0051875
X001225Y0045675
X0012325Y0039725
X002075Y00631
X001885Y0070125
X002215Y0070875
X0023675Y0074425
X00286Y00745
X00319Y00739
X00357Y00739015
X0036Y0070125
X0039825Y00704
X00429846Y00735404
X00436558Y00742115
X0042375Y007605
X00342Y0077925
X0033125Y0079025
X00317Y0079625
X002585Y00785
X0023675Y0079475
X0023775Y0080775
X0022425
X00221761Y00834791
X00214Y0084
X0021225Y008305
X0020525Y0082425
X0019225Y0079825
X00195Y00788
X0019575Y00778
X00183Y0080525
X0012925Y00809572
X00136Y0085075
X0017725Y0086525
X002415Y0083025
X0025275Y0082375
X00272446Y00829196
X0027975Y00675
X0027775Y0066275
X0027575Y0065275
X0032175Y006805
X0032075Y00623
X00306Y0060875
X0030525Y00556
X003375Y0056475
X003565Y0061575
X003575Y0063275
X003595Y00647
X0042775Y006085
X0039525Y0089325
X001855Y00746
X00454Y0074375
X00516Y0074225
X0052925Y0072975
X0051225Y0069425
X00453Y006575
X0045275Y00644
X00459977Y00617523
X00469Y0062575
X004695Y005895
X004595Y0059675
X0052225Y00597
X0058025Y006015
X00613Y0062875
X0064275Y0065675
X0064125Y00677
X0069125Y006575
X00692Y00637
X007155Y00656
X007285Y006305
X0072375Y00577
X00757Y00799
X0071775Y00833
X00677Y008335
X00526441Y00793059
X0045275Y00894
X0045225Y0098675
X0048375Y009905
X004835Y0100625
X004455Y010405
X006675Y010335
X0040525Y0095375
T02
X0071075Y0023075
X0076075
X0074425Y005115
X0079425
X0078175Y0062205
Y0064745
Y0069825
Y0072365
Y0074905
Y0077445
X0068875Y0058775
X0063875
T03
X0048465Y001378
X0056085
Y001632
Y001953
Y002207
Y002533
Y002787
X0048465
Y002533
Y002207
Y001953
Y001632
X002595Y003365
Y003619
Y0039805
Y0042345
Y0045555
Y0048095
Y005178
Y005432
X001833
Y005178
Y0048095
Y0045555
Y0042345
Y0039805
Y003619
Y003365
T04
X0013625Y006798
Y007052
Y007306
Y00756
X0016165Y007433
Y007179
Y006925
Y006671
T05
X0056875Y006908
Y007162
Y007416
Y00767
Y007924
T06
X0036975Y008216
Y00847
Y008724
X0047985Y008675
X0050525
X0053065
X0033915Y0104025
X0031375
X0028835
T07
X006815Y0045025
Y0047565
Y0050105
T08
X0002375Y0064525
Y0067065
Y0075235
Y0077775
T09
X0011375Y0093725
X0013915Y0092455
Y0094995
X0069585Y0093725
X0072125Y0094995
Y0092455
Y0097535
Y0100075
X0069585Y0101345
Y0098805
Y0096265
X0013915Y0097535
Y0100075
X0011375Y0098805
Y0096265
Y0101345
T10
X00059Y000925
Y001425
X0015125Y000685
X0020125
X0025125
X0030125
X0035125
X0040125
X0045125
X0050125
X0055125
X0060125
X0065125
X0070125
X00059Y0020075
Y0025075
Y0031025
Y0036025
Y0041025
Y0046025
Y0051025
Y0056025
T11
X0010325Y0063405
Y0078895
T12
X0001975Y008915
X0081525
Y010465
X0001975
T13
X000255Y0002925
X008055
X000555Y00847
X0060275Y008345
T14
X00499Y0047565
T15
X0007275Y0065435
Y0076865
T16
X0005025Y0091185
X0078475
Y0102615
X0005025
M30
