M48
;Layer_Color=9474304
;FILE_FORMAT=4:4
METRIC,LZ
;TYPE=PLATED
T1F00S00C0.3000
T2F00S00C0.8000
T3F00S00C0.8128
T4F00S00C0.8900
T5F00S00C0.9000
T6F00S00C1.0000
T7F00S00C1.0200
T8F00S00C1.4000
T9F00S00C1.6300
T10F00S00C3.5000
;TYPE=NON_PLATED
T11F00S00C3.2500
%
T01
X00233Y0012275
X0027025
X003065
X003445
X0038325
X0043775
X0044625Y002715
X0063075Y0042275
X0061025Y0051475
X00398707Y0052725
X004065Y00536
X0033625Y00544
X00322Y005525
X003045Y00555
X0035425Y0048225
Y004505
X0034375Y0041825
X00345Y0036525
X0033725Y00342615
X0037925Y00353
X0037875Y0037825
X0042575Y0044425
X0041675Y0046775
X0043025Y003155
X00404871Y00279379
X0036425Y002795
X0032575Y00285
X00252Y0027075
X002115Y0027725
X001885Y0026225
X0023425Y0019675
X0027025Y0021325
X00422Y0020425
X0040375Y0058625
X0042775Y006085
X0035525Y0061575
X003575Y0063275
X003595Y00647
X0037725Y00655
Y0067625
Y0069625
X0036Y0070125
X0035325Y0068825
X00357Y00739015
X00319Y00739
X002795Y0074225
X0030375Y0077275
X00317Y0079625
X0033125Y0079025
X00342Y0077925
X0038675Y0078225
X0042075Y0076775
X0044425Y007565
X0040525Y00742
X0039825Y00704
X0042675Y0069675
X004395Y0068625
X0041575Y008175
X00402Y00818
X00439Y00847
X0027525Y00829
X0025275Y0082375
X002415Y0083025
X00221761Y00834791
X00214Y0084
X0021225Y008305
X0020525Y0082425
X00191Y0080825
X0019225Y0079825
X00195Y00788
X0019575Y00778
X0015225Y00778
X0012925Y00809572
X0015675Y0082825
X00136Y0085075
X0022475Y0080725
X00237
X0023725Y007955
X002365Y0071325
X0022475Y006995
X00187Y006955
X00212Y0073075
X002375Y0066575
X0027775Y0066275
X0027575Y0065275
X0027975Y00675
X00306Y0060875
X0032075Y00623
X003375Y0056475
X0021025Y0062975
X0045275Y00644
X00453Y006575
X00449Y0069625
X00481Y00721
X0051125Y00726
X004875Y0075625
X0048625Y00814
X005105Y00841
X0051475Y00638
X005145Y0062525
X0052225Y00597
X004695Y005895
X004595Y0059675
X00459977Y00617523
X00469Y0062575
X0058025Y006015
X0072375Y00577
T02
X0071075Y0023075
X0076075
X0074425Y005115
X0079425
X0061725Y0049725
X006165Y0044475
T03
X0048465Y001378
X0056085
Y001632
Y001953
Y002207
Y002533
Y002787
X0048465
Y002533
Y002207
Y001953
Y001632
X0028575Y003385
Y003639
Y00398933
Y00424333
Y00459367
Y00484767
Y005198
Y005452
X0020955
Y005198
Y00484767
Y00459367
Y00424333
Y00398933
Y003639
Y003385
T04
X0013625Y006798
Y007052
Y007306
Y00756
X0016165Y007433
Y007179
Y006925
Y006671
T05
X0056875Y006908
Y007162
Y007416
Y00767
Y007924
T06
X0050685Y00462
X0053225
X0055765
Y0050875
X0053225
X0050685
X00624Y0055635
Y0058175
Y0060715
T07
X0002375Y0064525
Y0067065
Y0075235
Y0077775
T08
X00059Y000925
Y001425
X0015125Y000685
X0020125
X0025125
X0030125
X0035125
X0040125
X0045125
X0050125
X0055125
X0060125
X0065125
X0070125
X00059Y0020075
Y0025075
Y0031025
Y0036025
Y0041025
Y0046025
Y0051025
Y0056025
T09
X0010325Y0063405
Y0078895
T10
X0079125Y00053
Y00839
T11
X0007275Y0065435
Y0076865
M30
