M48
;Layer_Color=9474304
;FILE_FORMAT=4:4
METRIC,LZ
;TYPE=PLATED
T1F00S00C0.3000
T2F00S00C0.8000
T3F00S00C0.8128
T4F00S00C0.8900
T5F00S00C0.9000
T6F00S00C1.0000
T7F00S00C1.0200
T8F00S00C1.4000
T9F00S00C1.6300
%
T01
X00989Y0013225
Y0014425
Y0015625
X01001
X01013
X01025
X01037
X01049
X01061
Y0014425
X01049
X01037
X01025
X01013
X01001
Y0013225
X01013
X01037
X01049
X01061
Y0016825
X01049
Y0018025
X01061
X01037Y0016825
X01025
X01013
X01001
X00989
Y0018025
X01001
X01013
X00765Y00219
X0070675Y002185
X00648Y00221
X006265Y00339
X00619Y003755
X0061975Y003865
X0063025Y0038525
X0063125Y003965
X00642Y00396
X00692Y003975
X0070625Y00399
X0071175Y00391
X0069925Y0038725
X0071075Y0042825
X0070975Y0047975
X007505Y0048375
X0078125Y0050925
X00781Y0045675
X00793
X00805
Y0044475
X00793
X00781
X00765Y00401
X00811Y0038475
Y0037275
X00823
Y0038475
X00835
Y0037275
Y0036075
X00823
X00811
X007255Y0035625
X0065475Y00466
X0064525Y00476
X0064675Y0048875
X00631Y0048325
X0062925Y0047375
X006305Y0046
X00621Y0048475
X0061052Y0047575
X006025Y0046925
X005985Y004245
X005215Y0038825
X0051425Y00382
X00491025Y003855
X0048175Y00384032
X0047525Y00392
X0047725Y0030975
X004715Y003025
X004855Y00315
X004945Y00317
X005015Y0032475
X00551Y00299
X00523Y0046525
X0052275Y0048975
X0053825Y0049375
X00488Y0048175
X004715Y0047775
X0071475Y005375
X0072125Y00548
X0041025Y0055525
X0041125Y0048825
X003755Y0047875
Y0046675
Y0045475
X003635
Y0046675
Y0047875
X003515
Y0046675
Y0045475
X003395
X003275
Y0046675
Y0047875
X003395
Y0046675
X003625Y00424
X00324Y004075
X002875Y0039975
X002755Y003765
X002265Y00324
X00218263Y00330462
X0018475Y0031225
X001635Y003385
X002105Y0043175
X0021925Y0042625
X001935Y00545
X00422Y0043675
X00411Y0061625
X004325Y006785
X00418925Y00863925
X00406Y0086725
X00363Y008925
X00362Y0090975
X0035075Y009215
X00324Y0093225
X0031225Y00939692
X00334Y009435
X0034025Y0095125
X0032409Y009037
X0031275
Y0089203
X0032409
X0031675Y00861
X003295Y0085075
X0027975Y008485
X00285Y0086
X0028325Y00926
X0022725Y00946
X002275Y0090175
X0022675Y0088725
X00203Y0088425
Y0089625
X00191
Y0088425
X002265Y0084575
X0026175Y008045
X00284Y0077575
X0032425
X0019375Y0070725
X0019075Y0065275
X0019375Y0059875
X004795Y006175
X005465Y0061675
X0058425Y005675
X0058625Y0082525
X005995Y0082675
X0061675Y0082825
X0062925Y00828
X0064575Y0082425
X0065575Y008075
X006545Y0078825
X0065525Y0076925
X0073325Y0076375
Y0075175
Y0073975
X0074525
X0075725
X0076925
X0078125
Y0075175
Y0076375
X0076925
X0075725
Y0075175
X0076925
X0074525
Y0076375
X005215Y009195
X0050125Y009135
X005215Y0095225
X00448Y00948
X00976Y00863
Y00851
Y00839
X00988
X01
X01012
X01024
Y00851
Y00863
X01012
Y00851
X01
Y00863
X00988
Y00851
X0047025Y00975
Y01031
X005215
X00432Y0096425
X00399Y0099375
X0034425
Y0101225
X003055Y0095575
X0023175Y0096575
X0019575Y0095375
T02
X00995Y0031025
X01045
X01019Y0078825
X00969
T03
X0018615Y0013605
X0026235
Y0016145
Y0020005
Y0022545
Y0026405
Y0028945
X0018615
Y0026405
Y0022545
Y0020005
Y0016145
X002824Y005038
Y005292
X003586
Y005038
Y005678
Y005932
Y006318
Y006572
Y006958
Y007212
X002824
Y006958
Y006572
Y006318
Y005932
Y005678
T04
X0013425Y0086355
Y0088895
Y0091435
Y0093975
X0015965Y0092705
Y0090165
Y0087625
Y0085085
T05
X00563Y0013605
Y0016145
Y0018685
Y0021225
Y0023765
X005105Y006391
Y006645
Y006899
Y007153
Y007407
X0055665Y0087965
X0058205
X0060745
X0063285
X0067265
X0069805
X0072345
X0074885
Y0095585
X0072345
X0069805
X0067265
X0063285
X0060745
X0058205
X0055665
T06
X008509Y0025175
X008255
X008001
X0043975Y0027235
Y0029775
Y0032315
T07
X0002175Y00829
Y008544
Y009361
Y009615
T08
X0004155Y0013025
Y0016525
Y0020025
Y0023525
Y0027025
Y0030525
Y0034025
Y0037525
Y0041025
Y0044525
Y0048025
Y0051525
Y0055025
Y0058525
Y0062025
Y0065525
T09
X0010125Y008178
Y009727
M30
