M48
;Layer_Color=9474304
;FILE_FORMAT=4:4
METRIC,LZ
;TYPE=PLATED
T1F00S00C0.3000
T2F00S00C0.6600
T3F00S00C0.7000
T4F00S00C0.8000
T5F00S00C0.8128
T6F00S00C0.9000
T7F00S00C1.0000
T8F00S00C1.0700
T9F00S00C1.1000
T10F00S00C1.2700
T11F00S00C1.4000
T12F00S00C1.8000
T13F00S00C3.5000
;TYPE=NON_PLATED
T14F00S00C3.4000
%
T01
X00162Y00085
X001705Y0010425
X0059225Y0013575
X0060475Y001535
X006775Y0015675
X0069025Y00136
X0068625Y00117
X0076175Y001265
Y0014075
X0076075Y001515
X00796Y00099
X0081025Y0009875
X0085275Y0033125
X0094325Y004605
X00819636Y00516886
X0057075Y0051575
X0050325Y0050875
X00467Y0050975
X00464Y0048775
X00467Y004695
X0046775Y00456
X00571Y00429
X005045Y00356
X0051Y003335
X0053575Y00305
X0048925Y0028125
X004795Y0029
X0045151Y00279894
X00482Y002195
X0056025Y0018325
X0060625Y00179
Y0016575
X0061627Y002115
X0059675Y002165
X00609Y00234
X0065125Y0022825
X006695Y0018225
X00687Y00184
X00699738Y001655
X007085Y002135
X00759Y0020325
X00767Y0030975
X004375Y00289
X0041375Y0028
X0040475Y002895
X0037725Y0028125
X003835Y0027125
X00337Y002795
X003275Y0028625
X0030675Y0029
X0029925Y0027925
X0026225Y002795
X00256Y002925
X002705Y0029525
X0022925Y0029225
X0022425Y0027825
X002205Y002105
X00253Y0022
X0028975
X0032775
X0036475Y0022025
X004045Y00219
X00442Y0021975
X00335Y0032675
X0034Y003985
X0031025Y0042475
X0029075Y004355
X0027525Y00444
X0030975Y0046475
X003545Y0047027
X00372Y0047975
X0037425Y0050375
X00376266Y00531266
X003785Y00544
X0032075Y0052525
X0022225Y0048
X0020175Y00457
X00187Y005085
X0016625Y0050975
X00166Y00521
X0005675Y0050875
X0005525Y00542
X000795Y0044125
X0006775Y00429
X0004925Y004195
X0012075Y003645
X002575Y00333
X0004049Y0055926
X0016225Y0057902
X0020775Y006165
X0023525Y00639
X002765Y0061425
X0029252Y0069902
X0030252Y00699038
X0031252Y00699034
X0032252Y00699034
X0033275Y0069875
X0034425Y006985
X003525Y006895
X003325Y00687
X0035075Y0065325
X0037125Y0062975
X00378321Y00622679
X00393585Y00615
X0038125Y0066875
X00375Y007685
X00361Y00761
X0032475Y0075925
X00313Y007575
X003005
X0029375Y0074725
X0028225Y0075725
X002725Y00748
X002605Y0074
X0024275Y0075125
X0023275
X0021575Y007485
X0019225Y007505
X0019675Y00731
X002065Y0070575
X00402Y0078275
X004195Y0080625
X00408Y0082
X0037375Y0056448
X004845Y0077125
X0047825Y00782
X0048275Y007955
X00515Y008155
X0054425Y0080525
X0054925Y007815
X004495Y008355
X008205Y0055575
X0040175Y01004
X0039475Y0104625
X0041325Y0104525
X003915Y0109425
X0037075Y0109025
X00373322Y01101822
X003405Y01095
X00342Y0111225
X00333Y0104725
X003015Y00999625
X0029025Y0100975
X0007975Y01
X0009275Y009625
T02
X00067Y001342
X00152
Y001596
Y00185
Y002104
Y002358
Y002612
Y002866
Y00312
Y003374
Y003628
X00067
Y003374
Y00312
Y002866
Y002612
Y002358
Y002104
Y00185
Y001596
T03
X0004025Y0008175
X00866Y0007925
X008645Y0010725
X00865Y0013875
X0086525Y0016395
X008645Y001935
X00879Y0024225
X00823Y00271
X007435Y0034825
X0063875Y0035775
X00638Y003345
X0063775Y00304
X0063825Y004745
X00474Y003455
X0043575Y003675
X0038375Y0041925
X003275Y003845
X0009375Y0047625
X0010825Y0050125
X0004652Y0044325
X0002375Y0037375
X0005Y0069925
X0015675Y0079125
X00415Y00858
X0041725Y009525
X0079475Y0075775
X0088025Y0062925
Y00611875
Y005945
X0084825Y009545
X0077725Y0098975
X007845Y01026
X00496067Y00986639
X0045Y009695
X0006325Y0105575
T04
X0003465Y0082235
Y0084775
Y0087315
X0011085
Y0084775
Y0082235
X00575Y0091225
X006004
X006258
X006512
X00702
X007274
X0066575Y0066225
X0061575
X0087575Y007085
X0092575
X0051005Y0102805
X0048465
X0045925
Y0110425
X0048465
X0051005
T05
X0065765Y007308
Y007562
Y0078805
Y0081345
Y0084405
Y0086945
X0073385
Y0084405
Y0081345
Y0078805
Y007562
Y007308
T06
X00161Y0043625
X002225Y0045625
X0013825Y0050725
X00432Y0052575
X004325Y0055875
X00443Y005975
X0040025Y0063575
X0031575Y0078545
Y0081085
Y0083625
Y0086165
Y0088705
X0021925Y00859
X0025625Y0080625
T07
X005325Y00034
Y000594
Y000848
X005765
Y000594
Y00034
X00506Y0064735
Y0067275
Y0069815
Y0072355
X0039465Y009535
X0036925
X0034385
T08
X001807Y0003935
Y0006475
X002061
Y0003935
X002315
Y0006475
X0035025
Y0003935
X0037565
Y0006475
X0040105
Y0003935
X0042645
Y0006475
X0045185
Y0003935
X0099225Y0092495
X0101765
Y0095035
X0099225
Y0097575
X0101765
X002214Y0101575
Y0104115
Y0106655
X00196
Y0104115
Y0101575
T09
X0085085Y0098985
X0087625
X0088895Y0101525
X0086355
X0083815
X0081275
X0082545Y0098985
X0080005
X0067675
X0065135
X0062595
X0060055
X0061325Y0101525
X0063865
X0066405
X0068945
T10
X006141Y0058175
X006395
X006649
T11
X010125Y0009475
Y0014475
Y0019475
Y0024475
Y0029475
Y0034475
Y0039475
Y0044475
Y0049475
Y0054475
Y0059475
Y0064475
Y0070375
Y0075375
T12
X00922Y0110925
X00767
X007225
X005675
T13
X000325Y000295
X0102575
Y0108975
X000325
T14
X0090165Y0107875
X0078735
X0070215
X0058785
M30
