M48
;Layer_Color=9474304
;FILE_FORMAT=4:4
METRIC,LZ
;TYPE=PLATED
T1F00S00C0.3000
T2F00S00C0.7000
T3F00S00C0.8000
T4F00S00C1.0160
T5F00S00C1.0700
T6F00S00C1.4000
T7F00S00C1.5000
T8F00S00C3.5000
%
T01
X00885Y00446
X00916Y00788
X00315Y00706
X00712Y00873
X0073Y00872
X00765Y00867
X00768Y00852
X00755Y00842
X00907Y00809
X00937Y00923
T02
X0034Y006
X00328Y00693
T03
X00457Y00314
Y00364
X0056525
Y00314
X006735
Y00364
X0078175
Y00314
X0089
Y00364
T04
X003508Y003945
Y004199
Y004453
Y004707
Y004961
Y005215
Y005469
Y005723
X003498Y006305
Y006559
Y006813
Y007067
Y007321
Y007575
Y007829
X00299Y007702
Y007448
Y007194
Y00694
Y006686
Y006432
X003Y005596
Y005342
Y005088
Y004834
Y00458
Y004326
Y004072
X00299Y007956
X003498Y008083
T05
X00522Y008926
Y00918
X005474
Y008926
X005728
Y00918
X006896Y009154
Y0089
X00715
Y009154
X007404
Y0089
X007658
Y009154
X007912
Y0089
T06
X01005Y00476
Y00526
Y00576
Y00626
Y00676
Y00726
T07
X00922Y0042
Y00458
X00637Y00539
Y00588
Y00637
Y00686
T08
X00292Y00291
X01008
X020965Y-0283925
Y-038995
X0308975
Y-0283925
X00292Y00918
X01008
M30
