G04*
G04 #@! TF.GenerationSoftware,Altium Limited,Altium Designer,20.0.13 (296)*
G04*
G04 Layer_Color=32896*
%FSLAX44Y44*%
%MOMM*%
G71*
G01*
G75*
%ADD10C,0.2000*%
%ADD11C,0.6096*%
%ADD13C,0.1270*%
%ADD15C,0.3000*%
%ADD70C,0.2500*%
D10*
X150650Y769900D02*
G03*
X150650Y769900I-1000J0D01*
G01*
X580730Y312280D02*
G03*
X580730Y312280I-1000J0D01*
G01*
Y459177D02*
G03*
X580730Y459177I-1000J0D01*
G01*
X579850Y602350D02*
G03*
X579850Y602350I-1000J0D01*
G01*
X580850Y752850D02*
G03*
X580850Y752850I-1000J0D01*
G01*
X251030Y323330D02*
G03*
X251030Y323330I-1000J0D01*
G01*
Y470227D02*
G03*
X251030Y470227I-1000J0D01*
G01*
Y617123D02*
G03*
X251030Y617123I-1000J0D01*
G01*
X581500Y38650D02*
X594000D01*
X581500D02*
Y143650D01*
X594000D01*
X664838Y338582D02*
Y330585D01*
X668837D01*
X670170Y331918D01*
Y334584D01*
X668837Y335916D01*
X664838D01*
X667504D02*
X670170Y338582D01*
X678167Y330585D02*
X672835D01*
Y334584D01*
X675501Y333251D01*
X676834D01*
X678167Y334584D01*
Y337249D01*
X676834Y338582D01*
X674168D01*
X672835Y337249D01*
X680833Y339915D02*
X686164D01*
X688830Y331918D02*
X690163Y330585D01*
X692829D01*
X694162Y331918D01*
Y333251D01*
X692829Y334584D01*
X691496D01*
X692829D01*
X694162Y335916D01*
Y337249D01*
X692829Y338582D01*
X690163D01*
X688830Y337249D01*
X669338Y482332D02*
Y474335D01*
X673337D01*
X674670Y475668D01*
Y478334D01*
X673337Y479666D01*
X669338D01*
X672004D02*
X674670Y482332D01*
X682667Y474335D02*
X677336D01*
Y478334D01*
X680001Y477001D01*
X681334D01*
X682667Y478334D01*
Y480999D01*
X681334Y482332D01*
X678668D01*
X677336Y480999D01*
X685333Y483665D02*
X690665D01*
X698662Y482332D02*
X693330D01*
X698662Y477001D01*
Y475668D01*
X697329Y474335D01*
X694663D01*
X693330Y475668D01*
X676421Y633582D02*
Y625585D01*
X680420D01*
X681753Y626918D01*
Y629584D01*
X680420Y630916D01*
X676421D01*
X679087D02*
X681753Y633582D01*
X689750Y625585D02*
X684418D01*
Y629584D01*
X687084Y628251D01*
X688417D01*
X689750Y629584D01*
Y632249D01*
X688417Y633582D01*
X685751D01*
X684418Y632249D01*
X692416Y634915D02*
X697747D01*
X700413Y633582D02*
X703079D01*
X701746D01*
Y625585D01*
X700413Y626918D01*
X361294Y91866D02*
Y99863D01*
X357295D01*
X355962Y98531D01*
Y95865D01*
X357295Y94532D01*
X361294D01*
X358628D02*
X355962Y91866D01*
X353297D02*
X350631D01*
X351964D01*
Y99863D01*
X353297Y98531D01*
X346632D02*
X345299Y99863D01*
X342633D01*
X341300Y98531D01*
Y93199D01*
X342633Y91866D01*
X345299D01*
X346632Y93199D01*
Y98531D01*
X658728Y635041D02*
Y627044D01*
X654729D01*
X653396Y628377D01*
Y633708D01*
X654729Y635041D01*
X658728D01*
X646732Y627044D02*
Y635041D01*
X650731Y631043D01*
X645399D01*
X642733Y625711D02*
X637402D01*
X634736Y627044D02*
X632070D01*
X633403D01*
Y635041D01*
X634736Y633708D01*
X139912Y331165D02*
Y323168D01*
X135913D01*
X134580Y324501D01*
Y329832D01*
X135913Y331165D01*
X139912D01*
X131915Y329832D02*
X130582Y331165D01*
X127916D01*
X126583Y329832D01*
Y328499D01*
X127916Y327166D01*
X129249D01*
X127916D01*
X126583Y325834D01*
Y324501D01*
X127916Y323168D01*
X130582D01*
X131915Y324501D01*
X123917Y321835D02*
X118586D01*
X115920Y329832D02*
X114587Y331165D01*
X111921D01*
X110588Y329832D01*
Y328499D01*
X111921Y327166D01*
X113254D01*
X111921D01*
X110588Y325834D01*
Y324501D01*
X111921Y323168D01*
X114587D01*
X115920Y324501D01*
X659744Y344973D02*
Y336976D01*
X655745D01*
X654412Y338309D01*
Y343641D01*
X655745Y344973D01*
X659744D01*
X647748Y336976D02*
Y344973D01*
X651747Y340975D01*
X646415D01*
X643749Y335643D02*
X638418D01*
X635752Y343641D02*
X634419Y344973D01*
X631753D01*
X630420Y343641D01*
Y342308D01*
X631753Y340975D01*
X633086D01*
X631753D01*
X630420Y339642D01*
Y338309D01*
X631753Y336976D01*
X634419D01*
X635752Y338309D01*
X342254Y170582D02*
Y162585D01*
X346253D01*
X347586Y163918D01*
Y166583D01*
X346253Y167917D01*
X342254D01*
X344920D02*
X347586Y170582D01*
X350252D02*
X352918D01*
X351585D01*
Y162585D01*
X350252Y163918D01*
X356917Y171915D02*
X362248D01*
X364914Y163918D02*
X366247Y162585D01*
X368913D01*
X370246Y163918D01*
Y165251D01*
X368913Y166583D01*
X367580D01*
X368913D01*
X370246Y167917D01*
Y169249D01*
X368913Y170582D01*
X366247D01*
X364914Y169249D01*
X362912Y197918D02*
Y205915D01*
X358913D01*
X357580Y204582D01*
Y201917D01*
X358913Y200583D01*
X362912D01*
X360246D02*
X357580Y197918D01*
X349583D02*
X354915D01*
X349583Y203249D01*
Y204582D01*
X350916Y205915D01*
X353582D01*
X354915Y204582D01*
X346917Y196585D02*
X341586D01*
X338920Y204582D02*
X337587Y205915D01*
X334921D01*
X333588Y204582D01*
Y203249D01*
X334921Y201917D01*
X336254D01*
X334921D01*
X333588Y200583D01*
Y199251D01*
X334921Y197918D01*
X337587D01*
X338920Y199251D01*
X606412Y279418D02*
Y287415D01*
X602413D01*
X601080Y286082D01*
Y283417D01*
X602413Y282084D01*
X606412D01*
X603746D02*
X601080Y279418D01*
X594416D02*
Y287415D01*
X598414Y283417D01*
X593083D01*
X590417Y278085D02*
X585085D01*
X582420Y286082D02*
X581087Y287415D01*
X578421D01*
X577088Y286082D01*
Y284749D01*
X578421Y283417D01*
X579754D01*
X578421D01*
X577088Y282084D01*
Y280751D01*
X578421Y279418D01*
X581087D01*
X582420Y280751D01*
X136662Y474665D02*
Y466668D01*
X132663D01*
X131330Y468001D01*
Y473332D01*
X132663Y474665D01*
X136662D01*
X128665Y473332D02*
X127332Y474665D01*
X124666D01*
X123333Y473332D01*
Y471999D01*
X124666Y470667D01*
X125999D01*
X124666D01*
X123333Y469334D01*
Y468001D01*
X124666Y466668D01*
X127332D01*
X128665Y468001D01*
X120667Y465335D02*
X115336D01*
X107338Y466668D02*
X112670D01*
X107338Y471999D01*
Y473332D01*
X108671Y474665D01*
X111337D01*
X112670Y473332D01*
X659744Y491785D02*
Y483788D01*
X655745D01*
X654412Y485121D01*
Y490452D01*
X655745Y491785D01*
X659744D01*
X647748Y483788D02*
Y491785D01*
X651747Y487787D01*
X646415D01*
X643749Y482455D02*
X638418D01*
X630420Y483788D02*
X635752D01*
X630420Y489120D01*
Y490452D01*
X631753Y491785D01*
X634419D01*
X635752Y490452D01*
X362662Y353418D02*
Y361415D01*
X358663D01*
X357330Y360082D01*
Y357416D01*
X358663Y356084D01*
X362662D01*
X359996D02*
X357330Y353418D01*
X349333D02*
X354664D01*
X349333Y358749D01*
Y360082D01*
X350666Y361415D01*
X353332D01*
X354664Y360082D01*
X346667Y352085D02*
X341335D01*
X333338Y353418D02*
X338670D01*
X333338Y358749D01*
Y360082D01*
X334671Y361415D01*
X337337D01*
X338670Y360082D01*
X605912Y426418D02*
Y434415D01*
X601913D01*
X600580Y433082D01*
Y430416D01*
X601913Y429084D01*
X605912D01*
X603246D02*
X600580Y426418D01*
X593916D02*
Y434415D01*
X597915Y430416D01*
X592583D01*
X589917Y425085D02*
X584585D01*
X576588Y426418D02*
X581920D01*
X576588Y431749D01*
Y433082D01*
X577921Y434415D01*
X580587D01*
X581920Y433082D01*
X141329Y624915D02*
Y616918D01*
X137330D01*
X135997Y618251D01*
Y623582D01*
X137330Y624915D01*
X141329D01*
X133332Y623582D02*
X131999Y624915D01*
X129333D01*
X128000Y623582D01*
Y622249D01*
X129333Y620916D01*
X130666D01*
X129333D01*
X128000Y619584D01*
Y618251D01*
X129333Y616918D01*
X131999D01*
X133332Y618251D01*
X125334Y615585D02*
X120003D01*
X117337Y616918D02*
X114671D01*
X116004D01*
Y624915D01*
X117337Y623582D01*
X358079Y499168D02*
Y507165D01*
X354080D01*
X352747Y505832D01*
Y503167D01*
X354080Y501834D01*
X358079D01*
X355413D02*
X352747Y499168D01*
X344750D02*
X350082D01*
X344750Y504499D01*
Y505832D01*
X346083Y507165D01*
X348749D01*
X350082Y505832D01*
X342084Y497835D02*
X336753D01*
X334087Y499168D02*
X331421D01*
X332754D01*
Y507165D01*
X334087Y505832D01*
X602829Y572918D02*
Y580915D01*
X598830D01*
X597497Y579582D01*
Y576917D01*
X598830Y575584D01*
X602829D01*
X600163D02*
X597497Y572918D01*
X590833D02*
Y580915D01*
X594832Y576917D01*
X589500D01*
X586834Y571585D02*
X581503D01*
X578837Y572918D02*
X576171D01*
X577504D01*
Y580915D01*
X578837Y579582D01*
X596914Y718751D02*
Y726749D01*
X592916D01*
X591583Y725416D01*
Y722750D01*
X592916Y721417D01*
X596914D01*
X594249D02*
X591583Y718751D01*
X584918D02*
Y726749D01*
X588917Y722750D01*
X583586D01*
X344664Y642751D02*
Y650749D01*
X340666D01*
X339333Y649416D01*
Y646750D01*
X340666Y645417D01*
X344664D01*
X341999D02*
X339333Y642751D01*
X331335D02*
X336667D01*
X331335Y648083D01*
Y649416D01*
X332668Y650749D01*
X335334D01*
X336667Y649416D01*
X725500Y61984D02*
X724167Y60651D01*
X721501D01*
X720168Y61984D01*
Y67316D01*
X721501Y68649D01*
X724167D01*
X725500Y67316D01*
Y64650D01*
X722834D01*
X728166Y68649D02*
X730832D01*
X729499D01*
Y60651D01*
X728166Y61984D01*
X485247Y662249D02*
Y654251D01*
X481248D01*
X479915Y655584D01*
Y660916D01*
X481248Y662249D01*
X485247D01*
X477249Y654251D02*
X474584D01*
X475916D01*
Y662249D01*
X477249Y660916D01*
X470585D02*
X469252Y662249D01*
X466586D01*
X465253Y660916D01*
Y659583D01*
X466586Y658250D01*
X467919D01*
X466586D01*
X465253Y656917D01*
Y655584D01*
X466586Y654251D01*
X469252D01*
X470585Y655584D01*
X483747Y515749D02*
Y507751D01*
X479748D01*
X478415Y509084D01*
Y514416D01*
X479748Y515749D01*
X483747D01*
X475749Y507751D02*
X473084D01*
X474417D01*
Y515749D01*
X475749Y514416D01*
X463753Y507751D02*
X469085D01*
X463753Y513083D01*
Y514416D01*
X465086Y515749D01*
X467752D01*
X469085Y514416D01*
X488747Y369999D02*
Y362001D01*
X484748D01*
X483415Y363334D01*
Y368666D01*
X484748Y369999D01*
X488747D01*
X480749Y362001D02*
X478083D01*
X479416D01*
Y369999D01*
X480749Y368666D01*
X474085D02*
X472752Y369999D01*
X470086D01*
X468753Y368666D01*
Y363334D01*
X470086Y362001D01*
X472752D01*
X474085Y363334D01*
Y368666D01*
X487664Y226249D02*
Y218251D01*
X483666D01*
X482333Y219584D01*
Y224916D01*
X483666Y226249D01*
X487664D01*
X479667Y219584D02*
X478334Y218251D01*
X475668D01*
X474336Y219584D01*
Y224916D01*
X475668Y226249D01*
X478334D01*
X479667Y224916D01*
Y223583D01*
X478334Y222250D01*
X474336D01*
X659744Y784139D02*
Y776142D01*
X655745D01*
X654412Y777475D01*
Y782806D01*
X655745Y784139D01*
X659744D01*
X647748Y776142D02*
Y784139D01*
X651747Y780141D01*
X646415D01*
X35164Y776499D02*
Y768501D01*
X31166D01*
X29833Y769834D01*
Y775166D01*
X31166Y776499D01*
X35164D01*
X27167Y775166D02*
X25834Y776499D01*
X23168D01*
X21835Y775166D01*
Y773833D01*
X23168Y772500D01*
X24501D01*
X23168D01*
X21835Y771167D01*
Y769834D01*
X23168Y768501D01*
X25834D01*
X27167Y769834D01*
D11*
X451170Y171820D02*
G03*
X451170Y171820I-1500J0D01*
G01*
X450170Y318570D02*
G03*
X450170Y318570I-1500J0D01*
G01*
Y466070D02*
G03*
X450170Y466070I-1500J0D01*
G01*
X450920Y612320D02*
G03*
X450920Y612320I-1500J0D01*
G01*
D13*
X83375Y756375D02*
Y758000D01*
Y782000D02*
Y783625D01*
X127125Y756375D02*
Y758000D01*
Y782000D02*
Y783625D01*
X83375Y756375D02*
X127125D01*
X83375Y783625D02*
X127125D01*
X452200Y180700D02*
Y249300D01*
X393800Y180700D02*
Y249300D01*
X451200Y327450D02*
Y396050D01*
X392800Y327450D02*
Y396050D01*
X451200Y474950D02*
Y543550D01*
X392800Y474950D02*
Y543550D01*
X451950Y621200D02*
Y689800D01*
X393550Y621200D02*
Y689800D01*
X602255Y298555D02*
X646005D01*
X602255Y325805D02*
X646005D01*
X602255Y298555D02*
Y300180D01*
Y324180D02*
Y325805D01*
X646005Y298555D02*
Y300180D01*
Y324180D02*
Y325805D01*
X602255Y445452D02*
X646005D01*
X602255Y472702D02*
X646005D01*
X602255Y445452D02*
Y447077D01*
Y471077D02*
Y472702D01*
X646005Y445452D02*
Y447077D01*
Y471077D02*
Y472702D01*
X601375Y588625D02*
X645125D01*
X601375Y615875D02*
X645125D01*
X601375Y588625D02*
Y590250D01*
Y614250D02*
Y615875D01*
X645125Y588625D02*
Y590250D01*
Y614250D02*
Y615875D01*
X602375Y739125D02*
X646125D01*
X602375Y766375D02*
X646125D01*
X602375Y739125D02*
Y740750D01*
Y764750D02*
Y766375D01*
X646125Y739125D02*
Y740750D01*
Y764750D02*
Y766375D01*
X183755Y337055D02*
X227505D01*
X183755Y309805D02*
X227505D01*
Y335430D02*
Y337055D01*
Y309805D02*
Y311430D01*
X183755Y335430D02*
Y337055D01*
Y309805D02*
Y311430D01*
Y483952D02*
X227505D01*
X183755Y456702D02*
X227505D01*
Y482327D02*
Y483952D01*
Y456702D02*
Y458327D01*
X183755Y482327D02*
Y483952D01*
Y456702D02*
Y458327D01*
Y630848D02*
X227505D01*
X183755Y603598D02*
X227505D01*
Y629223D02*
Y630848D01*
Y603598D02*
Y605223D01*
X183755Y629223D02*
Y630848D01*
Y603598D02*
Y605223D01*
D15*
X102850Y200070D02*
X264140D01*
X102850D02*
Y306750D01*
X264140D01*
Y200070D02*
Y306750D01*
X102850Y346967D02*
X264140D01*
X102850D02*
Y453647D01*
X264140D01*
Y346967D02*
Y453647D01*
X102850Y493863D02*
X264140D01*
X102850D02*
Y600543D01*
X264140D01*
Y493863D02*
Y600543D01*
X102970Y640640D02*
X264260D01*
X102970D02*
Y747320D01*
X264260D01*
Y640640D02*
Y747320D01*
X724640Y200070D02*
Y306750D01*
Y200070D02*
X885930D01*
Y306750D01*
X724640D02*
X885930D01*
X724640Y346967D02*
Y453647D01*
Y346967D02*
X885930D01*
Y453647D01*
X724640D02*
X885930D01*
X724640Y493863D02*
Y600543D01*
Y493863D02*
X885930D01*
Y600543D01*
X724640D02*
X885930D01*
X724640Y640760D02*
Y747440D01*
Y640760D02*
X885930D01*
Y747440D01*
X724640D02*
X885930D01*
D70*
X540750Y54750D02*
G03*
X540750Y54750I-1250J0D01*
G01*
M02*
