G04*
G04 #@! TF.GenerationSoftware,Altium Limited,Altium Designer,20.0.13 (296)*
G04*
G04 Layer_Color=65535*
%FSLAX44Y44*%
%MOMM*%
G71*
G01*
G75*
%ADD10C,0.2000*%
%ADD11C,0.6096*%
%ADD12C,0.2540*%
%ADD13C,0.1270*%
%ADD14C,0.1500*%
%ADD15C,0.3000*%
D10*
X153025Y769350D02*
G03*
X153025Y769350I-1000J0D01*
G01*
X166200Y4950D02*
G03*
X166200Y4950I-1000J0D01*
G01*
X631050Y50750D02*
G03*
X631050Y50750I-1000J0D01*
G01*
X798100Y49500D02*
G03*
X798100Y49500I-1000J0D01*
G01*
X575000Y821250D02*
G03*
X575000Y821250I-1000J0D01*
G01*
X390250Y4950D02*
G03*
X390250Y4950I-1000J0D01*
G01*
X264480Y316330D02*
G03*
X264480Y316330I-1000J0D01*
G01*
Y463227D02*
G03*
X264480Y463227I-1000J0D01*
G01*
X262850Y609150D02*
G03*
X262850Y609150I-1000J0D01*
G01*
X264100Y756650D02*
G03*
X264100Y756650I-1000J0D01*
G01*
X272980Y196530D02*
G03*
X272980Y196530I-1000J0D01*
G01*
Y343427D02*
G03*
X272980Y343427I-1000J0D01*
G01*
Y490323D02*
G03*
X272980Y490323I-1000J0D01*
G01*
X273100Y637100D02*
G03*
X273100Y637100I-1000J0D01*
G01*
X251030Y322280D02*
G03*
X251030Y322280I-1000J0D01*
G01*
Y469177D02*
G03*
X251030Y469177I-1000J0D01*
G01*
Y616073D02*
G03*
X251030Y616073I-1000J0D01*
G01*
X755500Y844750D02*
G03*
X755500Y844750I-50000J0D01*
G01*
X131750Y849000D02*
G03*
X131750Y849000I-50000J0D01*
G01*
X705500Y900000D02*
Y907000D01*
X702000Y903500D02*
X709000D01*
X81750Y904250D02*
Y911250D01*
X78250Y907750D02*
X85250D01*
X123668Y796999D02*
Y789001D01*
X127667D01*
X129000Y790334D01*
Y795666D01*
X127667Y796999D01*
X123668D01*
X131666Y789001D02*
X134332D01*
X132999D01*
Y796999D01*
X131666Y795666D01*
X98251Y22917D02*
Y20251D01*
Y21584D01*
X104916D01*
X106249Y20251D01*
Y18918D01*
X104916Y17586D01*
X99584Y25583D02*
X98251Y26916D01*
Y29582D01*
X99584Y30914D01*
X100917D01*
X102250Y29582D01*
Y28249D01*
Y29582D01*
X103583Y30914D01*
X104916D01*
X106249Y29582D01*
Y26916D01*
X104916Y25583D01*
X196880Y272911D02*
X198914D01*
X197897D01*
Y266810D01*
X196880D01*
X198914D01*
X201964D02*
Y272911D01*
X205014D01*
X206031Y271894D01*
Y269860D01*
X205014Y268844D01*
X201964D01*
X203998D02*
X206031Y266810D01*
X212132D02*
X208065D01*
X212132Y270877D01*
Y271894D01*
X211115Y272911D01*
X209082D01*
X208065Y271894D01*
X214166Y266810D02*
X216199D01*
X215182D01*
Y272911D01*
X214166Y271894D01*
X219250D02*
X220266Y272911D01*
X222300D01*
X223317Y271894D01*
Y267827D01*
X222300Y266810D01*
X220266D01*
X219250Y267827D01*
Y271894D01*
X228401Y266810D02*
Y272911D01*
X225351Y269860D01*
X229418D01*
X197110Y420737D02*
X199144D01*
X198127D01*
Y414637D01*
X197110D01*
X199144D01*
X202194D02*
Y420737D01*
X205244D01*
X206261Y419721D01*
Y417687D01*
X205244Y416670D01*
X202194D01*
X204228D02*
X206261Y414637D01*
X212362D02*
X208295D01*
X212362Y418704D01*
Y419721D01*
X211345Y420737D01*
X209312D01*
X208295Y419721D01*
X214396Y414637D02*
X216429D01*
X215413D01*
Y420737D01*
X214396Y419721D01*
X219480D02*
X220497Y420737D01*
X222530D01*
X223547Y419721D01*
Y415653D01*
X222530Y414637D01*
X220497D01*
X219480Y415653D01*
Y419721D01*
X228631Y414637D02*
Y420737D01*
X225581Y417687D01*
X229648D01*
X197110Y567634D02*
X199144D01*
X198127D01*
Y561533D01*
X197110D01*
X199144D01*
X202194D02*
Y567634D01*
X205244D01*
X206261Y566617D01*
Y564584D01*
X205244Y563567D01*
X202194D01*
X204228D02*
X206261Y561533D01*
X212362D02*
X208295D01*
X212362Y565601D01*
Y566617D01*
X211345Y567634D01*
X209312D01*
X208295Y566617D01*
X214396Y561533D02*
X216429D01*
X215413D01*
Y567634D01*
X214396Y566617D01*
X219480D02*
X220497Y567634D01*
X222530D01*
X223547Y566617D01*
Y562550D01*
X222530Y561533D01*
X220497D01*
X219480Y562550D01*
Y566617D01*
X228631Y561533D02*
Y567634D01*
X225581Y564584D01*
X229648D01*
X197230Y714411D02*
X199264D01*
X198247D01*
Y708310D01*
X197230D01*
X199264D01*
X202314D02*
Y714411D01*
X205364D01*
X206381Y713394D01*
Y711360D01*
X205364Y710344D01*
X202314D01*
X204348D02*
X206381Y708310D01*
X212482D02*
X208415D01*
X212482Y712377D01*
Y713394D01*
X211465Y714411D01*
X209432D01*
X208415Y713394D01*
X214516Y708310D02*
X216549D01*
X215532D01*
Y714411D01*
X214516Y713394D01*
X219600D02*
X220616Y714411D01*
X222650D01*
X223667Y713394D01*
Y709327D01*
X222650Y708310D01*
X220616D01*
X219600Y709327D01*
Y713394D01*
X228751Y708310D02*
Y714411D01*
X225700Y711360D01*
X229768D01*
X157003Y289168D02*
X159669D01*
X158336D01*
Y297165D01*
X157003Y295832D01*
X163668Y287835D02*
X168999D01*
X171665Y295832D02*
X172998Y297165D01*
X175664D01*
X176997Y295832D01*
Y294499D01*
X175664Y293167D01*
X174331D01*
X175664D01*
X176997Y291834D01*
Y290501D01*
X175664Y289168D01*
X172998D01*
X171665Y290501D01*
X158336Y586168D02*
X161002D01*
X159669D01*
Y594165D01*
X158336Y592832D01*
X165001Y584835D02*
X170332D01*
X172998Y586168D02*
X175664D01*
X174331D01*
Y594165D01*
X172998Y592832D01*
X157753Y436668D02*
X160419D01*
X159086D01*
Y444665D01*
X157753Y443332D01*
X164418Y435335D02*
X169749D01*
X177747Y436668D02*
X172415D01*
X177747Y441999D01*
Y443332D01*
X176414Y444665D01*
X173748D01*
X172415Y443332D01*
X308085Y785999D02*
Y778001D01*
X312084D01*
X313417Y779334D01*
Y784666D01*
X312084Y785999D01*
X308085D01*
X321414D02*
X316083D01*
Y782000D01*
X318749Y783333D01*
X320082D01*
X321414Y782000D01*
Y779334D01*
X320082Y778001D01*
X317416D01*
X316083Y779334D01*
X634001Y59085D02*
X640666D01*
X641999Y60418D01*
Y63084D01*
X640666Y64417D01*
X634001D01*
X641999Y72414D02*
Y67083D01*
X636667Y72414D01*
X635334D01*
X634001Y71082D01*
Y68416D01*
X635334Y67083D01*
X801001Y59168D02*
X807666D01*
X808999Y60501D01*
Y63167D01*
X807666Y64500D01*
X801001D01*
X808999Y67166D02*
Y69832D01*
Y68499D01*
X801001D01*
X802334Y67166D01*
X653163Y95499D02*
Y87501D01*
X649165D01*
X647832Y88834D01*
Y91500D01*
X649165Y92833D01*
X653163D01*
X650497D02*
X647832Y95499D01*
X641167D02*
Y87501D01*
X645166Y91500D01*
X639834D01*
X631837Y95499D02*
X637168D01*
X631837Y90167D01*
Y88834D01*
X633170Y87501D01*
X635835D01*
X637168Y88834D01*
X652163Y37749D02*
Y29751D01*
X648165D01*
X646832Y31084D01*
Y33750D01*
X648165Y35083D01*
X652163D01*
X649497D02*
X646832Y37749D01*
X640167D02*
Y29751D01*
X644166Y33750D01*
X638834D01*
X636168Y31084D02*
X634835Y29751D01*
X632170D01*
X630837Y31084D01*
Y36416D01*
X632170Y37749D01*
X634835D01*
X636168Y36416D01*
Y31084D01*
X505087Y87251D02*
Y95249D01*
X509086D01*
X510418Y93916D01*
Y91250D01*
X509086Y89917D01*
X505087D01*
X507753D02*
X510418Y87251D01*
X518416D02*
X513084D01*
X518416Y92583D01*
Y93916D01*
X517083Y95249D01*
X514417D01*
X513084Y93916D01*
X521082D02*
X522415Y95249D01*
X525080D01*
X526413Y93916D01*
Y92583D01*
X525080Y91250D01*
X526413Y89917D01*
Y88584D01*
X525080Y87251D01*
X522415D01*
X521082Y88584D01*
Y89917D01*
X522415Y91250D01*
X521082Y92583D01*
Y93916D01*
X522415Y91250D02*
X525080D01*
X505087Y67501D02*
Y75499D01*
X509086D01*
X510418Y74166D01*
Y71500D01*
X509086Y70167D01*
X505087D01*
X507753D02*
X510418Y67501D01*
X518416D02*
X513084D01*
X518416Y72833D01*
Y74166D01*
X517083Y75499D01*
X514417D01*
X513084Y74166D01*
X521082Y75499D02*
X526413D01*
Y74166D01*
X521082Y68834D01*
Y67501D01*
X505087Y46251D02*
Y54249D01*
X509086D01*
X510418Y52916D01*
Y50250D01*
X509086Y48917D01*
X505087D01*
X507753D02*
X510418Y46251D01*
X518416D02*
X513084D01*
X518416Y51583D01*
Y52916D01*
X517083Y54249D01*
X514417D01*
X513084Y52916D01*
X526413Y54249D02*
X523747Y52916D01*
X521082Y50250D01*
Y47584D01*
X522415Y46251D01*
X525080D01*
X526413Y47584D01*
Y48917D01*
X525080Y50250D01*
X521082D01*
X505087Y26001D02*
Y33999D01*
X509086D01*
X510418Y32666D01*
Y30000D01*
X509086Y28667D01*
X505087D01*
X507753D02*
X510418Y26001D01*
X518416D02*
X513084D01*
X518416Y31333D01*
Y32666D01*
X517083Y33999D01*
X514417D01*
X513084Y32666D01*
X526413Y33999D02*
X521082D01*
Y30000D01*
X523747Y31333D01*
X525080D01*
X526413Y30000D01*
Y27334D01*
X525080Y26001D01*
X522415D01*
X521082Y27334D01*
X784663Y109499D02*
Y101501D01*
X780665D01*
X779332Y102834D01*
Y105500D01*
X780665Y106833D01*
X784663D01*
X781997D02*
X779332Y109499D01*
X771334D02*
X776666D01*
X771334Y104167D01*
Y102834D01*
X772667Y101501D01*
X775333D01*
X776666Y102834D01*
X763337Y109499D02*
X768668D01*
X763337Y104167D01*
Y102834D01*
X764670Y101501D01*
X767336D01*
X768668Y102834D01*
X819080Y35749D02*
Y27751D01*
X815082D01*
X813749Y29084D01*
Y31750D01*
X815082Y33083D01*
X819080D01*
X816414D02*
X813749Y35749D01*
X805751D02*
X811083D01*
X805751Y30417D01*
Y29084D01*
X807084Y27751D01*
X809750D01*
X811083Y29084D01*
X803085Y35749D02*
X800420D01*
X801752D01*
Y27751D01*
X803085Y29084D01*
X678504Y85501D02*
Y93499D01*
X682502D01*
X683835Y92166D01*
Y89500D01*
X682502Y88167D01*
X678504D01*
X681170D02*
X683835Y85501D01*
X691833D02*
X686501D01*
X691833Y90833D01*
Y92166D01*
X690500Y93499D01*
X687834D01*
X686501Y92166D01*
X694499D02*
X695832Y93499D01*
X698497D01*
X699830Y92166D01*
Y86834D01*
X698497Y85501D01*
X695832D01*
X694499Y86834D01*
Y92166D01*
X680003Y66751D02*
Y74749D01*
X684002D01*
X685335Y73416D01*
Y70750D01*
X684002Y69417D01*
X680003D01*
X682669D02*
X685335Y66751D01*
X688001D02*
X690667D01*
X689334D01*
Y74749D01*
X688001Y73416D01*
X694665Y68084D02*
X695998Y66751D01*
X698664D01*
X699997Y68084D01*
Y73416D01*
X698664Y74749D01*
X695998D01*
X694665Y73416D01*
Y72083D01*
X695998Y70750D01*
X699997D01*
X680003Y48001D02*
Y55999D01*
X684002D01*
X685335Y54666D01*
Y52000D01*
X684002Y50667D01*
X680003D01*
X682669D02*
X685335Y48001D01*
X688001D02*
X690667D01*
X689334D01*
Y55999D01*
X688001Y54666D01*
X694665D02*
X695998Y55999D01*
X698664D01*
X699997Y54666D01*
Y53333D01*
X698664Y52000D01*
X699997Y50667D01*
Y49334D01*
X698664Y48001D01*
X695998D01*
X694665Y49334D01*
Y50667D01*
X695998Y52000D01*
X694665Y53333D01*
Y54666D01*
X695998Y52000D02*
X698664D01*
X680003Y32251D02*
Y40249D01*
X684002D01*
X685335Y38916D01*
Y36250D01*
X684002Y34917D01*
X680003D01*
X682669D02*
X685335Y32251D01*
X688001D02*
X690667D01*
X689334D01*
Y40249D01*
X688001Y38916D01*
X694665Y40249D02*
X699997D01*
Y38916D01*
X694665Y33584D01*
Y32251D01*
X753167Y891416D02*
X751834Y892749D01*
X749168D01*
X747835Y891416D01*
Y886084D01*
X749168Y884751D01*
X751834D01*
X753167Y886084D01*
X761164Y892749D02*
X755833D01*
Y888750D01*
X758499Y890083D01*
X759832D01*
X761164Y888750D01*
Y886084D01*
X759832Y884751D01*
X757166D01*
X755833Y886084D01*
X133583Y886584D02*
X134916Y885251D01*
X137582D01*
X138914Y886584D01*
Y891916D01*
X137582Y893249D01*
X134916D01*
X133583Y891916D01*
X126918Y893249D02*
Y885251D01*
X130917Y889250D01*
X125585D01*
X54968Y321288D02*
X53635Y322621D01*
X50969D01*
X49636Y321288D01*
Y315957D01*
X50969Y314624D01*
X53635D01*
X54968Y315957D01*
X57633Y314624D02*
X60299D01*
X58966D01*
Y322621D01*
X57633Y321288D01*
X64298Y313291D02*
X69630D01*
X72295Y321288D02*
X73628Y322621D01*
X76294D01*
X77627Y321288D01*
Y319956D01*
X76294Y318623D01*
X74961D01*
X76294D01*
X77627Y317290D01*
Y315957D01*
X76294Y314624D01*
X73628D01*
X72295Y315957D01*
X170032Y354879D02*
Y346882D01*
X174031D01*
X175364Y348215D01*
Y353546D01*
X174031Y354879D01*
X170032D01*
X178029Y346882D02*
X180695D01*
X179362D01*
Y354879D01*
X178029Y353546D01*
X184694Y345549D02*
X190026D01*
X192691Y353546D02*
X194024Y354879D01*
X196690D01*
X198023Y353546D01*
Y352214D01*
X196690Y350881D01*
X195357D01*
X196690D01*
X198023Y349548D01*
Y348215D01*
X196690Y346882D01*
X194024D01*
X192691Y348215D01*
X216088Y223165D02*
Y215168D01*
X220087D01*
X221420Y216501D01*
Y221832D01*
X220087Y223165D01*
X216088D01*
X229417Y215168D02*
X224086D01*
X229417Y220499D01*
Y221832D01*
X228084Y223165D01*
X225418D01*
X224086Y221832D01*
X232083Y213835D02*
X237414D01*
X240080Y221832D02*
X241413Y223165D01*
X244079D01*
X245412Y221832D01*
Y220499D01*
X244079Y219167D01*
X242746D01*
X244079D01*
X245412Y217834D01*
Y216501D01*
X244079Y215168D01*
X241413D01*
X240080Y216501D01*
X54968Y468101D02*
X53635Y469433D01*
X50969D01*
X49636Y468101D01*
Y462769D01*
X50969Y461436D01*
X53635D01*
X54968Y462769D01*
X57633Y461436D02*
X60299D01*
X58966D01*
Y469433D01*
X57633Y468101D01*
X64298Y460103D02*
X69630D01*
X77627Y461436D02*
X72295D01*
X77627Y466768D01*
Y468101D01*
X76294Y469433D01*
X73628D01*
X72295Y468101D01*
X170032Y501945D02*
Y493948D01*
X174031D01*
X175364Y495281D01*
Y500612D01*
X174031Y501945D01*
X170032D01*
X178029Y493948D02*
X180695D01*
X179362D01*
Y501945D01*
X178029Y500612D01*
X184694Y492615D02*
X190026D01*
X198023Y493948D02*
X192691D01*
X198023Y499280D01*
Y500612D01*
X196690Y501945D01*
X194024D01*
X192691Y500612D01*
X219088Y371165D02*
Y363168D01*
X223087D01*
X224420Y364501D01*
Y369832D01*
X223087Y371165D01*
X219088D01*
X232417Y363168D02*
X227085D01*
X232417Y368499D01*
Y369832D01*
X231084Y371165D01*
X228418D01*
X227085Y369832D01*
X235083Y361835D02*
X240415D01*
X248412Y363168D02*
X243080D01*
X248412Y368499D01*
Y369832D01*
X247079Y371165D01*
X244413D01*
X243080Y369832D01*
X54968Y615167D02*
X53635Y616499D01*
X50969D01*
X49636Y615167D01*
Y609835D01*
X50969Y608502D01*
X53635D01*
X54968Y609835D01*
X57633Y608502D02*
X60299D01*
X58966D01*
Y616499D01*
X57633Y615167D01*
X64298Y607169D02*
X69630D01*
X72295Y608502D02*
X74961D01*
X73628D01*
Y616499D01*
X72295Y615167D01*
X170032Y648757D02*
Y640760D01*
X174031D01*
X175364Y642093D01*
Y647424D01*
X174031Y648757D01*
X170032D01*
X178029Y640760D02*
X180695D01*
X179362D01*
Y648757D01*
X178029Y647424D01*
X184694Y639427D02*
X190026D01*
X192691Y640760D02*
X195357D01*
X194024D01*
Y648757D01*
X192691Y647424D01*
X221671Y520665D02*
Y512668D01*
X225670D01*
X227003Y514001D01*
Y519332D01*
X225670Y520665D01*
X221671D01*
X235000Y512668D02*
X229668D01*
X235000Y517999D01*
Y519332D01*
X233667Y520665D01*
X231001D01*
X229668Y519332D01*
X237666Y511335D02*
X242997D01*
X245663Y512668D02*
X248329D01*
X246996D01*
Y520665D01*
X245663Y519332D01*
X672586Y736001D02*
Y743999D01*
X676584D01*
X677917Y742666D01*
Y740000D01*
X676584Y738667D01*
X672586D01*
X675251D02*
X677917Y736001D01*
X685915Y743999D02*
X680583D01*
Y740000D01*
X683249Y741333D01*
X684582D01*
X685915Y740000D01*
Y737334D01*
X684582Y736001D01*
X681916D01*
X680583Y737334D01*
X344836Y730001D02*
Y737999D01*
X348834D01*
X350167Y736666D01*
Y734000D01*
X348834Y732667D01*
X344836D01*
X347501D02*
X350167Y730001D01*
X352833Y736666D02*
X354166Y737999D01*
X356832D01*
X358164Y736666D01*
Y735333D01*
X356832Y734000D01*
X355499D01*
X356832D01*
X358164Y732667D01*
Y731334D01*
X356832Y730001D01*
X354166D01*
X352833Y731334D01*
X343668Y645251D02*
Y653249D01*
X347667D01*
X349000Y651916D01*
Y649250D01*
X347667Y647917D01*
X343668D01*
X346334D02*
X349000Y645251D01*
X351666D02*
X354332D01*
X352999D01*
Y653249D01*
X351666Y651916D01*
X849920Y283751D02*
Y289082D01*
X848587Y290415D01*
X845921D01*
X844588Y289082D01*
Y283751D01*
X845921Y282418D01*
X848587D01*
X847254Y285084D02*
X849920Y282418D01*
X848587D02*
X849920Y283751D01*
X857917Y282418D02*
X852586D01*
X857917Y287749D01*
Y289082D01*
X856584Y290415D01*
X853918D01*
X852586Y289082D01*
X860583Y281085D02*
X865915D01*
X868580Y289082D02*
X869913Y290415D01*
X872579D01*
X873912Y289082D01*
Y287749D01*
X872579Y286416D01*
X871246D01*
X872579D01*
X873912Y285084D01*
Y283751D01*
X872579Y282418D01*
X869913D01*
X868580Y283751D01*
X120086Y280251D02*
Y285582D01*
X118753Y286915D01*
X116087D01*
X114754Y285582D01*
Y280251D01*
X116087Y278918D01*
X118753D01*
X117420Y281584D02*
X120086Y278918D01*
X118753D02*
X120086Y280251D01*
X122752Y278918D02*
X125418D01*
X124085D01*
Y286915D01*
X122752Y285582D01*
X129417Y277585D02*
X134748D01*
X137414Y285582D02*
X138747Y286915D01*
X141413D01*
X142746Y285582D01*
Y284249D01*
X141413Y282917D01*
X140080D01*
X141413D01*
X142746Y281584D01*
Y280251D01*
X141413Y278918D01*
X138747D01*
X137414Y280251D01*
X846920Y434501D02*
Y439832D01*
X845587Y441165D01*
X842921D01*
X841588Y439832D01*
Y434501D01*
X842921Y433168D01*
X845587D01*
X844254Y435834D02*
X846920Y433168D01*
X845587D02*
X846920Y434501D01*
X854917Y433168D02*
X849585D01*
X854917Y438499D01*
Y439832D01*
X853584Y441165D01*
X850918D01*
X849585Y439832D01*
X857583Y431835D02*
X862915D01*
X870912Y433168D02*
X865580D01*
X870912Y438499D01*
Y439832D01*
X869579Y441165D01*
X866913D01*
X865580Y439832D01*
X121836Y427501D02*
Y432832D01*
X120503Y434165D01*
X117837D01*
X116504Y432832D01*
Y427501D01*
X117837Y426168D01*
X120503D01*
X119170Y428834D02*
X121836Y426168D01*
X120503D02*
X121836Y427501D01*
X124502Y426168D02*
X127168D01*
X125835D01*
Y434165D01*
X124502Y432832D01*
X131166Y424835D02*
X136498D01*
X144495Y426168D02*
X139164D01*
X144495Y431499D01*
Y432832D01*
X143163Y434165D01*
X140497D01*
X139164Y432832D01*
X848253Y597501D02*
Y602832D01*
X846920Y604165D01*
X844254D01*
X842921Y602832D01*
Y597501D01*
X844254Y596168D01*
X846920D01*
X845587Y598834D02*
X848253Y596168D01*
X846920D02*
X848253Y597501D01*
X856250Y596168D02*
X850918D01*
X856250Y601499D01*
Y602832D01*
X854917Y604165D01*
X852251D01*
X850918Y602832D01*
X858916Y594835D02*
X864247D01*
X866913Y596168D02*
X869579D01*
X868246D01*
Y604165D01*
X866913Y602832D01*
X123669Y575251D02*
Y580582D01*
X122336Y581915D01*
X119670D01*
X118337Y580582D01*
Y575251D01*
X119670Y573918D01*
X122336D01*
X121003Y576584D02*
X123669Y573918D01*
X122336D02*
X123669Y575251D01*
X126335Y573918D02*
X129001D01*
X127668D01*
Y581915D01*
X126335Y580582D01*
X132999Y572585D02*
X138331D01*
X140997Y573918D02*
X143663D01*
X142330D01*
Y581915D01*
X140997Y580582D01*
X854417Y723084D02*
Y728416D01*
X853084Y729749D01*
X850418D01*
X849085Y728416D01*
Y723084D01*
X850418Y721751D01*
X853084D01*
X851751Y724417D02*
X854417Y721751D01*
X853084D02*
X854417Y723084D01*
X862414Y721751D02*
X857083D01*
X862414Y727083D01*
Y728416D01*
X861082Y729749D01*
X858416D01*
X857083Y728416D01*
X144000Y720334D02*
Y725666D01*
X142667Y726999D01*
X140001D01*
X138668Y725666D01*
Y720334D01*
X140001Y719001D01*
X142667D01*
X141334Y721667D02*
X144000Y719001D01*
X142667D02*
X144000Y720334D01*
X146666Y719001D02*
X149332D01*
X147999D01*
Y726999D01*
X146666Y725666D01*
X603501Y867917D02*
Y865251D01*
Y866584D01*
X610166D01*
X611499Y865251D01*
Y863918D01*
X610166Y862586D01*
X611499Y875915D02*
Y870583D01*
X606167Y875915D01*
X604834D01*
X603501Y874582D01*
Y871916D01*
X604834Y870583D01*
X325501Y25000D02*
Y22334D01*
Y23667D01*
X332166D01*
X333499Y22334D01*
Y21001D01*
X332166Y19668D01*
X333499Y27666D02*
Y30332D01*
Y28999D01*
X325501D01*
X326834Y27666D01*
X660001Y776670D02*
X667999D01*
Y780668D01*
X666666Y782001D01*
X661334D01*
X660001Y780668D01*
Y776670D01*
X667999Y789999D02*
Y784667D01*
X662667Y789999D01*
X661334D01*
X660001Y788666D01*
Y786000D01*
X661334Y784667D01*
X667999Y792664D02*
Y795330D01*
Y793997D01*
X660001D01*
X661334Y792664D01*
X569251Y607587D02*
X577249D01*
Y611586D01*
X575916Y612918D01*
X570584D01*
X569251Y611586D01*
Y607587D01*
X577249Y620916D02*
Y615584D01*
X571917Y620916D01*
X570584D01*
X569251Y619583D01*
Y616917D01*
X570584Y615584D01*
Y623582D02*
X569251Y624915D01*
Y627580D01*
X570584Y628913D01*
X575916D01*
X577249Y627580D01*
Y624915D01*
X575916Y623582D01*
X570584D01*
X570751Y468253D02*
X578749D01*
Y472252D01*
X577416Y473585D01*
X572084D01*
X570751Y472252D01*
Y468253D01*
X578749Y476251D02*
Y478916D01*
Y477584D01*
X570751D01*
X572084Y476251D01*
X577416Y482915D02*
X578749Y484248D01*
Y486914D01*
X577416Y488247D01*
X572084D01*
X570751Y486914D01*
Y484248D01*
X572084Y482915D01*
X573417D01*
X574750Y484248D01*
Y488247D01*
X573251Y318003D02*
X581249D01*
Y322002D01*
X579916Y323335D01*
X574584D01*
X573251Y322002D01*
Y318003D01*
X581249Y326001D02*
Y328666D01*
Y327334D01*
X573251D01*
X574584Y326001D01*
X573251Y332665D02*
Y337997D01*
X574584D01*
X579916Y332665D01*
X581249D01*
X236085Y667249D02*
Y659251D01*
X240084D01*
X241417Y660584D01*
Y665916D01*
X240084Y667249D01*
X236085D01*
X249415Y659251D02*
X244083D01*
X249415Y664583D01*
Y665916D01*
X248082Y667249D01*
X245416D01*
X244083Y665916D01*
X54968Y760454D02*
X53635Y761787D01*
X50969D01*
X49636Y760454D01*
Y755123D01*
X50969Y753790D01*
X53635D01*
X54968Y755123D01*
X57633Y753790D02*
X60299D01*
X58966D01*
Y761787D01*
X57633Y760454D01*
X174858Y733724D02*
X177524D01*
X176191D01*
Y741721D01*
X174858Y740388D01*
D11*
X596830Y572070D02*
G03*
X596830Y572070I-1500J0D01*
G01*
X597330Y426070D02*
G03*
X597330Y426070I-1500J0D01*
G01*
X596580Y278070D02*
G03*
X596580Y278070I-1500J0D01*
G01*
X598330Y714385D02*
G03*
X598330Y714385I-1500J0D01*
G01*
D12*
X185450Y263000D02*
G03*
X185450Y275700I0J6350D01*
G01*
X185680Y410827D02*
G03*
X185680Y423527I0J6350D01*
G01*
Y557723D02*
G03*
X185680Y570423I0J6350D01*
G01*
X185800Y704500D02*
G03*
X185800Y717200I0J6350D01*
G01*
X292780Y209000D02*
X337780D01*
X292780Y111500D02*
X337780D01*
X292780D02*
Y209000D01*
X337780Y111500D02*
Y209000D01*
X337750D02*
X382750D01*
X337750Y111500D02*
X382750D01*
X337750D02*
Y209000D01*
X382750Y111500D02*
Y209000D01*
X383000D02*
X428000D01*
X383000Y111500D02*
X428000D01*
X383000D02*
Y209000D01*
X428000Y111500D02*
Y209000D01*
X428000D02*
X473000D01*
X428000Y111500D02*
X473000D01*
X428000D02*
Y209000D01*
X473000Y111500D02*
Y209000D01*
X472750D02*
X517750D01*
X472750Y111500D02*
X517750D01*
X472750D02*
Y209000D01*
X517750Y111500D02*
Y209000D01*
X562750D01*
X517750Y111500D02*
X562750D01*
X517750D02*
Y209000D01*
X562750Y111500D02*
Y209000D01*
X607750D01*
X562750Y111500D02*
X607750D01*
X562750D02*
Y209000D01*
X607750Y111500D02*
Y209000D01*
X607750D02*
X652750D01*
X607750Y111500D02*
X652750D01*
X607750D02*
Y209000D01*
X652750Y111500D02*
Y209000D01*
X653000D02*
X698000D01*
X653000Y111500D02*
X698000D01*
X653000D02*
Y209000D01*
X698000Y111500D02*
Y209000D01*
X743000D01*
X698000Y111500D02*
X743000D01*
X698000D02*
Y209000D01*
X743000Y111500D02*
Y209000D01*
X829860Y669250D02*
Y714250D01*
X732360Y669250D02*
Y714250D01*
X829860D01*
X732360Y669250D02*
X829860D01*
Y624500D02*
Y669500D01*
X732360Y624500D02*
Y669500D01*
X829860D01*
X732360Y624500D02*
X829860D01*
Y579500D02*
Y624500D01*
X732360Y579500D02*
Y624500D01*
X829860D01*
X732360Y579500D02*
X829860D01*
Y534750D02*
Y579750D01*
X732360Y534750D02*
Y579750D01*
X829860D01*
X732360Y534750D02*
X829860D01*
Y489750D02*
Y534750D01*
X732360Y489750D02*
Y534750D01*
X829860D01*
X732360Y489750D02*
X829860D01*
Y445000D02*
Y490000D01*
X732360Y445000D02*
Y490000D01*
X829860D01*
X732360Y445000D02*
X829860D01*
Y400000D02*
Y445000D01*
X732360Y400000D02*
Y445000D01*
X829860D01*
X732360Y400000D02*
X829860D01*
Y355250D02*
Y400250D01*
X732360Y355250D02*
Y400250D01*
X829860D01*
X732360Y355250D02*
X829860D01*
Y310250D02*
Y355250D01*
X732360Y310250D02*
Y355250D01*
X829860D01*
X732360Y310250D02*
X829860D01*
Y265450D02*
Y310450D01*
X732360Y265450D02*
Y310450D01*
X829860D01*
X732360Y265450D02*
X829860D01*
X236250Y254110D02*
Y284590D01*
X185450Y254110D02*
X236250D01*
X185450Y284590D02*
X236250D01*
X185450Y275700D02*
Y284590D01*
Y254110D02*
Y263000D01*
X236480Y401937D02*
Y432417D01*
X185680Y401937D02*
X236480D01*
X185680Y432417D02*
X236480D01*
X185680Y423527D02*
Y432417D01*
Y401937D02*
Y410827D01*
X236480Y548833D02*
Y579313D01*
X185680Y548833D02*
X236480D01*
X185680Y579313D02*
X236480D01*
X185680Y570423D02*
Y579313D01*
Y548833D02*
Y557723D01*
X236600Y695610D02*
Y726090D01*
X185800Y695610D02*
X236600D01*
X185800Y726090D02*
X236600D01*
X185800Y717200D02*
Y726090D01*
Y695610D02*
Y704500D01*
X320379Y803455D02*
X318713Y801788D01*
Y798456D01*
X320379Y796790D01*
X327044D01*
X328710Y798456D01*
Y801788D01*
X327044Y803455D01*
X323712D01*
Y800122D01*
X328710Y806787D02*
X318713D01*
X328710Y813451D01*
X318713D01*
Y816784D02*
X328710D01*
Y821782D01*
X327044Y823448D01*
X320379D01*
X318713Y821782D01*
Y816784D01*
X408460Y800790D02*
X398463D01*
Y805788D01*
X400129Y807455D01*
X403462D01*
X405128Y805788D01*
Y800790D01*
X398463Y810787D02*
X403462D01*
X405128Y812453D01*
X403462Y814119D01*
X405128Y815785D01*
X403462Y817451D01*
X398463D01*
Y820784D02*
X405128D01*
X401796D01*
X400129Y822450D01*
X398463Y824116D01*
Y825782D01*
X453210Y812790D02*
X446545D01*
X443213Y816122D01*
X446545Y819454D01*
X453210D01*
X448212D01*
Y812790D01*
X495379Y819454D02*
X493713Y817788D01*
Y814456D01*
X495379Y812790D01*
X502044D01*
X503710Y814456D01*
Y817788D01*
X502044Y819454D01*
X542713Y812790D02*
X552710D01*
Y817788D01*
X551044Y819454D01*
X549378D01*
X547712Y817788D01*
Y812790D01*
Y817788D01*
X546045Y819454D01*
X544379D01*
X542713Y817788D01*
Y812790D01*
X593463D02*
X603460D01*
Y817788D01*
X601794Y819454D01*
X595129D01*
X593463Y817788D01*
Y812790D01*
D13*
X85750Y781250D02*
Y782875D01*
Y755625D02*
Y757250D01*
X129500Y781250D02*
Y782875D01*
Y755625D02*
Y757250D01*
X85750Y782875D02*
X129500D01*
X85750Y755625D02*
X129500D01*
X317500Y11950D02*
Y102950D01*
X114500Y11950D02*
X317500D01*
X114500D02*
Y102950D01*
X317500D01*
X592800Y580950D02*
Y649550D01*
X651200Y580950D02*
Y649550D01*
X593300Y434950D02*
Y503550D01*
X651700Y434950D02*
Y503550D01*
X592550Y286950D02*
Y355550D01*
X650950Y286950D02*
Y355550D01*
X602650Y75750D02*
X609250D01*
X597950Y57900D02*
Y64600D01*
X602650Y46750D02*
X609250D01*
X769700Y74500D02*
X776300D01*
X765000Y56650D02*
Y63350D01*
X769700Y45500D02*
X776300D01*
X599000Y831250D02*
Y909250D01*
X299000Y831250D02*
Y909250D01*
Y831250D02*
X599000D01*
X299000Y909250D02*
X599000D01*
X338550Y102950D02*
X491050D01*
Y11950D02*
Y102950D01*
X338550Y11950D02*
Y102950D01*
Y11950D02*
X491050D01*
X652700Y723265D02*
Y791865D01*
X594300Y723265D02*
Y791865D01*
X286005Y330055D02*
X329755D01*
X286005Y302805D02*
X329755D01*
X286005Y328430D02*
Y330055D01*
Y302805D02*
Y304430D01*
X329755Y328430D02*
Y330055D01*
Y302805D02*
Y304430D01*
X286005Y476952D02*
X329755D01*
X286005Y449702D02*
X329755D01*
X286005Y475327D02*
Y476952D01*
Y449702D02*
Y451327D01*
X329755Y475327D02*
Y476952D01*
Y449702D02*
Y451327D01*
X284375Y622875D02*
X328125D01*
X284375Y595625D02*
X328125D01*
X284375Y621250D02*
Y622875D01*
Y595625D02*
Y597250D01*
X328125Y621250D02*
Y622875D01*
Y595625D02*
Y597250D01*
X285625Y770375D02*
X329375D01*
X285625Y743125D02*
X329375D01*
X285625Y768750D02*
Y770375D01*
Y743125D02*
Y744750D01*
X329375Y768750D02*
Y770375D01*
Y743125D02*
Y744750D01*
X258255Y219055D02*
Y262805D01*
X285505Y219055D02*
Y262805D01*
X258255Y219055D02*
X259880D01*
X283880D02*
X285505D01*
X258255Y262805D02*
X259880D01*
X283880D02*
X285505D01*
X258255Y365952D02*
Y409702D01*
X285505Y365952D02*
Y409702D01*
X258255Y365952D02*
X259880D01*
X283880D02*
X285505D01*
X258255Y409702D02*
X259880D01*
X283880D02*
X285505D01*
X258255Y512848D02*
Y556598D01*
X285505Y512848D02*
Y556598D01*
X258255Y512848D02*
X259880D01*
X283880D02*
X285505D01*
X258255Y556598D02*
X259880D01*
X283880D02*
X285505D01*
X258375Y659625D02*
Y703375D01*
X285625Y659625D02*
Y703375D01*
X258375Y659625D02*
X260000D01*
X284000D02*
X285625D01*
X258375Y703375D02*
X260000D01*
X284000D02*
X285625D01*
X183755Y308555D02*
X227505D01*
X183755Y335805D02*
X227505D01*
Y308555D02*
Y310180D01*
Y334180D02*
Y335805D01*
X183755Y308555D02*
Y310180D01*
Y334180D02*
Y335805D01*
Y455452D02*
X227505D01*
X183755Y482702D02*
X227505D01*
Y455452D02*
Y457077D01*
Y481077D02*
Y482702D01*
X183755Y455452D02*
Y457077D01*
Y481077D02*
Y482702D01*
Y602348D02*
X227505D01*
X183755Y629598D02*
X227505D01*
Y602348D02*
Y603973D01*
Y627973D02*
Y629598D01*
X183755Y602348D02*
Y603973D01*
Y627973D02*
Y629598D01*
D14*
X49630Y295180D02*
X53630D01*
X49630Y288180D02*
Y295180D01*
X89630D02*
X93630D01*
Y288180D02*
Y295180D01*
X49630Y221180D02*
X53630D01*
X49630D02*
Y233180D01*
X89630Y221180D02*
X93630D01*
Y233180D01*
X49630Y442077D02*
X53630D01*
X49630Y435077D02*
Y442077D01*
X89630D02*
X93630D01*
Y435077D02*
Y442077D01*
X49630Y368077D02*
X53630D01*
X49630D02*
Y380077D01*
X89630Y368077D02*
X93630D01*
Y380077D01*
X49630Y588973D02*
X53630D01*
X49630Y581973D02*
Y588973D01*
X89630D02*
X93630D01*
Y581973D02*
Y588973D01*
X49630Y514973D02*
X53630D01*
X49630D02*
Y526973D01*
X89630Y514973D02*
X93630D01*
Y526973D01*
X49750Y735750D02*
X53750D01*
X49750Y728750D02*
Y735750D01*
X89750D02*
X93750D01*
Y728750D02*
Y735750D01*
X49750Y661750D02*
X53750D01*
X49750D02*
Y673750D01*
X89750Y661750D02*
X93750D01*
Y673750D01*
D15*
X57630Y273180D02*
X85630D01*
X57630Y420077D02*
X85630D01*
X57630Y566973D02*
X85630D01*
X57750Y713750D02*
X85750D01*
M02*
