G04*
G04 #@! TF.GenerationSoftware,Altium Limited,Altium Designer,20.0.13 (296)*
G04*
G04 Layer_Color=16711935*
%FSLAX44Y44*%
%MOMM*%
G71*
G01*
G75*
%ADD16C,1.6000*%
%ADD17R,2.8532X1.9532*%
%ADD18R,4.0132X2.9972*%
G04:AMPARAMS|DCode=19|XSize=1.2032mm|YSize=1.6232mm|CornerRadius=0.2266mm|HoleSize=0mm|Usage=FLASHONLY|Rotation=0.000|XOffset=0mm|YOffset=0mm|HoleType=Round|Shape=RoundedRectangle|*
%AMROUNDEDRECTD19*
21,1,1.2032,1.1700,0,0,0.0*
21,1,0.7500,1.6232,0,0,0.0*
1,1,0.4532,0.3750,-0.5850*
1,1,0.4532,-0.3750,-0.5850*
1,1,0.4532,-0.3750,0.5850*
1,1,0.4532,0.3750,0.5850*
%
%ADD19ROUNDEDRECTD19*%
%ADD27R,1.8082X1.8082*%
%ADD28C,1.8082*%
%ADD29R,3.2512X1.7272*%
%ADD30O,3.2512X1.7272*%
%ADD31C,3.3782*%
%ADD32R,2.3032X2.3032*%
%ADD33C,2.3032*%
%ADD34R,1.5200X1.5200*%
%ADD35C,1.5200*%
%ADD36C,8.2032*%
G04:AMPARAMS|DCode=68|XSize=1.2032mm|YSize=1.6232mm|CornerRadius=0.2266mm|HoleSize=0mm|Usage=FLASHONLY|Rotation=270.000|XOffset=0mm|YOffset=0mm|HoleType=Round|Shape=RoundedRectangle|*
%AMROUNDEDRECTD68*
21,1,1.2032,1.1700,0,0,270.0*
21,1,0.7500,1.6232,0,0,270.0*
1,1,0.4532,-0.5850,-0.3750*
1,1,0.4532,-0.5850,0.3750*
1,1,0.4532,0.5850,0.3750*
1,1,0.4532,0.5850,-0.3750*
%
%ADD68ROUNDEDRECTD68*%
%ADD69R,2.9032X1.3032*%
%ADD70R,9.4032X10.9032*%
D16*
X507150Y694100D02*
X673840D01*
X481749Y719501D02*
X507150Y694100D01*
X314940Y572603D02*
X480647D01*
X481750Y571500D01*
X482250D01*
X506750Y547000D01*
X314940Y278810D02*
X483190D01*
X508751Y253249D01*
X673840Y253410D01*
X314940Y425707D02*
X482250Y425250D01*
X507500Y400000D01*
X673840Y400307D01*
X506750Y547000D02*
X673840Y547203D01*
X315060Y719380D02*
X481749Y719501D01*
D17*
X126750Y770000D02*
D03*
X83750D02*
D03*
X645630Y312180D02*
D03*
X602630D02*
D03*
X645630Y459077D02*
D03*
X602630D02*
D03*
X644750Y602250D02*
D03*
X601750D02*
D03*
X645750Y752750D02*
D03*
X602750D02*
D03*
X184130Y323430D02*
D03*
X227130D02*
D03*
X184130Y470327D02*
D03*
X227130D02*
D03*
X184130Y617223D02*
D03*
X227130D02*
D03*
D18*
X423000Y179315D02*
D03*
Y250685D02*
D03*
X422000Y326065D02*
D03*
Y397435D02*
D03*
Y473565D02*
D03*
Y544935D02*
D03*
X422750Y619815D02*
D03*
Y691185D02*
D03*
D19*
X673150Y317250D02*
D03*
X691850D02*
D03*
X674150Y460000D02*
D03*
X692850D02*
D03*
X679650Y611750D02*
D03*
X698350D02*
D03*
X303900Y167750D02*
D03*
X322600D02*
D03*
X638350Y280750D02*
D03*
X619650D02*
D03*
X637850Y427750D02*
D03*
X619150D02*
D03*
X636100Y574250D02*
D03*
X617400D02*
D03*
X636850Y720750D02*
D03*
X618150D02*
D03*
X298400Y201750D02*
D03*
X317100D02*
D03*
X298150Y348250D02*
D03*
X316850D02*
D03*
X298150Y495500D02*
D03*
X316850D02*
D03*
X299150Y641750D02*
D03*
X317850D02*
D03*
D27*
X165200Y44750D02*
D03*
X389250D02*
D03*
D28*
X165200Y70150D02*
D03*
X190600Y44750D02*
D03*
Y70150D02*
D03*
X216000Y44750D02*
D03*
Y70150D02*
D03*
X241400Y44750D02*
D03*
Y70150D02*
D03*
X266800Y44750D02*
D03*
Y70150D02*
D03*
X440050D02*
D03*
Y44750D02*
D03*
X414650Y70150D02*
D03*
Y44750D02*
D03*
X389250Y70150D02*
D03*
D29*
X314940Y228010D02*
D03*
Y374907D02*
D03*
Y521803D02*
D03*
X315060Y668580D02*
D03*
X673840Y278810D02*
D03*
Y425707D02*
D03*
Y572603D02*
D03*
Y719500D02*
D03*
D30*
X314940Y253410D02*
D03*
Y278810D02*
D03*
Y400307D02*
D03*
Y425707D02*
D03*
Y547203D02*
D03*
Y572603D02*
D03*
X315060Y693980D02*
D03*
Y719380D02*
D03*
X673840Y228010D02*
D03*
Y253410D02*
D03*
Y374907D02*
D03*
Y400307D02*
D03*
Y521803D02*
D03*
Y547203D02*
D03*
Y668700D02*
D03*
Y694100D02*
D03*
D31*
X132440Y253410D02*
D03*
Y400307D02*
D03*
Y547203D02*
D03*
X132560Y693980D02*
D03*
X856340Y253410D02*
D03*
Y400307D02*
D03*
Y547203D02*
D03*
Y694100D02*
D03*
D32*
X574000Y869250D02*
D03*
D33*
X524000D02*
D03*
X474000D02*
D03*
X424000D02*
D03*
X374000D02*
D03*
X324000D02*
D03*
D34*
X705500Y869750D02*
D03*
X81750Y874000D02*
D03*
D35*
X705500Y819750D02*
D03*
X81750Y824000D02*
D03*
D36*
X800250Y155500D02*
D03*
Y790250D02*
D03*
X210250Y155500D02*
D03*
Y790250D02*
D03*
D68*
X353500Y77100D02*
D03*
Y58400D02*
D03*
D69*
X539500Y65750D02*
D03*
Y116550D02*
D03*
D70*
X644000Y91150D02*
D03*
M02*
