G04*
G04 #@! TF.GenerationSoftware,Altium Limited,Altium Designer,20.0.13 (296)*
G04*
G04 Layer_Color=8388736*
%FSLAX44Y44*%
%MOMM*%
G71*
G01*
G75*
%ADD16C,1.6000*%
G04:AMPARAMS|DCode=17|XSize=1.2032mm|YSize=1.6232mm|CornerRadius=0.2266mm|HoleSize=0mm|Usage=FLASHONLY|Rotation=0.000|XOffset=0mm|YOffset=0mm|HoleType=Round|Shape=RoundedRectangle|*
%AMROUNDEDRECTD17*
21,1,1.2032,1.1700,0,0,0.0*
21,1,0.7500,1.6232,0,0,0.0*
1,1,0.4532,0.3750,-0.5850*
1,1,0.4532,-0.3750,-0.5850*
1,1,0.4532,-0.3750,0.5850*
1,1,0.4532,0.3750,0.5850*
%
%ADD17ROUNDEDRECTD17*%
%ADD18R,0.7932X1.4132*%
%ADD19R,0.7940X1.4140*%
%ADD20R,3.6032X2.2032*%
G04:AMPARAMS|DCode=21|XSize=1.2032mm|YSize=1.6232mm|CornerRadius=0.2266mm|HoleSize=0mm|Usage=FLASHONLY|Rotation=90.000|XOffset=0mm|YOffset=0mm|HoleType=Round|Shape=RoundedRectangle|*
%AMROUNDEDRECTD21*
21,1,1.2032,1.1700,0,0,90.0*
21,1,0.7500,1.6232,0,0,90.0*
1,1,0.4532,0.5850,0.3750*
1,1,0.4532,0.5850,-0.3750*
1,1,0.4532,-0.5850,-0.3750*
1,1,0.4532,-0.5850,0.3750*
%
%ADD21ROUNDEDRECTD21*%
%ADD22R,2.2032X3.6032*%
%ADD23R,4.0132X2.9972*%
%ADD24R,2.8532X1.9532*%
%ADD25R,1.9532X2.8532*%
%ADD26R,2.7032X2.8032*%
%ADD27R,0.8382X1.4732*%
%ADD28C,3.3782*%
%ADD29O,3.2512X1.7272*%
%ADD30R,3.2512X1.7272*%
%ADD31C,1.8082*%
%ADD32R,1.8082X1.8082*%
%ADD33R,2.3032X2.3032*%
%ADD34C,2.3032*%
%ADD35R,1.5200X1.5200*%
%ADD36C,1.5200*%
%ADD37C,1.4732*%
%ADD38C,4.2032*%
D16*
X574000Y712838D02*
X591081Y694250D01*
X673840Y694100D01*
X315060Y693980D02*
X371750Y694000D01*
X314940Y547203D02*
X373500Y547750D01*
X314940Y400307D02*
X373500Y400500D01*
X314940Y253410D02*
X374250Y254000D01*
X374000Y869250D02*
X374250Y254000D01*
X424000Y414250D02*
Y869250D01*
Y414250D02*
X426750Y411500D01*
X584250Y253500D01*
X673840Y253410D01*
X591250Y399750D02*
X673840Y400307D01*
X474250Y517500D02*
X591250Y399750D01*
X474000Y869250D02*
X474250Y517500D01*
X524000Y617000D02*
Y869250D01*
Y617000D02*
X593500Y547750D01*
X673840Y547203D01*
X574000Y712838D02*
Y869250D01*
D17*
X689350Y317000D02*
D03*
X670650D02*
D03*
X689100Y757250D02*
D03*
X670400D02*
D03*
X687850Y610500D02*
D03*
X669150D02*
D03*
X338600Y143500D02*
D03*
X319900D02*
D03*
X689600Y464000D02*
D03*
X670900D02*
D03*
X284100Y289500D02*
D03*
X265400D02*
D03*
X283850Y436500D02*
D03*
X265150D02*
D03*
X284100Y583250D02*
D03*
X265400D02*
D03*
X285600Y730250D02*
D03*
X266900D02*
D03*
X316850Y205250D02*
D03*
X298150D02*
D03*
X316600Y352250D02*
D03*
X297900D02*
D03*
X316850Y499000D02*
D03*
X298150D02*
D03*
X317600Y646250D02*
D03*
X298900D02*
D03*
D18*
X770000Y266600D02*
D03*
X789000D02*
D03*
X765250Y384300D02*
D03*
X784250D02*
D03*
D19*
X789000Y241500D02*
D03*
X779500D02*
D03*
X770000D02*
D03*
X784250Y359200D02*
D03*
X774750D02*
D03*
X765250D02*
D03*
D20*
X381530Y193750D02*
D03*
Y133750D02*
D03*
X426500Y193750D02*
D03*
Y133750D02*
D03*
X471750Y193750D02*
D03*
Y133750D02*
D03*
X516750Y193750D02*
D03*
Y133750D02*
D03*
X561500Y193750D02*
D03*
Y133750D02*
D03*
X606500Y193750D02*
D03*
Y133750D02*
D03*
X651500Y193750D02*
D03*
Y133750D02*
D03*
X696500Y193750D02*
D03*
Y133750D02*
D03*
X741750Y193750D02*
D03*
Y133750D02*
D03*
X786750Y193750D02*
D03*
Y133750D02*
D03*
D21*
X808893Y263311D02*
D03*
Y244611D02*
D03*
X748050Y264176D02*
D03*
Y245476D02*
D03*
X808250Y292900D02*
D03*
Y311600D02*
D03*
X788250D02*
D03*
Y292900D02*
D03*
X768250D02*
D03*
Y311600D02*
D03*
X748250D02*
D03*
Y292900D02*
D03*
X803750Y379100D02*
D03*
Y360400D02*
D03*
X745250Y378350D02*
D03*
Y359650D02*
D03*
X805250Y403150D02*
D03*
Y421850D02*
D03*
X785250D02*
D03*
Y403150D02*
D03*
X765500D02*
D03*
Y421850D02*
D03*
X746250D02*
D03*
Y403150D02*
D03*
D22*
X789360Y864750D02*
D03*
X729360D02*
D03*
X789360Y820000D02*
D03*
X729360D02*
D03*
X789360Y775000D02*
D03*
X729360D02*
D03*
X789360Y730250D02*
D03*
X729360D02*
D03*
X789360Y685250D02*
D03*
X729360D02*
D03*
X789360Y640500D02*
D03*
X729360D02*
D03*
X789360Y595500D02*
D03*
X729360D02*
D03*
X789360Y550750D02*
D03*
X729360D02*
D03*
X789360Y505750D02*
D03*
X729360D02*
D03*
X789360Y460950D02*
D03*
X729360D02*
D03*
D23*
X623500Y793250D02*
D03*
Y721880D02*
D03*
X622000Y650935D02*
D03*
Y579565D02*
D03*
X622500Y504935D02*
D03*
Y433565D02*
D03*
X621750Y356935D02*
D03*
Y285565D02*
D03*
D24*
X329380Y316430D02*
D03*
X286380D02*
D03*
X329380Y463327D02*
D03*
X286380D02*
D03*
X327750Y609250D02*
D03*
X284750D02*
D03*
X329000Y756750D02*
D03*
X286000D02*
D03*
X184130Y322180D02*
D03*
X227130D02*
D03*
X184130Y469077D02*
D03*
X227130D02*
D03*
X184130Y615973D02*
D03*
X227130D02*
D03*
X184250Y762750D02*
D03*
X227250D02*
D03*
D25*
X271880Y262430D02*
D03*
Y219430D02*
D03*
Y409327D02*
D03*
Y366327D02*
D03*
Y556223D02*
D03*
Y513223D02*
D03*
X272000Y703000D02*
D03*
Y660000D02*
D03*
D26*
X71630Y292180D02*
D03*
Y223580D02*
D03*
Y439077D02*
D03*
Y370477D02*
D03*
Y585973D02*
D03*
Y517373D02*
D03*
X71750Y732750D02*
D03*
Y664150D02*
D03*
D27*
X191800Y243950D02*
D03*
X204500D02*
D03*
X217200D02*
D03*
X229900D02*
D03*
Y294750D02*
D03*
X217200D02*
D03*
X204500D02*
D03*
X191800D02*
D03*
X192030Y391777D02*
D03*
X204730D02*
D03*
X217430D02*
D03*
X230130D02*
D03*
Y442577D02*
D03*
X217430D02*
D03*
X204730D02*
D03*
X192030D02*
D03*
Y538673D02*
D03*
X204730D02*
D03*
X217430D02*
D03*
X230130D02*
D03*
Y589473D02*
D03*
X217430D02*
D03*
X204730D02*
D03*
X192030D02*
D03*
X192150Y685450D02*
D03*
X204850D02*
D03*
X217550D02*
D03*
X230250D02*
D03*
Y736250D02*
D03*
X217550D02*
D03*
X204850D02*
D03*
X192150D02*
D03*
D28*
X856340Y253410D02*
D03*
Y400307D02*
D03*
Y547203D02*
D03*
Y694100D02*
D03*
X132440Y253410D02*
D03*
Y400307D02*
D03*
Y547203D02*
D03*
X132560Y693980D02*
D03*
D29*
X673840Y228010D02*
D03*
Y253410D02*
D03*
Y374907D02*
D03*
Y400307D02*
D03*
Y521803D02*
D03*
Y547203D02*
D03*
Y668700D02*
D03*
Y694100D02*
D03*
X314940Y278810D02*
D03*
Y253410D02*
D03*
Y425707D02*
D03*
Y400307D02*
D03*
Y572603D02*
D03*
Y547203D02*
D03*
X315060Y719380D02*
D03*
Y693980D02*
D03*
D30*
X673840Y278810D02*
D03*
Y425707D02*
D03*
Y572603D02*
D03*
Y719500D02*
D03*
X314940Y228010D02*
D03*
Y374907D02*
D03*
Y521803D02*
D03*
X315060Y668580D02*
D03*
D31*
X266800Y70150D02*
D03*
Y44750D02*
D03*
X241400Y70150D02*
D03*
Y44750D02*
D03*
X216000Y70150D02*
D03*
Y44750D02*
D03*
X190600Y70150D02*
D03*
Y44750D02*
D03*
X165200Y70150D02*
D03*
X440050D02*
D03*
Y44750D02*
D03*
X414650Y70150D02*
D03*
Y44750D02*
D03*
X389250Y70150D02*
D03*
D32*
X165200Y44750D02*
D03*
X389250D02*
D03*
D33*
X574000Y869250D02*
D03*
D34*
X524000D02*
D03*
X474000D02*
D03*
X424000D02*
D03*
X374000D02*
D03*
X324000D02*
D03*
D35*
X234500Y819000D02*
D03*
X128500D02*
D03*
D36*
X234500Y869000D02*
D03*
X128500D02*
D03*
D37*
X820000Y585500D02*
D03*
Y611050D02*
D03*
Y636600D02*
D03*
Y662150D02*
D03*
Y687700D02*
D03*
Y713250D02*
D03*
Y738800D02*
D03*
Y764350D02*
D03*
Y789900D02*
D03*
Y815450D02*
D03*
Y841000D02*
D03*
X760500Y94750D02*
D03*
X740750D02*
D03*
X721000D02*
D03*
X701250D02*
D03*
X681500D02*
D03*
X661750D02*
D03*
X642000D02*
D03*
X622250D02*
D03*
X171250Y158250D02*
D03*
X62500Y252250D02*
D03*
X56000Y403500D02*
D03*
X50750Y544500D02*
D03*
X55000Y699500D02*
D03*
X240250Y166250D02*
D03*
X257250Y334250D02*
D03*
X256750Y481500D02*
D03*
X221250Y654250D02*
D03*
X690250Y338750D02*
D03*
X338000Y779750D02*
D03*
X338500Y338000D02*
D03*
X339750Y485750D02*
D03*
X338250Y629000D02*
D03*
X749500Y227250D02*
D03*
X158250Y764500D02*
D03*
Y322500D02*
D03*
X156250Y470250D02*
D03*
X158000Y616500D02*
D03*
X739250Y335000D02*
D03*
X775250Y335500D02*
D03*
X822750Y223500D02*
D03*
X803250Y223250D02*
D03*
X595250Y163500D02*
D03*
X793750Y338500D02*
D03*
X758750Y653500D02*
D03*
X117630Y358577D02*
D03*
Y506390D02*
D03*
X117750Y652250D02*
D03*
X697000Y631250D02*
D03*
X246130Y297180D02*
D03*
X248880Y266930D02*
D03*
X175520Y271180D02*
D03*
X117630Y211680D02*
D03*
X691130Y488327D02*
D03*
X246130Y444077D02*
D03*
X248880Y413827D02*
D03*
X175520Y418077D02*
D03*
X246130Y590973D02*
D03*
X248880Y560723D02*
D03*
X175520Y564973D02*
D03*
X175640Y711750D02*
D03*
X249000Y707500D02*
D03*
X246250Y737750D02*
D03*
X691250Y782000D02*
D03*
D38*
X40000Y40000D02*
D03*
X860000D02*
D03*
Y860000D02*
D03*
X40000D02*
D03*
M02*
