G04*
G04 #@! TF.GenerationSoftware,Altium Limited,Altium Designer,20.0.13 (296)*
G04*
G04 Layer_Color=65535*
%FSLAX44Y44*%
%MOMM*%
G71*
G01*
G75*
%ADD10C,0.2000*%
%ADD11C,0.6096*%
%ADD12C,0.2540*%
%ADD13C,0.1270*%
%ADD14C,0.1500*%
%ADD15C,0.3000*%
D10*
X770000Y229950D02*
G03*
X770000Y229950I-1000J0D01*
G01*
X765250Y347650D02*
G03*
X765250Y347650I-1000J0D01*
G01*
X166200Y4950D02*
G03*
X166200Y4950I-1000J0D01*
G01*
X575000Y821250D02*
G03*
X575000Y821250I-1000J0D01*
G01*
X390250Y4950D02*
G03*
X390250Y4950I-1000J0D01*
G01*
X264480Y316330D02*
G03*
X264480Y316330I-1000J0D01*
G01*
Y463227D02*
G03*
X264480Y463227I-1000J0D01*
G01*
X262850Y609150D02*
G03*
X262850Y609150I-1000J0D01*
G01*
X264100Y756650D02*
G03*
X264100Y756650I-1000J0D01*
G01*
X272980Y196530D02*
G03*
X272980Y196530I-1000J0D01*
G01*
Y343427D02*
G03*
X272980Y343427I-1000J0D01*
G01*
Y490323D02*
G03*
X272980Y490323I-1000J0D01*
G01*
X273100Y637100D02*
G03*
X273100Y637100I-1000J0D01*
G01*
X251030Y322280D02*
G03*
X251030Y322280I-1000J0D01*
G01*
Y469177D02*
G03*
X251030Y469177I-1000J0D01*
G01*
Y616073D02*
G03*
X251030Y616073I-1000J0D01*
G01*
X251150Y762850D02*
G03*
X251150Y762850I-1000J0D01*
G01*
X284500Y844000D02*
G03*
X284500Y844000I-50000J0D01*
G01*
X178500D02*
G03*
X178500Y844000I-50000J0D01*
G01*
X234500Y781750D02*
Y788750D01*
X231000Y785250D02*
X238000D01*
X128500Y781750D02*
Y788750D01*
X125000Y785250D02*
X132000D01*
X196880Y272911D02*
X198914D01*
X197897D01*
Y266810D01*
X196880D01*
X198914D01*
X201964D02*
Y272911D01*
X205014D01*
X206031Y271894D01*
Y269860D01*
X205014Y268844D01*
X201964D01*
X203998D02*
X206031Y266810D01*
X212132D02*
X208065D01*
X212132Y270877D01*
Y271894D01*
X211115Y272911D01*
X209082D01*
X208065Y271894D01*
X214166Y266810D02*
X216199D01*
X215182D01*
Y272911D01*
X214166Y271894D01*
X219250D02*
X220266Y272911D01*
X222300D01*
X223317Y271894D01*
Y267827D01*
X222300Y266810D01*
X220266D01*
X219250Y267827D01*
Y271894D01*
X228401Y266810D02*
Y272911D01*
X225351Y269860D01*
X229418D01*
X197110Y420737D02*
X199144D01*
X198127D01*
Y414637D01*
X197110D01*
X199144D01*
X202194D02*
Y420737D01*
X205244D01*
X206261Y419721D01*
Y417687D01*
X205244Y416670D01*
X202194D01*
X204228D02*
X206261Y414637D01*
X212362D02*
X208295D01*
X212362Y418704D01*
Y419721D01*
X211345Y420737D01*
X209312D01*
X208295Y419721D01*
X214396Y414637D02*
X216429D01*
X215413D01*
Y420737D01*
X214396Y419721D01*
X219480D02*
X220497Y420737D01*
X222530D01*
X223547Y419721D01*
Y415653D01*
X222530Y414637D01*
X220497D01*
X219480Y415653D01*
Y419721D01*
X228631Y414637D02*
Y420737D01*
X225581Y417687D01*
X229648D01*
X197110Y567634D02*
X199144D01*
X198127D01*
Y561533D01*
X197110D01*
X199144D01*
X202194D02*
Y567634D01*
X205244D01*
X206261Y566617D01*
Y564584D01*
X205244Y563567D01*
X202194D01*
X204228D02*
X206261Y561533D01*
X212362D02*
X208295D01*
X212362Y565601D01*
Y566617D01*
X211345Y567634D01*
X209312D01*
X208295Y566617D01*
X214396Y561533D02*
X216429D01*
X215413D01*
Y567634D01*
X214396Y566617D01*
X219480D02*
X220497Y567634D01*
X222530D01*
X223547Y566617D01*
Y562550D01*
X222530Y561533D01*
X220497D01*
X219480Y562550D01*
Y566617D01*
X228631Y561533D02*
Y567634D01*
X225581Y564584D01*
X229648D01*
X197230Y714411D02*
X199264D01*
X198247D01*
Y708310D01*
X197230D01*
X199264D01*
X202314D02*
Y714411D01*
X205364D01*
X206381Y713394D01*
Y711360D01*
X205364Y710344D01*
X202314D01*
X204348D02*
X206381Y708310D01*
X212482D02*
X208415D01*
X212482Y712377D01*
Y713394D01*
X211465Y714411D01*
X209432D01*
X208415Y713394D01*
X214516Y708310D02*
X216549D01*
X215532D01*
Y714411D01*
X214516Y713394D01*
X219600D02*
X220616Y714411D01*
X222650D01*
X223667Y713394D01*
Y709327D01*
X222650Y708310D01*
X220616D01*
X219600Y709327D01*
Y713394D01*
X228751Y708310D02*
Y714411D01*
X225700Y711360D01*
X229768D01*
X154504Y288335D02*
X157836D01*
X156170D01*
Y298332D01*
X154504Y296665D01*
X162835Y286668D02*
X169499D01*
X172831Y296665D02*
X174498Y298332D01*
X177830D01*
X179496Y296665D01*
Y294999D01*
X177830Y293333D01*
X176164D01*
X177830D01*
X179496Y291667D01*
Y290001D01*
X177830Y288335D01*
X174498D01*
X172831Y290001D01*
X156170Y585335D02*
X159502D01*
X157836D01*
Y595331D01*
X156170Y593665D01*
X164501Y583669D02*
X171165D01*
X174498Y585335D02*
X177830D01*
X176164D01*
Y595331D01*
X174498Y593665D01*
X155254Y435835D02*
X158586D01*
X156920D01*
Y445831D01*
X155254Y444165D01*
X163585Y434169D02*
X170249D01*
X180246Y435835D02*
X173581D01*
X180246Y442499D01*
Y444165D01*
X178580Y445831D01*
X175248D01*
X173581Y444165D01*
X306419Y786998D02*
Y777002D01*
X311418D01*
X313084Y778668D01*
Y785332D01*
X311418Y786998D01*
X306419D01*
X323081D02*
X316416D01*
Y782000D01*
X319748Y783666D01*
X321414D01*
X323081Y782000D01*
Y778668D01*
X321414Y777002D01*
X318082D01*
X316416Y778668D01*
X775669Y226998D02*
Y218668D01*
X777336Y217002D01*
X780668D01*
X782334Y218668D01*
Y226998D01*
X792331Y217002D02*
X785666D01*
X792331Y223666D01*
Y225332D01*
X790665Y226998D01*
X787332D01*
X785666Y225332D01*
X750335Y342248D02*
Y333918D01*
X752002Y332252D01*
X755334D01*
X757000Y333918D01*
Y342248D01*
X760332Y332252D02*
X763664D01*
X761998D01*
Y342248D01*
X760332Y340582D01*
X831498Y237921D02*
X821502D01*
Y242919D01*
X823168Y244585D01*
X826500D01*
X828166Y242919D01*
Y237921D01*
Y241253D02*
X831498Y244585D01*
Y252916D02*
X821502D01*
X826500Y247918D01*
Y254582D01*
X831498Y264579D02*
Y257915D01*
X824834Y264579D01*
X823168D01*
X821502Y262913D01*
Y259581D01*
X823168Y257915D01*
X731548Y252997D02*
X721552D01*
Y257995D01*
X723218Y259661D01*
X726550D01*
X728216Y257995D01*
Y252997D01*
Y256329D02*
X731548Y259661D01*
Y267992D02*
X721552D01*
X726550Y262994D01*
Y269658D01*
X723218Y272990D02*
X721552Y274656D01*
Y277989D01*
X723218Y279655D01*
X729882D01*
X731548Y277989D01*
Y274656D01*
X729882Y272990D01*
X723218D01*
X883998Y275921D02*
X874002D01*
Y280919D01*
X875668Y282585D01*
X879000D01*
X880666Y280919D01*
Y275921D01*
Y279253D02*
X883998Y282585D01*
Y292582D02*
Y285918D01*
X877334Y292582D01*
X875668D01*
X874002Y290916D01*
Y287584D01*
X875668Y285918D01*
Y295914D02*
X874002Y297581D01*
Y300913D01*
X875668Y302579D01*
X877334D01*
X879000Y300913D01*
X880666Y302579D01*
X882332D01*
X883998Y300913D01*
Y297581D01*
X882332Y295914D01*
X880666D01*
X879000Y297581D01*
X877334Y295914D01*
X875668D01*
X879000Y297581D02*
Y300913D01*
X867998Y275921D02*
X858002D01*
Y280919D01*
X859668Y282586D01*
X863000D01*
X864666Y280919D01*
Y275921D01*
Y279253D02*
X867998Y282586D01*
Y292582D02*
Y285918D01*
X861334Y292582D01*
X859668D01*
X858002Y290916D01*
Y287584D01*
X859668Y285918D01*
X858002Y295914D02*
Y302579D01*
X859668D01*
X866332Y295914D01*
X867998D01*
X851748Y275921D02*
X841752D01*
Y280919D01*
X843418Y282586D01*
X846750D01*
X848416Y280919D01*
Y275921D01*
Y279253D02*
X851748Y282586D01*
Y292582D02*
Y285918D01*
X845084Y292582D01*
X843418D01*
X841752Y290916D01*
Y287584D01*
X843418Y285918D01*
X841752Y302579D02*
X843418Y299247D01*
X846750Y295914D01*
X850082D01*
X851748Y297581D01*
Y300913D01*
X850082Y302579D01*
X848416D01*
X846750Y300913D01*
Y295914D01*
X835498Y275921D02*
X825502D01*
Y280919D01*
X827168Y282586D01*
X830500D01*
X832166Y280919D01*
Y275921D01*
Y279253D02*
X835498Y282586D01*
Y292582D02*
Y285918D01*
X828834Y292582D01*
X827168D01*
X825502Y290916D01*
Y287584D01*
X827168Y285918D01*
X825502Y302579D02*
Y295914D01*
X830500D01*
X828834Y299247D01*
Y300913D01*
X830500Y302579D01*
X833832D01*
X835498Y300913D01*
Y297581D01*
X833832Y295914D01*
X828248Y355671D02*
X818252D01*
Y360669D01*
X819918Y362335D01*
X823250D01*
X824916Y360669D01*
Y355671D01*
Y359003D02*
X828248Y362335D01*
Y372332D02*
Y365668D01*
X821584Y372332D01*
X819918D01*
X818252Y370666D01*
Y367334D01*
X819918Y365668D01*
X828248Y382329D02*
Y375664D01*
X821584Y382329D01*
X819918D01*
X818252Y380663D01*
Y377331D01*
X819918Y375664D01*
X728498Y368587D02*
X718502D01*
Y373586D01*
X720168Y375252D01*
X723500D01*
X725166Y373586D01*
Y368587D01*
Y371919D02*
X728498Y375252D01*
Y385248D02*
Y378584D01*
X721834Y385248D01*
X720168D01*
X718502Y383582D01*
Y380250D01*
X720168Y378584D01*
X728498Y388581D02*
Y391913D01*
Y390247D01*
X718502D01*
X720168Y388581D01*
X880248Y424338D02*
X870252D01*
Y429336D01*
X871918Y431002D01*
X875250D01*
X876916Y429336D01*
Y424338D01*
Y427670D02*
X880248Y431002D01*
Y440999D02*
Y434335D01*
X873584Y440999D01*
X871918D01*
X870252Y439333D01*
Y436001D01*
X871918Y434335D01*
Y444331D02*
X870252Y445998D01*
Y449330D01*
X871918Y450996D01*
X878582D01*
X880248Y449330D01*
Y445998D01*
X878582Y444331D01*
X871918D01*
X864748Y426004D02*
X854752D01*
Y431002D01*
X856418Y432668D01*
X859750D01*
X861416Y431002D01*
Y426004D01*
Y429336D02*
X864748Y432668D01*
Y436001D02*
Y439333D01*
Y437667D01*
X854752D01*
X856418Y436001D01*
X863082Y444331D02*
X864748Y445998D01*
Y449330D01*
X863082Y450996D01*
X856418D01*
X854752Y449330D01*
Y445998D01*
X856418Y444331D01*
X858084D01*
X859750Y445998D01*
Y450996D01*
X848998Y426004D02*
X839001D01*
Y431002D01*
X840668Y432668D01*
X844000D01*
X845666Y431002D01*
Y426004D01*
Y429336D02*
X848998Y432668D01*
Y436001D02*
Y439333D01*
Y437667D01*
X839001D01*
X840668Y436001D01*
Y444331D02*
X839001Y445998D01*
Y449330D01*
X840668Y450996D01*
X842334D01*
X844000Y449330D01*
X845666Y450996D01*
X847332D01*
X848998Y449330D01*
Y445998D01*
X847332Y444331D01*
X845666D01*
X844000Y445998D01*
X842334Y444331D01*
X840668D01*
X844000Y445998D02*
Y449330D01*
X833998Y426004D02*
X824002D01*
Y431002D01*
X825668Y432669D01*
X829000D01*
X830666Y431002D01*
Y426004D01*
Y429336D02*
X833998Y432669D01*
Y436001D02*
Y439333D01*
Y437667D01*
X824002D01*
X825668Y436001D01*
X824002Y444332D02*
Y450996D01*
X825668D01*
X832332Y444332D01*
X833998D01*
X322610Y161278D02*
Y171275D01*
X327608D01*
X329274Y169609D01*
Y166276D01*
X327608Y164610D01*
X322610D01*
X325942D02*
X329274Y161278D01*
X332607D02*
X335939D01*
X334273D01*
Y171275D01*
X332607Y169609D01*
X340937D02*
X342604Y171275D01*
X345936D01*
X347602Y169609D01*
Y162944D01*
X345936Y161278D01*
X342604D01*
X340937Y162944D01*
Y169609D01*
X286084Y809082D02*
X284418Y810748D01*
X281085D01*
X279419Y809082D01*
Y802418D01*
X281085Y800752D01*
X284418D01*
X286084Y802418D01*
X296081Y810748D02*
X289416D01*
Y805750D01*
X292748Y807416D01*
X294415D01*
X296081Y805750D01*
Y802418D01*
X294415Y800752D01*
X291082D01*
X289416Y802418D01*
X76334Y807082D02*
X74668Y808748D01*
X71336D01*
X69669Y807082D01*
Y800418D01*
X71336Y798752D01*
X74668D01*
X76334Y800418D01*
X84664Y798752D02*
Y808748D01*
X79666Y803750D01*
X86331D01*
X56301Y323209D02*
X54634Y324875D01*
X51302D01*
X49636Y323209D01*
Y316544D01*
X51302Y314878D01*
X54634D01*
X56301Y316544D01*
X59633Y314878D02*
X62965D01*
X61299D01*
Y324875D01*
X59633Y323209D01*
X67963Y313212D02*
X74628D01*
X77960Y323209D02*
X79626Y324875D01*
X82959D01*
X84625Y323209D01*
Y321543D01*
X82959Y319876D01*
X81292D01*
X82959D01*
X84625Y318210D01*
Y316544D01*
X82959Y314878D01*
X79626D01*
X77960Y316544D01*
X170032Y357387D02*
Y347390D01*
X175030D01*
X176696Y349056D01*
Y355721D01*
X175030Y357387D01*
X170032D01*
X180029Y347390D02*
X183361D01*
X181695D01*
Y357387D01*
X180029Y355721D01*
X188359Y345724D02*
X195024D01*
X198356Y355721D02*
X200022Y357387D01*
X203355D01*
X205021Y355721D01*
Y354054D01*
X203355Y352388D01*
X201688D01*
X203355D01*
X205021Y350722D01*
Y349056D01*
X203355Y347390D01*
X200022D01*
X198356Y349056D01*
X212423Y224331D02*
Y214335D01*
X217421D01*
X219087Y216001D01*
Y222665D01*
X217421Y224331D01*
X212423D01*
X229084Y214335D02*
X222419D01*
X229084Y220999D01*
Y222665D01*
X227418Y224331D01*
X224086D01*
X222419Y222665D01*
X232416Y212669D02*
X239081D01*
X242413Y222665D02*
X244079Y224331D01*
X247411D01*
X249077Y222665D01*
Y220999D01*
X247411Y219333D01*
X245745D01*
X247411D01*
X249077Y217667D01*
Y216001D01*
X247411Y214335D01*
X244079D01*
X242413Y216001D01*
X299876Y179905D02*
Y189901D01*
X304874D01*
X306540Y188235D01*
Y184903D01*
X304874Y183237D01*
X299876D01*
X303208D02*
X306540Y179905D01*
X309872D02*
X313205D01*
X311539D01*
Y189901D01*
X309872Y188235D01*
X318203Y178239D02*
X324868D01*
X328200Y188235D02*
X329866Y189901D01*
X333198D01*
X334864Y188235D01*
Y186569D01*
X333198Y184903D01*
X331532D01*
X333198D01*
X334864Y183237D01*
Y181571D01*
X333198Y179905D01*
X329866D01*
X328200Y181571D01*
X658673Y294835D02*
Y304832D01*
X663671D01*
X665337Y303165D01*
Y299833D01*
X663671Y298167D01*
X658673D01*
X662005D02*
X665337Y294835D01*
X675334Y304832D02*
X668669D01*
Y299833D01*
X672002Y301499D01*
X673668D01*
X675334Y299833D01*
Y296501D01*
X673668Y294835D01*
X670335D01*
X668669Y296501D01*
X678666Y293169D02*
X685331D01*
X688663Y303165D02*
X690329Y304832D01*
X693661D01*
X695327Y303165D01*
Y301499D01*
X693661Y299833D01*
X691995D01*
X693661D01*
X695327Y298167D01*
Y296501D01*
X693661Y294835D01*
X690329D01*
X688663Y296501D01*
X56301Y470275D02*
X54634Y471941D01*
X51302D01*
X49636Y470275D01*
Y463610D01*
X51302Y461944D01*
X54634D01*
X56301Y463610D01*
X59633Y461944D02*
X62965D01*
X61299D01*
Y471941D01*
X59633Y470275D01*
X67963Y460278D02*
X74628D01*
X84625Y461944D02*
X77960D01*
X84625Y468609D01*
Y470275D01*
X82959Y471941D01*
X79626D01*
X77960Y470275D01*
X170032Y504199D02*
Y494202D01*
X175030D01*
X176696Y495868D01*
Y502533D01*
X175030Y504199D01*
X170032D01*
X180029Y494202D02*
X183361D01*
X181695D01*
Y504199D01*
X180029Y502533D01*
X188359Y492536D02*
X195024D01*
X205021Y494202D02*
X198356D01*
X205021Y500867D01*
Y502533D01*
X203355Y504199D01*
X200022D01*
X198356Y502533D01*
X215423Y372332D02*
Y362335D01*
X220421D01*
X222087Y364001D01*
Y370665D01*
X220421Y372332D01*
X215423D01*
X232084Y362335D02*
X225419D01*
X232084Y368999D01*
Y370665D01*
X230418Y372332D01*
X227085D01*
X225419Y370665D01*
X235416Y360668D02*
X242081D01*
X252077Y362335D02*
X245413D01*
X252077Y368999D01*
Y370665D01*
X250411Y372332D01*
X247079D01*
X245413Y370665D01*
X662423Y440835D02*
Y450831D01*
X667421D01*
X669087Y449165D01*
Y445833D01*
X667421Y444167D01*
X662423D01*
X665755D02*
X669087Y440835D01*
X679084Y450831D02*
X672419D01*
Y445833D01*
X675752Y447499D01*
X677418D01*
X679084Y445833D01*
Y442501D01*
X677418Y440835D01*
X674085D01*
X672419Y442501D01*
X682416Y439169D02*
X689081D01*
X699077Y440835D02*
X692413D01*
X699077Y447499D01*
Y449165D01*
X697411Y450831D01*
X694079D01*
X692413Y449165D01*
X56301Y617087D02*
X54634Y618753D01*
X51302D01*
X49636Y617087D01*
Y610422D01*
X51302Y608756D01*
X54634D01*
X56301Y610422D01*
X59633Y608756D02*
X62965D01*
X61299D01*
Y618753D01*
X59633Y617087D01*
X67963Y607090D02*
X74628D01*
X77960Y608756D02*
X81292D01*
X79626D01*
Y618753D01*
X77960Y617087D01*
X170032Y651011D02*
Y641014D01*
X175030D01*
X176696Y642680D01*
Y649345D01*
X175030Y651011D01*
X170032D01*
X180029Y641014D02*
X183361D01*
X181695D01*
Y651011D01*
X180029Y649345D01*
X188359Y639348D02*
X195024D01*
X198356Y641014D02*
X201688D01*
X200022D01*
Y651011D01*
X198356Y649345D01*
X218339Y521832D02*
Y511835D01*
X223337D01*
X225003Y513501D01*
Y520165D01*
X223337Y521832D01*
X218339D01*
X235000Y511835D02*
X228335D01*
X235000Y518499D01*
Y520165D01*
X233334Y521832D01*
X230002D01*
X228335Y520165D01*
X238332Y510169D02*
X244997D01*
X248329Y511835D02*
X251661D01*
X249995D01*
Y521832D01*
X248329Y520165D01*
X662589Y587835D02*
Y597831D01*
X667587D01*
X669253Y596165D01*
Y592833D01*
X667587Y591167D01*
X662589D01*
X665921D02*
X669253Y587835D01*
X679250Y597831D02*
X672586D01*
Y592833D01*
X675918Y594499D01*
X677584D01*
X679250Y592833D01*
Y589501D01*
X677584Y587835D01*
X674252D01*
X672586Y589501D01*
X682582Y586169D02*
X689247D01*
X692579Y587835D02*
X695911D01*
X694245D01*
Y597831D01*
X692579Y596165D01*
X670919Y735002D02*
Y744998D01*
X675918D01*
X677584Y743332D01*
Y740000D01*
X675918Y738334D01*
X670919D01*
X674252D02*
X677584Y735002D01*
X687581Y744998D02*
X680916D01*
Y740000D01*
X684248Y741666D01*
X685915D01*
X687581Y740000D01*
Y736668D01*
X685915Y735002D01*
X682582D01*
X680916Y736668D01*
X343169Y729002D02*
Y738998D01*
X348168D01*
X349834Y737332D01*
Y734000D01*
X348168Y732334D01*
X343169D01*
X346502D02*
X349834Y729002D01*
X353166Y737332D02*
X354832Y738998D01*
X358164D01*
X359831Y737332D01*
Y735666D01*
X358164Y734000D01*
X356498D01*
X358164D01*
X359831Y732334D01*
Y730668D01*
X358164Y729002D01*
X354832D01*
X353166Y730668D01*
X342336Y644252D02*
Y654248D01*
X347334D01*
X349000Y652582D01*
Y649250D01*
X347334Y647584D01*
X342336D01*
X345668D02*
X349000Y644252D01*
X352332D02*
X355664D01*
X353998D01*
Y654248D01*
X352332Y652582D01*
X853837Y319751D02*
Y326415D01*
X852171Y328082D01*
X848839D01*
X847173Y326415D01*
Y319751D01*
X848839Y318085D01*
X852171D01*
X850505Y321417D02*
X853837Y318085D01*
X852171D02*
X853837Y319751D01*
X863834Y318085D02*
X857169D01*
X863834Y324749D01*
Y326415D01*
X862168Y328082D01*
X858836D01*
X857169Y326415D01*
X867166Y316418D02*
X873831D01*
X877163Y326415D02*
X878829Y328082D01*
X882161D01*
X883827Y326415D01*
Y324749D01*
X882161Y323083D01*
X880495D01*
X882161D01*
X883827Y321417D01*
Y319751D01*
X882161Y318085D01*
X878829D01*
X877163Y319751D01*
X109895Y318576D02*
Y325241D01*
X108228Y326907D01*
X104896D01*
X103230Y325241D01*
Y318576D01*
X104896Y316910D01*
X108228D01*
X106562Y320242D02*
X109895Y316910D01*
X108228D02*
X109895Y318576D01*
X113227Y316910D02*
X116559D01*
X114893D01*
Y326907D01*
X113227Y325241D01*
X121557Y315244D02*
X128222D01*
X131554Y325241D02*
X133220Y326907D01*
X136553D01*
X138219Y325241D01*
Y323574D01*
X136553Y321908D01*
X134886D01*
X136553D01*
X138219Y320242D01*
Y318576D01*
X136553Y316910D01*
X133220D01*
X131554Y318576D01*
X853837Y465501D02*
Y472165D01*
X852171Y473831D01*
X848839D01*
X847173Y472165D01*
Y465501D01*
X848839Y463835D01*
X852171D01*
X850505Y467167D02*
X853837Y463835D01*
X852171D02*
X853837Y465501D01*
X863834Y463835D02*
X857169D01*
X863834Y470499D01*
Y472165D01*
X862168Y473831D01*
X858836D01*
X857169Y472165D01*
X867166Y462169D02*
X873831D01*
X883827Y463835D02*
X877163D01*
X883827Y470499D01*
Y472165D01*
X882161Y473831D01*
X878829D01*
X877163Y472165D01*
X109895Y465642D02*
Y472307D01*
X108228Y473973D01*
X104896D01*
X103230Y472307D01*
Y465642D01*
X104896Y463976D01*
X108228D01*
X106562Y467308D02*
X109895Y463976D01*
X108228D02*
X109895Y465642D01*
X113227Y463976D02*
X116559D01*
X114893D01*
Y473973D01*
X113227Y472307D01*
X121557Y462310D02*
X128222D01*
X138219Y463976D02*
X131554D01*
X138219Y470640D01*
Y472307D01*
X136553Y473973D01*
X133220D01*
X131554Y472307D01*
X855503Y613751D02*
Y620415D01*
X853837Y622081D01*
X850505D01*
X848839Y620415D01*
Y613751D01*
X850505Y612085D01*
X853837D01*
X852171Y615417D02*
X855503Y612085D01*
X853837D02*
X855503Y613751D01*
X865500Y612085D02*
X858836D01*
X865500Y618749D01*
Y620415D01*
X863834Y622081D01*
X860502D01*
X858836Y620415D01*
X868832Y610419D02*
X875497D01*
X878829Y612085D02*
X882161D01*
X880495D01*
Y622081D01*
X878829Y620415D01*
X109895Y612454D02*
Y619119D01*
X108228Y620785D01*
X104896D01*
X103230Y619119D01*
Y612454D01*
X104896Y610788D01*
X108228D01*
X106562Y614120D02*
X109895Y610788D01*
X108228D02*
X109895Y612454D01*
X113227Y610788D02*
X116559D01*
X114893D01*
Y620785D01*
X113227Y619119D01*
X121557Y609122D02*
X128222D01*
X131554Y610788D02*
X134886D01*
X133220D01*
Y620785D01*
X131554Y619119D01*
X863834Y763418D02*
Y770082D01*
X862168Y771748D01*
X858836D01*
X857169Y770082D01*
Y763418D01*
X858836Y761752D01*
X862168D01*
X860502Y765084D02*
X863834Y761752D01*
X862168D02*
X863834Y763418D01*
X873831Y761752D02*
X867166D01*
X873831Y768416D01*
Y770082D01*
X872165Y771748D01*
X868832D01*
X867166Y770082D01*
X110148Y757488D02*
Y764153D01*
X108482Y765819D01*
X105150D01*
X103484Y764153D01*
Y757488D01*
X105150Y755822D01*
X108482D01*
X106816Y759154D02*
X110148Y755822D01*
X108482D02*
X110148Y757488D01*
X113481Y755822D02*
X116813D01*
X115147D01*
Y765819D01*
X113481Y764153D01*
X120309Y122691D02*
X116976D01*
X118642D01*
Y114360D01*
X116976Y112694D01*
X115310D01*
X113644Y114360D01*
X123641Y121025D02*
X125307Y122691D01*
X128639D01*
X130305Y121025D01*
Y119359D01*
X128639Y117692D01*
X126973D01*
X128639D01*
X130305Y116026D01*
Y114360D01*
X128639Y112694D01*
X125307D01*
X123641Y114360D01*
X623084Y871998D02*
X619752D01*
X621418D01*
Y863668D01*
X619752Y862002D01*
X618086D01*
X616419Y863668D01*
X633081Y862002D02*
X626416D01*
X633081Y868666D01*
Y870332D01*
X631414Y871998D01*
X628082D01*
X626416Y870332D01*
X337000Y125998D02*
X333668D01*
X335334D01*
Y117668D01*
X333668Y116002D01*
X332002D01*
X330336Y117668D01*
X340332Y116002D02*
X343665D01*
X341998D01*
Y125998D01*
X340332Y124332D01*
X629587Y831813D02*
Y821817D01*
X634585D01*
X636252Y823483D01*
Y830147D01*
X634585Y831813D01*
X629587D01*
X646248Y821817D02*
X639584D01*
X646248Y828481D01*
Y830147D01*
X644582Y831813D01*
X641250D01*
X639584Y830147D01*
X649581Y821817D02*
X652913D01*
X651247D01*
Y831813D01*
X649581Y830147D01*
X590910Y685555D02*
Y675558D01*
X595908D01*
X597575Y677224D01*
Y683889D01*
X595908Y685555D01*
X590910D01*
X607571Y675558D02*
X600907D01*
X607571Y682223D01*
Y683889D01*
X605905Y685555D01*
X602573D01*
X600907Y683889D01*
X610904D02*
X612570Y685555D01*
X615902D01*
X617568Y683889D01*
Y677224D01*
X615902Y675558D01*
X612570D01*
X610904Y677224D01*
Y683889D01*
X591418Y539505D02*
Y529508D01*
X596416D01*
X598083Y531174D01*
Y537839D01*
X596416Y539505D01*
X591418D01*
X601415Y529508D02*
X604747D01*
X603081D01*
Y539505D01*
X601415Y537839D01*
X609745Y531174D02*
X611412Y529508D01*
X614744D01*
X616410Y531174D01*
Y537839D01*
X614744Y539505D01*
X611412D01*
X609745Y537839D01*
Y536172D01*
X611412Y534506D01*
X616410D01*
X590656Y391423D02*
Y381426D01*
X595654D01*
X597321Y383092D01*
Y389757D01*
X595654Y391423D01*
X590656D01*
X600653Y381426D02*
X603985D01*
X602319D01*
Y391423D01*
X600653Y389757D01*
X608983Y391423D02*
X615648D01*
Y389757D01*
X608983Y383092D01*
Y381426D01*
X234419Y668248D02*
Y658252D01*
X239418D01*
X241084Y659918D01*
Y666582D01*
X239418Y668248D01*
X234419D01*
X251081Y658252D02*
X244416D01*
X251081Y664916D01*
Y666582D01*
X249415Y668248D01*
X246082D01*
X244416Y666582D01*
X170286Y796299D02*
Y786302D01*
X175284D01*
X176950Y787968D01*
Y794633D01*
X175284Y796299D01*
X170286D01*
X180283Y786302D02*
X183615D01*
X181949D01*
Y796299D01*
X180283Y794633D01*
X56301Y762121D02*
X54634Y763787D01*
X51302D01*
X49636Y762121D01*
Y755456D01*
X51302Y753790D01*
X54634D01*
X56301Y755456D01*
X59633Y753790D02*
X62965D01*
X61299D01*
Y763787D01*
X59633Y762121D01*
X174858Y731692D02*
X178190D01*
X176524D01*
Y741689D01*
X174858Y740023D01*
D11*
X598330Y714385D02*
G03*
X598330Y714385I-1500J0D01*
G01*
X596830Y572070D02*
G03*
X596830Y572070I-1500J0D01*
G01*
X597330Y426070D02*
G03*
X597330Y426070I-1500J0D01*
G01*
X596580Y278070D02*
G03*
X596580Y278070I-1500J0D01*
G01*
D12*
X185450Y263000D02*
G03*
X185450Y275700I0J6350D01*
G01*
X185680Y410827D02*
G03*
X185680Y423527I0J6350D01*
G01*
Y557723D02*
G03*
X185680Y570423I0J6350D01*
G01*
X185800Y704500D02*
G03*
X185800Y717200I0J6350D01*
G01*
X359030Y211250D02*
X404030D01*
X359030Y113750D02*
X404030D01*
X359030D02*
Y211250D01*
X404030Y113750D02*
Y211250D01*
X404000D02*
X449000D01*
X404000Y113750D02*
X449000D01*
X404000D02*
Y211250D01*
X449000Y113750D02*
Y211250D01*
X449250D02*
X494250D01*
X449250Y113750D02*
X494250D01*
X449250D02*
Y211250D01*
X494250Y113750D02*
Y211250D01*
X494250D02*
X539250D01*
X494250Y113750D02*
X539250D01*
X494250D02*
Y211250D01*
X539250Y113750D02*
Y211250D01*
X539000D02*
X584000D01*
X539000Y113750D02*
X584000D01*
X539000D02*
Y211250D01*
X584000Y113750D02*
Y211250D01*
X629000D01*
X584000Y113750D02*
X629000D01*
X584000D02*
Y211250D01*
X629000Y113750D02*
Y211250D01*
X674000D01*
X629000Y113750D02*
X674000D01*
X629000D02*
Y211250D01*
X674000Y113750D02*
Y211250D01*
X674000D02*
X719000D01*
X674000Y113750D02*
X719000D01*
X674000D02*
Y211250D01*
X719000Y113750D02*
Y211250D01*
X719250D02*
X764250D01*
X719250Y113750D02*
X764250D01*
X719250D02*
Y211250D01*
X764250Y113750D02*
Y211250D01*
X809250D01*
X764250Y113750D02*
X809250D01*
X764250D02*
Y211250D01*
X809250Y113750D02*
Y211250D01*
X806860Y842250D02*
Y887250D01*
X709360Y842250D02*
Y887250D01*
X806860D01*
X709360Y842250D02*
X806860D01*
Y797500D02*
Y842500D01*
X709360Y797500D02*
Y842500D01*
X806860D01*
X709360Y797500D02*
X806860D01*
Y752500D02*
Y797500D01*
X709360Y752500D02*
Y797500D01*
X806860D01*
X709360Y752500D02*
X806860D01*
Y707750D02*
Y752750D01*
X709360Y707750D02*
Y752750D01*
X806860D01*
X709360Y707750D02*
X806860D01*
Y662750D02*
Y707750D01*
X709360Y662750D02*
Y707750D01*
X806860D01*
X709360Y662750D02*
X806860D01*
Y618000D02*
Y663000D01*
X709360Y618000D02*
Y663000D01*
X806860D01*
X709360Y618000D02*
X806860D01*
Y573000D02*
Y618000D01*
X709360Y573000D02*
Y618000D01*
X806860D01*
X709360Y573000D02*
X806860D01*
Y528250D02*
Y573250D01*
X709360Y528250D02*
Y573250D01*
X806860D01*
X709360Y528250D02*
X806860D01*
Y483250D02*
Y528250D01*
X709360Y483250D02*
Y528250D01*
X806860D01*
X709360Y483250D02*
X806860D01*
Y438450D02*
Y483450D01*
X709360Y438450D02*
Y483450D01*
X806860D01*
X709360Y438450D02*
X806860D01*
X236250Y254110D02*
Y284590D01*
X185450Y254110D02*
X236250D01*
X185450Y284590D02*
X236250D01*
X185450Y275700D02*
Y284590D01*
Y254110D02*
Y263000D01*
X236480Y401937D02*
Y432417D01*
X185680Y401937D02*
X236480D01*
X185680Y432417D02*
X236480D01*
X185680Y423527D02*
Y432417D01*
Y401937D02*
Y410827D01*
X236480Y548833D02*
Y579313D01*
X185680Y548833D02*
X236480D01*
X185680Y579313D02*
X236480D01*
X185680Y570423D02*
Y579313D01*
Y548833D02*
Y557723D01*
X236600Y695610D02*
Y726090D01*
X185800Y695610D02*
X236600D01*
X185800Y726090D02*
X236600D01*
X185800Y717200D02*
Y726090D01*
Y695610D02*
Y704500D01*
D13*
X794000Y250750D02*
Y257350D01*
X776150Y262050D02*
X782850D01*
X765000Y250750D02*
Y257350D01*
X789250Y368450D02*
Y375050D01*
X771400Y379750D02*
X778100D01*
X760250Y368450D02*
Y375050D01*
X114500Y102950D02*
X317500D01*
X114500Y11950D02*
Y102950D01*
Y11950D02*
X317500D01*
Y102950D01*
X599000Y831250D02*
Y909250D01*
X299000Y831250D02*
Y909250D01*
Y831250D02*
X599000D01*
X299000Y909250D02*
X599000D01*
X338550Y102950D02*
X491050D01*
Y11950D02*
Y102950D01*
X338550Y11950D02*
Y102950D01*
Y11950D02*
X491050D01*
X652700Y723265D02*
Y791865D01*
X594300Y723265D02*
Y791865D01*
X651200Y580950D02*
Y649550D01*
X592800Y580950D02*
Y649550D01*
X651700Y434950D02*
Y503550D01*
X593300Y434950D02*
Y503550D01*
X650950Y286950D02*
Y355550D01*
X592550Y286950D02*
Y355550D01*
X286005Y330055D02*
X329755D01*
X286005Y302805D02*
X329755D01*
X286005Y328430D02*
Y330055D01*
Y302805D02*
Y304430D01*
X329755Y328430D02*
Y330055D01*
Y302805D02*
Y304430D01*
X286005Y476952D02*
X329755D01*
X286005Y449702D02*
X329755D01*
X286005Y475327D02*
Y476952D01*
Y449702D02*
Y451327D01*
X329755Y475327D02*
Y476952D01*
Y449702D02*
Y451327D01*
X284375Y622875D02*
X328125D01*
X284375Y595625D02*
X328125D01*
X284375Y621250D02*
Y622875D01*
Y595625D02*
Y597250D01*
X328125Y621250D02*
Y622875D01*
Y595625D02*
Y597250D01*
X285625Y770375D02*
X329375D01*
X285625Y743125D02*
X329375D01*
X285625Y768750D02*
Y770375D01*
Y743125D02*
Y744750D01*
X329375Y768750D02*
Y770375D01*
Y743125D02*
Y744750D01*
X258255Y219055D02*
Y262805D01*
X285505Y219055D02*
Y262805D01*
X258255Y219055D02*
X259880D01*
X283880D02*
X285505D01*
X258255Y262805D02*
X259880D01*
X283880D02*
X285505D01*
X258255Y365952D02*
Y409702D01*
X285505Y365952D02*
Y409702D01*
X258255Y365952D02*
X259880D01*
X283880D02*
X285505D01*
X258255Y409702D02*
X259880D01*
X283880D02*
X285505D01*
X258255Y512848D02*
Y556598D01*
X285505Y512848D02*
Y556598D01*
X258255Y512848D02*
X259880D01*
X283880D02*
X285505D01*
X258255Y556598D02*
X259880D01*
X283880D02*
X285505D01*
X258375Y659625D02*
Y703375D01*
X285625Y659625D02*
Y703375D01*
X258375Y659625D02*
X260000D01*
X284000D02*
X285625D01*
X258375Y703375D02*
X260000D01*
X284000D02*
X285625D01*
X183755Y308555D02*
X227505D01*
X183755Y335805D02*
X227505D01*
Y308555D02*
Y310180D01*
Y334180D02*
Y335805D01*
X183755Y308555D02*
Y310180D01*
Y334180D02*
Y335805D01*
Y455452D02*
X227505D01*
X183755Y482702D02*
X227505D01*
Y455452D02*
Y457077D01*
Y481077D02*
Y482702D01*
X183755Y455452D02*
Y457077D01*
Y481077D02*
Y482702D01*
Y602348D02*
X227505D01*
X183755Y629598D02*
X227505D01*
Y602348D02*
Y603973D01*
Y627973D02*
Y629598D01*
X183755Y602348D02*
Y603973D01*
Y627973D02*
Y629598D01*
X183875Y749125D02*
X227625D01*
X183875Y776375D02*
X227625D01*
Y749125D02*
Y750750D01*
Y774750D02*
Y776375D01*
X183875Y749125D02*
Y750750D01*
Y774750D02*
Y776375D01*
D14*
X49630Y295180D02*
X53630D01*
X49630Y288180D02*
Y295180D01*
X89630D02*
X93630D01*
Y288180D02*
Y295180D01*
X49630Y221180D02*
X53630D01*
X49630D02*
Y233180D01*
X89630Y221180D02*
X93630D01*
Y233180D01*
X49630Y442077D02*
X53630D01*
X49630Y435077D02*
Y442077D01*
X89630D02*
X93630D01*
Y435077D02*
Y442077D01*
X49630Y368077D02*
X53630D01*
X49630D02*
Y380077D01*
X89630Y368077D02*
X93630D01*
Y380077D01*
X49630Y588973D02*
X53630D01*
X49630Y581973D02*
Y588973D01*
X89630D02*
X93630D01*
Y581973D02*
Y588973D01*
X49630Y514973D02*
X53630D01*
X49630D02*
Y526973D01*
X89630Y514973D02*
X93630D01*
Y526973D01*
X49750Y735750D02*
X53750D01*
X49750Y728750D02*
Y735750D01*
X89750D02*
X93750D01*
Y728750D02*
Y735750D01*
X49750Y661750D02*
X53750D01*
X49750D02*
Y673750D01*
X89750Y661750D02*
X93750D01*
Y673750D01*
D15*
X57630Y273180D02*
X85630D01*
X57630Y420077D02*
X85630D01*
X57630Y566973D02*
X85630D01*
X57750Y713750D02*
X85750D01*
M02*
