G04*
G04 #@! TF.GenerationSoftware,Altium Limited,Altium Designer,20.0.13 (296)*
G04*
G04 Layer_Physical_Order=1*
G04 Layer_Color=255*
%FSLAX44Y44*%
%MOMM*%
G71*
G01*
G75*
%ADD15C,0.3000*%
%ADD36R,2.6500X1.7500*%
%ADD37R,3.8100X2.7940*%
G04:AMPARAMS|DCode=38|XSize=1mm|YSize=1.42mm|CornerRadius=0.125mm|HoleSize=0mm|Usage=FLASHONLY|Rotation=0.000|XOffset=0mm|YOffset=0mm|HoleType=Round|Shape=RoundedRectangle|*
%AMROUNDEDRECTD38*
21,1,1.0000,1.1700,0,0,0.0*
21,1,0.7500,1.4200,0,0,0.0*
1,1,0.2500,0.3750,-0.5850*
1,1,0.2500,-0.3750,-0.5850*
1,1,0.2500,-0.3750,0.5850*
1,1,0.2500,0.3750,0.5850*
%
%ADD38ROUNDEDRECTD38*%
%ADD39R,1.2100X0.5900*%
%ADD40R,3.4000X2.0000*%
%ADD41R,2.0000X3.4000*%
%ADD42R,1.7500X2.6500*%
%ADD43R,2.5000X2.6000*%
%ADD44R,0.6350X1.2700*%
%ADD45C,0.5000*%
%ADD46C,2.0000*%
%ADD47C,0.4000*%
%ADD48C,1.8000*%
%ADD49C,3.0000*%
%ADD50C,5.0000*%
%ADD51R,1.6050X1.6050*%
%ADD52C,1.6050*%
%ADD53R,3.0480X1.5240*%
%ADD54O,3.0480X1.5240*%
%ADD55C,3.1750*%
%ADD56R,2.1000X2.1000*%
%ADD57C,2.1000*%
%ADD58R,1.4000X1.4000*%
%ADD59C,1.4000*%
%ADD60C,1.2700*%
%ADD61C,8.0000*%
G36*
X896168Y3832D02*
X771513D01*
X770556Y6141D01*
X784670Y20255D01*
X785089Y20548D01*
X788850D01*
X791751Y21749D01*
X792952Y24650D01*
Y36350D01*
X791751Y39251D01*
X788850Y40452D01*
X785234D01*
X784277Y42762D01*
X785857Y44342D01*
X786134Y45010D01*
X794140D01*
Y54510D01*
Y63912D01*
X816823D01*
X820680Y65509D01*
X854857Y99686D01*
X856455Y103544D01*
Y180750D01*
X854857Y184607D01*
X788955Y250510D01*
Y485821D01*
X787357Y489678D01*
X784428Y492607D01*
X780571Y494205D01*
X765933D01*
Y512250D01*
X764900Y514744D01*
Y516756D01*
X765933Y519250D01*
Y557250D01*
Y602000D01*
Y647000D01*
Y669375D01*
Y691750D01*
X764900Y694244D01*
Y711290D01*
X745863D01*
X744860Y711705D01*
X740260D01*
X697245Y754720D01*
X696952Y755139D01*
Y763100D01*
X696458Y764293D01*
X696349Y765003D01*
X696156Y765320D01*
X696028Y765576D01*
X695905Y765878D01*
X695803Y766189D01*
X695630Y766940D01*
Y774192D01*
X698054Y775196D01*
X700872Y782000D01*
X698054Y788804D01*
X691250Y791622D01*
X684446Y788804D01*
X681628Y782000D01*
X684446Y775196D01*
X684720Y775082D01*
Y767100D01*
X684673Y766922D01*
X682449Y766001D01*
X681248Y763100D01*
Y751400D01*
X682449Y748499D01*
X685350Y747298D01*
X689111D01*
X689530Y747005D01*
X734143Y702393D01*
X738000Y700795D01*
X739820D01*
Y694244D01*
X738787Y691750D01*
Y681191D01*
X683377D01*
X682879Y683691D01*
X689236Y686324D01*
X692457Y694100D01*
X689236Y701876D01*
X681460Y705097D01*
X680059D01*
X675852Y706840D01*
X676349Y709340D01*
X691620D01*
Y729660D01*
X675547D01*
X675511Y729746D01*
X675455Y729957D01*
Y747838D01*
X677051Y748499D01*
X678252Y751400D01*
Y763100D01*
X677051Y766001D01*
X674150Y767202D01*
X666650D01*
X663749Y766001D01*
X662548Y763100D01*
Y751400D01*
X663749Y748499D01*
X664545Y748170D01*
Y729957D01*
X664489Y729746D01*
X664453Y729660D01*
X656060D01*
Y709983D01*
X655673Y708983D01*
X654250Y707673D01*
X645090D01*
Y738390D01*
X601910D01*
Y707673D01*
X597522D01*
X593235Y711960D01*
Y766050D01*
X593055Y766485D01*
Y836430D01*
X593055Y836430D01*
X592985Y836599D01*
Y869250D01*
X588236Y880717D01*
X589906Y883217D01*
X672838D01*
X695902Y860152D01*
X705500Y856177D01*
X715098Y860152D01*
X719073Y869750D01*
X715098Y879348D01*
X688058Y906388D01*
X678931Y910168D01*
X679428Y912668D01*
X896168D01*
Y3832D01*
D02*
G37*
G36*
X399171Y910168D02*
X398860Y909823D01*
X104000D01*
X94402Y905848D01*
X72152Y883598D01*
X68177Y874000D01*
X72152Y864402D01*
X81750Y860427D01*
X91348Y864402D01*
X109622Y882677D01*
X347503D01*
X348891Y880598D01*
X344191Y869250D01*
X344261Y869081D01*
Y789029D01*
X342182Y787640D01*
X338000Y789372D01*
X331196Y786554D01*
X328378Y779750D01*
X330397Y774874D01*
X330426Y774709D01*
X330541Y774528D01*
X331196Y772946D01*
X331243Y772926D01*
X331295Y772716D01*
Y768336D01*
X331239Y768127D01*
X331203Y768040D01*
X313210D01*
Y745460D01*
X344261D01*
Y707673D01*
X327499D01*
X327002Y710173D01*
X330456Y711604D01*
X333677Y719380D01*
X330456Y727156D01*
X322680Y730377D01*
X307440D01*
X299664Y727156D01*
X299345Y726385D01*
X294580D01*
X293452Y727513D01*
Y736100D01*
X292251Y739001D01*
X289350Y740202D01*
X281850D01*
X278949Y739001D01*
X277748Y736100D01*
Y724400D01*
X278949Y721499D01*
X279454Y721290D01*
X278957Y718790D01*
X273543D01*
X273046Y721290D01*
X273551Y721499D01*
X274752Y724400D01*
Y736100D01*
X273551Y739001D01*
X270808Y740137D01*
X270655Y741235D01*
X270662Y742697D01*
X273010Y745045D01*
X279750D01*
X280753Y745460D01*
X301790D01*
Y768040D01*
X270210D01*
Y755732D01*
X266893Y754357D01*
X261143Y748607D01*
X259545Y744750D01*
Y737859D01*
X259518Y737734D01*
X259472Y737586D01*
X259502Y737249D01*
X259498Y737187D01*
X259048Y736100D01*
Y730013D01*
X257240Y728205D01*
X252845D01*
X252357Y730657D01*
X253054Y730946D01*
X255872Y737750D01*
X253054Y744554D01*
X246250Y747373D01*
X239446Y744554D01*
X238577Y742455D01*
X236279D01*
X236076Y742510D01*
X235989Y742545D01*
X235965Y742589D01*
Y745140D01*
X224535D01*
X224535Y745140D01*
X223265D01*
Y745140D01*
X222035Y745140D01*
X214334D01*
X214088Y747640D01*
X226848Y750178D01*
X240920Y759580D01*
X250322Y773652D01*
X253623Y790250D01*
X250322Y806848D01*
X240920Y820920D01*
X226848Y830322D01*
X210250Y833623D01*
X193652Y830322D01*
X179580Y820920D01*
X170178Y806848D01*
X166877Y790250D01*
X170178Y773652D01*
X178594Y761056D01*
X176653Y759462D01*
X163008Y773107D01*
X159150Y774705D01*
X145211D01*
X145001Y774762D01*
X144915Y774797D01*
Y780540D01*
X113335D01*
Y757960D01*
X144915D01*
Y763703D01*
X145001Y763738D01*
X145211Y763795D01*
X156890D01*
X176670Y744015D01*
X175714Y741705D01*
X87086D01*
X86876Y741761D01*
X86790Y741797D01*
Y748290D01*
X56710D01*
Y717210D01*
X86790D01*
Y730703D01*
X86876Y730739D01*
X87086Y730795D01*
X186138D01*
X186348Y730739D01*
X186435Y730703D01*
Y727360D01*
X196635D01*
X198500Y727360D01*
X200365Y727360D01*
X202850D01*
X204470Y725740D01*
X205478Y723308D01*
X232135Y696650D01*
X231520Y695164D01*
Y686720D01*
X235965D01*
Y689554D01*
X238275Y690510D01*
X260128Y668657D01*
X260546Y668060D01*
X260710Y667774D01*
Y666507D01*
X260562Y666149D01*
X260649Y665937D01*
X260596Y665715D01*
X260710Y665529D01*
Y644210D01*
X277247D01*
X278250Y643795D01*
X281140D01*
X282543Y642393D01*
X286400Y640795D01*
X291040D01*
X291048Y640792D01*
Y640400D01*
X292249Y637499D01*
X295150Y636298D01*
X302650D01*
X305551Y637499D01*
X306752Y640400D01*
Y652100D01*
X305551Y655001D01*
X303331Y655920D01*
X303829Y658420D01*
X311911D01*
X311954Y658396D01*
X311990Y658309D01*
X312045Y658106D01*
Y655454D01*
X310949Y655001D01*
X309748Y652100D01*
Y640400D01*
X310949Y637499D01*
X313850Y636298D01*
X321350D01*
X324251Y637499D01*
X325452Y640400D01*
Y652100D01*
X324251Y655001D01*
X322955Y655537D01*
Y658106D01*
X323010Y658309D01*
X323046Y658396D01*
X323089Y658420D01*
X332840D01*
Y678027D01*
X332840Y678740D01*
X334562Y680527D01*
X344261D01*
Y638383D01*
X342182Y636994D01*
X338250Y638623D01*
X331446Y635804D01*
X328628Y629000D01*
X331096Y623040D01*
X329835Y620540D01*
X311960D01*
Y597960D01*
X343540D01*
X344261Y595759D01*
Y560776D01*
X327090D01*
X326592Y563276D01*
X330336Y564827D01*
X333557Y572603D01*
X330336Y580379D01*
X322560Y583600D01*
X307320D01*
X299544Y580379D01*
X299224Y579609D01*
X294460D01*
X292297Y581771D01*
X292087Y582057D01*
X291952Y582270D01*
Y589100D01*
X290751Y592001D01*
X287850Y593202D01*
X280350D01*
X277449Y592001D01*
X276248Y589100D01*
Y577400D01*
X277449Y574499D01*
X276918Y572013D01*
X272582D01*
X272051Y574499D01*
X273252Y577400D01*
Y589100D01*
X272051Y592001D01*
X270447Y592665D01*
X270403Y592780D01*
X270335Y593048D01*
Y595714D01*
X272582Y597960D01*
X300540D01*
Y620540D01*
X268960D01*
Y608633D01*
X267022Y607831D01*
X261022Y601831D01*
X259425Y597973D01*
Y592973D01*
X259343Y592654D01*
X259255Y592402D01*
X259184Y592252D01*
X259156Y592209D01*
X259055Y592127D01*
X258749Y592001D01*
X258062Y590342D01*
X255685Y591136D01*
X252934Y597777D01*
X246130Y600596D01*
X239326Y597777D01*
X238456Y595679D01*
X236159D01*
X235956Y595733D01*
X235869Y595769D01*
X235845Y595812D01*
Y598363D01*
X224415D01*
X224415Y598363D01*
X223145D01*
Y598363D01*
X221915Y598363D01*
X211715D01*
X211715Y598363D01*
X210445D01*
Y598363D01*
X209215Y598363D01*
X207949D01*
X206992Y600673D01*
X210587Y604268D01*
X220880D01*
X221882Y604683D01*
X242920D01*
Y627263D01*
X211340D01*
Y615272D01*
X211248Y615235D01*
X211039Y615179D01*
X208327D01*
X204470Y613581D01*
X202230Y611340D01*
X199920Y612297D01*
Y627263D01*
X171989D01*
X171032Y629573D01*
X217860Y676401D01*
X218087Y676560D01*
X218290D01*
X218648Y676412D01*
X218861Y676500D01*
X219085Y676447D01*
X219269Y676560D01*
X223900Y676560D01*
X225765Y676560D01*
X228980D01*
Y685450D01*
Y694340D01*
X223900Y694340D01*
X222035Y694340D01*
X213065D01*
X211835Y694340D01*
Y694340D01*
X210565D01*
Y694340D01*
X200365D01*
X199135Y694340D01*
Y694340D01*
X197865D01*
Y694340D01*
X194150D01*
X182766Y705724D01*
X185262Y711750D01*
X182444Y718554D01*
X175640Y721373D01*
X168836Y718554D01*
X166017Y711750D01*
X168836Y704946D01*
X170051Y704443D01*
X170114Y704362D01*
X171116Y701944D01*
X186435Y686625D01*
Y676560D01*
X189684D01*
X190641Y674250D01*
X153764Y637373D01*
X60665D01*
X60665Y637373D01*
X57573Y636092D01*
X57573Y636092D01*
X16658Y595177D01*
X15377Y592085D01*
X15377Y592085D01*
Y580835D01*
Y573250D01*
Y171826D01*
X15377Y171826D01*
X16658Y168734D01*
X143734Y41658D01*
X143734Y41658D01*
X146826Y40377D01*
X146826Y40377D01*
X154635D01*
Y34185D01*
X175765D01*
Y50134D01*
X178075Y51091D01*
X180703Y48463D01*
X179165Y44750D01*
X182514Y36664D01*
X190600Y33314D01*
X198686Y36664D01*
X202036Y44750D01*
X198844Y52456D01*
X200843Y53723D01*
X206103Y48463D01*
X204564Y44750D01*
X207914Y36664D01*
X216000Y33314D01*
X224086Y36664D01*
X227435Y44750D01*
X224086Y52836D01*
X216000Y56185D01*
X212287Y54647D01*
X209418Y57516D01*
X209516Y58694D01*
X212159Y60306D01*
X216000Y58714D01*
X224086Y62064D01*
X224452Y62947D01*
X226952D01*
X229074Y57824D01*
X233948Y55805D01*
Y53099D01*
X233314Y52836D01*
X229965Y44750D01*
X233314Y36664D01*
X241400Y33314D01*
X249486Y36664D01*
X252836Y44750D01*
X249486Y52836D01*
X245905Y54320D01*
X245773Y56629D01*
X245352Y57646D01*
X245660Y60356D01*
X246608Y60872D01*
X249486Y62064D01*
X252836Y70150D01*
X249665Y77804D01*
X250311Y78591D01*
X250414Y78928D01*
X250696Y79140D01*
X270304Y112292D01*
X270468Y113443D01*
X270913Y114518D01*
Y178463D01*
X273413Y179356D01*
X280000Y176628D01*
X286804Y179446D01*
X289622Y186250D01*
X286804Y193054D01*
X280301Y195748D01*
X277335Y198713D01*
Y203344D01*
X277391Y203554D01*
X277427Y203640D01*
X283170D01*
Y235220D01*
X270851D01*
X270665Y235334D01*
X270443Y235281D01*
X270231Y235368D01*
X269873Y235220D01*
X268606D01*
X268320Y235384D01*
X267724Y235801D01*
X248527Y254998D01*
X249497Y257563D01*
X255684Y260126D01*
X258090Y265934D01*
X260590Y265437D01*
Y246640D01*
X277127D01*
X278130Y246225D01*
X281390D01*
X296579Y231036D01*
X296996Y230440D01*
X297160Y230154D01*
Y228887D01*
X297012Y228528D01*
X297099Y228317D01*
X297046Y228095D01*
X297160Y227910D01*
Y217850D01*
X332720D01*
Y237337D01*
X332720Y238170D01*
X334530Y239837D01*
X361212D01*
X374070Y234511D01*
X395148Y243242D01*
X403879Y264320D01*
Y399500D01*
Y408959D01*
X406379Y409456D01*
X410575Y399325D01*
X423641Y393913D01*
X573742Y243812D01*
X583340Y239837D01*
X661690D01*
X662188Y237337D01*
X658444Y235786D01*
X655223Y228010D01*
X658444Y220234D01*
X661097Y219135D01*
Y205073D01*
X315280D01*
X312786Y204040D01*
X295740D01*
Y178960D01*
X312786D01*
X315280Y177927D01*
X511795D01*
Y173000D01*
X513392Y169143D01*
X527643Y154893D01*
X531500Y153295D01*
X747295D01*
Y116495D01*
X681540D01*
X677682Y114897D01*
X648095Y85310D01*
X645595Y86346D01*
Y100821D01*
X643997Y104678D01*
X641068Y107607D01*
X637211Y109205D01*
X517750D01*
X513893Y107607D01*
X481890Y75605D01*
X449226D01*
X448136Y78236D01*
X440050Y81586D01*
X431964Y78236D01*
X428615Y70150D01*
X431964Y62064D01*
X440050Y58714D01*
X448136Y62064D01*
X449226Y64695D01*
X484150D01*
X488007Y66293D01*
X520010Y98295D01*
X530914D01*
X532303Y96216D01*
X532048Y95600D01*
Y83900D01*
X532552Y82683D01*
X532545Y82659D01*
X532603Y82560D01*
X533249Y80999D01*
X533368Y80173D01*
Y79327D01*
X533249Y78501D01*
X532603Y76940D01*
X532545Y76841D01*
X532552Y76817D01*
X532048Y75600D01*
Y63900D01*
X533249Y60999D01*
X533249Y58501D01*
X532048Y55600D01*
Y43900D01*
X532552Y42683D01*
X532545Y42659D01*
X532603Y42560D01*
X533249Y40999D01*
X533368Y40173D01*
Y39327D01*
X533249Y38501D01*
X532603Y36940D01*
X532545Y36841D01*
X532552Y36817D01*
X532048Y35600D01*
Y23900D01*
X532439Y22955D01*
X530769Y20455D01*
X400260D01*
X394705Y26010D01*
Y33871D01*
X394760Y34074D01*
X394796Y34161D01*
X394839Y34185D01*
X399815D01*
Y48234D01*
X402125Y49191D01*
X404196Y47120D01*
X403214Y44750D01*
X406564Y36664D01*
X414650Y33314D01*
X422736Y36664D01*
X426086Y44750D01*
X422736Y52836D01*
X414650Y56185D01*
X409593Y54091D01*
X402842Y60842D01*
X399750Y62123D01*
X399429Y62395D01*
X398222Y64201D01*
X400159Y68880D01*
X378341D01*
X379844Y65251D01*
X378250Y63205D01*
X377043Y62705D01*
X376679D01*
X372822Y61107D01*
X369893Y58179D01*
X368295Y54321D01*
Y19750D01*
X369893Y15893D01*
X379644Y6141D01*
X378687Y3832D01*
X3832D01*
Y912668D01*
X398058D01*
X399171Y910168D01*
D02*
G37*
G36*
X341465Y774429D02*
X341044Y774122D01*
X340668Y773779D01*
X340336Y773399D01*
X340047Y772982D01*
X339804Y772529D01*
X339604Y772039D01*
X339449Y771513D01*
X339339Y770950D01*
X339272Y770350D01*
X339261Y770038D01*
X339275Y769514D01*
X339350Y768659D01*
X339475Y767904D01*
X339650Y767250D01*
X339875Y766697D01*
X340150Y766244D01*
X340475Y765892D01*
X340850Y765640D01*
X341275Y765489D01*
X341750Y765439D01*
X331750D01*
X332225Y765489D01*
X332650Y765640D01*
X333025Y765892D01*
X333350Y766244D01*
X333625Y766697D01*
X333850Y767250D01*
X334025Y767904D01*
X334150Y768659D01*
X334225Y769514D01*
X334250Y770470D01*
X335821D01*
X334250Y770816D01*
X334235Y771437D01*
X334115Y772624D01*
X334010Y773189D01*
X333875Y773735D01*
X333710Y774262D01*
X333515Y774770D01*
X333290Y775258D01*
X333034Y775728D01*
X332749Y776179D01*
X341465Y774429D01*
D02*
G37*
G36*
X142364Y773775D02*
X142515Y773350D01*
X142767Y772975D01*
X143119Y772650D01*
X143572Y772375D01*
X144125Y772150D01*
X144779Y771975D01*
X145534Y771850D01*
X146389Y771775D01*
X147345Y771750D01*
Y766750D01*
X146389Y766725D01*
X145534Y766650D01*
X144779Y766525D01*
X144125Y766350D01*
X143572Y766125D01*
X143119Y765850D01*
X142767Y765525D01*
X142515Y765150D01*
X142364Y764725D01*
X142314Y764250D01*
Y774250D01*
X142364Y773775D01*
D02*
G37*
G36*
X692688Y768604D02*
X692794Y767234D01*
X692887Y766603D01*
X693151Y765450D01*
X693324Y764927D01*
X693522Y764441D01*
X693747Y763990D01*
X693999Y763576D01*
X685181Y764279D01*
X685655Y764294D01*
X686079Y764418D01*
X686453Y764651D01*
X686777Y764994D01*
X687051Y765445D01*
X687276Y766007D01*
X687450Y766677D01*
X687575Y767457D01*
X687650Y768345D01*
X687675Y769343D01*
X692675D01*
X692688Y768604D01*
D02*
G37*
G36*
X693783Y756842D02*
X693645Y756384D01*
X693648Y755855D01*
X693792Y755255D01*
X694078Y754584D01*
X694505Y753841D01*
X695074Y753027D01*
X695784Y752141D01*
X697629Y750157D01*
X694093Y746621D01*
X693065Y747614D01*
X691223Y749176D01*
X690409Y749744D01*
X689666Y750172D01*
X688995Y750458D01*
X688395Y750602D01*
X687866Y750605D01*
X687409Y750467D01*
X687022Y750187D01*
X694063Y757228D01*
X693783Y756842D01*
D02*
G37*
G36*
X267525Y741346D02*
X267600Y740459D01*
X267725Y739681D01*
X267900Y739013D01*
X268125Y738455D01*
X268400Y738007D01*
X268725Y737669D01*
X269100Y737440D01*
X269525Y737322D01*
X270000Y737313D01*
X262001Y736576D01*
X262096Y736766D01*
X262181Y737037D01*
X262256Y737389D01*
X262320Y737823D01*
X262420Y738934D01*
X262495Y741211D01*
X262500Y742132D01*
X267500Y742343D01*
X267525Y741346D01*
D02*
G37*
G36*
X233444Y741525D02*
X233594Y741100D01*
X233845Y740725D01*
X234195Y740400D01*
X234645Y740125D01*
X235194Y739900D01*
X235844Y739725D01*
X236595Y739600D01*
X237444Y739525D01*
X238395Y739500D01*
Y734500D01*
X237444Y734475D01*
X236595Y734400D01*
X235844Y734275D01*
X235194Y734100D01*
X234645Y733875D01*
X234195Y733600D01*
X233845Y733275D01*
X233594Y732900D01*
X233444Y732475D01*
X233395Y732000D01*
Y742000D01*
X233444Y741525D01*
D02*
G37*
G36*
X189036Y731250D02*
X188986Y731725D01*
X188835Y732150D01*
X188583Y732525D01*
X188231Y732850D01*
X187778Y733125D01*
X187225Y733350D01*
X186571Y733525D01*
X185816Y733650D01*
X184961Y733725D01*
X184006Y733750D01*
Y738750D01*
X184961Y738775D01*
X185816Y738850D01*
X186571Y738975D01*
X187225Y739150D01*
X187778Y739375D01*
X188231Y739650D01*
X188583Y739975D01*
X188835Y740350D01*
X188986Y740775D01*
X189036Y741250D01*
Y731250D01*
D02*
G37*
G36*
X84239Y740775D02*
X84390Y740350D01*
X84642Y739975D01*
X84994Y739650D01*
X85447Y739375D01*
X86000Y739150D01*
X86654Y738975D01*
X87409Y738850D01*
X88264Y738775D01*
X89220Y738750D01*
Y733750D01*
X88264Y733725D01*
X87409Y733650D01*
X86654Y733525D01*
X86000Y733350D01*
X85447Y733125D01*
X84994Y732850D01*
X84642Y732525D01*
X84390Y732150D01*
X84239Y731725D01*
X84189Y731250D01*
Y741250D01*
X84239Y740775D01*
D02*
G37*
G36*
X672525Y731134D02*
X672600Y730278D01*
X672725Y729524D01*
X672900Y728870D01*
X673125Y728317D01*
X673400Y727864D01*
X673725Y727512D01*
X674100Y727260D01*
X674525Y727109D01*
X675000Y727059D01*
X665000D01*
X665475Y727109D01*
X665900Y727260D01*
X666275Y727512D01*
X666600Y727864D01*
X666875Y728317D01*
X667100Y728870D01*
X667275Y729524D01*
X667400Y730278D01*
X667475Y731134D01*
X667500Y732089D01*
X672500D01*
X672525Y731134D01*
D02*
G37*
G36*
X290477Y727292D02*
X290489Y727074D01*
X290598Y726783D01*
X290805Y726418D01*
X291108Y725981D01*
X291510Y725470D01*
X292604Y724230D01*
X294088Y722698D01*
X290093Y719621D01*
X289306Y720396D01*
X286843Y722567D01*
X286400Y722877D01*
X286025Y723094D01*
X285718Y723218D01*
X285481Y723249D01*
X285312Y723187D01*
X290563Y727438D01*
X290477Y727292D01*
D02*
G37*
G36*
X742391Y708719D02*
X742421Y701860D01*
X742375Y702219D01*
X742241Y702540D01*
X742020Y702824D01*
X741710Y703070D01*
X741311Y703277D01*
X740825Y703448D01*
X740251Y703580D01*
X739589Y703674D01*
X738838Y703731D01*
X738000Y703750D01*
Y708750D01*
X742391Y708719D01*
D02*
G37*
G36*
X179652Y706770D02*
X179494Y706485D01*
X179412Y706175D01*
X179409Y705840D01*
X179483Y705480D01*
X179634Y705094D01*
X179862Y704683D01*
X180168Y704247D01*
X180551Y703785D01*
X181012Y703298D01*
X176296Y700944D01*
X171749Y706732D01*
X179888Y707030D01*
X179652Y706770D01*
D02*
G37*
G36*
X636611Y707832D02*
X635958Y707416D01*
X635382Y706723D01*
X634883Y705752D01*
X634460Y704503D01*
X634114Y702977D01*
X633846Y701174D01*
X633654Y699093D01*
X633500Y694100D01*
X613500D01*
X613462Y696736D01*
X613154Y701174D01*
X612886Y702977D01*
X612540Y704503D01*
X612117Y705752D01*
X611618Y706723D01*
X611042Y707416D01*
X610389Y707832D01*
X609660Y707971D01*
X637341D01*
X636611Y707832D01*
D02*
G37*
G36*
X280750Y695196D02*
X280842Y695102D01*
X280994Y695020D01*
X281208Y694948D01*
X281482Y694888D01*
X281818Y694838D01*
X282672Y694772D01*
X283770Y694750D01*
Y689750D01*
X280720Y689781D01*
Y695301D01*
X280750Y695196D01*
D02*
G37*
G36*
X589283Y713150D02*
X589645Y712307D01*
X590186Y711342D01*
X590905Y710255D01*
X591803Y709046D01*
X594134Y706262D01*
X597180Y702990D01*
X598971Y701171D01*
X584829Y687029D01*
X583010Y688820D01*
X575745Y695095D01*
X574658Y695814D01*
X573693Y696355D01*
X572850Y696717D01*
X572129Y696901D01*
X589099Y713871D01*
X589283Y713150D01*
D02*
G37*
G36*
X218648Y679161D02*
X218417Y679328D01*
X218144Y679409D01*
X217827Y679406D01*
X217467Y679318D01*
X217065Y679146D01*
X216619Y678888D01*
X216130Y678546D01*
X215598Y678118D01*
X214405Y677009D01*
X212284Y679130D01*
X212881Y679748D01*
X213821Y680855D01*
X214163Y681344D01*
X214421Y681790D01*
X214593Y682193D01*
X214681Y682552D01*
X214684Y682869D01*
X214603Y683142D01*
X214436Y683373D01*
X218648Y679161D01*
D02*
G37*
G36*
X205948D02*
X205718Y679328D01*
X205444Y679409D01*
X205127Y679406D01*
X204767Y679318D01*
X204365Y679146D01*
X203919Y678888D01*
X203430Y678546D01*
X202898Y678118D01*
X201705Y677009D01*
X199584Y679130D01*
X200181Y679748D01*
X201121Y680855D01*
X201463Y681344D01*
X201721Y681790D01*
X201893Y682193D01*
X201981Y682552D01*
X201984Y682869D01*
X201903Y683142D01*
X201736Y683373D01*
X205948Y679161D01*
D02*
G37*
G36*
X300879Y678712D02*
X302721Y677150D01*
X303535Y676582D01*
X304277Y676154D01*
X304949Y675868D01*
X305549Y675724D01*
X306078Y675721D01*
X306535Y675859D01*
X306922Y676139D01*
X299881Y669099D01*
X300161Y669485D01*
X300299Y669942D01*
X300296Y670471D01*
X300152Y671071D01*
X299866Y671742D01*
X299438Y672485D01*
X298870Y673299D01*
X298160Y674185D01*
X296315Y676170D01*
X299851Y679705D01*
X300879Y678712D01*
D02*
G37*
G36*
X264308Y675762D02*
X266151Y674200D01*
X266965Y673632D01*
X267708Y673204D01*
X268379Y672918D01*
X268979Y672774D01*
X269508Y672771D01*
X269965Y672909D01*
X270352Y673189D01*
X263311Y666149D01*
X263591Y666535D01*
X263729Y666992D01*
X263726Y667521D01*
X263582Y668121D01*
X263296Y668792D01*
X262868Y669535D01*
X262300Y670349D01*
X261590Y671235D01*
X259745Y673220D01*
X263281Y676755D01*
X264308Y675762D01*
D02*
G37*
G36*
X322025Y660940D02*
X321600Y660790D01*
X321225Y660540D01*
X320900Y660191D01*
X320625Y659741D01*
X320400Y659191D01*
X320225Y658540D01*
X320100Y657791D01*
X320025Y656941D01*
X320000Y655991D01*
X315000D01*
X314975Y656941D01*
X314900Y657791D01*
X314775Y658540D01*
X314600Y659191D01*
X314375Y659741D01*
X314100Y660191D01*
X313775Y660540D01*
X313400Y660790D01*
X312975Y660940D01*
X312500Y660991D01*
X322500D01*
X322025Y660940D01*
D02*
G37*
G36*
X280746Y651896D02*
X280827Y651865D01*
X280961Y651838D01*
X281148Y651815D01*
X281684Y651779D01*
X283400Y651750D01*
Y646750D01*
X280720Y646780D01*
Y651930D01*
X280746Y651896D01*
D02*
G37*
G36*
X293937Y641250D02*
X293887Y641725D01*
X293736Y642150D01*
X293484Y642525D01*
X293132Y642850D01*
X292680Y643125D01*
X292126Y643350D01*
X291472Y643525D01*
X290718Y643650D01*
X289862Y643725D01*
X288907Y643750D01*
Y648750D01*
X289862Y648775D01*
X290718Y648850D01*
X291472Y648975D01*
X292126Y649150D01*
X292680Y649375D01*
X293132Y649650D01*
X293484Y649975D01*
X293736Y650350D01*
X293887Y650775D01*
X293937Y651250D01*
Y641250D01*
D02*
G37*
G36*
X342326Y624071D02*
X341995Y623651D01*
X341703Y623204D01*
X341450Y622732D01*
X341236Y622234D01*
X341061Y621710D01*
X340925Y621159D01*
X340849Y620710D01*
X340970Y617970D01*
X333250Y617939D01*
X333725Y617991D01*
X334150Y618143D01*
X334525Y618396D01*
X334850Y618749D01*
X335125Y619202D01*
X335350Y619755D01*
X335525Y620408D01*
X335613Y620936D01*
X335575Y621159D01*
X335439Y621710D01*
X335264Y622234D01*
X335050Y622732D01*
X334797Y623204D01*
X334505Y623651D01*
X334174Y624071D01*
X333805Y624465D01*
X342695D01*
X342326Y624071D01*
D02*
G37*
G36*
X170941Y611500D02*
X170891Y611975D01*
X170740Y612400D01*
X170488Y612775D01*
X170136Y613100D01*
X169683Y613375D01*
X169130Y613600D01*
X168476Y613775D01*
X167721Y613900D01*
X166866Y613975D01*
X165910Y614000D01*
Y619000D01*
X166866Y619025D01*
X167721Y619100D01*
X168476Y619225D01*
X169130Y619400D01*
X169683Y619625D01*
X170136Y619900D01*
X170488Y620225D01*
X170740Y620600D01*
X170891Y621025D01*
X170941Y621500D01*
Y611500D01*
D02*
G37*
G36*
X213911Y607254D02*
X213860Y607248D01*
X213710Y607243D01*
X208911Y607223D01*
Y612223D01*
X209864Y612248D01*
X210718Y612323D01*
X211472Y612448D01*
X212125Y612623D01*
X212678Y612848D01*
X213131Y613123D01*
X213484Y613448D01*
X213736Y613823D01*
X213889Y614248D01*
X213941Y614723D01*
X213911Y607254D01*
D02*
G37*
G36*
X150245Y621008D02*
X148378Y616500D01*
X151196Y609696D01*
X158000Y606878D01*
X164804Y609696D01*
X165363Y611045D01*
X168043D01*
X168253Y610989D01*
X168340Y610953D01*
Y604683D01*
X192306D01*
X193263Y602374D01*
X192383Y601494D01*
X191833Y600167D01*
X190030Y598363D01*
X186315D01*
Y595020D01*
X186229Y594985D01*
X186018Y594929D01*
X86966D01*
X86756Y594985D01*
X86670Y595020D01*
Y601513D01*
X56590D01*
Y570433D01*
X86670D01*
Y583927D01*
X86756Y583962D01*
X86966Y584018D01*
X186018D01*
X186229Y583962D01*
X186315Y583927D01*
Y580583D01*
X196515D01*
X197745Y580583D01*
Y580583D01*
X199015D01*
Y580583D01*
X202730D01*
X204350Y578964D01*
X205357Y576531D01*
X232015Y549873D01*
X231400Y548387D01*
Y539943D01*
X235845D01*
Y542777D01*
X238155Y543734D01*
X260009Y521880D01*
X260425Y521283D01*
X260590Y520997D01*
Y519730D01*
X260442Y519372D01*
X260529Y519161D01*
X260476Y518938D01*
X260590Y518753D01*
Y497433D01*
X275455D01*
X277746Y495143D01*
X281603Y493545D01*
X290290D01*
X290298Y493543D01*
Y493150D01*
X291499Y490249D01*
X294400Y489048D01*
X301900D01*
X304801Y490249D01*
X306002Y493150D01*
Y504850D01*
X304801Y507751D01*
X301900Y508952D01*
X294400D01*
X291499Y507751D01*
X290298Y504850D01*
Y504457D01*
X290290Y504455D01*
X283863D01*
X283170Y505148D01*
Y529013D01*
X270851D01*
X270665Y529127D01*
X270443Y529074D01*
X270231Y529162D01*
X269873Y529013D01*
X268606D01*
X268320Y529178D01*
X267724Y529595D01*
X248527Y548791D01*
X249497Y551357D01*
X255684Y553919D01*
X258090Y559728D01*
X260590Y559230D01*
Y540433D01*
X277127D01*
X278130Y540018D01*
X281390D01*
X296579Y524830D01*
X296996Y524233D01*
X297160Y523947D01*
Y522680D01*
X297012Y522322D01*
X297099Y522111D01*
X297046Y521888D01*
X297160Y521703D01*
Y511643D01*
X311791D01*
X311835Y511620D01*
X311870Y511533D01*
X311925Y511330D01*
Y508801D01*
X311857Y508534D01*
X311813Y508419D01*
X310199Y507751D01*
X308998Y504850D01*
Y493150D01*
X310199Y490249D01*
X313100Y489048D01*
X320600D01*
X323501Y490249D01*
X324702Y493150D01*
Y504850D01*
X323501Y507751D01*
X323195Y507877D01*
X323100Y507955D01*
X323074Y507995D01*
X323003Y508144D01*
X322915Y508396D01*
X322835Y508713D01*
Y511330D01*
X322890Y511533D01*
X322925Y511620D01*
X322969Y511643D01*
X332720D01*
Y531130D01*
X332720Y531963D01*
X334530Y533630D01*
X344261D01*
Y495754D01*
X342182Y494365D01*
X339750Y495373D01*
X332946Y492554D01*
X330127Y485750D01*
X332946Y478946D01*
X334295Y478387D01*
Y475956D01*
X332955Y474617D01*
X313590D01*
Y452037D01*
X344261D01*
Y413880D01*
X327090D01*
X326592Y416380D01*
X330336Y417930D01*
X333557Y425707D01*
X330336Y433483D01*
X322560Y436704D01*
X307320D01*
X299544Y433483D01*
X299224Y432712D01*
X294460D01*
X292107Y435065D01*
X291781Y435524D01*
X291702Y435656D01*
Y442350D01*
X290501Y445251D01*
X287600Y446452D01*
X280100D01*
X277199Y445251D01*
X275998Y442350D01*
Y430650D01*
X277199Y427749D01*
X277519Y427617D01*
X277022Y425117D01*
X271978D01*
X271481Y427617D01*
X271801Y427749D01*
X273002Y430650D01*
Y442350D01*
X271801Y445251D01*
X270335Y445858D01*
Y448817D01*
X273140Y451621D01*
X280130D01*
X281133Y452037D01*
X302170D01*
Y474617D01*
X270590D01*
Y462412D01*
X267022Y460934D01*
X261022Y454934D01*
X259425Y451077D01*
Y446068D01*
X258556Y445274D01*
X258499Y445251D01*
X258480Y445205D01*
X257839Y444619D01*
X255319Y445122D01*
X252934Y450881D01*
X246130Y453699D01*
X239326Y450881D01*
X238456Y448782D01*
X236159D01*
X235956Y448837D01*
X235869Y448872D01*
X235845Y448916D01*
Y451467D01*
X224415D01*
X224415Y451467D01*
X223145D01*
Y451467D01*
X221915Y451467D01*
X211715D01*
X211715Y451467D01*
X210445D01*
Y451467D01*
X209215Y451467D01*
X207949D01*
X206992Y453776D01*
X210587Y457371D01*
X220880D01*
X221882Y457787D01*
X242920D01*
Y480367D01*
X211340D01*
Y468375D01*
X211248Y468338D01*
X211039Y468282D01*
X208327D01*
X204470Y466684D01*
X202230Y464444D01*
X199920Y465401D01*
Y480367D01*
X171749D01*
X170792Y482676D01*
X217740Y529624D01*
X217967Y529783D01*
X218170D01*
X218528Y529635D01*
X218741Y529723D01*
X218965Y529670D01*
X219149Y529783D01*
X223145D01*
Y529783D01*
X224415D01*
Y529783D01*
X228860D01*
Y538673D01*
Y547563D01*
X224415D01*
Y547563D01*
X223145D01*
Y547563D01*
X212945D01*
X211715Y547563D01*
Y547563D01*
X210445D01*
Y547563D01*
X200245D01*
X199015Y547563D01*
Y547563D01*
X197745D01*
Y547563D01*
X194030D01*
X182646Y558947D01*
X185142Y564973D01*
X182324Y571777D01*
X175520Y574596D01*
X168716Y571777D01*
X165898Y564973D01*
X168716Y558169D01*
X169931Y557666D01*
X169995Y557585D01*
X170996Y555168D01*
X186315Y539849D01*
Y529783D01*
X189564D01*
X190521Y527474D01*
X155670Y492623D01*
X71915D01*
X71915Y492623D01*
X68823Y491342D01*
X68823Y491342D01*
X31972Y454492D01*
X29663Y455448D01*
Y587979D01*
X64771Y623087D01*
X148856D01*
X150245Y621008D01*
D02*
G37*
G36*
X267405Y594335D02*
X267479Y593433D01*
X267603Y592637D01*
X267777Y591948D01*
X268001Y591366D01*
X268274Y590890D01*
X268597Y590521D01*
X268969Y590259D01*
X269391Y590103D01*
X269863Y590054D01*
X260771Y589979D01*
X261077Y590226D01*
X261350Y590538D01*
X261591Y590914D01*
X261801Y591354D01*
X261978Y591858D01*
X262122Y592426D01*
X262235Y593059D01*
X262316Y593756D01*
X262380Y595343D01*
X267380D01*
X267405Y594335D01*
D02*
G37*
G36*
X233325Y594748D02*
X233475Y594323D01*
X233724Y593948D01*
X234074Y593623D01*
X234524Y593348D01*
X235075Y593123D01*
X235725Y592948D01*
X236474Y592823D01*
X237325Y592748D01*
X238274Y592723D01*
Y587723D01*
X237325Y587698D01*
X236474Y587623D01*
X235725Y587498D01*
X235075Y587323D01*
X234524Y587098D01*
X234074Y586823D01*
X233724Y586498D01*
X233475Y586123D01*
X233325Y585698D01*
X233274Y585223D01*
Y595223D01*
X233325Y594748D01*
D02*
G37*
G36*
X188916Y584473D02*
X188866Y584948D01*
X188715Y585373D01*
X188463Y585748D01*
X188111Y586073D01*
X187658Y586348D01*
X187105Y586573D01*
X186451Y586748D01*
X185696Y586873D01*
X184841Y586948D01*
X183885Y586973D01*
Y591973D01*
X184841Y591998D01*
X185696Y592073D01*
X186451Y592198D01*
X187105Y592373D01*
X187658Y592598D01*
X188111Y592873D01*
X188463Y593198D01*
X188715Y593573D01*
X188866Y593998D01*
X188916Y594473D01*
Y584473D01*
D02*
G37*
G36*
X84119Y593998D02*
X84270Y593573D01*
X84522Y593198D01*
X84874Y592873D01*
X85327Y592598D01*
X85880Y592373D01*
X86534Y592198D01*
X87289Y592073D01*
X88144Y591998D01*
X89100Y591973D01*
Y586973D01*
X88144Y586948D01*
X87289Y586873D01*
X86534Y586748D01*
X85880Y586573D01*
X85327Y586348D01*
X84874Y586073D01*
X84522Y585748D01*
X84270Y585373D01*
X84119Y584948D01*
X84069Y584473D01*
Y594473D01*
X84119Y593998D01*
D02*
G37*
G36*
X539212Y615133D02*
X539848Y614349D01*
X542391Y611564D01*
X560190Y593452D01*
X546048Y579310D01*
X523991Y600500D01*
X539000Y615509D01*
X539212Y615133D01*
D02*
G37*
G36*
X288899Y583172D02*
X288851Y582762D01*
X288918Y582290D01*
X289102Y581757D01*
X289400Y581162D01*
X289815Y580505D01*
X290345Y579786D01*
X290991Y579006D01*
X292629Y577260D01*
X290197Y572621D01*
X289207Y573584D01*
X286723Y575664D01*
X286056Y576088D01*
X285471Y576377D01*
X284966Y576532D01*
X284542Y576552D01*
X284199Y576437D01*
X283937Y576187D01*
X289063Y583520D01*
X288899Y583172D01*
D02*
G37*
G36*
X179532Y559994D02*
X179373Y559709D01*
X179293Y559399D01*
X179289Y559063D01*
X179363Y558703D01*
X179514Y558317D01*
X179742Y557906D01*
X180048Y557470D01*
X180431Y557008D01*
X180892Y556522D01*
X176175Y554167D01*
X171628Y559955D01*
X179768Y560253D01*
X179532Y559994D01*
D02*
G37*
G36*
X280630Y548419D02*
X280721Y548326D01*
X280874Y548243D01*
X281088Y548172D01*
X281362Y548111D01*
X281698Y548061D01*
X282552Y547995D01*
X283650Y547973D01*
Y542973D01*
X280599Y543004D01*
Y548524D01*
X280630Y548419D01*
D02*
G37*
G36*
X630200Y573403D02*
X630800Y570003D01*
X631800Y567003D01*
X632528Y565651D01*
X638422Y565656D01*
X636822Y565470D01*
X635390Y564916D01*
X634127Y563992D01*
X633826Y563638D01*
X635000Y562203D01*
X637200Y560403D01*
X639800Y559003D01*
X642800Y558003D01*
X646200Y557403D01*
X650000Y557203D01*
X620000Y537203D01*
X592297Y557203D01*
X595660Y557403D01*
X598670Y558003D01*
X601325Y559003D01*
X603627Y560403D01*
X605574Y562203D01*
X606704Y563764D01*
X606560Y563968D01*
X605508Y564889D01*
X604314Y565441D01*
X602980Y565625D01*
X607752Y565630D01*
X608407Y567003D01*
X609292Y570003D01*
X609823Y573403D01*
X610000Y577203D01*
X630000D01*
X630200Y573403D01*
D02*
G37*
G36*
X559765Y880717D02*
X555015Y869250D01*
Y836500D01*
X555085Y836331D01*
Y766230D01*
X555265Y765796D01*
Y711750D01*
X560825Y698326D01*
X573891Y692914D01*
X582302Y684502D01*
X591900Y680527D01*
X655165D01*
X656355Y681020D01*
X657545Y680527D01*
X661690D01*
X662188Y678027D01*
X658444Y676476D01*
X655223Y668700D01*
X658444Y660924D01*
X666220Y657703D01*
X670234D01*
X673840Y656209D01*
X738787D01*
Y647000D01*
Y602000D01*
Y557250D01*
Y534294D01*
X683377D01*
X682879Y536794D01*
X689236Y539427D01*
X692457Y547203D01*
X689236Y554980D01*
X681460Y558200D01*
X680059D01*
X675852Y559943D01*
X676349Y562443D01*
X691620D01*
Y582763D01*
X656060D01*
Y563276D01*
X656060Y562443D01*
X654250Y560776D01*
X644125D01*
X643590Y563055D01*
X643590D01*
Y596075D01*
X600410D01*
Y566263D01*
X600257Y566002D01*
X600308Y565808D01*
X600231Y565623D01*
X600410Y565192D01*
Y563055D01*
X599831Y562196D01*
X596881Y561814D01*
X542985Y615710D01*
Y869250D01*
X538235Y880717D01*
X539906Y883217D01*
X558094D01*
X559765Y880717D01*
D02*
G37*
G36*
X218528Y532384D02*
X218298Y532551D01*
X218024Y532633D01*
X217707Y532630D01*
X217348Y532542D01*
X216945Y532369D01*
X216499Y532112D01*
X216010Y531769D01*
X215478Y531342D01*
X214285Y530233D01*
X212164Y532354D01*
X212761Y532972D01*
X213701Y534078D01*
X214043Y534567D01*
X214301Y535013D01*
X214473Y535416D01*
X214561Y535775D01*
X214564Y536092D01*
X214483Y536366D01*
X214316Y536596D01*
X218528Y532384D01*
D02*
G37*
G36*
X205828D02*
X205597Y532551D01*
X205324Y532633D01*
X205007Y532630D01*
X204648Y532542D01*
X204245Y532369D01*
X203799Y532112D01*
X203310Y531769D01*
X202778Y531342D01*
X201585Y530233D01*
X199464Y532354D01*
X200061Y532972D01*
X201001Y534078D01*
X201343Y534567D01*
X201601Y535013D01*
X201773Y535416D01*
X201861Y535775D01*
X201864Y536092D01*
X201783Y536366D01*
X201616Y536596D01*
X205828Y532384D01*
D02*
G37*
G36*
X300758Y531935D02*
X302601Y530374D01*
X303415Y529805D01*
X304158Y529378D01*
X304829Y529092D01*
X305429Y528947D01*
X305958Y528944D01*
X306415Y529083D01*
X306801Y529362D01*
X299761Y522322D01*
X300041Y522708D01*
X300179Y523166D01*
X300176Y523694D01*
X300032Y524294D01*
X299746Y524966D01*
X299318Y525709D01*
X298750Y526523D01*
X298039Y527408D01*
X296195Y529393D01*
X299730Y532928D01*
X300758Y531935D01*
D02*
G37*
G36*
X264188Y528985D02*
X266031Y527424D01*
X266845Y526855D01*
X267588Y526428D01*
X268259Y526142D01*
X268859Y525997D01*
X269388Y525994D01*
X269845Y526133D01*
X270231Y526412D01*
X263191Y519372D01*
X263471Y519758D01*
X263609Y520215D01*
X263606Y520744D01*
X263462Y521344D01*
X263176Y522016D01*
X262748Y522759D01*
X262180Y523573D01*
X261469Y524458D01*
X259625Y526443D01*
X263160Y529978D01*
X264188Y528985D01*
D02*
G37*
G36*
X321905Y514164D02*
X321480Y514014D01*
X321105Y513764D01*
X320780Y513414D01*
X320505Y512964D01*
X320280Y512414D01*
X320105Y511764D01*
X319980Y511014D01*
X319905Y510164D01*
X320024Y508806D01*
X320136Y508173D01*
X320280Y507605D01*
X320456Y507100D01*
X320664Y506661D01*
X320904Y506286D01*
X321175Y505975D01*
X321479Y505729D01*
X312397Y505810D01*
X312869Y505859D01*
X313291Y506015D01*
X313663Y506277D01*
X313986Y506645D01*
X314259Y507120D01*
X314483Y507701D01*
X314657Y508390D01*
X314781Y509184D01*
X314855Y510086D01*
X314856Y510123D01*
X314855Y510164D01*
X314780Y511014D01*
X314655Y511764D01*
X314480Y512414D01*
X314255Y512964D01*
X313980Y513414D01*
X313655Y513764D01*
X313280Y514014D01*
X312855Y514164D01*
X312380Y514214D01*
X322380D01*
X321905Y514164D01*
D02*
G37*
G36*
X293187Y494000D02*
X293137Y494475D01*
X292986Y494900D01*
X292734Y495275D01*
X292382Y495600D01*
X291929Y495875D01*
X291376Y496100D01*
X290722Y496275D01*
X289968Y496400D01*
X289112Y496475D01*
X288157Y496500D01*
Y501500D01*
X289112Y501525D01*
X289968Y501600D01*
X290722Y501725D01*
X291376Y501900D01*
X291929Y502125D01*
X292382Y502400D01*
X292734Y502725D01*
X292986Y503100D01*
X293137Y503525D01*
X293187Y504000D01*
Y494000D01*
D02*
G37*
G36*
X489212Y516655D02*
X489848Y515872D01*
X492391Y513086D01*
X510190Y494975D01*
X496048Y480832D01*
X473991Y502022D01*
X489000Y517032D01*
X489212Y516655D01*
D02*
G37*
G36*
X341432Y472015D02*
X341400Y472016D01*
X334799D01*
X334783Y472050D01*
X334841Y472154D01*
X334974Y472326D01*
X335181Y472567D01*
X337330Y474809D01*
X337982Y475465D01*
X341432Y472015D01*
D02*
G37*
G36*
X341438Y472015D02*
X341470Y472012D01*
X341497Y472008D01*
X341517Y472002D01*
X341532Y471994D01*
X341541Y471984D01*
X341544Y471973D01*
X341541Y471960D01*
X341532Y471945D01*
X341518Y471929D01*
X341432Y472015D01*
X341438Y472015D01*
D02*
G37*
G36*
X170941Y465250D02*
X170891Y465725D01*
X170740Y466150D01*
X170488Y466525D01*
X170136Y466850D01*
X169683Y467125D01*
X169130Y467350D01*
X168476Y467525D01*
X167721Y467650D01*
X166866Y467725D01*
X165910Y467750D01*
Y472750D01*
X166866Y472775D01*
X167721Y472850D01*
X168476Y472975D01*
X169130Y473150D01*
X169683Y473375D01*
X170136Y473650D01*
X170488Y473975D01*
X170740Y474350D01*
X170891Y474775D01*
X170941Y475250D01*
Y465250D01*
D02*
G37*
G36*
X213911Y460357D02*
X213860Y460351D01*
X213710Y460346D01*
X208911Y460327D01*
Y465327D01*
X209864Y465352D01*
X210718Y465427D01*
X211472Y465552D01*
X212125Y465727D01*
X212678Y465952D01*
X213131Y466227D01*
X213484Y466552D01*
X213736Y466927D01*
X213889Y467352D01*
X213941Y467827D01*
X213911Y460357D01*
D02*
G37*
G36*
X148942Y475837D02*
X146628Y470250D01*
X149446Y463446D01*
X156250Y460628D01*
X163054Y463446D01*
X163613Y464795D01*
X168043D01*
X168253Y464739D01*
X168340Y464703D01*
Y457787D01*
X192306D01*
X193263Y455477D01*
X192383Y454597D01*
X191833Y453270D01*
X190030Y451467D01*
X186315D01*
Y448123D01*
X186229Y448088D01*
X186018Y448032D01*
X86966D01*
X86756Y448088D01*
X86670Y448123D01*
Y454617D01*
X56590D01*
Y423537D01*
X86670D01*
Y437030D01*
X86756Y437065D01*
X86966Y437121D01*
X186018D01*
X186229Y437065D01*
X186315Y437030D01*
Y433687D01*
X196515D01*
X197745Y433687D01*
Y433687D01*
X199015D01*
Y433687D01*
X202730D01*
X204350Y432067D01*
X205357Y429634D01*
X232015Y402976D01*
X231400Y401491D01*
Y393047D01*
X235845D01*
Y395880D01*
X238155Y396837D01*
X260009Y374983D01*
X260425Y374386D01*
X260590Y374100D01*
Y372833D01*
X260442Y372475D01*
X260529Y372264D01*
X260476Y372042D01*
X260590Y371856D01*
Y350537D01*
X275455D01*
X277599Y348392D01*
X281457Y346795D01*
X290040D01*
X290048Y346792D01*
Y346400D01*
X291249Y343499D01*
X294150Y342298D01*
X301650D01*
X304551Y343499D01*
X305752Y346400D01*
Y358100D01*
X304551Y361001D01*
X301650Y362202D01*
X294150D01*
X291249Y361001D01*
X290048Y358100D01*
Y357707D01*
X290040Y357705D01*
X283716D01*
X283170Y358252D01*
Y382117D01*
X270851D01*
X270665Y382231D01*
X270443Y382178D01*
X270231Y382265D01*
X269873Y382117D01*
X268606D01*
X268320Y382281D01*
X267724Y382698D01*
X248527Y401894D01*
X249497Y404460D01*
X255684Y407023D01*
X258090Y412831D01*
X260590Y412334D01*
Y393537D01*
X277127D01*
X278130Y393121D01*
X281390D01*
X296579Y377933D01*
X296996Y377336D01*
X297160Y377051D01*
Y375783D01*
X297012Y375425D01*
X297099Y375214D01*
X297046Y374992D01*
X297160Y374806D01*
Y364747D01*
X311791D01*
X311835Y364723D01*
X311870Y364636D01*
X311925Y364433D01*
Y362125D01*
X311863Y361889D01*
X311822Y361786D01*
X311725Y361736D01*
X309949Y361001D01*
X308748Y358100D01*
Y346400D01*
X309949Y343499D01*
X312850Y342298D01*
X320350D01*
X323251Y343499D01*
X324452Y346400D01*
Y358100D01*
X323251Y361001D01*
X322994Y361107D01*
X322963Y361183D01*
X322884Y361448D01*
X322835Y361678D01*
Y364433D01*
X322890Y364636D01*
X322925Y364723D01*
X322969Y364747D01*
X332720D01*
Y384233D01*
X332720Y385067D01*
X334530Y386734D01*
X344261D01*
Y347486D01*
X342182Y346097D01*
X338500Y347622D01*
X331696Y344804D01*
X328877Y338000D01*
X331696Y331196D01*
X333045Y330637D01*
Y327810D01*
X332955Y327720D01*
X313590D01*
Y305140D01*
X344261D01*
Y266983D01*
X327090D01*
X326592Y269483D01*
X330336Y271034D01*
X333557Y278810D01*
X330336Y286586D01*
X322560Y289807D01*
X307320D01*
X299544Y286586D01*
X299224Y285815D01*
X294460D01*
X292295Y287980D01*
X292080Y288272D01*
X291952Y288475D01*
Y295350D01*
X290751Y298251D01*
X287850Y299452D01*
X280350D01*
X277449Y298251D01*
X276248Y295350D01*
Y283650D01*
X277449Y280749D01*
X277520Y280720D01*
X277023Y278220D01*
X272477D01*
X271980Y280720D01*
X272051Y280749D01*
X273252Y283650D01*
Y295350D01*
X272051Y298251D01*
X270447Y298915D01*
X270403Y299030D01*
X270335Y299298D01*
Y301920D01*
X273140Y304725D01*
X280130D01*
X281133Y305140D01*
X302170D01*
Y327720D01*
X270590D01*
Y315515D01*
X267022Y314037D01*
X261022Y308037D01*
X259425Y304180D01*
Y299223D01*
X259343Y298904D01*
X259255Y298652D01*
X259184Y298503D01*
X259156Y298459D01*
X259055Y298377D01*
X258749Y298251D01*
X258062Y296592D01*
X255676Y297364D01*
X252934Y303984D01*
X246130Y306803D01*
X239326Y303984D01*
X238264Y301420D01*
X235929D01*
X235726Y301475D01*
X235639Y301511D01*
X235615Y301554D01*
Y303640D01*
X233224D01*
X233044Y303714D01*
X232903Y303656D01*
X232757Y303699D01*
X232648Y303640D01*
X224185D01*
X224185Y303640D01*
X222915D01*
Y303640D01*
X221685Y303640D01*
X215340D01*
X214305Y306140D01*
X218473Y310308D01*
X219070Y310726D01*
X219356Y310890D01*
X220623D01*
X220982Y310742D01*
X221193Y310829D01*
X221415Y310776D01*
X221600Y310890D01*
X242920D01*
Y333470D01*
X211340D01*
Y321151D01*
X211226Y320965D01*
X211279Y320743D01*
X211192Y320532D01*
X211340Y320173D01*
Y318906D01*
X211175Y318620D01*
X210759Y318024D01*
X205844Y313109D01*
X200751D01*
X199920Y313664D01*
Y333470D01*
X171749D01*
X170792Y335780D01*
X217740Y382727D01*
X217967Y382887D01*
X218170D01*
X218528Y382738D01*
X218741Y382826D01*
X218965Y382773D01*
X219149Y382887D01*
X223145D01*
Y382887D01*
X224415D01*
Y382887D01*
X228860D01*
Y391777D01*
Y400667D01*
X224415D01*
Y400667D01*
X223145D01*
Y400667D01*
X212945D01*
X211715Y400667D01*
Y400667D01*
X210445D01*
Y400667D01*
X200245D01*
X199015Y400667D01*
Y400667D01*
X197745D01*
Y400667D01*
X194030D01*
X182646Y412050D01*
X185142Y418077D01*
X182324Y424881D01*
X175520Y427699D01*
X168716Y424881D01*
X165898Y418077D01*
X168716Y411273D01*
X169931Y410769D01*
X169995Y410688D01*
X170996Y408271D01*
X186315Y392952D01*
Y382887D01*
X189564D01*
X190521Y380577D01*
X155317Y345373D01*
X68665D01*
X68665Y345373D01*
X65573Y344092D01*
X65573Y344092D01*
X43053Y321572D01*
X40743Y322528D01*
Y443059D01*
X76021Y478337D01*
X147463D01*
X148942Y475837D01*
D02*
G37*
G36*
X233325Y447852D02*
X233475Y447427D01*
X233724Y447052D01*
X234074Y446727D01*
X234524Y446452D01*
X235075Y446227D01*
X235725Y446052D01*
X236474Y445927D01*
X237325Y445852D01*
X238274Y445827D01*
Y440827D01*
X237325Y440802D01*
X236474Y440727D01*
X235725Y440602D01*
X235075Y440427D01*
X234524Y440202D01*
X234074Y439927D01*
X233724Y439602D01*
X233475Y439227D01*
X233325Y438802D01*
X233274Y438327D01*
Y448327D01*
X233325Y447852D01*
D02*
G37*
G36*
X188916Y437577D02*
X188866Y438052D01*
X188715Y438477D01*
X188463Y438852D01*
X188111Y439177D01*
X187658Y439452D01*
X187105Y439677D01*
X186451Y439852D01*
X185696Y439977D01*
X184841Y440052D01*
X183885Y440077D01*
Y445077D01*
X184841Y445102D01*
X185696Y445177D01*
X186451Y445302D01*
X187105Y445477D01*
X187658Y445702D01*
X188111Y445977D01*
X188463Y446302D01*
X188715Y446677D01*
X188866Y447102D01*
X188916Y447577D01*
Y437577D01*
D02*
G37*
G36*
X84119Y447102D02*
X84270Y446677D01*
X84522Y446302D01*
X84874Y445977D01*
X85327Y445702D01*
X85880Y445477D01*
X86534Y445302D01*
X87289Y445177D01*
X88144Y445102D01*
X89100Y445077D01*
Y440077D01*
X88144Y440052D01*
X87289Y439977D01*
X86534Y439852D01*
X85880Y439677D01*
X85327Y439452D01*
X84874Y439177D01*
X84522Y438852D01*
X84270Y438477D01*
X84119Y438052D01*
X84069Y437577D01*
Y447577D01*
X84119Y447102D01*
D02*
G37*
G36*
X266781Y429437D02*
X266403Y429725D01*
X265927Y429845D01*
X265353Y429797D01*
X264680Y429579D01*
X263909Y429193D01*
X263039Y428639D01*
X262070Y427916D01*
X261003Y427024D01*
X258574Y424735D01*
X255039Y428271D01*
X256312Y429580D01*
X259121Y432915D01*
X259721Y433829D01*
X260151Y434645D01*
X260413Y435363D01*
X260506Y435982D01*
X260431Y436502D01*
X260187Y436924D01*
X266781Y429437D01*
D02*
G37*
G36*
X288615Y436936D02*
X288541Y436473D01*
X288590Y435950D01*
X288762Y435368D01*
X289057Y434725D01*
X289475Y434023D01*
X290016Y433260D01*
X290681Y432438D01*
X292379Y430613D01*
X290050Y425871D01*
X289005Y426884D01*
X287164Y428473D01*
X286367Y429048D01*
X285653Y429478D01*
X285022Y429761D01*
X284474Y429899D01*
X284008Y429891D01*
X283625Y429737D01*
X283325Y429437D01*
X288813Y437339D01*
X288615Y436936D01*
D02*
G37*
G36*
X179532Y413097D02*
X179373Y412812D01*
X179293Y412502D01*
X179289Y412167D01*
X179363Y411806D01*
X179514Y411421D01*
X179742Y411009D01*
X180048Y410573D01*
X180431Y410112D01*
X180892Y409625D01*
X176175Y407271D01*
X171628Y413059D01*
X179768Y413357D01*
X179532Y413097D01*
D02*
G37*
G36*
X280630Y401523D02*
X280721Y401429D01*
X280874Y401346D01*
X281088Y401275D01*
X281362Y401214D01*
X281698Y401165D01*
X282552Y401099D01*
X283650Y401077D01*
Y396077D01*
X280599Y396107D01*
Y401627D01*
X280630Y401523D01*
D02*
G37*
G36*
X218528Y385488D02*
X218298Y385654D01*
X218024Y385736D01*
X217707Y385733D01*
X217348Y385645D01*
X216945Y385472D01*
X216499Y385215D01*
X216010Y384872D01*
X215478Y384445D01*
X214285Y383336D01*
X212164Y385457D01*
X212761Y386075D01*
X213701Y387182D01*
X214043Y387671D01*
X214301Y388116D01*
X214473Y388519D01*
X214561Y388879D01*
X214564Y389196D01*
X214483Y389469D01*
X214316Y389700D01*
X218528Y385488D01*
D02*
G37*
G36*
X205828D02*
X205597Y385654D01*
X205324Y385736D01*
X205007Y385733D01*
X204648Y385645D01*
X204245Y385472D01*
X203799Y385215D01*
X203310Y384872D01*
X202778Y384445D01*
X201585Y383336D01*
X199464Y385457D01*
X200061Y386075D01*
X201001Y387182D01*
X201343Y387671D01*
X201601Y388116D01*
X201773Y388519D01*
X201861Y388879D01*
X201864Y389196D01*
X201783Y389469D01*
X201616Y389700D01*
X205828Y385488D01*
D02*
G37*
G36*
X439212Y412383D02*
X439848Y411599D01*
X442391Y408814D01*
X460190Y390702D01*
X446048Y376560D01*
X423991Y397750D01*
X439000Y412759D01*
X439212Y412383D01*
D02*
G37*
G36*
X300758Y385039D02*
X302601Y383477D01*
X303415Y382908D01*
X304158Y382481D01*
X304829Y382195D01*
X305429Y382051D01*
X305958Y382048D01*
X306415Y382186D01*
X306801Y382466D01*
X299761Y375425D01*
X300041Y375811D01*
X300179Y376269D01*
X300176Y376798D01*
X300032Y377398D01*
X299746Y378069D01*
X299318Y378812D01*
X298750Y379626D01*
X298039Y380511D01*
X296195Y382496D01*
X299730Y386032D01*
X300758Y385039D01*
D02*
G37*
G36*
X264188Y382089D02*
X266031Y380527D01*
X266845Y379958D01*
X267588Y379531D01*
X268259Y379245D01*
X268859Y379101D01*
X269388Y379098D01*
X269845Y379236D01*
X270231Y379516D01*
X263191Y372475D01*
X263471Y372861D01*
X263609Y373319D01*
X263606Y373848D01*
X263462Y374448D01*
X263176Y375119D01*
X262748Y375862D01*
X262180Y376676D01*
X261469Y377561D01*
X259625Y379546D01*
X263160Y383082D01*
X264188Y382089D01*
D02*
G37*
G36*
X321905Y367267D02*
X321480Y367117D01*
X321105Y366867D01*
X320780Y366517D01*
X320505Y366067D01*
X320280Y365517D01*
X320105Y364867D01*
X319980Y364117D01*
X319907Y363294D01*
X320001Y361986D01*
X320096Y361343D01*
X320217Y360771D01*
X320366Y360270D01*
X320541Y359841D01*
X320743Y359482D01*
X320973Y359195D01*
X321229Y358979D01*
X312386Y359220D01*
X312860Y359259D01*
X313284Y359403D01*
X313658Y359653D01*
X313982Y360007D01*
X314256Y360467D01*
X314481Y361032D01*
X314655Y361702D01*
X314780Y362477D01*
X314851Y363311D01*
X314780Y364117D01*
X314655Y364867D01*
X314480Y365517D01*
X314255Y366067D01*
X313980Y366517D01*
X313655Y366867D01*
X313280Y367117D01*
X312855Y367267D01*
X312380Y367317D01*
X322380D01*
X321905Y367267D01*
D02*
G37*
G36*
X292937Y347250D02*
X292887Y347725D01*
X292736Y348150D01*
X292484Y348525D01*
X292132Y348850D01*
X291679Y349125D01*
X291126Y349350D01*
X290472Y349525D01*
X289718Y349650D01*
X288862Y349725D01*
X287907Y349750D01*
Y354750D01*
X288862Y354775D01*
X289718Y354850D01*
X290472Y354975D01*
X291126Y355150D01*
X291679Y355375D01*
X292132Y355650D01*
X292484Y355975D01*
X292736Y356350D01*
X292887Y356775D01*
X292937Y357250D01*
Y347250D01*
D02*
G37*
G36*
X170941Y317500D02*
X170891Y317975D01*
X170740Y318400D01*
X170488Y318775D01*
X170136Y319100D01*
X169683Y319375D01*
X169130Y319600D01*
X168476Y319775D01*
X167721Y319900D01*
X166866Y319975D01*
X165910Y320000D01*
Y325000D01*
X166866Y325025D01*
X167721Y325100D01*
X168476Y325225D01*
X169130Y325400D01*
X169683Y325625D01*
X170136Y325900D01*
X170488Y326225D01*
X170740Y326600D01*
X170891Y327025D01*
X170941Y327500D01*
Y317500D01*
D02*
G37*
G36*
X220982Y313491D02*
X220595Y313771D01*
X220138Y313909D01*
X219609Y313906D01*
X219009Y313762D01*
X218337Y313476D01*
X217595Y313048D01*
X216781Y312480D01*
X215895Y311770D01*
X213911Y309925D01*
X210375Y313461D01*
X211368Y314489D01*
X212930Y316331D01*
X213498Y317145D01*
X213926Y317887D01*
X214212Y318559D01*
X214356Y319159D01*
X214359Y319688D01*
X214221Y320145D01*
X213941Y320532D01*
X220982Y313491D01*
D02*
G37*
G36*
X151149Y328587D02*
X148628Y322500D01*
X151446Y315696D01*
X158250Y312878D01*
X165054Y315696D01*
X165613Y317045D01*
X168043D01*
X168253Y316989D01*
X168340Y316953D01*
Y310890D01*
X193006D01*
X193963Y308580D01*
X189023Y303640D01*
X186085D01*
Y300297D01*
X185998Y300261D01*
X185788Y300205D01*
X86966D01*
X86756Y300261D01*
X86670Y300297D01*
Y307720D01*
X56590D01*
Y276640D01*
X86670D01*
Y289203D01*
X86756Y289238D01*
X86966Y289295D01*
X185788D01*
X185998Y289238D01*
X186085Y289203D01*
Y285860D01*
X196285D01*
X197515Y285860D01*
Y285860D01*
X198785D01*
Y285860D01*
X201723D01*
X232243Y255340D01*
X231207Y252840D01*
X231170D01*
Y245220D01*
X235615D01*
Y249214D01*
X237925Y250170D01*
X260009Y228087D01*
X260425Y227490D01*
X260590Y227204D01*
Y225937D01*
X260442Y225578D01*
X260529Y225367D01*
X260476Y225145D01*
X260590Y224960D01*
Y203640D01*
X266333D01*
X266369Y203554D01*
X266425Y203344D01*
Y196454D01*
X268022Y192596D01*
X271546Y189072D01*
X270378Y186250D01*
X268133Y185136D01*
X237954Y215315D01*
X221573Y231696D01*
Y233116D01*
X222915Y235060D01*
X224185D01*
Y235060D01*
X228630D01*
Y243950D01*
Y252840D01*
X224185D01*
X224185Y252840D01*
X222915D01*
Y252840D01*
X221685Y252840D01*
X212715D01*
X211485Y252840D01*
Y252840D01*
X210215D01*
Y252840D01*
X200015D01*
X198150Y252840D01*
X196285Y252840D01*
X193800D01*
X182449Y264191D01*
Y264676D01*
X185142Y271180D01*
X182324Y277984D01*
X175520Y280802D01*
X168716Y277984D01*
X165898Y271180D01*
X168716Y264376D01*
X171538Y263207D01*
Y261932D01*
X173136Y258074D01*
X186085Y245125D01*
Y235060D01*
X196285D01*
X198785Y235060D01*
X200127Y234750D01*
X201408Y231658D01*
X256627Y176439D01*
Y120085D01*
X240434Y109265D01*
X228443Y91319D01*
X226091Y79497D01*
X223352Y78540D01*
X216000Y81586D01*
X212287Y80047D01*
X181492Y110842D01*
X178400Y112123D01*
X178400Y112123D01*
X124811D01*
X51823Y185111D01*
Y310139D01*
X72771Y331087D01*
X149963D01*
X151149Y328587D01*
D02*
G37*
G36*
X267405Y300585D02*
X267479Y299683D01*
X267603Y298887D01*
X267777Y298198D01*
X268001Y297616D01*
X268274Y297140D01*
X268597Y296771D01*
X268969Y296509D01*
X269391Y296353D01*
X269863Y296304D01*
X260771Y296229D01*
X261077Y296476D01*
X261350Y296788D01*
X261591Y297164D01*
X261801Y297604D01*
X261978Y298108D01*
X262122Y298676D01*
X262235Y299309D01*
X262316Y300006D01*
X262380Y301593D01*
X267380D01*
X267405Y300585D01*
D02*
G37*
G36*
X233095Y300490D02*
X233244Y300065D01*
X233494Y299690D01*
X233845Y299365D01*
X234294Y299090D01*
X234844Y298865D01*
X235494Y298690D01*
X236245Y298565D01*
X237094Y298490D01*
X238044Y298465D01*
Y293465D01*
X237094Y293440D01*
X236245Y293365D01*
X235494Y293240D01*
X234844Y293065D01*
X234294Y292840D01*
X233845Y292565D01*
X233494Y292240D01*
X233244Y291865D01*
X233095Y291440D01*
X233044Y290965D01*
Y300965D01*
X233095Y300490D01*
D02*
G37*
G36*
X188686Y289750D02*
X188636Y290225D01*
X188485Y290650D01*
X188233Y291025D01*
X187881Y291350D01*
X187428Y291625D01*
X186875Y291850D01*
X186221Y292025D01*
X185466Y292150D01*
X184611Y292225D01*
X183655Y292250D01*
Y297250D01*
X184611Y297275D01*
X185466Y297350D01*
X186221Y297475D01*
X186875Y297650D01*
X187428Y297875D01*
X187881Y298150D01*
X188233Y298475D01*
X188485Y298850D01*
X188636Y299275D01*
X188686Y299750D01*
Y289750D01*
D02*
G37*
G36*
X84119Y299275D02*
X84270Y298850D01*
X84522Y298475D01*
X84874Y298150D01*
X85327Y297875D01*
X85880Y297650D01*
X86534Y297475D01*
X87289Y297350D01*
X88144Y297275D01*
X89100Y297250D01*
Y292250D01*
X88144Y292225D01*
X87289Y292150D01*
X86534Y292025D01*
X85880Y291850D01*
X85327Y291625D01*
X84874Y291350D01*
X84522Y291025D01*
X84270Y290650D01*
X84119Y290225D01*
X84069Y289750D01*
Y299750D01*
X84119Y299275D01*
D02*
G37*
G36*
X288896Y289393D02*
X288846Y288983D01*
X288912Y288511D01*
X289094Y287976D01*
X289392Y287380D01*
X289807Y286722D01*
X290338Y286001D01*
X290985Y285218D01*
X292629Y283467D01*
X290153Y278871D01*
X289164Y279834D01*
X287426Y281355D01*
X286678Y281914D01*
X286010Y282337D01*
X285423Y282627D01*
X284916Y282781D01*
X284490Y282801D01*
X284144Y282687D01*
X283879Y282437D01*
X289063Y289741D01*
X288896Y289393D01*
D02*
G37*
G36*
X638721Y271627D02*
X640770Y271625D01*
X639366Y271444D01*
X638109Y270902D01*
X637001Y269997D01*
X636040Y268730D01*
X635227Y267102D01*
X634562Y265111D01*
X634045Y262759D01*
X633676Y260044D01*
X633454Y256968D01*
X633380Y253530D01*
X630753D01*
X630750Y253410D01*
X610750D01*
X610670Y256871D01*
X610429Y259968D01*
X610028Y262700D01*
X609467Y265068D01*
X608745Y267072D01*
X607863Y268711D01*
X606820Y269986D01*
X605617Y270897D01*
X604254Y271443D01*
X602730Y271625D01*
X605522Y271628D01*
X605285Y271656D01*
X621949Y271642D01*
X638965Y271656D01*
X638721Y271627D01*
D02*
G37*
G36*
X180084Y266723D02*
X179960Y266476D01*
X179850Y266171D01*
X179756Y265808D01*
X179676Y265387D01*
X179559Y264372D01*
X179522Y263778D01*
X179493Y262417D01*
X174493Y261932D01*
X174481Y262477D01*
X174381Y263424D01*
X174294Y263827D01*
X174183Y264182D01*
X174046Y264490D01*
X173884Y264751D01*
X173698Y264965D01*
X173487Y265131D01*
X173251Y265249D01*
X180222Y266912D01*
X180084Y266723D01*
D02*
G37*
G36*
X280630Y254626D02*
X280721Y254532D01*
X280874Y254450D01*
X281088Y254378D01*
X281362Y254318D01*
X281698Y254268D01*
X282552Y254202D01*
X283650Y254180D01*
Y249180D01*
X280599Y249210D01*
Y254730D01*
X280630Y254626D01*
D02*
G37*
G36*
X207118Y237632D02*
X206884Y237544D01*
X206676Y237399D01*
X206497Y237195D01*
X206345Y236933D01*
X206221Y236613D01*
X206124Y236235D01*
X206055Y235798D01*
X206014Y235303D01*
X206000Y234750D01*
X203000D01*
X202986Y235303D01*
X202945Y235798D01*
X202876Y236235D01*
X202779Y236613D01*
X202655Y236933D01*
X202503Y237195D01*
X202324Y237399D01*
X202117Y237544D01*
X201882Y237632D01*
X201620Y237661D01*
X207380D01*
X207118Y237632D01*
D02*
G37*
G36*
X219915Y237631D02*
X219660Y237540D01*
X219435Y237388D01*
X219240Y237176D01*
X219075Y236903D01*
X218940Y236570D01*
X218835Y236176D01*
X218760Y235721D01*
X218715Y235206D01*
X218700Y234631D01*
X215700D01*
X215685Y235206D01*
X215640Y235721D01*
X215565Y236176D01*
X215460Y236570D01*
X215325Y236903D01*
X215160Y237176D01*
X214965Y237388D01*
X214740Y237540D01*
X214485Y237631D01*
X214200Y237661D01*
X220200D01*
X219915Y237631D01*
D02*
G37*
G36*
X300758Y238142D02*
X302601Y236580D01*
X303415Y236012D01*
X304158Y235584D01*
X304829Y235298D01*
X305429Y235154D01*
X305958Y235151D01*
X306415Y235289D01*
X306801Y235569D01*
X299761Y228528D01*
X300041Y228915D01*
X300179Y229372D01*
X300176Y229901D01*
X300032Y230501D01*
X299746Y231173D01*
X299318Y231915D01*
X298750Y232729D01*
X298039Y233615D01*
X296195Y235599D01*
X299730Y239135D01*
X300758Y238142D01*
D02*
G37*
G36*
X264188Y235192D02*
X266031Y233630D01*
X266845Y233062D01*
X267588Y232634D01*
X268259Y232348D01*
X268859Y232204D01*
X269388Y232201D01*
X269845Y232339D01*
X270231Y232619D01*
X263191Y225578D01*
X263471Y225965D01*
X263609Y226422D01*
X263606Y226951D01*
X263462Y227551D01*
X263176Y228223D01*
X262748Y228965D01*
X262180Y229779D01*
X261469Y230665D01*
X259625Y232649D01*
X263160Y236185D01*
X264188Y235192D01*
D02*
G37*
G36*
X459765Y880717D02*
X455015Y869250D01*
Y517022D01*
X460575Y503598D01*
X473641Y498186D01*
X581118Y390709D01*
X590716Y386734D01*
X661690D01*
X662188Y384234D01*
X658444Y382683D01*
X655223Y374907D01*
X658444Y367131D01*
X666220Y363910D01*
X668502D01*
X706927Y325485D01*
Y205073D01*
X688243D01*
Y219823D01*
X689236Y220234D01*
X692457Y228010D01*
X689236Y235786D01*
X681460Y239007D01*
X681203D01*
X680322Y241331D01*
X680351Y241592D01*
X681278Y242413D01*
X681460D01*
X689236Y245634D01*
X692457Y253410D01*
X689236Y261186D01*
X681460Y264407D01*
X680059D01*
X675852Y266150D01*
X676349Y268650D01*
X691620D01*
Y288970D01*
X656060D01*
Y269483D01*
X656060Y268650D01*
X654250Y266983D01*
X644374D01*
X643340Y269055D01*
Y271192D01*
X643519Y271623D01*
X643447Y271796D01*
X643496Y271977D01*
X643340Y272249D01*
Y302075D01*
X600160D01*
Y272236D01*
X600001Y271952D01*
X600048Y271784D01*
X599981Y271623D01*
X600160Y271192D01*
Y269055D01*
X599126Y266983D01*
X588962D01*
X442985Y412960D01*
Y869250D01*
X438235Y880717D01*
X439906Y883217D01*
X458094D01*
X459765Y880717D01*
D02*
G37*
G36*
X276405Y206191D02*
X275980Y206040D01*
X275605Y205788D01*
X275280Y205436D01*
X275005Y204983D01*
X274780Y204430D01*
X274605Y203776D01*
X274480Y203022D01*
X274405Y202166D01*
X274380Y201210D01*
X269380D01*
X269355Y202166D01*
X269280Y203022D01*
X269155Y203776D01*
X268980Y204430D01*
X268755Y204983D01*
X268480Y205436D01*
X268155Y205788D01*
X267780Y206040D01*
X267355Y206191D01*
X266880Y206241D01*
X276880D01*
X276405Y206191D01*
D02*
G37*
G36*
X509765Y880717D02*
X505015Y869250D01*
Y615500D01*
X510575Y602076D01*
X523641Y596664D01*
X582699Y537606D01*
X592297Y533630D01*
X661690D01*
X662188Y531130D01*
X658444Y529580D01*
X655223Y521803D01*
X658444Y514027D01*
X666220Y510806D01*
X670234D01*
X673840Y509313D01*
X738787D01*
Y489875D01*
Y467500D01*
Y422500D01*
Y377750D01*
Y332750D01*
Y287950D01*
X739820Y285456D01*
Y268410D01*
X764900D01*
Y285456D01*
X765933Y287950D01*
Y332750D01*
Y377750D01*
Y422500D01*
Y467500D01*
Y483295D01*
X778045D01*
Y248250D01*
X779643Y244393D01*
X845545Y178490D01*
Y158655D01*
X843045Y158409D01*
X840322Y172098D01*
X830920Y186170D01*
X816848Y195572D01*
X800250Y198873D01*
X783652Y195572D01*
X769580Y186170D01*
X760178Y172098D01*
X758112Y161710D01*
X755399Y160887D01*
X753679Y162607D01*
X749821Y164205D01*
X533760D01*
X522705Y175260D01*
Y177927D01*
X720500D01*
X722994Y178960D01*
X740040D01*
Y204040D01*
X734073D01*
Y331107D01*
X730098Y340704D01*
X690026Y380776D01*
X689236Y382683D01*
X687329Y383473D01*
X686298Y384504D01*
X680732Y386810D01*
X681230Y389310D01*
X681460D01*
X689236Y392531D01*
X692457Y400307D01*
X689236Y408083D01*
X681460Y411304D01*
X680059D01*
X675852Y413047D01*
X676349Y415547D01*
X691620D01*
Y435867D01*
X656060D01*
Y416380D01*
X656060Y415547D01*
X654250Y413880D01*
X636953D01*
Y417055D01*
X644090D01*
Y450075D01*
X600910D01*
Y417055D01*
X605427D01*
Y413880D01*
X596338D01*
X492985Y517233D01*
Y869250D01*
X488235Y880717D01*
X489906Y883217D01*
X508094D01*
X509765Y880717D01*
D02*
G37*
G36*
X591727Y85322D02*
X591676Y85797D01*
X591525Y86222D01*
X591274Y86597D01*
X590922Y86922D01*
X590469Y87197D01*
X589916Y87422D01*
X589262Y87597D01*
X588507Y87722D01*
X587652Y87797D01*
X586696Y87822D01*
Y92822D01*
X587652Y92847D01*
X588507Y92922D01*
X589262Y93047D01*
X589916Y93222D01*
X590469Y93447D01*
X590922Y93722D01*
X591274Y94047D01*
X591525Y94422D01*
X591676Y94847D01*
X591727Y95322D01*
Y85322D01*
D02*
G37*
G36*
X563613Y94847D02*
X563764Y94422D01*
X564016Y94047D01*
X564368Y93722D01*
X564821Y93447D01*
X565374Y93222D01*
X566028Y93047D01*
X566782Y92922D01*
X567638Y92847D01*
X568593Y92822D01*
Y87822D01*
X567638Y87797D01*
X566782Y87722D01*
X566028Y87597D01*
X565374Y87422D01*
X564821Y87197D01*
X564368Y86922D01*
X564016Y86597D01*
X563764Y86222D01*
X563613Y85797D01*
X563563Y85322D01*
Y95322D01*
X563613Y94847D01*
D02*
G37*
G36*
X760687Y84750D02*
X760637Y85225D01*
X760486Y85650D01*
X760234Y86025D01*
X759882Y86350D01*
X759429Y86625D01*
X758876Y86850D01*
X758222Y87025D01*
X757467Y87150D01*
X756612Y87225D01*
X755657Y87250D01*
Y92250D01*
X756612Y92275D01*
X757467Y92350D01*
X758222Y92475D01*
X758876Y92650D01*
X759429Y92875D01*
X759882Y93150D01*
X760234Y93475D01*
X760486Y93850D01*
X760637Y94275D01*
X760687Y94750D01*
Y84750D01*
D02*
G37*
G36*
X740863Y94275D02*
X741014Y93850D01*
X741266Y93475D01*
X741618Y93150D01*
X742070Y92875D01*
X742624Y92650D01*
X743278Y92475D01*
X744032Y92350D01*
X744888Y92275D01*
X745843Y92250D01*
Y87250D01*
X744888Y87225D01*
X744032Y87150D01*
X743278Y87025D01*
X742624Y86850D01*
X742070Y86625D01*
X741618Y86350D01*
X741266Y86025D01*
X741014Y85650D01*
X740863Y85225D01*
X740813Y84750D01*
Y94750D01*
X740863Y94275D01*
D02*
G37*
G36*
X634685Y85653D02*
X632556Y83524D01*
X624090D01*
X623242Y84793D01*
Y89373D01*
X615390D01*
Y91913D01*
X623242D01*
Y96493D01*
X624445Y98295D01*
X634685D01*
Y85653D01*
D02*
G37*
G36*
X811336Y96465D02*
Y81904D01*
X793035D01*
X792202Y83150D01*
Y87730D01*
X784350D01*
Y90270D01*
X792202D01*
Y94850D01*
X791483Y96586D01*
X792932Y99086D01*
X808715D01*
X811336Y96465D01*
D02*
G37*
G36*
X721375Y83461D02*
X721013Y83101D01*
X720693Y82690D01*
X720416Y82230D01*
X720182Y81718D01*
X719991Y81157D01*
X719842Y80545D01*
X719835Y80500D01*
X719842Y80455D01*
X719991Y79843D01*
X720182Y79282D01*
X720416Y78770D01*
X720693Y78310D01*
X721013Y77899D01*
X721375Y77539D01*
X721779Y77229D01*
X712521D01*
X712925Y77539D01*
X713287Y77899D01*
X713607Y78310D01*
X713884Y78770D01*
X714118Y79282D01*
X714309Y79843D01*
X714458Y80455D01*
X714466Y80500D01*
X714458Y80545D01*
X714309Y81157D01*
X714118Y81718D01*
X713884Y82230D01*
X713607Y82690D01*
X713287Y83101D01*
X712925Y83461D01*
X712521Y83771D01*
X721779D01*
X721375Y83461D01*
D02*
G37*
G36*
X544125Y82711D02*
X543763Y82351D01*
X543443Y81940D01*
X543167Y81480D01*
X542932Y80968D01*
X542741Y80407D01*
X542592Y79795D01*
X542584Y79750D01*
X542592Y79705D01*
X542741Y79093D01*
X542932Y78532D01*
X543167Y78020D01*
X543443Y77560D01*
X543763Y77149D01*
X544125Y76789D01*
X544529Y76479D01*
X535271D01*
X535675Y76789D01*
X536037Y77149D01*
X536357Y77560D01*
X536633Y78020D01*
X536868Y78532D01*
X537059Y79093D01*
X537208Y79705D01*
X537215Y79750D01*
X537208Y79795D01*
X537059Y80407D01*
X536868Y80968D01*
X536633Y81480D01*
X536357Y81940D01*
X536037Y82351D01*
X535675Y82711D01*
X535271Y83021D01*
X544529D01*
X544125Y82711D01*
D02*
G37*
G36*
X247417Y79594D02*
X247112Y79177D01*
X246879Y78757D01*
X246716Y78334D01*
X246625Y77907D01*
X246605Y77477D01*
X246657Y77043D01*
X246780Y76606D01*
X246974Y76165D01*
X247240Y75721D01*
X247577Y75273D01*
X239589Y77968D01*
X240224Y78138D01*
X240841Y78348D01*
X241439Y78599D01*
X242018Y78891D01*
X242579Y79224D01*
X243120Y79597D01*
X243643Y80011D01*
X244147Y80466D01*
X244633Y80962D01*
X245099Y81498D01*
X247417Y79594D01*
D02*
G37*
G36*
X591622Y84500D02*
X591791Y84318D01*
X598400Y83581D01*
X597925Y83580D01*
X597500Y83469D01*
X597125Y83245D01*
X596800Y82909D01*
X596525Y82462D01*
X596300Y81903D01*
X596125Y81233D01*
X596000Y80450D01*
X595925Y79556D01*
X595901Y78611D01*
X595925Y77719D01*
X596000Y76870D01*
X596125Y76119D01*
X596300Y75469D01*
X596525Y74920D01*
X596800Y74469D01*
X597125Y74120D01*
X597500Y73870D01*
X597925Y73720D01*
X598400Y73670D01*
X588400D01*
X588875Y73720D01*
X589300Y73870D01*
X589675Y74120D01*
X590000Y74469D01*
X590275Y74920D01*
X590500Y75469D01*
X590675Y76119D01*
X590800Y76870D01*
X590875Y77719D01*
X590900Y78670D01*
X590901D01*
X590909Y79886D01*
X591221Y84035D01*
X591337Y84358D01*
X591470Y84513D01*
X591622Y84500D01*
D02*
G37*
G36*
X762975Y76469D02*
X763050Y75620D01*
X763175Y74869D01*
X763350Y74219D01*
X763575Y73670D01*
X763850Y73219D01*
X764175Y72870D01*
X764550Y72620D01*
X764975Y72470D01*
X765450Y72420D01*
X755450D01*
X755925Y72470D01*
X756350Y72620D01*
X756725Y72870D01*
X757050Y73219D01*
X757325Y73670D01*
X757550Y74219D01*
X757725Y74869D01*
X757850Y75620D01*
X757925Y76469D01*
X757950Y77420D01*
X762950D01*
X762975Y76469D01*
D02*
G37*
G36*
X184942Y80812D02*
X185409Y80487D01*
X185970Y80164D01*
X186626Y79842D01*
X188217Y79203D01*
X189154Y78885D01*
X192527Y77940D01*
X182850Y72232D01*
X183083Y73211D01*
X183244Y74135D01*
X183331Y75006D01*
X183345Y75821D01*
X183285Y76583D01*
X183152Y77290D01*
X182946Y77943D01*
X182667Y78541D01*
X182314Y79085D01*
X181889Y79575D01*
X184568Y81138D01*
X184942Y80812D01*
D02*
G37*
G36*
X624570Y73590D02*
X624720Y73518D01*
X624969Y73456D01*
X625320Y73401D01*
X625770Y73355D01*
X627719Y73267D01*
X629520Y73250D01*
Y68250D01*
X628569Y68246D01*
X624720Y67982D01*
X624570Y67910D01*
X624520Y67831D01*
Y73670D01*
X624570Y73590D01*
D02*
G37*
G36*
X791619Y72315D02*
X791769Y72221D01*
X792020Y72138D01*
X792370Y72066D01*
X792820Y72005D01*
X794019Y71917D01*
X796570Y71867D01*
Y66867D01*
X795620Y66864D01*
X791619Y66635D01*
X791570Y66581D01*
Y72420D01*
X791619Y72315D01*
D02*
G37*
G36*
X159469Y64532D02*
X158673Y65315D01*
X157147Y66632D01*
X156417Y67168D01*
X155709Y67621D01*
X155023Y67991D01*
X154360Y68279D01*
X153718Y68485D01*
X153099Y68609D01*
X152501Y68650D01*
Y71650D01*
X153099Y71691D01*
X153718Y71815D01*
X154360Y72021D01*
X155023Y72309D01*
X155709Y72679D01*
X156417Y73132D01*
X157147Y73668D01*
X157899Y74285D01*
X159469Y75767D01*
Y64532D01*
D02*
G37*
G36*
X624560Y63995D02*
X624679Y63839D01*
X624879Y63700D01*
X625159Y63581D01*
X625519Y63480D01*
X625960Y63397D01*
X626479Y63333D01*
X627760Y63259D01*
X628520Y63250D01*
Y59250D01*
X627760Y59241D01*
X625960Y59103D01*
X625519Y59020D01*
X625159Y58919D01*
X624879Y58799D01*
X624679Y58661D01*
X624560Y58505D01*
X624520Y58330D01*
Y64170D01*
X624560Y63995D01*
D02*
G37*
G36*
X612481Y58330D02*
X612442Y58505D01*
X612325Y58661D01*
X612131Y58799D01*
X611858Y58919D01*
X611509Y59020D01*
X611081Y59103D01*
X610576Y59167D01*
X609332Y59241D01*
X608593Y59250D01*
Y63250D01*
X609332Y63259D01*
X611081Y63397D01*
X611509Y63480D01*
X611858Y63581D01*
X612131Y63700D01*
X612325Y63839D01*
X612442Y63995D01*
X612481Y64170D01*
Y58330D01*
D02*
G37*
G36*
X740075Y63461D02*
X739713Y63101D01*
X739393Y62691D01*
X739117Y62230D01*
X738882Y61718D01*
X738691Y61157D01*
X738561Y60625D01*
X738691Y60093D01*
X738882Y59532D01*
X739117Y59021D01*
X739393Y58560D01*
X739713Y58149D01*
X740075Y57789D01*
X740479Y57479D01*
X731221D01*
X731625Y57789D01*
X731987Y58149D01*
X732307Y58560D01*
X732583Y59021D01*
X732818Y59532D01*
X733009Y60093D01*
X733139Y60625D01*
X733009Y61157D01*
X732818Y61718D01*
X732583Y62230D01*
X732307Y62691D01*
X731987Y63101D01*
X731625Y63461D01*
X731221Y63771D01*
X740479D01*
X740075Y63461D01*
D02*
G37*
G36*
X779530Y57080D02*
X779491Y57255D01*
X779373Y57411D01*
X779176Y57550D01*
X778900Y57669D01*
X778546Y57770D01*
X778113Y57853D01*
X777601Y57917D01*
X776341Y57991D01*
X775593Y58000D01*
Y62000D01*
X776341Y62009D01*
X778113Y62147D01*
X778546Y62230D01*
X778900Y62331D01*
X779176Y62451D01*
X779373Y62589D01*
X779491Y62745D01*
X779530Y62920D01*
Y57080D01*
D02*
G37*
G36*
X562825Y62711D02*
X562463Y62351D01*
X562143Y61940D01*
X561866Y61480D01*
X561632Y60968D01*
X561441Y60407D01*
X561292Y59795D01*
X561284Y59750D01*
X561292Y59705D01*
X561441Y59093D01*
X561632Y58532D01*
X561866Y58021D01*
X562143Y57560D01*
X562463Y57149D01*
X562825Y56789D01*
X563229Y56479D01*
X553971D01*
X554375Y56789D01*
X554737Y57149D01*
X555057Y57560D01*
X555334Y58021D01*
X555568Y58532D01*
X555759Y59093D01*
X555908Y59705D01*
X555915Y59750D01*
X555908Y59795D01*
X555759Y60407D01*
X555568Y60968D01*
X555334Y61480D01*
X555057Y61940D01*
X554737Y62351D01*
X554375Y62711D01*
X553971Y63021D01*
X563229D01*
X562825Y62711D01*
D02*
G37*
G36*
X380117Y59468D02*
X380312Y59422D01*
X380601Y59382D01*
X381460Y59317D01*
X385250Y59250D01*
Y56250D01*
X380017Y55981D01*
Y59519D01*
X380117Y59468D01*
D02*
G37*
G36*
X587945Y76554D02*
X587890Y76351D01*
X587854Y76264D01*
X587811Y76240D01*
X584810D01*
Y65260D01*
X601336D01*
Y63593D01*
X602775Y60118D01*
X605118Y57775D01*
X608593Y56336D01*
X609910D01*
Y53700D01*
X604490Y48281D01*
X601990Y49316D01*
Y50480D01*
X594670D01*
Y46260D01*
X598934D01*
X599969Y43760D01*
X596255Y40045D01*
X595835Y39752D01*
X592074D01*
X589174Y38551D01*
X587972Y35650D01*
Y29308D01*
X587367Y29057D01*
X587265Y28955D01*
X567110D01*
X567057Y29007D01*
X566452Y29258D01*
Y35600D01*
X565324Y38324D01*
X565251Y38501D01*
Y40999D01*
X565324Y41176D01*
X566452Y43900D01*
Y55600D01*
X565948Y56817D01*
X565955Y56841D01*
X565897Y56940D01*
X565251Y58501D01*
X565132Y59326D01*
Y60174D01*
X565251Y60999D01*
X565897Y62560D01*
X565955Y62659D01*
X565948Y62683D01*
X566452Y63900D01*
Y75600D01*
X565324Y78324D01*
X565251Y78501D01*
Y80999D01*
X565324Y81176D01*
X566452Y83900D01*
Y84864D01*
X566460Y84866D01*
X587945D01*
Y76554D01*
D02*
G37*
G36*
X755209Y82216D02*
X754995Y81700D01*
Y75304D01*
X754940Y75101D01*
X754904Y75014D01*
X754861Y74990D01*
X751860D01*
Y64010D01*
X768336D01*
Y62343D01*
X769775Y58868D01*
X772118Y56525D01*
X775593Y55086D01*
X776960D01*
Y51053D01*
X776834Y50749D01*
X771540Y45455D01*
X769040Y46491D01*
X769040Y46796D01*
X769040Y46796D01*
X769040Y46897D01*
Y49230D01*
X761720D01*
Y45010D01*
X767153Y45010D01*
X767254D01*
D01*
X767560Y45010D01*
X767776Y44488D01*
X768595Y42510D01*
X766830Y40745D01*
X766411Y40452D01*
X762650D01*
X759749Y39251D01*
X758548Y36350D01*
Y31000D01*
X743722D01*
X743702Y31008D01*
Y37350D01*
X742501Y40251D01*
X742501Y41999D01*
X743702Y44900D01*
Y56600D01*
X743198Y57817D01*
X743205Y57841D01*
X743147Y57940D01*
X742584Y59300D01*
X742501Y61749D01*
X743147Y63310D01*
X743205Y63409D01*
X743198Y63433D01*
X743702Y64650D01*
Y76350D01*
X742501Y79251D01*
X742501Y81749D01*
X743536Y84248D01*
X743710Y84295D01*
X753820D01*
X755209Y82216D01*
D02*
G37*
G36*
X157236Y41750D02*
X157206Y42035D01*
X157115Y42290D01*
X156963Y42515D01*
X156751Y42710D01*
X156478Y42875D01*
X156145Y43010D01*
X155751Y43115D01*
X155296Y43190D01*
X154781Y43235D01*
X154206Y43250D01*
Y46250D01*
X154781Y46265D01*
X155296Y46310D01*
X155751Y46385D01*
X156145Y46490D01*
X156478Y46625D01*
X156751Y46790D01*
X156963Y46985D01*
X157115Y47210D01*
X157206Y47465D01*
X157236Y47750D01*
Y41750D01*
D02*
G37*
G36*
X721375Y43711D02*
X721013Y43351D01*
X720693Y42941D01*
X720416Y42480D01*
X720182Y41968D01*
X719991Y41407D01*
X719922Y41125D01*
X719991Y40843D01*
X720182Y40282D01*
X720416Y39771D01*
X720693Y39310D01*
X721013Y38899D01*
X721375Y38539D01*
X721779Y38229D01*
X712521D01*
X712925Y38539D01*
X713287Y38899D01*
X713607Y39310D01*
X713884Y39771D01*
X714118Y40282D01*
X714309Y40843D01*
X714378Y41125D01*
X714309Y41407D01*
X714118Y41968D01*
X713884Y42480D01*
X713607Y42941D01*
X713287Y43351D01*
X712925Y43711D01*
X712521Y44021D01*
X721779D01*
X721375Y43711D01*
D02*
G37*
G36*
X774929Y37593D02*
X773936Y36565D01*
X772374Y34723D01*
X771805Y33909D01*
X771378Y33166D01*
X771092Y32495D01*
X770948Y31895D01*
X770945Y31366D01*
X771083Y30909D01*
X771363Y30522D01*
X764322Y37563D01*
X764708Y37283D01*
X765166Y37145D01*
X765695Y37148D01*
X766295Y37292D01*
X766966Y37578D01*
X767709Y38005D01*
X768523Y38574D01*
X769409Y39284D01*
X771393Y41129D01*
X774929Y37593D01*
D02*
G37*
G36*
X544125Y42711D02*
X543763Y42351D01*
X543443Y41940D01*
X543167Y41480D01*
X542932Y40968D01*
X542741Y40407D01*
X542592Y39795D01*
X542584Y39750D01*
X542592Y39705D01*
X542741Y39093D01*
X542932Y38532D01*
X543167Y38020D01*
X543443Y37560D01*
X543763Y37149D01*
X544125Y36789D01*
X544529Y36479D01*
X535271D01*
X535675Y36789D01*
X536037Y37149D01*
X536357Y37560D01*
X536633Y38020D01*
X536868Y38532D01*
X537059Y39093D01*
X537208Y39705D01*
X537215Y39750D01*
X537208Y39795D01*
X537059Y40407D01*
X536868Y40968D01*
X536633Y41480D01*
X536357Y41940D01*
X536037Y42351D01*
X535675Y42711D01*
X535271Y43021D01*
X544529D01*
X544125Y42711D01*
D02*
G37*
G36*
X604353Y36893D02*
X603360Y35865D01*
X601799Y34023D01*
X601230Y33209D01*
X600802Y32466D01*
X600517Y31795D01*
X600372Y31195D01*
X600369Y30666D01*
X600507Y30208D01*
X600787Y29822D01*
X593747Y36863D01*
X594133Y36583D01*
X594590Y36445D01*
X595119Y36448D01*
X595719Y36592D01*
X596391Y36878D01*
X597133Y37305D01*
X597948Y37874D01*
X598833Y38584D01*
X600818Y40429D01*
X604353Y36893D01*
D02*
G37*
G36*
X393775Y36706D02*
X393350Y36556D01*
X392975Y36305D01*
X392650Y35956D01*
X392375Y35505D01*
X392150Y34955D01*
X391975Y34306D01*
X391850Y33556D01*
X391775Y32706D01*
X391750Y31755D01*
X386750D01*
X386725Y32706D01*
X386650Y33556D01*
X386525Y34306D01*
X386350Y34955D01*
X386125Y35505D01*
X385850Y35956D01*
X385525Y36305D01*
X385150Y36556D01*
X384725Y36706D01*
X384250Y36755D01*
X394250D01*
X393775Y36706D01*
D02*
G37*
G36*
X787178Y23437D02*
X786792Y23717D01*
X786334Y23855D01*
X785805Y23852D01*
X785205Y23708D01*
X784534Y23422D01*
X783791Y22994D01*
X782977Y22426D01*
X782091Y21716D01*
X780107Y19871D01*
X776571Y23407D01*
X777564Y24435D01*
X779126Y26277D01*
X779695Y27091D01*
X780122Y27834D01*
X780408Y28505D01*
X780552Y29105D01*
X780555Y29634D01*
X780417Y30092D01*
X780137Y30478D01*
X787178Y23437D01*
D02*
G37*
G36*
X727998Y94906D02*
Y84650D01*
X729199Y81749D01*
X729199Y79251D01*
X727998Y76350D01*
Y64650D01*
X728502Y63433D01*
X728495Y63409D01*
X728553Y63310D01*
X729199Y61749D01*
X729116Y59300D01*
X728553Y57940D01*
X728495Y57841D01*
X728502Y57817D01*
X727998Y56600D01*
Y44900D01*
X729199Y41999D01*
X729199Y40251D01*
X727998Y37350D01*
Y25650D01*
X729199Y22749D01*
X732100Y21548D01*
X738101D01*
X738350Y21445D01*
X738533D01*
X741805Y20089D01*
X760971D01*
X761829Y20445D01*
X763900D01*
X763957Y20468D01*
X765865Y20175D01*
X766767Y17782D01*
X760940Y11955D01*
X619532D01*
X618541Y14455D01*
X619980Y17929D01*
Y20554D01*
X621175Y21049D01*
X622377Y23950D01*
Y35650D01*
X621175Y38551D01*
X618274Y39752D01*
X614658D01*
X613701Y42062D01*
X617899Y46260D01*
X627090D01*
Y56336D01*
X667250D01*
X670725Y57775D01*
X706988Y94038D01*
X709298Y93082D01*
Y84650D01*
X709802Y83433D01*
X709795Y83409D01*
X709853Y83310D01*
X710499Y81749D01*
X710618Y80923D01*
Y80077D01*
X710499Y79251D01*
X709853Y77690D01*
X709795Y77591D01*
X709802Y77567D01*
X709298Y76350D01*
Y64650D01*
X710499Y61749D01*
X710499Y59501D01*
X709298Y56600D01*
Y44900D01*
X709802Y43683D01*
X709795Y43659D01*
X709853Y43560D01*
X710499Y41999D01*
X710209Y39550D01*
X709853Y38690D01*
X709795Y38591D01*
X709802Y38567D01*
X709298Y37350D01*
Y25650D01*
X710499Y22749D01*
X713400Y21548D01*
X720900D01*
X723801Y22749D01*
X725002Y25650D01*
Y37350D01*
X724498Y38567D01*
X724505Y38591D01*
X724447Y38690D01*
X724091Y39550D01*
X723801Y41999D01*
X724447Y43560D01*
X724505Y43659D01*
X724498Y43683D01*
X725002Y44900D01*
Y56600D01*
X723801Y59501D01*
X723801Y61749D01*
X725002Y64650D01*
Y76350D01*
X724498Y77567D01*
X724505Y77591D01*
X724447Y77690D01*
X723801Y79251D01*
X723682Y80077D01*
Y80923D01*
X723801Y81749D01*
X724447Y83310D01*
X724505Y83409D01*
X724498Y83433D01*
X725002Y84650D01*
Y96350D01*
X726306Y96957D01*
X727998Y94906D01*
D02*
G37*
%LPC*%
G36*
X706770Y829550D02*
Y821020D01*
X715300D01*
X712802Y827052D01*
X706770Y829550D01*
D02*
G37*
G36*
X704230Y829550D02*
X698198Y827052D01*
X695700Y821020D01*
X704230D01*
Y829550D01*
D02*
G37*
G36*
X715300Y818480D02*
X706770D01*
Y809950D01*
X712802Y812448D01*
X715300Y818480D01*
D02*
G37*
G36*
X704230D02*
X695700D01*
X698198Y812448D01*
X704230Y809950D01*
Y818480D01*
D02*
G37*
G36*
X800250Y833623D02*
X783652Y830322D01*
X769580Y820920D01*
X760178Y806848D01*
X756877Y790250D01*
X760178Y773652D01*
X769580Y759580D01*
X783652Y750178D01*
X800250Y746877D01*
X816848Y750178D01*
X830920Y759580D01*
X840322Y773652D01*
X843623Y790250D01*
X840322Y806848D01*
X830920Y820920D01*
X816848Y830322D01*
X800250Y833623D01*
D02*
G37*
G36*
X856340Y714032D02*
X842246Y708194D01*
X836408Y694100D01*
X842246Y680006D01*
X856340Y674168D01*
X870434Y680006D01*
X876272Y694100D01*
X870434Y708194D01*
X856340Y714032D01*
D02*
G37*
G36*
Y567136D02*
X842246Y561298D01*
X836408Y547203D01*
X842246Y533109D01*
X856340Y527271D01*
X870434Y533109D01*
X876272Y547203D01*
X870434Y561298D01*
X856340Y567136D01*
D02*
G37*
G36*
Y420239D02*
X842246Y414401D01*
X836408Y400307D01*
X842246Y386212D01*
X856340Y380374D01*
X870434Y386212D01*
X876272Y400307D01*
X870434Y414401D01*
X856340Y420239D01*
D02*
G37*
G36*
Y273342D02*
X842246Y267504D01*
X836408Y253410D01*
X842246Y239316D01*
X856340Y233478D01*
X870434Y239316D01*
X876272Y253410D01*
X870434Y267504D01*
X856340Y273342D01*
D02*
G37*
G36*
X83020Y833800D02*
Y825270D01*
X91550D01*
X89052Y831302D01*
X83020Y833800D01*
D02*
G37*
G36*
X80480Y833800D02*
X74448Y831302D01*
X71950Y825270D01*
X80480D01*
Y833800D01*
D02*
G37*
G36*
X91550Y822730D02*
X83020D01*
Y814200D01*
X89052Y816698D01*
X91550Y822730D01*
D02*
G37*
G36*
X80480D02*
X71950D01*
X74448Y816698D01*
X80480Y814200D01*
Y822730D01*
D02*
G37*
G36*
X101915Y780540D02*
X70335D01*
Y774797D01*
X70249Y774762D01*
X70038Y774705D01*
X44863D01*
X44304Y776054D01*
X37500Y778873D01*
X30696Y776054D01*
X27878Y769250D01*
X30696Y762446D01*
X37500Y759628D01*
X44304Y762446D01*
X44863Y763795D01*
X70038D01*
X70249Y763738D01*
X70335Y763703D01*
Y757960D01*
X101915D01*
Y780540D01*
D02*
G37*
G36*
X235965Y684180D02*
X231520D01*
Y676560D01*
X235965D01*
Y684180D01*
D02*
G37*
G36*
X132560Y713912D02*
X118466Y708074D01*
X112628Y693980D01*
X118466Y679886D01*
X132560Y674048D01*
X146654Y679886D01*
X152492Y693980D01*
X146654Y708074D01*
X132560Y713912D01*
D02*
G37*
G36*
X86790Y679690D02*
X56710D01*
Y648610D01*
X79575D01*
X79793Y648393D01*
X83650Y646795D01*
X110387D01*
X110946Y645446D01*
X117750Y642627D01*
X124554Y645446D01*
X127373Y652250D01*
X124554Y659054D01*
X117750Y661872D01*
X110946Y659054D01*
X110387Y657705D01*
X87092D01*
X86883Y657761D01*
X86790Y657799D01*
Y679690D01*
D02*
G37*
G36*
X390520Y81059D02*
Y71420D01*
X400159D01*
X397336Y78236D01*
X390520Y81059D01*
D02*
G37*
G36*
X387980D02*
X381164Y78236D01*
X378341Y71420D01*
X387980D01*
Y81059D01*
D02*
G37*
G36*
X268070D02*
Y71420D01*
X277709D01*
X274886Y78236D01*
X268070Y81059D01*
D02*
G37*
G36*
X265530D02*
X258714Y78236D01*
X255891Y71420D01*
X265530D01*
Y81059D01*
D02*
G37*
G36*
X277709Y68880D02*
X268070D01*
Y59241D01*
X274886Y62064D01*
X277709Y68880D01*
D02*
G37*
G36*
X265530D02*
X255891D01*
X258714Y62064D01*
X265530Y59241D01*
Y68880D01*
D02*
G37*
G36*
X414650Y81586D02*
X406564Y78236D01*
X403214Y70150D01*
X406564Y62064D01*
X414650Y58714D01*
X422736Y62064D01*
X426086Y70150D01*
X422736Y78236D01*
X414650Y81586D01*
D02*
G37*
G36*
X440050Y56185D02*
X431964Y52836D01*
X428615Y44750D01*
X431964Y36664D01*
X440050Y33314D01*
X448136Y36664D01*
X451485Y44750D01*
X448136Y52836D01*
X440050Y56185D01*
D02*
G37*
G36*
X266800D02*
X258714Y52836D01*
X255364Y44750D01*
X258714Y36664D01*
X266800Y33314D01*
X274886Y36664D01*
X278235Y44750D01*
X274886Y52836D01*
X266800Y56185D01*
D02*
G37*
%LPD*%
G36*
X72936Y764250D02*
X72886Y764725D01*
X72735Y765150D01*
X72483Y765525D01*
X72131Y765850D01*
X71678Y766125D01*
X71125Y766350D01*
X70471Y766525D01*
X69717Y766650D01*
X68861Y766725D01*
X67906Y766750D01*
Y771750D01*
X68861Y771775D01*
X69717Y771850D01*
X70471Y771975D01*
X71125Y772150D01*
X71678Y772375D01*
X72131Y772650D01*
X72483Y772975D01*
X72735Y773350D01*
X72886Y773775D01*
X72936Y774250D01*
Y764250D01*
D02*
G37*
G36*
X84242Y656775D02*
X84394Y656350D01*
X84647Y655975D01*
X85000Y655650D01*
X85453Y655375D01*
X86006Y655150D01*
X86659Y654975D01*
X87413Y654850D01*
X88266Y654775D01*
X89220Y654750D01*
Y649750D01*
X84220Y651180D01*
X84189Y657250D01*
X84242Y656775D01*
D02*
G37*
%LPC*%
G36*
X235845Y537403D02*
X231400D01*
Y529783D01*
X235845D01*
Y537403D01*
D02*
G37*
G36*
X132440Y567136D02*
X118346Y561298D01*
X112508Y547203D01*
X118346Y533109D01*
X132440Y527271D01*
X146534Y533109D01*
X152372Y547203D01*
X146534Y561298D01*
X132440Y567136D01*
D02*
G37*
G36*
X86670Y532913D02*
X56590D01*
Y501833D01*
X80627D01*
X81630Y501418D01*
X110067D01*
X110826Y499586D01*
X117630Y496768D01*
X124434Y499586D01*
X127253Y506390D01*
X124434Y513194D01*
X117630Y516012D01*
X110826Y513194D01*
X110467Y512329D01*
X86971D01*
X86762Y512385D01*
X86670Y512422D01*
Y532913D01*
D02*
G37*
%LPD*%
G36*
X84121Y511398D02*
X84274Y510973D01*
X84526Y510598D01*
X84879Y510273D01*
X85332Y509998D01*
X85885Y509773D01*
X86538Y509598D01*
X87292Y509473D01*
X88146Y509398D01*
X89100Y509373D01*
Y504373D01*
X84100Y504404D01*
X84069Y511873D01*
X84121Y511398D01*
D02*
G37*
%LPC*%
G36*
X235845Y390507D02*
X231400D01*
Y382887D01*
X235845D01*
Y390507D01*
D02*
G37*
G36*
X132440Y420239D02*
X118346Y414401D01*
X112508Y400307D01*
X118346Y386212D01*
X132440Y380374D01*
X146534Y386212D01*
X152372Y400307D01*
X146534Y414401D01*
X132440Y420239D01*
D02*
G37*
G36*
X86670Y386017D02*
X56590D01*
Y354937D01*
X79455D01*
X79672Y354719D01*
X83530Y353121D01*
X110267D01*
X110826Y351773D01*
X117630Y348954D01*
X124434Y351773D01*
X127253Y358577D01*
X124434Y365381D01*
X117630Y368199D01*
X110826Y365381D01*
X110267Y364032D01*
X86972D01*
X86763Y364088D01*
X86670Y364126D01*
Y386017D01*
D02*
G37*
%LPD*%
G36*
X84122Y363102D02*
X84274Y362677D01*
X84527Y362302D01*
X84880Y361977D01*
X85333Y361702D01*
X85886Y361477D01*
X86539Y361302D01*
X87292Y361177D01*
X88146Y361102D01*
X89100Y361077D01*
Y356077D01*
X84100Y357507D01*
X84069Y363577D01*
X84122Y363102D01*
D02*
G37*
%LPC*%
G36*
X235615Y242680D02*
X231170D01*
Y235060D01*
X235615D01*
Y242680D01*
D02*
G37*
G36*
X132440Y273342D02*
X118346Y267504D01*
X112508Y253410D01*
X118346Y239316D01*
X132440Y233478D01*
X146534Y239316D01*
X152372Y253410D01*
X146534Y267504D01*
X132440Y273342D01*
D02*
G37*
G36*
X86670Y239120D02*
X56590D01*
Y208040D01*
X79455D01*
X79672Y207823D01*
X83530Y206225D01*
X110267D01*
X110826Y204876D01*
X117630Y202058D01*
X124434Y204876D01*
X127253Y211680D01*
X124434Y218484D01*
X117630Y221303D01*
X110826Y218484D01*
X110267Y217135D01*
X86972D01*
X86763Y217191D01*
X86670Y217229D01*
Y239120D01*
D02*
G37*
G36*
X210250Y198873D02*
X193652Y195572D01*
X179580Y186170D01*
X170178Y172098D01*
X166877Y155500D01*
X170178Y138902D01*
X179580Y124830D01*
X193652Y115428D01*
X210250Y112127D01*
X226848Y115428D01*
X240920Y124830D01*
X250322Y138902D01*
X253623Y155500D01*
X250322Y172098D01*
X240920Y186170D01*
X226848Y195572D01*
X210250Y198873D01*
D02*
G37*
%LPD*%
G36*
X84122Y216205D02*
X84274Y215780D01*
X84527Y215405D01*
X84880Y215080D01*
X85333Y214805D01*
X85886Y214580D01*
X86539Y214405D01*
X87292Y214280D01*
X88146Y214205D01*
X89100Y214180D01*
Y209180D01*
X84100Y210611D01*
X84069Y216680D01*
X84122Y216205D01*
D02*
G37*
%LPC*%
G36*
X601990Y57240D02*
X594670D01*
Y53020D01*
X601990D01*
Y57240D01*
D02*
G37*
G36*
X592130D02*
X584810D01*
Y53020D01*
X592130D01*
Y57240D01*
D02*
G37*
G36*
Y50480D02*
X584810D01*
Y46260D01*
X592130D01*
Y50480D01*
D02*
G37*
G36*
X769040Y55990D02*
X761720D01*
Y51770D01*
X769040D01*
Y55990D01*
D02*
G37*
G36*
X759180D02*
X751860D01*
Y51770D01*
X759180D01*
Y55990D01*
D02*
G37*
G36*
Y49230D02*
X751860D01*
Y45010D01*
X759180D01*
Y49230D01*
D02*
G37*
%LPD*%
D15*
X259215Y116063D02*
G03*
X229335Y70150I20335J-45913D01*
G01*
X229335D02*
G03*
X239844Y58186I12065J0D01*
G01*
X261000Y116813D02*
G03*
X259215Y116063I18549J-46663D01*
G01*
X378250Y57750D02*
X399750D01*
X412750Y44750D02*
X414650D01*
X399750Y57750D02*
X412750Y44750D01*
X234862Y212223D02*
X266540Y180545D01*
X240500Y73535D02*
X246258Y80546D01*
X246932Y81366D02*
X266540Y114518D01*
X204500Y234750D02*
X261000Y178250D01*
Y116813D02*
Y178250D01*
X217200Y229885D02*
X234862Y212223D01*
X246258Y80546D02*
X246932Y81366D01*
X266540Y114518D02*
Y180545D01*
X240500Y71050D02*
Y73535D01*
X241400Y44750D02*
Y56629D01*
X239844Y58186D02*
X241400Y56629D01*
X240500Y71050D02*
X241400Y70150D01*
X217200Y229885D02*
Y243950D01*
X204500Y234750D02*
Y243950D01*
X155575Y633000D02*
X204850Y682275D01*
X162735Y627460D02*
X217550Y682275D01*
X79500Y633000D02*
X155575D01*
X62960Y627460D02*
X162735D01*
X71915Y633000D02*
X79500D01*
X157482Y488250D02*
X204730Y535498D01*
X178535Y56815D02*
Y77215D01*
X173535Y82215D02*
X178535Y77215D01*
X125031Y82215D02*
X173535D01*
X71915Y488250D02*
X157482D01*
X30830Y176416D02*
X125031Y82215D01*
X30830Y447165D02*
X71915Y488250D01*
X30830Y176416D02*
Y447165D01*
X127326Y87755D02*
X175830D01*
X204730Y535498D02*
Y538673D01*
X36370Y178711D02*
X127326Y87755D01*
X36370Y178711D02*
Y444870D01*
X74210Y482710D01*
X164642D01*
X217430Y535498D01*
Y538673D01*
X178535Y56815D02*
X190600Y44750D01*
X175830Y87755D02*
X190600Y72985D01*
Y70150D02*
Y72985D01*
X129620Y93295D02*
X184790D01*
X41910Y181005D02*
X129620Y93295D01*
X41910Y181005D02*
Y314245D01*
X68665Y341000D01*
X157128D01*
X204730Y388602D01*
X164288Y335460D02*
X217430Y388602D01*
X70960Y335460D02*
X164288D01*
X47450Y311950D02*
X70960Y335460D01*
X47450Y183300D02*
Y311950D01*
Y183300D02*
X123000Y107750D01*
X178400D01*
X216000Y70150D01*
X19750Y592085D02*
X60665Y633000D01*
X71915D01*
X25290Y174121D02*
Y589790D01*
X62960Y627460D01*
X19750Y580835D02*
Y592085D01*
Y573250D02*
Y580835D01*
Y171826D02*
Y573250D01*
X25290Y174121D02*
X129261Y70150D01*
X19750Y171826D02*
X146826Y44750D01*
X129261Y70150D02*
X165200D01*
X146826Y44750D02*
X165200D01*
X204850Y682275D02*
Y685450D01*
X217550Y682275D02*
Y685450D01*
X184790Y93295D02*
X203935Y74150D01*
Y56815D02*
Y74150D01*
Y56815D02*
X216000Y44750D01*
X204730Y388602D02*
Y391777D01*
X217430Y388602D02*
Y391777D01*
D36*
X129125Y769250D02*
D03*
X86125D02*
D03*
X329380Y316430D02*
D03*
X286380D02*
D03*
X329380Y463327D02*
D03*
X286380D02*
D03*
X327750Y609250D02*
D03*
X284750D02*
D03*
X329000Y756750D02*
D03*
X286000D02*
D03*
X184130Y322180D02*
D03*
X227130D02*
D03*
X184130Y469077D02*
D03*
X227130D02*
D03*
X184130Y615973D02*
D03*
X227130D02*
D03*
D37*
X622000Y579565D02*
D03*
Y650935D02*
D03*
X622500Y433565D02*
D03*
Y504935D02*
D03*
X621750Y285565D02*
D03*
Y356935D02*
D03*
X623500Y793250D02*
D03*
Y721880D02*
D03*
D38*
X689100Y757250D02*
D03*
X670400D02*
D03*
X596689Y90643D02*
D03*
X615390D02*
D03*
X595824Y29800D02*
D03*
X614524D02*
D03*
X539900Y89750D02*
D03*
X558600D02*
D03*
Y69750D02*
D03*
X539900D02*
D03*
Y49750D02*
D03*
X558600D02*
D03*
Y29750D02*
D03*
X539900D02*
D03*
X765650Y89000D02*
D03*
X784350D02*
D03*
X766400Y30500D02*
D03*
X785100D02*
D03*
X717150Y90500D02*
D03*
X735850D02*
D03*
Y70500D02*
D03*
X717150D02*
D03*
Y50750D02*
D03*
X735850D02*
D03*
Y31500D02*
D03*
X717150D02*
D03*
X284100Y289500D02*
D03*
X265400D02*
D03*
X283850Y436500D02*
D03*
X265150D02*
D03*
X284100Y583250D02*
D03*
X265400D02*
D03*
X285600Y730250D02*
D03*
X266900D02*
D03*
X316600Y352250D02*
D03*
X297900D02*
D03*
X316850Y499000D02*
D03*
X298150D02*
D03*
X317600Y646250D02*
D03*
X298900D02*
D03*
D39*
X593400Y51750D02*
D03*
Y70750D02*
D03*
X618500D02*
D03*
Y61250D02*
D03*
Y51750D02*
D03*
X760450Y50500D02*
D03*
Y69500D02*
D03*
X785550D02*
D03*
Y60000D02*
D03*
Y50500D02*
D03*
D40*
X315280Y191500D02*
D03*
Y131500D02*
D03*
X360250Y191500D02*
D03*
Y131500D02*
D03*
X405500Y191500D02*
D03*
Y131500D02*
D03*
X450500Y191500D02*
D03*
Y131500D02*
D03*
X495250Y191500D02*
D03*
Y131500D02*
D03*
X540250Y191500D02*
D03*
Y131500D02*
D03*
X585250Y191500D02*
D03*
Y131500D02*
D03*
X630250Y191500D02*
D03*
Y131500D02*
D03*
X675500Y191500D02*
D03*
Y131500D02*
D03*
X720500Y191500D02*
D03*
Y131500D02*
D03*
D41*
X812360Y691750D02*
D03*
X752360D02*
D03*
X812360Y647000D02*
D03*
X752360D02*
D03*
X812360Y602000D02*
D03*
X752360D02*
D03*
X812360Y557250D02*
D03*
X752360D02*
D03*
X812360Y512250D02*
D03*
X752360D02*
D03*
X812360Y467500D02*
D03*
X752360D02*
D03*
X812360Y422500D02*
D03*
X752360D02*
D03*
X812360Y377750D02*
D03*
X752360D02*
D03*
X812360Y332750D02*
D03*
X752360D02*
D03*
X812360Y287950D02*
D03*
X752360D02*
D03*
D42*
X271880Y262430D02*
D03*
Y219430D02*
D03*
Y409327D02*
D03*
Y366327D02*
D03*
Y556223D02*
D03*
Y513223D02*
D03*
X272000Y703000D02*
D03*
Y660000D02*
D03*
D43*
X71630Y292180D02*
D03*
Y223580D02*
D03*
Y439077D02*
D03*
Y370477D02*
D03*
Y585973D02*
D03*
Y517373D02*
D03*
X71750Y732750D02*
D03*
Y664150D02*
D03*
D44*
X191800Y243950D02*
D03*
X204500D02*
D03*
X217200D02*
D03*
X229900D02*
D03*
Y294750D02*
D03*
X217200D02*
D03*
X204500D02*
D03*
X191800D02*
D03*
X192030Y391777D02*
D03*
X204730D02*
D03*
X217430D02*
D03*
X230130D02*
D03*
Y442577D02*
D03*
X217430D02*
D03*
X204730D02*
D03*
X192030D02*
D03*
Y538673D02*
D03*
X204730D02*
D03*
X217430D02*
D03*
X230130D02*
D03*
Y589473D02*
D03*
X217430D02*
D03*
X204730D02*
D03*
X192030D02*
D03*
X192150Y685450D02*
D03*
X204850D02*
D03*
X217550D02*
D03*
X230250D02*
D03*
Y736250D02*
D03*
X217550D02*
D03*
X204850D02*
D03*
X192150D02*
D03*
D45*
X563200Y25150D02*
X564850Y23500D01*
X595824Y27700D02*
Y31900D01*
X561100Y25150D02*
X563200D01*
X593324Y25200D02*
X595824Y27700D01*
X558600Y27650D02*
X561100Y25150D01*
X591224Y25200D02*
X593324D01*
X564850Y23500D02*
X589524D01*
X558600Y27650D02*
Y29750D01*
X589524Y23500D02*
X591224Y25200D01*
X539900Y29750D02*
Y49750D01*
X558600D02*
Y69750D01*
X539900D02*
Y89750D01*
X558600D02*
X559172Y90322D01*
X596368D01*
X596689Y90643D01*
X738350Y26900D02*
X740450D01*
X741805Y25545D01*
X765350Y31550D02*
X782000Y48200D01*
X766400Y28400D02*
Y30500D01*
X761326Y25900D02*
X763900D01*
X741805Y25545D02*
X760971D01*
X735850Y29400D02*
Y31500D01*
X760971Y25545D02*
X761326Y25900D01*
X763900D02*
X766400Y28400D01*
X735850Y29400D02*
X738350Y26900D01*
X717150Y70500D02*
Y90500D01*
X735850Y50750D02*
Y70500D01*
X717150Y31500D02*
Y50750D01*
X735850Y90500D02*
X736600Y89750D01*
X763150D01*
X763900Y89000D01*
X765650D01*
X338500Y326310D02*
X338880Y325930D01*
X816823Y69367D02*
X851000Y103544D01*
Y180750D01*
X785683Y69367D02*
X816823D01*
X635497Y78750D02*
X640140Y83393D01*
X641250Y70750D02*
X681540Y111040D01*
X618500Y70750D02*
X641250D01*
X517750Y103750D02*
X637211D01*
X640140Y100821D01*
Y83393D02*
Y100821D01*
X785550Y69500D02*
X785683Y69367D01*
X681540Y111040D02*
X749821D01*
X752750Y113969D01*
Y155821D01*
X673840Y374907D02*
X677750Y370997D01*
X484150Y70150D02*
X517750Y103750D01*
X440050Y70150D02*
X484150D01*
X373750Y54321D02*
X376679Y57250D01*
X377750D01*
X378250Y57750D01*
X373750Y19750D02*
Y54321D01*
Y19750D02*
X387000Y6500D01*
X785100Y28400D02*
Y30500D01*
X763200Y6500D02*
X785100Y28400D01*
X387000Y6500D02*
X763200D01*
X611595Y15000D02*
X614524Y17929D01*
X389250Y23750D02*
X398000Y15000D01*
X611595D01*
X614524Y17929D02*
Y29800D01*
X782000Y48200D02*
Y50050D01*
X782450Y50500D01*
X785550D01*
X760450Y69500D02*
Y81700D01*
X765650Y86900D01*
Y89000D01*
X389250Y23750D02*
Y44750D01*
X593400Y70750D02*
Y85254D01*
X596689Y88543D01*
Y90643D01*
X595824Y31900D02*
X614950Y51026D01*
Y51300D01*
X615400Y51750D01*
X618500D01*
X783500Y248250D02*
X851000Y180750D01*
X783500Y248250D02*
Y485821D01*
X780571Y488750D02*
X783500Y485821D01*
X753485Y488750D02*
X780571D01*
X752360Y489875D02*
X753485Y488750D01*
X517250Y173000D02*
Y191000D01*
X517750Y191500D01*
X749821Y158750D02*
X752750Y155821D01*
X531500Y158750D02*
X749821D01*
X517250Y173000D02*
X531500Y158750D01*
X676700Y374907D02*
X681460D01*
X689100Y755150D02*
Y757250D01*
Y755150D02*
X738000Y706250D01*
X744860D01*
X752360Y698750D01*
Y691750D02*
Y698750D01*
X689100Y757250D02*
X690175Y758325D01*
Y780925D01*
X691250Y782000D01*
X129125Y769250D02*
X159150D01*
X192150Y736250D02*
Y739425D01*
X191475Y740100D02*
X192150Y739425D01*
X188300Y740100D02*
X191475D01*
X159150Y769250D02*
X188300Y740100D01*
X37500Y769250D02*
X86125D01*
X271880Y219430D02*
Y223930D01*
Y196454D02*
Y219430D01*
Y196454D02*
X280000Y188334D01*
Y186250D02*
Y188334D01*
X314940Y228010D02*
X317380Y225570D01*
X75250Y736250D02*
X192150D01*
X71750Y732750D02*
X75250Y736250D01*
X196241Y597636D02*
X208327Y609723D01*
X192030Y589473D02*
Y592648D01*
X196241Y596859D01*
Y597636D01*
X208327Y609723D02*
X220880D01*
X227130Y615973D01*
X83650Y652250D02*
X117750D01*
X209335Y727165D02*
X272000Y664500D01*
Y655500D02*
Y664500D01*
X71750Y664150D02*
X83650Y652250D01*
X158000Y616500D02*
X182657D01*
X183130Y616973D01*
X184130Y615973D01*
X226977Y575973D02*
X261380D01*
X264880Y581473D02*
Y583473D01*
X75130Y589473D02*
X192030D01*
X71630Y585973D02*
X75130Y589473D01*
X209215Y580388D02*
X271880Y517723D01*
X221640Y581310D02*
X226977Y575973D01*
X221640Y581310D02*
Y582088D01*
X217430Y586298D02*
X221640Y582088D01*
X217430Y586298D02*
Y589473D01*
X204730D02*
X205405Y588798D01*
Y585623D02*
Y588798D01*
Y585623D02*
X209215Y581813D01*
Y580388D02*
Y581813D01*
X271880Y508723D02*
Y517723D01*
X75130Y442577D02*
X192030D01*
X74200Y294750D02*
X191800D01*
X209335Y727165D02*
Y728590D01*
X205525Y732400D02*
X209335Y728590D01*
X205525Y732400D02*
Y735575D01*
X272000Y655500D02*
X278250Y649250D01*
X249000Y707500D02*
X250473Y708973D01*
Y713723D01*
X227097Y722750D02*
X261500D01*
X221761Y728087D02*
X227097Y722750D01*
X285000Y728250D02*
Y730250D01*
X336750Y778500D02*
X338000Y779750D01*
X330500Y755750D02*
X336750Y762000D01*
Y778500D01*
X338500Y326310D02*
Y338000D01*
X329380Y463327D02*
X339750Y473697D01*
Y485750D01*
X338250Y615500D02*
Y629000D01*
X281457Y352250D02*
X297900D01*
X271880Y361827D02*
X281457Y352250D01*
X281603Y499000D02*
X298150D01*
X271880Y508723D02*
X281603Y499000D01*
X286400Y646250D02*
X298900D01*
X283400Y649250D02*
X286400Y646250D01*
X278250Y649250D02*
X283400D01*
X278250Y692250D02*
X283770D01*
X307440Y668580D01*
X315060D01*
X292320Y720930D02*
X313510D01*
X315060Y719380D01*
X285000Y728250D02*
X292320Y720930D01*
X272000Y698500D02*
Y703000D01*
Y698500D02*
X278250Y692250D01*
X158250Y322500D02*
X182450D01*
X183130Y323180D01*
X184130Y322180D01*
X182957Y470250D02*
X184130Y469077D01*
X156250Y470250D02*
X182957D01*
X313390Y280360D02*
X314940Y278810D01*
X292200Y280360D02*
X313390D01*
X284880Y287680D02*
X292200Y280360D01*
X283650Y251680D02*
X307320Y228010D01*
X278130Y251680D02*
X283650D01*
X307320Y228010D02*
X314940D01*
X271880Y257930D02*
Y262430D01*
Y257930D02*
X278130Y251680D01*
X284880Y287680D02*
Y289680D01*
X71630Y370477D02*
X83530Y358577D01*
X117630D01*
X117147Y506873D02*
X117630Y506390D01*
X81630Y506873D02*
X117147D01*
X71630Y516873D02*
X81630Y506873D01*
X71630Y516873D02*
Y517373D01*
Y223580D02*
X83530Y211680D01*
X117630D01*
X204500Y294750D02*
X205175Y294075D01*
Y290122D02*
Y294075D01*
Y290122D02*
X237051Y258246D01*
X237564D01*
X271880Y223930D01*
X191800Y294750D02*
X192475Y295425D01*
Y299378D01*
X200751Y307654D01*
X208104D01*
X222630Y322180D01*
X227130D01*
X225817Y282180D02*
X261380D01*
X221411Y286587D02*
X225817Y282180D01*
X221411Y286587D02*
Y287365D01*
X217200Y291575D02*
X221411Y287365D01*
X217200Y291575D02*
Y294750D01*
X175520Y271180D02*
X176993Y269707D01*
Y261932D02*
Y269707D01*
Y261932D02*
X191800Y247125D01*
Y243950D02*
Y247125D01*
X71630Y292180D02*
X74200Y294750D01*
X244915Y295965D02*
X246130Y297180D01*
X230575Y295965D02*
X244915D01*
X229900Y295290D02*
X230575Y295965D01*
X229900Y294750D02*
Y295290D01*
X327750Y609250D02*
X332000D01*
X338250Y615500D01*
X279750Y750500D02*
X286000Y756750D01*
X270750Y750500D02*
X279750D01*
X265000Y744750D02*
X270750Y750500D01*
X265000Y728250D02*
Y744750D01*
X250353Y268403D02*
Y273153D01*
X248880Y266930D02*
X250353Y268403D01*
Y273153D02*
X260380Y283180D01*
X264880Y287680D01*
Y289680D01*
Y287680D02*
Y304180D01*
X270880Y310180D01*
X280130D01*
X286380Y316430D01*
X329380D02*
X338880Y325930D01*
X174853Y412128D02*
Y416603D01*
Y412128D02*
X192030Y394952D01*
Y391777D02*
Y394952D01*
X220880Y462827D02*
X227130Y469077D01*
X208327Y462827D02*
X220880D01*
X196241Y450740D02*
X208327Y462827D01*
X196241Y449962D02*
Y450740D01*
X192030Y445752D02*
X196241Y449962D01*
X192030Y442577D02*
Y445752D01*
X174853Y416603D02*
X175520Y417270D01*
X230130Y442652D02*
X230805Y443327D01*
X245380D01*
X230130Y442577D02*
Y442652D01*
X245380Y443327D02*
X246130Y444077D01*
X175520Y417270D02*
Y418077D01*
X71630Y439077D02*
X75130Y442577D01*
X250353Y415300D02*
Y420050D01*
X248880Y413827D02*
X250353Y415300D01*
X226977Y429077D02*
X261380D01*
X221640Y434413D02*
X226977Y429077D01*
X221640Y434413D02*
Y435191D01*
X217430Y439402D02*
X221640Y435191D01*
X217430Y439402D02*
Y442577D01*
X250353Y420050D02*
X260380Y430077D01*
X264880Y434577D01*
X204730Y442577D02*
X205405Y441902D01*
Y438727D02*
Y441902D01*
Y438727D02*
X209215Y434917D01*
Y433492D02*
Y434917D01*
Y433492D02*
X271880Y370827D01*
Y361827D02*
Y370827D01*
X264880Y434577D02*
Y436577D01*
Y434577D02*
Y451077D01*
X270880Y457077D01*
X280130D01*
X286380Y463327D01*
X284880Y434577D02*
Y436577D01*
X313390Y427257D02*
X314940Y425707D01*
X292200Y427257D02*
X313390D01*
X284880Y434577D02*
X292200Y427257D01*
X271880Y404827D02*
X278130Y398577D01*
X271880Y404827D02*
Y409327D01*
X307320Y374907D02*
X314940D01*
X283650Y398577D02*
X307320Y374907D01*
X278130Y398577D02*
X283650D01*
X317380Y352077D02*
Y372467D01*
X314940Y374907D02*
X317380Y372467D01*
X174853Y559025D02*
Y563500D01*
Y559025D02*
X192030Y541848D01*
Y538673D02*
Y541848D01*
X174853Y563500D02*
X175520Y564167D01*
X230130Y589548D02*
X230805Y590223D01*
X245380D01*
X230130Y589473D02*
Y589548D01*
X245380Y590223D02*
X246130Y590973D01*
X175520Y564167D02*
Y564973D01*
X250353Y562197D02*
Y566947D01*
X248880Y560723D02*
X250353Y562197D01*
Y566947D02*
X260380Y576973D01*
X264880Y581473D01*
Y597973D01*
X270880Y603973D01*
X280130D01*
X286380Y610223D01*
X284880Y581473D02*
Y583473D01*
X313390Y574153D02*
X314940Y572603D01*
X292200Y574153D02*
X313390D01*
X284880Y581473D02*
X292200Y574153D01*
X271880Y551723D02*
X278130Y545473D01*
X271880Y551723D02*
Y556223D01*
X307320Y521803D02*
X314940D01*
X283650Y545473D02*
X307320Y521803D01*
X278130Y545473D02*
X283650D01*
X317380Y498973D02*
Y519363D01*
X314940Y521803D02*
X317380Y519363D01*
X315060Y668580D02*
X317500Y666140D01*
Y645750D02*
Y666140D01*
X265000Y728250D02*
Y730250D01*
X204850Y736250D02*
X205525Y735575D01*
X260500Y723750D02*
X265000Y728250D01*
X250473Y713723D02*
X260500Y723750D01*
X217550Y733075D02*
Y736250D01*
Y733075D02*
X221761Y728865D01*
Y728087D02*
Y728865D01*
X175640Y710943D02*
Y711750D01*
X245500Y737000D02*
X246250Y737750D01*
X230250Y736250D02*
Y736325D01*
X230925Y737000D02*
X245500D01*
X230250Y736325D02*
X230925Y737000D01*
X670000Y723340D02*
Y757250D01*
Y723340D02*
X673840Y719500D01*
X174973Y710277D02*
X175640Y710943D01*
X192150Y685450D02*
Y688625D01*
X174973Y705802D02*
X192150Y688625D01*
X174973Y705802D02*
Y710277D01*
D46*
X674670Y191500D02*
Y227180D01*
X752360Y489875D02*
Y512250D01*
Y467500D02*
Y489875D01*
X517750Y191500D02*
X540250D01*
X495250D02*
X517750D01*
X630250D02*
X674670D01*
X673840Y228010D02*
X674670Y227180D01*
Y191500D02*
X675500D01*
X676700Y374907D02*
X720500Y331107D01*
Y191500D02*
Y331107D01*
X752360Y519250D02*
Y557250D01*
Y669375D02*
Y691750D01*
Y647000D02*
Y669375D01*
X675500Y191500D02*
X720500D01*
X585250D02*
X630250D01*
X540250D02*
X585250D01*
X450500D02*
X495250D01*
X405500D02*
X450500D01*
X360250D02*
X405500D01*
X315280D02*
X360250D01*
X752360Y602000D02*
Y647000D01*
Y557250D02*
Y602000D01*
Y422500D02*
Y467500D01*
Y377750D02*
Y422500D01*
Y332750D02*
Y377750D01*
Y287950D02*
Y332750D01*
X104000Y896250D02*
X412053D01*
X81750Y874000D02*
X104000Y896250D01*
X412593Y896790D02*
X678460D01*
X374201Y869180D02*
X401811Y896790D01*
X412053Y896250D02*
X412593Y896790D01*
X678460D02*
X705500Y869750D01*
X374070Y869180D02*
X374201D01*
X314940Y253410D02*
X363160D01*
X574250Y711750D02*
X591900Y694100D01*
X623500D01*
X524000Y615500D02*
X592297Y547203D01*
X320300Y694100D02*
X360300D01*
X360400Y694000D02*
X374070D01*
X360300Y694100D02*
X360400Y694000D01*
X363180Y253430D02*
X373750Y264000D01*
X314940Y400307D02*
X373263D01*
X619000D02*
X673840D01*
X363160Y253410D02*
X363180Y253430D01*
X360280D02*
X363180D01*
X373263Y400307D02*
X374070Y399500D01*
X623380Y253530D02*
Y281310D01*
X360180Y253530D02*
X360280Y253430D01*
X623380Y400427D02*
Y428207D01*
X424000Y412750D02*
X583340Y253410D01*
X592297Y547203D02*
X620000D01*
X583340Y253410D02*
X620750D01*
X673840D01*
X620750Y284565D02*
X621750Y285565D01*
X620750Y253410D02*
Y284565D01*
X619000Y400307D02*
Y430065D01*
X622500Y433565D01*
X620000Y547203D02*
X673840D01*
X620000Y577565D02*
X622000Y579565D01*
X620000Y547203D02*
Y577565D01*
X623500Y694100D02*
Y721880D01*
Y694100D02*
X655165D01*
X657545D02*
X673840D01*
X590716Y400307D02*
X619000D01*
X474000Y517022D02*
X590716Y400307D01*
X314940Y547203D02*
X369617D01*
X374070Y542750D01*
D47*
X813907Y76990D02*
X816250Y79333D01*
Y98500D01*
X775593Y76990D02*
X813907D01*
X618500Y61250D02*
X667250D01*
X710000Y104000D02*
X810750D01*
X816250Y98500D01*
X608593Y61250D02*
X618500D01*
X633261Y78610D02*
X633401Y78750D01*
X606250Y76267D02*
X608593Y78610D01*
X633401Y78750D02*
X635497D01*
X606250Y63593D02*
Y76267D01*
X608593Y78610D02*
X633261D01*
X773250Y62343D02*
Y74647D01*
X775593Y60000D02*
X785550D01*
X773250Y62343D02*
X775593Y60000D01*
X773250Y74647D02*
X775593Y76990D01*
X667250Y61250D02*
X710000Y104000D01*
X606250Y63593D02*
X608593Y61250D01*
D48*
X673840Y521803D02*
X749807D01*
X752360Y519250D01*
Y512250D02*
Y519250D01*
X673840Y668700D02*
X751685D01*
X752360Y669375D01*
D49*
X574000Y836500D02*
X574070Y836430D01*
Y766230D02*
Y836430D01*
X574250Y711750D02*
Y766050D01*
X524000Y615500D02*
Y869250D01*
X424000Y412750D02*
Y869250D01*
X474000Y517022D02*
Y869250D01*
X574000Y836500D02*
Y869250D01*
D50*
X374070Y694000D02*
Y869180D01*
Y542750D02*
Y694000D01*
X374000Y869250D02*
X374070Y869180D01*
Y264320D02*
Y399500D01*
Y542750D01*
D51*
X165200Y44750D02*
D03*
X389250D02*
D03*
D52*
X165200Y70150D02*
D03*
X190600Y44750D02*
D03*
Y70150D02*
D03*
X216000Y44750D02*
D03*
Y70150D02*
D03*
X241400Y44750D02*
D03*
Y70150D02*
D03*
X266800Y44750D02*
D03*
Y70150D02*
D03*
X440050D02*
D03*
Y44750D02*
D03*
X414650Y70150D02*
D03*
Y44750D02*
D03*
X389250Y70150D02*
D03*
D53*
X314940Y228010D02*
D03*
Y374907D02*
D03*
Y521803D02*
D03*
X315060Y668580D02*
D03*
X673840Y278810D02*
D03*
Y425707D02*
D03*
Y572603D02*
D03*
Y719500D02*
D03*
D54*
X314940Y253410D02*
D03*
Y278810D02*
D03*
Y400307D02*
D03*
Y425707D02*
D03*
Y547203D02*
D03*
Y572603D02*
D03*
X315060Y693980D02*
D03*
Y719380D02*
D03*
X673840Y228010D02*
D03*
Y253410D02*
D03*
Y374907D02*
D03*
Y400307D02*
D03*
Y521803D02*
D03*
Y547203D02*
D03*
Y668700D02*
D03*
Y694100D02*
D03*
D55*
X132440Y253410D02*
D03*
Y400307D02*
D03*
Y547203D02*
D03*
X132560Y693980D02*
D03*
X856340Y253410D02*
D03*
Y400307D02*
D03*
Y547203D02*
D03*
Y694100D02*
D03*
D56*
X574000Y869250D02*
D03*
D57*
X524000D02*
D03*
X474000D02*
D03*
X424000D02*
D03*
X374000D02*
D03*
X324000D02*
D03*
D58*
X705500Y869750D02*
D03*
X81750Y874000D02*
D03*
D59*
X705500Y819750D02*
D03*
X81750Y824000D02*
D03*
D60*
X412450Y363750D02*
D03*
X438000D02*
D03*
X476250Y327250D02*
D03*
X462750Y335000D02*
D03*
X489050Y318750D02*
D03*
X463500D02*
D03*
X574952Y35355D02*
D03*
X752000Y39750D02*
D03*
X532950Y494500D02*
D03*
X558500D02*
D03*
X532700Y515500D02*
D03*
X558250D02*
D03*
X531200Y346500D02*
D03*
X556750D02*
D03*
X530950Y371000D02*
D03*
X556500D02*
D03*
X529700Y226750D02*
D03*
X555250D02*
D03*
X300750Y79550D02*
D03*
Y54000D02*
D03*
X39750Y63800D02*
D03*
Y38250D02*
D03*
X120250Y170800D02*
D03*
Y145250D02*
D03*
X778750Y230800D02*
D03*
Y205250D02*
D03*
X755750Y214800D02*
D03*
Y189250D02*
D03*
X839000Y875050D02*
D03*
Y849500D02*
D03*
X777250Y873550D02*
D03*
Y848000D02*
D03*
X224250Y868300D02*
D03*
Y842750D02*
D03*
X160500Y857050D02*
D03*
Y831500D02*
D03*
X280500Y841050D02*
D03*
Y815500D02*
D03*
X640250Y852550D02*
D03*
Y827000D02*
D03*
X561500Y660800D02*
D03*
Y635250D02*
D03*
X801750Y88750D02*
D03*
X628750Y89500D02*
D03*
X695750Y21000D02*
D03*
X648250D02*
D03*
X672000Y21000D02*
D03*
X871000Y129500D02*
D03*
X37500Y769250D02*
D03*
X280000Y186250D02*
D03*
X221250Y654250D02*
D03*
X117750Y652250D02*
D03*
X249000Y707500D02*
D03*
X877000Y781750D02*
D03*
Y807300D02*
D03*
X889000Y329000D02*
D03*
X863450D02*
D03*
X837900D02*
D03*
X890000Y473750D02*
D03*
X864450D02*
D03*
X838900D02*
D03*
X889450Y622750D02*
D03*
X863900D02*
D03*
X838350D02*
D03*
X871000Y169000D02*
D03*
Y149250D02*
D03*
Y109750D02*
D03*
X80750Y187500D02*
D03*
X62500Y252250D02*
D03*
X56000Y403500D02*
D03*
X50750Y544500D02*
D03*
X55000Y699500D02*
D03*
X283500Y165500D02*
D03*
X257250Y334250D02*
D03*
X256750Y481500D02*
D03*
X338000Y779750D02*
D03*
X338500Y338000D02*
D03*
X339750Y485750D02*
D03*
X338250Y629000D02*
D03*
X158250Y322500D02*
D03*
X156250Y470250D02*
D03*
X158000Y616500D02*
D03*
X117630Y358577D02*
D03*
Y506390D02*
D03*
X246130Y297180D02*
D03*
X248880Y266930D02*
D03*
X175520Y271180D02*
D03*
X117630Y211680D02*
D03*
X246130Y444077D02*
D03*
X248880Y413827D02*
D03*
X175520Y418077D02*
D03*
X246130Y590973D02*
D03*
X248880Y560723D02*
D03*
X175520Y564973D02*
D03*
X175640Y711750D02*
D03*
X246250Y737750D02*
D03*
X691250Y782000D02*
D03*
D61*
X800250Y155500D02*
D03*
Y790250D02*
D03*
X210250Y155500D02*
D03*
Y790250D02*
D03*
M02*
