G04*
G04 #@! TF.GenerationSoftware,Altium Limited,Altium Designer,20.0.13 (296)*
G04*
G04 Layer_Color=8421504*
%FSLAX44Y44*%
%MOMM*%
G71*
G01*
G75*
%ADD14R,3.4000X2.0000*%
%ADD15R,1.4000X1.0000*%
D14*
X496000Y481000D02*
D03*
Y421000D02*
D03*
X811000Y481000D02*
D03*
Y421000D02*
D03*
X721000Y481000D02*
D03*
Y421000D02*
D03*
X631000Y481000D02*
D03*
Y421000D02*
D03*
X451000Y481000D02*
D03*
Y421000D02*
D03*
X541000Y481000D02*
D03*
Y421000D02*
D03*
X586000Y481000D02*
D03*
Y421000D02*
D03*
X676000Y481000D02*
D03*
Y421000D02*
D03*
X766000Y481000D02*
D03*
Y421000D02*
D03*
X856000Y481000D02*
D03*
Y421000D02*
D03*
X496000Y796000D02*
D03*
Y736000D02*
D03*
X811000Y796000D02*
D03*
Y736000D02*
D03*
X721000Y796000D02*
D03*
Y736000D02*
D03*
X631000Y796000D02*
D03*
Y736000D02*
D03*
X451230Y796000D02*
D03*
Y736000D02*
D03*
X541000Y796000D02*
D03*
Y736000D02*
D03*
X586000Y796000D02*
D03*
Y736000D02*
D03*
X676000Y796000D02*
D03*
Y736000D02*
D03*
X766000Y796000D02*
D03*
Y736000D02*
D03*
X856000Y796000D02*
D03*
Y736000D02*
D03*
D15*
X1014000Y811000D02*
D03*
Y791000D02*
D03*
M02*
