G04*
G04 #@! TF.GenerationSoftware,Altium Limited,Altium Designer,20.0.13 (296)*
G04*
G04 Layer_Physical_Order=1*
G04 Layer_Color=255*
%FSLAX44Y44*%
%MOMM*%
G71*
G01*
G75*
%ADD14R,3.4000X2.0000*%
%ADD15R,1.4000X1.0000*%
%ADD30C,2.0000*%
%ADD31C,0.3000*%
%ADD32C,0.5000*%
%ADD33O,2.5400X1.2700*%
%ADD34R,1.4000X1.4000*%
%ADD35C,1.4000*%
%ADD36C,1.6050*%
%ADD37R,1.6050X1.6050*%
%ADD38R,2.1000X2.1000*%
%ADD39C,2.1000*%
%ADD40C,0.8000*%
%ADD41C,3.0000*%
%ADD42C,1.5000*%
%ADD43C,4.0000*%
G36*
X320881Y778246D02*
Y735856D01*
X321194Y734280D01*
X322087Y732944D01*
X339187Y715844D01*
Y714557D01*
X338967Y714465D01*
X337110Y713040D01*
X335685Y711183D01*
X334789Y709021D01*
X334483Y706700D01*
X334789Y704379D01*
X335685Y702217D01*
X337110Y700360D01*
X338967Y698935D01*
X341129Y698039D01*
X343450Y697733D01*
X345681D01*
Y690267D01*
X343450D01*
X341129Y689961D01*
X338967Y689065D01*
X338447Y688667D01*
X337404Y689467D01*
X337782Y690379D01*
X338127Y693000D01*
X337782Y695621D01*
X336770Y698063D01*
X335161Y700161D01*
X333063Y701770D01*
X330621Y702782D01*
X328000Y703127D01*
X325379Y702782D01*
X322937Y701770D01*
X321340Y700545D01*
X320627Y700590D01*
X320052Y700861D01*
X319916Y700982D01*
X319839Y701563D01*
X320713Y702702D01*
X321372Y704293D01*
X321596Y706000D01*
X321372Y707707D01*
X320713Y709298D01*
X319664Y710664D01*
X318298Y711713D01*
X316707Y712372D01*
X315000Y712596D01*
X313293Y712372D01*
X312396Y712000D01*
X311690Y713060D01*
X313115Y714917D01*
X314011Y717079D01*
X314149Y718130D01*
X299000D01*
Y719400D01*
X297730D01*
Y728367D01*
X292650D01*
X290329Y728061D01*
X288167Y727165D01*
X286389Y725801D01*
X285850Y725897D01*
X285119Y726144D01*
Y738055D01*
X285850Y738304D01*
X286389Y738399D01*
X288167Y737035D01*
X290329Y736139D01*
X292650Y735833D01*
X305350D01*
X307671Y736139D01*
X309833Y737035D01*
X311690Y738460D01*
X313115Y740317D01*
X314011Y742479D01*
X314317Y744800D01*
X314011Y747121D01*
X313115Y749283D01*
X311690Y751140D01*
X309833Y752565D01*
X307671Y753461D01*
X305350Y753767D01*
X303119D01*
Y761233D01*
X305350D01*
X307671Y761539D01*
X309833Y762435D01*
X311690Y763860D01*
X313115Y765717D01*
X314011Y767879D01*
X314317Y770200D01*
X314011Y772521D01*
X313860Y772885D01*
X319708Y778732D01*
X320881Y778246D01*
D02*
G37*
G36*
X1050000Y254000D02*
X254000D01*
Y377497D01*
X255205Y377640D01*
X257491Y372122D01*
X260611Y367030D01*
X264489Y362489D01*
X269030Y358611D01*
X274122Y355491D01*
X279640Y353205D01*
X285446Y351811D01*
X291400Y351343D01*
Y351352D01*
X980000D01*
X980003Y351352D01*
X987686Y351784D01*
X995276Y353073D01*
X1002673Y355204D01*
X1009785Y358150D01*
X1016523Y361874D01*
X1022801Y366329D01*
X1028541Y371459D01*
X1033671Y377199D01*
X1038126Y383477D01*
X1041850Y390215D01*
X1044796Y397327D01*
X1046927Y404724D01*
X1048216Y412314D01*
X1048648Y419997D01*
X1048648Y420000D01*
Y651681D01*
X1048629Y651824D01*
X1048239Y656787D01*
X1047043Y661767D01*
X1045083Y666499D01*
X1042407Y670866D01*
X1039080Y674761D01*
X1035186Y678087D01*
X1030818Y680764D01*
X1026087Y682724D01*
X1025798Y682793D01*
X1025589Y682889D01*
X1020746Y684382D01*
X1020440Y685614D01*
X1033913Y699087D01*
X1034806Y700424D01*
X1035119Y702000D01*
Y774000D01*
X1034806Y775576D01*
X1033913Y776913D01*
X1023619Y787206D01*
Y787500D01*
X1023540Y787898D01*
Y798540D01*
X1004460D01*
Y783460D01*
X1016004D01*
X1016587Y782587D01*
X1026881Y772294D01*
Y703706D01*
X1010861Y687687D01*
X1008404Y688704D01*
X1005000Y689153D01*
X1001596Y688704D01*
X998424Y687390D01*
X995700Y685300D01*
X993610Y682576D01*
X992296Y679404D01*
X991848Y676000D01*
X992296Y672596D01*
X993610Y669424D01*
X995700Y666700D01*
X998424Y664610D01*
X1001596Y663296D01*
X1004530Y662909D01*
X1018137Y658715D01*
X1018209Y658703D01*
X1019698Y658086D01*
X1021230Y656910D01*
X1022405Y655379D01*
X1023144Y653595D01*
X1023374Y651850D01*
X1023352Y651681D01*
Y420000D01*
X1023401Y419624D01*
X1023055Y414332D01*
X1021946Y408760D01*
X1020120Y403382D01*
X1017608Y398287D01*
X1014452Y393564D01*
X1010707Y389293D01*
X1006436Y385548D01*
X1001713Y382392D01*
X996618Y379880D01*
X991239Y378054D01*
X985668Y376946D01*
X980376Y376599D01*
X980000Y376648D01*
X291400D01*
X291054Y376603D01*
X288076Y376995D01*
X284979Y378278D01*
X282319Y380319D01*
X280278Y382979D01*
X278995Y386076D01*
X278603Y389054D01*
X278648Y389400D01*
Y419952D01*
X300000D01*
X303274Y420383D01*
X306324Y421646D01*
X308944Y423656D01*
X309389Y424236D01*
X310833Y424835D01*
X312690Y426259D01*
X314115Y428117D01*
X315011Y430279D01*
X315317Y432600D01*
X315011Y434921D01*
X314115Y437083D01*
X312690Y438940D01*
X310833Y440365D01*
X309389Y440964D01*
X308944Y441544D01*
X306324Y443554D01*
X303274Y444817D01*
X300000Y445248D01*
X278648D01*
Y643200D01*
X278603Y643546D01*
X278995Y646524D01*
X280278Y649621D01*
X282319Y652281D01*
X284979Y654322D01*
X288076Y655605D01*
X291054Y655997D01*
X291400Y655952D01*
X299000D01*
X302274Y656383D01*
X305324Y657646D01*
X307944Y659656D01*
X308389Y660236D01*
X309833Y660835D01*
X310660Y661469D01*
X311936Y660847D01*
X312031Y650880D01*
X310766Y650249D01*
X309833Y650965D01*
X307671Y651861D01*
X305350Y652167D01*
X292650D01*
X290329Y651861D01*
X288167Y650965D01*
X286310Y649540D01*
X284885Y647683D01*
X283989Y645521D01*
X283683Y643200D01*
X283989Y640879D01*
X284885Y638717D01*
X286310Y636860D01*
X288167Y635435D01*
X290329Y634539D01*
X292650Y634233D01*
X305350D01*
X307671Y634539D01*
X309833Y635435D01*
X310899Y636253D01*
X312175Y635631D01*
X312317Y620723D01*
X312329Y619414D01*
X312197Y618199D01*
X312204Y618183D01*
X312340Y618049D01*
X312341Y617077D01*
Y567644D01*
X311202Y567083D01*
X310833Y567365D01*
X308671Y568261D01*
X306350Y568567D01*
X293650D01*
X291329Y568261D01*
X289167Y567365D01*
X287310Y565940D01*
X285885Y564083D01*
X284989Y561921D01*
X284683Y559600D01*
X284989Y557279D01*
X285885Y555117D01*
X287310Y553260D01*
X289167Y551835D01*
X291329Y550939D01*
X293650Y550633D01*
X306350D01*
X308671Y550939D01*
X310833Y551835D01*
X311202Y552117D01*
X312341Y551556D01*
X312341Y542244D01*
X311202Y541683D01*
X310833Y541965D01*
X308671Y542861D01*
X306350Y543167D01*
X293650D01*
X291329Y542861D01*
X289167Y541965D01*
X287310Y540540D01*
X285885Y538683D01*
X284989Y536521D01*
X284683Y534200D01*
X284989Y531879D01*
X285885Y529717D01*
X287310Y527859D01*
X289167Y526435D01*
X291329Y525539D01*
X293650Y525233D01*
X295881D01*
Y517767D01*
X293650D01*
X291329Y517461D01*
X289167Y516565D01*
X287310Y515140D01*
X285885Y513283D01*
X284989Y511121D01*
X284683Y508800D01*
X284989Y506479D01*
X285885Y504317D01*
X287310Y502459D01*
X289167Y501035D01*
X291329Y500139D01*
X293650Y499833D01*
X306350D01*
X308671Y500139D01*
X310833Y501035D01*
X312690Y502459D01*
X314115Y504317D01*
X315011Y506479D01*
X315317Y508800D01*
X315011Y511121D01*
X314115Y513283D01*
X312690Y515140D01*
X310833Y516565D01*
X308671Y517461D01*
X306350Y517767D01*
X304119D01*
Y525233D01*
X306350D01*
X308671Y525539D01*
X310833Y526435D01*
X312690Y527859D01*
X314115Y529717D01*
X314321Y530213D01*
X315298Y530341D01*
X317010Y531051D01*
X318481Y532179D01*
X319609Y533650D01*
X320319Y535362D01*
X320525Y536927D01*
X320579Y537200D01*
X320579Y556599D01*
X320623Y556634D01*
X320723Y556876D01*
X320713Y558146D01*
X320905Y559600D01*
X320713Y561054D01*
X320723Y562324D01*
X320623Y562566D01*
X320579Y563768D01*
Y618199D01*
X320571Y618238D01*
X320579Y618277D01*
X319945Y685042D01*
X321210Y685555D01*
X322861Y684288D01*
Y629842D01*
X323252Y627876D01*
X324366Y626208D01*
X334861Y615714D01*
Y608712D01*
X332839Y607161D01*
X331230Y605063D01*
X330218Y602621D01*
X329873Y600000D01*
X330218Y597379D01*
X331230Y594937D01*
X332839Y592839D01*
X334861Y591288D01*
Y586086D01*
X326366Y577592D01*
X325252Y575924D01*
X324861Y573958D01*
Y499929D01*
X325252Y497962D01*
X326366Y496295D01*
X329295Y493366D01*
X330962Y492252D01*
X332929Y491861D01*
X336583D01*
X336685Y491617D01*
X338110Y489759D01*
X339967Y488335D01*
X342129Y487439D01*
X344450Y487133D01*
X357150D01*
X359471Y487439D01*
X361633Y488335D01*
X363490Y489759D01*
X364915Y491617D01*
X365811Y493779D01*
X366117Y496100D01*
X365811Y498421D01*
X364915Y500583D01*
X363490Y502440D01*
X361633Y503865D01*
X359471Y504761D01*
X357150Y505067D01*
X344450D01*
X342129Y504761D01*
X339967Y503865D01*
X338110Y502440D01*
X337878Y502139D01*
X335139D01*
Y517430D01*
X336409Y517683D01*
X336685Y517017D01*
X338110Y515159D01*
X339967Y513735D01*
X342129Y512839D01*
X344450Y512533D01*
X357150D01*
X359471Y512839D01*
X361633Y513735D01*
X363490Y515159D01*
X364915Y517017D01*
X365811Y519179D01*
X366117Y521500D01*
X365811Y523821D01*
X364915Y525983D01*
X363490Y527840D01*
X361633Y529265D01*
X359471Y530161D01*
X357150Y530467D01*
X344450D01*
X342129Y530161D01*
X339967Y529265D01*
X338110Y527840D01*
X336685Y525983D01*
X336409Y525317D01*
X335139Y525570D01*
Y542830D01*
X336409Y543083D01*
X336685Y542417D01*
X338110Y540560D01*
X339967Y539135D01*
X341412Y538536D01*
X341856Y537956D01*
X344476Y535946D01*
X347526Y534683D01*
X350800Y534252D01*
X352804D01*
X352857Y534252D01*
Y534253D01*
X353071Y534281D01*
X358536Y534639D01*
X364118Y535749D01*
X369507Y537579D01*
X374611Y540096D01*
X379343Y543258D01*
X383360Y546781D01*
X383589Y546956D01*
X383593Y546960D01*
X383593Y546960D01*
X383593Y546960D01*
X383669Y547036D01*
X384023Y547496D01*
X391819Y554640D01*
X400720Y561470D01*
X410182Y567499D01*
X420135Y572679D01*
X425145Y574754D01*
X425145Y574754D01*
X426317Y575175D01*
X427809Y575371D01*
X427956Y575352D01*
X624763Y575352D01*
X627208Y573345D01*
X630255Y571717D01*
X633562Y570714D01*
X637000Y570375D01*
X640438Y570714D01*
X643745Y571717D01*
X646792Y573345D01*
X649237Y575352D01*
X883761D01*
X942056Y517056D01*
X942056Y517056D01*
X944676Y515046D01*
X947726Y513783D01*
X951000Y513352D01*
X951000Y513352D01*
X1001460D01*
X1001596Y513296D01*
X1005000Y512848D01*
X1008404Y513296D01*
X1011576Y514610D01*
X1014300Y516700D01*
X1016390Y519424D01*
X1017704Y522596D01*
X1018152Y526000D01*
X1017704Y529404D01*
X1016390Y532576D01*
X1014300Y535300D01*
X1011576Y537390D01*
X1008404Y538704D01*
X1005000Y539152D01*
X1001596Y538704D01*
X1001460Y538648D01*
X956239D01*
X897944Y596944D01*
X895324Y598954D01*
X892274Y600217D01*
X889000Y600648D01*
X889000Y600648D01*
X649237D01*
X646792Y602654D01*
X643745Y604283D01*
X640438Y605286D01*
X637000Y605625D01*
X633562Y605286D01*
X630255Y604283D01*
X627208Y602654D01*
X624763Y600648D01*
X429198Y600648D01*
X427956Y600648D01*
X427928Y600644D01*
Y600644D01*
X427748Y600621D01*
X422894Y600239D01*
X417914Y599043D01*
X415464Y598029D01*
X415422Y598130D01*
X404658Y593168D01*
X394120Y587266D01*
X384078Y580556D01*
X374594Y573079D01*
X365786Y564938D01*
X365786Y564938D01*
X364871Y564080D01*
X363022Y562562D01*
X359858Y560872D01*
X356426Y559830D01*
X353161Y559509D01*
X352864Y559548D01*
X352819Y559548D01*
X352815Y559548D01*
X352812Y559548D01*
X350800D01*
X347526Y559117D01*
X344476Y557854D01*
X341856Y555844D01*
X341412Y555264D01*
X339967Y554665D01*
X338110Y553240D01*
X336685Y551383D01*
X336409Y550717D01*
X335139Y550970D01*
Y568230D01*
X336409Y568483D01*
X336685Y567817D01*
X338110Y565960D01*
X339967Y564535D01*
X342129Y563639D01*
X344450Y563333D01*
X357150D01*
X359471Y563639D01*
X361633Y564535D01*
X363490Y565960D01*
X364915Y567817D01*
X365811Y569979D01*
X366117Y572300D01*
X365811Y574621D01*
X364915Y576783D01*
X363490Y578640D01*
X361633Y580065D01*
X359471Y580961D01*
X357150Y581267D01*
X345791D01*
X345580Y581413D01*
X344856Y582537D01*
X345139Y583958D01*
Y591288D01*
X347161Y592839D01*
X348770Y594937D01*
X349782Y597379D01*
X350127Y600000D01*
X349782Y602621D01*
X348770Y605063D01*
X347161Y607161D01*
X345139Y608712D01*
Y617842D01*
X344748Y619809D01*
X344444Y620263D01*
X344517Y620580D01*
X345123Y621533D01*
X356150D01*
X358471Y621839D01*
X360633Y622735D01*
X362490Y624160D01*
X363915Y626017D01*
X364811Y628179D01*
X365117Y630500D01*
X364811Y632821D01*
X363915Y634983D01*
X362490Y636840D01*
X360633Y638265D01*
X358471Y639161D01*
X356150Y639467D01*
X343450D01*
X341129Y639161D01*
X338967Y638265D01*
X337110Y636840D01*
X335685Y634983D01*
X334916Y633128D01*
X334005Y632690D01*
X333479Y632603D01*
X333139Y632851D01*
Y683963D01*
X333708Y684331D01*
X334517Y683800D01*
X334774Y683508D01*
X334483Y681300D01*
X334789Y678979D01*
X335685Y676817D01*
X337110Y674960D01*
X338967Y673535D01*
X341129Y672639D01*
X343450Y672333D01*
X356150D01*
X358471Y672639D01*
X360633Y673535D01*
X362490Y674960D01*
X363915Y676817D01*
X364811Y678979D01*
X365117Y681300D01*
X364811Y683621D01*
X363915Y685783D01*
X362490Y687640D01*
X360633Y689065D01*
X358471Y689961D01*
X356150Y690267D01*
X353919D01*
Y697733D01*
X356150D01*
X358471Y698039D01*
X360633Y698935D01*
X362490Y700360D01*
X363915Y702217D01*
X364811Y704379D01*
X365117Y706700D01*
X364811Y709021D01*
X363915Y711183D01*
X362490Y713040D01*
X360633Y714465D01*
X358471Y715361D01*
X356150Y715667D01*
X347425D01*
Y717550D01*
X347112Y719126D01*
X346219Y720463D01*
X344722Y721960D01*
X345208Y723133D01*
X356150D01*
X358471Y723439D01*
X360633Y724335D01*
X362490Y725760D01*
X363915Y727617D01*
X364811Y729779D01*
X365117Y732100D01*
X364811Y734421D01*
X363915Y736583D01*
X362490Y738440D01*
X360633Y739865D01*
X358471Y740761D01*
X356150Y741067D01*
X343450D01*
X341129Y740761D01*
X338967Y739865D01*
X337110Y738440D01*
X335685Y736583D01*
X334789Y734421D01*
X334682Y733610D01*
X333479Y733202D01*
X329119Y737562D01*
Y753936D01*
X330258Y754497D01*
X330450Y754351D01*
X332162Y753641D01*
X333727Y753435D01*
X334000Y753381D01*
X334000Y753381D01*
X335534D01*
X335685Y753017D01*
X337110Y751160D01*
X338967Y749735D01*
X341129Y748839D01*
X343450Y748533D01*
X356150D01*
X358471Y748839D01*
X360633Y749735D01*
X362490Y751160D01*
X363915Y753017D01*
X364811Y755179D01*
X365117Y757500D01*
X364811Y759821D01*
X363915Y761983D01*
X362490Y763840D01*
X360633Y765265D01*
X358471Y766161D01*
X356150Y766467D01*
X343450D01*
X341129Y766161D01*
X338967Y765265D01*
X337110Y763840D01*
X336389Y762902D01*
X335119Y763333D01*
Y777067D01*
X336389Y777498D01*
X337110Y776560D01*
X338967Y775135D01*
X340411Y774536D01*
X340856Y773956D01*
X343476Y771946D01*
X346526Y770683D01*
X349800Y770252D01*
X376000D01*
X376169Y770274D01*
X377914Y770044D01*
X379698Y769305D01*
X381230Y768130D01*
X382405Y766598D01*
X383144Y764814D01*
X383374Y763069D01*
X383352Y762900D01*
X383352Y706390D01*
X383371Y706246D01*
X383761Y701283D01*
X384957Y696303D01*
X386917Y691571D01*
X389593Y687204D01*
X392920Y683309D01*
X396814Y679983D01*
X401181Y677307D01*
X405913Y675347D01*
X408719Y674673D01*
X409149Y674495D01*
X410170Y674325D01*
X411423Y674118D01*
X412877Y673829D01*
X420381Y673337D01*
Y673352D01*
X624763Y673352D01*
X627208Y671346D01*
X630255Y669717D01*
X633562Y668714D01*
X637000Y668375D01*
X640438Y668714D01*
X643745Y669717D01*
X646792Y671346D01*
X649237Y673352D01*
X907761D01*
X963865Y617248D01*
X963865Y617248D01*
X966485Y615238D01*
X969535Y613974D01*
X972809Y613543D01*
X1000998D01*
X1001596Y613296D01*
X1005000Y612848D01*
X1008404Y613296D01*
X1011576Y614610D01*
X1014300Y616700D01*
X1016390Y619424D01*
X1017704Y622596D01*
X1018152Y626000D01*
X1017704Y629404D01*
X1016390Y632576D01*
X1014300Y635300D01*
X1011576Y637390D01*
X1008404Y638704D01*
X1005000Y639152D01*
X1002623Y638839D01*
X978048D01*
X921944Y694944D01*
X919324Y696954D01*
X916274Y698217D01*
X913000Y698648D01*
X913000Y698648D01*
X649237D01*
X646792Y700655D01*
X643745Y702283D01*
X640438Y703286D01*
X637000Y703625D01*
X633562Y703286D01*
X630255Y702283D01*
X627208Y700655D01*
X624763Y698648D01*
X420381Y698648D01*
X419998Y698598D01*
X415932Y698918D01*
X414687Y699166D01*
X413498Y699489D01*
X412302Y699984D01*
X410770Y701160D01*
X409595Y702691D01*
X408856Y704475D01*
X408626Y706221D01*
X408648Y706390D01*
X408648Y761630D01*
X408648Y762900D01*
X408648Y762900D01*
X408629Y763043D01*
X408239Y768006D01*
X407043Y772987D01*
X405083Y777719D01*
X402407Y782086D01*
X399080Y785980D01*
X395186Y789307D01*
X390818Y791983D01*
X386087Y793943D01*
X384259Y794382D01*
X384409Y795652D01*
X415551D01*
X415897Y795697D01*
X418875Y795305D01*
X421973Y794022D01*
X424356Y792194D01*
X424568Y791917D01*
X429428Y787056D01*
X431690Y785321D01*
Y783460D01*
X437550D01*
X438372Y783352D01*
X439194Y783460D01*
X450408D01*
X451230Y783352D01*
X648881D01*
Y777000D01*
X649194Y775424D01*
X650087Y774087D01*
X652087Y772087D01*
X653424Y771194D01*
X655000Y770881D01*
X886000D01*
X887576Y771194D01*
X888913Y772087D01*
X911413Y794587D01*
X912306Y795924D01*
X912619Y797500D01*
Y802961D01*
X912708Y804208D01*
X912763Y804342D01*
X912644Y805612D01*
X912713Y805702D01*
X913372Y807293D01*
X913596Y809000D01*
X913372Y810707D01*
X912713Y812298D01*
X911664Y813664D01*
X910298Y814713D01*
X908707Y815372D01*
X907000Y815596D01*
X905293Y815372D01*
X903702Y814713D01*
X902336Y813664D01*
X901287Y812298D01*
X900628Y810707D01*
X900404Y809000D01*
X900628Y807293D01*
X901287Y805702D01*
X902336Y804336D01*
X903702Y803287D01*
X904340Y803023D01*
X904381Y802982D01*
Y799206D01*
X884294Y779119D01*
X657119D01*
Y783352D01*
X856000D01*
X856822Y783460D01*
X875540D01*
Y808540D01*
X856822D01*
X856000Y808648D01*
X451230D01*
X450408Y808540D01*
X443719D01*
X442455Y809804D01*
X442462Y809811D01*
X437921Y813689D01*
X432829Y816809D01*
X427311Y819095D01*
X421505Y820489D01*
X415551Y820957D01*
Y820948D01*
X349800D01*
X346526Y820517D01*
X343476Y819254D01*
X340856Y817244D01*
X340411Y816664D01*
X338967Y816065D01*
X337110Y814640D01*
X336389Y813701D01*
X335119Y814133D01*
Y827320D01*
X735439D01*
X737016Y827634D01*
X738352Y828527D01*
X745034Y835209D01*
X745189Y835440D01*
X746149Y836692D01*
X746859Y838405D01*
X747065Y839969D01*
X747119Y840243D01*
Y869128D01*
X747065Y869401D01*
X746859Y870965D01*
X746149Y872678D01*
X745189Y873930D01*
X745034Y874162D01*
X741048Y878148D01*
X741503Y879489D01*
X743158Y879707D01*
X745728Y880771D01*
X747935Y882465D01*
X749629Y884672D01*
X750693Y887242D01*
X751056Y890000D01*
X750693Y892758D01*
X749629Y895328D01*
X747935Y897535D01*
X745728Y899229D01*
X743158Y900293D01*
X740400Y900656D01*
X737642Y900293D01*
X737101Y900069D01*
X728832Y904533D01*
X728406Y904664D01*
X727288Y905127D01*
X726446Y905238D01*
X725983Y905367D01*
X721785Y905688D01*
X721397Y906992D01*
X722535Y907865D01*
X724229Y910072D01*
X725293Y912642D01*
X725656Y915400D01*
X725293Y918158D01*
X724229Y920728D01*
X722535Y922935D01*
X720328Y924629D01*
X717758Y925693D01*
X715000Y926056D01*
X712242Y925693D01*
X709672Y924629D01*
X707465Y922935D01*
X705771Y920728D01*
X704707Y918158D01*
X704344Y915400D01*
X704707Y912642D01*
X705771Y910072D01*
X707308Y908070D01*
X706917Y906826D01*
X705888Y906905D01*
X705612Y906872D01*
X705335Y906908D01*
X703497Y906666D01*
X701785Y905957D01*
X700314Y904828D01*
X699185Y903358D01*
X698476Y901645D01*
X698270Y900081D01*
X698216Y899807D01*
X698216Y899807D01*
Y898010D01*
X696946Y897680D01*
X694928Y899229D01*
X692358Y900293D01*
X690870Y900489D01*
Y890000D01*
Y879511D01*
X692358Y879707D01*
X694928Y880771D01*
X696946Y882320D01*
X698216Y881990D01*
Y852659D01*
X317540D01*
X315964Y852346D01*
X314627Y851453D01*
X278966Y815791D01*
X278811Y815560D01*
X277851Y814308D01*
X277141Y812595D01*
X276935Y811031D01*
X276881Y810757D01*
Y714242D01*
X276935Y713969D01*
X277141Y712405D01*
X277851Y710692D01*
X278811Y709440D01*
X278966Y709208D01*
X278966Y709208D01*
X286491Y701683D01*
X286408Y700416D01*
X286310Y700340D01*
X284885Y698483D01*
X283989Y696321D01*
X283683Y694000D01*
X283989Y691679D01*
X284885Y689517D01*
X286310Y687660D01*
X288167Y686235D01*
X290329Y685339D01*
X292650Y685033D01*
X305350D01*
X307671Y685339D01*
X309833Y686235D01*
X310553Y686787D01*
X311695Y686231D01*
X311787Y676467D01*
X310523Y675836D01*
X309833Y676365D01*
X308389Y676964D01*
X307944Y677544D01*
X305324Y679554D01*
X302274Y680817D01*
X299000Y681248D01*
X291400D01*
Y681257D01*
X285446Y680789D01*
X279640Y679395D01*
X274122Y677109D01*
X269030Y673989D01*
X264489Y670111D01*
X260611Y665570D01*
X257491Y660478D01*
X255205Y654960D01*
X254000Y655103D01*
Y960000D01*
X1050000D01*
Y254000D01*
D02*
G37*
%LPC*%
G36*
X305350Y728367D02*
X300270D01*
Y720670D01*
X314149D01*
X314011Y721721D01*
X313115Y723883D01*
X311690Y725740D01*
X309833Y727165D01*
X307671Y728061D01*
X305350Y728367D01*
D02*
G37*
G36*
X938270Y929429D02*
Y924270D01*
X943429D01*
X943372Y924707D01*
X942713Y926298D01*
X941664Y927664D01*
X940298Y928713D01*
X938707Y929372D01*
X938270Y929429D01*
D02*
G37*
G36*
X935730D02*
X935293Y929372D01*
X933702Y928713D01*
X932336Y927664D01*
X931287Y926298D01*
X930628Y924707D01*
X930571Y924270D01*
X935730D01*
Y929429D01*
D02*
G37*
G36*
X943429Y921730D02*
X938270D01*
Y916571D01*
X938707Y916628D01*
X940298Y917287D01*
X941664Y918336D01*
X942713Y919702D01*
X943372Y921293D01*
X943429Y921730D01*
D02*
G37*
G36*
X935730D02*
X930571D01*
X930628Y921293D01*
X931287Y919702D01*
X932336Y918336D01*
X933702Y917287D01*
X935293Y916628D01*
X935730Y916571D01*
Y921730D01*
D02*
G37*
G36*
X583365Y928565D02*
X562235D01*
Y907435D01*
X583365D01*
Y928565D01*
D02*
G37*
G36*
X547400Y928656D02*
X544642Y928293D01*
X542072Y927228D01*
X539865Y925535D01*
X538172Y923328D01*
X537107Y920758D01*
X536744Y918000D01*
X537107Y915242D01*
X538172Y912672D01*
X539865Y910465D01*
X542072Y908772D01*
X544642Y907707D01*
X547400Y907344D01*
X550158Y907707D01*
X552728Y908772D01*
X554935Y910465D01*
X556628Y912672D01*
X557693Y915242D01*
X558056Y918000D01*
X557693Y920758D01*
X556628Y923328D01*
X554935Y925535D01*
X552728Y927228D01*
X550158Y928293D01*
X547400Y928656D01*
D02*
G37*
G36*
X765800Y926056D02*
X763042Y925693D01*
X760472Y924629D01*
X758265Y922935D01*
X756572Y920728D01*
X755507Y918158D01*
X755144Y915400D01*
X755507Y912642D01*
X756572Y910072D01*
X758265Y907865D01*
X760472Y906171D01*
X763042Y905107D01*
X765800Y904744D01*
X768558Y905107D01*
X771128Y906171D01*
X773335Y907865D01*
X775029Y910072D01*
X776093Y912642D01*
X776456Y915400D01*
X776093Y918158D01*
X775029Y920728D01*
X773335Y922935D01*
X771128Y924629D01*
X768558Y925693D01*
X765800Y926056D01*
D02*
G37*
G36*
X740400D02*
X737642Y925693D01*
X735072Y924629D01*
X732865Y922935D01*
X731171Y920728D01*
X730107Y918158D01*
X729744Y915400D01*
X730107Y912642D01*
X731171Y910072D01*
X732865Y907865D01*
X735072Y906171D01*
X737642Y905107D01*
X740400Y904744D01*
X743158Y905107D01*
X745728Y906171D01*
X747935Y907865D01*
X749629Y910072D01*
X750693Y912642D01*
X751056Y915400D01*
X750693Y918158D01*
X749629Y920728D01*
X747935Y922935D01*
X745728Y924629D01*
X743158Y925693D01*
X740400Y926056D01*
D02*
G37*
G36*
X689600D02*
X686842Y925693D01*
X684272Y924629D01*
X682065Y922935D01*
X680371Y920728D01*
X679307Y918158D01*
X678944Y915400D01*
X679307Y912642D01*
X680371Y910072D01*
X682065Y907865D01*
X684272Y906171D01*
X686842Y905107D01*
X689600Y904744D01*
X692358Y905107D01*
X694928Y906171D01*
X697135Y907865D01*
X698829Y910072D01*
X699893Y912642D01*
X700256Y915400D01*
X699893Y918158D01*
X698829Y920728D01*
X697135Y922935D01*
X694928Y924629D01*
X692358Y925693D01*
X689600Y926056D01*
D02*
G37*
G36*
X574070Y903089D02*
Y893870D01*
X583289D01*
X583093Y895358D01*
X582029Y897928D01*
X580335Y900135D01*
X578128Y901829D01*
X575558Y902893D01*
X574070Y903089D01*
D02*
G37*
G36*
X571530Y903089D02*
X570042Y902893D01*
X567472Y901829D01*
X565265Y900135D01*
X563572Y897928D01*
X562507Y895358D01*
X562311Y893870D01*
X571530D01*
Y903089D01*
D02*
G37*
G36*
X688330Y900489D02*
X686842Y900293D01*
X684272Y899229D01*
X682065Y897535D01*
X680371Y895328D01*
X679307Y892758D01*
X679111Y891270D01*
X688330D01*
Y900489D01*
D02*
G37*
G36*
X571530Y891330D02*
X562311D01*
X562507Y889842D01*
X563572Y887272D01*
X565265Y885065D01*
X567472Y883372D01*
X570042Y882307D01*
X571530Y882111D01*
Y891330D01*
D02*
G37*
G36*
X583289D02*
X574070D01*
Y882111D01*
X575558Y882307D01*
X578128Y883372D01*
X580335Y885065D01*
X582029Y887272D01*
X583093Y889842D01*
X583289Y891330D01*
D02*
G37*
G36*
X547400Y903256D02*
X544642Y902893D01*
X542072Y901829D01*
X539865Y900135D01*
X538172Y897928D01*
X537107Y895358D01*
X536744Y892600D01*
X537107Y889842D01*
X538172Y887272D01*
X539865Y885065D01*
X542072Y883372D01*
X544642Y882307D01*
X547400Y881944D01*
X550158Y882307D01*
X552728Y883372D01*
X554935Y885065D01*
X556628Y887272D01*
X557693Y889842D01*
X558056Y892600D01*
X557693Y895358D01*
X556628Y897928D01*
X554935Y900135D01*
X552728Y901829D01*
X550158Y902893D01*
X547400Y903256D01*
D02*
G37*
G36*
X522000D02*
X519242Y902893D01*
X516672Y901829D01*
X514465Y900135D01*
X512771Y897928D01*
X511707Y895358D01*
X511344Y892600D01*
X511707Y889842D01*
X512771Y887272D01*
X514465Y885065D01*
X516672Y883372D01*
X519242Y882307D01*
X522000Y881944D01*
X524758Y882307D01*
X527328Y883372D01*
X529535Y885065D01*
X531228Y887272D01*
X532293Y889842D01*
X532656Y892600D01*
X532293Y895358D01*
X531228Y897928D01*
X529535Y900135D01*
X527328Y901829D01*
X524758Y902893D01*
X522000Y903256D01*
D02*
G37*
G36*
X688330Y888730D02*
X679111D01*
X679307Y887242D01*
X680371Y884672D01*
X682065Y882465D01*
X684272Y880771D01*
X686842Y879707D01*
X688330Y879511D01*
Y888730D01*
D02*
G37*
G36*
X791200Y900656D02*
X788442Y900293D01*
X785872Y899229D01*
X783665Y897535D01*
X781972Y895328D01*
X780907Y892758D01*
X780544Y890000D01*
X780907Y887242D01*
X781972Y884672D01*
X783665Y882465D01*
X784584Y881760D01*
X784667Y880492D01*
X775294Y871119D01*
X770083D01*
X769664Y871664D01*
X768298Y872713D01*
X766707Y873372D01*
X765000Y873596D01*
X763293Y873372D01*
X761702Y872713D01*
X760389Y871705D01*
X760142Y871744D01*
X759119Y872165D01*
Y877494D01*
X761833Y880208D01*
X763042Y879707D01*
X765800Y879344D01*
X768558Y879707D01*
X771128Y880771D01*
X773335Y882465D01*
X775029Y884672D01*
X776093Y887242D01*
X776456Y890000D01*
X776093Y892758D01*
X775029Y895328D01*
X773335Y897535D01*
X771128Y899229D01*
X768558Y900293D01*
X765800Y900656D01*
X763042Y900293D01*
X760472Y899229D01*
X758265Y897535D01*
X756572Y895328D01*
X755507Y892758D01*
X755144Y890000D01*
X755507Y887242D01*
X756008Y886033D01*
X752087Y882113D01*
X751194Y880776D01*
X750881Y879200D01*
Y847083D01*
X750336Y846664D01*
X749287Y845298D01*
X748628Y843707D01*
X748404Y842000D01*
X748628Y840293D01*
X749287Y838702D01*
X750336Y837336D01*
X751702Y836287D01*
X753293Y835628D01*
X755000Y835404D01*
X756707Y835628D01*
X758298Y836287D01*
X759664Y837336D01*
X760713Y838702D01*
X761372Y840293D01*
X761596Y842000D01*
X761372Y843707D01*
X760713Y845298D01*
X759664Y846664D01*
X759119Y847083D01*
Y861835D01*
X760142Y862256D01*
X760389Y862294D01*
X761702Y861287D01*
X763293Y860628D01*
X765000Y860404D01*
X766707Y860628D01*
X768298Y861287D01*
X769664Y862336D01*
X770083Y862881D01*
X777000D01*
X778576Y863194D01*
X779913Y864087D01*
X792913Y877087D01*
X793806Y878424D01*
X794070Y879753D01*
X796528Y880771D01*
X798735Y882465D01*
X800428Y884672D01*
X801493Y887242D01*
X801856Y890000D01*
X801493Y892758D01*
X800428Y895328D01*
X798735Y897535D01*
X796528Y899229D01*
X793958Y900293D01*
X791200Y900656D01*
D02*
G37*
G36*
X801765Y925965D02*
X780635D01*
Y904835D01*
X801765D01*
Y913881D01*
X809294D01*
X811881Y911294D01*
Y885706D01*
X782294Y856119D01*
X773083D01*
X772664Y856664D01*
X771298Y857713D01*
X769707Y858372D01*
X768000Y858596D01*
X766293Y858372D01*
X764702Y857713D01*
X763336Y856664D01*
X762287Y855298D01*
X761628Y853707D01*
X761404Y852000D01*
X761628Y850293D01*
X762287Y848702D01*
X763336Y847336D01*
X764702Y846287D01*
X766293Y845628D01*
X768000Y845404D01*
X769707Y845628D01*
X771298Y846287D01*
X772664Y847336D01*
X773083Y847881D01*
X784000D01*
X785576Y848194D01*
X786913Y849087D01*
X818913Y881087D01*
X819806Y882424D01*
X820119Y884000D01*
Y913000D01*
X819806Y914576D01*
X818913Y915913D01*
X813913Y920913D01*
X812576Y921806D01*
X811000Y922119D01*
X801765D01*
Y925965D01*
D02*
G37*
G36*
X953000Y945119D02*
X545000D01*
X543424Y944806D01*
X542087Y943913D01*
X525967Y927792D01*
X524758Y928293D01*
X522000Y928656D01*
X519242Y928293D01*
X516672Y927228D01*
X514465Y925535D01*
X512771Y923328D01*
X511707Y920758D01*
X511344Y918000D01*
X511707Y915242D01*
X512771Y912672D01*
X514465Y910465D01*
X516672Y908772D01*
X519242Y907707D01*
X522000Y907344D01*
X524758Y907707D01*
X527328Y908772D01*
X529535Y910465D01*
X531228Y912672D01*
X532293Y915242D01*
X532656Y918000D01*
X532293Y920758D01*
X531792Y921967D01*
X546706Y936881D01*
X951294D01*
X969881Y918294D01*
Y851000D01*
X970194Y849424D01*
X971087Y848087D01*
X1004381Y814794D01*
Y814500D01*
X1004460Y814102D01*
Y803460D01*
X1023540D01*
Y818540D01*
X1011996D01*
X1011413Y819413D01*
X978119Y852706D01*
Y920000D01*
X977806Y921576D01*
X976913Y922913D01*
X955913Y943913D01*
X954576Y944806D01*
X953000Y945119D01*
D02*
G37*
G36*
X917270Y794429D02*
Y789270D01*
X922429D01*
X922372Y789707D01*
X921713Y791298D01*
X920664Y792664D01*
X919298Y793713D01*
X917707Y794372D01*
X917270Y794429D01*
D02*
G37*
G36*
X914730D02*
X914293Y794372D01*
X912702Y793713D01*
X911336Y792664D01*
X910287Y791298D01*
X909628Y789707D01*
X909571Y789270D01*
X914730D01*
Y794429D01*
D02*
G37*
G36*
X922429Y786730D02*
X917270D01*
Y781571D01*
X917707Y781628D01*
X919298Y782287D01*
X920664Y783336D01*
X921713Y784702D01*
X922372Y786293D01*
X922429Y786730D01*
D02*
G37*
G36*
X914730D02*
X909571D01*
X909628Y786293D01*
X910287Y784702D01*
X911336Y783336D01*
X912702Y782287D01*
X914293Y781628D01*
X914730Y781571D01*
Y786730D01*
D02*
G37*
G36*
X1006270Y738985D02*
Y727270D01*
X1017985D01*
X1017704Y729404D01*
X1016390Y732576D01*
X1014300Y735300D01*
X1011576Y737390D01*
X1008404Y738704D01*
X1006270Y738985D01*
D02*
G37*
G36*
X1003730Y738985D02*
X1001596Y738704D01*
X998424Y737390D01*
X995700Y735300D01*
X993610Y732576D01*
X992296Y729404D01*
X992015Y727270D01*
X1003730D01*
Y738985D01*
D02*
G37*
G36*
Y724730D02*
X992015D01*
X992296Y722596D01*
X993610Y719424D01*
X995700Y716700D01*
X998424Y714610D01*
X1001596Y713296D01*
X1003730Y713015D01*
Y724730D01*
D02*
G37*
G36*
X1017985D02*
X1006270D01*
Y713015D01*
X1008404Y713296D01*
X1011576Y714610D01*
X1014300Y716700D01*
X1016390Y719424D01*
X1017704Y722596D01*
X1017985Y724730D01*
D02*
G37*
G36*
X412579Y668557D02*
Y668548D01*
X349800D01*
X346526Y668117D01*
X343476Y666854D01*
X340856Y664844D01*
X340411Y664264D01*
X338967Y663665D01*
X337110Y662240D01*
X335685Y660383D01*
X334789Y658221D01*
X334483Y655900D01*
X334789Y653579D01*
X335685Y651417D01*
X337110Y649560D01*
X338967Y648135D01*
X340411Y647536D01*
X340856Y646956D01*
X343476Y644946D01*
X346526Y643683D01*
X349800Y643252D01*
X412579D01*
X412925Y643297D01*
X415903Y642905D01*
X419000Y641622D01*
X421383Y639794D01*
X421596Y639517D01*
X426330Y634782D01*
X427192Y633921D01*
X427192Y633920D01*
X427193Y633919D01*
X427211Y633902D01*
X427215Y633899D01*
X427217Y633896D01*
X427230Y633886D01*
X427231Y633887D01*
X427348Y633797D01*
X431099Y630593D01*
X435466Y627917D01*
X440198Y625957D01*
X445178Y624761D01*
X450141Y624371D01*
X450284Y624352D01*
X624763D01*
X627208Y622346D01*
X630255Y620717D01*
X633562Y619714D01*
X637000Y619375D01*
X640438Y619714D01*
X643745Y620717D01*
X646792Y622346D01*
X649237Y624352D01*
X894761D01*
X952056Y567056D01*
X954676Y565046D01*
X957726Y563783D01*
X961000Y563352D01*
X961000Y563352D01*
X1001460D01*
X1001596Y563296D01*
X1005000Y562848D01*
X1008404Y563296D01*
X1011576Y564610D01*
X1014300Y566700D01*
X1016390Y569424D01*
X1017704Y572596D01*
X1018152Y576000D01*
X1017704Y579404D01*
X1016390Y582576D01*
X1014300Y585300D01*
X1011576Y587390D01*
X1008404Y588704D01*
X1005000Y589152D01*
X1001596Y588704D01*
X1001460Y588648D01*
X966239D01*
X908944Y645944D01*
X906324Y647954D01*
X903274Y649217D01*
X900000Y649648D01*
X900000Y649648D01*
X649237D01*
X646792Y651655D01*
X643745Y653283D01*
X640438Y654286D01*
X637000Y654625D01*
X633562Y654286D01*
X630255Y653283D01*
X627208Y651655D01*
X624763Y649648D01*
X450284D01*
X450115Y649626D01*
X448370Y649856D01*
X446586Y650595D01*
X445203Y651656D01*
X445110Y651777D01*
X445092Y651795D01*
X445088Y651798D01*
X445086Y651802D01*
X439483Y657404D01*
X439490Y657411D01*
X434949Y661289D01*
X429857Y664409D01*
X424339Y666695D01*
X418532Y668089D01*
X412579Y668557D01*
D02*
G37*
G36*
X637000Y556625D02*
X633562Y556286D01*
X630255Y555283D01*
X627208Y553655D01*
X624763Y551648D01*
X453526Y551648D01*
X453526Y551648D01*
Y551648D01*
X453383Y551629D01*
X448420Y551239D01*
X445590Y550559D01*
X444771Y550452D01*
X444586Y550375D01*
X444361Y550282D01*
X443290Y550013D01*
X435357Y547175D01*
X427740Y543573D01*
X420513Y539241D01*
X413746Y534222D01*
X407503Y528564D01*
X401845Y522321D01*
X396826Y515553D01*
X392494Y508326D01*
X388892Y500710D01*
X386053Y492777D01*
X384006Y484604D01*
X382770Y476269D01*
X382359Y467901D01*
X382353Y467854D01*
X382352D01*
X382352Y466584D01*
X382352Y441819D01*
X382375Y441642D01*
X382144Y439889D01*
X381405Y438105D01*
X380230Y436573D01*
X379157Y435750D01*
X378090Y435146D01*
X378090D01*
X376936Y434649D01*
X374999Y433846D01*
X370743Y432824D01*
X366698Y432506D01*
X366379Y432548D01*
X350800D01*
X347526Y432117D01*
X344476Y430854D01*
X341856Y428844D01*
X341412Y428264D01*
X339967Y427665D01*
X338110Y426240D01*
X336685Y424383D01*
X335789Y422221D01*
X335483Y419900D01*
X335789Y417579D01*
X336685Y415417D01*
X338110Y413559D01*
X339967Y412135D01*
X341412Y411536D01*
X341856Y410956D01*
X344476Y408946D01*
X347033Y407887D01*
Y406513D01*
X344476Y405454D01*
X341856Y403444D01*
X341412Y402864D01*
X339967Y402265D01*
X338110Y400840D01*
X336685Y398983D01*
X335789Y396821D01*
X335483Y394500D01*
X335789Y392179D01*
X336685Y390017D01*
X338110Y388159D01*
X339967Y386735D01*
X341412Y386136D01*
X341856Y385556D01*
X344476Y383546D01*
X347526Y382283D01*
X350800Y381852D01*
X406979D01*
Y381843D01*
X412932Y382311D01*
X418739Y383705D01*
X424257Y385991D01*
X429348Y389111D01*
X433890Y392989D01*
X433883Y392996D01*
X449239Y408352D01*
X856000D01*
X856822Y408460D01*
X875540D01*
Y433540D01*
X856822D01*
X856000Y433648D01*
X657119D01*
Y440294D01*
X659706Y442881D01*
X879213D01*
X879287Y442702D01*
X880336Y441336D01*
X881702Y440287D01*
X883293Y439628D01*
X885000Y439404D01*
X886707Y439628D01*
X888298Y440287D01*
X889664Y441336D01*
X890713Y442702D01*
X891372Y444293D01*
X891596Y446000D01*
X891372Y447707D01*
X890713Y449298D01*
X889664Y450664D01*
X888298Y451713D01*
X886707Y452372D01*
X885000Y452596D01*
X883293Y452372D01*
X881702Y451713D01*
X881262Y451376D01*
X881257Y451376D01*
X879963Y451119D01*
X658000D01*
X656424Y450806D01*
X655087Y449913D01*
X650087Y444913D01*
X649194Y443576D01*
X648881Y442000D01*
Y433648D01*
X444000D01*
X444000Y433648D01*
X443178Y433540D01*
X431460D01*
Y426347D01*
X415996Y410883D01*
X415783Y410606D01*
X413400Y408778D01*
X410303Y407495D01*
X407325Y407103D01*
X406979Y407148D01*
X377046D01*
X376921Y408418D01*
X380130Y409057D01*
X386711Y411291D01*
X387573Y411716D01*
X388712Y412262D01*
X389818Y412720D01*
X389866Y412749D01*
X394186Y415396D01*
X398080Y418723D01*
X401407Y422617D01*
X404083Y426985D01*
X406043Y431717D01*
X407239Y436697D01*
X407632Y441700D01*
X407648Y441819D01*
X407648Y467809D01*
X407648Y467812D01*
X407648Y467816D01*
X407648Y467861D01*
X407595Y468266D01*
X407953Y474644D01*
X409092Y481348D01*
X410975Y487883D01*
X413577Y494165D01*
X416866Y500117D01*
X420802Y505663D01*
X425333Y510734D01*
X430404Y515265D01*
X435950Y519201D01*
X441902Y522490D01*
X448184Y525092D01*
X451534Y526057D01*
X451534Y526057D01*
Y526057D01*
X452742Y526293D01*
X453357Y526374D01*
X453526Y526352D01*
X624763Y526352D01*
X627208Y524346D01*
X630255Y522717D01*
X633562Y521714D01*
X637000Y521375D01*
X640438Y521714D01*
X643745Y522717D01*
X646792Y524346D01*
X649237Y526352D01*
X879761D01*
X939056Y467056D01*
X941676Y465046D01*
X944726Y463783D01*
X948000Y463352D01*
X991960D01*
Y462960D01*
X1018040D01*
Y489040D01*
X991960D01*
Y488648D01*
X953239D01*
X893944Y547944D01*
X891324Y549954D01*
X888274Y551217D01*
X885000Y551648D01*
X885000Y551648D01*
X649237D01*
X646792Y553655D01*
X643745Y555283D01*
X640438Y556286D01*
X637000Y556625D01*
D02*
G37*
G36*
X306350Y492367D02*
X301270D01*
Y484670D01*
X315149D01*
X315011Y485721D01*
X314115Y487883D01*
X312690Y489740D01*
X310833Y491165D01*
X308671Y492061D01*
X306350Y492367D01*
D02*
G37*
G36*
X298730D02*
X293650D01*
X291329Y492061D01*
X289167Y491165D01*
X287310Y489740D01*
X285885Y487883D01*
X284989Y485721D01*
X284851Y484670D01*
X298730D01*
Y492367D01*
D02*
G37*
G36*
X315149Y482130D02*
X301270D01*
Y474433D01*
X306350D01*
X308671Y474739D01*
X310833Y475635D01*
X312690Y477060D01*
X314115Y478917D01*
X315011Y481079D01*
X315149Y482130D01*
D02*
G37*
G36*
X298730D02*
X284851D01*
X284989Y481079D01*
X285885Y478917D01*
X287310Y477060D01*
X289167Y475635D01*
X291329Y474739D01*
X293650Y474433D01*
X298730D01*
Y482130D01*
D02*
G37*
G36*
X306350Y466967D02*
X293650D01*
X291329Y466661D01*
X289167Y465765D01*
X287310Y464340D01*
X285885Y462483D01*
X284989Y460321D01*
X284683Y458000D01*
X284989Y455679D01*
X285885Y453517D01*
X287310Y451660D01*
X289167Y450235D01*
X291329Y449339D01*
X293650Y449033D01*
X306350D01*
X308671Y449339D01*
X310833Y450235D01*
X312690Y451660D01*
X314115Y453517D01*
X315011Y455679D01*
X315317Y458000D01*
X315011Y460321D01*
X314115Y462483D01*
X312690Y464340D01*
X310833Y465765D01*
X308671Y466661D01*
X306350Y466967D01*
D02*
G37*
G36*
X357150Y479667D02*
X344450D01*
X342129Y479361D01*
X339967Y478465D01*
X338110Y477040D01*
X336685Y475183D01*
X335789Y473021D01*
X335483Y470700D01*
X335789Y468379D01*
X336685Y466217D01*
X338110Y464360D01*
X339967Y462935D01*
X342129Y462039D01*
X344450Y461733D01*
X346681D01*
Y454267D01*
X344450D01*
X342129Y453961D01*
X339967Y453065D01*
X338110Y451640D01*
X336685Y449783D01*
X335789Y447621D01*
X335483Y445300D01*
X335789Y442979D01*
X336685Y440817D01*
X338110Y438960D01*
X339967Y437535D01*
X342129Y436639D01*
X344450Y436333D01*
X357150D01*
X359471Y436639D01*
X361633Y437535D01*
X363490Y438960D01*
X364915Y440817D01*
X365811Y442979D01*
X366117Y445300D01*
X365811Y447621D01*
X364915Y449783D01*
X363490Y451640D01*
X361633Y453065D01*
X359471Y453961D01*
X357150Y454267D01*
X354919D01*
Y461733D01*
X357150D01*
X359471Y462039D01*
X361633Y462935D01*
X363490Y464360D01*
X364915Y466217D01*
X365811Y468379D01*
X366117Y470700D01*
X365811Y473021D01*
X364915Y475183D01*
X363490Y477040D01*
X361633Y478465D01*
X359471Y479361D01*
X357150Y479667D01*
D02*
G37*
G36*
X306350Y416167D02*
X293650D01*
X291329Y415861D01*
X289167Y414965D01*
X287310Y413540D01*
X285885Y411683D01*
X284989Y409521D01*
X284683Y407200D01*
X284989Y404879D01*
X285885Y402717D01*
X287310Y400859D01*
X289167Y399435D01*
X291329Y398539D01*
X293650Y398233D01*
X306350D01*
X308671Y398539D01*
X310833Y399435D01*
X312690Y400859D01*
X314115Y402717D01*
X315011Y404879D01*
X315317Y407200D01*
X315011Y409521D01*
X314115Y411683D01*
X312690Y413540D01*
X310833Y414965D01*
X308671Y415861D01*
X306350Y416167D01*
D02*
G37*
G36*
X674770Y323455D02*
Y315270D01*
X682955D01*
X682794Y316490D01*
X681833Y318811D01*
X680304Y320804D01*
X678311Y322333D01*
X675990Y323294D01*
X674770Y323455D01*
D02*
G37*
G36*
X891270D02*
Y315270D01*
X899455D01*
X899294Y316490D01*
X898333Y318811D01*
X896804Y320804D01*
X894811Y322333D01*
X892490Y323294D01*
X891270Y323455D01*
D02*
G37*
G36*
X458270D02*
Y315270D01*
X466455D01*
X466295Y316490D01*
X465333Y318811D01*
X463804Y320804D01*
X461811Y322333D01*
X459491Y323294D01*
X458270Y323455D01*
D02*
G37*
G36*
X672230Y323455D02*
X671010Y323294D01*
X668689Y322333D01*
X666696Y320804D01*
X665167Y318811D01*
X664205Y316490D01*
X664045Y315270D01*
X672230D01*
Y323455D01*
D02*
G37*
G36*
X455730D02*
X454510Y323294D01*
X452189Y322333D01*
X450196Y320804D01*
X448667Y318811D01*
X447706Y316490D01*
X447545Y315270D01*
X455730D01*
Y323455D01*
D02*
G37*
G36*
X888730D02*
X887510Y323294D01*
X885189Y322333D01*
X883196Y320804D01*
X881667Y318811D01*
X880705Y316490D01*
X880545Y315270D01*
X888730D01*
Y323455D01*
D02*
G37*
G36*
X783020D02*
Y315270D01*
X791205D01*
X791044Y316490D01*
X790083Y318811D01*
X788554Y320804D01*
X786561Y322333D01*
X784240Y323294D01*
X783020Y323455D01*
D02*
G37*
G36*
X566520D02*
Y315270D01*
X574705D01*
X574544Y316490D01*
X573583Y318811D01*
X572054Y320804D01*
X570061Y322333D01*
X567740Y323294D01*
X566520Y323455D01*
D02*
G37*
G36*
X780480Y323455D02*
X779259Y323294D01*
X776939Y322333D01*
X774946Y320804D01*
X773417Y318811D01*
X772456Y316490D01*
X772295Y315270D01*
X780480D01*
Y323455D01*
D02*
G37*
G36*
X563980D02*
X562760Y323294D01*
X560439Y322333D01*
X558446Y320804D01*
X556917Y318811D01*
X555956Y316490D01*
X555795Y315270D01*
X563980D01*
Y323455D01*
D02*
G37*
G36*
X899455Y312730D02*
X891270D01*
Y304545D01*
X892490Y304706D01*
X894811Y305667D01*
X896804Y307196D01*
X898333Y309189D01*
X899294Y311510D01*
X899455Y312730D01*
D02*
G37*
G36*
X682955D02*
X674770D01*
Y304545D01*
X675990Y304706D01*
X678311Y305667D01*
X680304Y307196D01*
X681833Y309189D01*
X682794Y311510D01*
X682955Y312730D01*
D02*
G37*
G36*
X466455D02*
X458270D01*
Y304545D01*
X459491Y304706D01*
X461811Y305667D01*
X463804Y307196D01*
X465333Y309189D01*
X466295Y311510D01*
X466455Y312730D01*
D02*
G37*
G36*
X780480Y312730D02*
X772295D01*
X772456Y311510D01*
X773417Y309189D01*
X774946Y307196D01*
X776939Y305667D01*
X779259Y304706D01*
X780480Y304545D01*
Y312730D01*
D02*
G37*
G36*
X563980D02*
X555795D01*
X555956Y311510D01*
X556917Y309189D01*
X558446Y307196D01*
X560439Y305667D01*
X562760Y304706D01*
X563980Y304545D01*
Y312730D01*
D02*
G37*
G36*
X791205D02*
X783020D01*
Y304545D01*
X784240Y304706D01*
X786561Y305667D01*
X788554Y307196D01*
X790083Y309189D01*
X791044Y311510D01*
X791205Y312730D01*
D02*
G37*
G36*
X574705D02*
X566520D01*
Y304545D01*
X567740Y304706D01*
X570061Y305667D01*
X572054Y307196D01*
X573583Y309189D01*
X574544Y311510D01*
X574705Y312730D01*
D02*
G37*
G36*
X672230Y312730D02*
X664045D01*
X664205Y311510D01*
X665167Y309189D01*
X666696Y307196D01*
X668689Y305667D01*
X671010Y304706D01*
X672230Y304545D01*
Y312730D01*
D02*
G37*
G36*
X455730D02*
X447545D01*
X447706Y311510D01*
X448667Y309189D01*
X450196Y307196D01*
X452189Y305667D01*
X454510Y304706D01*
X455730Y304545D01*
Y312730D01*
D02*
G37*
G36*
X888730D02*
X880545D01*
X880705Y311510D01*
X881667Y309189D01*
X883196Y307196D01*
X885189Y305667D01*
X887510Y304706D01*
X888730Y304545D01*
Y312730D01*
D02*
G37*
%LPD*%
D14*
X496000Y481000D02*
D03*
Y421000D02*
D03*
X811000Y481000D02*
D03*
Y421000D02*
D03*
X721000Y481000D02*
D03*
Y421000D02*
D03*
X631000Y481000D02*
D03*
Y421000D02*
D03*
X451000Y481000D02*
D03*
Y421000D02*
D03*
X541000Y481000D02*
D03*
Y421000D02*
D03*
X586000Y481000D02*
D03*
Y421000D02*
D03*
X676000Y481000D02*
D03*
Y421000D02*
D03*
X766000Y481000D02*
D03*
Y421000D02*
D03*
X856000Y481000D02*
D03*
Y421000D02*
D03*
X496000Y796000D02*
D03*
Y736000D02*
D03*
X811000Y796000D02*
D03*
Y736000D02*
D03*
X721000Y796000D02*
D03*
Y736000D02*
D03*
X631000Y796000D02*
D03*
Y736000D02*
D03*
X451230Y796000D02*
D03*
Y736000D02*
D03*
X541000Y796000D02*
D03*
Y736000D02*
D03*
X586000Y796000D02*
D03*
Y736000D02*
D03*
X676000Y796000D02*
D03*
Y736000D02*
D03*
X766000Y796000D02*
D03*
Y736000D02*
D03*
X856000Y796000D02*
D03*
Y736000D02*
D03*
D15*
X1014000Y811000D02*
D03*
Y791000D02*
D03*
D30*
X427956Y588000D02*
G03*
X420280Y586450I44J-20000D01*
G01*
X352857Y546900D02*
G03*
X374649Y555904I0J30875D01*
G01*
X420280Y586450D02*
G03*
X374730Y555984I54208J-130332D01*
G01*
X412422Y686712D02*
G03*
X420381Y686000I7959J44115D01*
G01*
X396000Y706390D02*
G03*
X412422Y686712I20000J-0D01*
G01*
X396000Y762900D02*
G03*
X376000Y782900I-20000J0D01*
G01*
X436161Y642840D02*
G03*
X450284Y637000I14124J14160D01*
G01*
X430540Y648460D02*
G03*
X412579Y655900I-17960J-17960D01*
G01*
X291400Y668600D02*
G03*
X266000Y643200I0J-25400D01*
G01*
X1036000Y651681D02*
G03*
X1021863Y670802I-20000J0D01*
G01*
X980000Y364000D02*
G03*
X1036000Y420000I0J56000D01*
G01*
X366379Y419900D02*
G03*
X383420Y423662I0J40476D01*
G01*
Y423662D02*
G03*
X395000Y441819I-8421J18141D01*
G01*
X406979Y394500D02*
G03*
X424939Y401940I0J25400D01*
G01*
X433512Y800861D02*
G03*
X415551Y808300I-17960J-17960D01*
G01*
X448045Y538234D02*
G03*
X395000Y467854I20168J-70380D01*
G01*
X453526Y539000D02*
G03*
X448045Y538234I0J-20000D01*
G01*
X266000Y435000D02*
G03*
X268400Y432600I2400J0D01*
G01*
X266000Y389400D02*
G03*
X291400Y364000I25400J0D01*
G01*
X374649Y555904D02*
X374730Y555984D01*
X427956Y588000D02*
X637000Y588000D01*
X420280Y586450D02*
X420280Y586450D01*
X951000Y526000D02*
X1005000D01*
X889000Y588000D02*
X951000Y526000D01*
X637000Y588000D02*
X889000D01*
X948000Y476000D02*
X1005000D01*
X885000Y539000D02*
X948000Y476000D01*
X961000Y576000D02*
X1005000D01*
X900000Y637000D02*
X961000Y576000D01*
X1004809Y626191D02*
X1005000Y626000D01*
X972809Y626191D02*
X1004809D01*
X637000Y686000D02*
X913000D01*
X972809Y626191D01*
X291400Y668600D02*
X299000D01*
X420381Y686000D02*
X637000Y686000D01*
X396000Y706390D02*
X396000Y762900D01*
X349800Y782900D02*
X376000D01*
X450284Y637000D02*
X637000D01*
X436142Y642858D02*
X436160Y642840D01*
X430540Y648460D02*
X436142Y642858D01*
X349800Y655900D02*
X412579D01*
X266000Y435000D02*
Y643200D01*
X1036000Y420000D02*
Y651681D01*
X1005000Y676000D02*
X1021863Y670802D01*
X266000Y389400D02*
Y435000D01*
X653000Y796000D02*
X676000D01*
X631000D02*
X653000D01*
Y421000D02*
X676000D01*
X631000D02*
X653000D01*
X350800Y419900D02*
X366379D01*
X637000Y539000D02*
X885000D01*
X1005000Y626000D02*
X1005000Y626000D01*
X637000Y637000D02*
X900000D01*
X890000Y364000D02*
X980000D01*
X781750D02*
X890000D01*
X451000Y421000D02*
X496000D01*
X444000D02*
X451000D01*
X350800Y394500D02*
X406979D01*
X451230Y796000D02*
X496000D01*
X433512Y800861D02*
X438372Y796000D01*
X349800Y808300D02*
X415551D01*
X350800Y546900D02*
X352812D01*
X352857Y546900D01*
X395000Y467809D02*
X395000Y441819D01*
X453526Y539000D02*
X637000Y539000D01*
X395000Y467854D02*
X395000Y467809D01*
X291400Y364000D02*
X457000D01*
X541000Y421000D02*
X586000D01*
X676000D02*
X721000D01*
X811000D02*
X856000D01*
X721000D02*
X766000D01*
X811000D01*
X424939Y401940D02*
X444000Y421000D01*
X496000D02*
X541000D01*
X586000D02*
X631000D01*
X541000Y796000D02*
X586000D01*
X676000D02*
X721000D01*
X811000D02*
X856000D01*
X721000D02*
X766000D01*
X811000D01*
X496000D02*
X541000D01*
X586000D02*
X631000D01*
X268400Y432600D02*
X300000D01*
X673500Y364000D02*
X781750D01*
X565250D02*
X673500D01*
X457000D02*
X565250D01*
D31*
X716593Y901959D02*
G03*
X716760Y901942I396J2974D01*
G01*
X716593Y901959D02*
G03*
X715245Y902063I-1593J-11959D01*
G01*
X715077Y902071D02*
G03*
X715245Y902063I229J2991D01*
G01*
X705574Y902798D02*
G03*
X702335Y899807I-239J-2991D01*
G01*
X699335Y848540D02*
G03*
X702335Y851540I0J3000D01*
G01*
X281879Y812879D02*
G03*
X281000Y810757I2121J-2121D01*
G01*
Y714242D02*
G03*
X281879Y712121I3000J0D01*
G01*
X726876Y900908D02*
G03*
X725669Y901260I-1425J-2640D01*
G01*
X739468Y893119D02*
G03*
X738010Y894898I-2872J-867D01*
G01*
X729118Y849118D02*
G03*
X730000Y851243I-2118J2124D01*
G01*
X715737Y836979D02*
G03*
X717858Y837858I0J3000D01*
G01*
X717879Y889121D02*
G03*
X715757Y890000I-2121J-2121D01*
G01*
X743000Y869128D02*
G03*
X742121Y871249I-3000J0D01*
G01*
Y838121D02*
G03*
X743000Y840243I-2121J2121D01*
G01*
X331879Y830879D02*
G03*
X331000Y828757I2121J-2121D01*
G01*
X331000Y760500D02*
G03*
X334000Y757500I3000J0D01*
G01*
X711121Y846830D02*
G03*
X712000Y848951I-2121J2121D01*
G01*
X794173Y918000D02*
G03*
X791200Y915400I0J-3000D01*
G01*
Y890000D02*
G03*
X790000Y887600I1800J-2400D01*
G01*
X316460Y618199D02*
G03*
X316460Y618238I-3000J0D01*
G01*
X315740Y694081D02*
G03*
X315718Y694670I-10390J-81D01*
G01*
X316523Y557486D02*
G03*
X316523Y561714I-10173J2114D01*
G01*
X313460Y534200D02*
G03*
X316460Y537200I0J3000D01*
G01*
X316523Y557486D02*
G03*
X316460Y556876I2937J-610D01*
G01*
Y562324D02*
G03*
X316523Y561714I3000J0D01*
G01*
X908518Y804670D02*
G03*
X908500Y804342I2982J-329D01*
G01*
X755000Y842000D02*
Y879200D01*
X765800Y890000D01*
X522000Y918000D02*
X545000Y941000D01*
X953000D01*
X334000Y757500D02*
X349800D01*
X716760Y901942D02*
X725669Y901260D01*
X325000Y735856D02*
X343306Y717550D01*
X347787Y706700D02*
X349800D01*
X343306Y711181D02*
X347787Y706700D01*
X343306Y711181D02*
Y717550D01*
X716593Y901959D02*
X716593Y901959D01*
X715245Y902063D02*
Y902063D01*
X705574Y902798D02*
X715077Y902071D01*
X702335Y899807D02*
X702335D01*
Y851540D02*
Y899807D01*
X317540Y848540D02*
X699335D01*
X281879Y812879D02*
X317540Y848540D01*
X281000Y714242D02*
Y810757D01*
X281879Y712121D02*
X281879D01*
X291621Y702379D01*
Y698481D02*
Y702379D01*
Y698481D02*
X296102Y694000D01*
X299000D01*
X726876Y900908D02*
X738010Y894898D01*
X739468Y893119D02*
X739470Y893111D01*
X740400Y890000D01*
X730000Y851243D02*
Y872000D01*
X717858Y837858D02*
X729118Y849118D01*
X327494Y836979D02*
X715737D01*
X325000Y834485D02*
X327494Y836979D01*
X325000Y735856D02*
Y834485D01*
X322000Y843000D02*
X707291D01*
X349800Y681300D02*
Y706700D01*
X715000Y890000D02*
X715757D01*
X717879Y889121D02*
X726960Y880040D01*
X733330D01*
X742121Y871249D01*
X743000Y840243D02*
Y869128D01*
X735439Y831439D02*
X742121Y838121D01*
X332439Y831439D02*
X735439D01*
X331879Y830879D02*
X332439Y831439D01*
X331000Y760500D02*
X331000Y828757D01*
X334000Y757500D02*
Y757500D01*
X712000Y848951D02*
Y873000D01*
X707291Y843000D02*
X711121Y846830D01*
X318000Y839000D02*
X322000Y843000D01*
X318000Y782850D02*
Y839000D01*
X305350Y770200D02*
X318000Y782850D01*
X299000Y770200D02*
X305350D01*
X765000Y867000D02*
X777000D01*
X768000Y852000D02*
X784000D01*
X794173Y918000D02*
X794173Y918000D01*
X777000Y867000D02*
X790000Y880000D01*
X784000Y852000D02*
X816000Y884000D01*
Y913000D01*
X811000Y918000D02*
X816000Y913000D01*
X794173Y918000D02*
X811000D01*
X790000Y880000D02*
Y887600D01*
X1012000Y811000D02*
X1014000D01*
X1008500Y814500D02*
X1012000Y811000D01*
X1008500Y814500D02*
Y816500D01*
X974000Y851000D02*
X1008500Y816500D01*
X974000Y851000D02*
Y920000D01*
X953000Y941000D02*
X974000Y920000D01*
X315740Y694081D02*
X316460Y618238D01*
X315000Y706000D02*
X315718Y694670D01*
X316460Y562324D02*
Y618199D01*
X299000Y744800D02*
Y770200D01*
X316460Y556876D02*
X316460Y537200D01*
X300000Y534200D02*
X313460D01*
X937000Y809000D02*
Y923000D01*
X1005000Y676000D02*
X1031000Y702000D01*
X907000Y806189D02*
Y809000D01*
Y806189D02*
X908518Y804670D01*
X908500Y797500D02*
Y804342D01*
X1014000Y791000D02*
X1016000D01*
X1019500Y787500D01*
Y785500D02*
Y787500D01*
Y785500D02*
X1031000Y774000D01*
Y702000D02*
Y774000D01*
X916000Y788000D02*
X937000Y809000D01*
X886000Y775000D02*
X908500Y797500D01*
X655000Y775000D02*
X886000D01*
X653000Y777000D02*
Y796000D01*
Y777000D02*
X655000Y775000D01*
X881000Y447000D02*
X881257Y447257D01*
X884043Y446957D02*
X885000Y446000D01*
X881558Y446957D02*
X884043D01*
X881257Y447257D02*
X881558Y446957D01*
X658000Y447000D02*
X881000D01*
X653000Y421000D02*
Y442000D01*
X658000Y447000D01*
X350800Y445300D02*
Y470700D01*
X300000Y508800D02*
Y534200D01*
D32*
X328000Y629842D02*
X340000Y617842D01*
X328000Y629842D02*
Y693000D01*
X340000Y600000D02*
Y617842D01*
X330000Y499929D02*
Y573958D01*
X349900Y497000D02*
X350800Y496100D01*
X332929Y497000D02*
X349900D01*
X330000Y499929D02*
X332929Y497000D01*
X330000Y573958D02*
X340000Y583958D01*
Y600000D01*
D33*
X299000Y719400D02*
D03*
X349800Y732100D02*
D03*
X299000Y744800D02*
D03*
X349800Y757500D02*
D03*
X299000Y770200D02*
D03*
X349800Y782900D02*
D03*
Y706700D02*
D03*
X299000Y694000D02*
D03*
X349800Y681300D02*
D03*
X299000Y668600D02*
D03*
X349800Y655900D02*
D03*
X299000Y795600D02*
D03*
X349800Y808300D02*
D03*
X299000Y643200D02*
D03*
X349800Y630500D02*
D03*
X300000Y483400D02*
D03*
X350800Y496100D02*
D03*
X300000Y508800D02*
D03*
X350800Y521500D02*
D03*
X300000Y534200D02*
D03*
X350800Y546900D02*
D03*
Y470700D02*
D03*
X300000Y458000D02*
D03*
X350800Y445300D02*
D03*
X300000Y432600D02*
D03*
X350800Y419900D02*
D03*
X300000Y559600D02*
D03*
X350800Y572300D02*
D03*
X300000Y407200D02*
D03*
X350800Y394500D02*
D03*
D34*
X457000Y364000D02*
D03*
X565250D02*
D03*
X673500D02*
D03*
X890000D02*
D03*
X781750D02*
D03*
D35*
X457000Y314000D02*
D03*
X565250D02*
D03*
X673500D02*
D03*
X890000D02*
D03*
X781750D02*
D03*
D36*
X522000Y892600D02*
D03*
Y918000D02*
D03*
X547400Y892600D02*
D03*
Y918000D02*
D03*
X572800Y892600D02*
D03*
X689600Y890000D02*
D03*
Y915400D02*
D03*
X715000Y890000D02*
D03*
Y915400D02*
D03*
X740400Y890000D02*
D03*
Y915400D02*
D03*
X765800Y890000D02*
D03*
Y915400D02*
D03*
X791200Y890000D02*
D03*
D37*
X572800Y918000D02*
D03*
X791200Y915400D02*
D03*
D38*
X1005000Y476000D02*
D03*
D39*
Y526000D02*
D03*
Y576000D02*
D03*
Y626000D02*
D03*
Y676000D02*
D03*
Y726000D02*
D03*
D40*
X755000Y842000D02*
D03*
X765000Y867000D02*
D03*
X768000Y852000D02*
D03*
X730000Y872000D02*
D03*
X712000Y873000D02*
D03*
X315000Y706000D02*
D03*
X937000Y923000D02*
D03*
X907000Y809000D02*
D03*
X916000Y788000D02*
D03*
X885000Y446000D02*
D03*
D41*
X922000Y458000D02*
D03*
Y420000D02*
D03*
X637000Y588000D02*
D03*
Y539000D02*
D03*
Y637000D02*
D03*
Y686000D02*
D03*
D42*
X328000Y693000D02*
D03*
X340000Y600000D02*
D03*
D43*
X292000Y291000D02*
D03*
Y918000D02*
D03*
X1008000D02*
D03*
Y291000D02*
D03*
X2096500Y-2839250D02*
D03*
X3089750D02*
D03*
Y-3899500D02*
D03*
X2096500D02*
D03*
M02*
