M48
;Layer_Color=9474304
;FILE_FORMAT=4:4
METRIC,LZ
;TYPE=PLATED
T1F00S00C0.3000
T2F00S00C0.5000
T3F00S00C0.6000
T4F00S00C0.6600
T5F00S00C0.7000
T6F00S00C0.7112
T7F00S00C0.7500
T8F00S00C0.8000
T9F00S00C0.9000
T10F00S00C1.0000
T11F00S00C1.0160
T12F00S00C1.1000
T13F00S00C1.2700
T14F00S00C1.4000
T15F00S00C1.8000
T16F00S00C2.0000
T17F00S00C3.5000
;TYPE=NON_PLATED
T18F00S00C3.4000
%
T01
X00034Y00144
X00113Y0012
X00174Y00048929
X00445Y00355
Y00523
X00374Y00506
Y00544
X00318Y0053
X0031998Y0049702
X0032Y00454
Y00415
X0032048Y0037552
X00374Y00389
Y00426
Y00464
X00187Y00471
X00179Y00489
X00167Y00437
X00189Y0041
X00187Y00386
X00152Y00368
X00102Y0045
X00096Y00463
X00052Y00438
X00241Y0054
X0024Y00261
X00133Y0019
X00035Y00439
X00042Y0057
X00118Y00559
X00168Y00568
X0016Y00579
X00112Y00645
X00122Y00657
X00122Y00667999
X0011127Y00668
X00122Y0068
X00133Y00679999
X00133Y00691
X00145
X001435Y0070925
X0014899Y0072399
X00181Y00726
X00177Y00736
X00213Y00749
X00248Y00738
X00266Y00775
X00201Y00799
X002Y00852
X00176Y00858
X0017Y00903
X0011Y00902
X00108Y00915
X0013125Y008485
X00124Y00776
X00097Y00763
X00084Y00794
X000725Y00791907
X00077Y0081
X00065Y00807711
X0006819Y0082181
X0005Y00825
X00053297Y00714297
X00053Y007
X001905Y00689521
X00241401Y006695
X00265169Y00670469
X00283Y00675
X00366Y00673
X003845Y006615
X00374Y00586
X00317Y00577
X00339Y00915
Y00934
X00286Y00942
X00273Y00936
X00246Y00866998
T02
X00095Y00941
X00257Y00878
X00273Y00879
X002855Y00871
X00343Y00831975
X00336Y00813
X00376Y0084086
X00412Y00791
X00425Y00789348
T03
X0064025Y00525
X00441Y00844
X0042975Y00883
X0042825Y0090525
X0042425Y0093825
X00522Y00917
X00546Y00915
X00573Y00912
Y00935
X00516Y00861
X0046925Y00846
X00729Y00947
X00697Y00963
X00667Y00975
X00592Y01035
X00568Y01039
X00543Y01025
X00478Y01082
X00454Y0098
X00801Y01055
T04
X000735Y000677
Y000931
Y001185
Y001439
X001585
Y001185
Y000931
Y000677
Y001693
Y001947
Y002201
Y002455
Y002709
Y002963
X000735
Y002709
Y002455
Y002201
Y001947
Y001693
T05
X00826Y00674
X00832Y00697
X00831Y00719667
Y00742
X00832Y00765
Y0079
Y0081
X00326Y00988
T06
X00137Y00121
X00185Y00337
X00319Y00343
X00362Y00332
X00053Y00543
X00054Y00591
X00331Y00622
Y00641
Y00661
X00301Y0086525
T07
X0005Y0088
X0007
X0009
T08
X00845Y00431
Y00481
X00873Y00548
X00534Y00414
X00545Y00382
X00525Y00347
X00546Y00323
X00538Y0021
X00562
X00586
X00612
X00373Y00234
X00381703Y00259297
X00321247Y00257753
X0031Y00204
X007182Y00854
X007436
X00769
X007944
X008452
X008706
X00873Y00598
X004921Y010166
Y01042
Y010674
X004159
Y01042
Y010166
T09
X001998Y00717
X002252
X002506
X00276
X003014
T10
X006136Y00857
X00639
X006644
T11
X0023Y00075
X002554
X002808
X003062
X003316
X00357
X003824
X003697Y001258
X003443
X003189
X002935
X002681
X002427
X002173
X003951
X004755
X005009
X005263
X005517
X005771
X006025
X006279
X006533
X006406Y00075
X006152
X005898
X005644
X00539
X005136
X004882
T12
X0085195Y01008
X0082655
X0080115
X0077575
X0076305Y009826
X0078845
X0081385
X0083925
X0063975Y009821
X0061435
X0058895
X0056355
X0057625Y010075
X0060165
X0062705
X0065245
T13
X005496Y00728
X00575
X006004
T14
X00981Y00146
Y00196
Y00246
Y00296
Y00346
Y00396
Y00455
Y00505
Y00564
Y00614
Y00664
Y00714
Y00764
Y00814
Y00864
Y00914
Y00964
T15
X00885Y01102
X0073
X006855Y011015
X005305
T16
X00873Y00223
X00804Y00225
X00643Y00331
T17
X000325Y000295
X0102575
Y0108975
X000325
T18
X0086465Y010715
X0075035
X0066515Y01071
X0055085
M30
