M48
;Layer_Color=9474304
;FILE_FORMAT=4:4
METRIC,LZ
;TYPE=PLATED
T1F00S00C0.7110
T2F00S00C0.7112
T3F00S00C0.8000
T4F00S00C1.0160
T5F00S00C1.0700
T6F00S00C1.4000
T7F00S00C3.5000
;TYPE=NON_PLATED
T8F00S00C3.1750
%
T01
X0062225Y0009475
X00642
X0066175
X006815
X0070125
X00721
X0074075
X007605
X0024025Y0016625
X0025725Y0033425
X0025675Y004815
X00056Y004035
X000625Y0025225
X0017125Y0015825
X0005075Y005445
X00055Y006995
X0022125Y0065425
X0082Y0066215
Y006366
Y0061105
Y005855
Y006877
Y0071325
Y007388
Y0076435
Y007899
Y0081545
Y00841
T02
X007495Y0022725
X0080325Y0022325
X0082275Y002235
X0079375Y003385
X0077525Y003355
X0073925Y00335
X0069025Y0033875
X0069113Y00488327
X0033975Y0048575
X0024613Y00444077
X0024888Y00413827
X0024613Y0029718
X0024888Y0026693
X003385Y00338
X0059525Y001635
X0011763Y0021168
X0017552Y0027118
X0015825Y003225
X0011763Y00358577
X0017552Y00418077
X0015625Y0047025
X0011763Y0050639
X0017552Y00564973
X00158Y006165
X0011775Y0065225
X0017564Y0071175
X0015825Y007645
X0024625Y0073775
X00249Y007075
X0024613Y00590973
X0024888Y00560723
X0033825Y00629
X00338Y0077975
X0069125Y00782
X00697Y0063125
X0075875Y006535
T03
X001285Y00819
Y00869
X002345
Y00819
T04
X0067384Y0022801
Y0025341
Y0027881
Y00374907
Y00400307
Y00425707
X0031494
Y00400307
Y00374907
Y0027881
Y0025341
Y0022801
Y00521803
Y00547203
Y00572603
X0031506Y0066858
Y0069398
Y0071938
X0067384Y007195
Y006941
Y006687
Y00572603
Y00547203
Y00521803
T05
X001652Y0004475
X001906
X00216
Y0007015
X001906
X001652
X002414
X002668
Y0004475
X002414
X0038925
X0041465
X0044005
Y0007015
X0041465
X0038925
T06
X00324Y0086925
X00374
X00424
X00474
X00524
X00574
T07
X0004Y0004
X0086
X0004Y0086
X0086
T08
X0085634Y0025341
Y00400307
X0013244
Y0025341
Y00547203
X0013256Y0069398
X0085634Y006941
Y00547203
M30
