M48
;Layer_Color=9474304
;FILE_FORMAT=4:4
METRIC,LZ
;TYPE=PLATED
T1F00S00C0.7110
T2F00S00C0.7112
T3F00S00C0.8000
T4F00S00C1.0160
T5F00S00C1.0700
T6F00S00C1.4000
T7F00S00C3.5000
;TYPE=NON_PLATED
T8F00S00C3.1750
%
T01
X0003975Y0003825
Y000638
X0030075Y00054
Y0007955
X00574952Y00035355
X0064825Y00021
X00672Y00021
X0069575Y00021
X00752Y0003975
X0080175Y0008875
X0062875Y000895
X0075575Y0018925
Y002148
X0077875Y0020525
Y002308
X00871Y00169
Y0014925
Y001295
Y0010975
X0086345Y00329
X00889
X008379
X008389Y0047375
X0086445
X0089
X005585Y004945
X0053295
X0053095Y00371
X005312Y003465
X0055675
X005565Y00371
X0048905Y0031875
X0047625Y0032725
X0046275Y00335
X004635Y0031875
X00438Y0036375
X0041245
X0025725Y0033425
X0025675Y004815
X002835Y001655
X005297Y0022675
X0055525
X0012025Y001708
Y0014525
X0008075Y001875
X000625Y0025225
X00056Y004035
X0005075Y005445
X00055Y006995
X0022125Y0065425
X0022425Y0084275
Y008683
X001605Y0085705
Y008315
X002805Y0084105
Y008155
X005615Y006608
Y0063525
X0055825Y005155
X005327
X0083835Y0062275
X008639
X0088945
X00877Y0078175
Y008073
X00839Y008495
Y0087505
X0077725Y0087355
Y00848
X0064025Y0085255
Y00827
T02
X0028Y0018625
X0024888Y0026693
X0024613Y0029718
X0024888Y00413827
X0024613Y00444077
X0033975Y0048575
X003385Y00338
X0015825Y003225
X0017552Y0027118
X0011763Y0021168
Y00358577
X0017552Y00418077
X0015625Y0047025
X0011763Y0050639
X0017552Y00564973
X00158Y006165
X0011775Y0065225
X0017564Y0071175
X000375Y0076925
X0024625Y0073775
X00249Y007075
X0024613Y00590973
X0024888Y00560723
X0033825Y00629
X00338Y0077975
X0069125Y00782
T03
X0008175Y00824
Y00874
X007055Y0086975
Y0081975
T04
X0067384Y0022801
Y0025341
Y0027881
Y00374907
Y00400307
Y00425707
X0031494
Y00400307
Y00374907
Y0027881
Y0025341
Y0022801
Y00521803
Y00547203
Y00572603
X0031506Y0066858
Y0069398
Y0071938
X0067384Y007195
Y006941
Y006687
Y00572603
Y00547203
Y00521803
T05
X001652Y0004475
Y0007015
X001906
Y0004475
X00216
Y0007015
X002414
Y0004475
X002668
Y0007015
X0038925
X0041465
X0044005
Y0004475
X0041465
X0038925
T06
X00324Y0086925
X00374
X00424
X00474
X00524
X00574
T07
X0080025Y001555
X0021025
Y0079025
X0080025
T08
X0085634Y0025341
Y00400307
X0013244
Y0025341
Y00547203
X0013256Y0069398
X0085634Y006941
Y00547203
M30
