G04*
G04 #@! TF.GenerationSoftware,Altium Limited,Altium Designer,20.0.13 (296)*
G04*
G04 Layer_Color=16711935*
%FSLAX44Y44*%
%MOMM*%
G71*
G01*
G75*
%ADD16C,1.8000*%
%ADD18R,1.6032X1.2032*%
%ADD19O,2.7432X1.4732*%
%ADD20R,1.5200X1.5200*%
%ADD21C,1.5200*%
%ADD22C,1.8082*%
%ADD23R,1.8082X1.8082*%
%ADD24R,2.3032X2.3032*%
%ADD25C,2.3032*%
%ADD26C,1.0032*%
%ADD27C,1.7032*%
%ADD28C,3.2032*%
%ADD29C,4.2032*%
%ADD47R,2.9972X4.0132*%
%ADD48R,1.2032X1.6032*%
%ADD49R,0.7932X1.4132*%
D16*
X360253Y394500D02*
G03*
X385000Y419247I0J24747D01*
G01*
Y546220D02*
G03*
X358920Y572300I-26080J0D01*
G01*
X362253Y630500D02*
G03*
X387000Y655247I0J24747D01*
G01*
Y782193D02*
G03*
X360893Y808300I-26107J0D01*
G01*
X300000Y407200D02*
X350800Y419900D01*
X300000Y559600D02*
X350800Y546900D01*
X299000Y643200D02*
X349800Y655900D01*
X299000Y795600D02*
X349800Y782900D01*
X348800Y394500D02*
X360253D01*
X385000Y419247D02*
Y546220D01*
X350800Y572300D02*
X358920D01*
X349800Y630500D02*
X362253D01*
X387000Y655247D02*
Y782193D01*
X349800Y808300D02*
X360893D01*
D18*
X956000Y861000D02*
D03*
Y841000D02*
D03*
X923000Y554000D02*
D03*
Y534000D02*
D03*
D19*
X299000Y719400D02*
D03*
X349800Y732100D02*
D03*
X299000Y744800D02*
D03*
X349800Y757500D02*
D03*
X299000Y770200D02*
D03*
X349800Y782900D02*
D03*
Y706700D02*
D03*
X299000Y694000D02*
D03*
X349800Y681300D02*
D03*
X299000Y668600D02*
D03*
X349800Y655900D02*
D03*
X299000Y795600D02*
D03*
X349800Y808300D02*
D03*
X299000Y643200D02*
D03*
X349800Y630500D02*
D03*
X300000Y483400D02*
D03*
X350800Y496100D02*
D03*
X300000Y508800D02*
D03*
X350800Y521500D02*
D03*
X300000Y534200D02*
D03*
X350800Y546900D02*
D03*
Y470700D02*
D03*
X300000Y458000D02*
D03*
X350800Y445300D02*
D03*
X300000Y432600D02*
D03*
X350800Y419900D02*
D03*
X300000Y559600D02*
D03*
X350800Y572300D02*
D03*
X300000Y407200D02*
D03*
X350800Y394500D02*
D03*
D20*
X457000Y364000D02*
D03*
X565250D02*
D03*
X673500D02*
D03*
X890000D02*
D03*
X781750D02*
D03*
D21*
X457000Y314000D02*
D03*
X565250D02*
D03*
X673500D02*
D03*
X890000D02*
D03*
X781750D02*
D03*
D22*
X522000Y892600D02*
D03*
Y918000D02*
D03*
X547400Y892600D02*
D03*
Y918000D02*
D03*
X572800Y892600D02*
D03*
X689600Y890000D02*
D03*
Y915400D02*
D03*
X715000Y890000D02*
D03*
Y915400D02*
D03*
X740400Y890000D02*
D03*
Y915400D02*
D03*
X765800Y890000D02*
D03*
Y915400D02*
D03*
X791200Y890000D02*
D03*
D23*
X572800Y918000D02*
D03*
X791200Y915400D02*
D03*
D24*
X1005000Y476000D02*
D03*
D25*
Y526000D02*
D03*
Y576000D02*
D03*
Y626000D02*
D03*
Y676000D02*
D03*
Y726000D02*
D03*
D26*
X731000Y870000D02*
D03*
X713000D02*
D03*
X316000Y733000D02*
D03*
X755000Y842000D02*
D03*
X765000Y867000D02*
D03*
X768000Y852000D02*
D03*
X937000Y923000D02*
D03*
X907000Y809000D02*
D03*
X916000Y788000D02*
D03*
X885000Y446000D02*
D03*
D27*
X328000Y693000D02*
D03*
X340000Y600000D02*
D03*
D28*
X922000Y458000D02*
D03*
Y420000D02*
D03*
X637000Y588000D02*
D03*
Y539000D02*
D03*
Y637000D02*
D03*
Y686000D02*
D03*
D29*
X292000Y291000D02*
D03*
Y918000D02*
D03*
X1008000D02*
D03*
Y291000D02*
D03*
D47*
X697315Y470000D02*
D03*
X768685D02*
D03*
X697315Y550000D02*
D03*
X768685D02*
D03*
X697315Y630000D02*
D03*
X768685D02*
D03*
X697315Y710000D02*
D03*
X768685D02*
D03*
X506315Y470000D02*
D03*
X577685D02*
D03*
X506315Y550000D02*
D03*
X577685D02*
D03*
X506315Y630000D02*
D03*
X577685D02*
D03*
X506315Y710000D02*
D03*
X577685D02*
D03*
D48*
X937000Y886000D02*
D03*
X917000D02*
D03*
X872000Y819000D02*
D03*
X892000D02*
D03*
Y839000D02*
D03*
X872000D02*
D03*
Y859000D02*
D03*
X892000D02*
D03*
X892000Y879000D02*
D03*
X872000D02*
D03*
X858000Y584000D02*
D03*
X838000D02*
D03*
Y564000D02*
D03*
X858000D02*
D03*
Y544000D02*
D03*
X838000D02*
D03*
Y524000D02*
D03*
X858000D02*
D03*
X903000Y579000D02*
D03*
X883000D02*
D03*
D49*
X936500Y839450D02*
D03*
X927000D02*
D03*
X917500D02*
D03*
Y864550D02*
D03*
X936500D02*
D03*
X903500Y532450D02*
D03*
X894000D02*
D03*
X884500D02*
D03*
Y557550D02*
D03*
X903500D02*
D03*
M02*
