G04*
G04 #@! TF.GenerationSoftware,Altium Limited,Altium Designer,20.0.13 (296)*
G04*
G04 Layer_Color=65535*
%FSLAX44Y44*%
%MOMM*%
G71*
G01*
G75*
%ADD10C,0.2500*%
%ADD11C,0.6096*%
%ADD12C,0.2000*%
%ADD13C,0.1500*%
%ADD14C,0.1270*%
%ADD15C,0.1524*%
%ADD16C,0.5000*%
%ADD17C,0.1520*%
%ADD18C,0.2540*%
D10*
X927500Y537500D02*
G03*
X927500Y537500I-1250J0D01*
G01*
X367700Y1025500D02*
G03*
X367700Y1025500I-1250J0D01*
G01*
X307450Y1027500D02*
G03*
X307450Y1027500I-1250J0D01*
G01*
X139500Y486750D02*
G03*
X139500Y486750I-1250J0D01*
G01*
X808000Y874950D02*
G03*
X808000Y874950I-1250J0D01*
G01*
X257500Y826750D02*
G03*
X257500Y826750I-1250J0D01*
G01*
X220500Y879500D02*
G03*
X220500Y879500I-1250J0D01*
G01*
X407750Y655500D02*
G03*
X407750Y655500I-1250J0D01*
G01*
X423750Y597500D02*
G03*
X423750Y597500I-1250J0D01*
G01*
X413250Y558750D02*
G03*
X413250Y558750I-1250J0D01*
G01*
X412750Y525750D02*
G03*
X412750Y525750I-1250J0D01*
G01*
X447750Y447700D02*
G03*
X447750Y447700I-1250J0D01*
G01*
X244250Y456250D02*
G03*
X244250Y456250I-1250J0D01*
G01*
X162250Y456750D02*
G03*
X162250Y456750I-1250J0D01*
G01*
X12550Y968950D02*
Y972550D01*
X26950Y968950D02*
Y972550D01*
D11*
X919162Y821250D02*
G03*
X919162Y821250I-3162J0D01*
G01*
X944662Y611750D02*
G03*
X944662Y611750I-3162J0D01*
G01*
D12*
X38750Y707000D02*
G03*
X38750Y707000I-1000J0D01*
G01*
X434300Y838000D02*
G03*
X434300Y838000I-1000J0D01*
G01*
X288250Y428400D02*
G03*
X288250Y428400I-1000J0D01*
G01*
X163300Y134200D02*
G03*
X163300Y134200I-1000J0D01*
G01*
X950750Y708500D02*
G03*
X950750Y708500I-50000J0D01*
G01*
X690750Y662250D02*
G03*
X690750Y662250I-50000J0D01*
G01*
X669000Y117000D02*
G03*
X669000Y117000I-1000J0D01*
G01*
Y154500D02*
G03*
X669000Y154500I-1000J0D01*
G01*
Y191750D02*
G03*
X669000Y191750I-1000J0D01*
G01*
X225500Y271950D02*
G03*
X225500Y271950I-1000J0D01*
G01*
X263000D02*
G03*
X263000Y271950I-1000J0D01*
G01*
X300250D02*
G03*
X300250Y271950I-1000J0D01*
G01*
X337750D02*
G03*
X337750Y271950I-1000J0D01*
G01*
X375250D02*
G03*
X375250Y271950I-1000J0D01*
G01*
X414750D02*
G03*
X414750Y271950I-1000J0D01*
G01*
X490000D02*
G03*
X490000Y271950I-1000J0D01*
G01*
X452500D02*
G03*
X452500Y271950I-1000J0D01*
G01*
X126250Y819250D02*
G03*
X126250Y819250I-1000J0D01*
G01*
X514150Y1118650D02*
G03*
X514150Y1118650I-1000J0D01*
G01*
X171850Y641750D02*
G03*
X171850Y641750I-1000J0D01*
G01*
X953450Y975750D02*
G03*
X953450Y975750I-1000J0D01*
G01*
X965500Y703750D02*
G03*
X965500Y703750I-1000J0D01*
G01*
Y94750D02*
G03*
X965500Y94750I-1000J0D01*
G01*
X262200Y1015750D02*
G03*
X262200Y1015750I-1000J0D01*
G01*
X747100Y1019750D02*
G03*
X747100Y1019750I-1000J0D01*
G01*
X946600D02*
G03*
X946600Y1019750I-1000J0D01*
G01*
X714800Y208200D02*
G03*
X714800Y208200I-1000J0D01*
G01*
X232500Y104550D02*
G03*
X232500Y104550I-1000J0D01*
G01*
X415750Y397150D02*
G03*
X415750Y397150I-1000J0D01*
G01*
X452850Y104550D02*
G03*
X452850Y104550I-1000J0D01*
G01*
X303050Y899750D02*
X328450D01*
Y772750D02*
Y899750D01*
X303050Y772750D02*
Y899750D01*
Y772750D02*
X328450D01*
X933500Y488500D02*
Y511000D01*
X829500D02*
X933500D01*
X829500Y488500D02*
Y511000D01*
X838500Y708500D02*
X845500D01*
X842000Y705000D02*
Y712000D01*
X25500Y620250D02*
X136500D01*
X25500Y570250D02*
X136500D01*
Y603750D02*
Y620250D01*
Y570250D02*
Y586750D01*
X25500Y570250D02*
Y586750D01*
Y603750D02*
Y620250D01*
X578500Y662250D02*
X585500D01*
X582000Y658750D02*
Y665750D01*
X419000Y1039000D02*
Y1059000D01*
X369000Y1039000D02*
Y1059000D01*
X419000D01*
X369000Y1039000D02*
X419000D01*
X358750Y1042500D02*
Y1060500D01*
X308750Y1042500D02*
Y1060500D01*
X358750D01*
X308750Y1042500D02*
X358750D01*
X124250Y493250D02*
X152250D01*
X124250Y493250D02*
Y521250D01*
X152250D01*
X152250Y493250D02*
Y521250D01*
X407350Y940800D02*
Y966200D01*
X331150Y940800D02*
Y966200D01*
X407350D01*
X331150Y940800D02*
X407350D01*
X70250Y1065500D02*
X80250D01*
X70250D02*
Y1095500D01*
X141250Y1065500D02*
X150250D01*
Y1095500D01*
X821750Y772000D02*
X839750D01*
X821750Y872000D02*
X839750D01*
Y772000D02*
Y872000D01*
X821750Y772000D02*
Y872000D01*
X26250Y1017000D02*
Y1025000D01*
X35250D01*
X26250Y995000D02*
Y1003000D01*
Y995000D02*
X35250D01*
X242250Y820250D02*
X270250D01*
X270250Y792250D02*
Y820250D01*
X242250Y792250D02*
X270250D01*
X242250Y792250D02*
Y820250D01*
X205250Y873000D02*
X233250D01*
X233250Y845000D02*
Y873000D01*
X205250Y845000D02*
X233250D01*
X205250Y845000D02*
Y873000D01*
X392500Y649000D02*
X420500D01*
X420500Y621000D02*
Y649000D01*
X392500Y621000D02*
X420500D01*
X392500Y621000D02*
Y649000D01*
X429000Y583500D02*
Y611500D01*
X429000Y611500D02*
X457000D01*
Y583500D02*
Y611500D01*
X429000Y583500D02*
X457000D01*
X418500Y544750D02*
Y572750D01*
X418500Y572750D02*
X446500D01*
Y544750D02*
Y572750D01*
X418500Y544750D02*
X446500D01*
X505000Y630100D02*
Y655550D01*
X479250Y630100D02*
X505000D01*
X479250D02*
Y655550D01*
X479550Y706350D02*
Y731750D01*
X504950D01*
Y706350D02*
Y731750D01*
X418000Y511750D02*
Y539750D01*
X418000Y539750D02*
X446000D01*
Y511750D02*
Y539750D01*
X418000Y511750D02*
X446000D01*
X413500Y500250D02*
X431500D01*
X413500Y450250D02*
X431500D01*
X413500D02*
Y500250D01*
X431500Y450250D02*
Y500250D01*
X563800Y97500D02*
X589200D01*
X563800Y21300D02*
X589200D01*
X563800D02*
Y97500D01*
X589200Y21300D02*
Y97500D01*
X519800D02*
X545200D01*
X519800Y21300D02*
X545200D01*
X519800D02*
Y97500D01*
X545200Y21300D02*
Y97500D01*
X236500Y442250D02*
Y470250D01*
X208500Y442250D02*
X236500D01*
X208500D02*
Y470250D01*
X208500Y470250D02*
X236500D01*
X147000Y450250D02*
X175000D01*
X175000Y422250D02*
Y450250D01*
X147000Y422250D02*
X175000D01*
X147000Y422250D02*
Y450250D01*
X630500Y501250D02*
Y517250D01*
X646500Y501250D02*
Y517250D01*
X204750Y128250D02*
X220750D01*
X204750Y144250D02*
X220750D01*
D13*
X302262Y1088954D02*
G03*
X286350Y1088850I-7877J-12168D01*
G01*
X286238Y1057845D02*
G03*
X302150Y1057950I7877J12168D01*
G01*
X45954Y628237D02*
G03*
X45850Y644150I-12168J7877D01*
G01*
X14845Y644262D02*
G03*
X14950Y628350I12168J-7877D01*
G01*
X45954Y665488D02*
G03*
X45850Y681400I-12168J7877D01*
G01*
X14845Y681513D02*
G03*
X14950Y665600I12168J-7877D01*
G01*
X823546Y334263D02*
G03*
X823650Y318350I12168J-7877D01*
G01*
X854655Y318237D02*
G03*
X854550Y334150I-12168J7877D01*
G01*
X753204Y298738D02*
G03*
X753100Y314650I-12168J7877D01*
G01*
X722095Y314762D02*
G03*
X722200Y298850I12168J-7877D01*
G01*
X790204Y230987D02*
G03*
X790100Y246900I-12168J7877D01*
G01*
X759096Y247013D02*
G03*
X759200Y231100I12168J-7877D01*
G01*
X421954Y429487D02*
G03*
X421850Y445400I-12168J7877D01*
G01*
X390845Y445513D02*
G03*
X390950Y429600I12168J-7877D01*
G01*
X193762Y496455D02*
G03*
X177850Y496350I-7877J-12168D01*
G01*
X177738Y465345D02*
G03*
X193650Y465450I7877J12168D01*
G01*
X321296Y491763D02*
G03*
X321400Y475850I12168J-7877D01*
G01*
X352405Y475737D02*
G03*
X352300Y491650I-12168J7877D01*
G01*
X195763Y697704D02*
G03*
X179850Y697600I-7877J-12168D01*
G01*
X179737Y666595D02*
G03*
X195650Y666700I7877J12168D01*
G01*
X111205Y528988D02*
G03*
X111100Y544900I-12168J7877D01*
G01*
X80095Y545013D02*
G03*
X80200Y529100I12168J-7877D01*
G01*
X356237Y645045D02*
G03*
X372150Y645150I7877J12168D01*
G01*
X372262Y676155D02*
G03*
X356350Y676050I-7877J-12168D01*
G01*
X339000Y879500D02*
X344750D01*
X339000D02*
Y885000D01*
X344750D01*
Y879500D02*
Y885000D01*
X352000Y864250D02*
Y900250D01*
X332000Y864250D02*
X352000D01*
X332000Y900250D02*
X352000D01*
X332000Y864250D02*
Y900250D01*
X291550Y1074650D02*
X296850D01*
X291550Y1071850D02*
X296850D01*
X286250Y1058000D02*
Y1088750D01*
X302250Y1058000D02*
Y1088750D01*
X282250Y1054500D02*
Y1090500D01*
X262250Y1054500D02*
X282250D01*
X262250Y1090500D02*
X282250D01*
X262250Y1054500D02*
Y1090500D01*
X269500Y1069750D02*
Y1075250D01*
Y1069750D02*
X275250D01*
Y1075250D01*
X269500D02*
X275250D01*
X280250Y1014750D02*
Y1050750D01*
X300250D01*
X280250Y1014750D02*
X300250D01*
Y1050750D01*
X293000Y1030000D02*
Y1035500D01*
X287250D02*
X293000D01*
X287250Y1030000D02*
Y1035500D01*
Y1030000D02*
X293000D01*
X516750Y774500D02*
Y810500D01*
X536750D01*
X516750Y774500D02*
X536750D01*
Y810500D01*
X529500Y789750D02*
Y795250D01*
X523750D02*
X529500D01*
X523750Y789750D02*
Y795250D01*
Y789750D02*
X529500D01*
X512250Y774500D02*
Y810500D01*
X492250Y774500D02*
X512250D01*
X492250Y810500D02*
X512250D01*
X492250Y774500D02*
Y810500D01*
X499500Y789750D02*
Y795250D01*
Y789750D02*
X505250D01*
Y795250D01*
X499500D02*
X505250D01*
X452500Y774500D02*
Y810500D01*
X472500D01*
X452500Y774500D02*
X472500D01*
Y810500D01*
X465250Y789750D02*
Y795250D01*
X459500D02*
X465250D01*
X459500Y789750D02*
Y795250D01*
Y789750D02*
X465250D01*
X427500Y774500D02*
Y810500D01*
X447500D01*
X427500Y774500D02*
X447500D01*
Y810500D01*
X440250Y789750D02*
Y795250D01*
X434500D02*
X440250D01*
X434500Y789750D02*
Y795250D01*
Y789750D02*
X440250D01*
X589000Y725500D02*
Y761500D01*
X609000D01*
X589000Y725500D02*
X609000D01*
Y761500D01*
X601750Y740750D02*
Y746250D01*
X596000D02*
X601750D01*
X596000Y740750D02*
Y746250D01*
Y740750D02*
X601750D01*
X638250Y725500D02*
Y761500D01*
X618250Y725500D02*
X638250D01*
X618250Y761500D02*
X638250D01*
X618250Y725500D02*
Y761500D01*
X625500Y740750D02*
Y746250D01*
Y740750D02*
X631250D01*
Y746250D01*
X625500D02*
X631250D01*
X589000Y839750D02*
Y875750D01*
X609000D01*
X589000Y839750D02*
X609000D01*
Y875750D01*
X601750Y855000D02*
Y860500D01*
X596000D02*
X601750D01*
X596000Y855000D02*
Y860500D01*
Y855000D02*
X601750D01*
X589000Y782625D02*
Y818625D01*
X609000D01*
X589000Y782625D02*
X609000D01*
Y818625D01*
X601750Y797875D02*
Y803375D01*
X596000D02*
X601750D01*
X596000Y797875D02*
Y803375D01*
Y797875D02*
X601750D01*
X638250Y782625D02*
Y818625D01*
X618250Y782625D02*
X638250D01*
X618250Y818625D02*
X638250D01*
X618250Y782625D02*
Y818625D01*
X625500Y797875D02*
Y803375D01*
Y797875D02*
X631250D01*
Y803375D01*
X625500D02*
X631250D01*
X31650Y633650D02*
Y638950D01*
X28850Y633650D02*
Y638950D01*
X15000Y644250D02*
X45750D01*
X15000Y628250D02*
X45750D01*
X31650Y670900D02*
Y676200D01*
X28850Y670900D02*
Y676200D01*
X15000Y681500D02*
X45750D01*
X15000Y665500D02*
X45750D01*
X184500Y412250D02*
X220500D01*
X184500D02*
Y432250D01*
X220500Y412250D02*
Y432250D01*
X184500D02*
X220500D01*
X199750Y425000D02*
X205250D01*
X199750Y419250D02*
Y425000D01*
Y419250D02*
X205250D01*
Y425000D01*
X199750Y328500D02*
Y364500D01*
X219750D01*
X199750Y328500D02*
X219750D01*
Y364500D01*
X212500Y343750D02*
Y349250D01*
X206750D02*
X212500D01*
X206750Y343750D02*
Y349250D01*
Y343750D02*
X212500D01*
X684000Y373720D02*
X720000D01*
X684000D02*
Y393720D01*
X720000Y373720D02*
Y393720D01*
X684000D02*
X720000D01*
X699250Y386470D02*
X704750D01*
X699250Y380720D02*
Y386470D01*
Y380720D02*
X704750D01*
Y386470D01*
X682500Y425000D02*
X718500D01*
X682500D02*
Y445000D01*
X718500Y425000D02*
Y445000D01*
X682500D02*
X718500D01*
X697750Y437750D02*
X703250D01*
X697750Y432000D02*
Y437750D01*
Y432000D02*
X703250D01*
Y437750D01*
X682750Y399360D02*
X718750D01*
X682750D02*
Y419360D01*
X718750Y399360D02*
Y419360D01*
X682750D02*
X718750D01*
X698000Y412110D02*
X703500D01*
X698000Y406360D02*
Y412110D01*
Y406360D02*
X703500D01*
Y412110D01*
X841250Y357500D02*
X877250D01*
Y337500D02*
Y357500D01*
X841250Y337500D02*
Y357500D01*
Y337500D02*
X877250D01*
X856500Y344750D02*
X862000D01*
Y350500D01*
X856500D02*
X862000D01*
X856500Y344750D02*
Y350500D01*
X837850Y323550D02*
Y328850D01*
X840650Y323550D02*
Y328850D01*
X823750Y318250D02*
X854500D01*
X823750Y334250D02*
X854500D01*
X719750Y337500D02*
X755750D01*
Y317500D02*
Y337500D01*
X719750Y317500D02*
Y337500D01*
Y317500D02*
X755750D01*
X735000Y324750D02*
X740500D01*
Y330500D01*
X735000D02*
X740500D01*
X735000Y324750D02*
Y330500D01*
X738900Y304150D02*
Y309450D01*
X736100Y304150D02*
Y309450D01*
X722250Y314750D02*
X753000D01*
X722250Y298750D02*
X753000D01*
X756750Y269000D02*
X792750D01*
Y249000D02*
Y269000D01*
X756750Y249000D02*
Y269000D01*
Y249000D02*
X792750D01*
X772000Y256250D02*
X777500D01*
Y262000D01*
X772000D02*
X777500D01*
X772000Y256250D02*
Y262000D01*
X775900Y236400D02*
Y241700D01*
X773100Y236400D02*
Y241700D01*
X759250Y247000D02*
X790000D01*
X759250Y231000D02*
X790000D01*
X880750Y68500D02*
X916750D01*
X880750D02*
Y88500D01*
X916750Y68500D02*
Y88500D01*
X880750D02*
X916750D01*
X896000Y81250D02*
X901500D01*
X896000Y75500D02*
Y81250D01*
Y75500D02*
X901500D01*
Y81250D01*
X880750Y96500D02*
X916750D01*
X880750D02*
Y116500D01*
X916750Y96500D02*
Y116500D01*
X880750D02*
X916750D01*
X896000Y109250D02*
X901500D01*
X896000Y103500D02*
Y109250D01*
Y103500D02*
X901500D01*
Y109250D01*
X880750Y125750D02*
X916750D01*
X880750D02*
Y145750D01*
X916750Y125750D02*
Y145750D01*
X880750D02*
X916750D01*
X896000Y138500D02*
X901500D01*
X896000Y132750D02*
Y138500D01*
Y132750D02*
X901500D01*
Y138500D01*
X881000Y153500D02*
X917000D01*
X881000D02*
Y173500D01*
X917000Y153500D02*
Y173500D01*
X881000D02*
X917000D01*
X896250Y166250D02*
X901750D01*
X896250Y160500D02*
Y166250D01*
Y160500D02*
X901750D01*
Y166250D01*
X881000Y210500D02*
X917000D01*
X881000D02*
Y230500D01*
X917000Y210500D02*
Y230500D01*
X881000D02*
X917000D01*
X896250Y223250D02*
X901750D01*
X896250Y217500D02*
Y223250D01*
Y217500D02*
X901750D01*
Y223250D01*
X879750Y182500D02*
X915750D01*
X879750D02*
Y202500D01*
X915750Y182500D02*
Y202500D01*
X879750D02*
X915750D01*
X895000Y195250D02*
X900500D01*
X895000Y189500D02*
Y195250D01*
Y189500D02*
X900500D01*
Y195250D01*
X407650Y434900D02*
Y440200D01*
X404850Y434900D02*
Y440200D01*
X391000Y445500D02*
X421750D01*
X391000Y429500D02*
X421750D01*
X477750Y194000D02*
X513750D01*
X477750D02*
Y214000D01*
X513750Y194000D02*
Y214000D01*
X477750D02*
X513750D01*
X493000Y206750D02*
X498500D01*
X493000Y201000D02*
Y206750D01*
Y201000D02*
X498500D01*
Y206750D01*
X477250Y167000D02*
X513250D01*
X477250D02*
Y187000D01*
X513250Y167000D02*
Y187000D01*
X477250D02*
X513250D01*
X492500Y179750D02*
X498000D01*
X492500Y174000D02*
Y179750D01*
Y174000D02*
X498000D01*
Y179750D01*
X89250Y997000D02*
Y1033000D01*
X109250D01*
X89250Y997000D02*
X109250D01*
Y1033000D01*
X102000Y1012250D02*
Y1017750D01*
X96250D02*
X102000D01*
X96250Y1012250D02*
Y1017750D01*
Y1012250D02*
X102000D01*
X55000Y993000D02*
Y1029000D01*
X75000D01*
X55000Y993000D02*
X75000D01*
Y1029000D01*
X67750Y1008250D02*
Y1013750D01*
X62000D02*
X67750D01*
X62000Y1008250D02*
Y1013750D01*
Y1008250D02*
X67750D01*
X55000Y953500D02*
Y989500D01*
X75000D01*
X55000Y953500D02*
X75000D01*
Y989500D01*
X67750Y968750D02*
Y974250D01*
X62000D02*
X67750D01*
X62000Y968750D02*
Y974250D01*
Y968750D02*
X67750D01*
X32250Y953750D02*
Y989750D01*
X52250D01*
X32250Y953750D02*
X52250D01*
Y989750D01*
X45000Y969000D02*
Y974500D01*
X39250D02*
X45000D01*
X39250Y969000D02*
Y974500D01*
Y969000D02*
X45000D01*
X183050Y482150D02*
X188350D01*
X183050Y479350D02*
X188350D01*
X177750Y465500D02*
Y496250D01*
X193750Y465500D02*
Y496250D01*
X335600Y481050D02*
Y486350D01*
X338400Y481050D02*
Y486350D01*
X321500Y475750D02*
X352250D01*
X321500Y491750D02*
X352250D01*
X185050Y683400D02*
X190350D01*
X185050Y680600D02*
X190350D01*
X179750Y666750D02*
Y697500D01*
X195750Y666750D02*
Y697500D01*
X9500Y511000D02*
X45500D01*
X9500Y491000D02*
Y511000D01*
X45500Y491000D02*
Y511000D01*
X9500Y491000D02*
X45500D01*
X24750Y498250D02*
X30250D01*
X24750D02*
Y504000D01*
X30250D01*
Y498250D02*
Y504000D01*
X9500Y531000D02*
X45500D01*
X9500Y511000D02*
Y531000D01*
X45500Y511000D02*
Y531000D01*
X9500Y511000D02*
X45500D01*
X24750Y518250D02*
X30250D01*
X24750D02*
Y524000D01*
X30250D01*
Y518250D02*
Y524000D01*
X9500Y551250D02*
X45500D01*
X9500Y531250D02*
Y551250D01*
X45500Y531250D02*
Y551250D01*
X9500Y531250D02*
X45500D01*
X24750Y538500D02*
X30250D01*
X24750D02*
Y544250D01*
X30250D01*
Y538500D02*
Y544250D01*
X9500Y490750D02*
X45500D01*
X9500Y470750D02*
Y490750D01*
X45500Y470750D02*
Y490750D01*
X9500Y470750D02*
X45500D01*
X24750Y478000D02*
X30250D01*
X24750D02*
Y483750D01*
X30250D01*
Y478000D02*
Y483750D01*
X116750Y527500D02*
X152750D01*
X116750D02*
Y547500D01*
X152750Y527500D02*
Y547500D01*
X116750D02*
X152750D01*
X132000Y540250D02*
X137500D01*
X132000Y534500D02*
Y540250D01*
Y534500D02*
X137500D01*
Y540250D01*
X96900Y534400D02*
Y539700D01*
X94100Y534400D02*
Y539700D01*
X80250Y545000D02*
X111000D01*
X80250Y529000D02*
X111000D01*
X775750Y513750D02*
Y549750D01*
X795750D01*
X775750Y513750D02*
X795750D01*
Y549750D01*
X788500Y529000D02*
Y534500D01*
X782750D02*
X788500D01*
X782750Y529000D02*
Y534500D01*
Y529000D02*
X788500D01*
X88000Y61000D02*
X124000D01*
Y41000D02*
Y61000D01*
X88000Y41000D02*
Y61000D01*
Y41000D02*
X124000D01*
X103250Y48250D02*
X108750D01*
Y54000D01*
X103250D02*
X108750D01*
X103250Y48250D02*
Y54000D01*
X819000Y490750D02*
Y526750D01*
X799000Y490750D02*
X819000D01*
X799000Y526750D02*
X819000D01*
X799000Y490750D02*
Y526750D01*
X806250Y506000D02*
Y511500D01*
Y506000D02*
X812000D01*
Y511500D01*
X806250D02*
X812000D01*
X118250Y997000D02*
Y1033000D01*
X138250D01*
X118250Y997000D02*
X138250D01*
Y1033000D01*
X131000Y1012250D02*
Y1017750D01*
X125250D02*
X131000D01*
X125250Y1012250D02*
Y1017750D01*
Y1012250D02*
X131000D01*
X638250Y839750D02*
Y875750D01*
X618250Y839750D02*
X638250D01*
X618250Y875750D02*
X638250D01*
X618250Y839750D02*
Y875750D01*
X625500Y855000D02*
Y860500D01*
Y855000D02*
X631250D01*
Y860500D01*
X625500D02*
X631250D01*
X159000Y703000D02*
X195000D01*
X159000D02*
Y723000D01*
X195000Y703000D02*
Y723000D01*
X159000D02*
X195000D01*
X174250Y715750D02*
X179750D01*
X174250Y710000D02*
Y715750D01*
Y710000D02*
X179750D01*
Y715750D01*
X64250Y720500D02*
X100250D01*
X64250D02*
Y740500D01*
X100250Y720500D02*
Y740500D01*
X64250D02*
X100250D01*
X79500Y733250D02*
X85000D01*
X79500Y727500D02*
Y733250D01*
Y727500D02*
X85000D01*
Y733250D01*
X361650Y659350D02*
X366950D01*
X361650Y662150D02*
X366950D01*
X372250Y645250D02*
Y676000D01*
X356250Y645250D02*
Y676000D01*
X64250Y677375D02*
X100250D01*
X64250D02*
Y697375D01*
X100250Y677375D02*
Y697375D01*
X64250D02*
X100250D01*
X79500Y690125D02*
X85000D01*
X79500Y684375D02*
Y690125D01*
Y684375D02*
X85000D01*
Y690125D01*
X64250Y633500D02*
X100250D01*
X64250D02*
Y653500D01*
X100250Y633500D02*
Y653500D01*
X64250D02*
X100250D01*
X79500Y646250D02*
X85000D01*
X79500Y640500D02*
Y646250D01*
Y640500D02*
X85000D01*
Y646250D01*
D14*
X743814Y921250D02*
G03*
X743814Y921250I-1414J0D01*
G01*
X519400Y999000D02*
X524600D01*
X519400Y972000D02*
X524600D01*
X938700Y790050D02*
X1007300D01*
X938700Y848450D02*
X1007300D01*
X16750Y730250D02*
Y740250D01*
X44750Y730250D02*
Y740250D01*
X533250Y863500D02*
Y938500D01*
X430250Y863500D02*
Y938500D01*
X223500Y364500D02*
Y408500D01*
X292500Y364500D02*
Y408500D01*
X74000Y121500D02*
X145000D01*
X74000Y375500D02*
X145000D01*
X635000Y110900D02*
X651000D01*
X635000Y142100D02*
X651000D01*
X635000Y148400D02*
X651000D01*
X635000Y179600D02*
X651000D01*
X635000Y185650D02*
X651000D01*
X635000Y216850D02*
X651000D01*
X230600Y238950D02*
Y254950D01*
X199400Y238950D02*
Y254950D01*
X268100Y238950D02*
Y254950D01*
X236900Y238950D02*
Y254950D01*
X305350Y238950D02*
Y254950D01*
X274150Y238950D02*
Y254950D01*
X342850Y238950D02*
Y254950D01*
X311650Y238950D02*
Y254950D01*
X380350Y238950D02*
Y254950D01*
X349150Y238950D02*
Y254950D01*
X419850Y238950D02*
Y254950D01*
X388650Y238950D02*
Y254950D01*
X495100Y238950D02*
Y254950D01*
X463900Y238950D02*
Y254950D01*
X457600Y238950D02*
Y254950D01*
X426400Y238950D02*
Y254950D01*
X41750Y804650D02*
X103750D01*
X41750Y890850D02*
X103750D01*
Y804650D02*
Y812550D01*
X41750Y882950D02*
Y890850D01*
X103750Y882950D02*
Y890850D01*
X41750Y804650D02*
Y812550D01*
X527750Y1035150D02*
Y1097150D01*
X441550Y1035150D02*
Y1097150D01*
X519850D02*
X527750D01*
X441550Y1035150D02*
X449450D01*
X441550Y1097150D02*
X449450D01*
X519850Y1035150D02*
X527750D01*
X329850Y511750D02*
X335250D01*
X329850Y651750D02*
X335250D01*
X195250Y511750D02*
X200650D01*
X195250Y651750D02*
X200650D01*
X335250Y511750D02*
Y517150D01*
Y646350D02*
Y651750D01*
X195250Y511750D02*
Y517150D01*
Y646350D02*
Y651750D01*
X1050450Y873950D02*
Y1026450D01*
X959450Y873950D02*
X1050450D01*
X959450Y1026450D02*
X1050450D01*
X959450Y873950D02*
Y1026450D01*
X974500Y678750D02*
X1052500D01*
X974500Y778750D02*
X1052500D01*
X974500Y678750D02*
Y778750D01*
X1052500Y678750D02*
Y778750D01*
Y69750D02*
Y669750D01*
X974500Y69750D02*
Y669750D01*
X1052500D01*
X974500Y69750D02*
X1052500D01*
X748900Y899750D02*
Y959750D01*
X552400Y899750D02*
X748900D01*
X552400D02*
Y959750D01*
X748900D01*
X163200Y965050D02*
Y1117550D01*
X254200D01*
X163200Y965050D02*
X254200D01*
Y1117550D01*
X850200Y642950D02*
X918800D01*
X850200Y584550D02*
X918800D01*
X724000Y975750D02*
Y1092550D01*
X566000Y975750D02*
X724000D01*
X566000D02*
Y1092550D01*
Y1161750D02*
X724000D01*
Y1125950D02*
Y1161750D01*
X566000Y1125950D02*
Y1161750D01*
X923500Y975750D02*
Y1092550D01*
X765500Y975750D02*
X923500D01*
X765500D02*
Y1092550D01*
Y1161750D02*
X923500D01*
Y1125950D02*
Y1161750D01*
X765500Y1125950D02*
Y1161750D01*
X735750Y108100D02*
X774750D01*
X735750Y209400D02*
X774750D01*
X129700Y6550D02*
X282200D01*
X129700D02*
Y97550D01*
X282200Y6550D02*
Y97550D01*
X129700D02*
X282200D01*
X351000Y333250D02*
Y377250D01*
X420000Y333250D02*
Y377250D01*
X299550Y6550D02*
X502550D01*
Y97550D01*
X299550D02*
X502550D01*
X299550Y6550D02*
Y97550D01*
D15*
X685590Y768900D02*
G03*
X705910Y768900I10160J0D01*
G01*
X685590Y826150D02*
G03*
X705910Y826150I10160J0D01*
G01*
X685590Y882150D02*
G03*
X705910Y882150I10160J0D01*
G01*
X808642Y317798D02*
G03*
X808642Y311702I0J-3048D01*
G01*
X813012Y335750D02*
G03*
X813012Y335750I-762J0D01*
G01*
X697500Y576250D02*
Y706250D01*
X827500Y576250D02*
Y706250D01*
X586668Y600038D02*
X692332D01*
X586668Y553302D02*
Y600038D01*
Y553302D02*
X692332D01*
Y600038D01*
X666540Y768900D02*
X685590D01*
X705910D02*
X724960D01*
X666540Y718100D02*
X724960D01*
X666540D02*
Y768900D01*
X724960Y718100D02*
Y768900D01*
X666540Y826150D02*
X685590D01*
X705910D02*
X724960D01*
X666540Y775350D02*
X724960D01*
X666540D02*
Y826150D01*
X724960Y775350D02*
Y826150D01*
X666540Y882150D02*
X685590D01*
X705910D02*
X724960D01*
X666540Y831350D02*
X724960D01*
X666540D02*
Y882150D01*
X724960Y831350D02*
Y882150D01*
X758858Y292652D02*
Y336848D01*
X808642Y292652D02*
Y311702D01*
Y317798D02*
Y336848D01*
D16*
X132250Y1067500D02*
G03*
X132250Y1067500I-1000J0D01*
G01*
D17*
X697500Y576250D02*
Y576480D01*
Y576250D02*
Y576480D01*
X724400D01*
X827500Y576250D02*
Y576480D01*
X800600D02*
X827500D01*
X697500Y706020D02*
Y706250D01*
Y706020D02*
X724400D01*
X827500D02*
Y706250D01*
X800600Y706020D02*
X827500D01*
D18*
X961212Y749540D02*
Y756205D01*
X957879Y752872D02*
X964544D01*
X966210Y766201D02*
Y759537D01*
X959546Y766201D01*
X957879D01*
X956213Y764535D01*
Y761203D01*
X957879Y759537D01*
X966210Y774532D02*
X956213D01*
X961212Y769533D01*
Y776198D01*
X957879Y693954D02*
X956213Y692288D01*
Y688956D01*
X957879Y687290D01*
X964544D01*
X966210Y688956D01*
Y692288D01*
X964544Y693954D01*
X961212D01*
Y690622D01*
X955463Y635290D02*
X965460D01*
X960462D01*
Y641954D01*
X955463D01*
X965460D01*
X967126Y645287D02*
Y651951D01*
X957129Y655284D02*
X955463Y656950D01*
Y660282D01*
X957129Y661948D01*
X958795D01*
X960462Y660282D01*
Y658616D01*
Y660282D01*
X962128Y661948D01*
X963794D01*
X965460Y660282D01*
Y656950D01*
X963794Y655284D01*
X955463Y583994D02*
X965460D01*
X960462D01*
Y590659D01*
X955463D01*
X965460D01*
X967126Y593991D02*
Y600656D01*
X965460Y610653D02*
Y603988D01*
X958795Y610653D01*
X957129D01*
X955463Y608987D01*
Y605654D01*
X957129Y603988D01*
X955463Y532699D02*
X965460D01*
X960462D01*
Y539364D01*
X955463D01*
X965460D01*
X967126Y542696D02*
Y549360D01*
X955463Y552693D02*
X963794D01*
X965460Y554359D01*
Y557691D01*
X963794Y559357D01*
X955463D01*
X965460Y483070D02*
X955463D01*
Y486402D02*
X965460D01*
X958795Y481404D02*
Y486402D01*
Y488068D01*
X962128Y481404D02*
Y488068D01*
X955463Y491400D02*
Y498065D01*
X957129D01*
X963794Y491400D01*
X965460D01*
Y498065D01*
X955463Y430108D02*
Y436773D01*
X957129D01*
X963794Y430108D01*
X965460D01*
Y436773D01*
Y380479D02*
X955463D01*
Y383811D02*
X965460D01*
X958795Y378813D02*
Y383811D01*
Y385477D01*
X962128Y378813D02*
Y385477D01*
X955463Y388810D02*
X965460D01*
Y393808D01*
X963794Y395474D01*
X962128D01*
X960462Y393808D01*
Y388810D01*
Y393808D01*
X958795Y395474D01*
X957129D01*
X955463Y393808D01*
Y388810D01*
Y327517D02*
X965460D01*
Y332516D01*
X963794Y334182D01*
X962128D01*
X960462Y332516D01*
Y327517D01*
Y332516D01*
X958795Y334182D01*
X957129D01*
X955463Y332516D01*
Y327517D01*
X965460Y277888D02*
X955463D01*
Y281220D02*
X965460D01*
X958795Y276222D02*
Y281220D01*
Y282886D01*
X962128Y276222D02*
Y282886D01*
X965460Y286219D02*
X958795D01*
X955463Y289551D01*
X958795Y292883D01*
X965460D01*
X960462D01*
Y286219D01*
X965460Y224926D02*
X958795D01*
X955463Y228259D01*
X958795Y231591D01*
X965460D01*
X960462D01*
Y224926D01*
X957129Y180295D02*
X955463Y178629D01*
Y175297D01*
X957129Y173631D01*
X963794D01*
X965460Y175297D01*
Y178629D01*
X963794Y180295D01*
X960462D01*
Y176963D01*
X965460Y183628D02*
X955463D01*
X965460Y190292D01*
X955463D01*
Y193624D02*
X965460D01*
Y198623D01*
X963794Y200289D01*
X957129D01*
X955463Y198623D01*
Y193624D01*
X957129Y129000D02*
X955463Y127334D01*
Y124002D01*
X957129Y122336D01*
X963794D01*
X965460Y124002D01*
Y127334D01*
X963794Y129000D01*
X960462D01*
Y125668D01*
X965460Y132332D02*
X955463D01*
X965460Y138997D01*
X955463D01*
Y142329D02*
X965460D01*
Y147327D01*
X963794Y148994D01*
X957129D01*
X955463Y147327D01*
Y142329D01*
Y77705D02*
Y71040D01*
X960462D01*
X958795Y74372D01*
Y76038D01*
X960462Y77705D01*
X963794D01*
X965460Y76038D01*
Y72706D01*
X963794Y71040D01*
X958795Y81037D02*
X965460Y84369D01*
X958795Y87701D01*
X260790Y121119D02*
X267454D01*
X264122D01*
Y111122D01*
X272453D02*
X275785D01*
X277451Y112788D01*
Y116121D01*
X275785Y117787D01*
X272453D01*
X270787Y116121D01*
Y112788D01*
X272453Y111122D01*
X290780Y107790D02*
Y117787D01*
X295779D01*
X297445Y116121D01*
Y112788D01*
X295779Y111122D01*
X290780D01*
X302443D02*
X305776D01*
X307442Y112788D01*
Y116121D01*
X305776Y117787D01*
X302443D01*
X300777Y116121D01*
Y112788D01*
X302443Y111122D01*
X310774Y117787D02*
Y112788D01*
X312440Y111122D01*
X314106Y112788D01*
X315772Y111122D01*
X317438Y112788D01*
Y117787D01*
X325769Y111122D02*
X322437D01*
X320771Y112788D01*
Y116121D01*
X322437Y117787D01*
X325769D01*
X327435Y116121D01*
Y114454D01*
X320771D01*
X330768Y117787D02*
Y111122D01*
Y114454D01*
X332434Y116121D01*
X334100Y117787D01*
X335766D01*
X350761Y107790D02*
Y117787D01*
X355759D01*
X357425Y116121D01*
Y112788D01*
X355759Y111122D01*
X350761D01*
X360758D02*
X364090D01*
X362424D01*
Y121119D01*
X360758D01*
X370755Y117787D02*
X374087D01*
X375753Y116121D01*
Y111122D01*
X370755D01*
X369088Y112788D01*
X370755Y114454D01*
X375753D01*
X380751Y119453D02*
Y117787D01*
X379085D01*
X382417D01*
X380751D01*
Y112788D01*
X382417Y111122D01*
X29040Y787790D02*
Y794454D01*
X32372Y797787D01*
X35705Y794454D01*
Y787790D01*
Y792788D01*
X29040D01*
X45701Y797787D02*
Y787790D01*
X40703D01*
X39037Y789456D01*
Y792788D01*
X40703Y794454D01*
X45701D01*
X55698Y797787D02*
Y787790D01*
X50700D01*
X49034Y789456D01*
Y792788D01*
X50700Y794454D01*
X55698D01*
X59030D02*
Y787790D01*
Y791122D01*
X60697Y792788D01*
X62363Y794454D01*
X64029D01*
X74026Y787790D02*
X70693D01*
X69027Y789456D01*
Y792788D01*
X70693Y794454D01*
X74026D01*
X75692Y792788D01*
Y791122D01*
X69027D01*
X79024Y787790D02*
X84022D01*
X85688Y789456D01*
X84022Y791122D01*
X80690D01*
X79024Y792788D01*
X80690Y794454D01*
X85688D01*
X99017Y787790D02*
X104016D01*
X105682Y789456D01*
X104016Y791122D01*
X100684D01*
X99017Y792788D01*
X100684Y794454D01*
X105682D01*
X114013Y787790D02*
X110680D01*
X109014Y789456D01*
Y792788D01*
X110680Y794454D01*
X114013D01*
X115679Y792788D01*
Y791122D01*
X109014D01*
X120677Y796121D02*
Y794454D01*
X119011D01*
X122343D01*
X120677D01*
Y789456D01*
X122343Y787790D01*
X91205Y907287D02*
X89538Y908953D01*
X86206D01*
X84540Y907287D01*
Y905621D01*
X86206Y903954D01*
X89538D01*
X91205Y902288D01*
Y900622D01*
X89538Y898956D01*
X86206D01*
X84540Y900622D01*
X99535Y898956D02*
X96203D01*
X94537Y900622D01*
Y903954D01*
X96203Y905621D01*
X99535D01*
X101201Y903954D01*
Y902288D01*
X94537D01*
X104534Y905621D02*
Y898956D01*
Y902288D01*
X106200Y903954D01*
X107866Y905621D01*
X109532D01*
X114530Y898956D02*
X117863D01*
X116196D01*
Y905621D01*
X114530D01*
X124527D02*
X127859D01*
X129525Y903954D01*
Y898956D01*
X124527D01*
X122861Y900622D01*
X124527Y902288D01*
X129525D01*
X132858Y898956D02*
X136190D01*
X134524D01*
Y908953D01*
X132858D01*
X151185Y898956D02*
Y908953D01*
X157850Y898956D01*
Y908953D01*
X161182Y905621D02*
Y900622D01*
X162848Y898956D01*
X167847D01*
Y905621D01*
X171179Y898956D02*
Y905621D01*
X172845D01*
X174511Y903954D01*
Y898956D01*
Y903954D01*
X176177Y905621D01*
X177843Y903954D01*
Y898956D01*
X181175Y908953D02*
Y898956D01*
X186174D01*
X187840Y900622D01*
Y902288D01*
Y903954D01*
X186174Y905621D01*
X181175D01*
X196171Y898956D02*
X192838D01*
X191172Y900622D01*
Y903954D01*
X192838Y905621D01*
X196171D01*
X197837Y903954D01*
Y902288D01*
X191172D01*
X201169Y905621D02*
Y898956D01*
Y902288D01*
X202835Y903954D01*
X204501Y905621D01*
X206168D01*
X211166Y897290D02*
X217830D01*
X221163D02*
X227827D01*
X231159D02*
X237824D01*
X241156D02*
X247821D01*
X251153D02*
X257817D01*
X261150D02*
X267814D01*
X271147D02*
X277811D01*
X281143D02*
X287808D01*
X291140D02*
X297805D01*
X83540Y924956D02*
Y931621D01*
X86872Y934953D01*
X90204Y931621D01*
Y924956D01*
Y929955D01*
X83540D01*
X100201Y934953D02*
Y924956D01*
X95203D01*
X93537Y926622D01*
Y929955D01*
X95203Y931621D01*
X100201D01*
X110198Y934953D02*
Y924956D01*
X105200D01*
X103533Y926622D01*
Y929955D01*
X105200Y931621D01*
X110198D01*
X113530D02*
Y924956D01*
Y928288D01*
X115197Y929955D01*
X116863Y931621D01*
X118529D01*
X128525Y924956D02*
X125193D01*
X123527Y926622D01*
Y929955D01*
X125193Y931621D01*
X128525D01*
X130192Y929955D01*
Y928288D01*
X123527D01*
X133524Y924956D02*
X138522D01*
X140188Y926622D01*
X138522Y928288D01*
X135190D01*
X133524Y929955D01*
X135190Y931621D01*
X140188D01*
X153517Y924956D02*
Y934953D01*
X156850Y931621D01*
X160182Y934953D01*
Y924956D01*
X165180D02*
X168513D01*
X170179Y926622D01*
Y929955D01*
X168513Y931621D01*
X165180D01*
X163514Y929955D01*
Y926622D01*
X165180Y924956D01*
X180175Y934953D02*
Y924956D01*
X175177D01*
X173511Y926622D01*
Y929955D01*
X175177Y931621D01*
X180175D01*
X183508Y934953D02*
Y924956D01*
X188506D01*
X190172Y926622D01*
Y928288D01*
X188506Y929955D01*
X183508D01*
X188506D01*
X190172Y931621D01*
Y933287D01*
X188506Y934953D01*
X183508D01*
X193505Y931621D02*
Y926622D01*
X195171Y924956D01*
X200169D01*
Y931621D01*
X203501Y924956D02*
X208500D01*
X210166Y926622D01*
X208500Y928288D01*
X205168D01*
X203501Y929955D01*
X205168Y931621D01*
X210166D01*
X213498Y923290D02*
X220163D01*
X223495D02*
X230159D01*
X233492D02*
X240156D01*
X243489D02*
X250153D01*
X253485D02*
X260150D01*
X263482D02*
X270147D01*
X273479D02*
X280143D01*
X283476D02*
X290140D01*
X293472D02*
X300137D01*
X946710Y878290D02*
X931475D01*
Y885908D01*
X934014Y888447D01*
X939092D01*
X941632Y885908D01*
Y878290D01*
Y883368D02*
X946710Y888447D01*
Y901143D02*
Y896064D01*
X944171Y893525D01*
X939092D01*
X936553Y896064D01*
Y901143D01*
X939092Y903682D01*
X941632D01*
Y893525D01*
X946710Y908760D02*
Y913839D01*
Y911299D01*
X931475D01*
Y908760D01*
X946710Y929073D02*
Y923995D01*
X944171Y921456D01*
X939092D01*
X936553Y923995D01*
Y929073D01*
X939092Y931613D01*
X941632D01*
Y921456D01*
X325290Y973829D02*
X330368D01*
X327829D01*
Y983986D01*
X325290D01*
X337986Y973829D02*
Y983986D01*
X345603D01*
X348143Y981447D01*
Y973829D01*
X355760Y986525D02*
Y983986D01*
X353221D01*
X358299D01*
X355760D01*
Y976368D01*
X358299Y973829D01*
X365917Y971290D02*
X376074D01*
X388769Y973829D02*
X383691D01*
X381152Y976368D01*
Y981447D01*
X383691Y983986D01*
X388769D01*
X391309Y981447D01*
Y978907D01*
X381152D01*
X396387Y983986D02*
X406544Y973829D01*
X401465Y978907D01*
X406544Y983986D01*
X396387Y973829D01*
X414161Y986525D02*
Y983986D01*
X411622D01*
X416700D01*
X414161D01*
Y976368D01*
X416700Y973829D01*
X606947Y52564D02*
X604408Y55103D01*
X599329D01*
X596790Y52564D01*
Y50025D01*
X599329Y47486D01*
X604408D01*
X606947Y44947D01*
Y42407D01*
X604408Y39868D01*
X599329D01*
X596790Y42407D01*
X614564Y52564D02*
Y50025D01*
X612025D01*
X617103D01*
X614564D01*
Y42407D01*
X617103Y39868D01*
X632338D02*
X627260D01*
X624721Y42407D01*
Y47486D01*
X627260Y50025D01*
X632338D01*
X634878Y47486D01*
Y44947D01*
X624721D01*
X639956Y34790D02*
Y50025D01*
X647574D01*
X650113Y47486D01*
Y42407D01*
X647574Y39868D01*
X639956D01*
X662809D02*
X657730D01*
X655191Y42407D01*
Y47486D01*
X657730Y50025D01*
X662809D01*
X665348Y47486D01*
Y44947D01*
X655191D01*
X670426Y50025D02*
Y39868D01*
Y44947D01*
X672965Y47486D01*
X675505Y50025D01*
X678044D01*
X700896Y39868D02*
Y50025D01*
X703436D01*
X705975Y47486D01*
Y39868D01*
Y47486D01*
X708514Y50025D01*
X711053Y47486D01*
Y39868D01*
X718671D02*
X723749D01*
X726288Y42407D01*
Y47486D01*
X723749Y50025D01*
X718671D01*
X716131Y47486D01*
Y42407D01*
X718671Y39868D01*
X741523Y55103D02*
Y39868D01*
X733906D01*
X731367Y42407D01*
Y47486D01*
X733906Y50025D01*
X741523D01*
X775843Y738617D02*
Y723382D01*
X786000D01*
X791078D02*
X796157D01*
X793618D01*
Y738617D01*
X791078Y736078D01*
X1030632Y801956D02*
X1045867D01*
Y809574D01*
X1043328Y812113D01*
X1033172D01*
X1030632Y809574D01*
Y801956D01*
X1045867Y817191D02*
Y822270D01*
Y819730D01*
X1030632D01*
X1033172Y817191D01*
X1030632Y840044D02*
Y829887D01*
X1038250D01*
X1035711Y834966D01*
Y837505D01*
X1038250Y840044D01*
X1043328D01*
X1045867Y837505D01*
Y832426D01*
X1043328Y829887D01*
X565334Y116005D02*
X571998Y106008D01*
Y116005D02*
X565334Y106008D01*
X575331D02*
Y116005D01*
X580329D01*
X581995Y114339D01*
Y111006D01*
X580329Y109340D01*
X575331D01*
X585327Y114339D02*
X586994Y116005D01*
X590326D01*
X591992Y114339D01*
Y112673D01*
X590326Y111006D01*
X588660D01*
X590326D01*
X591992Y109340D01*
Y107674D01*
X590326Y106008D01*
X586994D01*
X585327Y107674D01*
X521330Y116107D02*
X527994Y106110D01*
Y116107D02*
X521330Y106110D01*
X531327D02*
Y116107D01*
X536325D01*
X537991Y114441D01*
Y111108D01*
X536325Y109442D01*
X531327D01*
X547988Y106110D02*
X541324D01*
X547988Y112774D01*
Y114441D01*
X546322Y116107D01*
X542990D01*
X541324Y114441D01*
X15698Y1045507D02*
Y1038842D01*
X19030Y1035510D01*
X22362Y1038842D01*
Y1045507D01*
X25695D02*
X32359D01*
X29027D01*
Y1035510D01*
X35692D02*
X39024D01*
X37358D01*
Y1045507D01*
X35692Y1043841D01*
X213002Y174004D02*
X221332D01*
X222998Y175670D01*
Y179002D01*
X221332Y180669D01*
X213002D01*
X222998Y184001D02*
Y187333D01*
Y185667D01*
X213002D01*
X214668Y184001D01*
Y192332D02*
X213002Y193998D01*
Y197330D01*
X214668Y198996D01*
X216334D01*
X218000Y197330D01*
X219666Y198996D01*
X221332D01*
X222998Y197330D01*
Y193998D01*
X221332Y192332D01*
X219666D01*
X218000Y193998D01*
X216334Y192332D01*
X214668D01*
X218000Y193998D02*
Y197330D01*
X250502Y174004D02*
X258832D01*
X260498Y175670D01*
Y179002D01*
X258832Y180669D01*
X250502D01*
X260498Y184001D02*
Y187333D01*
Y185667D01*
X250502D01*
X252168Y184001D01*
X250502Y192332D02*
Y198996D01*
X252168D01*
X258832Y192332D01*
X260498D01*
X287281Y174004D02*
X295612D01*
X297278Y175670D01*
Y179002D01*
X295612Y180669D01*
X287281D01*
X297278Y184001D02*
Y187333D01*
Y185667D01*
X287281D01*
X288948Y184001D01*
X287281Y198996D02*
X288948Y195664D01*
X292280Y192332D01*
X295612D01*
X297278Y193998D01*
Y197330D01*
X295612Y198996D01*
X293946D01*
X292280Y197330D01*
Y192332D01*
X326252Y174004D02*
X334582D01*
X336248Y175670D01*
Y179002D01*
X334582Y180669D01*
X326252D01*
X336248Y184001D02*
Y187333D01*
Y185667D01*
X326252D01*
X327918Y184001D01*
X326252Y198996D02*
Y192332D01*
X331250D01*
X329584Y195664D01*
Y197330D01*
X331250Y198996D01*
X334582D01*
X336248Y197330D01*
Y193998D01*
X334582Y192332D01*
X299754Y410248D02*
Y401918D01*
X301420Y400252D01*
X304752D01*
X306418Y401918D01*
Y410248D01*
X309751Y400252D02*
X313083D01*
X311417D01*
Y410248D01*
X309751Y408582D01*
X323080Y400252D02*
Y410248D01*
X318081Y405250D01*
X324746D01*
X363251Y174004D02*
X371582D01*
X373248Y175670D01*
Y179002D01*
X371582Y180669D01*
X363251D01*
X373248Y184001D02*
Y187333D01*
Y185667D01*
X363251D01*
X364918Y184001D01*
Y192331D02*
X363251Y193998D01*
Y197330D01*
X364918Y198996D01*
X366584D01*
X368250Y197330D01*
Y195664D01*
Y197330D01*
X369916Y198996D01*
X371582D01*
X373248Y197330D01*
Y193998D01*
X371582Y192331D01*
X402252Y174004D02*
X410582D01*
X412248Y175670D01*
Y179002D01*
X410582Y180669D01*
X402252D01*
X412248Y184001D02*
Y187333D01*
Y185667D01*
X402252D01*
X403918Y184001D01*
X412248Y198996D02*
Y192332D01*
X405584Y198996D01*
X403918D01*
X402252Y197330D01*
Y193998D01*
X403918Y192332D01*
X441002Y174004D02*
X449332D01*
X450998Y175670D01*
Y179002D01*
X449332Y180669D01*
X441002D01*
X450998Y184001D02*
Y187333D01*
Y185667D01*
X441002D01*
X442668Y184001D01*
X450998Y192331D02*
Y195664D01*
Y193998D01*
X441002D01*
X442668Y192331D01*
X352370Y416699D02*
Y408368D01*
X354036Y406702D01*
X357368D01*
X359035Y408368D01*
Y416699D01*
X362367Y406702D02*
X365699D01*
X364033D01*
Y416699D01*
X362367Y415033D01*
X370697D02*
X372364Y416699D01*
X375696D01*
X377362Y415033D01*
Y408368D01*
X375696Y406702D01*
X372364D01*
X370697Y408368D01*
Y415033D01*
X500752Y239419D02*
X509082D01*
X510748Y241085D01*
Y244418D01*
X509082Y246084D01*
X500752D01*
X509082Y249416D02*
X510748Y251082D01*
Y254415D01*
X509082Y256081D01*
X502418D01*
X500752Y254415D01*
Y251082D01*
X502418Y249416D01*
X504084D01*
X505750Y251082D01*
Y256081D01*
X257002Y676919D02*
X265332D01*
X266998Y678586D01*
Y681918D01*
X265332Y683584D01*
X257002D01*
X258668Y686916D02*
X257002Y688582D01*
Y691915D01*
X258668Y693581D01*
X260334D01*
X262000Y691915D01*
X263666Y693581D01*
X265332D01*
X266998Y691915D01*
Y688582D01*
X265332Y686916D01*
X263666D01*
X262000Y688582D01*
X260334Y686916D01*
X258668D01*
X262000Y688582D02*
Y691915D01*
X760664Y369065D02*
Y360734D01*
X762330Y359068D01*
X765662D01*
X767328Y360734D01*
Y369065D01*
X770661D02*
X777325D01*
Y367399D01*
X770661Y360734D01*
Y359068D01*
X684081Y199752D02*
Y208082D01*
X682414Y209748D01*
X679082D01*
X677416Y208082D01*
Y199752D01*
X667419D02*
X670751Y201418D01*
X674084Y204750D01*
Y208082D01*
X672418Y209748D01*
X669085D01*
X667419Y208082D01*
Y206416D01*
X669085Y204750D01*
X674084D01*
X684381Y163502D02*
Y171832D01*
X682714Y173498D01*
X679382D01*
X677716Y171832D01*
Y163502D01*
X667719D02*
X674384D01*
Y168500D01*
X671052Y166834D01*
X669386D01*
X667719Y168500D01*
Y171832D01*
X669386Y173498D01*
X672718D01*
X674384Y171832D01*
X683831Y126252D02*
Y134582D01*
X682165Y136248D01*
X678832D01*
X677166Y134582D01*
Y126252D01*
X668835Y136248D02*
Y126252D01*
X673834Y131250D01*
X667169D01*
X714426Y228615D02*
Y220284D01*
X716092Y218618D01*
X719424D01*
X721090Y220284D01*
Y228615D01*
X724423Y226949D02*
X726089Y228615D01*
X729421D01*
X731087Y226949D01*
Y225282D01*
X729421Y223616D01*
X727755D01*
X729421D01*
X731087Y221950D01*
Y220284D01*
X729421Y218618D01*
X726089D01*
X724423Y220284D01*
X425751Y1036669D02*
X434082D01*
X435748Y1038335D01*
Y1041668D01*
X434082Y1043334D01*
X425751D01*
X435748Y1053331D02*
Y1046666D01*
X429084Y1053331D01*
X427418D01*
X425751Y1051665D01*
Y1048332D01*
X427418Y1046666D01*
X588428Y618493D02*
Y610162D01*
X590094Y608496D01*
X593426D01*
X595093Y610162D01*
Y618493D01*
X598425Y608496D02*
X601757D01*
X600091D01*
Y618493D01*
X598425Y616827D01*
X200464Y162253D02*
X198798Y163919D01*
X195466D01*
X193800Y162253D01*
Y160586D01*
X195466Y158920D01*
X198798D01*
X200464Y157254D01*
Y155588D01*
X198798Y153922D01*
X195466D01*
X193800Y155588D01*
X203797Y163919D02*
Y153922D01*
X207129Y157254D01*
X210461Y153922D01*
Y163919D01*
X220458Y153922D02*
X213794D01*
X220458Y160586D01*
Y162253D01*
X218792Y163919D01*
X215460D01*
X213794Y162253D01*
X637607Y546759D02*
X635940Y548425D01*
X632608D01*
X630942Y546759D01*
Y545093D01*
X632608Y543426D01*
X635940D01*
X637607Y541760D01*
Y540094D01*
X635940Y538428D01*
X632608D01*
X630942Y540094D01*
X640939Y548425D02*
Y538428D01*
X644271Y541760D01*
X647603Y538428D01*
Y548425D01*
X650936Y538428D02*
X654268D01*
X652602D01*
Y548425D01*
X650936Y546759D01*
X484400Y1069332D02*
X482734Y1070998D01*
X479402D01*
X477735Y1069332D01*
Y1067666D01*
X479402Y1066000D01*
X482734D01*
X484400Y1064334D01*
Y1062668D01*
X482734Y1061002D01*
X479402D01*
X477735Y1062668D01*
X487732Y1061002D02*
X491064D01*
X489398D01*
Y1070998D01*
X487732Y1069332D01*
X519421Y197752D02*
Y207748D01*
X524419D01*
X526086Y206082D01*
Y202750D01*
X524419Y201084D01*
X519421D01*
X522753D02*
X526086Y197752D01*
X536082Y207748D02*
X532750Y206082D01*
X529418Y202750D01*
Y199418D01*
X531084Y197752D01*
X534416D01*
X536082Y199418D01*
Y201084D01*
X534416Y202750D01*
X529418D01*
X546079Y207748D02*
X539414D01*
Y202750D01*
X542747Y204416D01*
X544413D01*
X546079Y202750D01*
Y199418D01*
X544413Y197752D01*
X541081D01*
X539414Y199418D01*
X519921Y172752D02*
Y182748D01*
X524919D01*
X526586Y181082D01*
Y177750D01*
X524919Y176084D01*
X519921D01*
X523253D02*
X526586Y172752D01*
X536582Y182748D02*
X533250Y181082D01*
X529918Y177750D01*
Y174418D01*
X531584Y172752D01*
X534916D01*
X536582Y174418D01*
Y176084D01*
X534916Y177750D01*
X529918D01*
X544913Y172752D02*
Y182748D01*
X539915Y177750D01*
X546579D01*
X366748Y869171D02*
X356752D01*
Y874169D01*
X358418Y875835D01*
X361750D01*
X363416Y874169D01*
Y869171D01*
Y872503D02*
X366748Y875835D01*
X356752Y885832D02*
X358418Y882500D01*
X361750Y879168D01*
X365082D01*
X366748Y880834D01*
Y884166D01*
X365082Y885832D01*
X363416D01*
X361750Y884166D01*
Y879168D01*
X358418Y889165D02*
X356752Y890831D01*
Y894163D01*
X358418Y895829D01*
X360084D01*
X361750Y894163D01*
Y892497D01*
Y894163D01*
X363416Y895829D01*
X365082D01*
X366748Y894163D01*
Y890831D01*
X365082Y889165D01*
X193748Y335421D02*
X183752D01*
Y340419D01*
X185418Y342085D01*
X188750D01*
X190416Y340419D01*
Y335421D01*
Y338753D02*
X193748Y342085D01*
X183752Y352082D02*
X185418Y348750D01*
X188750Y345418D01*
X192082D01*
X193748Y347084D01*
Y350416D01*
X192082Y352082D01*
X190416D01*
X188750Y350416D01*
Y345418D01*
X185418Y355415D02*
X183752Y357081D01*
Y360413D01*
X185418Y362079D01*
X192082D01*
X193748Y360413D01*
Y357081D01*
X192082Y355415D01*
X185418D01*
X215329Y406248D02*
Y396252D01*
X210331D01*
X208664Y397918D01*
Y401250D01*
X210331Y402916D01*
X215329D01*
X211997D02*
X208664Y406248D01*
X198668Y396252D02*
X205332D01*
Y401250D01*
X202000Y399584D01*
X200334D01*
X198668Y401250D01*
Y404582D01*
X200334Y406248D01*
X203666D01*
X205332Y404582D01*
X195336D02*
X193669Y406248D01*
X190337D01*
X188671Y404582D01*
Y397918D01*
X190337Y396252D01*
X193669D01*
X195336Y397918D01*
Y399584D01*
X193669Y401250D01*
X188671D01*
X119171Y552252D02*
Y562248D01*
X124169D01*
X125836Y560582D01*
Y557250D01*
X124169Y555584D01*
X119171D01*
X122503D02*
X125836Y552252D01*
X135832Y562248D02*
X129168D01*
Y557250D01*
X132500Y558916D01*
X134166D01*
X135832Y557250D01*
Y553918D01*
X134166Y552252D01*
X130834D01*
X129168Y553918D01*
X139164Y562248D02*
X145829D01*
Y560582D01*
X139164Y553918D01*
Y552252D01*
X13421Y396252D02*
Y406248D01*
X18419D01*
X20085Y404582D01*
Y401250D01*
X18419Y399584D01*
X13421D01*
X16753D02*
X20085Y396252D01*
X30082Y406248D02*
X23418D01*
Y401250D01*
X26750Y402916D01*
X28416D01*
X30082Y401250D01*
Y397918D01*
X28416Y396252D01*
X25084D01*
X23418Y397918D01*
X40079Y406248D02*
X36747Y404582D01*
X33414Y401250D01*
Y397918D01*
X35081Y396252D01*
X38413D01*
X40079Y397918D01*
Y399584D01*
X38413Y401250D01*
X33414D01*
X13671Y455252D02*
Y465248D01*
X18669D01*
X20335Y463582D01*
Y460250D01*
X18669Y458584D01*
X13671D01*
X17003D02*
X20335Y455252D01*
X30332Y465248D02*
X23668D01*
Y460250D01*
X27000Y461916D01*
X28666D01*
X30332Y460250D01*
Y456918D01*
X28666Y455252D01*
X25334D01*
X23668Y456918D01*
X40329Y465248D02*
X33665D01*
Y460250D01*
X36997Y461916D01*
X38663D01*
X40329Y460250D01*
Y456918D01*
X38663Y455252D01*
X35331D01*
X33665Y456918D01*
X13671Y435252D02*
Y445248D01*
X18669D01*
X20335Y443582D01*
Y440250D01*
X18669Y438584D01*
X13671D01*
X17003D02*
X20335Y435252D01*
X30332Y445248D02*
X23668D01*
Y440250D01*
X27000Y441916D01*
X28666D01*
X30332Y440250D01*
Y436918D01*
X28666Y435252D01*
X25334D01*
X23668Y436918D01*
X38663Y435252D02*
Y445248D01*
X33664Y440250D01*
X40329D01*
X13171Y416002D02*
Y425998D01*
X18169D01*
X19835Y424332D01*
Y421000D01*
X18169Y419334D01*
X13171D01*
X16503D02*
X19835Y416002D01*
X29832Y425998D02*
X23168D01*
Y421000D01*
X26500Y422666D01*
X28166D01*
X29832Y421000D01*
Y417668D01*
X28166Y416002D01*
X24834D01*
X23168Y417668D01*
X33164Y424332D02*
X34831Y425998D01*
X38163D01*
X39829Y424332D01*
Y422666D01*
X38163Y421000D01*
X36497D01*
X38163D01*
X39829Y419334D01*
Y417668D01*
X38163Y416002D01*
X34831D01*
X33164Y417668D01*
X798921Y254002D02*
Y263998D01*
X803919D01*
X805585Y262332D01*
Y259000D01*
X803919Y257334D01*
X798921D01*
X802253D02*
X805585Y254002D01*
X815582Y263998D02*
X808918D01*
Y259000D01*
X812250Y260666D01*
X813916D01*
X815582Y259000D01*
Y255668D01*
X813916Y254002D01*
X810584D01*
X808918Y255668D01*
X825579Y254002D02*
X818914D01*
X825579Y260666D01*
Y262332D01*
X823913Y263998D01*
X820581D01*
X818914Y262332D01*
X691337Y323502D02*
Y333498D01*
X696336D01*
X698002Y331832D01*
Y328500D01*
X696336Y326834D01*
X691337D01*
X694669D02*
X698002Y323502D01*
X707998Y333498D02*
X701334D01*
Y328500D01*
X704666Y330166D01*
X706332D01*
X707998Y328500D01*
Y325168D01*
X706332Y323502D01*
X703000D01*
X701334Y325168D01*
X711331Y323502D02*
X714663D01*
X712997D01*
Y333498D01*
X711331Y331832D01*
X809921Y343002D02*
Y352998D01*
X814919D01*
X816585Y351332D01*
Y348000D01*
X814919Y346334D01*
X809921D01*
X813253D02*
X816585Y343002D01*
X826582Y352998D02*
X819918D01*
Y348000D01*
X823250Y349666D01*
X824916D01*
X826582Y348000D01*
Y344668D01*
X824916Y343002D01*
X821584D01*
X819918Y344668D01*
X829914Y351332D02*
X831581Y352998D01*
X834913D01*
X836579Y351332D01*
Y344668D01*
X834913Y343002D01*
X831581D01*
X829914Y344668D01*
Y351332D01*
X66072Y661890D02*
Y671887D01*
X71070D01*
X72737Y670221D01*
Y666888D01*
X71070Y665222D01*
X66072D01*
X69404D02*
X72737Y661890D01*
X81067D02*
Y671887D01*
X76069Y666888D01*
X82733D01*
X86066Y663556D02*
X87732Y661890D01*
X91064D01*
X92730Y663556D01*
Y670221D01*
X91064Y671887D01*
X87732D01*
X86066Y670221D01*
Y668555D01*
X87732Y666888D01*
X92730D01*
X66018Y705715D02*
Y715712D01*
X71016D01*
X72682Y714046D01*
Y710713D01*
X71016Y709047D01*
X66018D01*
X69350D02*
X72682Y705715D01*
X81013D02*
Y715712D01*
X76015Y710713D01*
X82679D01*
X86011Y714046D02*
X87678Y715712D01*
X91010D01*
X92676Y714046D01*
Y712380D01*
X91010Y710713D01*
X92676Y709047D01*
Y707381D01*
X91010Y705715D01*
X87678D01*
X86011Y707381D01*
Y709047D01*
X87678Y710713D01*
X86011Y712380D01*
Y714046D01*
X87678Y710713D02*
X91010D01*
X66160Y748962D02*
Y758959D01*
X71158D01*
X72825Y757293D01*
Y753960D01*
X71158Y752294D01*
X66160D01*
X69492D02*
X72825Y748962D01*
X81155D02*
Y758959D01*
X76157Y753960D01*
X82821D01*
X86153Y758959D02*
X92818D01*
Y757293D01*
X86153Y750628D01*
Y748962D01*
X647921Y430252D02*
Y440248D01*
X652919D01*
X654585Y438582D01*
Y435250D01*
X652919Y433584D01*
X647921D01*
X651253D02*
X654585Y430252D01*
X662916D02*
Y440248D01*
X657918Y435250D01*
X664582D01*
X674579Y440248D02*
X671247Y438582D01*
X667915Y435250D01*
Y431918D01*
X669581Y430252D01*
X672913D01*
X674579Y431918D01*
Y433584D01*
X672913Y435250D01*
X667915D01*
X643921Y405862D02*
Y415858D01*
X648919D01*
X650585Y414192D01*
Y410860D01*
X648919Y409194D01*
X643921D01*
X647253D02*
X650585Y405862D01*
X658916D02*
Y415858D01*
X653918Y410860D01*
X660582D01*
X670579Y415858D02*
X663914D01*
Y410860D01*
X667247Y412526D01*
X668913D01*
X670579Y410860D01*
Y407528D01*
X668913Y405862D01*
X665581D01*
X663914Y407528D01*
X646921Y376472D02*
Y386468D01*
X651919D01*
X653586Y384802D01*
Y381470D01*
X651919Y379804D01*
X646921D01*
X650253D02*
X653586Y376472D01*
X661916D02*
Y386468D01*
X656918Y381470D01*
X663582D01*
X671913Y376472D02*
Y386468D01*
X666915Y381470D01*
X673579D01*
X160894Y731448D02*
Y741445D01*
X165892D01*
X167558Y739779D01*
Y736446D01*
X165892Y734780D01*
X160894D01*
X164226D02*
X167558Y731448D01*
X175889D02*
Y741445D01*
X170891Y736446D01*
X177555D01*
X180888Y739779D02*
X182554Y741445D01*
X185886D01*
X187552Y739779D01*
Y738112D01*
X185886Y736446D01*
X184220D01*
X185886D01*
X187552Y734780D01*
Y733114D01*
X185886Y731448D01*
X182554D01*
X180888Y733114D01*
X466748Y739421D02*
X456752D01*
Y744419D01*
X458418Y746086D01*
X461750D01*
X463416Y744419D01*
Y739421D01*
Y742753D02*
X466748Y746086D01*
Y756082D02*
Y749418D01*
X460084Y756082D01*
X458418D01*
X456752Y754416D01*
Y751084D01*
X458418Y749418D01*
X456752Y759415D02*
Y766079D01*
X458418D01*
X465082Y759415D01*
X466748D01*
X506248Y739421D02*
X496252D01*
Y744419D01*
X497918Y746086D01*
X501250D01*
X502916Y744419D01*
Y739421D01*
Y742753D02*
X506248Y746086D01*
Y756082D02*
Y749418D01*
X499584Y756082D01*
X497918D01*
X496252Y754416D01*
Y751084D01*
X497918Y749418D01*
X496252Y766079D02*
X497918Y762747D01*
X501250Y759415D01*
X504582D01*
X506248Y761081D01*
Y764413D01*
X504582Y766079D01*
X502916D01*
X501250Y764413D01*
Y759415D01*
X531248Y739421D02*
X521252D01*
Y744419D01*
X522918Y746086D01*
X526250D01*
X527916Y744419D01*
Y739421D01*
Y742753D02*
X531248Y746086D01*
Y756082D02*
Y749418D01*
X524584Y756082D01*
X522918D01*
X521252Y754416D01*
Y751084D01*
X522918Y749418D01*
X521252Y766079D02*
Y759415D01*
X526250D01*
X524584Y762747D01*
Y764413D01*
X526250Y766079D01*
X529582D01*
X531248Y764413D01*
Y761081D01*
X529582Y759415D01*
X441248Y739421D02*
X431252D01*
Y744419D01*
X432918Y746086D01*
X436250D01*
X437916Y744419D01*
Y739421D01*
Y742753D02*
X441248Y746086D01*
Y756082D02*
Y749418D01*
X434584Y756082D01*
X432918D01*
X431252Y754416D01*
Y751084D01*
X432918Y749418D01*
X441248Y764413D02*
X431252D01*
X436250Y759415D01*
Y766079D01*
X277498Y1095421D02*
X267502D01*
Y1100419D01*
X269168Y1102085D01*
X272500D01*
X274166Y1100419D01*
Y1095421D01*
Y1098753D02*
X277498Y1102085D01*
Y1112082D02*
Y1105418D01*
X270834Y1112082D01*
X269168D01*
X267502Y1110416D01*
Y1107084D01*
X269168Y1105418D01*
Y1115415D02*
X267502Y1117081D01*
Y1120413D01*
X269168Y1122079D01*
X270834D01*
X272500Y1120413D01*
Y1118747D01*
Y1120413D01*
X274166Y1122079D01*
X275832D01*
X277498Y1120413D01*
Y1117081D01*
X275832Y1115415D01*
X279248Y982421D02*
X269252D01*
Y987419D01*
X270918Y989085D01*
X274250D01*
X275916Y987419D01*
Y982421D01*
Y985753D02*
X279248Y989085D01*
Y999082D02*
Y992418D01*
X272584Y999082D01*
X270918D01*
X269252Y997416D01*
Y994084D01*
X270918Y992418D01*
X279248Y1009079D02*
Y1002414D01*
X272584Y1009079D01*
X270918D01*
X269252Y1007413D01*
Y1004081D01*
X270918Y1002414D01*
X47498Y921171D02*
X37502D01*
Y926169D01*
X39168Y927835D01*
X42500D01*
X44166Y926169D01*
Y921171D01*
Y924503D02*
X47498Y927835D01*
Y937832D02*
Y931168D01*
X40834Y937832D01*
X39168D01*
X37502Y936166D01*
Y932834D01*
X39168Y931168D01*
Y941165D02*
X37502Y942831D01*
Y946163D01*
X39168Y947829D01*
X45832D01*
X47498Y946163D01*
Y942831D01*
X45832Y941165D01*
X39168D01*
X50504Y1035502D02*
Y1045498D01*
X55502D01*
X57168Y1043832D01*
Y1040500D01*
X55502Y1038834D01*
X50504D01*
X53836D02*
X57168Y1035502D01*
X60501D02*
X63833D01*
X62167D01*
Y1045498D01*
X60501Y1043832D01*
X68832Y1037168D02*
X70498Y1035502D01*
X73830D01*
X75496Y1037168D01*
Y1043832D01*
X73830Y1045498D01*
X70498D01*
X68832Y1043832D01*
Y1042166D01*
X70498Y1040500D01*
X75496D01*
X619932Y884230D02*
Y894227D01*
X624930D01*
X626596Y892561D01*
Y889228D01*
X624930Y887562D01*
X619932D01*
X623264D02*
X626596Y884230D01*
X629929D02*
X633261D01*
X631595D01*
Y894227D01*
X629929Y892561D01*
X638259D02*
X639925Y894227D01*
X643258D01*
X644924Y892561D01*
Y890894D01*
X643258Y889228D01*
X644924Y887562D01*
Y885896D01*
X643258Y884230D01*
X639925D01*
X638259Y885896D01*
Y887562D01*
X639925Y889228D01*
X638259Y890894D01*
Y892561D01*
X639925Y889228D02*
X643258D01*
X581004Y883252D02*
Y893248D01*
X586002D01*
X587668Y891582D01*
Y888250D01*
X586002Y886584D01*
X581004D01*
X584336D02*
X587668Y883252D01*
X591001D02*
X594333D01*
X592667D01*
Y893248D01*
X591001Y891582D01*
X599331Y893248D02*
X605996D01*
Y891582D01*
X599331Y884918D01*
Y883252D01*
X80254Y976002D02*
Y985998D01*
X85252D01*
X86918Y984332D01*
Y981000D01*
X85252Y979334D01*
X80254D01*
X83586D02*
X86918Y976002D01*
X90251D02*
X93583D01*
X91917D01*
Y985998D01*
X90251Y984332D01*
X105246Y985998D02*
X101914Y984332D01*
X98581Y981000D01*
Y977668D01*
X100248Y976002D01*
X103580D01*
X105246Y977668D01*
Y979334D01*
X103580Y981000D01*
X98581D01*
X87754Y1041252D02*
Y1051248D01*
X92752D01*
X94418Y1049582D01*
Y1046250D01*
X92752Y1044584D01*
X87754D01*
X91086D02*
X94418Y1041252D01*
X97751D02*
X101083D01*
X99417D01*
Y1051248D01*
X97751Y1049582D01*
X112746Y1051248D02*
X106081D01*
Y1046250D01*
X109414Y1047916D01*
X111080D01*
X112746Y1046250D01*
Y1042918D01*
X111080Y1041252D01*
X107748D01*
X106081Y1042918D01*
X614504Y823377D02*
Y833373D01*
X619502D01*
X621169Y831707D01*
Y828375D01*
X619502Y826709D01*
X614504D01*
X617836D02*
X621169Y823377D01*
X624501D02*
X627833D01*
X626167D01*
Y833373D01*
X624501Y831707D01*
X637830Y823377D02*
Y833373D01*
X632831Y828375D01*
X639496D01*
X578754Y823377D02*
Y833373D01*
X583752D01*
X585419Y831707D01*
Y828375D01*
X583752Y826709D01*
X578754D01*
X582086D02*
X585419Y823377D01*
X588751D02*
X592083D01*
X590417D01*
Y833373D01*
X588751Y831707D01*
X597081D02*
X598748Y833373D01*
X602080D01*
X603746Y831707D01*
Y830041D01*
X602080Y828375D01*
X600414D01*
X602080D01*
X603746Y826709D01*
Y825043D01*
X602080Y823377D01*
X598748D01*
X597081Y825043D01*
X120134Y1041302D02*
Y1051299D01*
X125132D01*
X126798Y1049633D01*
Y1046300D01*
X125132Y1044634D01*
X120134D01*
X123466D02*
X126798Y1041302D01*
X130131D02*
X133463D01*
X131797D01*
Y1051299D01*
X130131Y1049633D01*
X145126Y1041302D02*
X138461D01*
X145126Y1047967D01*
Y1049633D01*
X143460Y1051299D01*
X140128D01*
X138461Y1049633D01*
X618669Y768002D02*
Y777998D01*
X623668D01*
X625334Y776332D01*
Y773000D01*
X623668Y771334D01*
X618669D01*
X622002D02*
X625334Y768002D01*
X628666Y776332D02*
X630332Y777998D01*
X633665D01*
X635331Y776332D01*
Y774666D01*
X633665Y773000D01*
X635331Y771334D01*
Y769668D01*
X633665Y768002D01*
X630332D01*
X628666Y769668D01*
Y771334D01*
X630332Y773000D01*
X628666Y774666D01*
Y776332D01*
X630332Y773000D02*
X633665D01*
X589919Y767252D02*
Y777248D01*
X594918D01*
X596584Y775582D01*
Y772250D01*
X594918Y770584D01*
X589919D01*
X593252D02*
X596584Y767252D01*
X599916Y777248D02*
X606581D01*
Y775582D01*
X599916Y768918D01*
Y767252D01*
X800852Y535094D02*
Y545091D01*
X805850D01*
X807516Y543425D01*
Y540092D01*
X805850Y538426D01*
X800852D01*
X804184D02*
X807516Y535094D01*
X817513Y545091D02*
X810849D01*
Y540092D01*
X814181Y541758D01*
X815847D01*
X817513Y540092D01*
Y536760D01*
X815847Y535094D01*
X812515D01*
X810849Y536760D01*
X89742Y69406D02*
Y79403D01*
X94740D01*
X96406Y77737D01*
Y74404D01*
X94740Y72738D01*
X89742D01*
X93074D02*
X96406Y69406D01*
X106403D02*
X99739D01*
X106403Y76070D01*
Y77737D01*
X104737Y79403D01*
X101405D01*
X99739Y77737D01*
X777482Y558160D02*
Y568157D01*
X782480D01*
X784146Y566491D01*
Y563158D01*
X782480Y561492D01*
X777482D01*
X780814D02*
X784146Y558160D01*
X787479D02*
X790811D01*
X789145D01*
Y568157D01*
X787479Y566491D01*
X131250Y630668D02*
Y637332D01*
X129584Y638998D01*
X126252D01*
X124586Y637332D01*
Y630668D01*
X126252Y629002D01*
X129584D01*
X127918Y632334D02*
X131250Y629002D01*
X129584D02*
X131250Y630668D01*
X134582Y629002D02*
X137914D01*
X136248D01*
Y638998D01*
X134582Y637332D01*
X429172Y988248D02*
X432504D01*
X430838D01*
Y978252D01*
X429172D01*
X432504D01*
X444167Y986582D02*
X442501Y988248D01*
X439169D01*
X437502Y986582D01*
Y984916D01*
X439169Y983250D01*
X442501D01*
X444167Y981584D01*
Y979918D01*
X442501Y978252D01*
X439169D01*
X437502Y979918D01*
X452498Y988248D02*
X449165D01*
X447499Y986582D01*
Y979918D01*
X449165Y978252D01*
X452498D01*
X454164Y979918D01*
Y986582D01*
X452498Y988248D01*
X457496Y978252D02*
X460828D01*
X459162D01*
Y988248D01*
X457496Y986582D01*
X109496Y103002D02*
X106164D01*
X107830D01*
Y112998D01*
X109496D01*
X106164D01*
X94501Y104668D02*
X96167Y103002D01*
X99499D01*
X101165Y104668D01*
Y111332D01*
X99499Y112998D01*
X96167D01*
X94501Y111332D01*
X84504Y112998D02*
X91169D01*
X84504Y106334D01*
Y104668D01*
X86170Y103002D01*
X89502D01*
X91169Y104668D01*
X386940Y520821D02*
X390272D01*
X388606D01*
Y510824D01*
X386940D01*
X390272D01*
X401935Y519155D02*
X400269Y520821D01*
X396937D01*
X395271Y519155D01*
Y512490D01*
X396937Y510824D01*
X400269D01*
X401935Y512490D01*
X405267Y510824D02*
X408600D01*
X406934D01*
Y520821D01*
X405267Y519155D01*
X320921Y1010498D02*
Y1000502D01*
X325919D01*
X327585Y1002168D01*
Y1008832D01*
X325919Y1010498D01*
X320921D01*
X330918D02*
Y1000502D01*
X335916D01*
X337582Y1002168D01*
Y1008832D01*
X335916Y1010498D01*
X330918D01*
X340914Y1008832D02*
X342581Y1010498D01*
X345913D01*
X347579Y1008832D01*
Y1007166D01*
X345913Y1005500D01*
X344247D01*
X345913D01*
X347579Y1003834D01*
Y1002168D01*
X345913Y1000502D01*
X342581D01*
X340914Y1002168D01*
X795216Y895110D02*
Y885113D01*
X800214D01*
X801881Y886779D01*
Y893443D01*
X800214Y895110D01*
X795216D01*
X805213D02*
Y885113D01*
X810211D01*
X811877Y886779D01*
Y893443D01*
X810211Y895110D01*
X805213D01*
X821874Y885113D02*
X815210D01*
X821874Y891777D01*
Y893443D01*
X820208Y895110D01*
X816876D01*
X815210Y893443D01*
X789002Y435837D02*
X798998D01*
Y440835D01*
X797332Y442502D01*
X790668D01*
X789002Y440835D01*
Y435837D01*
Y445834D02*
X798998D01*
Y450832D01*
X797332Y452498D01*
X790668D01*
X789002Y450832D01*
Y445834D01*
X798998Y455831D02*
Y459163D01*
Y457497D01*
X789002D01*
X790668Y455831D01*
X18420Y773248D02*
Y763252D01*
X23419D01*
X25085Y764918D01*
Y771582D01*
X23419Y773248D01*
X18420D01*
X28417Y763252D02*
X31749D01*
X30083D01*
Y773248D01*
X28417Y771582D01*
X36748Y763252D02*
X40080D01*
X38414D01*
Y773248D01*
X36748Y771582D01*
X12502Y932669D02*
X22498D01*
Y937668D01*
X20832Y939334D01*
X14168D01*
X12502Y937668D01*
Y932669D01*
X22498Y947665D02*
X12502D01*
X17500Y942666D01*
Y949331D01*
X833936Y664407D02*
Y654410D01*
X838934D01*
X840601Y656076D01*
Y662741D01*
X838934Y664407D01*
X833936D01*
X850597Y654410D02*
X843933D01*
X850597Y661075D01*
Y662741D01*
X848931Y664407D01*
X845599D01*
X843933Y662741D01*
X164418Y471918D02*
X162752Y470252D01*
Y466920D01*
X164418Y465254D01*
X171082D01*
X172748Y466920D01*
Y470252D01*
X171082Y471918D01*
X172748Y475251D02*
Y478583D01*
Y476917D01*
X162752D01*
X164418Y475251D01*
Y483582D02*
X162752Y485248D01*
Y488580D01*
X164418Y490246D01*
X166084D01*
X167750Y488580D01*
X169416Y490246D01*
X171082D01*
X172748Y488580D01*
Y485248D01*
X171082Y483582D01*
X169416D01*
X167750Y485248D01*
X166084Y483582D01*
X164418D01*
X167750Y485248D02*
Y488580D01*
X338082Y461331D02*
X339748Y462998D01*
Y466330D01*
X338082Y467996D01*
X331418D01*
X329752Y466330D01*
Y462998D01*
X331418Y461331D01*
X329752Y457999D02*
Y454667D01*
Y456333D01*
X339748D01*
X338082Y457999D01*
X339748Y449669D02*
Y443004D01*
X338082D01*
X331418Y449669D01*
X329752D01*
X436418Y441082D02*
X434752Y442748D01*
X431420D01*
X429754Y441082D01*
Y434418D01*
X431420Y432752D01*
X434752D01*
X436418Y434418D01*
X439751Y432752D02*
X443083D01*
X441417D01*
Y442748D01*
X439751Y441082D01*
X454746Y442748D02*
X451414Y441082D01*
X448082Y437750D01*
Y434418D01*
X449748Y432752D01*
X453080D01*
X454746Y434418D01*
Y436084D01*
X453080Y437750D01*
X448082D01*
X81419Y520582D02*
X79752Y522248D01*
X76420D01*
X74754Y520582D01*
Y513918D01*
X76420Y512252D01*
X79752D01*
X81419Y513918D01*
X84751Y512252D02*
X88083D01*
X86417D01*
Y522248D01*
X84751Y520582D01*
X99746Y522248D02*
X93081D01*
Y517250D01*
X96414Y518916D01*
X98080D01*
X99746Y517250D01*
Y513918D01*
X98080Y512252D01*
X94748D01*
X93081Y513918D01*
X21168Y657832D02*
X19502Y659498D01*
X16170D01*
X14504Y657832D01*
Y651168D01*
X16170Y649502D01*
X19502D01*
X21168Y651168D01*
X24501Y649502D02*
X27833D01*
X26167D01*
Y659498D01*
X24501Y657832D01*
X37830Y649502D02*
Y659498D01*
X32831Y654500D01*
X39496D01*
X805169Y243582D02*
X803502Y245248D01*
X800170D01*
X798504Y243582D01*
Y236918D01*
X800170Y235252D01*
X803502D01*
X805169Y236918D01*
X808501Y235252D02*
X811833D01*
X810167D01*
Y245248D01*
X808501Y243582D01*
X816832D02*
X818498Y245248D01*
X821830D01*
X823496Y243582D01*
Y241916D01*
X821830Y240250D01*
X820164D01*
X821830D01*
X823496Y238584D01*
Y236918D01*
X821830Y235252D01*
X818498D01*
X816832Y236918D01*
X698335Y310332D02*
X696669Y311998D01*
X693336D01*
X691670Y310332D01*
Y303668D01*
X693336Y302002D01*
X696669D01*
X698335Y303668D01*
X701667Y302002D02*
X704999D01*
X703333D01*
Y311998D01*
X701667Y310332D01*
X709998Y302002D02*
X713330D01*
X711664D01*
Y311998D01*
X709998Y310332D01*
X20919Y694832D02*
X19253Y696498D01*
X15920D01*
X14254Y694832D01*
Y688168D01*
X15920Y686502D01*
X19253D01*
X20919Y688168D01*
X24251Y686502D02*
X27583D01*
X25917D01*
Y696498D01*
X24251Y694832D01*
X32582D02*
X34248Y696498D01*
X37580D01*
X39246Y694832D01*
Y688168D01*
X37580Y686502D01*
X34248D01*
X32582Y688168D01*
Y694832D01*
X868584Y329082D02*
X866918Y330748D01*
X863586D01*
X861919Y329082D01*
Y322418D01*
X863586Y320752D01*
X866918D01*
X868584Y322418D01*
X871916D02*
X873582Y320752D01*
X876915D01*
X878581Y322418D01*
Y329082D01*
X876915Y330748D01*
X873582D01*
X871916Y329082D01*
Y327416D01*
X873582Y325750D01*
X878581D01*
X364723Y695217D02*
X363056Y696883D01*
X359724D01*
X358058Y695217D01*
Y688552D01*
X359724Y686886D01*
X363056D01*
X364723Y688552D01*
X368055Y695217D02*
X369721Y696883D01*
X373053D01*
X374719Y695217D01*
Y693550D01*
X373053Y691884D01*
X374719Y690218D01*
Y688552D01*
X373053Y686886D01*
X369721D01*
X368055Y688552D01*
Y690218D01*
X369721Y691884D01*
X368055Y693550D01*
Y695217D01*
X369721Y691884D02*
X373053D01*
X164084Y696082D02*
X162418Y697748D01*
X159086D01*
X157419Y696082D01*
Y689418D01*
X159086Y687752D01*
X162418D01*
X164084Y689418D01*
X167416Y697748D02*
X174081D01*
Y696082D01*
X167416Y689418D01*
Y687752D01*
X290418Y1104334D02*
X288752Y1102668D01*
Y1099335D01*
X290418Y1097669D01*
X297082D01*
X298748Y1099335D01*
Y1102668D01*
X297082Y1104334D01*
X288752Y1114331D02*
X290418Y1110998D01*
X293750Y1107666D01*
X297082D01*
X298748Y1109332D01*
Y1112664D01*
X297082Y1114331D01*
X295416D01*
X293750Y1112664D01*
Y1107666D01*
X571834Y704832D02*
X570168Y706498D01*
X566836D01*
X565169Y704832D01*
Y698168D01*
X566836Y696502D01*
X570168D01*
X571834Y698168D01*
X575166Y704832D02*
X576832Y706498D01*
X580164D01*
X581831Y704832D01*
Y703166D01*
X580164Y701500D01*
X578498D01*
X580164D01*
X581831Y699834D01*
Y698168D01*
X580164Y696502D01*
X576832D01*
X575166Y698168D01*
X835084Y739832D02*
X833418Y741498D01*
X830086D01*
X828419Y739832D01*
Y733168D01*
X830086Y731502D01*
X833418D01*
X835084Y733168D01*
X845081Y731502D02*
X838416D01*
X845081Y738166D01*
Y739832D01*
X843415Y741498D01*
X840082D01*
X838416Y739832D01*
X520250Y1014332D02*
X518584Y1015998D01*
X515252D01*
X513586Y1014332D01*
Y1007668D01*
X515252Y1006002D01*
X518584D01*
X520250Y1007668D01*
X523582Y1006002D02*
X526914D01*
X525248D01*
Y1015998D01*
X523582Y1014332D01*
M02*
