G04*
G04 #@! TF.GenerationSoftware,Altium Limited,Altium Designer,20.0.13 (296)*
G04*
G04 Layer_Color=16711935*
%FSLAX44Y44*%
%MOMM*%
G71*
G01*
G75*
%ADD56R,1.6032X1.2032*%
%ADD60R,1.0032X1.2032*%
%ADD61R,1.2032X1.6032*%
%ADD74R,1.2200X0.9200*%
%ADD79R,1.7032X1.7032*%
%ADD80C,1.7032*%
%ADD81R,1.2632X1.2632*%
%ADD82C,1.2632*%
%ADD83R,1.5200X1.5200*%
%ADD84C,1.5200*%
%ADD85R,1.5112X1.5112*%
%ADD86C,1.5112*%
%ADD87R,1.5112X1.5112*%
%ADD88R,1.7032X1.7032*%
%ADD89C,1.8082*%
%ADD90R,1.8082X1.8082*%
%ADD91R,2.3032X2.3032*%
%ADD92C,2.3032*%
%ADD93R,2.1082X2.1082*%
%ADD94C,2.1082*%
%ADD95R,1.8032X1.8032*%
%ADD96C,1.8032*%
%ADD97C,1.7200*%
%ADD98R,1.7200X1.7200*%
%ADD99C,3.6032*%
%ADD100R,1.8532X1.8532*%
%ADD101C,1.8532*%
%ADD102C,2.9032*%
%ADD103O,2.8448X1.5240*%
%ADD104R,2.8448X1.5240*%
%ADD105C,2.0032*%
%ADD106R,2.0032X2.0032*%
%ADD107R,1.8082X1.8082*%
%ADD108R,1.7200X1.7200*%
%ADD109C,1.0032*%
%ADD110C,4.2032*%
%ADD147R,1.1132X1.4232*%
D56*
X44750Y165000D02*
D03*
Y185000D02*
D03*
X74750Y984000D02*
D03*
Y964000D02*
D03*
X359250Y279000D02*
D03*
Y299000D02*
D03*
X209750Y279000D02*
D03*
Y299000D02*
D03*
X378500Y1059000D02*
D03*
Y1039000D02*
D03*
X459250Y1076250D02*
D03*
Y1056250D02*
D03*
D60*
X892500Y684500D02*
D03*
X908500D02*
D03*
X453000Y948750D02*
D03*
X437000D02*
D03*
X633250Y683000D02*
D03*
X649250D02*
D03*
X452000Y854750D02*
D03*
X436000D02*
D03*
X222750Y616750D02*
D03*
X238750D02*
D03*
X24250Y208750D02*
D03*
X40250D02*
D03*
X24250Y298250D02*
D03*
X40250D02*
D03*
X24250Y280350D02*
D03*
X40250D02*
D03*
X24250Y226650D02*
D03*
X40250D02*
D03*
X24250Y244550D02*
D03*
X40250D02*
D03*
X24250Y262450D02*
D03*
X40250D02*
D03*
D61*
X400750Y1077000D02*
D03*
X420750D02*
D03*
X406250Y1102250D02*
D03*
X426250D02*
D03*
X479250Y1003000D02*
D03*
X459250D02*
D03*
X530250Y1047500D02*
D03*
X510250D02*
D03*
X968250Y243500D02*
D03*
X988250D02*
D03*
X968250Y294750D02*
D03*
X988250D02*
D03*
X968250Y345750D02*
D03*
X988250D02*
D03*
X968250Y393000D02*
D03*
X988250D02*
D03*
X968250Y441750D02*
D03*
X988250D02*
D03*
X968250Y492750D02*
D03*
X988250D02*
D03*
X968250Y543500D02*
D03*
X988250D02*
D03*
X968250Y595250D02*
D03*
X988250D02*
D03*
X968250Y640500D02*
D03*
X988250D02*
D03*
D74*
X724250Y995000D02*
D03*
Y1014000D02*
D03*
X746750Y1004500D02*
D03*
D79*
X315750Y785450D02*
D03*
X443000Y597500D02*
D03*
X432500Y558750D02*
D03*
X432000Y525750D02*
D03*
X222500Y456250D02*
D03*
D80*
X315750Y810850D02*
D03*
Y836250D02*
D03*
Y861650D02*
D03*
Y887050D02*
D03*
X50000Y699250D02*
D03*
X460000Y353000D02*
D03*
X749250Y355750D02*
D03*
X822000Y287750D02*
D03*
X848250Y954500D02*
D03*
X383750Y419250D02*
D03*
X638250Y474500D02*
D03*
X435750Y367500D02*
D03*
X327500Y384500D02*
D03*
X23750Y373750D02*
D03*
X46520Y443250D02*
D03*
X93750Y476250D02*
D03*
X40250Y81750D02*
D03*
X633750Y408500D02*
D03*
X637250Y435000D02*
D03*
X108250Y501250D02*
D03*
X866000Y79250D02*
D03*
X864500Y107250D02*
D03*
X865000Y138750D02*
D03*
X865250Y163950D02*
D03*
X864500Y193500D02*
D03*
X879000Y242250D02*
D03*
X636250Y384250D02*
D03*
X415000Y858000D02*
D03*
X63250Y1055750D02*
D03*
X156750Y791250D02*
D03*
X794750Y757750D02*
D03*
X450000Y969500D02*
D03*
X417250Y952500D02*
D03*
X496067Y986639D02*
D03*
X777250Y989750D02*
D03*
X784500Y1026000D02*
D03*
X880250Y611875D02*
D03*
Y594500D02*
D03*
Y629250D02*
D03*
D81*
X152000Y134200D02*
D03*
D82*
Y159600D02*
D03*
Y185000D02*
D03*
Y210400D02*
D03*
Y235800D02*
D03*
Y261200D02*
D03*
Y286600D02*
D03*
Y312000D02*
D03*
Y337400D02*
D03*
Y362800D02*
D03*
X67000D02*
D03*
Y337400D02*
D03*
Y312000D02*
D03*
Y286600D02*
D03*
Y261200D02*
D03*
Y235800D02*
D03*
Y210400D02*
D03*
Y185000D02*
D03*
Y159600D02*
D03*
Y134200D02*
D03*
D83*
X875750Y708500D02*
D03*
X615750Y662250D02*
D03*
D84*
X925750Y708500D02*
D03*
X665750Y662250D02*
D03*
D85*
X110850Y822350D02*
D03*
D86*
X34650D02*
D03*
X110850Y847750D02*
D03*
X34650D02*
D03*
Y873150D02*
D03*
X110850D02*
D03*
X510050Y1028050D02*
D03*
X484650Y1104250D02*
D03*
Y1028050D02*
D03*
X459250D02*
D03*
Y1104250D02*
D03*
D87*
X510050D02*
D03*
D88*
X138250Y507250D02*
D03*
X256250Y806250D02*
D03*
X219250Y859000D02*
D03*
X406500Y635000D02*
D03*
X161000Y436250D02*
D03*
D89*
X1017650Y924950D02*
D03*
X992250D02*
D03*
X1017650Y950350D02*
D03*
X992250D02*
D03*
X1017650Y975750D02*
D03*
X196000Y1066550D02*
D03*
X221400D02*
D03*
X196000Y1041150D02*
D03*
X221400D02*
D03*
X196000Y1015750D02*
D03*
X180700Y39350D02*
D03*
Y64750D02*
D03*
X206100Y39350D02*
D03*
Y64750D02*
D03*
X231500Y39350D02*
D03*
X350250D02*
D03*
Y64750D02*
D03*
X375650Y39350D02*
D03*
Y64750D02*
D03*
X401050Y39350D02*
D03*
Y64750D02*
D03*
X426450Y39350D02*
D03*
Y64750D02*
D03*
X451850Y39350D02*
D03*
D90*
X992250Y975750D02*
D03*
X221400Y1015750D02*
D03*
D91*
X1012500Y703750D02*
D03*
Y94750D02*
D03*
D92*
Y753750D02*
D03*
Y644750D02*
D03*
Y594750D02*
D03*
Y544750D02*
D03*
Y494750D02*
D03*
Y444750D02*
D03*
Y394750D02*
D03*
Y344750D02*
D03*
Y294750D02*
D03*
Y244750D02*
D03*
Y194750D02*
D03*
Y144750D02*
D03*
D93*
X664900Y581750D02*
D03*
D94*
X639500D02*
D03*
X614100D02*
D03*
D95*
X727400Y912250D02*
D03*
X532500Y84800D02*
D03*
D96*
X702000Y912250D02*
D03*
X651200D02*
D03*
X625800D02*
D03*
X600400D02*
D03*
X575000D02*
D03*
D97*
X343850Y953500D02*
D03*
X369250D02*
D03*
X576500Y34000D02*
D03*
Y59400D02*
D03*
X532500Y34000D02*
D03*
Y59400D02*
D03*
D98*
X394650Y953500D02*
D03*
D99*
X702150Y1078750D02*
D03*
X587850D02*
D03*
X901650D02*
D03*
X787350D02*
D03*
D100*
X689450Y1015250D02*
D03*
X888950D02*
D03*
D101*
X676750Y989850D02*
D03*
X664050Y1015250D02*
D03*
X651350Y989850D02*
D03*
X638650Y1015250D02*
D03*
X625950Y989850D02*
D03*
X613250Y1015250D02*
D03*
X600550Y989850D02*
D03*
X876250D02*
D03*
X863550Y1015250D02*
D03*
X850850Y989850D02*
D03*
X838150Y1015250D02*
D03*
X825450Y989850D02*
D03*
X812750Y1015250D02*
D03*
X800050Y989850D02*
D03*
D102*
X722500Y1109250D02*
D03*
X567500D02*
D03*
X922000D02*
D03*
X767000D02*
D03*
D103*
X733850Y756200D02*
D03*
Y730800D02*
D03*
X657650D02*
D03*
X733850Y813450D02*
D03*
Y788050D02*
D03*
X657650D02*
D03*
X733850Y869450D02*
D03*
Y844050D02*
D03*
X657650D02*
D03*
D104*
Y756200D02*
D03*
Y813450D02*
D03*
Y869450D02*
D03*
D105*
X492250Y719050D02*
D03*
Y668250D02*
D03*
Y693650D02*
D03*
D106*
Y642850D02*
D03*
D107*
X231500Y64750D02*
D03*
X451850D02*
D03*
D108*
X576500Y84800D02*
D03*
D109*
X470000Y303500D02*
D03*
X404750Y289500D02*
D03*
X677500Y156750D02*
D03*
X669500Y182250D02*
D03*
X425500Y299000D02*
D03*
X377250Y281250D02*
D03*
X327500Y286250D02*
D03*
X306750Y290000D02*
D03*
X285500Y297750D02*
D03*
X236500Y296000D02*
D03*
X56750Y508750D02*
D03*
X55250Y542000D02*
D03*
X67750Y429000D02*
D03*
X79500Y441250D02*
D03*
X49250Y419500D02*
D03*
X335000Y326750D02*
D03*
X257500Y333000D02*
D03*
X320750Y525250D02*
D03*
X350750Y653250D02*
D03*
X301500Y999625D02*
D03*
X401750Y1004000D02*
D03*
X515000Y815500D02*
D03*
X408000Y820000D02*
D03*
X449500Y835500D02*
D03*
X378321Y622679D02*
D03*
X371250Y629750D02*
D03*
X232750Y751250D02*
D03*
X242750D02*
D03*
X312520Y699034D02*
D03*
X352500Y689500D02*
D03*
X374250Y503750D02*
D03*
X414750Y606750D02*
D03*
X381250Y668750D02*
D03*
X292520Y699020D02*
D03*
X215750Y748500D02*
D03*
X92750Y962500D02*
D03*
X79750Y1000000D02*
D03*
X816500Y317000D02*
D03*
X767000Y309750D02*
D03*
X290250Y1009750D02*
D03*
X354500Y470270D02*
D03*
X510000Y435000D02*
D03*
X596750Y216500D02*
D03*
X759000Y203250D02*
D03*
X738500Y236000D02*
D03*
X616270Y211500D02*
D03*
X609000Y234000D02*
D03*
X560250Y183250D02*
D03*
X489250Y281250D02*
D03*
X503250Y508750D02*
D03*
X467000Y509750D02*
D03*
X378500Y544000D02*
D03*
X373750Y564480D02*
D03*
X187000Y508500D02*
D03*
X376250Y531250D02*
D03*
X698250Y117000D02*
D03*
X604750Y153500D02*
D03*
X592250Y135750D02*
D03*
X482750Y795500D02*
D03*
X419500Y806250D02*
D03*
X394750Y1046250D02*
D03*
X413250Y1045250D02*
D03*
X333000Y1047250D02*
D03*
X340500Y1095000D02*
D03*
X342000Y1112250D02*
D03*
X373322Y1101822D02*
D03*
X370750Y1090250D02*
D03*
X391500Y1094250D02*
D03*
X206500Y705750D02*
D03*
X375000Y768500D02*
D03*
X402000Y782750D02*
D03*
X549250Y781500D02*
D03*
X361000Y761000D02*
D03*
X192250Y750500D02*
D03*
X196750Y731000D02*
D03*
X324750Y759250D02*
D03*
X484500Y771250D02*
D03*
X162250Y579020D02*
D03*
X478250Y782000D02*
D03*
X166250Y509750D02*
D03*
X166000Y521000D02*
D03*
X544250Y805250D02*
D03*
X313000Y757500D02*
D03*
X300500D02*
D03*
X272500Y748000D02*
D03*
X260500Y740000D02*
D03*
X302520Y699038D02*
D03*
X332500Y687000D02*
D03*
X332750Y698750D02*
D03*
X322520Y699034D02*
D03*
X293750Y747250D02*
D03*
X40490Y559260D02*
D03*
X170500Y104250D02*
D03*
X220500Y210500D02*
D03*
X606250Y179000D02*
D03*
Y165750D02*
D03*
X700250Y204000D02*
D03*
X687000Y184000D02*
D03*
X702843Y139593D02*
D03*
X810250Y98750D02*
D03*
X761750Y126500D02*
D03*
X796000Y99000D02*
D03*
X761750Y140750D02*
D03*
X383500Y271250D02*
D03*
X270500Y295250D02*
D03*
X253000Y220000D02*
D03*
X289750D02*
D03*
X327750D02*
D03*
X364750Y220250D02*
D03*
X404500Y219000D02*
D03*
X442000Y219750D02*
D03*
X482000Y219500D02*
D03*
X451510Y279894D02*
D03*
X299250Y279250D02*
D03*
X413750Y280000D02*
D03*
X224250Y278250D02*
D03*
X162000Y85000D02*
D03*
X120750Y364500D02*
D03*
X262250Y279500D02*
D03*
X337000D02*
D03*
X290750Y435500D02*
D03*
X310250Y424750D02*
D03*
X309750Y464750D02*
D03*
X275250Y444000D02*
D03*
X222250Y480000D02*
D03*
X201750Y457000D02*
D03*
X340000Y398500D02*
D03*
X372000Y479750D02*
D03*
X464000Y487750D02*
D03*
X467750Y456000D02*
D03*
X467000Y469500D02*
D03*
X533560Y399542D02*
D03*
X344250Y698500D02*
D03*
X282250Y757250D02*
D03*
X509500Y408500D02*
D03*
X760750Y151500D02*
D03*
X699738Y165500D02*
D03*
X235250Y639000D02*
D03*
X204750Y616250D02*
D03*
D110*
X32500Y29500D02*
D03*
X1025750D02*
D03*
Y1089750D02*
D03*
X32500D02*
D03*
D147*
X720700Y383500D02*
D03*
X688000D02*
D03*
X719850Y434780D02*
D03*
X687150D02*
D03*
X720100Y409140D02*
D03*
X687400D02*
D03*
X914100Y192850D02*
D03*
X881400D02*
D03*
X914100Y77250D02*
D03*
X881400D02*
D03*
X914100Y163950D02*
D03*
X881400D02*
D03*
X914100Y221750D02*
D03*
X881400D02*
D03*
X914100Y106150D02*
D03*
X881400D02*
D03*
X914100Y135050D02*
D03*
X881400D02*
D03*
M02*
